G04*
G04 #@! TF.GenerationSoftware,Altium Limited,Altium Designer,21.7.2 (23)*
G04*
G04 Layer_Physical_Order=3*
G04 Layer_Color=16440176*
%FSAX25Y25*%
%MOIN*%
G70*
G04*
G04 #@! TF.SameCoordinates,7A990169-6DC8-41C8-B485-EB3673424C17*
G04*
G04*
G04 #@! TF.FilePolarity,Positive*
G04*
G01*
G75*
%ADD14C,0.03937*%
%ADD15R,0.03937X0.03937*%
%ADD21C,0.02362*%
%ADD22C,0.07874*%
%ADD23C,0.07087*%
G36*
X0148680Y0125926D02*
X0148984Y0125622D01*
X0149530Y0124805D01*
X0149907Y0123897D01*
X0150098Y0122932D01*
Y0112357D01*
X0150008Y0111902D01*
X0149831Y0111474D01*
X0149573Y0111089D01*
X0149409Y0110925D01*
X0149246Y0110761D01*
X0148860Y0110504D01*
X0148432Y0110327D01*
X0147978Y0110236D01*
X0145011D01*
X0144751Y0110288D01*
X0144507Y0110389D01*
X0144287Y0110536D01*
X0144193Y0110630D01*
Y0117482D01*
X0144172Y0117910D01*
X0144005Y0118750D01*
X0143677Y0119541D01*
X0143201Y0120253D01*
X0142913Y0120571D01*
X0148080Y0126020D01*
X0148488Y0126025D01*
X0148680Y0125926D01*
D02*
G37*
D14*
X0146102Y0117854D02*
D03*
D15*
Y0112854D02*
D03*
D21*
X0158169Y0140847D02*
D03*
Y0143996D02*
D03*
D22*
X0145784Y0123288D02*
G03*
X0146109Y0122948I0005859J0005260D01*
G01*
X0145784Y0123288D02*
G03*
X0145380Y0123714I-0007457J-0006663D01*
G01*
D23*
X0169587Y0134055D02*
G03*
X0175492Y0139961I0000000J0005906D01*
G01*
X0171547Y0124213D02*
G03*
X0178618Y0127141I0000000J0010000D01*
G01*
X0140453Y0132784D02*
G03*
X0143382Y0125713I0010000J0000000D01*
G01*
X0149591Y0137721D02*
G03*
X0152520Y0130650I0010000J0000000D01*
G01*
X0156028Y0127141D02*
G03*
X0163099Y0124213I0007071J0007071D01*
G01*
X0159744Y0139194D02*
G03*
X0161221Y0135630I0005041J0000000D01*
G01*
D02*
G03*
X0165022Y0134055I0003802J0003802D01*
G01*
X0175561Y0146382D02*
G03*
X0175492Y0145353I0007805J-0001041D01*
G01*
X0184646Y0191831D02*
G03*
X0175295Y0201181I-0009350J0000000D01*
G01*
X0175606Y0187205D02*
G03*
X0170669Y0192142I-0004937J0000000D01*
G01*
X0154528D02*
G03*
X0151037Y0190696I0000000J-0004937D01*
G01*
X0150453Y0201181D02*
G03*
X0140453Y0191181I0000000J-0010000D01*
G01*
X0151037Y0190696D02*
G03*
X0149591Y0187205I0003491J-0003491D01*
G01*
X0181791Y0130315D02*
G03*
X0184646Y0137206I-0006891J0006891D01*
G01*
X0175591Y0146653D02*
G03*
X0175606Y0147047I-0004921J0000394D01*
G01*
X0175561Y0146382D02*
G03*
X0175591Y0146653I-0004892J0000665D01*
G01*
X0159744Y0139194D02*
Y0142028D01*
X0163099Y0124213D02*
X0171547D01*
X0175492Y0145353D02*
Y0145353D01*
Y0139961D02*
Y0145353D01*
X0184646Y0137206D02*
Y0191831D01*
X0178618Y0127141D02*
X0181791Y0130315D01*
X0152520Y0130650D02*
X0156028Y0127141D01*
X0143382Y0125713D02*
X0146161Y0122933D01*
X0143382Y0125713D02*
X0145380Y0123714D01*
X0161534Y0124213D02*
X0163099D01*
X0175606Y0147047D02*
Y0187205D01*
X0165022Y0134055D02*
X0169587D01*
X0154528Y0192142D02*
X0170669D01*
X0150453Y0201181D02*
X0175295D01*
X0140453Y0132784D02*
Y0191181D01*
X0149591Y0137721D02*
Y0187205D01*
M02*
