G04*
G04 #@! TF.GenerationSoftware,Altium Limited,Altium Designer,21.7.2 (23)*
G04*
G04 Layer_Color=65535*
%FSAX25Y25*%
%MOIN*%
G70*
G04*
G04 #@! TF.SameCoordinates,7A990169-6DC8-41C8-B485-EB3673424C17*
G04*
G04*
G04 #@! TF.FilePolarity,Positive*
G04*
G01*
G75*
%ADD10C,0.00984*%
%ADD11C,0.00787*%
G36*
X0160294Y0132956D02*
X0159627D01*
Y0135331D01*
X0157013D01*
Y0132956D01*
X0156347D01*
Y0137997D01*
X0157013D01*
Y0135922D01*
X0159627D01*
Y0137997D01*
X0160294D01*
Y0132956D01*
D02*
G37*
G36*
X0178645Y0135907D02*
X0177940D01*
Y0136611D01*
X0178645D01*
Y0135907D01*
D02*
G37*
G36*
X0172772D02*
X0172068D01*
Y0136611D01*
X0172772D01*
Y0135907D01*
D02*
G37*
G36*
X0181341Y0138005D02*
X0181401Y0137997D01*
X0181476Y0137990D01*
X0181551Y0137982D01*
X0181641Y0137960D01*
X0181820Y0137915D01*
X0182015Y0137840D01*
X0182105Y0137795D01*
X0182195Y0137742D01*
X0182285Y0137683D01*
X0182367Y0137608D01*
X0182375Y0137600D01*
X0182382Y0137593D01*
X0182405Y0137570D01*
X0182434Y0137533D01*
X0182465Y0137495D01*
X0182502Y0137450D01*
X0182539Y0137390D01*
X0182584Y0137331D01*
X0182659Y0137188D01*
X0182727Y0137016D01*
X0182757Y0136926D01*
X0182779Y0136821D01*
X0182787Y0136724D01*
X0182794Y0136611D01*
Y0136597D01*
Y0136559D01*
X0182787Y0136499D01*
X0182779Y0136424D01*
X0182764Y0136327D01*
X0182742Y0136230D01*
X0182712Y0136125D01*
X0182667Y0136012D01*
X0182659Y0135997D01*
X0182644Y0135960D01*
X0182614Y0135907D01*
X0182569Y0135833D01*
X0182509Y0135735D01*
X0182442Y0135630D01*
X0182352Y0135518D01*
X0182255Y0135398D01*
X0182240Y0135383D01*
X0182202Y0135338D01*
X0182172Y0135308D01*
X0182127Y0135263D01*
X0182082Y0135218D01*
X0182030Y0135166D01*
X0181970Y0135106D01*
X0181895Y0135039D01*
X0181820Y0134971D01*
X0181730Y0134889D01*
X0181641Y0134806D01*
X0181536Y0134717D01*
X0181423Y0134619D01*
X0181304Y0134514D01*
X0181296Y0134507D01*
X0181281Y0134492D01*
X0181251Y0134469D01*
X0181214Y0134439D01*
X0181124Y0134357D01*
X0181004Y0134260D01*
X0180884Y0134155D01*
X0180772Y0134050D01*
X0180667Y0133953D01*
X0180629Y0133915D01*
X0180592Y0133878D01*
X0180585Y0133870D01*
X0180570Y0133848D01*
X0180540Y0133818D01*
X0180502Y0133773D01*
X0180457Y0133728D01*
X0180412Y0133668D01*
X0180330Y0133548D01*
X0182801D01*
Y0132956D01*
X0179469D01*
Y0132964D01*
Y0132994D01*
Y0133039D01*
X0179476Y0133091D01*
X0179483Y0133159D01*
X0179491Y0133226D01*
X0179513Y0133308D01*
X0179536Y0133383D01*
Y0133391D01*
X0179543Y0133398D01*
X0179558Y0133443D01*
X0179588Y0133511D01*
X0179633Y0133593D01*
X0179693Y0133698D01*
X0179761Y0133810D01*
X0179843Y0133930D01*
X0179940Y0134050D01*
Y0134057D01*
X0179955Y0134065D01*
X0179993Y0134110D01*
X0180060Y0134177D01*
X0180150Y0134267D01*
X0180262Y0134379D01*
X0180405Y0134514D01*
X0180570Y0134657D01*
X0180757Y0134814D01*
X0180764Y0134821D01*
X0180794Y0134844D01*
X0180832Y0134881D01*
X0180892Y0134926D01*
X0180959Y0134979D01*
X0181034Y0135046D01*
X0181199Y0135203D01*
X0181386Y0135368D01*
X0181566Y0135548D01*
X0181656Y0135638D01*
X0181730Y0135720D01*
X0181805Y0135803D01*
X0181865Y0135878D01*
Y0135885D01*
X0181880Y0135892D01*
X0181895Y0135915D01*
X0181910Y0135945D01*
X0181955Y0136020D01*
X0182015Y0136117D01*
X0182068Y0136237D01*
X0182113Y0136364D01*
X0182142Y0136492D01*
X0182157Y0136627D01*
Y0136634D01*
Y0136642D01*
X0182150Y0136686D01*
X0182142Y0136754D01*
X0182127Y0136844D01*
X0182090Y0136941D01*
X0182045Y0137046D01*
X0181978Y0137151D01*
X0181888Y0137248D01*
X0181873Y0137256D01*
X0181843Y0137286D01*
X0181783Y0137331D01*
X0181708Y0137375D01*
X0181603Y0137420D01*
X0181491Y0137465D01*
X0181356Y0137495D01*
X0181206Y0137503D01*
X0181161D01*
X0181131Y0137495D01*
X0181049Y0137488D01*
X0180951Y0137465D01*
X0180832Y0137435D01*
X0180712Y0137383D01*
X0180592Y0137316D01*
X0180487Y0137226D01*
X0180480Y0137211D01*
X0180450Y0137173D01*
X0180405Y0137113D01*
X0180360Y0137031D01*
X0180307Y0136926D01*
X0180270Y0136799D01*
X0180240Y0136649D01*
X0180225Y0136484D01*
X0179588Y0136552D01*
Y0136559D01*
Y0136582D01*
X0179596Y0136619D01*
X0179603Y0136671D01*
X0179618Y0136731D01*
X0179633Y0136799D01*
X0179671Y0136956D01*
X0179731Y0137128D01*
X0179821Y0137308D01*
X0179873Y0137398D01*
X0179933Y0137480D01*
X0180000Y0137563D01*
X0180075Y0137638D01*
X0180083Y0137645D01*
X0180098Y0137653D01*
X0180120Y0137675D01*
X0180150Y0137698D01*
X0180195Y0137727D01*
X0180247Y0137758D01*
X0180307Y0137787D01*
X0180382Y0137825D01*
X0180457Y0137862D01*
X0180540Y0137892D01*
X0180637Y0137922D01*
X0180742Y0137952D01*
X0180847Y0137975D01*
X0180966Y0137997D01*
X0181086Y0138005D01*
X0181221Y0138012D01*
X0181289D01*
X0181341Y0138005D01*
D02*
G37*
G36*
X0178645Y0132956D02*
X0177940D01*
Y0133660D01*
X0178645D01*
Y0132956D01*
D02*
G37*
G36*
X0172772D02*
X0172068D01*
Y0133660D01*
X0172772D01*
Y0132956D01*
D02*
G37*
G36*
X0169597Y0138005D02*
X0169657Y0137997D01*
X0169731Y0137990D01*
X0169806Y0137982D01*
X0169896Y0137960D01*
X0170076Y0137915D01*
X0170271Y0137840D01*
X0170361Y0137795D01*
X0170450Y0137742D01*
X0170540Y0137683D01*
X0170623Y0137608D01*
X0170630Y0137600D01*
X0170638Y0137593D01*
X0170660Y0137570D01*
X0170690Y0137533D01*
X0170720Y0137495D01*
X0170758Y0137450D01*
X0170795Y0137390D01*
X0170840Y0137331D01*
X0170915Y0137188D01*
X0170982Y0137016D01*
X0171012Y0136926D01*
X0171035Y0136821D01*
X0171042Y0136724D01*
X0171050Y0136611D01*
Y0136597D01*
Y0136559D01*
X0171042Y0136499D01*
X0171035Y0136424D01*
X0171020Y0136327D01*
X0170997Y0136230D01*
X0170967Y0136125D01*
X0170922Y0136012D01*
X0170915Y0135997D01*
X0170900Y0135960D01*
X0170870Y0135907D01*
X0170825Y0135833D01*
X0170765Y0135735D01*
X0170698Y0135630D01*
X0170608Y0135518D01*
X0170510Y0135398D01*
X0170495Y0135383D01*
X0170458Y0135338D01*
X0170428Y0135308D01*
X0170383Y0135263D01*
X0170338Y0135218D01*
X0170286Y0135166D01*
X0170226Y0135106D01*
X0170151Y0135039D01*
X0170076Y0134971D01*
X0169986Y0134889D01*
X0169896Y0134806D01*
X0169791Y0134717D01*
X0169679Y0134619D01*
X0169559Y0134514D01*
X0169552Y0134507D01*
X0169537Y0134492D01*
X0169507Y0134469D01*
X0169469Y0134439D01*
X0169379Y0134357D01*
X0169260Y0134260D01*
X0169140Y0134155D01*
X0169027Y0134050D01*
X0168923Y0133953D01*
X0168885Y0133915D01*
X0168848Y0133878D01*
X0168840Y0133870D01*
X0168825Y0133848D01*
X0168795Y0133818D01*
X0168758Y0133773D01*
X0168713Y0133728D01*
X0168668Y0133668D01*
X0168586Y0133548D01*
X0171057D01*
Y0132956D01*
X0167724D01*
Y0132964D01*
Y0132994D01*
Y0133039D01*
X0167732Y0133091D01*
X0167739Y0133159D01*
X0167747Y0133226D01*
X0167769Y0133308D01*
X0167792Y0133383D01*
Y0133391D01*
X0167799Y0133398D01*
X0167814Y0133443D01*
X0167844Y0133511D01*
X0167889Y0133593D01*
X0167949Y0133698D01*
X0168016Y0133810D01*
X0168099Y0133930D01*
X0168196Y0134050D01*
Y0134057D01*
X0168211Y0134065D01*
X0168248Y0134110D01*
X0168316Y0134177D01*
X0168406Y0134267D01*
X0168518Y0134379D01*
X0168660Y0134514D01*
X0168825Y0134657D01*
X0169012Y0134814D01*
X0169020Y0134821D01*
X0169050Y0134844D01*
X0169087Y0134881D01*
X0169147Y0134926D01*
X0169215Y0134979D01*
X0169290Y0135046D01*
X0169454Y0135203D01*
X0169642Y0135368D01*
X0169821Y0135548D01*
X0169911Y0135638D01*
X0169986Y0135720D01*
X0170061Y0135803D01*
X0170121Y0135878D01*
Y0135885D01*
X0170136Y0135892D01*
X0170151Y0135915D01*
X0170166Y0135945D01*
X0170211Y0136020D01*
X0170271Y0136117D01*
X0170323Y0136237D01*
X0170368Y0136364D01*
X0170398Y0136492D01*
X0170413Y0136627D01*
Y0136634D01*
Y0136642D01*
X0170406Y0136686D01*
X0170398Y0136754D01*
X0170383Y0136844D01*
X0170346Y0136941D01*
X0170301Y0137046D01*
X0170233Y0137151D01*
X0170143Y0137248D01*
X0170129Y0137256D01*
X0170098Y0137286D01*
X0170039Y0137331D01*
X0169964Y0137375D01*
X0169859Y0137420D01*
X0169746Y0137465D01*
X0169612Y0137495D01*
X0169462Y0137503D01*
X0169417D01*
X0169387Y0137495D01*
X0169305Y0137488D01*
X0169207Y0137465D01*
X0169087Y0137435D01*
X0168967Y0137383D01*
X0168848Y0137316D01*
X0168743Y0137226D01*
X0168735Y0137211D01*
X0168705Y0137173D01*
X0168660Y0137113D01*
X0168615Y0137031D01*
X0168563Y0136926D01*
X0168526Y0136799D01*
X0168496Y0136649D01*
X0168481Y0136484D01*
X0167844Y0136552D01*
Y0136559D01*
Y0136582D01*
X0167851Y0136619D01*
X0167859Y0136671D01*
X0167874Y0136731D01*
X0167889Y0136799D01*
X0167926Y0136956D01*
X0167986Y0137128D01*
X0168076Y0137308D01*
X0168129Y0137398D01*
X0168189Y0137480D01*
X0168256Y0137563D01*
X0168331Y0137638D01*
X0168338Y0137645D01*
X0168353Y0137653D01*
X0168376Y0137675D01*
X0168406Y0137698D01*
X0168451Y0137727D01*
X0168503Y0137758D01*
X0168563Y0137787D01*
X0168638Y0137825D01*
X0168713Y0137862D01*
X0168795Y0137892D01*
X0168893Y0137922D01*
X0168998Y0137952D01*
X0169102Y0137975D01*
X0169222Y0137997D01*
X0169342Y0138005D01*
X0169477Y0138012D01*
X0169544D01*
X0169597Y0138005D01*
D02*
G37*
G36*
X0163410Y0137990D02*
X0163470D01*
X0163597Y0137975D01*
X0163747Y0137960D01*
X0163897Y0137930D01*
X0164054Y0137892D01*
X0164189Y0137840D01*
X0164196D01*
X0164204Y0137832D01*
X0164249Y0137810D01*
X0164309Y0137773D01*
X0164391Y0137727D01*
X0164481Y0137660D01*
X0164571Y0137578D01*
X0164653Y0137480D01*
X0164736Y0137368D01*
X0164743Y0137353D01*
X0164766Y0137316D01*
X0164803Y0137248D01*
X0164840Y0137166D01*
X0164871Y0137068D01*
X0164908Y0136956D01*
X0164930Y0136829D01*
X0164938Y0136701D01*
Y0136686D01*
Y0136649D01*
X0164930Y0136582D01*
X0164915Y0136507D01*
X0164893Y0136409D01*
X0164863Y0136312D01*
X0164818Y0136200D01*
X0164758Y0136095D01*
X0164751Y0136080D01*
X0164728Y0136050D01*
X0164683Y0135997D01*
X0164631Y0135930D01*
X0164556Y0135855D01*
X0164459Y0135780D01*
X0164354Y0135705D01*
X0164226Y0135638D01*
X0164234D01*
X0164249Y0135630D01*
X0164271Y0135623D01*
X0164301Y0135615D01*
X0164384Y0135578D01*
X0164488Y0135533D01*
X0164601Y0135466D01*
X0164713Y0135383D01*
X0164833Y0135286D01*
X0164930Y0135173D01*
X0164938Y0135159D01*
X0164968Y0135114D01*
X0165013Y0135046D01*
X0165058Y0134956D01*
X0165103Y0134844D01*
X0165148Y0134717D01*
X0165178Y0134574D01*
X0165185Y0134417D01*
Y0134409D01*
Y0134402D01*
Y0134357D01*
X0165178Y0134290D01*
X0165170Y0134200D01*
X0165148Y0134095D01*
X0165125Y0133983D01*
X0165088Y0133870D01*
X0165035Y0133750D01*
X0165028Y0133735D01*
X0165005Y0133698D01*
X0164975Y0133645D01*
X0164930Y0133578D01*
X0164878Y0133503D01*
X0164818Y0133428D01*
X0164743Y0133353D01*
X0164661Y0133286D01*
X0164653Y0133279D01*
X0164623Y0133256D01*
X0164571Y0133226D01*
X0164511Y0133196D01*
X0164429Y0133151D01*
X0164339Y0133114D01*
X0164226Y0133076D01*
X0164107Y0133039D01*
X0164092D01*
X0164047Y0133024D01*
X0163979Y0133016D01*
X0163882Y0133001D01*
X0163762Y0132986D01*
X0163627Y0132971D01*
X0163470Y0132964D01*
X0163298Y0132956D01*
X0161380D01*
Y0137997D01*
X0163365D01*
X0163410Y0137990D01*
D02*
G37*
G36*
X0153680Y0137406D02*
X0152018D01*
Y0132956D01*
X0151351D01*
Y0137406D01*
X0149688D01*
Y0137997D01*
X0153680D01*
Y0137406D01*
D02*
G37*
G36*
X0147554Y0137990D02*
X0147673Y0137982D01*
X0147801Y0137975D01*
X0147928Y0137960D01*
X0148033Y0137945D01*
X0148048D01*
X0148093Y0137930D01*
X0148168Y0137915D01*
X0148250Y0137892D01*
X0148348Y0137862D01*
X0148452Y0137825D01*
X0148557Y0137773D01*
X0148655Y0137713D01*
X0148670Y0137705D01*
X0148700Y0137683D01*
X0148744Y0137645D01*
X0148804Y0137585D01*
X0148864Y0137518D01*
X0148932Y0137435D01*
X0148999Y0137338D01*
X0149059Y0137226D01*
X0149067Y0137211D01*
X0149082Y0137173D01*
X0149111Y0137106D01*
X0149142Y0137023D01*
X0149164Y0136919D01*
X0149194Y0136806D01*
X0149209Y0136671D01*
X0149216Y0136537D01*
Y0136529D01*
Y0136507D01*
Y0136477D01*
X0149209Y0136432D01*
X0149201Y0136372D01*
X0149194Y0136312D01*
X0149179Y0136237D01*
X0149164Y0136162D01*
X0149119Y0135990D01*
X0149044Y0135810D01*
X0148999Y0135713D01*
X0148939Y0135623D01*
X0148879Y0135533D01*
X0148804Y0135451D01*
X0148797Y0135443D01*
X0148782Y0135428D01*
X0148759Y0135413D01*
X0148722Y0135383D01*
X0148677Y0135346D01*
X0148617Y0135308D01*
X0148550Y0135271D01*
X0148467Y0135233D01*
X0148370Y0135188D01*
X0148265Y0135151D01*
X0148145Y0135114D01*
X0148011Y0135076D01*
X0147861Y0135046D01*
X0147696Y0135031D01*
X0147524Y0135016D01*
X0147329Y0135009D01*
X0146041D01*
Y0132956D01*
X0145374D01*
Y0137997D01*
X0147441D01*
X0147554Y0137990D01*
D02*
G37*
G36*
X0175431Y0138005D02*
X0175484Y0137997D01*
X0175551Y0137990D01*
X0175701Y0137967D01*
X0175866Y0137915D01*
X0176046Y0137847D01*
X0176135Y0137802D01*
X0176218Y0137750D01*
X0176308Y0137690D01*
X0176383Y0137623D01*
X0176390Y0137615D01*
X0176398Y0137608D01*
X0176420Y0137585D01*
X0176443Y0137555D01*
X0176480Y0137518D01*
X0176510Y0137473D01*
X0176585Y0137361D01*
X0176660Y0137226D01*
X0176727Y0137068D01*
X0176772Y0136889D01*
X0176780Y0136791D01*
X0176787Y0136694D01*
Y0136686D01*
Y0136679D01*
Y0136634D01*
X0176780Y0136567D01*
X0176765Y0136484D01*
X0176742Y0136387D01*
X0176705Y0136290D01*
X0176660Y0136185D01*
X0176600Y0136080D01*
X0176592Y0136072D01*
X0176562Y0136035D01*
X0176517Y0135990D01*
X0176458Y0135937D01*
X0176383Y0135870D01*
X0176285Y0135803D01*
X0176173Y0135743D01*
X0176038Y0135683D01*
X0176046D01*
X0176060Y0135675D01*
X0176083Y0135668D01*
X0176113Y0135653D01*
X0176203Y0135615D01*
X0176308Y0135563D01*
X0176420Y0135495D01*
X0176540Y0135413D01*
X0176652Y0135316D01*
X0176750Y0135196D01*
X0176757Y0135181D01*
X0176787Y0135136D01*
X0176824Y0135069D01*
X0176877Y0134971D01*
X0176922Y0134851D01*
X0176959Y0134717D01*
X0176989Y0134559D01*
X0176997Y0134395D01*
Y0134387D01*
Y0134364D01*
Y0134335D01*
X0176989Y0134290D01*
X0176982Y0134230D01*
X0176974Y0134170D01*
X0176959Y0134095D01*
X0176937Y0134020D01*
X0176884Y0133848D01*
X0176847Y0133758D01*
X0176802Y0133668D01*
X0176750Y0133571D01*
X0176682Y0133481D01*
X0176615Y0133391D01*
X0176532Y0133308D01*
X0176525Y0133301D01*
X0176510Y0133293D01*
X0176488Y0133271D01*
X0176450Y0133241D01*
X0176405Y0133211D01*
X0176353Y0133174D01*
X0176285Y0133129D01*
X0176210Y0133091D01*
X0176128Y0133054D01*
X0176038Y0133009D01*
X0175941Y0132971D01*
X0175836Y0132941D01*
X0175724Y0132912D01*
X0175596Y0132896D01*
X0175469Y0132881D01*
X0175334Y0132874D01*
X0175259D01*
X0175207Y0132881D01*
X0175147Y0132889D01*
X0175072Y0132896D01*
X0174989Y0132912D01*
X0174900Y0132926D01*
X0174712Y0132979D01*
X0174608Y0133016D01*
X0174510Y0133061D01*
X0174413Y0133106D01*
X0174308Y0133166D01*
X0174218Y0133233D01*
X0174128Y0133308D01*
X0174121Y0133316D01*
X0174106Y0133331D01*
X0174083Y0133353D01*
X0174061Y0133391D01*
X0174023Y0133428D01*
X0173986Y0133481D01*
X0173941Y0133541D01*
X0173903Y0133616D01*
X0173858Y0133690D01*
X0173814Y0133773D01*
X0173746Y0133960D01*
X0173716Y0134065D01*
X0173694Y0134170D01*
X0173679Y0134290D01*
X0173671Y0134409D01*
Y0134417D01*
Y0134432D01*
Y0134454D01*
X0173679Y0134492D01*
Y0134537D01*
X0173686Y0134582D01*
X0173701Y0134702D01*
X0173731Y0134829D01*
X0173776Y0134964D01*
X0173836Y0135106D01*
X0173918Y0135233D01*
Y0135241D01*
X0173933Y0135248D01*
X0173963Y0135286D01*
X0174023Y0135346D01*
X0174098Y0135413D01*
X0174203Y0135488D01*
X0174323Y0135563D01*
X0174465Y0135630D01*
X0174630Y0135683D01*
X0174622D01*
X0174615Y0135690D01*
X0174570Y0135713D01*
X0174495Y0135743D01*
X0174413Y0135788D01*
X0174315Y0135847D01*
X0174225Y0135915D01*
X0174136Y0135997D01*
X0174053Y0136087D01*
X0174046Y0136102D01*
X0174023Y0136132D01*
X0173993Y0136192D01*
X0173963Y0136267D01*
X0173933Y0136357D01*
X0173903Y0136462D01*
X0173881Y0136582D01*
X0173873Y0136709D01*
Y0136716D01*
Y0136731D01*
Y0136761D01*
X0173881Y0136799D01*
X0173888Y0136851D01*
X0173896Y0136904D01*
X0173926Y0137031D01*
X0173971Y0137181D01*
X0174038Y0137338D01*
X0174083Y0137413D01*
X0174136Y0137488D01*
X0174196Y0137563D01*
X0174263Y0137638D01*
X0174270Y0137645D01*
X0174278Y0137653D01*
X0174308Y0137675D01*
X0174338Y0137698D01*
X0174375Y0137727D01*
X0174420Y0137758D01*
X0174480Y0137787D01*
X0174548Y0137825D01*
X0174615Y0137862D01*
X0174697Y0137892D01*
X0174877Y0137952D01*
X0175087Y0137997D01*
X0175199Y0138005D01*
X0175319Y0138012D01*
X0175386D01*
X0175431Y0138005D01*
D02*
G37*
G36*
X0129291Y0126795D02*
X0129336D01*
X0129439Y0126783D01*
X0129553Y0126766D01*
X0129679Y0126738D01*
X0129810Y0126704D01*
X0129936Y0126658D01*
X0129942D01*
X0129953Y0126652D01*
X0129970Y0126646D01*
X0129993Y0126635D01*
X0130050Y0126601D01*
X0130124Y0126555D01*
X0130204Y0126498D01*
X0130290Y0126429D01*
X0130370Y0126349D01*
X0130438Y0126252D01*
X0130444Y0126241D01*
X0130467Y0126207D01*
X0130496Y0126150D01*
X0130530Y0126081D01*
X0130564Y0125990D01*
X0130593Y0125887D01*
X0130621Y0125773D01*
X0130633Y0125653D01*
X0130147Y0125619D01*
Y0125624D01*
Y0125636D01*
X0130141Y0125653D01*
X0130136Y0125676D01*
X0130124Y0125744D01*
X0130102Y0125824D01*
X0130062Y0125910D01*
X0130016Y0126001D01*
X0129959Y0126087D01*
X0129879Y0126161D01*
X0129867Y0126167D01*
X0129839Y0126190D01*
X0129782Y0126218D01*
X0129708Y0126258D01*
X0129616Y0126292D01*
X0129496Y0126321D01*
X0129359Y0126344D01*
X0129205Y0126349D01*
X0129131D01*
X0129091Y0126344D01*
X0129051Y0126338D01*
X0128948Y0126327D01*
X0128840Y0126310D01*
X0128731Y0126275D01*
X0128628Y0126235D01*
X0128577Y0126207D01*
X0128537Y0126178D01*
X0128526Y0126172D01*
X0128503Y0126150D01*
X0128469Y0126110D01*
X0128434Y0126064D01*
X0128394Y0126001D01*
X0128360Y0125933D01*
X0128337Y0125853D01*
X0128326Y0125767D01*
Y0125756D01*
Y0125733D01*
X0128331Y0125693D01*
X0128343Y0125647D01*
X0128360Y0125596D01*
X0128389Y0125539D01*
X0128423Y0125482D01*
X0128474Y0125430D01*
X0128480Y0125425D01*
X0128508Y0125407D01*
X0128526Y0125396D01*
X0128554Y0125379D01*
X0128583Y0125362D01*
X0128623Y0125345D01*
X0128668Y0125322D01*
X0128726Y0125305D01*
X0128788Y0125276D01*
X0128857Y0125253D01*
X0128937Y0125230D01*
X0129028Y0125202D01*
X0129131Y0125179D01*
X0129239Y0125150D01*
X0129245D01*
X0129268Y0125145D01*
X0129297Y0125139D01*
X0129342Y0125127D01*
X0129393Y0125116D01*
X0129451Y0125099D01*
X0129582Y0125071D01*
X0129719Y0125031D01*
X0129862Y0124990D01*
X0129924Y0124973D01*
X0129987Y0124951D01*
X0130044Y0124928D01*
X0130090Y0124911D01*
X0130096D01*
X0130107Y0124905D01*
X0130124Y0124893D01*
X0130147Y0124882D01*
X0130204Y0124848D01*
X0130279Y0124802D01*
X0130359Y0124745D01*
X0130444Y0124682D01*
X0130518Y0124602D01*
X0130587Y0124517D01*
X0130593Y0124505D01*
X0130610Y0124477D01*
X0130638Y0124425D01*
X0130667Y0124362D01*
X0130695Y0124283D01*
X0130724Y0124191D01*
X0130741Y0124088D01*
X0130747Y0123974D01*
Y0123968D01*
Y0123963D01*
Y0123946D01*
Y0123923D01*
X0130735Y0123860D01*
X0130724Y0123786D01*
X0130701Y0123694D01*
X0130673Y0123597D01*
X0130627Y0123495D01*
X0130570Y0123392D01*
Y0123386D01*
X0130564Y0123380D01*
X0130535Y0123346D01*
X0130496Y0123300D01*
X0130438Y0123238D01*
X0130370Y0123175D01*
X0130279Y0123100D01*
X0130182Y0123038D01*
X0130062Y0122975D01*
X0130056D01*
X0130044Y0122969D01*
X0130027Y0122964D01*
X0130005Y0122952D01*
X0129976Y0122941D01*
X0129936Y0122929D01*
X0129850Y0122901D01*
X0129736Y0122872D01*
X0129616Y0122849D01*
X0129473Y0122832D01*
X0129325Y0122826D01*
X0129239D01*
X0129194Y0122832D01*
X0129142D01*
X0129085Y0122838D01*
X0129022Y0122844D01*
X0128885Y0122861D01*
X0128737Y0122889D01*
X0128588Y0122924D01*
X0128451Y0122975D01*
X0128446D01*
X0128434Y0122981D01*
X0128417Y0122992D01*
X0128394Y0123003D01*
X0128331Y0123038D01*
X0128252Y0123089D01*
X0128160Y0123152D01*
X0128069Y0123232D01*
X0127977Y0123323D01*
X0127898Y0123432D01*
Y0123437D01*
X0127892Y0123443D01*
X0127880Y0123460D01*
X0127869Y0123489D01*
X0127852Y0123517D01*
X0127835Y0123552D01*
X0127795Y0123637D01*
X0127761Y0123740D01*
X0127726Y0123854D01*
X0127703Y0123986D01*
X0127692Y0124128D01*
X0128172Y0124168D01*
Y0124163D01*
Y0124157D01*
X0128177Y0124123D01*
X0128189Y0124065D01*
X0128200Y0123997D01*
X0128223Y0123923D01*
X0128252Y0123843D01*
X0128286Y0123763D01*
X0128326Y0123689D01*
X0128331Y0123683D01*
X0128349Y0123660D01*
X0128377Y0123626D01*
X0128423Y0123586D01*
X0128474Y0123535D01*
X0128543Y0123489D01*
X0128623Y0123437D01*
X0128714Y0123392D01*
X0128720D01*
X0128726Y0123386D01*
X0128760Y0123375D01*
X0128817Y0123357D01*
X0128885Y0123335D01*
X0128971Y0123312D01*
X0129074Y0123295D01*
X0129182Y0123283D01*
X0129302Y0123277D01*
X0129353D01*
X0129405Y0123283D01*
X0129473Y0123289D01*
X0129553Y0123300D01*
X0129639Y0123312D01*
X0129725Y0123335D01*
X0129810Y0123363D01*
X0129822Y0123369D01*
X0129845Y0123380D01*
X0129885Y0123397D01*
X0129936Y0123426D01*
X0129987Y0123460D01*
X0130044Y0123500D01*
X0130096Y0123546D01*
X0130141Y0123597D01*
X0130147Y0123603D01*
X0130159Y0123626D01*
X0130176Y0123654D01*
X0130199Y0123694D01*
X0130221Y0123746D01*
X0130239Y0123803D01*
X0130250Y0123866D01*
X0130256Y0123928D01*
Y0123934D01*
Y0123957D01*
X0130250Y0123991D01*
X0130244Y0124037D01*
X0130233Y0124088D01*
X0130210Y0124140D01*
X0130187Y0124191D01*
X0130153Y0124242D01*
X0130147Y0124248D01*
X0130136Y0124265D01*
X0130107Y0124288D01*
X0130073Y0124322D01*
X0130022Y0124357D01*
X0129964Y0124397D01*
X0129890Y0124437D01*
X0129805Y0124471D01*
X0129799Y0124477D01*
X0129770Y0124482D01*
X0129730Y0124499D01*
X0129696Y0124505D01*
X0129662Y0124517D01*
X0129616Y0124528D01*
X0129570Y0124545D01*
X0129513Y0124562D01*
X0129451Y0124579D01*
X0129382Y0124597D01*
X0129302Y0124614D01*
X0129217Y0124636D01*
X0129119Y0124659D01*
X0129114D01*
X0129097Y0124665D01*
X0129068Y0124671D01*
X0129034Y0124682D01*
X0128988Y0124694D01*
X0128942Y0124705D01*
X0128828Y0124739D01*
X0128703Y0124774D01*
X0128583Y0124813D01*
X0128469Y0124854D01*
X0128423Y0124876D01*
X0128377Y0124899D01*
X0128371D01*
X0128366Y0124905D01*
X0128331Y0124928D01*
X0128286Y0124956D01*
X0128223Y0124996D01*
X0128154Y0125048D01*
X0128086Y0125110D01*
X0128023Y0125179D01*
X0127966Y0125253D01*
X0127960Y0125265D01*
X0127943Y0125293D01*
X0127926Y0125339D01*
X0127903Y0125396D01*
X0127875Y0125464D01*
X0127857Y0125550D01*
X0127840Y0125642D01*
X0127835Y0125739D01*
Y0125744D01*
Y0125750D01*
Y0125767D01*
Y0125790D01*
X0127846Y0125841D01*
X0127857Y0125916D01*
X0127875Y0126001D01*
X0127903Y0126093D01*
X0127943Y0126184D01*
X0127995Y0126281D01*
Y0126287D01*
X0128000Y0126292D01*
X0128023Y0126321D01*
X0128063Y0126367D01*
X0128120Y0126424D01*
X0128189Y0126487D01*
X0128269Y0126555D01*
X0128366Y0126618D01*
X0128480Y0126669D01*
X0128486D01*
X0128497Y0126675D01*
X0128514Y0126681D01*
X0128537Y0126692D01*
X0128566Y0126698D01*
X0128600Y0126709D01*
X0128685Y0126738D01*
X0128794Y0126761D01*
X0128914Y0126778D01*
X0129045Y0126795D01*
X0129182Y0126801D01*
X0129256D01*
X0129291Y0126795D01*
D02*
G37*
G36*
X0154089D02*
X0154141Y0126789D01*
X0154198Y0126783D01*
X0154261Y0126778D01*
X0154335Y0126766D01*
X0154483Y0126726D01*
X0154649Y0126675D01*
X0154729Y0126641D01*
X0154809Y0126601D01*
X0154889Y0126555D01*
X0154963Y0126504D01*
X0154969Y0126498D01*
X0154980Y0126492D01*
X0155003Y0126475D01*
X0155026Y0126452D01*
X0155060Y0126418D01*
X0155094Y0126384D01*
X0155134Y0126338D01*
X0155180Y0126292D01*
X0155226Y0126235D01*
X0155271Y0126172D01*
X0155317Y0126110D01*
X0155363Y0126035D01*
X0155408Y0125955D01*
X0155448Y0125870D01*
X0155482Y0125778D01*
X0155517Y0125681D01*
X0155014Y0125561D01*
Y0125567D01*
X0155009Y0125579D01*
X0155003Y0125601D01*
X0154991Y0125630D01*
X0154974Y0125664D01*
X0154957Y0125704D01*
X0154911Y0125796D01*
X0154860Y0125893D01*
X0154792Y0125996D01*
X0154712Y0126093D01*
X0154620Y0126172D01*
X0154609Y0126178D01*
X0154575Y0126201D01*
X0154523Y0126235D01*
X0154449Y0126270D01*
X0154358Y0126304D01*
X0154249Y0126338D01*
X0154123Y0126361D01*
X0153987Y0126367D01*
X0153941D01*
X0153912Y0126361D01*
X0153872D01*
X0153832Y0126355D01*
X0153729Y0126338D01*
X0153610Y0126315D01*
X0153484Y0126275D01*
X0153364Y0126224D01*
X0153244Y0126150D01*
X0153238D01*
X0153233Y0126138D01*
X0153199Y0126110D01*
X0153141Y0126064D01*
X0153079Y0126001D01*
X0153010Y0125916D01*
X0152942Y0125819D01*
X0152879Y0125704D01*
X0152827Y0125579D01*
Y0125573D01*
X0152822Y0125561D01*
X0152816Y0125544D01*
X0152810Y0125516D01*
X0152799Y0125487D01*
X0152787Y0125447D01*
X0152770Y0125356D01*
X0152747Y0125242D01*
X0152725Y0125116D01*
X0152713Y0124985D01*
X0152707Y0124842D01*
Y0124836D01*
Y0124819D01*
Y0124796D01*
Y0124762D01*
X0152713Y0124716D01*
Y0124665D01*
X0152719Y0124614D01*
X0152725Y0124551D01*
X0152742Y0124419D01*
X0152770Y0124271D01*
X0152805Y0124128D01*
X0152850Y0123986D01*
Y0123980D01*
X0152856Y0123968D01*
X0152867Y0123951D01*
X0152879Y0123928D01*
X0152913Y0123860D01*
X0152959Y0123780D01*
X0153022Y0123689D01*
X0153096Y0123603D01*
X0153187Y0123512D01*
X0153290Y0123437D01*
X0153296D01*
X0153301Y0123432D01*
X0153318Y0123420D01*
X0153341Y0123409D01*
X0153404Y0123380D01*
X0153484Y0123352D01*
X0153581Y0123318D01*
X0153695Y0123289D01*
X0153815Y0123266D01*
X0153946Y0123260D01*
X0153987D01*
X0154015Y0123266D01*
X0154055D01*
X0154095Y0123272D01*
X0154198Y0123289D01*
X0154306Y0123323D01*
X0154426Y0123363D01*
X0154552Y0123426D01*
X0154609Y0123460D01*
X0154666Y0123506D01*
X0154672Y0123512D01*
X0154677Y0123517D01*
X0154694Y0123535D01*
X0154712Y0123552D01*
X0154740Y0123580D01*
X0154763Y0123609D01*
X0154826Y0123689D01*
X0154894Y0123791D01*
X0154963Y0123917D01*
X0155026Y0124065D01*
X0155071Y0124237D01*
X0155580Y0124106D01*
Y0124100D01*
X0155574Y0124077D01*
X0155562Y0124048D01*
X0155551Y0124003D01*
X0155528Y0123951D01*
X0155505Y0123889D01*
X0155482Y0123826D01*
X0155448Y0123751D01*
X0155368Y0123597D01*
X0155271Y0123443D01*
X0155208Y0123363D01*
X0155146Y0123289D01*
X0155077Y0123215D01*
X0155003Y0123152D01*
X0154997Y0123146D01*
X0154986Y0123141D01*
X0154963Y0123123D01*
X0154929Y0123100D01*
X0154889Y0123078D01*
X0154837Y0123049D01*
X0154786Y0123021D01*
X0154717Y0122992D01*
X0154649Y0122958D01*
X0154569Y0122929D01*
X0154489Y0122901D01*
X0154398Y0122878D01*
X0154300Y0122855D01*
X0154203Y0122838D01*
X0154095Y0122832D01*
X0153987Y0122826D01*
X0153929D01*
X0153884Y0122832D01*
X0153832D01*
X0153770Y0122838D01*
X0153701Y0122849D01*
X0153627Y0122861D01*
X0153467Y0122889D01*
X0153296Y0122935D01*
X0153130Y0122998D01*
X0153050Y0123032D01*
X0152976Y0123078D01*
X0152970Y0123083D01*
X0152959Y0123089D01*
X0152942Y0123106D01*
X0152913Y0123123D01*
X0152879Y0123152D01*
X0152845Y0123180D01*
X0152759Y0123266D01*
X0152662Y0123369D01*
X0152559Y0123495D01*
X0152468Y0123637D01*
X0152382Y0123809D01*
Y0123814D01*
X0152376Y0123831D01*
X0152365Y0123854D01*
X0152353Y0123894D01*
X0152336Y0123934D01*
X0152319Y0123991D01*
X0152302Y0124048D01*
X0152285Y0124117D01*
X0152262Y0124191D01*
X0152245Y0124271D01*
X0152216Y0124448D01*
X0152194Y0124636D01*
X0152182Y0124842D01*
Y0124848D01*
Y0124871D01*
Y0124899D01*
X0152188Y0124945D01*
Y0124996D01*
X0152194Y0125053D01*
X0152199Y0125122D01*
X0152211Y0125196D01*
X0152239Y0125362D01*
X0152279Y0125539D01*
X0152336Y0125716D01*
X0152410Y0125887D01*
Y0125893D01*
X0152422Y0125904D01*
X0152433Y0125927D01*
X0152451Y0125961D01*
X0152479Y0125996D01*
X0152508Y0126041D01*
X0152576Y0126138D01*
X0152667Y0126247D01*
X0152782Y0126361D01*
X0152913Y0126469D01*
X0153061Y0126567D01*
X0153067D01*
X0153079Y0126578D01*
X0153101Y0126589D01*
X0153136Y0126601D01*
X0153176Y0126624D01*
X0153221Y0126641D01*
X0153278Y0126663D01*
X0153335Y0126686D01*
X0153404Y0126704D01*
X0153473Y0126726D01*
X0153632Y0126766D01*
X0153804Y0126789D01*
X0153992Y0126801D01*
X0154049D01*
X0154089Y0126795D01*
D02*
G37*
G36*
X0143646D02*
X0143697Y0126789D01*
X0143754Y0126783D01*
X0143817Y0126778D01*
X0143891Y0126766D01*
X0144040Y0126726D01*
X0144205Y0126675D01*
X0144285Y0126641D01*
X0144365Y0126601D01*
X0144445Y0126555D01*
X0144519Y0126504D01*
X0144525Y0126498D01*
X0144536Y0126492D01*
X0144559Y0126475D01*
X0144582Y0126452D01*
X0144616Y0126418D01*
X0144651Y0126384D01*
X0144691Y0126338D01*
X0144736Y0126292D01*
X0144782Y0126235D01*
X0144828Y0126172D01*
X0144873Y0126110D01*
X0144919Y0126035D01*
X0144965Y0125955D01*
X0145005Y0125870D01*
X0145039Y0125778D01*
X0145073Y0125681D01*
X0144571Y0125561D01*
Y0125567D01*
X0144565Y0125579D01*
X0144559Y0125601D01*
X0144548Y0125630D01*
X0144531Y0125664D01*
X0144514Y0125704D01*
X0144468Y0125796D01*
X0144416Y0125893D01*
X0144348Y0125996D01*
X0144268Y0126093D01*
X0144177Y0126172D01*
X0144165Y0126178D01*
X0144131Y0126201D01*
X0144080Y0126235D01*
X0144005Y0126270D01*
X0143914Y0126304D01*
X0143806Y0126338D01*
X0143680Y0126361D01*
X0143543Y0126367D01*
X0143497D01*
X0143469Y0126361D01*
X0143429D01*
X0143389Y0126355D01*
X0143286Y0126338D01*
X0143166Y0126315D01*
X0143040Y0126275D01*
X0142920Y0126224D01*
X0142801Y0126150D01*
X0142795D01*
X0142789Y0126138D01*
X0142755Y0126110D01*
X0142698Y0126064D01*
X0142635Y0126001D01*
X0142567Y0125916D01*
X0142498Y0125819D01*
X0142435Y0125704D01*
X0142384Y0125579D01*
Y0125573D01*
X0142378Y0125561D01*
X0142372Y0125544D01*
X0142367Y0125516D01*
X0142355Y0125487D01*
X0142344Y0125447D01*
X0142327Y0125356D01*
X0142304Y0125242D01*
X0142281Y0125116D01*
X0142270Y0124985D01*
X0142264Y0124842D01*
Y0124836D01*
Y0124819D01*
Y0124796D01*
Y0124762D01*
X0142270Y0124716D01*
Y0124665D01*
X0142275Y0124614D01*
X0142281Y0124551D01*
X0142298Y0124419D01*
X0142327Y0124271D01*
X0142361Y0124128D01*
X0142407Y0123986D01*
Y0123980D01*
X0142412Y0123968D01*
X0142424Y0123951D01*
X0142435Y0123928D01*
X0142469Y0123860D01*
X0142515Y0123780D01*
X0142578Y0123689D01*
X0142652Y0123603D01*
X0142744Y0123512D01*
X0142846Y0123437D01*
X0142852D01*
X0142858Y0123432D01*
X0142875Y0123420D01*
X0142898Y0123409D01*
X0142961Y0123380D01*
X0143040Y0123352D01*
X0143138Y0123318D01*
X0143252Y0123289D01*
X0143372Y0123266D01*
X0143503Y0123260D01*
X0143543D01*
X0143571Y0123266D01*
X0143611D01*
X0143651Y0123272D01*
X0143754Y0123289D01*
X0143863Y0123323D01*
X0143983Y0123363D01*
X0144108Y0123426D01*
X0144165Y0123460D01*
X0144222Y0123506D01*
X0144228Y0123512D01*
X0144234Y0123517D01*
X0144251Y0123535D01*
X0144268Y0123552D01*
X0144297Y0123580D01*
X0144319Y0123609D01*
X0144382Y0123689D01*
X0144451Y0123791D01*
X0144519Y0123917D01*
X0144582Y0124065D01*
X0144628Y0124237D01*
X0145136Y0124106D01*
Y0124100D01*
X0145130Y0124077D01*
X0145119Y0124048D01*
X0145107Y0124003D01*
X0145085Y0123951D01*
X0145062Y0123889D01*
X0145039Y0123826D01*
X0145005Y0123751D01*
X0144925Y0123597D01*
X0144828Y0123443D01*
X0144765Y0123363D01*
X0144702Y0123289D01*
X0144633Y0123215D01*
X0144559Y0123152D01*
X0144554Y0123146D01*
X0144542Y0123141D01*
X0144519Y0123123D01*
X0144485Y0123100D01*
X0144445Y0123078D01*
X0144394Y0123049D01*
X0144342Y0123021D01*
X0144274Y0122992D01*
X0144205Y0122958D01*
X0144125Y0122929D01*
X0144045Y0122901D01*
X0143954Y0122878D01*
X0143857Y0122855D01*
X0143760Y0122838D01*
X0143651Y0122832D01*
X0143543Y0122826D01*
X0143486D01*
X0143440Y0122832D01*
X0143389D01*
X0143326Y0122838D01*
X0143257Y0122849D01*
X0143183Y0122861D01*
X0143023Y0122889D01*
X0142852Y0122935D01*
X0142686Y0122998D01*
X0142606Y0123032D01*
X0142532Y0123078D01*
X0142526Y0123083D01*
X0142515Y0123089D01*
X0142498Y0123106D01*
X0142469Y0123123D01*
X0142435Y0123152D01*
X0142401Y0123180D01*
X0142315Y0123266D01*
X0142218Y0123369D01*
X0142115Y0123495D01*
X0142024Y0123637D01*
X0141938Y0123809D01*
Y0123814D01*
X0141933Y0123831D01*
X0141921Y0123854D01*
X0141910Y0123894D01*
X0141893Y0123934D01*
X0141876Y0123991D01*
X0141858Y0124048D01*
X0141841Y0124117D01*
X0141818Y0124191D01*
X0141801Y0124271D01*
X0141773Y0124448D01*
X0141750Y0124636D01*
X0141738Y0124842D01*
Y0124848D01*
Y0124871D01*
Y0124899D01*
X0141744Y0124945D01*
Y0124996D01*
X0141750Y0125053D01*
X0141756Y0125122D01*
X0141767Y0125196D01*
X0141796Y0125362D01*
X0141836Y0125539D01*
X0141893Y0125716D01*
X0141967Y0125887D01*
Y0125893D01*
X0141978Y0125904D01*
X0141990Y0125927D01*
X0142007Y0125961D01*
X0142035Y0125996D01*
X0142064Y0126041D01*
X0142132Y0126138D01*
X0142224Y0126247D01*
X0142338Y0126361D01*
X0142469Y0126469D01*
X0142618Y0126567D01*
X0142624D01*
X0142635Y0126578D01*
X0142658Y0126589D01*
X0142692Y0126601D01*
X0142732Y0126624D01*
X0142778Y0126641D01*
X0142835Y0126663D01*
X0142892Y0126686D01*
X0142961Y0126704D01*
X0143029Y0126726D01*
X0143189Y0126766D01*
X0143360Y0126789D01*
X0143549Y0126801D01*
X0143606D01*
X0143646Y0126795D01*
D02*
G37*
G36*
X0136782D02*
X0136834Y0126789D01*
X0136891Y0126783D01*
X0136954Y0126778D01*
X0137028Y0126766D01*
X0137176Y0126726D01*
X0137342Y0126675D01*
X0137422Y0126641D01*
X0137502Y0126601D01*
X0137582Y0126555D01*
X0137656Y0126504D01*
X0137662Y0126498D01*
X0137673Y0126492D01*
X0137696Y0126475D01*
X0137719Y0126452D01*
X0137753Y0126418D01*
X0137787Y0126384D01*
X0137827Y0126338D01*
X0137873Y0126292D01*
X0137919Y0126235D01*
X0137964Y0126172D01*
X0138010Y0126110D01*
X0138056Y0126035D01*
X0138101Y0125955D01*
X0138141Y0125870D01*
X0138175Y0125778D01*
X0138210Y0125681D01*
X0137707Y0125561D01*
Y0125567D01*
X0137702Y0125579D01*
X0137696Y0125601D01*
X0137684Y0125630D01*
X0137667Y0125664D01*
X0137650Y0125704D01*
X0137604Y0125796D01*
X0137553Y0125893D01*
X0137485Y0125996D01*
X0137405Y0126093D01*
X0137313Y0126172D01*
X0137302Y0126178D01*
X0137268Y0126201D01*
X0137216Y0126235D01*
X0137142Y0126270D01*
X0137051Y0126304D01*
X0136942Y0126338D01*
X0136817Y0126361D01*
X0136679Y0126367D01*
X0136634D01*
X0136605Y0126361D01*
X0136565D01*
X0136525Y0126355D01*
X0136423Y0126338D01*
X0136303Y0126315D01*
X0136177Y0126275D01*
X0136057Y0126224D01*
X0135937Y0126150D01*
X0135932D01*
X0135926Y0126138D01*
X0135891Y0126110D01*
X0135834Y0126064D01*
X0135772Y0126001D01*
X0135703Y0125916D01*
X0135635Y0125819D01*
X0135572Y0125704D01*
X0135520Y0125579D01*
Y0125573D01*
X0135515Y0125561D01*
X0135509Y0125544D01*
X0135503Y0125516D01*
X0135492Y0125487D01*
X0135480Y0125447D01*
X0135463Y0125356D01*
X0135440Y0125242D01*
X0135418Y0125116D01*
X0135406Y0124985D01*
X0135400Y0124842D01*
Y0124836D01*
Y0124819D01*
Y0124796D01*
Y0124762D01*
X0135406Y0124716D01*
Y0124665D01*
X0135412Y0124614D01*
X0135418Y0124551D01*
X0135435Y0124419D01*
X0135463Y0124271D01*
X0135497Y0124128D01*
X0135543Y0123986D01*
Y0123980D01*
X0135549Y0123968D01*
X0135560Y0123951D01*
X0135572Y0123928D01*
X0135606Y0123860D01*
X0135652Y0123780D01*
X0135714Y0123689D01*
X0135789Y0123603D01*
X0135880Y0123512D01*
X0135983Y0123437D01*
X0135989D01*
X0135994Y0123432D01*
X0136011Y0123420D01*
X0136034Y0123409D01*
X0136097Y0123380D01*
X0136177Y0123352D01*
X0136274Y0123318D01*
X0136388Y0123289D01*
X0136508Y0123266D01*
X0136639Y0123260D01*
X0136679D01*
X0136708Y0123266D01*
X0136748D01*
X0136788Y0123272D01*
X0136891Y0123289D01*
X0136999Y0123323D01*
X0137119Y0123363D01*
X0137245Y0123426D01*
X0137302Y0123460D01*
X0137359Y0123506D01*
X0137365Y0123512D01*
X0137370Y0123517D01*
X0137388Y0123535D01*
X0137405Y0123552D01*
X0137433Y0123580D01*
X0137456Y0123609D01*
X0137519Y0123689D01*
X0137587Y0123791D01*
X0137656Y0123917D01*
X0137719Y0124065D01*
X0137764Y0124237D01*
X0138273Y0124106D01*
Y0124100D01*
X0138267Y0124077D01*
X0138255Y0124048D01*
X0138244Y0124003D01*
X0138221Y0123951D01*
X0138198Y0123889D01*
X0138175Y0123826D01*
X0138141Y0123751D01*
X0138061Y0123597D01*
X0137964Y0123443D01*
X0137901Y0123363D01*
X0137839Y0123289D01*
X0137770Y0123215D01*
X0137696Y0123152D01*
X0137690Y0123146D01*
X0137679Y0123141D01*
X0137656Y0123123D01*
X0137622Y0123100D01*
X0137582Y0123078D01*
X0137530Y0123049D01*
X0137479Y0123021D01*
X0137410Y0122992D01*
X0137342Y0122958D01*
X0137262Y0122929D01*
X0137182Y0122901D01*
X0137091Y0122878D01*
X0136994Y0122855D01*
X0136897Y0122838D01*
X0136788Y0122832D01*
X0136679Y0122826D01*
X0136622D01*
X0136577Y0122832D01*
X0136525D01*
X0136462Y0122838D01*
X0136394Y0122849D01*
X0136320Y0122861D01*
X0136160Y0122889D01*
X0135989Y0122935D01*
X0135823Y0122998D01*
X0135743Y0123032D01*
X0135669Y0123078D01*
X0135663Y0123083D01*
X0135652Y0123089D01*
X0135635Y0123106D01*
X0135606Y0123123D01*
X0135572Y0123152D01*
X0135538Y0123180D01*
X0135452Y0123266D01*
X0135355Y0123369D01*
X0135252Y0123495D01*
X0135161Y0123637D01*
X0135075Y0123809D01*
Y0123814D01*
X0135069Y0123831D01*
X0135058Y0123854D01*
X0135046Y0123894D01*
X0135029Y0123934D01*
X0135012Y0123991D01*
X0134995Y0124048D01*
X0134978Y0124117D01*
X0134955Y0124191D01*
X0134938Y0124271D01*
X0134909Y0124448D01*
X0134887Y0124636D01*
X0134875Y0124842D01*
Y0124848D01*
Y0124871D01*
Y0124899D01*
X0134881Y0124945D01*
Y0124996D01*
X0134887Y0125053D01*
X0134892Y0125122D01*
X0134904Y0125196D01*
X0134932Y0125362D01*
X0134972Y0125539D01*
X0135029Y0125716D01*
X0135103Y0125887D01*
Y0125893D01*
X0135115Y0125904D01*
X0135126Y0125927D01*
X0135143Y0125961D01*
X0135172Y0125996D01*
X0135201Y0126041D01*
X0135269Y0126138D01*
X0135361Y0126247D01*
X0135475Y0126361D01*
X0135606Y0126469D01*
X0135755Y0126567D01*
X0135760D01*
X0135772Y0126578D01*
X0135794Y0126589D01*
X0135829Y0126601D01*
X0135869Y0126624D01*
X0135914Y0126641D01*
X0135971Y0126663D01*
X0136029Y0126686D01*
X0136097Y0126704D01*
X0136166Y0126726D01*
X0136326Y0126766D01*
X0136497Y0126789D01*
X0136685Y0126801D01*
X0136742D01*
X0136782Y0126795D01*
D02*
G37*
G36*
X0160958Y0126738D02*
X0161004Y0126732D01*
X0161061Y0126726D01*
X0161118Y0126721D01*
X0161187Y0126704D01*
X0161324Y0126669D01*
X0161472Y0126612D01*
X0161541Y0126578D01*
X0161609Y0126538D01*
X0161678Y0126492D01*
X0161741Y0126435D01*
X0161746Y0126429D01*
X0161752Y0126424D01*
X0161769Y0126407D01*
X0161792Y0126378D01*
X0161815Y0126349D01*
X0161844Y0126315D01*
X0161872Y0126270D01*
X0161906Y0126224D01*
X0161963Y0126115D01*
X0162015Y0125984D01*
X0162038Y0125916D01*
X0162055Y0125836D01*
X0162060Y0125761D01*
X0162066Y0125676D01*
Y0125664D01*
Y0125636D01*
X0162060Y0125590D01*
X0162055Y0125533D01*
X0162043Y0125459D01*
X0162026Y0125384D01*
X0162003Y0125305D01*
X0161969Y0125219D01*
X0161963Y0125207D01*
X0161952Y0125179D01*
X0161929Y0125139D01*
X0161895Y0125082D01*
X0161849Y0125008D01*
X0161798Y0124928D01*
X0161729Y0124842D01*
X0161655Y0124751D01*
X0161644Y0124739D01*
X0161615Y0124705D01*
X0161592Y0124682D01*
X0161558Y0124648D01*
X0161524Y0124614D01*
X0161484Y0124574D01*
X0161438Y0124528D01*
X0161381Y0124477D01*
X0161324Y0124425D01*
X0161255Y0124362D01*
X0161187Y0124300D01*
X0161107Y0124231D01*
X0161021Y0124157D01*
X0160930Y0124077D01*
X0160924Y0124071D01*
X0160913Y0124060D01*
X0160890Y0124043D01*
X0160861Y0124020D01*
X0160793Y0123957D01*
X0160701Y0123883D01*
X0160610Y0123803D01*
X0160524Y0123723D01*
X0160444Y0123649D01*
X0160416Y0123620D01*
X0160387Y0123592D01*
X0160382Y0123586D01*
X0160370Y0123569D01*
X0160347Y0123546D01*
X0160319Y0123512D01*
X0160285Y0123477D01*
X0160250Y0123432D01*
X0160188Y0123340D01*
X0162072D01*
Y0122889D01*
X0159531D01*
Y0122895D01*
Y0122918D01*
Y0122952D01*
X0159537Y0122992D01*
X0159542Y0123043D01*
X0159548Y0123095D01*
X0159565Y0123158D01*
X0159582Y0123215D01*
Y0123220D01*
X0159588Y0123226D01*
X0159599Y0123260D01*
X0159622Y0123312D01*
X0159657Y0123375D01*
X0159702Y0123454D01*
X0159754Y0123540D01*
X0159816Y0123632D01*
X0159891Y0123723D01*
Y0123729D01*
X0159902Y0123734D01*
X0159931Y0123769D01*
X0159982Y0123820D01*
X0160050Y0123889D01*
X0160136Y0123974D01*
X0160245Y0124077D01*
X0160370Y0124185D01*
X0160513Y0124305D01*
X0160519Y0124311D01*
X0160542Y0124328D01*
X0160570Y0124357D01*
X0160616Y0124391D01*
X0160667Y0124431D01*
X0160724Y0124482D01*
X0160850Y0124602D01*
X0160993Y0124728D01*
X0161130Y0124865D01*
X0161198Y0124933D01*
X0161255Y0124996D01*
X0161312Y0125059D01*
X0161358Y0125116D01*
Y0125122D01*
X0161370Y0125127D01*
X0161381Y0125145D01*
X0161392Y0125168D01*
X0161427Y0125225D01*
X0161472Y0125299D01*
X0161512Y0125390D01*
X0161547Y0125487D01*
X0161569Y0125584D01*
X0161581Y0125687D01*
Y0125693D01*
Y0125699D01*
X0161575Y0125733D01*
X0161569Y0125784D01*
X0161558Y0125853D01*
X0161529Y0125927D01*
X0161495Y0126007D01*
X0161444Y0126087D01*
X0161375Y0126161D01*
X0161364Y0126167D01*
X0161341Y0126190D01*
X0161295Y0126224D01*
X0161238Y0126258D01*
X0161158Y0126292D01*
X0161073Y0126327D01*
X0160970Y0126349D01*
X0160856Y0126355D01*
X0160821D01*
X0160799Y0126349D01*
X0160736Y0126344D01*
X0160661Y0126327D01*
X0160570Y0126304D01*
X0160479Y0126264D01*
X0160387Y0126212D01*
X0160308Y0126144D01*
X0160302Y0126133D01*
X0160279Y0126104D01*
X0160245Y0126058D01*
X0160210Y0125996D01*
X0160170Y0125916D01*
X0160142Y0125819D01*
X0160119Y0125704D01*
X0160108Y0125579D01*
X0159622Y0125630D01*
Y0125636D01*
Y0125653D01*
X0159628Y0125681D01*
X0159634Y0125721D01*
X0159645Y0125767D01*
X0159657Y0125819D01*
X0159685Y0125938D01*
X0159731Y0126070D01*
X0159799Y0126207D01*
X0159839Y0126275D01*
X0159885Y0126338D01*
X0159936Y0126401D01*
X0159993Y0126458D01*
X0159999Y0126464D01*
X0160011Y0126469D01*
X0160028Y0126487D01*
X0160050Y0126504D01*
X0160085Y0126526D01*
X0160125Y0126549D01*
X0160170Y0126572D01*
X0160228Y0126601D01*
X0160285Y0126629D01*
X0160347Y0126652D01*
X0160422Y0126675D01*
X0160502Y0126698D01*
X0160582Y0126715D01*
X0160673Y0126732D01*
X0160764Y0126738D01*
X0160867Y0126743D01*
X0160918D01*
X0160958Y0126738D01*
D02*
G37*
G36*
X0157732Y0126726D02*
X0157778D01*
X0157875Y0126715D01*
X0157989Y0126704D01*
X0158103Y0126681D01*
X0158223Y0126652D01*
X0158326Y0126612D01*
X0158332D01*
X0158337Y0126606D01*
X0158372Y0126589D01*
X0158417Y0126561D01*
X0158480Y0126526D01*
X0158549Y0126475D01*
X0158617Y0126412D01*
X0158680Y0126338D01*
X0158743Y0126252D01*
X0158749Y0126241D01*
X0158766Y0126212D01*
X0158794Y0126161D01*
X0158823Y0126098D01*
X0158846Y0126024D01*
X0158874Y0125938D01*
X0158891Y0125841D01*
X0158897Y0125744D01*
Y0125733D01*
Y0125704D01*
X0158891Y0125653D01*
X0158880Y0125596D01*
X0158863Y0125522D01*
X0158840Y0125447D01*
X0158806Y0125362D01*
X0158760Y0125282D01*
X0158754Y0125270D01*
X0158737Y0125248D01*
X0158703Y0125207D01*
X0158663Y0125156D01*
X0158606Y0125099D01*
X0158532Y0125042D01*
X0158452Y0124985D01*
X0158355Y0124933D01*
X0158360D01*
X0158372Y0124928D01*
X0158389Y0124922D01*
X0158412Y0124916D01*
X0158475Y0124888D01*
X0158554Y0124854D01*
X0158640Y0124802D01*
X0158726Y0124739D01*
X0158817Y0124665D01*
X0158891Y0124579D01*
X0158897Y0124568D01*
X0158920Y0124534D01*
X0158954Y0124482D01*
X0158988Y0124414D01*
X0159023Y0124328D01*
X0159057Y0124231D01*
X0159080Y0124123D01*
X0159086Y0124003D01*
Y0123997D01*
Y0123991D01*
Y0123957D01*
X0159080Y0123906D01*
X0159074Y0123837D01*
X0159057Y0123757D01*
X0159040Y0123671D01*
X0159011Y0123586D01*
X0158971Y0123495D01*
X0158966Y0123483D01*
X0158949Y0123454D01*
X0158926Y0123415D01*
X0158891Y0123363D01*
X0158851Y0123306D01*
X0158806Y0123249D01*
X0158749Y0123192D01*
X0158686Y0123141D01*
X0158680Y0123135D01*
X0158657Y0123118D01*
X0158617Y0123095D01*
X0158572Y0123072D01*
X0158509Y0123038D01*
X0158440Y0123009D01*
X0158355Y0122981D01*
X0158263Y0122952D01*
X0158252D01*
X0158218Y0122941D01*
X0158166Y0122935D01*
X0158092Y0122924D01*
X0158001Y0122912D01*
X0157898Y0122901D01*
X0157778Y0122895D01*
X0157647Y0122889D01*
X0156185D01*
Y0126732D01*
X0157698D01*
X0157732Y0126726D01*
D02*
G37*
G36*
X0150412D02*
X0150503Y0126721D01*
X0150601Y0126715D01*
X0150698Y0126704D01*
X0150777Y0126692D01*
X0150789D01*
X0150823Y0126681D01*
X0150880Y0126669D01*
X0150943Y0126652D01*
X0151017Y0126629D01*
X0151097Y0126601D01*
X0151177Y0126561D01*
X0151251Y0126515D01*
X0151263Y0126509D01*
X0151286Y0126492D01*
X0151320Y0126464D01*
X0151366Y0126418D01*
X0151411Y0126367D01*
X0151463Y0126304D01*
X0151514Y0126230D01*
X0151560Y0126144D01*
X0151566Y0126133D01*
X0151577Y0126104D01*
X0151600Y0126053D01*
X0151623Y0125990D01*
X0151640Y0125910D01*
X0151663Y0125824D01*
X0151674Y0125721D01*
X0151680Y0125619D01*
Y0125613D01*
Y0125596D01*
Y0125573D01*
X0151674Y0125539D01*
X0151668Y0125493D01*
X0151663Y0125447D01*
X0151651Y0125390D01*
X0151640Y0125333D01*
X0151605Y0125202D01*
X0151548Y0125065D01*
X0151514Y0124990D01*
X0151468Y0124922D01*
X0151423Y0124854D01*
X0151366Y0124791D01*
X0151360Y0124785D01*
X0151348Y0124774D01*
X0151331Y0124762D01*
X0151303Y0124739D01*
X0151268Y0124711D01*
X0151223Y0124682D01*
X0151172Y0124654D01*
X0151109Y0124625D01*
X0151034Y0124591D01*
X0150954Y0124562D01*
X0150863Y0124534D01*
X0150760Y0124505D01*
X0150646Y0124482D01*
X0150521Y0124471D01*
X0150389Y0124460D01*
X0150241Y0124454D01*
X0149259D01*
Y0122889D01*
X0148750D01*
Y0126732D01*
X0150326D01*
X0150412Y0126726D01*
D02*
G37*
G36*
X0140482Y0122889D02*
X0140008D01*
Y0125887D01*
X0140003Y0125881D01*
X0139980Y0125858D01*
X0139940Y0125830D01*
X0139889Y0125784D01*
X0139826Y0125739D01*
X0139746Y0125681D01*
X0139654Y0125624D01*
X0139557Y0125561D01*
X0139552D01*
X0139546Y0125556D01*
X0139512Y0125533D01*
X0139460Y0125504D01*
X0139392Y0125470D01*
X0139318Y0125430D01*
X0139238Y0125396D01*
X0139152Y0125356D01*
X0139066Y0125322D01*
Y0125778D01*
X0139072D01*
X0139083Y0125784D01*
X0139106Y0125796D01*
X0139135Y0125813D01*
X0139169Y0125830D01*
X0139209Y0125853D01*
X0139300Y0125904D01*
X0139409Y0125967D01*
X0139523Y0126041D01*
X0139637Y0126127D01*
X0139752Y0126224D01*
X0139757Y0126230D01*
X0139763Y0126235D01*
X0139803Y0126270D01*
X0139854Y0126321D01*
X0139917Y0126390D01*
X0139986Y0126469D01*
X0140054Y0126555D01*
X0140123Y0126646D01*
X0140174Y0126743D01*
X0140482D01*
Y0122889D01*
D02*
G37*
G36*
X0134230Y0126281D02*
X0131957D01*
Y0125105D01*
X0134087D01*
Y0124654D01*
X0131957D01*
Y0123340D01*
X0134321D01*
Y0122889D01*
X0131449D01*
Y0126732D01*
X0134230D01*
Y0126281D01*
D02*
G37*
G36*
X0148391Y0121821D02*
X0145267D01*
Y0122164D01*
X0148391D01*
Y0121821D01*
D02*
G37*
G36*
X0172053Y0215574D02*
X0172105Y0215569D01*
X0172162Y0215563D01*
X0172224Y0215557D01*
X0172299Y0215546D01*
X0172447Y0215506D01*
X0172613Y0215455D01*
X0172693Y0215420D01*
X0172773Y0215380D01*
X0172853Y0215335D01*
X0172927Y0215283D01*
X0172933Y0215278D01*
X0172944Y0215272D01*
X0172967Y0215255D01*
X0172990Y0215232D01*
X0173024Y0215197D01*
X0173058Y0215163D01*
X0173098Y0215118D01*
X0173144Y0215072D01*
X0173189Y0215015D01*
X0173235Y0214952D01*
X0173281Y0214889D01*
X0173327Y0214815D01*
X0173372Y0214735D01*
X0173412Y0214649D01*
X0173446Y0214558D01*
X0173481Y0214461D01*
X0172978Y0214341D01*
Y0214347D01*
X0172973Y0214358D01*
X0172967Y0214381D01*
X0172955Y0214410D01*
X0172938Y0214444D01*
X0172921Y0214484D01*
X0172875Y0214575D01*
X0172824Y0214672D01*
X0172756Y0214775D01*
X0172676Y0214872D01*
X0172584Y0214952D01*
X0172573Y0214958D01*
X0172538Y0214981D01*
X0172487Y0215015D01*
X0172413Y0215049D01*
X0172322Y0215083D01*
X0172213Y0215118D01*
X0172087Y0215140D01*
X0171950Y0215146D01*
X0171905D01*
X0171876Y0215140D01*
X0171836D01*
X0171796Y0215135D01*
X0171694Y0215118D01*
X0171573Y0215095D01*
X0171448Y0215055D01*
X0171328Y0215003D01*
X0171208Y0214929D01*
X0171202D01*
X0171197Y0214918D01*
X0171162Y0214889D01*
X0171105Y0214844D01*
X0171043Y0214781D01*
X0170974Y0214695D01*
X0170905Y0214598D01*
X0170843Y0214484D01*
X0170791Y0214358D01*
Y0214352D01*
X0170786Y0214341D01*
X0170780Y0214324D01*
X0170774Y0214295D01*
X0170763Y0214267D01*
X0170751Y0214227D01*
X0170734Y0214136D01*
X0170711Y0214021D01*
X0170688Y0213896D01*
X0170677Y0213764D01*
X0170671Y0213622D01*
Y0213616D01*
Y0213599D01*
Y0213576D01*
Y0213542D01*
X0170677Y0213496D01*
Y0213445D01*
X0170683Y0213393D01*
X0170688Y0213330D01*
X0170706Y0213199D01*
X0170734Y0213051D01*
X0170768Y0212908D01*
X0170814Y0212765D01*
Y0212759D01*
X0170820Y0212748D01*
X0170831Y0212731D01*
X0170843Y0212708D01*
X0170877Y0212639D01*
X0170923Y0212560D01*
X0170985Y0212468D01*
X0171060Y0212383D01*
X0171151Y0212291D01*
X0171254Y0212217D01*
X0171259D01*
X0171265Y0212211D01*
X0171282Y0212200D01*
X0171305Y0212188D01*
X0171368Y0212160D01*
X0171448Y0212131D01*
X0171545Y0212097D01*
X0171659Y0212069D01*
X0171779Y0212046D01*
X0171910Y0212040D01*
X0171950D01*
X0171979Y0212046D01*
X0172019D01*
X0172059Y0212051D01*
X0172162Y0212069D01*
X0172270Y0212103D01*
X0172390Y0212143D01*
X0172516Y0212206D01*
X0172573Y0212240D01*
X0172630Y0212285D01*
X0172636Y0212291D01*
X0172641Y0212297D01*
X0172658Y0212314D01*
X0172676Y0212331D01*
X0172704Y0212360D01*
X0172727Y0212388D01*
X0172790Y0212468D01*
X0172858Y0212571D01*
X0172927Y0212697D01*
X0172990Y0212845D01*
X0173035Y0213016D01*
X0173544Y0212885D01*
Y0212879D01*
X0173538Y0212856D01*
X0173526Y0212828D01*
X0173515Y0212782D01*
X0173492Y0212731D01*
X0173469Y0212668D01*
X0173446Y0212605D01*
X0173412Y0212531D01*
X0173332Y0212377D01*
X0173235Y0212223D01*
X0173172Y0212143D01*
X0173109Y0212069D01*
X0173041Y0211994D01*
X0172967Y0211931D01*
X0172961Y0211926D01*
X0172950Y0211920D01*
X0172927Y0211903D01*
X0172893Y0211880D01*
X0172853Y0211857D01*
X0172801Y0211829D01*
X0172750Y0211800D01*
X0172681Y0211771D01*
X0172613Y0211737D01*
X0172533Y0211709D01*
X0172453Y0211680D01*
X0172362Y0211657D01*
X0172265Y0211634D01*
X0172167Y0211617D01*
X0172059Y0211612D01*
X0171950Y0211606D01*
X0171893D01*
X0171848Y0211612D01*
X0171796D01*
X0171733Y0211617D01*
X0171665Y0211629D01*
X0171591Y0211640D01*
X0171431Y0211669D01*
X0171259Y0211714D01*
X0171094Y0211777D01*
X0171014Y0211811D01*
X0170940Y0211857D01*
X0170934Y0211863D01*
X0170923Y0211869D01*
X0170905Y0211886D01*
X0170877Y0211903D01*
X0170843Y0211931D01*
X0170808Y0211960D01*
X0170723Y0212046D01*
X0170626Y0212148D01*
X0170523Y0212274D01*
X0170431Y0212417D01*
X0170346Y0212588D01*
Y0212594D01*
X0170340Y0212611D01*
X0170329Y0212634D01*
X0170317Y0212674D01*
X0170300Y0212714D01*
X0170283Y0212771D01*
X0170266Y0212828D01*
X0170249Y0212896D01*
X0170226Y0212971D01*
X0170209Y0213051D01*
X0170180Y0213228D01*
X0170158Y0213416D01*
X0170146Y0213622D01*
Y0213627D01*
Y0213650D01*
Y0213679D01*
X0170152Y0213724D01*
Y0213776D01*
X0170158Y0213833D01*
X0170163Y0213901D01*
X0170175Y0213976D01*
X0170203Y0214141D01*
X0170243Y0214318D01*
X0170300Y0214495D01*
X0170374Y0214667D01*
Y0214672D01*
X0170386Y0214684D01*
X0170397Y0214706D01*
X0170414Y0214741D01*
X0170443Y0214775D01*
X0170472Y0214821D01*
X0170540Y0214918D01*
X0170631Y0215026D01*
X0170746Y0215140D01*
X0170877Y0215249D01*
X0171025Y0215346D01*
X0171031D01*
X0171043Y0215357D01*
X0171065Y0215369D01*
X0171100Y0215380D01*
X0171140Y0215403D01*
X0171185Y0215420D01*
X0171242Y0215443D01*
X0171300Y0215466D01*
X0171368Y0215483D01*
X0171437Y0215506D01*
X0171596Y0215546D01*
X0171768Y0215569D01*
X0171956Y0215580D01*
X0172013D01*
X0172053Y0215574D01*
D02*
G37*
G36*
X0161610D02*
X0161661Y0215569D01*
X0161718Y0215563D01*
X0161781Y0215557D01*
X0161855Y0215546D01*
X0162004Y0215506D01*
X0162169Y0215455D01*
X0162249Y0215420D01*
X0162329Y0215380D01*
X0162409Y0215335D01*
X0162483Y0215283D01*
X0162489Y0215278D01*
X0162500Y0215272D01*
X0162523Y0215255D01*
X0162546Y0215232D01*
X0162580Y0215197D01*
X0162615Y0215163D01*
X0162654Y0215118D01*
X0162700Y0215072D01*
X0162746Y0215015D01*
X0162792Y0214952D01*
X0162837Y0214889D01*
X0162883Y0214815D01*
X0162929Y0214735D01*
X0162969Y0214649D01*
X0163003Y0214558D01*
X0163037Y0214461D01*
X0162535Y0214341D01*
Y0214347D01*
X0162529Y0214358D01*
X0162523Y0214381D01*
X0162512Y0214410D01*
X0162495Y0214444D01*
X0162478Y0214484D01*
X0162432Y0214575D01*
X0162380Y0214672D01*
X0162312Y0214775D01*
X0162232Y0214872D01*
X0162141Y0214952D01*
X0162129Y0214958D01*
X0162095Y0214981D01*
X0162044Y0215015D01*
X0161969Y0215049D01*
X0161878Y0215083D01*
X0161769Y0215118D01*
X0161644Y0215140D01*
X0161507Y0215146D01*
X0161461D01*
X0161433Y0215140D01*
X0161393D01*
X0161353Y0215135D01*
X0161250Y0215118D01*
X0161130Y0215095D01*
X0161004Y0215055D01*
X0160884Y0215003D01*
X0160765Y0214929D01*
X0160759D01*
X0160753Y0214918D01*
X0160719Y0214889D01*
X0160662Y0214844D01*
X0160599Y0214781D01*
X0160530Y0214695D01*
X0160462Y0214598D01*
X0160399Y0214484D01*
X0160348Y0214358D01*
Y0214352D01*
X0160342Y0214341D01*
X0160336Y0214324D01*
X0160330Y0214295D01*
X0160319Y0214267D01*
X0160308Y0214227D01*
X0160291Y0214136D01*
X0160268Y0214021D01*
X0160245Y0213896D01*
X0160233Y0213764D01*
X0160228Y0213622D01*
Y0213616D01*
Y0213599D01*
Y0213576D01*
Y0213542D01*
X0160233Y0213496D01*
Y0213445D01*
X0160239Y0213393D01*
X0160245Y0213330D01*
X0160262Y0213199D01*
X0160291Y0213051D01*
X0160325Y0212908D01*
X0160371Y0212765D01*
Y0212759D01*
X0160376Y0212748D01*
X0160388Y0212731D01*
X0160399Y0212708D01*
X0160433Y0212639D01*
X0160479Y0212560D01*
X0160542Y0212468D01*
X0160616Y0212383D01*
X0160707Y0212291D01*
X0160810Y0212217D01*
X0160816D01*
X0160822Y0212211D01*
X0160839Y0212200D01*
X0160862Y0212188D01*
X0160924Y0212160D01*
X0161004Y0212131D01*
X0161101Y0212097D01*
X0161216Y0212069D01*
X0161336Y0212046D01*
X0161467Y0212040D01*
X0161507D01*
X0161535Y0212046D01*
X0161575D01*
X0161615Y0212051D01*
X0161718Y0212069D01*
X0161827Y0212103D01*
X0161946Y0212143D01*
X0162072Y0212206D01*
X0162129Y0212240D01*
X0162186Y0212285D01*
X0162192Y0212291D01*
X0162198Y0212297D01*
X0162215Y0212314D01*
X0162232Y0212331D01*
X0162260Y0212360D01*
X0162283Y0212388D01*
X0162346Y0212468D01*
X0162415Y0212571D01*
X0162483Y0212697D01*
X0162546Y0212845D01*
X0162592Y0213016D01*
X0163100Y0212885D01*
Y0212879D01*
X0163094Y0212856D01*
X0163083Y0212828D01*
X0163071Y0212782D01*
X0163049Y0212731D01*
X0163026Y0212668D01*
X0163003Y0212605D01*
X0162969Y0212531D01*
X0162889Y0212377D01*
X0162792Y0212223D01*
X0162729Y0212143D01*
X0162666Y0212069D01*
X0162597Y0211994D01*
X0162523Y0211931D01*
X0162517Y0211926D01*
X0162506Y0211920D01*
X0162483Y0211903D01*
X0162449Y0211880D01*
X0162409Y0211857D01*
X0162358Y0211829D01*
X0162306Y0211800D01*
X0162238Y0211771D01*
X0162169Y0211737D01*
X0162089Y0211709D01*
X0162009Y0211680D01*
X0161918Y0211657D01*
X0161821Y0211634D01*
X0161724Y0211617D01*
X0161615Y0211612D01*
X0161507Y0211606D01*
X0161450D01*
X0161404Y0211612D01*
X0161353D01*
X0161290Y0211617D01*
X0161221Y0211629D01*
X0161147Y0211640D01*
X0160987Y0211669D01*
X0160816Y0211714D01*
X0160650Y0211777D01*
X0160570Y0211811D01*
X0160496Y0211857D01*
X0160490Y0211863D01*
X0160479Y0211869D01*
X0160462Y0211886D01*
X0160433Y0211903D01*
X0160399Y0211931D01*
X0160365Y0211960D01*
X0160279Y0212046D01*
X0160182Y0212148D01*
X0160079Y0212274D01*
X0159988Y0212417D01*
X0159902Y0212588D01*
Y0212594D01*
X0159897Y0212611D01*
X0159885Y0212634D01*
X0159874Y0212674D01*
X0159857Y0212714D01*
X0159839Y0212771D01*
X0159822Y0212828D01*
X0159805Y0212896D01*
X0159782Y0212971D01*
X0159765Y0213051D01*
X0159737Y0213228D01*
X0159714Y0213416D01*
X0159702Y0213622D01*
Y0213627D01*
Y0213650D01*
Y0213679D01*
X0159708Y0213724D01*
Y0213776D01*
X0159714Y0213833D01*
X0159720Y0213901D01*
X0159731Y0213976D01*
X0159759Y0214141D01*
X0159800Y0214318D01*
X0159857Y0214495D01*
X0159931Y0214667D01*
Y0214672D01*
X0159942Y0214684D01*
X0159954Y0214706D01*
X0159971Y0214741D01*
X0159999Y0214775D01*
X0160028Y0214821D01*
X0160096Y0214918D01*
X0160188Y0215026D01*
X0160302Y0215140D01*
X0160433Y0215249D01*
X0160582Y0215346D01*
X0160588D01*
X0160599Y0215357D01*
X0160622Y0215369D01*
X0160656Y0215380D01*
X0160696Y0215403D01*
X0160742Y0215420D01*
X0160799Y0215443D01*
X0160856Y0215466D01*
X0160924Y0215483D01*
X0160993Y0215506D01*
X0161153Y0215546D01*
X0161324Y0215569D01*
X0161512Y0215580D01*
X0161570D01*
X0161610Y0215574D01*
D02*
G37*
G36*
X0178922Y0215517D02*
X0178968Y0215512D01*
X0179025Y0215506D01*
X0179082Y0215500D01*
X0179151Y0215483D01*
X0179288Y0215449D01*
X0179436Y0215392D01*
X0179505Y0215357D01*
X0179573Y0215318D01*
X0179642Y0215272D01*
X0179705Y0215215D01*
X0179710Y0215209D01*
X0179716Y0215203D01*
X0179733Y0215186D01*
X0179756Y0215158D01*
X0179779Y0215129D01*
X0179807Y0215095D01*
X0179836Y0215049D01*
X0179870Y0215003D01*
X0179927Y0214895D01*
X0179979Y0214764D01*
X0180001Y0214695D01*
X0180019Y0214615D01*
X0180024Y0214541D01*
X0180030Y0214455D01*
Y0214444D01*
Y0214415D01*
X0180024Y0214370D01*
X0180019Y0214313D01*
X0180007Y0214238D01*
X0179990Y0214164D01*
X0179967Y0214084D01*
X0179933Y0213998D01*
X0179927Y0213987D01*
X0179916Y0213959D01*
X0179893Y0213918D01*
X0179859Y0213861D01*
X0179813Y0213787D01*
X0179762Y0213707D01*
X0179693Y0213622D01*
X0179619Y0213530D01*
X0179607Y0213519D01*
X0179579Y0213485D01*
X0179556Y0213462D01*
X0179522Y0213427D01*
X0179488Y0213393D01*
X0179448Y0213353D01*
X0179402Y0213307D01*
X0179345Y0213256D01*
X0179288Y0213205D01*
X0179219Y0213142D01*
X0179151Y0213079D01*
X0179071Y0213011D01*
X0178985Y0212936D01*
X0178894Y0212856D01*
X0178888Y0212851D01*
X0178877Y0212839D01*
X0178854Y0212822D01*
X0178825Y0212799D01*
X0178757Y0212737D01*
X0178665Y0212662D01*
X0178574Y0212582D01*
X0178488Y0212502D01*
X0178408Y0212428D01*
X0178380Y0212400D01*
X0178351Y0212371D01*
X0178346Y0212365D01*
X0178334Y0212348D01*
X0178311Y0212325D01*
X0178283Y0212291D01*
X0178249Y0212257D01*
X0178214Y0212211D01*
X0178152Y0212120D01*
X0180036D01*
Y0211669D01*
X0177495D01*
Y0211674D01*
Y0211697D01*
Y0211732D01*
X0177500Y0211771D01*
X0177506Y0211823D01*
X0177512Y0211874D01*
X0177529Y0211937D01*
X0177546Y0211994D01*
Y0212000D01*
X0177552Y0212006D01*
X0177563Y0212040D01*
X0177586Y0212091D01*
X0177620Y0212154D01*
X0177666Y0212234D01*
X0177717Y0212320D01*
X0177780Y0212411D01*
X0177855Y0212502D01*
Y0212508D01*
X0177866Y0212514D01*
X0177894Y0212548D01*
X0177946Y0212599D01*
X0178014Y0212668D01*
X0178100Y0212754D01*
X0178209Y0212856D01*
X0178334Y0212965D01*
X0178477Y0213085D01*
X0178483Y0213090D01*
X0178506Y0213108D01*
X0178534Y0213136D01*
X0178580Y0213171D01*
X0178631Y0213211D01*
X0178688Y0213262D01*
X0178814Y0213382D01*
X0178957Y0213507D01*
X0179094Y0213644D01*
X0179162Y0213713D01*
X0179219Y0213776D01*
X0179276Y0213839D01*
X0179322Y0213896D01*
Y0213901D01*
X0179333Y0213907D01*
X0179345Y0213924D01*
X0179356Y0213947D01*
X0179391Y0214004D01*
X0179436Y0214078D01*
X0179476Y0214170D01*
X0179510Y0214267D01*
X0179533Y0214364D01*
X0179545Y0214467D01*
Y0214472D01*
Y0214478D01*
X0179539Y0214512D01*
X0179533Y0214564D01*
X0179522Y0214632D01*
X0179493Y0214706D01*
X0179459Y0214786D01*
X0179408Y0214866D01*
X0179339Y0214941D01*
X0179328Y0214946D01*
X0179305Y0214969D01*
X0179259Y0215003D01*
X0179202Y0215038D01*
X0179122Y0215072D01*
X0179036Y0215106D01*
X0178934Y0215129D01*
X0178820Y0215135D01*
X0178785D01*
X0178762Y0215129D01*
X0178700Y0215123D01*
X0178625Y0215106D01*
X0178534Y0215083D01*
X0178443Y0215043D01*
X0178351Y0214992D01*
X0178271Y0214924D01*
X0178266Y0214912D01*
X0178243Y0214883D01*
X0178209Y0214838D01*
X0178174Y0214775D01*
X0178134Y0214695D01*
X0178106Y0214598D01*
X0178083Y0214484D01*
X0178071Y0214358D01*
X0177586Y0214410D01*
Y0214415D01*
Y0214432D01*
X0177592Y0214461D01*
X0177598Y0214501D01*
X0177609Y0214547D01*
X0177620Y0214598D01*
X0177649Y0214718D01*
X0177695Y0214849D01*
X0177763Y0214986D01*
X0177803Y0215055D01*
X0177849Y0215118D01*
X0177900Y0215180D01*
X0177957Y0215237D01*
X0177963Y0215243D01*
X0177974Y0215249D01*
X0177992Y0215266D01*
X0178014Y0215283D01*
X0178049Y0215306D01*
X0178089Y0215329D01*
X0178134Y0215352D01*
X0178191Y0215380D01*
X0178249Y0215409D01*
X0178311Y0215432D01*
X0178386Y0215455D01*
X0178465Y0215477D01*
X0178545Y0215494D01*
X0178637Y0215512D01*
X0178728Y0215517D01*
X0178831Y0215523D01*
X0178882D01*
X0178922Y0215517D01*
D02*
G37*
G36*
X0175696Y0215506D02*
X0175742D01*
X0175839Y0215494D01*
X0175953Y0215483D01*
X0176067Y0215460D01*
X0176187Y0215432D01*
X0176290Y0215392D01*
X0176296D01*
X0176301Y0215386D01*
X0176336Y0215369D01*
X0176381Y0215340D01*
X0176444Y0215306D01*
X0176513Y0215255D01*
X0176581Y0215192D01*
X0176644Y0215118D01*
X0176707Y0215032D01*
X0176713Y0215020D01*
X0176730Y0214992D01*
X0176758Y0214941D01*
X0176787Y0214878D01*
X0176810Y0214804D01*
X0176838Y0214718D01*
X0176855Y0214621D01*
X0176861Y0214524D01*
Y0214512D01*
Y0214484D01*
X0176855Y0214432D01*
X0176844Y0214375D01*
X0176827Y0214301D01*
X0176804Y0214227D01*
X0176770Y0214141D01*
X0176724Y0214061D01*
X0176718Y0214050D01*
X0176701Y0214027D01*
X0176667Y0213987D01*
X0176627Y0213936D01*
X0176570Y0213878D01*
X0176496Y0213821D01*
X0176416Y0213764D01*
X0176319Y0213713D01*
X0176324D01*
X0176336Y0213707D01*
X0176353Y0213702D01*
X0176376Y0213696D01*
X0176438Y0213667D01*
X0176518Y0213633D01*
X0176604Y0213582D01*
X0176690Y0213519D01*
X0176781Y0213445D01*
X0176855Y0213359D01*
X0176861Y0213348D01*
X0176884Y0213313D01*
X0176918Y0213262D01*
X0176952Y0213193D01*
X0176987Y0213108D01*
X0177021Y0213011D01*
X0177044Y0212902D01*
X0177049Y0212782D01*
Y0212776D01*
Y0212771D01*
Y0212737D01*
X0177044Y0212685D01*
X0177038Y0212617D01*
X0177021Y0212537D01*
X0177004Y0212451D01*
X0176975Y0212365D01*
X0176935Y0212274D01*
X0176929Y0212263D01*
X0176912Y0212234D01*
X0176890Y0212194D01*
X0176855Y0212143D01*
X0176815Y0212086D01*
X0176770Y0212029D01*
X0176713Y0211971D01*
X0176650Y0211920D01*
X0176644Y0211914D01*
X0176621Y0211897D01*
X0176581Y0211874D01*
X0176535Y0211852D01*
X0176473Y0211817D01*
X0176404Y0211789D01*
X0176319Y0211760D01*
X0176227Y0211732D01*
X0176216D01*
X0176181Y0211720D01*
X0176130Y0211714D01*
X0176056Y0211703D01*
X0175964Y0211692D01*
X0175862Y0211680D01*
X0175742Y0211674D01*
X0175610Y0211669D01*
X0174149D01*
Y0215512D01*
X0175662D01*
X0175696Y0215506D01*
D02*
G37*
G36*
X0168376D02*
X0168467Y0215500D01*
X0168564Y0215494D01*
X0168661Y0215483D01*
X0168741Y0215472D01*
X0168753D01*
X0168787Y0215460D01*
X0168844Y0215449D01*
X0168907Y0215432D01*
X0168981Y0215409D01*
X0169061Y0215380D01*
X0169141Y0215340D01*
X0169215Y0215295D01*
X0169227Y0215289D01*
X0169250Y0215272D01*
X0169284Y0215243D01*
X0169330Y0215197D01*
X0169375Y0215146D01*
X0169427Y0215083D01*
X0169478Y0215009D01*
X0169524Y0214924D01*
X0169529Y0214912D01*
X0169541Y0214883D01*
X0169564Y0214832D01*
X0169587Y0214769D01*
X0169604Y0214689D01*
X0169626Y0214604D01*
X0169638Y0214501D01*
X0169644Y0214398D01*
Y0214392D01*
Y0214375D01*
Y0214352D01*
X0169638Y0214318D01*
X0169632Y0214272D01*
X0169626Y0214227D01*
X0169615Y0214170D01*
X0169604Y0214113D01*
X0169569Y0213981D01*
X0169512Y0213844D01*
X0169478Y0213770D01*
X0169432Y0213702D01*
X0169387Y0213633D01*
X0169330Y0213570D01*
X0169324Y0213564D01*
X0169312Y0213553D01*
X0169295Y0213542D01*
X0169267Y0213519D01*
X0169232Y0213490D01*
X0169187Y0213462D01*
X0169135Y0213433D01*
X0169073Y0213405D01*
X0168998Y0213370D01*
X0168918Y0213342D01*
X0168827Y0213313D01*
X0168724Y0213285D01*
X0168610Y0213262D01*
X0168484Y0213250D01*
X0168353Y0213239D01*
X0168205Y0213233D01*
X0167222D01*
Y0211669D01*
X0166714D01*
Y0215512D01*
X0168290D01*
X0168376Y0215506D01*
D02*
G37*
G36*
X0155968Y0211669D02*
X0155460D01*
Y0215512D01*
X0155968D01*
Y0211669D01*
D02*
G37*
G36*
X0153330Y0215506D02*
X0153382D01*
X0153496Y0215500D01*
X0153621Y0215483D01*
X0153747Y0215466D01*
X0153873Y0215437D01*
X0153930Y0215420D01*
X0153981Y0215403D01*
X0153987D01*
X0153992Y0215397D01*
X0154027Y0215386D01*
X0154072Y0215357D01*
X0154135Y0215318D01*
X0154204Y0215266D01*
X0154278Y0215203D01*
X0154347Y0215129D01*
X0154409Y0215038D01*
X0154415Y0215026D01*
X0154438Y0214992D01*
X0154461Y0214941D01*
X0154495Y0214866D01*
X0154524Y0214781D01*
X0154552Y0214684D01*
X0154569Y0214575D01*
X0154575Y0214461D01*
Y0214455D01*
Y0214444D01*
Y0214421D01*
X0154569Y0214392D01*
Y0214358D01*
X0154563Y0214318D01*
X0154541Y0214221D01*
X0154512Y0214113D01*
X0154461Y0213998D01*
X0154398Y0213878D01*
X0154352Y0213821D01*
X0154306Y0213770D01*
X0154301Y0213764D01*
X0154295Y0213759D01*
X0154278Y0213741D01*
X0154255Y0213724D01*
X0154227Y0213702D01*
X0154192Y0213679D01*
X0154152Y0213650D01*
X0154107Y0213622D01*
X0154050Y0213593D01*
X0153992Y0213559D01*
X0153924Y0213530D01*
X0153850Y0213502D01*
X0153770Y0213479D01*
X0153684Y0213450D01*
X0153593Y0213433D01*
X0153490Y0213416D01*
X0153501Y0213410D01*
X0153524Y0213399D01*
X0153559Y0213382D01*
X0153604Y0213353D01*
X0153707Y0213296D01*
X0153753Y0213256D01*
X0153798Y0213222D01*
X0153810Y0213211D01*
X0153838Y0213188D01*
X0153878Y0213142D01*
X0153935Y0213079D01*
X0153998Y0213005D01*
X0154067Y0212919D01*
X0154141Y0212822D01*
X0154215Y0212714D01*
X0154883Y0211669D01*
X0154249D01*
X0153741Y0212462D01*
Y0212468D01*
X0153730Y0212480D01*
X0153718Y0212497D01*
X0153701Y0212520D01*
X0153661Y0212582D01*
X0153610Y0212662D01*
X0153553Y0212748D01*
X0153490Y0212834D01*
X0153427Y0212919D01*
X0153370Y0212994D01*
X0153364Y0212999D01*
X0153347Y0213022D01*
X0153319Y0213056D01*
X0153284Y0213096D01*
X0153205Y0213182D01*
X0153159Y0213216D01*
X0153113Y0213250D01*
X0153107Y0213256D01*
X0153096Y0213262D01*
X0153073Y0213273D01*
X0153039Y0213290D01*
X0152965Y0213325D01*
X0152879Y0213353D01*
X0152873D01*
X0152862Y0213359D01*
X0152839D01*
X0152811Y0213365D01*
X0152770Y0213370D01*
X0152725D01*
X0152668Y0213376D01*
X0152011D01*
Y0211669D01*
X0151503D01*
Y0215512D01*
X0153290D01*
X0153330Y0215506D01*
D02*
G37*
G36*
X0149579D02*
X0149670Y0215500D01*
X0149767Y0215494D01*
X0149864Y0215483D01*
X0149944Y0215472D01*
X0149955D01*
X0149990Y0215460D01*
X0150047Y0215449D01*
X0150110Y0215432D01*
X0150184Y0215409D01*
X0150264Y0215380D01*
X0150344Y0215340D01*
X0150418Y0215295D01*
X0150429Y0215289D01*
X0150452Y0215272D01*
X0150487Y0215243D01*
X0150532Y0215197D01*
X0150578Y0215146D01*
X0150629Y0215083D01*
X0150681Y0215009D01*
X0150726Y0214924D01*
X0150732Y0214912D01*
X0150743Y0214883D01*
X0150766Y0214832D01*
X0150789Y0214769D01*
X0150806Y0214689D01*
X0150829Y0214604D01*
X0150840Y0214501D01*
X0150846Y0214398D01*
Y0214392D01*
Y0214375D01*
Y0214352D01*
X0150840Y0214318D01*
X0150835Y0214272D01*
X0150829Y0214227D01*
X0150818Y0214170D01*
X0150806Y0214113D01*
X0150772Y0213981D01*
X0150715Y0213844D01*
X0150681Y0213770D01*
X0150635Y0213702D01*
X0150589Y0213633D01*
X0150532Y0213570D01*
X0150526Y0213564D01*
X0150515Y0213553D01*
X0150498Y0213542D01*
X0150469Y0213519D01*
X0150435Y0213490D01*
X0150389Y0213462D01*
X0150338Y0213433D01*
X0150275Y0213405D01*
X0150201Y0213370D01*
X0150121Y0213342D01*
X0150030Y0213313D01*
X0149927Y0213285D01*
X0149813Y0213262D01*
X0149687Y0213250D01*
X0149556Y0213239D01*
X0149407Y0213233D01*
X0148425D01*
Y0211669D01*
X0147917D01*
Y0215512D01*
X0149493D01*
X0149579Y0215506D01*
D02*
G37*
G36*
X0166355Y0210601D02*
X0163231D01*
Y0210944D01*
X0166355D01*
Y0210601D01*
D02*
G37*
G36*
X0159491D02*
X0156368D01*
Y0210944D01*
X0159491D01*
Y0210601D01*
D02*
G37*
G36*
X0166003Y0126893D02*
X0166049D01*
X0166152Y0126882D01*
X0166266Y0126865D01*
X0166392Y0126836D01*
X0166523Y0126802D01*
X0166649Y0126756D01*
X0166654D01*
X0166666Y0126751D01*
X0166683Y0126745D01*
X0166706Y0126733D01*
X0166763Y0126699D01*
X0166837Y0126654D01*
X0166917Y0126596D01*
X0167003Y0126528D01*
X0167083Y0126448D01*
X0167151Y0126351D01*
X0167157Y0126339D01*
X0167180Y0126305D01*
X0167208Y0126248D01*
X0167242Y0126180D01*
X0167277Y0126088D01*
X0167305Y0125985D01*
X0167334Y0125871D01*
X0167345Y0125751D01*
X0166860Y0125717D01*
Y0125723D01*
Y0125734D01*
X0166854Y0125751D01*
X0166848Y0125774D01*
X0166837Y0125843D01*
X0166814Y0125923D01*
X0166774Y0126008D01*
X0166728Y0126100D01*
X0166671Y0126185D01*
X0166592Y0126260D01*
X0166580Y0126265D01*
X0166551Y0126288D01*
X0166494Y0126317D01*
X0166420Y0126357D01*
X0166329Y0126391D01*
X0166209Y0126419D01*
X0166072Y0126442D01*
X0165918Y0126448D01*
X0165843D01*
X0165804Y0126442D01*
X0165763Y0126436D01*
X0165661Y0126425D01*
X0165552Y0126408D01*
X0165444Y0126374D01*
X0165341Y0126334D01*
X0165290Y0126305D01*
X0165250Y0126277D01*
X0165238Y0126271D01*
X0165215Y0126248D01*
X0165181Y0126208D01*
X0165147Y0126162D01*
X0165107Y0126100D01*
X0165073Y0126031D01*
X0165050Y0125951D01*
X0165038Y0125865D01*
Y0125854D01*
Y0125831D01*
X0165044Y0125791D01*
X0165056Y0125746D01*
X0165073Y0125694D01*
X0165101Y0125637D01*
X0165135Y0125580D01*
X0165187Y0125529D01*
X0165192Y0125523D01*
X0165221Y0125506D01*
X0165238Y0125494D01*
X0165267Y0125477D01*
X0165295Y0125460D01*
X0165335Y0125443D01*
X0165381Y0125420D01*
X0165438Y0125403D01*
X0165501Y0125374D01*
X0165569Y0125352D01*
X0165649Y0125329D01*
X0165741Y0125300D01*
X0165843Y0125277D01*
X0165952Y0125249D01*
X0165958D01*
X0165981Y0125243D01*
X0166009Y0125237D01*
X0166055Y0125226D01*
X0166106Y0125215D01*
X0166163Y0125197D01*
X0166295Y0125169D01*
X0166432Y0125129D01*
X0166574Y0125089D01*
X0166637Y0125072D01*
X0166700Y0125049D01*
X0166757Y0125026D01*
X0166803Y0125009D01*
X0166808D01*
X0166820Y0125003D01*
X0166837Y0124992D01*
X0166860Y0124980D01*
X0166917Y0124946D01*
X0166991Y0124900D01*
X0167071Y0124843D01*
X0167157Y0124781D01*
X0167231Y0124701D01*
X0167299Y0124615D01*
X0167305Y0124604D01*
X0167322Y0124575D01*
X0167351Y0124524D01*
X0167379Y0124461D01*
X0167408Y0124381D01*
X0167437Y0124290D01*
X0167454Y0124187D01*
X0167459Y0124073D01*
Y0124067D01*
Y0124061D01*
Y0124044D01*
Y0124021D01*
X0167448Y0123958D01*
X0167437Y0123884D01*
X0167414Y0123793D01*
X0167385Y0123696D01*
X0167340Y0123593D01*
X0167282Y0123490D01*
Y0123484D01*
X0167277Y0123479D01*
X0167248Y0123444D01*
X0167208Y0123399D01*
X0167151Y0123336D01*
X0167083Y0123273D01*
X0166991Y0123199D01*
X0166894Y0123136D01*
X0166774Y0123073D01*
X0166769D01*
X0166757Y0123068D01*
X0166740Y0123062D01*
X0166717Y0123050D01*
X0166689Y0123039D01*
X0166649Y0123028D01*
X0166563Y0122999D01*
X0166449Y0122970D01*
X0166329Y0122948D01*
X0166186Y0122931D01*
X0166038Y0122925D01*
X0165952D01*
X0165906Y0122931D01*
X0165855D01*
X0165798Y0122936D01*
X0165735Y0122942D01*
X0165598Y0122959D01*
X0165450Y0122988D01*
X0165301Y0123022D01*
X0165164Y0123073D01*
X0165158D01*
X0165147Y0123079D01*
X0165130Y0123090D01*
X0165107Y0123102D01*
X0165044Y0123136D01*
X0164964Y0123187D01*
X0164873Y0123250D01*
X0164781Y0123330D01*
X0164690Y0123422D01*
X0164610Y0123530D01*
Y0123536D01*
X0164604Y0123541D01*
X0164593Y0123559D01*
X0164582Y0123587D01*
X0164564Y0123616D01*
X0164547Y0123650D01*
X0164507Y0123736D01*
X0164473Y0123838D01*
X0164439Y0123953D01*
X0164416Y0124084D01*
X0164404Y0124227D01*
X0164884Y0124267D01*
Y0124261D01*
Y0124255D01*
X0164890Y0124221D01*
X0164901Y0124164D01*
X0164913Y0124095D01*
X0164936Y0124021D01*
X0164964Y0123941D01*
X0164998Y0123861D01*
X0165038Y0123787D01*
X0165044Y0123781D01*
X0165061Y0123758D01*
X0165090Y0123724D01*
X0165135Y0123684D01*
X0165187Y0123633D01*
X0165255Y0123587D01*
X0165335Y0123536D01*
X0165427Y0123490D01*
X0165432D01*
X0165438Y0123484D01*
X0165472Y0123473D01*
X0165529Y0123456D01*
X0165598Y0123433D01*
X0165684Y0123410D01*
X0165786Y0123393D01*
X0165895Y0123382D01*
X0166015Y0123376D01*
X0166066D01*
X0166118Y0123382D01*
X0166186Y0123387D01*
X0166266Y0123399D01*
X0166352Y0123410D01*
X0166437Y0123433D01*
X0166523Y0123462D01*
X0166534Y0123467D01*
X0166557Y0123479D01*
X0166597Y0123496D01*
X0166649Y0123524D01*
X0166700Y0123559D01*
X0166757Y0123599D01*
X0166808Y0123644D01*
X0166854Y0123696D01*
X0166860Y0123701D01*
X0166871Y0123724D01*
X0166888Y0123753D01*
X0166911Y0123793D01*
X0166934Y0123844D01*
X0166951Y0123901D01*
X0166963Y0123964D01*
X0166968Y0124027D01*
Y0124033D01*
Y0124055D01*
X0166963Y0124090D01*
X0166957Y0124135D01*
X0166946Y0124187D01*
X0166923Y0124238D01*
X0166900Y0124290D01*
X0166866Y0124341D01*
X0166860Y0124347D01*
X0166848Y0124364D01*
X0166820Y0124387D01*
X0166786Y0124421D01*
X0166734Y0124455D01*
X0166677Y0124495D01*
X0166603Y0124535D01*
X0166517Y0124569D01*
X0166511Y0124575D01*
X0166483Y0124581D01*
X0166443Y0124598D01*
X0166409Y0124604D01*
X0166375Y0124615D01*
X0166329Y0124626D01*
X0166283Y0124644D01*
X0166226Y0124661D01*
X0166163Y0124678D01*
X0166095Y0124695D01*
X0166015Y0124712D01*
X0165929Y0124735D01*
X0165832Y0124758D01*
X0165826D01*
X0165809Y0124764D01*
X0165781Y0124769D01*
X0165746Y0124781D01*
X0165701Y0124792D01*
X0165655Y0124803D01*
X0165541Y0124838D01*
X0165415Y0124872D01*
X0165295Y0124912D01*
X0165181Y0124952D01*
X0165135Y0124975D01*
X0165090Y0124998D01*
X0165084D01*
X0165078Y0125003D01*
X0165044Y0125026D01*
X0164998Y0125055D01*
X0164936Y0125095D01*
X0164867Y0125146D01*
X0164798Y0125209D01*
X0164736Y0125277D01*
X0164679Y0125352D01*
X0164673Y0125363D01*
X0164656Y0125392D01*
X0164639Y0125437D01*
X0164616Y0125494D01*
X0164587Y0125563D01*
X0164570Y0125648D01*
X0164553Y0125740D01*
X0164547Y0125837D01*
Y0125843D01*
Y0125848D01*
Y0125865D01*
Y0125888D01*
X0164559Y0125940D01*
X0164570Y0126014D01*
X0164587Y0126100D01*
X0164616Y0126191D01*
X0164656Y0126282D01*
X0164707Y0126379D01*
Y0126385D01*
X0164713Y0126391D01*
X0164736Y0126419D01*
X0164776Y0126465D01*
X0164833Y0126522D01*
X0164901Y0126585D01*
X0164981Y0126654D01*
X0165078Y0126716D01*
X0165192Y0126768D01*
X0165198D01*
X0165210Y0126773D01*
X0165227Y0126779D01*
X0165250Y0126790D01*
X0165278Y0126796D01*
X0165312Y0126808D01*
X0165398Y0126836D01*
X0165507Y0126859D01*
X0165627Y0126876D01*
X0165758Y0126893D01*
X0165895Y0126899D01*
X0165969D01*
X0166003Y0126893D01*
D02*
G37*
G36*
X0190802D02*
X0190853Y0126888D01*
X0190910Y0126882D01*
X0190973Y0126876D01*
X0191047Y0126865D01*
X0191196Y0126825D01*
X0191361Y0126773D01*
X0191441Y0126739D01*
X0191521Y0126699D01*
X0191601Y0126654D01*
X0191675Y0126602D01*
X0191681Y0126596D01*
X0191693Y0126591D01*
X0191716Y0126574D01*
X0191738Y0126551D01*
X0191773Y0126516D01*
X0191807Y0126482D01*
X0191847Y0126436D01*
X0191893Y0126391D01*
X0191938Y0126334D01*
X0191984Y0126271D01*
X0192030Y0126208D01*
X0192075Y0126134D01*
X0192121Y0126054D01*
X0192161Y0125968D01*
X0192195Y0125877D01*
X0192229Y0125780D01*
X0191727Y0125660D01*
Y0125666D01*
X0191721Y0125677D01*
X0191716Y0125700D01*
X0191704Y0125728D01*
X0191687Y0125763D01*
X0191670Y0125803D01*
X0191624Y0125894D01*
X0191573Y0125991D01*
X0191504Y0126094D01*
X0191424Y0126191D01*
X0191333Y0126271D01*
X0191322Y0126277D01*
X0191287Y0126300D01*
X0191236Y0126334D01*
X0191162Y0126368D01*
X0191070Y0126402D01*
X0190962Y0126436D01*
X0190836Y0126459D01*
X0190699Y0126465D01*
X0190653D01*
X0190625Y0126459D01*
X0190585D01*
X0190545Y0126454D01*
X0190442Y0126436D01*
X0190322Y0126414D01*
X0190197Y0126374D01*
X0190077Y0126322D01*
X0189957Y0126248D01*
X0189951D01*
X0189945Y0126237D01*
X0189911Y0126208D01*
X0189854Y0126162D01*
X0189791Y0126100D01*
X0189723Y0126014D01*
X0189654Y0125917D01*
X0189591Y0125803D01*
X0189540Y0125677D01*
Y0125671D01*
X0189534Y0125660D01*
X0189529Y0125643D01*
X0189523Y0125614D01*
X0189511Y0125586D01*
X0189500Y0125546D01*
X0189483Y0125454D01*
X0189460Y0125340D01*
X0189437Y0125215D01*
X0189426Y0125083D01*
X0189420Y0124941D01*
Y0124935D01*
Y0124918D01*
Y0124895D01*
Y0124861D01*
X0189426Y0124815D01*
Y0124764D01*
X0189432Y0124712D01*
X0189437Y0124649D01*
X0189454Y0124518D01*
X0189483Y0124370D01*
X0189517Y0124227D01*
X0189563Y0124084D01*
Y0124078D01*
X0189568Y0124067D01*
X0189580Y0124050D01*
X0189591Y0124027D01*
X0189626Y0123958D01*
X0189671Y0123878D01*
X0189734Y0123787D01*
X0189808Y0123701D01*
X0189900Y0123610D01*
X0190003Y0123536D01*
X0190008D01*
X0190014Y0123530D01*
X0190031Y0123519D01*
X0190054Y0123507D01*
X0190117Y0123479D01*
X0190197Y0123450D01*
X0190294Y0123416D01*
X0190408Y0123387D01*
X0190528Y0123364D01*
X0190659Y0123359D01*
X0190699D01*
X0190728Y0123364D01*
X0190768D01*
X0190808Y0123370D01*
X0190910Y0123387D01*
X0191019Y0123422D01*
X0191139Y0123462D01*
X0191264Y0123524D01*
X0191322Y0123559D01*
X0191379Y0123604D01*
X0191384Y0123610D01*
X0191390Y0123616D01*
X0191407Y0123633D01*
X0191424Y0123650D01*
X0191453Y0123679D01*
X0191476Y0123707D01*
X0191539Y0123787D01*
X0191607Y0123890D01*
X0191675Y0124015D01*
X0191738Y0124164D01*
X0191784Y0124335D01*
X0192292Y0124204D01*
Y0124198D01*
X0192287Y0124175D01*
X0192275Y0124147D01*
X0192264Y0124101D01*
X0192241Y0124050D01*
X0192218Y0123987D01*
X0192195Y0123924D01*
X0192161Y0123850D01*
X0192081Y0123696D01*
X0191984Y0123541D01*
X0191921Y0123462D01*
X0191858Y0123387D01*
X0191790Y0123313D01*
X0191716Y0123250D01*
X0191710Y0123245D01*
X0191698Y0123239D01*
X0191675Y0123222D01*
X0191641Y0123199D01*
X0191601Y0123176D01*
X0191550Y0123147D01*
X0191498Y0123119D01*
X0191430Y0123090D01*
X0191361Y0123056D01*
X0191281Y0123028D01*
X0191202Y0122999D01*
X0191110Y0122976D01*
X0191013Y0122953D01*
X0190916Y0122936D01*
X0190808Y0122931D01*
X0190699Y0122925D01*
X0190642D01*
X0190596Y0122931D01*
X0190545D01*
X0190482Y0122936D01*
X0190414Y0122948D01*
X0190339Y0122959D01*
X0190180Y0122988D01*
X0190008Y0123033D01*
X0189843Y0123096D01*
X0189763Y0123130D01*
X0189688Y0123176D01*
X0189683Y0123182D01*
X0189671Y0123187D01*
X0189654Y0123205D01*
X0189626Y0123222D01*
X0189591Y0123250D01*
X0189557Y0123279D01*
X0189471Y0123364D01*
X0189374Y0123467D01*
X0189272Y0123593D01*
X0189180Y0123736D01*
X0189095Y0123907D01*
Y0123913D01*
X0189089Y0123930D01*
X0189077Y0123953D01*
X0189066Y0123993D01*
X0189049Y0124033D01*
X0189032Y0124090D01*
X0189015Y0124147D01*
X0188997Y0124215D01*
X0188975Y0124290D01*
X0188958Y0124370D01*
X0188929Y0124547D01*
X0188906Y0124735D01*
X0188895Y0124941D01*
Y0124946D01*
Y0124969D01*
Y0124998D01*
X0188900Y0125043D01*
Y0125095D01*
X0188906Y0125152D01*
X0188912Y0125220D01*
X0188923Y0125294D01*
X0188952Y0125460D01*
X0188992Y0125637D01*
X0189049Y0125814D01*
X0189123Y0125985D01*
Y0125991D01*
X0189135Y0126003D01*
X0189146Y0126025D01*
X0189163Y0126060D01*
X0189192Y0126094D01*
X0189220Y0126140D01*
X0189289Y0126237D01*
X0189380Y0126345D01*
X0189494Y0126459D01*
X0189626Y0126568D01*
X0189774Y0126665D01*
X0189780D01*
X0189791Y0126676D01*
X0189814Y0126688D01*
X0189848Y0126699D01*
X0189888Y0126722D01*
X0189934Y0126739D01*
X0189991Y0126762D01*
X0190048Y0126785D01*
X0190117Y0126802D01*
X0190185Y0126825D01*
X0190345Y0126865D01*
X0190516Y0126888D01*
X0190705Y0126899D01*
X0190762D01*
X0190802Y0126893D01*
D02*
G37*
G36*
X0180358D02*
X0180410Y0126888D01*
X0180467Y0126882D01*
X0180530Y0126876D01*
X0180604Y0126865D01*
X0180752Y0126825D01*
X0180918Y0126773D01*
X0180998Y0126739D01*
X0181078Y0126699D01*
X0181158Y0126654D01*
X0181232Y0126602D01*
X0181238Y0126596D01*
X0181249Y0126591D01*
X0181272Y0126574D01*
X0181295Y0126551D01*
X0181329Y0126516D01*
X0181363Y0126482D01*
X0181403Y0126436D01*
X0181449Y0126391D01*
X0181495Y0126334D01*
X0181540Y0126271D01*
X0181586Y0126208D01*
X0181632Y0126134D01*
X0181677Y0126054D01*
X0181717Y0125968D01*
X0181752Y0125877D01*
X0181786Y0125780D01*
X0181283Y0125660D01*
Y0125666D01*
X0181278Y0125677D01*
X0181272Y0125700D01*
X0181261Y0125728D01*
X0181243Y0125763D01*
X0181226Y0125803D01*
X0181181Y0125894D01*
X0181129Y0125991D01*
X0181061Y0126094D01*
X0180981Y0126191D01*
X0180889Y0126271D01*
X0180878Y0126277D01*
X0180844Y0126300D01*
X0180792Y0126334D01*
X0180718Y0126368D01*
X0180627Y0126402D01*
X0180518Y0126436D01*
X0180393Y0126459D01*
X0180255Y0126465D01*
X0180210D01*
X0180181Y0126459D01*
X0180141D01*
X0180101Y0126454D01*
X0179999Y0126436D01*
X0179879Y0126414D01*
X0179753Y0126374D01*
X0179633Y0126322D01*
X0179513Y0126248D01*
X0179508D01*
X0179502Y0126237D01*
X0179467Y0126208D01*
X0179410Y0126162D01*
X0179348Y0126100D01*
X0179279Y0126014D01*
X0179211Y0125917D01*
X0179148Y0125803D01*
X0179096Y0125677D01*
Y0125671D01*
X0179091Y0125660D01*
X0179085Y0125643D01*
X0179079Y0125614D01*
X0179068Y0125586D01*
X0179056Y0125546D01*
X0179039Y0125454D01*
X0179016Y0125340D01*
X0178994Y0125215D01*
X0178982Y0125083D01*
X0178977Y0124941D01*
Y0124935D01*
Y0124918D01*
Y0124895D01*
Y0124861D01*
X0178982Y0124815D01*
Y0124764D01*
X0178988Y0124712D01*
X0178994Y0124649D01*
X0179011Y0124518D01*
X0179039Y0124370D01*
X0179074Y0124227D01*
X0179119Y0124084D01*
Y0124078D01*
X0179125Y0124067D01*
X0179136Y0124050D01*
X0179148Y0124027D01*
X0179182Y0123958D01*
X0179228Y0123878D01*
X0179290Y0123787D01*
X0179365Y0123701D01*
X0179456Y0123610D01*
X0179559Y0123536D01*
X0179565D01*
X0179570Y0123530D01*
X0179587Y0123519D01*
X0179610Y0123507D01*
X0179673Y0123479D01*
X0179753Y0123450D01*
X0179850Y0123416D01*
X0179964Y0123387D01*
X0180084Y0123364D01*
X0180216Y0123359D01*
X0180255D01*
X0180284Y0123364D01*
X0180324D01*
X0180364Y0123370D01*
X0180467Y0123387D01*
X0180575Y0123422D01*
X0180695Y0123462D01*
X0180821Y0123524D01*
X0180878Y0123559D01*
X0180935Y0123604D01*
X0180941Y0123610D01*
X0180946Y0123616D01*
X0180964Y0123633D01*
X0180981Y0123650D01*
X0181009Y0123679D01*
X0181032Y0123707D01*
X0181095Y0123787D01*
X0181163Y0123890D01*
X0181232Y0124015D01*
X0181295Y0124164D01*
X0181340Y0124335D01*
X0181849Y0124204D01*
Y0124198D01*
X0181843Y0124175D01*
X0181832Y0124147D01*
X0181820Y0124101D01*
X0181797Y0124050D01*
X0181774Y0123987D01*
X0181752Y0123924D01*
X0181717Y0123850D01*
X0181637Y0123696D01*
X0181540Y0123541D01*
X0181477Y0123462D01*
X0181415Y0123387D01*
X0181346Y0123313D01*
X0181272Y0123250D01*
X0181266Y0123245D01*
X0181255Y0123239D01*
X0181232Y0123222D01*
X0181198Y0123199D01*
X0181158Y0123176D01*
X0181106Y0123147D01*
X0181055Y0123119D01*
X0180986Y0123090D01*
X0180918Y0123056D01*
X0180838Y0123028D01*
X0180758Y0122999D01*
X0180667Y0122976D01*
X0180570Y0122953D01*
X0180473Y0122936D01*
X0180364Y0122931D01*
X0180255Y0122925D01*
X0180198D01*
X0180153Y0122931D01*
X0180101D01*
X0180038Y0122936D01*
X0179970Y0122948D01*
X0179896Y0122959D01*
X0179736Y0122988D01*
X0179565Y0123033D01*
X0179399Y0123096D01*
X0179319Y0123130D01*
X0179245Y0123176D01*
X0179239Y0123182D01*
X0179228Y0123187D01*
X0179211Y0123205D01*
X0179182Y0123222D01*
X0179148Y0123250D01*
X0179113Y0123279D01*
X0179028Y0123364D01*
X0178931Y0123467D01*
X0178828Y0123593D01*
X0178737Y0123736D01*
X0178651Y0123907D01*
Y0123913D01*
X0178645Y0123930D01*
X0178634Y0123953D01*
X0178622Y0123993D01*
X0178605Y0124033D01*
X0178588Y0124090D01*
X0178571Y0124147D01*
X0178554Y0124215D01*
X0178531Y0124290D01*
X0178514Y0124370D01*
X0178485Y0124547D01*
X0178463Y0124735D01*
X0178451Y0124941D01*
Y0124946D01*
Y0124969D01*
Y0124998D01*
X0178457Y0125043D01*
Y0125095D01*
X0178463Y0125152D01*
X0178468Y0125220D01*
X0178480Y0125294D01*
X0178508Y0125460D01*
X0178548Y0125637D01*
X0178605Y0125814D01*
X0178680Y0125985D01*
Y0125991D01*
X0178691Y0126003D01*
X0178702Y0126025D01*
X0178719Y0126060D01*
X0178748Y0126094D01*
X0178777Y0126140D01*
X0178845Y0126237D01*
X0178937Y0126345D01*
X0179051Y0126459D01*
X0179182Y0126568D01*
X0179331Y0126665D01*
X0179336D01*
X0179348Y0126676D01*
X0179370Y0126688D01*
X0179405Y0126699D01*
X0179445Y0126722D01*
X0179490Y0126739D01*
X0179548Y0126762D01*
X0179605Y0126785D01*
X0179673Y0126802D01*
X0179742Y0126825D01*
X0179902Y0126865D01*
X0180073Y0126888D01*
X0180261Y0126899D01*
X0180318D01*
X0180358Y0126893D01*
D02*
G37*
G36*
X0173495D02*
X0173546Y0126888D01*
X0173603Y0126882D01*
X0173666Y0126876D01*
X0173740Y0126865D01*
X0173889Y0126825D01*
X0174054Y0126773D01*
X0174134Y0126739D01*
X0174214Y0126699D01*
X0174294Y0126654D01*
X0174369Y0126602D01*
X0174374Y0126596D01*
X0174386Y0126591D01*
X0174408Y0126574D01*
X0174431Y0126551D01*
X0174466Y0126516D01*
X0174500Y0126482D01*
X0174540Y0126436D01*
X0174585Y0126391D01*
X0174631Y0126334D01*
X0174677Y0126271D01*
X0174723Y0126208D01*
X0174768Y0126134D01*
X0174814Y0126054D01*
X0174854Y0125968D01*
X0174888Y0125877D01*
X0174922Y0125780D01*
X0174420Y0125660D01*
Y0125666D01*
X0174414Y0125677D01*
X0174408Y0125700D01*
X0174397Y0125728D01*
X0174380Y0125763D01*
X0174363Y0125803D01*
X0174317Y0125894D01*
X0174266Y0125991D01*
X0174197Y0126094D01*
X0174117Y0126191D01*
X0174026Y0126271D01*
X0174014Y0126277D01*
X0173980Y0126300D01*
X0173929Y0126334D01*
X0173855Y0126368D01*
X0173763Y0126402D01*
X0173655Y0126436D01*
X0173529Y0126459D01*
X0173392Y0126465D01*
X0173346D01*
X0173318Y0126459D01*
X0173278D01*
X0173238Y0126454D01*
X0173135Y0126436D01*
X0173015Y0126414D01*
X0172890Y0126374D01*
X0172770Y0126322D01*
X0172650Y0126248D01*
X0172644D01*
X0172638Y0126237D01*
X0172604Y0126208D01*
X0172547Y0126162D01*
X0172484Y0126100D01*
X0172416Y0126014D01*
X0172347Y0125917D01*
X0172284Y0125803D01*
X0172233Y0125677D01*
Y0125671D01*
X0172227Y0125660D01*
X0172222Y0125643D01*
X0172216Y0125614D01*
X0172204Y0125586D01*
X0172193Y0125546D01*
X0172176Y0125454D01*
X0172153Y0125340D01*
X0172130Y0125215D01*
X0172119Y0125083D01*
X0172113Y0124941D01*
Y0124935D01*
Y0124918D01*
Y0124895D01*
Y0124861D01*
X0172119Y0124815D01*
Y0124764D01*
X0172125Y0124712D01*
X0172130Y0124649D01*
X0172147Y0124518D01*
X0172176Y0124370D01*
X0172210Y0124227D01*
X0172256Y0124084D01*
Y0124078D01*
X0172262Y0124067D01*
X0172273Y0124050D01*
X0172284Y0124027D01*
X0172319Y0123958D01*
X0172364Y0123878D01*
X0172427Y0123787D01*
X0172501Y0123701D01*
X0172593Y0123610D01*
X0172696Y0123536D01*
X0172701D01*
X0172707Y0123530D01*
X0172724Y0123519D01*
X0172747Y0123507D01*
X0172810Y0123479D01*
X0172890Y0123450D01*
X0172987Y0123416D01*
X0173101Y0123387D01*
X0173221Y0123364D01*
X0173352Y0123359D01*
X0173392D01*
X0173421Y0123364D01*
X0173461D01*
X0173501Y0123370D01*
X0173603Y0123387D01*
X0173712Y0123422D01*
X0173832Y0123462D01*
X0173957Y0123524D01*
X0174014Y0123559D01*
X0174072Y0123604D01*
X0174077Y0123610D01*
X0174083Y0123616D01*
X0174100Y0123633D01*
X0174117Y0123650D01*
X0174146Y0123679D01*
X0174169Y0123707D01*
X0174231Y0123787D01*
X0174300Y0123890D01*
X0174369Y0124015D01*
X0174431Y0124164D01*
X0174477Y0124335D01*
X0174985Y0124204D01*
Y0124198D01*
X0174979Y0124175D01*
X0174968Y0124147D01*
X0174957Y0124101D01*
X0174934Y0124050D01*
X0174911Y0123987D01*
X0174888Y0123924D01*
X0174854Y0123850D01*
X0174774Y0123696D01*
X0174677Y0123541D01*
X0174614Y0123462D01*
X0174551Y0123387D01*
X0174483Y0123313D01*
X0174408Y0123250D01*
X0174403Y0123245D01*
X0174391Y0123239D01*
X0174369Y0123222D01*
X0174334Y0123199D01*
X0174294Y0123176D01*
X0174243Y0123147D01*
X0174191Y0123119D01*
X0174123Y0123090D01*
X0174054Y0123056D01*
X0173975Y0123028D01*
X0173895Y0122999D01*
X0173803Y0122976D01*
X0173706Y0122953D01*
X0173609Y0122936D01*
X0173501Y0122931D01*
X0173392Y0122925D01*
X0173335D01*
X0173289Y0122931D01*
X0173238D01*
X0173175Y0122936D01*
X0173107Y0122948D01*
X0173032Y0122959D01*
X0172872Y0122988D01*
X0172701Y0123033D01*
X0172536Y0123096D01*
X0172456Y0123130D01*
X0172381Y0123176D01*
X0172376Y0123182D01*
X0172364Y0123187D01*
X0172347Y0123205D01*
X0172319Y0123222D01*
X0172284Y0123250D01*
X0172250Y0123279D01*
X0172164Y0123364D01*
X0172067Y0123467D01*
X0171965Y0123593D01*
X0171873Y0123736D01*
X0171788Y0123907D01*
Y0123913D01*
X0171782Y0123930D01*
X0171770Y0123953D01*
X0171759Y0123993D01*
X0171742Y0124033D01*
X0171725Y0124090D01*
X0171708Y0124147D01*
X0171690Y0124215D01*
X0171668Y0124290D01*
X0171651Y0124370D01*
X0171622Y0124547D01*
X0171599Y0124735D01*
X0171588Y0124941D01*
Y0124946D01*
Y0124969D01*
Y0124998D01*
X0171593Y0125043D01*
Y0125095D01*
X0171599Y0125152D01*
X0171605Y0125220D01*
X0171616Y0125294D01*
X0171645Y0125460D01*
X0171685Y0125637D01*
X0171742Y0125814D01*
X0171816Y0125985D01*
Y0125991D01*
X0171827Y0126003D01*
X0171839Y0126025D01*
X0171856Y0126060D01*
X0171885Y0126094D01*
X0171913Y0126140D01*
X0171982Y0126237D01*
X0172073Y0126345D01*
X0172187Y0126459D01*
X0172319Y0126568D01*
X0172467Y0126665D01*
X0172473D01*
X0172484Y0126676D01*
X0172507Y0126688D01*
X0172541Y0126699D01*
X0172581Y0126722D01*
X0172627Y0126739D01*
X0172684Y0126762D01*
X0172741Y0126785D01*
X0172810Y0126802D01*
X0172878Y0126825D01*
X0173038Y0126865D01*
X0173209Y0126888D01*
X0173398Y0126899D01*
X0173455D01*
X0173495Y0126893D01*
D02*
G37*
G36*
X0197671Y0126836D02*
X0197717Y0126830D01*
X0197774Y0126825D01*
X0197831Y0126819D01*
X0197899Y0126802D01*
X0198036Y0126768D01*
X0198185Y0126711D01*
X0198253Y0126676D01*
X0198322Y0126636D01*
X0198390Y0126591D01*
X0198453Y0126534D01*
X0198459Y0126528D01*
X0198465Y0126522D01*
X0198482Y0126505D01*
X0198505Y0126477D01*
X0198528Y0126448D01*
X0198556Y0126414D01*
X0198585Y0126368D01*
X0198619Y0126322D01*
X0198676Y0126214D01*
X0198727Y0126083D01*
X0198750Y0126014D01*
X0198767Y0125934D01*
X0198773Y0125860D01*
X0198779Y0125774D01*
Y0125763D01*
Y0125734D01*
X0198773Y0125689D01*
X0198767Y0125631D01*
X0198756Y0125557D01*
X0198739Y0125483D01*
X0198716Y0125403D01*
X0198682Y0125317D01*
X0198676Y0125306D01*
X0198664Y0125277D01*
X0198642Y0125237D01*
X0198607Y0125180D01*
X0198562Y0125106D01*
X0198510Y0125026D01*
X0198442Y0124941D01*
X0198368Y0124849D01*
X0198356Y0124838D01*
X0198328Y0124803D01*
X0198305Y0124781D01*
X0198271Y0124746D01*
X0198236Y0124712D01*
X0198196Y0124672D01*
X0198151Y0124626D01*
X0198093Y0124575D01*
X0198036Y0124524D01*
X0197968Y0124461D01*
X0197899Y0124398D01*
X0197819Y0124329D01*
X0197734Y0124255D01*
X0197643Y0124175D01*
X0197637Y0124170D01*
X0197625Y0124158D01*
X0197602Y0124141D01*
X0197574Y0124118D01*
X0197505Y0124055D01*
X0197414Y0123981D01*
X0197323Y0123901D01*
X0197237Y0123821D01*
X0197157Y0123747D01*
X0197128Y0123719D01*
X0197100Y0123690D01*
X0197094Y0123684D01*
X0197083Y0123667D01*
X0197060Y0123644D01*
X0197031Y0123610D01*
X0196997Y0123576D01*
X0196963Y0123530D01*
X0196900Y0123439D01*
X0198784D01*
Y0122988D01*
X0196244D01*
Y0122993D01*
Y0123016D01*
Y0123050D01*
X0196249Y0123090D01*
X0196255Y0123142D01*
X0196261Y0123193D01*
X0196278Y0123256D01*
X0196295Y0123313D01*
Y0123319D01*
X0196301Y0123325D01*
X0196312Y0123359D01*
X0196335Y0123410D01*
X0196369Y0123473D01*
X0196415Y0123553D01*
X0196466Y0123639D01*
X0196529Y0123730D01*
X0196603Y0123821D01*
Y0123827D01*
X0196615Y0123833D01*
X0196643Y0123867D01*
X0196695Y0123918D01*
X0196763Y0123987D01*
X0196849Y0124073D01*
X0196957Y0124175D01*
X0197083Y0124284D01*
X0197226Y0124404D01*
X0197231Y0124409D01*
X0197254Y0124427D01*
X0197283Y0124455D01*
X0197328Y0124489D01*
X0197380Y0124529D01*
X0197437Y0124581D01*
X0197563Y0124701D01*
X0197705Y0124826D01*
X0197842Y0124963D01*
X0197911Y0125032D01*
X0197968Y0125095D01*
X0198025Y0125157D01*
X0198071Y0125215D01*
Y0125220D01*
X0198082Y0125226D01*
X0198093Y0125243D01*
X0198105Y0125266D01*
X0198139Y0125323D01*
X0198185Y0125397D01*
X0198225Y0125489D01*
X0198259Y0125586D01*
X0198282Y0125683D01*
X0198293Y0125786D01*
Y0125791D01*
Y0125797D01*
X0198288Y0125831D01*
X0198282Y0125883D01*
X0198271Y0125951D01*
X0198242Y0126025D01*
X0198208Y0126105D01*
X0198156Y0126185D01*
X0198088Y0126260D01*
X0198076Y0126265D01*
X0198054Y0126288D01*
X0198008Y0126322D01*
X0197951Y0126357D01*
X0197871Y0126391D01*
X0197785Y0126425D01*
X0197682Y0126448D01*
X0197568Y0126454D01*
X0197534D01*
X0197511Y0126448D01*
X0197448Y0126442D01*
X0197374Y0126425D01*
X0197283Y0126402D01*
X0197191Y0126362D01*
X0197100Y0126311D01*
X0197020Y0126242D01*
X0197014Y0126231D01*
X0196992Y0126202D01*
X0196957Y0126157D01*
X0196923Y0126094D01*
X0196883Y0126014D01*
X0196854Y0125917D01*
X0196832Y0125803D01*
X0196820Y0125677D01*
X0196335Y0125728D01*
Y0125734D01*
Y0125751D01*
X0196341Y0125780D01*
X0196346Y0125820D01*
X0196358Y0125865D01*
X0196369Y0125917D01*
X0196398Y0126037D01*
X0196443Y0126168D01*
X0196512Y0126305D01*
X0196552Y0126374D01*
X0196598Y0126436D01*
X0196649Y0126499D01*
X0196706Y0126556D01*
X0196712Y0126562D01*
X0196723Y0126568D01*
X0196740Y0126585D01*
X0196763Y0126602D01*
X0196797Y0126625D01*
X0196837Y0126648D01*
X0196883Y0126671D01*
X0196940Y0126699D01*
X0196997Y0126728D01*
X0197060Y0126751D01*
X0197134Y0126773D01*
X0197214Y0126796D01*
X0197294Y0126813D01*
X0197386Y0126830D01*
X0197477Y0126836D01*
X0197580Y0126842D01*
X0197631D01*
X0197671Y0126836D01*
D02*
G37*
G36*
X0194445Y0126825D02*
X0194491D01*
X0194588Y0126813D01*
X0194702Y0126802D01*
X0194816Y0126779D01*
X0194936Y0126751D01*
X0195039Y0126711D01*
X0195044D01*
X0195050Y0126705D01*
X0195084Y0126688D01*
X0195130Y0126659D01*
X0195193Y0126625D01*
X0195261Y0126574D01*
X0195330Y0126511D01*
X0195393Y0126436D01*
X0195456Y0126351D01*
X0195461Y0126339D01*
X0195478Y0126311D01*
X0195507Y0126260D01*
X0195536Y0126197D01*
X0195558Y0126122D01*
X0195587Y0126037D01*
X0195604Y0125940D01*
X0195610Y0125843D01*
Y0125831D01*
Y0125803D01*
X0195604Y0125751D01*
X0195593Y0125694D01*
X0195575Y0125620D01*
X0195553Y0125546D01*
X0195518Y0125460D01*
X0195473Y0125380D01*
X0195467Y0125369D01*
X0195450Y0125346D01*
X0195416Y0125306D01*
X0195376Y0125254D01*
X0195318Y0125197D01*
X0195244Y0125140D01*
X0195164Y0125083D01*
X0195067Y0125032D01*
X0195073D01*
X0195084Y0125026D01*
X0195101Y0125020D01*
X0195124Y0125015D01*
X0195187Y0124986D01*
X0195267Y0124952D01*
X0195353Y0124900D01*
X0195438Y0124838D01*
X0195530Y0124764D01*
X0195604Y0124678D01*
X0195610Y0124666D01*
X0195633Y0124632D01*
X0195667Y0124581D01*
X0195701Y0124512D01*
X0195735Y0124427D01*
X0195770Y0124329D01*
X0195792Y0124221D01*
X0195798Y0124101D01*
Y0124095D01*
Y0124090D01*
Y0124055D01*
X0195792Y0124004D01*
X0195787Y0123935D01*
X0195770Y0123856D01*
X0195752Y0123770D01*
X0195724Y0123684D01*
X0195684Y0123593D01*
X0195678Y0123582D01*
X0195661Y0123553D01*
X0195638Y0123513D01*
X0195604Y0123462D01*
X0195564Y0123405D01*
X0195518Y0123347D01*
X0195461Y0123290D01*
X0195398Y0123239D01*
X0195393Y0123233D01*
X0195370Y0123216D01*
X0195330Y0123193D01*
X0195284Y0123170D01*
X0195221Y0123136D01*
X0195153Y0123108D01*
X0195067Y0123079D01*
X0194976Y0123050D01*
X0194965D01*
X0194930Y0123039D01*
X0194879Y0123033D01*
X0194805Y0123022D01*
X0194713Y0123011D01*
X0194610Y0122999D01*
X0194491Y0122993D01*
X0194359Y0122988D01*
X0192897D01*
Y0126830D01*
X0194411D01*
X0194445Y0126825D01*
D02*
G37*
G36*
X0187125D02*
X0187216Y0126819D01*
X0187313Y0126813D01*
X0187410Y0126802D01*
X0187490Y0126790D01*
X0187502D01*
X0187536Y0126779D01*
X0187593Y0126768D01*
X0187656Y0126751D01*
X0187730Y0126728D01*
X0187810Y0126699D01*
X0187890Y0126659D01*
X0187964Y0126613D01*
X0187975Y0126608D01*
X0187998Y0126591D01*
X0188032Y0126562D01*
X0188078Y0126516D01*
X0188124Y0126465D01*
X0188175Y0126402D01*
X0188227Y0126328D01*
X0188272Y0126242D01*
X0188278Y0126231D01*
X0188289Y0126202D01*
X0188312Y0126151D01*
X0188335Y0126088D01*
X0188352Y0126008D01*
X0188375Y0125923D01*
X0188386Y0125820D01*
X0188392Y0125717D01*
Y0125711D01*
Y0125694D01*
Y0125671D01*
X0188386Y0125637D01*
X0188381Y0125591D01*
X0188375Y0125546D01*
X0188364Y0125489D01*
X0188352Y0125432D01*
X0188318Y0125300D01*
X0188261Y0125163D01*
X0188227Y0125089D01*
X0188181Y0125020D01*
X0188135Y0124952D01*
X0188078Y0124889D01*
X0188073Y0124883D01*
X0188061Y0124872D01*
X0188044Y0124861D01*
X0188015Y0124838D01*
X0187981Y0124809D01*
X0187935Y0124781D01*
X0187884Y0124752D01*
X0187821Y0124723D01*
X0187747Y0124689D01*
X0187667Y0124661D01*
X0187576Y0124632D01*
X0187473Y0124604D01*
X0187359Y0124581D01*
X0187233Y0124569D01*
X0187102Y0124558D01*
X0186953Y0124552D01*
X0185971D01*
Y0122988D01*
X0185463D01*
Y0126830D01*
X0187039D01*
X0187125Y0126825D01*
D02*
G37*
G36*
X0176784Y0126836D02*
X0176830Y0126830D01*
X0176887Y0126825D01*
X0176944Y0126819D01*
X0177012Y0126802D01*
X0177149Y0126768D01*
X0177298Y0126711D01*
X0177366Y0126676D01*
X0177435Y0126636D01*
X0177503Y0126591D01*
X0177566Y0126534D01*
X0177572Y0126528D01*
X0177577Y0126522D01*
X0177595Y0126505D01*
X0177618Y0126477D01*
X0177640Y0126448D01*
X0177669Y0126414D01*
X0177697Y0126368D01*
X0177732Y0126322D01*
X0177789Y0126214D01*
X0177840Y0126083D01*
X0177863Y0126014D01*
X0177880Y0125934D01*
X0177886Y0125860D01*
X0177892Y0125774D01*
Y0125763D01*
Y0125734D01*
X0177886Y0125689D01*
X0177880Y0125631D01*
X0177869Y0125557D01*
X0177852Y0125483D01*
X0177829Y0125403D01*
X0177795Y0125317D01*
X0177789Y0125306D01*
X0177777Y0125277D01*
X0177754Y0125237D01*
X0177720Y0125180D01*
X0177675Y0125106D01*
X0177623Y0125026D01*
X0177555Y0124941D01*
X0177480Y0124849D01*
X0177469Y0124838D01*
X0177441Y0124803D01*
X0177418Y0124781D01*
X0177383Y0124746D01*
X0177349Y0124712D01*
X0177309Y0124672D01*
X0177263Y0124626D01*
X0177206Y0124575D01*
X0177149Y0124524D01*
X0177081Y0124461D01*
X0177012Y0124398D01*
X0176932Y0124329D01*
X0176847Y0124255D01*
X0176755Y0124175D01*
X0176750Y0124170D01*
X0176738Y0124158D01*
X0176715Y0124141D01*
X0176687Y0124118D01*
X0176618Y0124055D01*
X0176527Y0123981D01*
X0176435Y0123901D01*
X0176350Y0123821D01*
X0176270Y0123747D01*
X0176241Y0123719D01*
X0176213Y0123690D01*
X0176207Y0123684D01*
X0176196Y0123667D01*
X0176173Y0123644D01*
X0176144Y0123610D01*
X0176110Y0123576D01*
X0176076Y0123530D01*
X0176013Y0123439D01*
X0177897D01*
Y0122988D01*
X0175356D01*
Y0122993D01*
Y0123016D01*
Y0123050D01*
X0175362Y0123090D01*
X0175368Y0123142D01*
X0175373Y0123193D01*
X0175391Y0123256D01*
X0175408Y0123313D01*
Y0123319D01*
X0175413Y0123325D01*
X0175425Y0123359D01*
X0175448Y0123410D01*
X0175482Y0123473D01*
X0175528Y0123553D01*
X0175579Y0123639D01*
X0175642Y0123730D01*
X0175716Y0123821D01*
Y0123827D01*
X0175727Y0123833D01*
X0175756Y0123867D01*
X0175807Y0123918D01*
X0175876Y0123987D01*
X0175962Y0124073D01*
X0176070Y0124175D01*
X0176196Y0124284D01*
X0176338Y0124404D01*
X0176344Y0124409D01*
X0176367Y0124427D01*
X0176395Y0124455D01*
X0176441Y0124489D01*
X0176493Y0124529D01*
X0176550Y0124581D01*
X0176675Y0124701D01*
X0176818Y0124826D01*
X0176955Y0124963D01*
X0177024Y0125032D01*
X0177081Y0125095D01*
X0177138Y0125157D01*
X0177183Y0125215D01*
Y0125220D01*
X0177195Y0125226D01*
X0177206Y0125243D01*
X0177218Y0125266D01*
X0177252Y0125323D01*
X0177298Y0125397D01*
X0177338Y0125489D01*
X0177372Y0125586D01*
X0177395Y0125683D01*
X0177406Y0125786D01*
Y0125791D01*
Y0125797D01*
X0177401Y0125831D01*
X0177395Y0125883D01*
X0177383Y0125951D01*
X0177355Y0126025D01*
X0177321Y0126105D01*
X0177269Y0126185D01*
X0177201Y0126260D01*
X0177189Y0126265D01*
X0177166Y0126288D01*
X0177121Y0126322D01*
X0177064Y0126357D01*
X0176984Y0126391D01*
X0176898Y0126425D01*
X0176795Y0126448D01*
X0176681Y0126454D01*
X0176647D01*
X0176624Y0126448D01*
X0176561Y0126442D01*
X0176487Y0126425D01*
X0176395Y0126402D01*
X0176304Y0126362D01*
X0176213Y0126311D01*
X0176133Y0126242D01*
X0176127Y0126231D01*
X0176104Y0126202D01*
X0176070Y0126157D01*
X0176036Y0126094D01*
X0175996Y0126014D01*
X0175967Y0125917D01*
X0175944Y0125803D01*
X0175933Y0125677D01*
X0175448Y0125728D01*
Y0125734D01*
Y0125751D01*
X0175453Y0125780D01*
X0175459Y0125820D01*
X0175470Y0125865D01*
X0175482Y0125917D01*
X0175511Y0126037D01*
X0175556Y0126168D01*
X0175625Y0126305D01*
X0175665Y0126374D01*
X0175710Y0126436D01*
X0175762Y0126499D01*
X0175819Y0126556D01*
X0175824Y0126562D01*
X0175836Y0126568D01*
X0175853Y0126585D01*
X0175876Y0126602D01*
X0175910Y0126625D01*
X0175950Y0126648D01*
X0175996Y0126671D01*
X0176053Y0126699D01*
X0176110Y0126728D01*
X0176173Y0126751D01*
X0176247Y0126773D01*
X0176327Y0126796D01*
X0176407Y0126813D01*
X0176498Y0126830D01*
X0176590Y0126836D01*
X0176692Y0126842D01*
X0176744D01*
X0176784Y0126836D01*
D02*
G37*
G36*
X0170942Y0126379D02*
X0168670D01*
Y0125203D01*
X0170800D01*
Y0124752D01*
X0168670D01*
Y0123439D01*
X0171034D01*
Y0122988D01*
X0168162D01*
Y0126830D01*
X0170942D01*
Y0126379D01*
D02*
G37*
G36*
X0185103Y0121920D02*
X0181980D01*
Y0122263D01*
X0185103D01*
Y0121920D01*
D02*
G37*
%LPC*%
G36*
X0163238Y0137406D02*
X0162047D01*
Y0135878D01*
X0163283D01*
X0163380Y0135885D01*
X0163477Y0135892D01*
X0163582Y0135900D01*
X0163680Y0135915D01*
X0163762Y0135930D01*
X0163777Y0135937D01*
X0163807Y0135945D01*
X0163852Y0135960D01*
X0163904Y0135990D01*
X0163964Y0136020D01*
X0164032Y0136065D01*
X0164092Y0136117D01*
X0164144Y0136177D01*
X0164151Y0136185D01*
X0164166Y0136207D01*
X0164189Y0136252D01*
X0164211Y0136304D01*
X0164234Y0136364D01*
X0164256Y0136439D01*
X0164271Y0136529D01*
X0164279Y0136627D01*
Y0136642D01*
Y0136671D01*
X0164271Y0136716D01*
X0164264Y0136776D01*
X0164249Y0136844D01*
X0164226Y0136919D01*
X0164196Y0136994D01*
X0164151Y0137068D01*
X0164144Y0137076D01*
X0164129Y0137098D01*
X0164099Y0137136D01*
X0164062Y0137173D01*
X0164017Y0137218D01*
X0163957Y0137263D01*
X0163889Y0137301D01*
X0163807Y0137331D01*
X0163799D01*
X0163762Y0137346D01*
X0163709Y0137353D01*
X0163635Y0137368D01*
X0163530Y0137383D01*
X0163395Y0137390D01*
X0163238Y0137406D01*
D02*
G37*
G36*
X0163380Y0135286D02*
X0162047D01*
Y0133548D01*
X0163477D01*
X0163627Y0133556D01*
X0163695Y0133563D01*
X0163754Y0133571D01*
X0163762D01*
X0163792Y0133578D01*
X0163837Y0133586D01*
X0163889Y0133600D01*
X0164017Y0133645D01*
X0164076Y0133675D01*
X0164137Y0133705D01*
X0164144Y0133713D01*
X0164166Y0133720D01*
X0164189Y0133743D01*
X0164226Y0133780D01*
X0164271Y0133818D01*
X0164309Y0133863D01*
X0164354Y0133923D01*
X0164391Y0133983D01*
X0164399Y0133990D01*
X0164406Y0134012D01*
X0164421Y0134057D01*
X0164444Y0134110D01*
X0164466Y0134170D01*
X0164481Y0134245D01*
X0164488Y0134327D01*
X0164496Y0134417D01*
Y0134432D01*
Y0134462D01*
X0164488Y0134514D01*
X0164481Y0134582D01*
X0164459Y0134657D01*
X0164436Y0134739D01*
X0164399Y0134821D01*
X0164346Y0134904D01*
X0164339Y0134911D01*
X0164316Y0134941D01*
X0164286Y0134971D01*
X0164241Y0135016D01*
X0164181Y0135069D01*
X0164114Y0135114D01*
X0164032Y0135159D01*
X0163942Y0135196D01*
X0163927Y0135203D01*
X0163897Y0135211D01*
X0163837Y0135226D01*
X0163754Y0135241D01*
X0163650Y0135256D01*
X0163522Y0135271D01*
X0163380Y0135286D01*
D02*
G37*
G36*
X0147479Y0137406D02*
X0146041D01*
Y0135600D01*
X0147396D01*
X0147441Y0135608D01*
X0147494D01*
X0147554Y0135615D01*
X0147696Y0135630D01*
X0147846Y0135660D01*
X0147995Y0135705D01*
X0148130Y0135758D01*
X0148198Y0135795D01*
X0148250Y0135840D01*
X0148265Y0135855D01*
X0148295Y0135885D01*
X0148340Y0135937D01*
X0148392Y0136012D01*
X0148437Y0136110D01*
X0148482Y0136230D01*
X0148512Y0136364D01*
X0148527Y0136514D01*
Y0136522D01*
Y0136529D01*
Y0136567D01*
X0148520Y0136627D01*
X0148505Y0136701D01*
X0148490Y0136791D01*
X0148460Y0136881D01*
X0148415Y0136971D01*
X0148363Y0137061D01*
X0148355Y0137068D01*
X0148333Y0137098D01*
X0148303Y0137136D01*
X0148250Y0137181D01*
X0148190Y0137233D01*
X0148123Y0137286D01*
X0148033Y0137323D01*
X0147943Y0137361D01*
X0147936D01*
X0147913Y0137368D01*
X0147868Y0137375D01*
X0147801Y0137383D01*
X0147718Y0137390D01*
X0147614Y0137398D01*
X0147479Y0137406D01*
D02*
G37*
G36*
X0175327Y0137503D02*
X0175267D01*
X0175199Y0137488D01*
X0175117Y0137473D01*
X0175027Y0137443D01*
X0174922Y0137406D01*
X0174825Y0137346D01*
X0174735Y0137271D01*
X0174727Y0137263D01*
X0174697Y0137233D01*
X0174667Y0137181D01*
X0174622Y0137121D01*
X0174585Y0137038D01*
X0174548Y0136949D01*
X0174518Y0136844D01*
X0174510Y0136731D01*
Y0136724D01*
Y0136716D01*
X0174518Y0136671D01*
X0174525Y0136604D01*
X0174540Y0136522D01*
X0174563Y0136432D01*
X0174608Y0136334D01*
X0174660Y0136237D01*
X0174735Y0136147D01*
X0174742Y0136140D01*
X0174780Y0136110D01*
X0174825Y0136080D01*
X0174892Y0136035D01*
X0174982Y0135997D01*
X0175079Y0135960D01*
X0175199Y0135930D01*
X0175334Y0135922D01*
X0175349D01*
X0175394Y0135930D01*
X0175461Y0135937D01*
X0175544Y0135952D01*
X0175634Y0135975D01*
X0175731Y0136020D01*
X0175828Y0136072D01*
X0175918Y0136147D01*
X0175926Y0136155D01*
X0175956Y0136185D01*
X0175993Y0136237D01*
X0176038Y0136297D01*
X0176075Y0136379D01*
X0176113Y0136469D01*
X0176143Y0136582D01*
X0176150Y0136694D01*
Y0136701D01*
Y0136709D01*
Y0136754D01*
X0176135Y0136814D01*
X0176120Y0136896D01*
X0176091Y0136986D01*
X0176053Y0137083D01*
X0175993Y0137181D01*
X0175911Y0137271D01*
X0175903Y0137278D01*
X0175866Y0137308D01*
X0175821Y0137346D01*
X0175753Y0137390D01*
X0175664Y0137428D01*
X0175566Y0137465D01*
X0175454Y0137495D01*
X0175327Y0137503D01*
D02*
G37*
G36*
X0175312Y0135421D02*
X0175267D01*
X0175237Y0135413D01*
X0175162Y0135406D01*
X0175057Y0135383D01*
X0174944Y0135353D01*
X0174825Y0135301D01*
X0174705Y0135226D01*
X0174592Y0135128D01*
X0174577Y0135114D01*
X0174548Y0135076D01*
X0174503Y0135016D01*
X0174450Y0134934D01*
X0174398Y0134829D01*
X0174353Y0134709D01*
X0174323Y0134567D01*
X0174308Y0134409D01*
Y0134395D01*
Y0134364D01*
X0174315Y0134312D01*
X0174323Y0134245D01*
X0174338Y0134170D01*
X0174360Y0134087D01*
X0174390Y0133990D01*
X0174428Y0133900D01*
X0174435Y0133893D01*
X0174450Y0133863D01*
X0174480Y0133818D01*
X0174525Y0133758D01*
X0174577Y0133698D01*
X0174637Y0133638D01*
X0174712Y0133571D01*
X0174802Y0133518D01*
X0174817Y0133511D01*
X0174847Y0133496D01*
X0174892Y0133473D01*
X0174960Y0133451D01*
X0175042Y0133428D01*
X0175132Y0133406D01*
X0175229Y0133391D01*
X0175334Y0133383D01*
X0175379D01*
X0175409Y0133391D01*
X0175491Y0133398D01*
X0175596Y0133421D01*
X0175708Y0133451D01*
X0175836Y0133503D01*
X0175956Y0133571D01*
X0176068Y0133668D01*
X0176083Y0133683D01*
X0176113Y0133720D01*
X0176158Y0133780D01*
X0176218Y0133863D01*
X0176270Y0133968D01*
X0176315Y0134095D01*
X0176345Y0134230D01*
X0176360Y0134387D01*
Y0134395D01*
Y0134409D01*
Y0134432D01*
X0176353Y0134462D01*
X0176345Y0134544D01*
X0176323Y0134649D01*
X0176285Y0134769D01*
X0176233Y0134889D01*
X0176158Y0135016D01*
X0176060Y0135128D01*
X0176046Y0135143D01*
X0176008Y0135173D01*
X0175941Y0135218D01*
X0175858Y0135278D01*
X0175746Y0135331D01*
X0175619Y0135376D01*
X0175476Y0135406D01*
X0175312Y0135421D01*
D02*
G37*
G36*
X0157601Y0126281D02*
X0156693D01*
Y0125116D01*
X0157635D01*
X0157709Y0125122D01*
X0157784Y0125127D01*
X0157864Y0125133D01*
X0157938Y0125145D01*
X0158001Y0125156D01*
X0158012Y0125162D01*
X0158035Y0125168D01*
X0158069Y0125179D01*
X0158109Y0125202D01*
X0158155Y0125225D01*
X0158206Y0125259D01*
X0158252Y0125299D01*
X0158292Y0125345D01*
X0158298Y0125350D01*
X0158309Y0125367D01*
X0158326Y0125402D01*
X0158343Y0125442D01*
X0158360Y0125487D01*
X0158378Y0125544D01*
X0158389Y0125613D01*
X0158395Y0125687D01*
Y0125699D01*
Y0125721D01*
X0158389Y0125756D01*
X0158383Y0125801D01*
X0158372Y0125853D01*
X0158355Y0125910D01*
X0158332Y0125967D01*
X0158298Y0126024D01*
X0158292Y0126030D01*
X0158280Y0126047D01*
X0158258Y0126075D01*
X0158229Y0126104D01*
X0158195Y0126138D01*
X0158149Y0126172D01*
X0158098Y0126201D01*
X0158035Y0126224D01*
X0158029D01*
X0158001Y0126235D01*
X0157961Y0126241D01*
X0157904Y0126252D01*
X0157824Y0126264D01*
X0157721Y0126270D01*
X0157601Y0126281D01*
D02*
G37*
G36*
X0157709Y0124665D02*
X0156693D01*
Y0123340D01*
X0157784D01*
X0157898Y0123346D01*
X0157949Y0123352D01*
X0157995Y0123357D01*
X0158001D01*
X0158024Y0123363D01*
X0158058Y0123369D01*
X0158098Y0123380D01*
X0158195Y0123415D01*
X0158240Y0123437D01*
X0158286Y0123460D01*
X0158292Y0123466D01*
X0158309Y0123472D01*
X0158326Y0123489D01*
X0158355Y0123517D01*
X0158389Y0123546D01*
X0158417Y0123580D01*
X0158452Y0123626D01*
X0158480Y0123671D01*
X0158486Y0123677D01*
X0158492Y0123694D01*
X0158503Y0123729D01*
X0158520Y0123769D01*
X0158537Y0123814D01*
X0158549Y0123871D01*
X0158554Y0123934D01*
X0158560Y0124003D01*
Y0124014D01*
Y0124037D01*
X0158554Y0124077D01*
X0158549Y0124128D01*
X0158532Y0124185D01*
X0158514Y0124248D01*
X0158486Y0124311D01*
X0158446Y0124374D01*
X0158440Y0124380D01*
X0158423Y0124402D01*
X0158400Y0124425D01*
X0158366Y0124460D01*
X0158320Y0124499D01*
X0158269Y0124534D01*
X0158206Y0124568D01*
X0158138Y0124597D01*
X0158126Y0124602D01*
X0158103Y0124608D01*
X0158058Y0124619D01*
X0157995Y0124631D01*
X0157915Y0124642D01*
X0157818Y0124654D01*
X0157709Y0124665D01*
D02*
G37*
G36*
X0150355Y0126281D02*
X0149259D01*
Y0124905D01*
X0150292D01*
X0150326Y0124911D01*
X0150366D01*
X0150412Y0124916D01*
X0150521Y0124928D01*
X0150635Y0124951D01*
X0150749Y0124985D01*
X0150852Y0125025D01*
X0150903Y0125053D01*
X0150943Y0125088D01*
X0150954Y0125099D01*
X0150977Y0125122D01*
X0151012Y0125162D01*
X0151051Y0125219D01*
X0151086Y0125293D01*
X0151120Y0125384D01*
X0151143Y0125487D01*
X0151154Y0125601D01*
Y0125607D01*
Y0125613D01*
Y0125642D01*
X0151149Y0125687D01*
X0151137Y0125744D01*
X0151126Y0125813D01*
X0151103Y0125881D01*
X0151069Y0125950D01*
X0151029Y0126018D01*
X0151023Y0126024D01*
X0151006Y0126047D01*
X0150983Y0126075D01*
X0150943Y0126110D01*
X0150897Y0126150D01*
X0150846Y0126190D01*
X0150777Y0126218D01*
X0150709Y0126247D01*
X0150703D01*
X0150686Y0126252D01*
X0150652Y0126258D01*
X0150601Y0126264D01*
X0150538Y0126270D01*
X0150458Y0126275D01*
X0150355Y0126281D01*
D02*
G37*
G36*
X0175565Y0215060D02*
X0174657D01*
Y0213896D01*
X0175599D01*
X0175673Y0213901D01*
X0175748Y0213907D01*
X0175828Y0213913D01*
X0175902Y0213924D01*
X0175964Y0213936D01*
X0175976Y0213941D01*
X0175999Y0213947D01*
X0176033Y0213959D01*
X0176073Y0213981D01*
X0176119Y0214004D01*
X0176170Y0214038D01*
X0176216Y0214078D01*
X0176256Y0214124D01*
X0176261Y0214130D01*
X0176273Y0214147D01*
X0176290Y0214181D01*
X0176307Y0214221D01*
X0176324Y0214267D01*
X0176341Y0214324D01*
X0176353Y0214392D01*
X0176358Y0214467D01*
Y0214478D01*
Y0214501D01*
X0176353Y0214535D01*
X0176347Y0214581D01*
X0176336Y0214632D01*
X0176319Y0214689D01*
X0176296Y0214746D01*
X0176261Y0214804D01*
X0176256Y0214809D01*
X0176244Y0214826D01*
X0176222Y0214855D01*
X0176193Y0214883D01*
X0176159Y0214918D01*
X0176113Y0214952D01*
X0176062Y0214981D01*
X0175999Y0215003D01*
X0175993D01*
X0175964Y0215015D01*
X0175925Y0215020D01*
X0175867Y0215032D01*
X0175787Y0215043D01*
X0175685Y0215049D01*
X0175565Y0215060D01*
D02*
G37*
G36*
X0175673Y0213445D02*
X0174657D01*
Y0212120D01*
X0175748D01*
X0175862Y0212126D01*
X0175913Y0212131D01*
X0175959Y0212137D01*
X0175964D01*
X0175987Y0212143D01*
X0176022Y0212148D01*
X0176062Y0212160D01*
X0176159Y0212194D01*
X0176204Y0212217D01*
X0176250Y0212240D01*
X0176256Y0212245D01*
X0176273Y0212251D01*
X0176290Y0212268D01*
X0176319Y0212297D01*
X0176353Y0212325D01*
X0176381Y0212360D01*
X0176416Y0212405D01*
X0176444Y0212451D01*
X0176450Y0212457D01*
X0176456Y0212474D01*
X0176467Y0212508D01*
X0176484Y0212548D01*
X0176501Y0212594D01*
X0176513Y0212651D01*
X0176518Y0212714D01*
X0176524Y0212782D01*
Y0212794D01*
Y0212817D01*
X0176518Y0212856D01*
X0176513Y0212908D01*
X0176496Y0212965D01*
X0176478Y0213028D01*
X0176450Y0213090D01*
X0176410Y0213153D01*
X0176404Y0213159D01*
X0176387Y0213182D01*
X0176364Y0213205D01*
X0176330Y0213239D01*
X0176284Y0213279D01*
X0176233Y0213313D01*
X0176170Y0213348D01*
X0176102Y0213376D01*
X0176090Y0213382D01*
X0176067Y0213387D01*
X0176022Y0213399D01*
X0175959Y0213410D01*
X0175879Y0213422D01*
X0175782Y0213433D01*
X0175673Y0213445D01*
D02*
G37*
G36*
X0168319Y0215060D02*
X0167222D01*
Y0213684D01*
X0168256D01*
X0168290Y0213690D01*
X0168330D01*
X0168376Y0213696D01*
X0168484Y0213707D01*
X0168599Y0213730D01*
X0168713Y0213764D01*
X0168816Y0213804D01*
X0168867Y0213833D01*
X0168907Y0213867D01*
X0168918Y0213878D01*
X0168941Y0213901D01*
X0168975Y0213941D01*
X0169016Y0213998D01*
X0169050Y0214073D01*
X0169084Y0214164D01*
X0169107Y0214267D01*
X0169118Y0214381D01*
Y0214387D01*
Y0214392D01*
Y0214421D01*
X0169113Y0214467D01*
X0169101Y0214524D01*
X0169090Y0214592D01*
X0169067Y0214661D01*
X0169033Y0214729D01*
X0168993Y0214798D01*
X0168987Y0214804D01*
X0168970Y0214826D01*
X0168947Y0214855D01*
X0168907Y0214889D01*
X0168861Y0214929D01*
X0168810Y0214969D01*
X0168741Y0214998D01*
X0168673Y0215026D01*
X0168667D01*
X0168650Y0215032D01*
X0168616Y0215038D01*
X0168564Y0215043D01*
X0168502Y0215049D01*
X0168422Y0215055D01*
X0168319Y0215060D01*
D02*
G37*
G36*
X0153227Y0215089D02*
X0152011D01*
Y0213816D01*
X0153159D01*
X0153222Y0213821D01*
X0153302Y0213827D01*
X0153387Y0213833D01*
X0153479Y0213844D01*
X0153564Y0213861D01*
X0153644Y0213884D01*
X0153656Y0213890D01*
X0153678Y0213896D01*
X0153713Y0213918D01*
X0153758Y0213941D01*
X0153804Y0213976D01*
X0153855Y0214010D01*
X0153907Y0214061D01*
X0153947Y0214113D01*
X0153953Y0214118D01*
X0153964Y0214141D01*
X0153981Y0214176D01*
X0153998Y0214215D01*
X0154015Y0214267D01*
X0154032Y0214330D01*
X0154044Y0214392D01*
X0154050Y0214461D01*
Y0214467D01*
Y0214472D01*
X0154044Y0214507D01*
X0154038Y0214558D01*
X0154027Y0214621D01*
X0153998Y0214689D01*
X0153964Y0214769D01*
X0153918Y0214844D01*
X0153850Y0214912D01*
X0153838Y0214918D01*
X0153810Y0214941D01*
X0153764Y0214969D01*
X0153695Y0215003D01*
X0153610Y0215032D01*
X0153501Y0215060D01*
X0153376Y0215083D01*
X0153227Y0215089D01*
D02*
G37*
G36*
X0149522Y0215060D02*
X0148425D01*
Y0213684D01*
X0149459D01*
X0149493Y0213690D01*
X0149533D01*
X0149579Y0213696D01*
X0149687Y0213707D01*
X0149801Y0213730D01*
X0149916Y0213764D01*
X0150018Y0213804D01*
X0150070Y0213833D01*
X0150110Y0213867D01*
X0150121Y0213878D01*
X0150144Y0213901D01*
X0150178Y0213941D01*
X0150218Y0213998D01*
X0150252Y0214073D01*
X0150287Y0214164D01*
X0150310Y0214267D01*
X0150321Y0214381D01*
Y0214387D01*
Y0214392D01*
Y0214421D01*
X0150315Y0214467D01*
X0150304Y0214524D01*
X0150292Y0214592D01*
X0150269Y0214661D01*
X0150235Y0214729D01*
X0150195Y0214798D01*
X0150190Y0214804D01*
X0150172Y0214826D01*
X0150150Y0214855D01*
X0150110Y0214889D01*
X0150064Y0214929D01*
X0150013Y0214969D01*
X0149944Y0214998D01*
X0149875Y0215026D01*
X0149870D01*
X0149853Y0215032D01*
X0149818Y0215038D01*
X0149767Y0215043D01*
X0149704Y0215049D01*
X0149624Y0215055D01*
X0149522Y0215060D01*
D02*
G37*
G36*
X0194314Y0126379D02*
X0193406D01*
Y0125215D01*
X0194348D01*
X0194422Y0125220D01*
X0194496Y0125226D01*
X0194576Y0125232D01*
X0194650Y0125243D01*
X0194713Y0125254D01*
X0194725Y0125260D01*
X0194747Y0125266D01*
X0194782Y0125277D01*
X0194822Y0125300D01*
X0194867Y0125323D01*
X0194919Y0125357D01*
X0194965Y0125397D01*
X0195004Y0125443D01*
X0195010Y0125449D01*
X0195022Y0125466D01*
X0195039Y0125500D01*
X0195056Y0125540D01*
X0195073Y0125586D01*
X0195090Y0125643D01*
X0195101Y0125711D01*
X0195107Y0125786D01*
Y0125797D01*
Y0125820D01*
X0195101Y0125854D01*
X0195096Y0125900D01*
X0195084Y0125951D01*
X0195067Y0126008D01*
X0195044Y0126065D01*
X0195010Y0126122D01*
X0195004Y0126128D01*
X0194993Y0126145D01*
X0194970Y0126174D01*
X0194942Y0126202D01*
X0194907Y0126237D01*
X0194862Y0126271D01*
X0194810Y0126300D01*
X0194747Y0126322D01*
X0194742D01*
X0194713Y0126334D01*
X0194673Y0126339D01*
X0194616Y0126351D01*
X0194536Y0126362D01*
X0194433Y0126368D01*
X0194314Y0126379D01*
D02*
G37*
G36*
X0194422Y0124764D02*
X0193406D01*
Y0123439D01*
X0194496D01*
X0194610Y0123444D01*
X0194662Y0123450D01*
X0194708Y0123456D01*
X0194713D01*
X0194736Y0123462D01*
X0194770Y0123467D01*
X0194810Y0123479D01*
X0194907Y0123513D01*
X0194953Y0123536D01*
X0194999Y0123559D01*
X0195004Y0123564D01*
X0195022Y0123570D01*
X0195039Y0123587D01*
X0195067Y0123616D01*
X0195101Y0123644D01*
X0195130Y0123679D01*
X0195164Y0123724D01*
X0195193Y0123770D01*
X0195199Y0123776D01*
X0195204Y0123793D01*
X0195216Y0123827D01*
X0195233Y0123867D01*
X0195250Y0123913D01*
X0195261Y0123970D01*
X0195267Y0124033D01*
X0195273Y0124101D01*
Y0124112D01*
Y0124135D01*
X0195267Y0124175D01*
X0195261Y0124227D01*
X0195244Y0124284D01*
X0195227Y0124347D01*
X0195199Y0124409D01*
X0195159Y0124472D01*
X0195153Y0124478D01*
X0195136Y0124501D01*
X0195113Y0124524D01*
X0195079Y0124558D01*
X0195033Y0124598D01*
X0194982Y0124632D01*
X0194919Y0124666D01*
X0194850Y0124695D01*
X0194839Y0124701D01*
X0194816Y0124706D01*
X0194770Y0124718D01*
X0194708Y0124729D01*
X0194628Y0124741D01*
X0194530Y0124752D01*
X0194422Y0124764D01*
D02*
G37*
G36*
X0187067Y0126379D02*
X0185971D01*
Y0125003D01*
X0187005D01*
X0187039Y0125009D01*
X0187079D01*
X0187125Y0125015D01*
X0187233Y0125026D01*
X0187347Y0125049D01*
X0187461Y0125083D01*
X0187564Y0125123D01*
X0187616Y0125152D01*
X0187656Y0125186D01*
X0187667Y0125197D01*
X0187690Y0125220D01*
X0187724Y0125260D01*
X0187764Y0125317D01*
X0187798Y0125392D01*
X0187833Y0125483D01*
X0187856Y0125586D01*
X0187867Y0125700D01*
Y0125706D01*
Y0125711D01*
Y0125740D01*
X0187861Y0125786D01*
X0187850Y0125843D01*
X0187838Y0125911D01*
X0187815Y0125980D01*
X0187781Y0126048D01*
X0187741Y0126117D01*
X0187736Y0126122D01*
X0187718Y0126145D01*
X0187696Y0126174D01*
X0187656Y0126208D01*
X0187610Y0126248D01*
X0187559Y0126288D01*
X0187490Y0126317D01*
X0187422Y0126345D01*
X0187416D01*
X0187399Y0126351D01*
X0187364Y0126357D01*
X0187313Y0126362D01*
X0187250Y0126368D01*
X0187170Y0126374D01*
X0187067Y0126379D01*
D02*
G37*
%LPD*%
D10*
X0146595Y0107992D02*
G03*
X0146595Y0107992I-0000492J0000000D01*
G01*
D11*
X0136594Y0109862D02*
X0137421D01*
X0149784D02*
X0150610D01*
Y0120846D01*
X0136594D02*
X0137421D01*
X0149784D02*
X0150610D01*
X0136594Y0109862D02*
Y0120846D01*
X0151535Y0216929D02*
Y0224016D01*
Y0216929D02*
X0173622D01*
Y0224016D01*
X0151535D02*
X0173622D01*
X0178740Y0116437D02*
X0190827D01*
Y0109350D02*
Y0116437D01*
X0178740Y0109350D02*
X0190827D01*
X0178740D02*
Y0116437D01*
M02*
