G04*
G04 #@! TF.GenerationSoftware,Altium Limited,Altium Designer,21.7.2 (23)*
G04*
G04 Layer_Physical_Order=1*
G04 Layer_Color=255*
%FSAX25Y25*%
%MOIN*%
G70*
G04*
G04 #@! TF.SameCoordinates,7A990169-6DC8-41C8-B485-EB3673424C17*
G04*
G04*
G04 #@! TF.FilePolarity,Positive*
G04*
G01*
G75*
%ADD14C,0.03937*%
%ADD15R,0.03937X0.03937*%
%ADD18C,0.05315*%
%ADD19R,0.05315X0.05315*%
%ADD20R,0.03937X0.03937*%
%ADD21C,0.02362*%
G36*
X0184941Y0202953D02*
X0184941Y0202953D01*
X0184941D01*
X0185402Y0202928D01*
X0185946Y0202820D01*
X0186573Y0202561D01*
X0187137Y0202184D01*
X0187617Y0201704D01*
X0187994Y0201140D01*
X0188253Y0200513D01*
X0188386Y0199847D01*
X0188386Y0199508D01*
X0188386Y0128740D01*
X0188386Y0128740D01*
X0188386Y0127887D01*
X0188053Y0126214D01*
X0187400Y0124637D01*
X0186452Y0123219D01*
X0185246Y0122012D01*
X0183827Y0121064D01*
X0182251Y0120412D01*
X0180578Y0120079D01*
X0179724Y0120079D01*
X0161909D01*
X0161909Y0120079D01*
X0161525Y0120041D01*
X0160816Y0119747D01*
X0160273Y0119204D01*
X0159979Y0118494D01*
X0159941Y0118110D01*
Y0112266D01*
X0159686Y0111651D01*
X0159215Y0111180D01*
X0158600Y0110925D01*
X0150750D01*
X0149954Y0111255D01*
X0149345Y0111864D01*
X0149016Y0112660D01*
Y0113091D01*
Y0128347D01*
X0149016Y0128640D01*
X0149241Y0129183D01*
X0149656Y0129598D01*
X0150198Y0129823D01*
X0150492Y0129823D01*
X0167520Y0129823D01*
X0167925Y0129843D01*
X0168005Y0129859D01*
X0168720Y0130001D01*
X0169468Y0130311D01*
X0170142Y0130761D01*
X0170715Y0131334D01*
X0171165Y0132008D01*
X0171476Y0132757D01*
X0171634Y0133552D01*
X0171653Y0133957D01*
Y0146229D01*
X0171808Y0146460D01*
X0171886Y0146850D01*
Y0187500D01*
X0171808Y0187890D01*
X0171587Y0188221D01*
X0171256Y0188442D01*
X0170866Y0188520D01*
X0154331D01*
X0153940Y0188442D01*
X0153610Y0188221D01*
X0153389Y0187890D01*
X0153311Y0187500D01*
Y0146850D01*
X0153389Y0146460D01*
X0153610Y0146129D01*
X0153940Y0145908D01*
X0154331Y0145831D01*
X0158608D01*
X0159045Y0145650D01*
X0159626Y0145069D01*
X0159941Y0144309D01*
Y0134563D01*
X0159793Y0133821D01*
X0159504Y0133123D01*
X0159084Y0132494D01*
X0158549Y0131959D01*
X0157921Y0131539D01*
X0157222Y0131250D01*
X0156480Y0131102D01*
X0139370D01*
X0139089Y0131102D01*
X0138538Y0131212D01*
X0138018Y0131427D01*
X0137550Y0131740D01*
X0137153Y0132137D01*
X0136841Y0132605D01*
X0136625Y0133124D01*
X0136516Y0133676D01*
X0136516Y0133957D01*
Y0199016D01*
Y0199404D01*
X0136667Y0200164D01*
X0136964Y0200881D01*
X0137395Y0201525D01*
X0137943Y0202074D01*
X0138588Y0202505D01*
X0139304Y0202801D01*
X0140065Y0202953D01*
X0184941D01*
X0184941Y0202953D01*
D02*
G37*
D14*
X0146102Y0117854D02*
D03*
X0141102D02*
D03*
Y0112854D02*
D03*
X0155079Y0220472D02*
D03*
X0160079D02*
D03*
X0165079D02*
D03*
X0182283Y0112894D02*
D03*
D15*
X0146102Y0112854D02*
D03*
D18*
X0132087Y0105413D02*
D03*
X0139961D02*
D03*
X0147835D02*
D03*
X0172835D02*
D03*
X0180709D02*
D03*
X0188583D02*
D03*
X0166535Y0229528D02*
D03*
X0158661D02*
D03*
X0150787D02*
D03*
D19*
X0155709Y0105413D02*
D03*
X0196457D02*
D03*
X0174409Y0229528D02*
D03*
D20*
X0170079Y0220472D02*
D03*
X0187284Y0112894D02*
D03*
D21*
X0154528Y0114665D02*
D03*
X0167126Y0140847D02*
D03*
Y0143996D02*
D03*
X0158169Y0140847D02*
D03*
Y0143996D02*
D03*
X0154528Y0117815D02*
D03*
M02*
