G04*
G04 #@! TF.GenerationSoftware,Altium Limited,Altium Designer,21.7.2 (23)*
G04*
G04 Layer_Color=32896*
%FSAX25Y25*%
%MOIN*%
G70*
G04*
G04 #@! TF.SameCoordinates,7A990169-6DC8-41C8-B485-EB3673424C17*
G04*
G04*
G04 #@! TF.FilePolarity,Positive*
G04*
G01*
G75*
%ADD11C,0.00787*%
G36*
X0187220Y0122309D02*
X0187311Y0122303D01*
X0187402Y0122286D01*
X0187483Y0122269D01*
X0187562Y0122246D01*
X0187637Y0122223D01*
X0187699Y0122200D01*
X0187757Y0122172D01*
X0187814Y0122143D01*
X0187859Y0122120D01*
X0187899Y0122097D01*
X0187934Y0122074D01*
X0187956Y0122057D01*
X0187973Y0122040D01*
X0187985Y0122035D01*
X0187991Y0122029D01*
X0188048Y0121972D01*
X0188099Y0121909D01*
X0188145Y0121846D01*
X0188185Y0121778D01*
X0188253Y0121641D01*
X0188299Y0121509D01*
X0188328Y0121389D01*
X0188339Y0121338D01*
X0188350Y0121292D01*
X0188356Y0121252D01*
X0188362Y0121224D01*
Y0121207D01*
Y0121201D01*
X0187876Y0121150D01*
X0187865Y0121275D01*
X0187842Y0121389D01*
X0187814Y0121486D01*
X0187774Y0121566D01*
X0187739Y0121629D01*
X0187705Y0121675D01*
X0187682Y0121703D01*
X0187677Y0121715D01*
X0187597Y0121783D01*
X0187505Y0121835D01*
X0187414Y0121875D01*
X0187323Y0121897D01*
X0187248Y0121915D01*
X0187186Y0121920D01*
X0187163Y0121926D01*
X0187128D01*
X0187014Y0121920D01*
X0186911Y0121897D01*
X0186826Y0121863D01*
X0186746Y0121829D01*
X0186689Y0121795D01*
X0186643Y0121760D01*
X0186620Y0121738D01*
X0186609Y0121732D01*
X0186540Y0121658D01*
X0186489Y0121578D01*
X0186455Y0121498D01*
X0186426Y0121424D01*
X0186415Y0121355D01*
X0186409Y0121304D01*
X0186403Y0121269D01*
Y0121264D01*
Y0121258D01*
X0186415Y0121155D01*
X0186437Y0121058D01*
X0186472Y0120961D01*
X0186512Y0120870D01*
X0186557Y0120796D01*
X0186592Y0120738D01*
X0186603Y0120716D01*
X0186615Y0120698D01*
X0186626Y0120693D01*
Y0120687D01*
X0186672Y0120630D01*
X0186729Y0120567D01*
X0186786Y0120504D01*
X0186854Y0120436D01*
X0186991Y0120299D01*
X0187134Y0120173D01*
X0187260Y0120053D01*
X0187317Y0120002D01*
X0187368Y0119962D01*
X0187414Y0119928D01*
X0187443Y0119899D01*
X0187465Y0119882D01*
X0187471Y0119876D01*
X0187614Y0119756D01*
X0187739Y0119648D01*
X0187848Y0119545D01*
X0187934Y0119459D01*
X0188002Y0119391D01*
X0188054Y0119339D01*
X0188082Y0119305D01*
X0188093Y0119299D01*
Y0119294D01*
X0188168Y0119202D01*
X0188231Y0119111D01*
X0188282Y0119025D01*
X0188328Y0118946D01*
X0188362Y0118883D01*
X0188385Y0118831D01*
X0188396Y0118797D01*
X0188402Y0118791D01*
Y0118786D01*
X0188419Y0118728D01*
X0188436Y0118666D01*
X0188442Y0118614D01*
X0188447Y0118563D01*
X0188453Y0118523D01*
Y0118489D01*
Y0118466D01*
Y0118460D01*
X0185912D01*
Y0118911D01*
X0187796D01*
X0187734Y0119002D01*
X0187699Y0119048D01*
X0187665Y0119082D01*
X0187637Y0119117D01*
X0187614Y0119140D01*
X0187602Y0119157D01*
X0187597Y0119162D01*
X0187568Y0119191D01*
X0187540Y0119220D01*
X0187460Y0119294D01*
X0187374Y0119374D01*
X0187283Y0119454D01*
X0187191Y0119528D01*
X0187123Y0119591D01*
X0187094Y0119614D01*
X0187071Y0119631D01*
X0187060Y0119642D01*
X0187054Y0119648D01*
X0186963Y0119728D01*
X0186877Y0119802D01*
X0186797Y0119870D01*
X0186729Y0119933D01*
X0186660Y0119996D01*
X0186603Y0120047D01*
X0186546Y0120099D01*
X0186500Y0120145D01*
X0186460Y0120185D01*
X0186426Y0120219D01*
X0186392Y0120253D01*
X0186369Y0120276D01*
X0186340Y0120310D01*
X0186329Y0120322D01*
X0186255Y0120413D01*
X0186186Y0120499D01*
X0186135Y0120579D01*
X0186089Y0120653D01*
X0186055Y0120710D01*
X0186032Y0120750D01*
X0186021Y0120778D01*
X0186015Y0120790D01*
X0185981Y0120875D01*
X0185958Y0120955D01*
X0185941Y0121030D01*
X0185929Y0121104D01*
X0185924Y0121161D01*
X0185918Y0121207D01*
Y0121235D01*
Y0121247D01*
X0185924Y0121332D01*
X0185929Y0121406D01*
X0185947Y0121486D01*
X0185969Y0121555D01*
X0186021Y0121686D01*
X0186078Y0121795D01*
X0186112Y0121840D01*
X0186141Y0121886D01*
X0186169Y0121920D01*
X0186192Y0121949D01*
X0186215Y0121977D01*
X0186232Y0121995D01*
X0186238Y0122000D01*
X0186243Y0122006D01*
X0186306Y0122063D01*
X0186375Y0122109D01*
X0186443Y0122149D01*
X0186512Y0122183D01*
X0186660Y0122240D01*
X0186797Y0122274D01*
X0186866Y0122292D01*
X0186923Y0122297D01*
X0186980Y0122303D01*
X0187026Y0122309D01*
X0187066Y0122314D01*
X0187117D01*
X0187220Y0122309D01*
D02*
G37*
G36*
X0170210D02*
X0170301Y0122303D01*
X0170392Y0122286D01*
X0170472Y0122269D01*
X0170552Y0122246D01*
X0170626Y0122223D01*
X0170689Y0122200D01*
X0170747Y0122172D01*
X0170804Y0122143D01*
X0170849Y0122120D01*
X0170889Y0122097D01*
X0170923Y0122074D01*
X0170946Y0122057D01*
X0170963Y0122040D01*
X0170975Y0122035D01*
X0170981Y0122029D01*
X0171038Y0121972D01*
X0171089Y0121909D01*
X0171135Y0121846D01*
X0171175Y0121778D01*
X0171243Y0121641D01*
X0171289Y0121509D01*
X0171318Y0121389D01*
X0171329Y0121338D01*
X0171340Y0121292D01*
X0171346Y0121252D01*
X0171352Y0121224D01*
Y0121207D01*
Y0121201D01*
X0170866Y0121150D01*
X0170855Y0121275D01*
X0170832Y0121389D01*
X0170804Y0121486D01*
X0170764Y0121566D01*
X0170729Y0121629D01*
X0170695Y0121675D01*
X0170672Y0121703D01*
X0170667Y0121715D01*
X0170587Y0121783D01*
X0170495Y0121835D01*
X0170404Y0121875D01*
X0170312Y0121897D01*
X0170238Y0121915D01*
X0170176Y0121920D01*
X0170153Y0121926D01*
X0170118D01*
X0170004Y0121920D01*
X0169901Y0121897D01*
X0169816Y0121863D01*
X0169736Y0121829D01*
X0169679Y0121795D01*
X0169633Y0121760D01*
X0169610Y0121738D01*
X0169599Y0121732D01*
X0169530Y0121658D01*
X0169479Y0121578D01*
X0169445Y0121498D01*
X0169416Y0121424D01*
X0169405Y0121355D01*
X0169399Y0121304D01*
X0169393Y0121269D01*
Y0121264D01*
Y0121258D01*
X0169405Y0121155D01*
X0169427Y0121058D01*
X0169462Y0120961D01*
X0169502Y0120870D01*
X0169547Y0120796D01*
X0169582Y0120738D01*
X0169593Y0120716D01*
X0169605Y0120698D01*
X0169616Y0120693D01*
Y0120687D01*
X0169662Y0120630D01*
X0169719Y0120567D01*
X0169776Y0120504D01*
X0169844Y0120436D01*
X0169981Y0120299D01*
X0170124Y0120173D01*
X0170250Y0120053D01*
X0170307Y0120002D01*
X0170358Y0119962D01*
X0170404Y0119928D01*
X0170432Y0119899D01*
X0170455Y0119882D01*
X0170461Y0119876D01*
X0170604Y0119756D01*
X0170729Y0119648D01*
X0170838Y0119545D01*
X0170923Y0119459D01*
X0170992Y0119391D01*
X0171043Y0119339D01*
X0171072Y0119305D01*
X0171083Y0119299D01*
Y0119294D01*
X0171158Y0119202D01*
X0171220Y0119111D01*
X0171272Y0119025D01*
X0171318Y0118946D01*
X0171352Y0118883D01*
X0171375Y0118831D01*
X0171386Y0118797D01*
X0171392Y0118791D01*
Y0118786D01*
X0171409Y0118728D01*
X0171426Y0118666D01*
X0171432Y0118614D01*
X0171437Y0118563D01*
X0171443Y0118523D01*
Y0118489D01*
Y0118466D01*
Y0118460D01*
X0168902D01*
Y0118911D01*
X0170786D01*
X0170724Y0119002D01*
X0170689Y0119048D01*
X0170655Y0119082D01*
X0170626Y0119117D01*
X0170604Y0119140D01*
X0170592Y0119157D01*
X0170587Y0119162D01*
X0170558Y0119191D01*
X0170529Y0119220D01*
X0170449Y0119294D01*
X0170364Y0119374D01*
X0170273Y0119454D01*
X0170181Y0119528D01*
X0170113Y0119591D01*
X0170084Y0119614D01*
X0170061Y0119631D01*
X0170050Y0119642D01*
X0170044Y0119648D01*
X0169953Y0119728D01*
X0169867Y0119802D01*
X0169787Y0119870D01*
X0169719Y0119933D01*
X0169650Y0119996D01*
X0169593Y0120047D01*
X0169536Y0120099D01*
X0169490Y0120145D01*
X0169450Y0120185D01*
X0169416Y0120219D01*
X0169382Y0120253D01*
X0169359Y0120276D01*
X0169330Y0120310D01*
X0169319Y0120322D01*
X0169245Y0120413D01*
X0169176Y0120499D01*
X0169125Y0120579D01*
X0169079Y0120653D01*
X0169045Y0120710D01*
X0169022Y0120750D01*
X0169011Y0120778D01*
X0169005Y0120790D01*
X0168971Y0120875D01*
X0168948Y0120955D01*
X0168931Y0121030D01*
X0168919Y0121104D01*
X0168914Y0121161D01*
X0168908Y0121207D01*
Y0121235D01*
Y0121247D01*
X0168914Y0121332D01*
X0168919Y0121406D01*
X0168936Y0121486D01*
X0168959Y0121555D01*
X0169011Y0121686D01*
X0169068Y0121795D01*
X0169102Y0121840D01*
X0169131Y0121886D01*
X0169159Y0121920D01*
X0169182Y0121949D01*
X0169205Y0121977D01*
X0169222Y0121995D01*
X0169228Y0122000D01*
X0169233Y0122006D01*
X0169296Y0122063D01*
X0169365Y0122109D01*
X0169433Y0122149D01*
X0169502Y0122183D01*
X0169650Y0122240D01*
X0169787Y0122274D01*
X0169856Y0122292D01*
X0169913Y0122297D01*
X0169970Y0122303D01*
X0170016Y0122309D01*
X0170055Y0122314D01*
X0170107D01*
X0170210Y0122309D01*
D02*
G37*
G36*
X0190600Y0122360D02*
X0190771Y0122337D01*
X0190931Y0122297D01*
X0191000Y0122274D01*
X0191068Y0122257D01*
X0191126Y0122234D01*
X0191182Y0122212D01*
X0191228Y0122194D01*
X0191268Y0122172D01*
X0191303Y0122160D01*
X0191325Y0122149D01*
X0191337Y0122137D01*
X0191342D01*
X0191491Y0122040D01*
X0191622Y0121932D01*
X0191736Y0121818D01*
X0191828Y0121709D01*
X0191896Y0121612D01*
X0191925Y0121566D01*
X0191953Y0121532D01*
X0191971Y0121498D01*
X0191982Y0121475D01*
X0191993Y0121464D01*
Y0121458D01*
X0192068Y0121287D01*
X0192125Y0121109D01*
X0192165Y0120932D01*
X0192193Y0120767D01*
X0192205Y0120693D01*
X0192210Y0120624D01*
X0192216Y0120567D01*
Y0120516D01*
X0192222Y0120470D01*
Y0120441D01*
Y0120419D01*
Y0120413D01*
X0192210Y0120207D01*
X0192188Y0120019D01*
X0192159Y0119842D01*
X0192142Y0119762D01*
X0192119Y0119688D01*
X0192102Y0119619D01*
X0192085Y0119562D01*
X0192068Y0119505D01*
X0192051Y0119465D01*
X0192039Y0119425D01*
X0192028Y0119402D01*
X0192022Y0119385D01*
Y0119379D01*
X0191936Y0119208D01*
X0191845Y0119065D01*
X0191742Y0118940D01*
X0191645Y0118837D01*
X0191559Y0118751D01*
X0191525Y0118723D01*
X0191491Y0118694D01*
X0191462Y0118677D01*
X0191445Y0118660D01*
X0191434Y0118654D01*
X0191428Y0118649D01*
X0191354Y0118603D01*
X0191274Y0118569D01*
X0191108Y0118506D01*
X0190937Y0118460D01*
X0190777Y0118431D01*
X0190703Y0118420D01*
X0190634Y0118409D01*
X0190572Y0118403D01*
X0190520D01*
X0190474Y0118397D01*
X0190417D01*
X0190309Y0118403D01*
X0190200Y0118409D01*
X0190103Y0118426D01*
X0190006Y0118449D01*
X0189915Y0118472D01*
X0189835Y0118500D01*
X0189755Y0118529D01*
X0189687Y0118563D01*
X0189618Y0118591D01*
X0189567Y0118620D01*
X0189515Y0118649D01*
X0189475Y0118671D01*
X0189441Y0118694D01*
X0189418Y0118711D01*
X0189407Y0118717D01*
X0189401Y0118723D01*
X0189327Y0118786D01*
X0189258Y0118860D01*
X0189196Y0118934D01*
X0189133Y0119014D01*
X0189036Y0119168D01*
X0188956Y0119322D01*
X0188921Y0119396D01*
X0188899Y0119459D01*
X0188876Y0119522D01*
X0188853Y0119574D01*
X0188841Y0119619D01*
X0188830Y0119648D01*
X0188824Y0119671D01*
Y0119676D01*
X0189332Y0119808D01*
X0189378Y0119636D01*
X0189441Y0119488D01*
X0189509Y0119362D01*
X0189578Y0119260D01*
X0189641Y0119180D01*
X0189664Y0119151D01*
X0189692Y0119123D01*
X0189709Y0119105D01*
X0189726Y0119088D01*
X0189732Y0119082D01*
X0189738Y0119077D01*
X0189795Y0119031D01*
X0189852Y0118997D01*
X0189978Y0118934D01*
X0190098Y0118894D01*
X0190206Y0118860D01*
X0190309Y0118843D01*
X0190349Y0118837D01*
X0190389D01*
X0190417Y0118831D01*
X0190457D01*
X0190589Y0118837D01*
X0190709Y0118860D01*
X0190823Y0118888D01*
X0190920Y0118923D01*
X0191000Y0118951D01*
X0191063Y0118980D01*
X0191086Y0118991D01*
X0191103Y0119002D01*
X0191108Y0119008D01*
X0191114D01*
X0191217Y0119082D01*
X0191308Y0119174D01*
X0191382Y0119260D01*
X0191445Y0119351D01*
X0191491Y0119431D01*
X0191525Y0119499D01*
X0191537Y0119522D01*
X0191548Y0119539D01*
X0191554Y0119551D01*
Y0119556D01*
X0191599Y0119699D01*
X0191634Y0119842D01*
X0191662Y0119990D01*
X0191679Y0120122D01*
X0191685Y0120185D01*
X0191691Y0120236D01*
Y0120287D01*
X0191697Y0120333D01*
Y0120367D01*
Y0120390D01*
Y0120407D01*
Y0120413D01*
X0191691Y0120556D01*
X0191679Y0120687D01*
X0191656Y0120813D01*
X0191634Y0120927D01*
X0191616Y0121018D01*
X0191605Y0121058D01*
X0191594Y0121087D01*
X0191588Y0121115D01*
X0191582Y0121132D01*
X0191577Y0121144D01*
Y0121150D01*
X0191525Y0121275D01*
X0191462Y0121389D01*
X0191394Y0121486D01*
X0191325Y0121572D01*
X0191262Y0121635D01*
X0191205Y0121680D01*
X0191171Y0121709D01*
X0191165Y0121721D01*
X0191160D01*
X0191040Y0121795D01*
X0190920Y0121846D01*
X0190794Y0121886D01*
X0190674Y0121909D01*
X0190572Y0121926D01*
X0190532Y0121932D01*
X0190492D01*
X0190463Y0121938D01*
X0190417D01*
X0190280Y0121932D01*
X0190155Y0121909D01*
X0190046Y0121875D01*
X0189955Y0121840D01*
X0189881Y0121806D01*
X0189829Y0121772D01*
X0189795Y0121749D01*
X0189784Y0121743D01*
X0189692Y0121663D01*
X0189612Y0121566D01*
X0189544Y0121464D01*
X0189492Y0121367D01*
X0189447Y0121275D01*
X0189430Y0121235D01*
X0189412Y0121201D01*
X0189401Y0121172D01*
X0189395Y0121150D01*
X0189390Y0121138D01*
Y0121132D01*
X0188887Y0121252D01*
X0188921Y0121349D01*
X0188956Y0121441D01*
X0188996Y0121526D01*
X0189041Y0121606D01*
X0189087Y0121680D01*
X0189133Y0121743D01*
X0189178Y0121806D01*
X0189224Y0121863D01*
X0189270Y0121909D01*
X0189310Y0121955D01*
X0189344Y0121989D01*
X0189378Y0122023D01*
X0189401Y0122046D01*
X0189424Y0122063D01*
X0189435Y0122069D01*
X0189441Y0122074D01*
X0189515Y0122126D01*
X0189595Y0122172D01*
X0189675Y0122212D01*
X0189755Y0122246D01*
X0189921Y0122297D01*
X0190069Y0122337D01*
X0190143Y0122349D01*
X0190206Y0122354D01*
X0190263Y0122360D01*
X0190315Y0122366D01*
X0190355Y0122371D01*
X0190412D01*
X0190600Y0122360D01*
D02*
G37*
G36*
X0177170D02*
X0177341Y0122337D01*
X0177501Y0122297D01*
X0177570Y0122274D01*
X0177638Y0122257D01*
X0177696Y0122234D01*
X0177753Y0122212D01*
X0177798Y0122194D01*
X0177838Y0122172D01*
X0177873Y0122160D01*
X0177895Y0122149D01*
X0177907Y0122137D01*
X0177912D01*
X0178061Y0122040D01*
X0178192Y0121932D01*
X0178306Y0121818D01*
X0178398Y0121709D01*
X0178466Y0121612D01*
X0178495Y0121566D01*
X0178524Y0121532D01*
X0178541Y0121498D01*
X0178552Y0121475D01*
X0178563Y0121464D01*
Y0121458D01*
X0178638Y0121287D01*
X0178695Y0121109D01*
X0178735Y0120932D01*
X0178763Y0120767D01*
X0178775Y0120693D01*
X0178780Y0120624D01*
X0178786Y0120567D01*
Y0120516D01*
X0178792Y0120470D01*
Y0120441D01*
Y0120419D01*
Y0120413D01*
X0178780Y0120207D01*
X0178758Y0120019D01*
X0178729Y0119842D01*
X0178712Y0119762D01*
X0178689Y0119688D01*
X0178672Y0119619D01*
X0178655Y0119562D01*
X0178638Y0119505D01*
X0178621Y0119465D01*
X0178609Y0119425D01*
X0178598Y0119402D01*
X0178592Y0119385D01*
Y0119379D01*
X0178506Y0119208D01*
X0178415Y0119065D01*
X0178312Y0118940D01*
X0178215Y0118837D01*
X0178129Y0118751D01*
X0178095Y0118723D01*
X0178061Y0118694D01*
X0178032Y0118677D01*
X0178015Y0118660D01*
X0178004Y0118654D01*
X0177998Y0118649D01*
X0177924Y0118603D01*
X0177844Y0118569D01*
X0177678Y0118506D01*
X0177507Y0118460D01*
X0177347Y0118431D01*
X0177273Y0118420D01*
X0177205Y0118409D01*
X0177142Y0118403D01*
X0177090D01*
X0177045Y0118397D01*
X0176988D01*
X0176879Y0118403D01*
X0176770Y0118409D01*
X0176673Y0118426D01*
X0176576Y0118449D01*
X0176485Y0118472D01*
X0176405Y0118500D01*
X0176325Y0118529D01*
X0176257Y0118563D01*
X0176188Y0118591D01*
X0176137Y0118620D01*
X0176085Y0118649D01*
X0176045Y0118671D01*
X0176011Y0118694D01*
X0175988Y0118711D01*
X0175977Y0118717D01*
X0175971Y0118723D01*
X0175897Y0118786D01*
X0175828Y0118860D01*
X0175766Y0118934D01*
X0175703Y0119014D01*
X0175606Y0119168D01*
X0175526Y0119322D01*
X0175491Y0119396D01*
X0175469Y0119459D01*
X0175446Y0119522D01*
X0175423Y0119574D01*
X0175411Y0119619D01*
X0175400Y0119648D01*
X0175394Y0119671D01*
Y0119676D01*
X0175903Y0119808D01*
X0175948Y0119636D01*
X0176011Y0119488D01*
X0176080Y0119362D01*
X0176148Y0119260D01*
X0176211Y0119180D01*
X0176234Y0119151D01*
X0176262Y0119123D01*
X0176279Y0119105D01*
X0176297Y0119088D01*
X0176302Y0119082D01*
X0176308Y0119077D01*
X0176365Y0119031D01*
X0176422Y0118997D01*
X0176548Y0118934D01*
X0176668Y0118894D01*
X0176776Y0118860D01*
X0176879Y0118843D01*
X0176919Y0118837D01*
X0176959D01*
X0176988Y0118831D01*
X0177027D01*
X0177159Y0118837D01*
X0177279Y0118860D01*
X0177393Y0118888D01*
X0177490Y0118923D01*
X0177570Y0118951D01*
X0177633Y0118980D01*
X0177656Y0118991D01*
X0177673Y0119002D01*
X0177678Y0119008D01*
X0177684D01*
X0177787Y0119082D01*
X0177878Y0119174D01*
X0177953Y0119260D01*
X0178015Y0119351D01*
X0178061Y0119431D01*
X0178095Y0119499D01*
X0178107Y0119522D01*
X0178118Y0119539D01*
X0178124Y0119551D01*
Y0119556D01*
X0178170Y0119699D01*
X0178204Y0119842D01*
X0178232Y0119990D01*
X0178249Y0120122D01*
X0178255Y0120185D01*
X0178261Y0120236D01*
Y0120287D01*
X0178267Y0120333D01*
Y0120367D01*
Y0120390D01*
Y0120407D01*
Y0120413D01*
X0178261Y0120556D01*
X0178249Y0120687D01*
X0178227Y0120813D01*
X0178204Y0120927D01*
X0178187Y0121018D01*
X0178175Y0121058D01*
X0178164Y0121087D01*
X0178158Y0121115D01*
X0178152Y0121132D01*
X0178147Y0121144D01*
Y0121150D01*
X0178095Y0121275D01*
X0178032Y0121389D01*
X0177964Y0121486D01*
X0177895Y0121572D01*
X0177833Y0121635D01*
X0177776Y0121680D01*
X0177741Y0121709D01*
X0177735Y0121721D01*
X0177730D01*
X0177610Y0121795D01*
X0177490Y0121846D01*
X0177364Y0121886D01*
X0177244Y0121909D01*
X0177142Y0121926D01*
X0177102Y0121932D01*
X0177062D01*
X0177033Y0121938D01*
X0176988D01*
X0176850Y0121932D01*
X0176725Y0121909D01*
X0176616Y0121875D01*
X0176525Y0121840D01*
X0176451Y0121806D01*
X0176399Y0121772D01*
X0176365Y0121749D01*
X0176354Y0121743D01*
X0176262Y0121663D01*
X0176182Y0121566D01*
X0176114Y0121464D01*
X0176063Y0121367D01*
X0176017Y0121275D01*
X0176000Y0121235D01*
X0175982Y0121201D01*
X0175971Y0121172D01*
X0175965Y0121150D01*
X0175960Y0121138D01*
Y0121132D01*
X0175457Y0121252D01*
X0175491Y0121349D01*
X0175526Y0121441D01*
X0175566Y0121526D01*
X0175611Y0121606D01*
X0175657Y0121680D01*
X0175703Y0121743D01*
X0175748Y0121806D01*
X0175794Y0121863D01*
X0175840Y0121909D01*
X0175880Y0121955D01*
X0175914Y0121989D01*
X0175948Y0122023D01*
X0175971Y0122046D01*
X0175994Y0122063D01*
X0176005Y0122069D01*
X0176011Y0122074D01*
X0176085Y0122126D01*
X0176165Y0122172D01*
X0176245Y0122212D01*
X0176325Y0122246D01*
X0176491Y0122297D01*
X0176639Y0122337D01*
X0176713Y0122349D01*
X0176776Y0122354D01*
X0176833Y0122360D01*
X0176885Y0122366D01*
X0176925Y0122371D01*
X0176982D01*
X0177170Y0122360D01*
D02*
G37*
G36*
X0195648Y0118460D02*
X0192776D01*
Y0118911D01*
X0195140D01*
Y0120224D01*
X0193010D01*
Y0120676D01*
X0195140D01*
Y0121852D01*
X0192867D01*
Y0122303D01*
X0195648D01*
Y0118460D01*
D02*
G37*
G36*
X0182224D02*
X0181715D01*
Y0120025D01*
X0180733D01*
X0180585Y0120030D01*
X0180454Y0120042D01*
X0180328Y0120053D01*
X0180214Y0120076D01*
X0180111Y0120105D01*
X0180019Y0120133D01*
X0179940Y0120162D01*
X0179865Y0120196D01*
X0179803Y0120224D01*
X0179751Y0120253D01*
X0179705Y0120282D01*
X0179671Y0120310D01*
X0179643Y0120333D01*
X0179625Y0120344D01*
X0179614Y0120356D01*
X0179608Y0120361D01*
X0179551Y0120424D01*
X0179506Y0120493D01*
X0179460Y0120561D01*
X0179426Y0120636D01*
X0179369Y0120773D01*
X0179334Y0120904D01*
X0179323Y0120961D01*
X0179312Y0121018D01*
X0179306Y0121064D01*
X0179300Y0121109D01*
X0179294Y0121144D01*
Y0121167D01*
Y0121184D01*
Y0121189D01*
X0179300Y0121292D01*
X0179312Y0121395D01*
X0179334Y0121481D01*
X0179351Y0121561D01*
X0179374Y0121623D01*
X0179397Y0121675D01*
X0179409Y0121703D01*
X0179414Y0121715D01*
X0179460Y0121800D01*
X0179511Y0121875D01*
X0179563Y0121938D01*
X0179608Y0121989D01*
X0179654Y0122035D01*
X0179688Y0122063D01*
X0179711Y0122080D01*
X0179723Y0122086D01*
X0179797Y0122132D01*
X0179877Y0122172D01*
X0179957Y0122200D01*
X0180031Y0122223D01*
X0180094Y0122240D01*
X0180151Y0122251D01*
X0180185Y0122263D01*
X0180196D01*
X0180276Y0122274D01*
X0180374Y0122286D01*
X0180471Y0122292D01*
X0180562Y0122297D01*
X0180648Y0122303D01*
X0182224D01*
Y0118460D01*
D02*
G37*
G36*
X0174789D02*
X0173327D01*
X0173196Y0118466D01*
X0173076Y0118472D01*
X0172973Y0118483D01*
X0172882Y0118494D01*
X0172808Y0118506D01*
X0172756Y0118511D01*
X0172722Y0118523D01*
X0172711D01*
X0172619Y0118552D01*
X0172534Y0118580D01*
X0172465Y0118609D01*
X0172402Y0118643D01*
X0172357Y0118666D01*
X0172317Y0118688D01*
X0172294Y0118706D01*
X0172288Y0118711D01*
X0172225Y0118763D01*
X0172168Y0118820D01*
X0172123Y0118877D01*
X0172083Y0118934D01*
X0172048Y0118985D01*
X0172026Y0119025D01*
X0172008Y0119054D01*
X0172003Y0119065D01*
X0171963Y0119157D01*
X0171934Y0119242D01*
X0171917Y0119328D01*
X0171900Y0119408D01*
X0171894Y0119476D01*
X0171888Y0119528D01*
Y0119562D01*
Y0119568D01*
Y0119574D01*
X0171894Y0119694D01*
X0171917Y0119802D01*
X0171951Y0119899D01*
X0171985Y0119985D01*
X0172020Y0120053D01*
X0172054Y0120105D01*
X0172077Y0120139D01*
X0172083Y0120150D01*
X0172157Y0120236D01*
X0172248Y0120310D01*
X0172334Y0120373D01*
X0172420Y0120424D01*
X0172499Y0120459D01*
X0172562Y0120487D01*
X0172585Y0120493D01*
X0172602Y0120499D01*
X0172614Y0120504D01*
X0172619D01*
X0172522Y0120556D01*
X0172442Y0120613D01*
X0172368Y0120670D01*
X0172311Y0120727D01*
X0172271Y0120778D01*
X0172237Y0120818D01*
X0172220Y0120841D01*
X0172214Y0120853D01*
X0172168Y0120932D01*
X0172134Y0121018D01*
X0172111Y0121092D01*
X0172094Y0121167D01*
X0172083Y0121224D01*
X0172077Y0121275D01*
Y0121304D01*
Y0121315D01*
X0172083Y0121412D01*
X0172100Y0121509D01*
X0172128Y0121595D01*
X0172151Y0121669D01*
X0172180Y0121732D01*
X0172208Y0121783D01*
X0172225Y0121812D01*
X0172231Y0121823D01*
X0172294Y0121909D01*
X0172357Y0121983D01*
X0172425Y0122046D01*
X0172494Y0122097D01*
X0172556Y0122132D01*
X0172602Y0122160D01*
X0172636Y0122177D01*
X0172642Y0122183D01*
X0172648D01*
X0172751Y0122223D01*
X0172871Y0122251D01*
X0172985Y0122274D01*
X0173099Y0122286D01*
X0173196Y0122297D01*
X0173242D01*
X0173276Y0122303D01*
X0174789D01*
Y0118460D01*
D02*
G37*
G36*
X0198052Y0122366D02*
X0198183Y0122349D01*
X0198303Y0122332D01*
X0198411Y0122309D01*
X0198497Y0122280D01*
X0198531Y0122269D01*
X0198560Y0122263D01*
X0198583Y0122251D01*
X0198600Y0122246D01*
X0198611Y0122240D01*
X0198617D01*
X0198731Y0122189D01*
X0198828Y0122126D01*
X0198908Y0122057D01*
X0198977Y0121995D01*
X0199034Y0121938D01*
X0199074Y0121892D01*
X0199097Y0121863D01*
X0199102Y0121858D01*
Y0121852D01*
X0199154Y0121755D01*
X0199194Y0121663D01*
X0199222Y0121572D01*
X0199239Y0121486D01*
X0199251Y0121412D01*
X0199262Y0121361D01*
Y0121338D01*
Y0121321D01*
Y0121315D01*
Y0121309D01*
X0199257Y0121212D01*
X0199239Y0121121D01*
X0199222Y0121035D01*
X0199194Y0120967D01*
X0199171Y0120910D01*
X0199154Y0120864D01*
X0199137Y0120835D01*
X0199131Y0120824D01*
X0199074Y0120750D01*
X0199011Y0120681D01*
X0198942Y0120618D01*
X0198874Y0120567D01*
X0198811Y0120527D01*
X0198765Y0120499D01*
X0198731Y0120476D01*
X0198725Y0120470D01*
X0198720D01*
X0198674Y0120447D01*
X0198628Y0120424D01*
X0198514Y0120384D01*
X0198394Y0120344D01*
X0198269Y0120310D01*
X0198154Y0120276D01*
X0198109Y0120264D01*
X0198063Y0120253D01*
X0198029Y0120242D01*
X0198000Y0120236D01*
X0197983Y0120230D01*
X0197977D01*
X0197880Y0120207D01*
X0197795Y0120185D01*
X0197715Y0120167D01*
X0197646Y0120150D01*
X0197583Y0120133D01*
X0197526Y0120116D01*
X0197481Y0120099D01*
X0197435Y0120087D01*
X0197401Y0120076D01*
X0197366Y0120070D01*
X0197327Y0120053D01*
X0197298Y0120047D01*
X0197292Y0120042D01*
X0197207Y0120008D01*
X0197132Y0119967D01*
X0197075Y0119928D01*
X0197024Y0119893D01*
X0196990Y0119859D01*
X0196961Y0119836D01*
X0196950Y0119819D01*
X0196944Y0119813D01*
X0196910Y0119762D01*
X0196887Y0119711D01*
X0196864Y0119659D01*
X0196853Y0119608D01*
X0196847Y0119562D01*
X0196841Y0119528D01*
Y0119505D01*
Y0119499D01*
X0196847Y0119437D01*
X0196858Y0119374D01*
X0196875Y0119317D01*
X0196898Y0119265D01*
X0196921Y0119225D01*
X0196938Y0119197D01*
X0196950Y0119174D01*
X0196955Y0119168D01*
X0197001Y0119117D01*
X0197052Y0119071D01*
X0197109Y0119031D01*
X0197161Y0118997D01*
X0197212Y0118968D01*
X0197252Y0118951D01*
X0197275Y0118940D01*
X0197286Y0118934D01*
X0197372Y0118905D01*
X0197458Y0118883D01*
X0197544Y0118871D01*
X0197623Y0118860D01*
X0197692Y0118854D01*
X0197743Y0118848D01*
X0197795D01*
X0197915Y0118854D01*
X0198023Y0118866D01*
X0198126Y0118883D01*
X0198212Y0118905D01*
X0198280Y0118928D01*
X0198337Y0118946D01*
X0198371Y0118957D01*
X0198377Y0118963D01*
X0198383D01*
X0198474Y0119008D01*
X0198554Y0119060D01*
X0198623Y0119105D01*
X0198674Y0119157D01*
X0198720Y0119197D01*
X0198748Y0119231D01*
X0198765Y0119254D01*
X0198771Y0119260D01*
X0198811Y0119334D01*
X0198845Y0119414D01*
X0198874Y0119494D01*
X0198897Y0119568D01*
X0198908Y0119636D01*
X0198920Y0119694D01*
X0198925Y0119728D01*
Y0119733D01*
Y0119739D01*
X0199405Y0119699D01*
X0199393Y0119556D01*
X0199371Y0119425D01*
X0199336Y0119311D01*
X0199302Y0119208D01*
X0199262Y0119123D01*
X0199245Y0119088D01*
X0199228Y0119060D01*
X0199216Y0119031D01*
X0199205Y0119014D01*
X0199199Y0119008D01*
Y0119002D01*
X0199119Y0118894D01*
X0199028Y0118803D01*
X0198937Y0118723D01*
X0198845Y0118660D01*
X0198765Y0118609D01*
X0198703Y0118574D01*
X0198680Y0118563D01*
X0198663Y0118552D01*
X0198651Y0118546D01*
X0198645D01*
X0198509Y0118494D01*
X0198360Y0118460D01*
X0198212Y0118431D01*
X0198074Y0118414D01*
X0198012Y0118409D01*
X0197955Y0118403D01*
X0197903D01*
X0197857Y0118397D01*
X0197772D01*
X0197623Y0118403D01*
X0197481Y0118420D01*
X0197361Y0118443D01*
X0197247Y0118472D01*
X0197161Y0118500D01*
X0197121Y0118511D01*
X0197092Y0118523D01*
X0197070Y0118534D01*
X0197052Y0118540D01*
X0197041Y0118546D01*
X0197035D01*
X0196915Y0118609D01*
X0196818Y0118671D01*
X0196727Y0118746D01*
X0196658Y0118808D01*
X0196601Y0118871D01*
X0196561Y0118917D01*
X0196533Y0118951D01*
X0196527Y0118957D01*
Y0118963D01*
X0196470Y0119065D01*
X0196424Y0119168D01*
X0196396Y0119265D01*
X0196373Y0119357D01*
X0196361Y0119431D01*
X0196350Y0119494D01*
Y0119517D01*
Y0119534D01*
Y0119539D01*
Y0119545D01*
X0196356Y0119659D01*
X0196373Y0119762D01*
X0196402Y0119853D01*
X0196430Y0119933D01*
X0196459Y0119996D01*
X0196487Y0120047D01*
X0196504Y0120076D01*
X0196510Y0120087D01*
X0196579Y0120173D01*
X0196653Y0120253D01*
X0196738Y0120316D01*
X0196818Y0120373D01*
X0196893Y0120419D01*
X0196950Y0120453D01*
X0196973Y0120464D01*
X0196990Y0120476D01*
X0197001Y0120481D01*
X0197007D01*
X0197052Y0120499D01*
X0197109Y0120521D01*
X0197172Y0120544D01*
X0197235Y0120561D01*
X0197378Y0120601D01*
X0197515Y0120641D01*
X0197646Y0120670D01*
X0197703Y0120687D01*
X0197755Y0120698D01*
X0197800Y0120710D01*
X0197829Y0120716D01*
X0197852Y0120721D01*
X0197857D01*
X0197966Y0120750D01*
X0198069Y0120773D01*
X0198160Y0120801D01*
X0198240Y0120824D01*
X0198309Y0120847D01*
X0198371Y0120875D01*
X0198428Y0120893D01*
X0198474Y0120915D01*
X0198514Y0120932D01*
X0198543Y0120950D01*
X0198571Y0120967D01*
X0198588Y0120978D01*
X0198617Y0120995D01*
X0198623Y0121001D01*
X0198674Y0121052D01*
X0198708Y0121109D01*
X0198737Y0121167D01*
X0198754Y0121218D01*
X0198765Y0121264D01*
X0198771Y0121304D01*
Y0121326D01*
Y0121338D01*
X0198760Y0121424D01*
X0198737Y0121503D01*
X0198703Y0121572D01*
X0198663Y0121635D01*
X0198628Y0121680D01*
X0198594Y0121721D01*
X0198571Y0121743D01*
X0198560Y0121749D01*
X0198520Y0121778D01*
X0198468Y0121806D01*
X0198366Y0121846D01*
X0198257Y0121880D01*
X0198149Y0121897D01*
X0198046Y0121909D01*
X0198006Y0121915D01*
X0197966Y0121920D01*
X0197892D01*
X0197738Y0121915D01*
X0197601Y0121892D01*
X0197481Y0121863D01*
X0197389Y0121829D01*
X0197315Y0121789D01*
X0197258Y0121760D01*
X0197229Y0121738D01*
X0197218Y0121732D01*
X0197138Y0121658D01*
X0197081Y0121572D01*
X0197035Y0121481D01*
X0196995Y0121395D01*
X0196973Y0121315D01*
X0196961Y0121247D01*
X0196955Y0121224D01*
X0196950Y0121207D01*
Y0121195D01*
Y0121189D01*
X0196464Y0121224D01*
X0196476Y0121344D01*
X0196504Y0121458D01*
X0196533Y0121561D01*
X0196567Y0121652D01*
X0196601Y0121721D01*
X0196630Y0121778D01*
X0196653Y0121812D01*
X0196658Y0121823D01*
X0196727Y0121920D01*
X0196807Y0122000D01*
X0196893Y0122069D01*
X0196973Y0122126D01*
X0197047Y0122172D01*
X0197104Y0122206D01*
X0197127Y0122217D01*
X0197144Y0122223D01*
X0197155Y0122229D01*
X0197161D01*
X0197286Y0122274D01*
X0197418Y0122309D01*
X0197544Y0122337D01*
X0197658Y0122354D01*
X0197760Y0122366D01*
X0197806D01*
X0197840Y0122371D01*
X0197915D01*
X0198052Y0122366D01*
D02*
G37*
G36*
X0185707Y0117392D02*
X0182583D01*
Y0117735D01*
X0185707D01*
Y0117392D01*
D02*
G37*
G36*
X0129462Y0126443D02*
X0129553Y0126437D01*
X0129644Y0126420D01*
X0129724Y0126402D01*
X0129804Y0126380D01*
X0129878Y0126357D01*
X0129941Y0126334D01*
X0129998Y0126305D01*
X0130055Y0126277D01*
X0130101Y0126254D01*
X0130141Y0126231D01*
X0130175Y0126208D01*
X0130198Y0126191D01*
X0130215Y0126174D01*
X0130227Y0126168D01*
X0130233Y0126163D01*
X0130290Y0126106D01*
X0130341Y0126043D01*
X0130387Y0125980D01*
X0130427Y0125911D01*
X0130495Y0125774D01*
X0130541Y0125643D01*
X0130569Y0125523D01*
X0130581Y0125472D01*
X0130592Y0125426D01*
X0130598Y0125386D01*
X0130604Y0125358D01*
Y0125340D01*
Y0125335D01*
X0130118Y0125283D01*
X0130107Y0125409D01*
X0130084Y0125523D01*
X0130055Y0125620D01*
X0130016Y0125700D01*
X0129981Y0125763D01*
X0129947Y0125809D01*
X0129924Y0125837D01*
X0129919Y0125849D01*
X0129839Y0125917D01*
X0129747Y0125969D01*
X0129656Y0126008D01*
X0129564Y0126031D01*
X0129490Y0126049D01*
X0129427Y0126054D01*
X0129405Y0126060D01*
X0129370D01*
X0129256Y0126054D01*
X0129153Y0126031D01*
X0129068Y0125997D01*
X0128988Y0125963D01*
X0128931Y0125929D01*
X0128885Y0125894D01*
X0128862Y0125872D01*
X0128851Y0125866D01*
X0128782Y0125792D01*
X0128731Y0125712D01*
X0128697Y0125632D01*
X0128668Y0125557D01*
X0128657Y0125489D01*
X0128651Y0125437D01*
X0128645Y0125403D01*
Y0125398D01*
Y0125392D01*
X0128657Y0125289D01*
X0128679Y0125192D01*
X0128714Y0125095D01*
X0128754Y0125004D01*
X0128799Y0124929D01*
X0128834Y0124872D01*
X0128845Y0124849D01*
X0128856Y0124832D01*
X0128868Y0124827D01*
Y0124821D01*
X0128913Y0124764D01*
X0128971Y0124701D01*
X0129028Y0124638D01*
X0129096Y0124570D01*
X0129233Y0124433D01*
X0129376Y0124307D01*
X0129502Y0124187D01*
X0129559Y0124136D01*
X0129610Y0124096D01*
X0129656Y0124061D01*
X0129684Y0124033D01*
X0129707Y0124016D01*
X0129713Y0124010D01*
X0129856Y0123890D01*
X0129981Y0123782D01*
X0130090Y0123679D01*
X0130175Y0123593D01*
X0130244Y0123525D01*
X0130295Y0123473D01*
X0130324Y0123439D01*
X0130335Y0123433D01*
Y0123428D01*
X0130410Y0123336D01*
X0130472Y0123245D01*
X0130524Y0123159D01*
X0130569Y0123079D01*
X0130604Y0123017D01*
X0130626Y0122965D01*
X0130638Y0122931D01*
X0130644Y0122925D01*
Y0122919D01*
X0130661Y0122862D01*
X0130678Y0122800D01*
X0130684Y0122748D01*
X0130689Y0122697D01*
X0130695Y0122657D01*
Y0122623D01*
Y0122600D01*
Y0122594D01*
X0128154D01*
Y0123045D01*
X0130038D01*
X0129976Y0123136D01*
X0129941Y0123182D01*
X0129907Y0123216D01*
X0129878Y0123251D01*
X0129856Y0123274D01*
X0129844Y0123291D01*
X0129839Y0123296D01*
X0129810Y0123325D01*
X0129781Y0123353D01*
X0129701Y0123428D01*
X0129616Y0123508D01*
X0129525Y0123588D01*
X0129433Y0123662D01*
X0129365Y0123724D01*
X0129336Y0123747D01*
X0129313Y0123765D01*
X0129302Y0123776D01*
X0129296Y0123782D01*
X0129205Y0123862D01*
X0129119Y0123936D01*
X0129039Y0124004D01*
X0128971Y0124067D01*
X0128902Y0124130D01*
X0128845Y0124181D01*
X0128788Y0124233D01*
X0128742Y0124278D01*
X0128702Y0124318D01*
X0128668Y0124353D01*
X0128634Y0124387D01*
X0128611Y0124410D01*
X0128582Y0124444D01*
X0128571Y0124455D01*
X0128497Y0124547D01*
X0128428Y0124632D01*
X0128377Y0124712D01*
X0128331Y0124787D01*
X0128297Y0124844D01*
X0128274Y0124884D01*
X0128263Y0124912D01*
X0128257Y0124924D01*
X0128223Y0125009D01*
X0128200Y0125089D01*
X0128183Y0125163D01*
X0128171Y0125238D01*
X0128165Y0125295D01*
X0128160Y0125340D01*
Y0125369D01*
Y0125380D01*
X0128165Y0125466D01*
X0128171Y0125540D01*
X0128188Y0125620D01*
X0128211Y0125689D01*
X0128263Y0125820D01*
X0128320Y0125929D01*
X0128354Y0125974D01*
X0128383Y0126020D01*
X0128411Y0126054D01*
X0128434Y0126083D01*
X0128457Y0126111D01*
X0128474Y0126128D01*
X0128480Y0126134D01*
X0128485Y0126140D01*
X0128548Y0126197D01*
X0128617Y0126243D01*
X0128685Y0126283D01*
X0128754Y0126317D01*
X0128902Y0126374D01*
X0129039Y0126408D01*
X0129108Y0126425D01*
X0129165Y0126431D01*
X0129222Y0126437D01*
X0129268Y0126443D01*
X0129307Y0126448D01*
X0129359D01*
X0129462Y0126443D01*
D02*
G37*
G36*
X0146226Y0126351D02*
X0146295Y0126260D01*
X0146363Y0126174D01*
X0146432Y0126094D01*
X0146495Y0126026D01*
X0146546Y0125974D01*
X0146586Y0125940D01*
X0146592Y0125934D01*
X0146597Y0125929D01*
X0146712Y0125831D01*
X0146826Y0125746D01*
X0146940Y0125672D01*
X0147048Y0125609D01*
X0147140Y0125557D01*
X0147180Y0125535D01*
X0147214Y0125517D01*
X0147243Y0125500D01*
X0147266Y0125489D01*
X0147277Y0125483D01*
X0147283D01*
Y0125026D01*
X0147197Y0125061D01*
X0147111Y0125101D01*
X0147031Y0125135D01*
X0146957Y0125175D01*
X0146889Y0125209D01*
X0146837Y0125238D01*
X0146803Y0125260D01*
X0146797Y0125266D01*
X0146792D01*
X0146695Y0125329D01*
X0146603Y0125386D01*
X0146523Y0125443D01*
X0146460Y0125489D01*
X0146409Y0125535D01*
X0146369Y0125563D01*
X0146346Y0125586D01*
X0146341Y0125592D01*
Y0122594D01*
X0145867D01*
Y0126448D01*
X0146175D01*
X0146226Y0126351D01*
D02*
G37*
G36*
X0149852Y0126494D02*
X0150023Y0126471D01*
X0150183Y0126431D01*
X0150252Y0126408D01*
X0150320Y0126391D01*
X0150377Y0126368D01*
X0150435Y0126345D01*
X0150480Y0126328D01*
X0150520Y0126305D01*
X0150554Y0126294D01*
X0150577Y0126283D01*
X0150589Y0126271D01*
X0150594D01*
X0150743Y0126174D01*
X0150874Y0126066D01*
X0150988Y0125951D01*
X0151080Y0125843D01*
X0151148Y0125746D01*
X0151177Y0125700D01*
X0151205Y0125666D01*
X0151223Y0125632D01*
X0151234Y0125609D01*
X0151245Y0125597D01*
Y0125592D01*
X0151320Y0125420D01*
X0151377Y0125243D01*
X0151417Y0125066D01*
X0151445Y0124901D01*
X0151457Y0124827D01*
X0151462Y0124758D01*
X0151468Y0124701D01*
Y0124650D01*
X0151474Y0124604D01*
Y0124575D01*
Y0124553D01*
Y0124547D01*
X0151462Y0124341D01*
X0151439Y0124153D01*
X0151411Y0123976D01*
X0151394Y0123896D01*
X0151371Y0123822D01*
X0151354Y0123753D01*
X0151337Y0123696D01*
X0151320Y0123639D01*
X0151302Y0123599D01*
X0151291Y0123559D01*
X0151280Y0123536D01*
X0151274Y0123519D01*
Y0123513D01*
X0151188Y0123342D01*
X0151097Y0123199D01*
X0150994Y0123074D01*
X0150897Y0122971D01*
X0150811Y0122885D01*
X0150777Y0122857D01*
X0150743Y0122828D01*
X0150714Y0122811D01*
X0150697Y0122794D01*
X0150686Y0122788D01*
X0150680Y0122782D01*
X0150606Y0122737D01*
X0150526Y0122702D01*
X0150360Y0122640D01*
X0150189Y0122594D01*
X0150029Y0122565D01*
X0149955Y0122554D01*
X0149886Y0122543D01*
X0149824Y0122537D01*
X0149772D01*
X0149726Y0122531D01*
X0149669D01*
X0149561Y0122537D01*
X0149452Y0122543D01*
X0149355Y0122560D01*
X0149258Y0122582D01*
X0149167Y0122605D01*
X0149087Y0122634D01*
X0149007Y0122662D01*
X0148939Y0122697D01*
X0148870Y0122725D01*
X0148819Y0122754D01*
X0148767Y0122782D01*
X0148727Y0122805D01*
X0148693Y0122828D01*
X0148670Y0122845D01*
X0148659Y0122851D01*
X0148653Y0122857D01*
X0148579Y0122919D01*
X0148510Y0122994D01*
X0148447Y0123068D01*
X0148385Y0123148D01*
X0148288Y0123302D01*
X0148208Y0123456D01*
X0148173Y0123530D01*
X0148151Y0123593D01*
X0148128Y0123656D01*
X0148105Y0123707D01*
X0148093Y0123753D01*
X0148082Y0123782D01*
X0148076Y0123804D01*
Y0123810D01*
X0148584Y0123942D01*
X0148630Y0123770D01*
X0148693Y0123622D01*
X0148761Y0123496D01*
X0148830Y0123393D01*
X0148893Y0123313D01*
X0148916Y0123285D01*
X0148944Y0123256D01*
X0148961Y0123239D01*
X0148978Y0123222D01*
X0148984Y0123216D01*
X0148990Y0123211D01*
X0149047Y0123165D01*
X0149104Y0123131D01*
X0149230Y0123068D01*
X0149350Y0123028D01*
X0149458Y0122994D01*
X0149561Y0122977D01*
X0149601Y0122971D01*
X0149641D01*
X0149669Y0122965D01*
X0149709D01*
X0149841Y0122971D01*
X0149961Y0122994D01*
X0150075Y0123022D01*
X0150172Y0123056D01*
X0150252Y0123085D01*
X0150315Y0123114D01*
X0150337Y0123125D01*
X0150355Y0123136D01*
X0150360Y0123142D01*
X0150366D01*
X0150469Y0123216D01*
X0150560Y0123308D01*
X0150634Y0123393D01*
X0150697Y0123485D01*
X0150743Y0123565D01*
X0150777Y0123633D01*
X0150788Y0123656D01*
X0150800Y0123673D01*
X0150806Y0123685D01*
Y0123690D01*
X0150851Y0123833D01*
X0150886Y0123976D01*
X0150914Y0124124D01*
X0150931Y0124256D01*
X0150937Y0124318D01*
X0150943Y0124370D01*
Y0124421D01*
X0150948Y0124467D01*
Y0124501D01*
Y0124524D01*
Y0124541D01*
Y0124547D01*
X0150943Y0124689D01*
X0150931Y0124821D01*
X0150908Y0124946D01*
X0150886Y0125061D01*
X0150868Y0125152D01*
X0150857Y0125192D01*
X0150846Y0125221D01*
X0150840Y0125249D01*
X0150834Y0125266D01*
X0150829Y0125278D01*
Y0125283D01*
X0150777Y0125409D01*
X0150714Y0125523D01*
X0150646Y0125620D01*
X0150577Y0125706D01*
X0150514Y0125769D01*
X0150457Y0125814D01*
X0150423Y0125843D01*
X0150417Y0125854D01*
X0150412D01*
X0150292Y0125929D01*
X0150172Y0125980D01*
X0150046Y0126020D01*
X0149926Y0126043D01*
X0149824Y0126060D01*
X0149784Y0126066D01*
X0149744D01*
X0149715Y0126071D01*
X0149669D01*
X0149532Y0126066D01*
X0149407Y0126043D01*
X0149298Y0126008D01*
X0149207Y0125974D01*
X0149133Y0125940D01*
X0149081Y0125906D01*
X0149047Y0125883D01*
X0149036Y0125877D01*
X0148944Y0125797D01*
X0148864Y0125700D01*
X0148796Y0125597D01*
X0148744Y0125500D01*
X0148699Y0125409D01*
X0148681Y0125369D01*
X0148664Y0125335D01*
X0148653Y0125306D01*
X0148647Y0125283D01*
X0148642Y0125272D01*
Y0125266D01*
X0148139Y0125386D01*
X0148173Y0125483D01*
X0148208Y0125575D01*
X0148248Y0125660D01*
X0148293Y0125740D01*
X0148339Y0125814D01*
X0148385Y0125877D01*
X0148430Y0125940D01*
X0148476Y0125997D01*
X0148522Y0126043D01*
X0148562Y0126089D01*
X0148596Y0126123D01*
X0148630Y0126157D01*
X0148653Y0126180D01*
X0148676Y0126197D01*
X0148687Y0126203D01*
X0148693Y0126208D01*
X0148767Y0126260D01*
X0148847Y0126305D01*
X0148927Y0126345D01*
X0149007Y0126380D01*
X0149173Y0126431D01*
X0149321Y0126471D01*
X0149395Y0126482D01*
X0149458Y0126488D01*
X0149515Y0126494D01*
X0149567Y0126500D01*
X0149607Y0126505D01*
X0149664D01*
X0149852Y0126494D01*
D02*
G37*
G36*
X0136422D02*
X0136593Y0126471D01*
X0136753Y0126431D01*
X0136822Y0126408D01*
X0136890Y0126391D01*
X0136948Y0126368D01*
X0137005Y0126345D01*
X0137050Y0126328D01*
X0137090Y0126305D01*
X0137125Y0126294D01*
X0137147Y0126283D01*
X0137159Y0126271D01*
X0137164D01*
X0137313Y0126174D01*
X0137444Y0126066D01*
X0137558Y0125951D01*
X0137650Y0125843D01*
X0137718Y0125746D01*
X0137747Y0125700D01*
X0137776Y0125666D01*
X0137793Y0125632D01*
X0137804Y0125609D01*
X0137815Y0125597D01*
Y0125592D01*
X0137890Y0125420D01*
X0137947Y0125243D01*
X0137987Y0125066D01*
X0138015Y0124901D01*
X0138027Y0124827D01*
X0138032Y0124758D01*
X0138038Y0124701D01*
Y0124650D01*
X0138044Y0124604D01*
Y0124575D01*
Y0124553D01*
Y0124547D01*
X0138032Y0124341D01*
X0138010Y0124153D01*
X0137981Y0123976D01*
X0137964Y0123896D01*
X0137941Y0123822D01*
X0137924Y0123753D01*
X0137907Y0123696D01*
X0137890Y0123639D01*
X0137873Y0123599D01*
X0137861Y0123559D01*
X0137850Y0123536D01*
X0137844Y0123519D01*
Y0123513D01*
X0137758Y0123342D01*
X0137667Y0123199D01*
X0137564Y0123074D01*
X0137467Y0122971D01*
X0137381Y0122885D01*
X0137347Y0122857D01*
X0137313Y0122828D01*
X0137284Y0122811D01*
X0137267Y0122794D01*
X0137256Y0122788D01*
X0137250Y0122782D01*
X0137176Y0122737D01*
X0137096Y0122702D01*
X0136930Y0122640D01*
X0136759Y0122594D01*
X0136599Y0122565D01*
X0136525Y0122554D01*
X0136456Y0122543D01*
X0136394Y0122537D01*
X0136342D01*
X0136297Y0122531D01*
X0136240D01*
X0136131Y0122537D01*
X0136022Y0122543D01*
X0135925Y0122560D01*
X0135828Y0122582D01*
X0135737Y0122605D01*
X0135657Y0122634D01*
X0135577Y0122662D01*
X0135509Y0122697D01*
X0135440Y0122725D01*
X0135389Y0122754D01*
X0135337Y0122782D01*
X0135297Y0122805D01*
X0135263Y0122828D01*
X0135240Y0122845D01*
X0135229Y0122851D01*
X0135223Y0122857D01*
X0135149Y0122919D01*
X0135080Y0122994D01*
X0135018Y0123068D01*
X0134955Y0123148D01*
X0134858Y0123302D01*
X0134778Y0123456D01*
X0134743Y0123530D01*
X0134721Y0123593D01*
X0134698Y0123656D01*
X0134675Y0123707D01*
X0134663Y0123753D01*
X0134652Y0123782D01*
X0134646Y0123804D01*
Y0123810D01*
X0135155Y0123942D01*
X0135200Y0123770D01*
X0135263Y0123622D01*
X0135332Y0123496D01*
X0135400Y0123393D01*
X0135463Y0123313D01*
X0135486Y0123285D01*
X0135514Y0123256D01*
X0135531Y0123239D01*
X0135549Y0123222D01*
X0135554Y0123216D01*
X0135560Y0123211D01*
X0135617Y0123165D01*
X0135674Y0123131D01*
X0135800Y0123068D01*
X0135920Y0123028D01*
X0136028Y0122994D01*
X0136131Y0122977D01*
X0136171Y0122971D01*
X0136211D01*
X0136240Y0122965D01*
X0136279D01*
X0136411Y0122971D01*
X0136531Y0122994D01*
X0136645Y0123022D01*
X0136742Y0123056D01*
X0136822Y0123085D01*
X0136885Y0123114D01*
X0136907Y0123125D01*
X0136925Y0123136D01*
X0136930Y0123142D01*
X0136936D01*
X0137039Y0123216D01*
X0137130Y0123308D01*
X0137204Y0123393D01*
X0137267Y0123485D01*
X0137313Y0123565D01*
X0137347Y0123633D01*
X0137359Y0123656D01*
X0137370Y0123673D01*
X0137376Y0123685D01*
Y0123690D01*
X0137421Y0123833D01*
X0137456Y0123976D01*
X0137484Y0124124D01*
X0137501Y0124256D01*
X0137507Y0124318D01*
X0137513Y0124370D01*
Y0124421D01*
X0137519Y0124467D01*
Y0124501D01*
Y0124524D01*
Y0124541D01*
Y0124547D01*
X0137513Y0124689D01*
X0137501Y0124821D01*
X0137478Y0124946D01*
X0137456Y0125061D01*
X0137439Y0125152D01*
X0137427Y0125192D01*
X0137416Y0125221D01*
X0137410Y0125249D01*
X0137404Y0125266D01*
X0137399Y0125278D01*
Y0125283D01*
X0137347Y0125409D01*
X0137284Y0125523D01*
X0137216Y0125620D01*
X0137147Y0125706D01*
X0137084Y0125769D01*
X0137027Y0125814D01*
X0136993Y0125843D01*
X0136987Y0125854D01*
X0136982D01*
X0136862Y0125929D01*
X0136742Y0125980D01*
X0136616Y0126020D01*
X0136496Y0126043D01*
X0136394Y0126060D01*
X0136354Y0126066D01*
X0136314D01*
X0136285Y0126071D01*
X0136240D01*
X0136102Y0126066D01*
X0135977Y0126043D01*
X0135868Y0126008D01*
X0135777Y0125974D01*
X0135703Y0125940D01*
X0135651Y0125906D01*
X0135617Y0125883D01*
X0135606Y0125877D01*
X0135514Y0125797D01*
X0135434Y0125700D01*
X0135366Y0125597D01*
X0135314Y0125500D01*
X0135269Y0125409D01*
X0135252Y0125369D01*
X0135234Y0125335D01*
X0135223Y0125306D01*
X0135217Y0125283D01*
X0135212Y0125272D01*
Y0125266D01*
X0134709Y0125386D01*
X0134743Y0125483D01*
X0134778Y0125575D01*
X0134818Y0125660D01*
X0134863Y0125740D01*
X0134909Y0125814D01*
X0134955Y0125877D01*
X0135000Y0125940D01*
X0135046Y0125997D01*
X0135092Y0126043D01*
X0135132Y0126089D01*
X0135166Y0126123D01*
X0135200Y0126157D01*
X0135223Y0126180D01*
X0135246Y0126197D01*
X0135257Y0126203D01*
X0135263Y0126208D01*
X0135337Y0126260D01*
X0135417Y0126305D01*
X0135497Y0126345D01*
X0135577Y0126380D01*
X0135743Y0126431D01*
X0135891Y0126471D01*
X0135965Y0126482D01*
X0136028Y0126488D01*
X0136085Y0126494D01*
X0136137Y0126500D01*
X0136177Y0126505D01*
X0136234D01*
X0136422Y0126494D01*
D02*
G37*
G36*
X0154900Y0122594D02*
X0152028D01*
Y0123045D01*
X0154392D01*
Y0124358D01*
X0152262D01*
Y0124809D01*
X0154392D01*
Y0125986D01*
X0152119D01*
Y0126437D01*
X0154900D01*
Y0122594D01*
D02*
G37*
G36*
X0141475D02*
X0140967D01*
Y0124159D01*
X0139985D01*
X0139837Y0124164D01*
X0139705Y0124176D01*
X0139580Y0124187D01*
X0139466Y0124210D01*
X0139363Y0124238D01*
X0139271Y0124267D01*
X0139191Y0124295D01*
X0139117Y0124330D01*
X0139055Y0124358D01*
X0139003Y0124387D01*
X0138957Y0124416D01*
X0138923Y0124444D01*
X0138895Y0124467D01*
X0138877Y0124478D01*
X0138866Y0124490D01*
X0138860Y0124495D01*
X0138803Y0124558D01*
X0138758Y0124627D01*
X0138712Y0124695D01*
X0138678Y0124769D01*
X0138620Y0124907D01*
X0138586Y0125038D01*
X0138575Y0125095D01*
X0138563Y0125152D01*
X0138558Y0125198D01*
X0138552Y0125243D01*
X0138546Y0125278D01*
Y0125301D01*
Y0125318D01*
Y0125323D01*
X0138552Y0125426D01*
X0138563Y0125529D01*
X0138586Y0125615D01*
X0138603Y0125695D01*
X0138626Y0125757D01*
X0138649Y0125809D01*
X0138661Y0125837D01*
X0138666Y0125849D01*
X0138712Y0125934D01*
X0138763Y0126008D01*
X0138815Y0126071D01*
X0138860Y0126123D01*
X0138906Y0126168D01*
X0138940Y0126197D01*
X0138963Y0126214D01*
X0138974Y0126220D01*
X0139049Y0126266D01*
X0139129Y0126305D01*
X0139209Y0126334D01*
X0139283Y0126357D01*
X0139346Y0126374D01*
X0139403Y0126385D01*
X0139437Y0126397D01*
X0139448D01*
X0139528Y0126408D01*
X0139626Y0126420D01*
X0139723Y0126425D01*
X0139814Y0126431D01*
X0139900Y0126437D01*
X0141475D01*
Y0122594D01*
D02*
G37*
G36*
X0134041D02*
X0132579D01*
X0132448Y0122600D01*
X0132328Y0122605D01*
X0132225Y0122617D01*
X0132134Y0122628D01*
X0132060Y0122640D01*
X0132008Y0122645D01*
X0131974Y0122657D01*
X0131963D01*
X0131871Y0122685D01*
X0131786Y0122714D01*
X0131717Y0122742D01*
X0131654Y0122777D01*
X0131609Y0122800D01*
X0131569Y0122822D01*
X0131546Y0122839D01*
X0131540Y0122845D01*
X0131477Y0122897D01*
X0131420Y0122954D01*
X0131375Y0123011D01*
X0131335Y0123068D01*
X0131300Y0123119D01*
X0131278Y0123159D01*
X0131260Y0123188D01*
X0131255Y0123199D01*
X0131215Y0123291D01*
X0131186Y0123376D01*
X0131169Y0123462D01*
X0131152Y0123542D01*
X0131146Y0123610D01*
X0131140Y0123662D01*
Y0123696D01*
Y0123702D01*
Y0123707D01*
X0131146Y0123827D01*
X0131169Y0123936D01*
X0131203Y0124033D01*
X0131237Y0124118D01*
X0131272Y0124187D01*
X0131306Y0124238D01*
X0131329Y0124273D01*
X0131335Y0124284D01*
X0131409Y0124370D01*
X0131500Y0124444D01*
X0131586Y0124507D01*
X0131672Y0124558D01*
X0131751Y0124592D01*
X0131814Y0124621D01*
X0131837Y0124627D01*
X0131854Y0124632D01*
X0131866Y0124638D01*
X0131871D01*
X0131774Y0124689D01*
X0131694Y0124747D01*
X0131620Y0124804D01*
X0131563Y0124861D01*
X0131523Y0124912D01*
X0131489Y0124952D01*
X0131472Y0124975D01*
X0131466Y0124986D01*
X0131420Y0125066D01*
X0131386Y0125152D01*
X0131363Y0125226D01*
X0131346Y0125301D01*
X0131335Y0125358D01*
X0131329Y0125409D01*
Y0125437D01*
Y0125449D01*
X0131335Y0125546D01*
X0131352Y0125643D01*
X0131380Y0125729D01*
X0131403Y0125803D01*
X0131432Y0125866D01*
X0131460Y0125917D01*
X0131477Y0125946D01*
X0131483Y0125957D01*
X0131546Y0126043D01*
X0131609Y0126117D01*
X0131677Y0126180D01*
X0131746Y0126231D01*
X0131808Y0126266D01*
X0131854Y0126294D01*
X0131888Y0126311D01*
X0131894Y0126317D01*
X0131900D01*
X0132003Y0126357D01*
X0132123Y0126385D01*
X0132237Y0126408D01*
X0132351Y0126420D01*
X0132448Y0126431D01*
X0132494D01*
X0132528Y0126437D01*
X0134041D01*
Y0122594D01*
D02*
G37*
G36*
X0157304Y0126500D02*
X0157435Y0126482D01*
X0157555Y0126465D01*
X0157663Y0126443D01*
X0157749Y0126414D01*
X0157783Y0126402D01*
X0157812Y0126397D01*
X0157835Y0126385D01*
X0157852Y0126380D01*
X0157863Y0126374D01*
X0157869D01*
X0157983Y0126323D01*
X0158080Y0126260D01*
X0158160Y0126191D01*
X0158229Y0126128D01*
X0158286Y0126071D01*
X0158326Y0126026D01*
X0158349Y0125997D01*
X0158354Y0125991D01*
Y0125986D01*
X0158406Y0125889D01*
X0158446Y0125797D01*
X0158474Y0125706D01*
X0158491Y0125620D01*
X0158503Y0125546D01*
X0158514Y0125495D01*
Y0125472D01*
Y0125455D01*
Y0125449D01*
Y0125443D01*
X0158509Y0125346D01*
X0158491Y0125255D01*
X0158474Y0125169D01*
X0158446Y0125101D01*
X0158423Y0125044D01*
X0158406Y0124998D01*
X0158389Y0124969D01*
X0158383Y0124958D01*
X0158326Y0124884D01*
X0158263Y0124815D01*
X0158194Y0124752D01*
X0158126Y0124701D01*
X0158063Y0124661D01*
X0158017Y0124632D01*
X0157983Y0124610D01*
X0157977Y0124604D01*
X0157972D01*
X0157926Y0124581D01*
X0157880Y0124558D01*
X0157766Y0124518D01*
X0157646Y0124478D01*
X0157521Y0124444D01*
X0157406Y0124410D01*
X0157361Y0124398D01*
X0157315Y0124387D01*
X0157281Y0124375D01*
X0157252Y0124370D01*
X0157235Y0124364D01*
X0157229D01*
X0157132Y0124341D01*
X0157047Y0124318D01*
X0156967Y0124301D01*
X0156898Y0124284D01*
X0156835Y0124267D01*
X0156778Y0124250D01*
X0156733Y0124233D01*
X0156687Y0124221D01*
X0156653Y0124210D01*
X0156618Y0124204D01*
X0156579Y0124187D01*
X0156550Y0124181D01*
X0156544Y0124176D01*
X0156459Y0124141D01*
X0156384Y0124101D01*
X0156327Y0124061D01*
X0156276Y0124027D01*
X0156242Y0123993D01*
X0156213Y0123970D01*
X0156202Y0123953D01*
X0156196Y0123947D01*
X0156162Y0123896D01*
X0156139Y0123845D01*
X0156116Y0123793D01*
X0156105Y0123742D01*
X0156099Y0123696D01*
X0156093Y0123662D01*
Y0123639D01*
Y0123633D01*
X0156099Y0123570D01*
X0156110Y0123508D01*
X0156127Y0123451D01*
X0156150Y0123399D01*
X0156173Y0123359D01*
X0156190Y0123330D01*
X0156202Y0123308D01*
X0156207Y0123302D01*
X0156253Y0123251D01*
X0156304Y0123205D01*
X0156361Y0123165D01*
X0156413Y0123131D01*
X0156464Y0123102D01*
X0156504Y0123085D01*
X0156527Y0123074D01*
X0156538Y0123068D01*
X0156624Y0123039D01*
X0156710Y0123017D01*
X0156796Y0123005D01*
X0156875Y0122994D01*
X0156944Y0122988D01*
X0156995Y0122982D01*
X0157047D01*
X0157167Y0122988D01*
X0157275Y0122999D01*
X0157378Y0123017D01*
X0157464Y0123039D01*
X0157532Y0123062D01*
X0157589Y0123079D01*
X0157623Y0123091D01*
X0157629Y0123096D01*
X0157635D01*
X0157726Y0123142D01*
X0157806Y0123194D01*
X0157875Y0123239D01*
X0157926Y0123291D01*
X0157972Y0123330D01*
X0158000Y0123365D01*
X0158017Y0123388D01*
X0158023Y0123393D01*
X0158063Y0123468D01*
X0158097Y0123547D01*
X0158126Y0123627D01*
X0158149Y0123702D01*
X0158160Y0123770D01*
X0158172Y0123827D01*
X0158177Y0123862D01*
Y0123867D01*
Y0123873D01*
X0158657Y0123833D01*
X0158645Y0123690D01*
X0158623Y0123559D01*
X0158588Y0123445D01*
X0158554Y0123342D01*
X0158514Y0123256D01*
X0158497Y0123222D01*
X0158480Y0123194D01*
X0158468Y0123165D01*
X0158457Y0123148D01*
X0158451Y0123142D01*
Y0123136D01*
X0158371Y0123028D01*
X0158280Y0122937D01*
X0158189Y0122857D01*
X0158097Y0122794D01*
X0158017Y0122742D01*
X0157955Y0122708D01*
X0157932Y0122697D01*
X0157915Y0122685D01*
X0157903Y0122680D01*
X0157897D01*
X0157760Y0122628D01*
X0157612Y0122594D01*
X0157464Y0122565D01*
X0157326Y0122548D01*
X0157264Y0122543D01*
X0157207Y0122537D01*
X0157155D01*
X0157109Y0122531D01*
X0157024D01*
X0156875Y0122537D01*
X0156733Y0122554D01*
X0156613Y0122577D01*
X0156499Y0122605D01*
X0156413Y0122634D01*
X0156373Y0122645D01*
X0156344Y0122657D01*
X0156322Y0122668D01*
X0156304Y0122674D01*
X0156293Y0122680D01*
X0156287D01*
X0156167Y0122742D01*
X0156070Y0122805D01*
X0155979Y0122880D01*
X0155910Y0122942D01*
X0155853Y0123005D01*
X0155813Y0123051D01*
X0155785Y0123085D01*
X0155779Y0123091D01*
Y0123096D01*
X0155722Y0123199D01*
X0155676Y0123302D01*
X0155648Y0123399D01*
X0155625Y0123490D01*
X0155614Y0123565D01*
X0155602Y0123627D01*
Y0123650D01*
Y0123667D01*
Y0123673D01*
Y0123679D01*
X0155608Y0123793D01*
X0155625Y0123896D01*
X0155654Y0123987D01*
X0155682Y0124067D01*
X0155711Y0124130D01*
X0155739Y0124181D01*
X0155756Y0124210D01*
X0155762Y0124221D01*
X0155831Y0124307D01*
X0155905Y0124387D01*
X0155990Y0124450D01*
X0156070Y0124507D01*
X0156144Y0124553D01*
X0156202Y0124587D01*
X0156225Y0124598D01*
X0156242Y0124610D01*
X0156253Y0124615D01*
X0156259D01*
X0156304Y0124632D01*
X0156361Y0124655D01*
X0156424Y0124678D01*
X0156487Y0124695D01*
X0156630Y0124735D01*
X0156767Y0124775D01*
X0156898Y0124804D01*
X0156955Y0124821D01*
X0157007Y0124832D01*
X0157052Y0124844D01*
X0157081Y0124849D01*
X0157104Y0124855D01*
X0157109D01*
X0157218Y0124884D01*
X0157321Y0124907D01*
X0157412Y0124935D01*
X0157492Y0124958D01*
X0157561Y0124981D01*
X0157623Y0125009D01*
X0157680Y0125026D01*
X0157726Y0125049D01*
X0157766Y0125066D01*
X0157795Y0125083D01*
X0157823Y0125101D01*
X0157840Y0125112D01*
X0157869Y0125129D01*
X0157875Y0125135D01*
X0157926Y0125186D01*
X0157960Y0125243D01*
X0157989Y0125301D01*
X0158006Y0125352D01*
X0158017Y0125398D01*
X0158023Y0125437D01*
Y0125460D01*
Y0125472D01*
X0158012Y0125557D01*
X0157989Y0125637D01*
X0157955Y0125706D01*
X0157915Y0125769D01*
X0157880Y0125814D01*
X0157846Y0125854D01*
X0157823Y0125877D01*
X0157812Y0125883D01*
X0157772Y0125911D01*
X0157720Y0125940D01*
X0157618Y0125980D01*
X0157509Y0126014D01*
X0157401Y0126031D01*
X0157298Y0126043D01*
X0157258Y0126049D01*
X0157218Y0126054D01*
X0157144D01*
X0156990Y0126049D01*
X0156853Y0126026D01*
X0156733Y0125997D01*
X0156641Y0125963D01*
X0156567Y0125923D01*
X0156510Y0125894D01*
X0156481Y0125872D01*
X0156470Y0125866D01*
X0156390Y0125792D01*
X0156333Y0125706D01*
X0156287Y0125615D01*
X0156247Y0125529D01*
X0156225Y0125449D01*
X0156213Y0125380D01*
X0156207Y0125358D01*
X0156202Y0125340D01*
Y0125329D01*
Y0125323D01*
X0155716Y0125358D01*
X0155728Y0125478D01*
X0155756Y0125592D01*
X0155785Y0125695D01*
X0155819Y0125786D01*
X0155853Y0125854D01*
X0155882Y0125911D01*
X0155905Y0125946D01*
X0155910Y0125957D01*
X0155979Y0126054D01*
X0156059Y0126134D01*
X0156144Y0126203D01*
X0156225Y0126260D01*
X0156299Y0126305D01*
X0156356Y0126340D01*
X0156379Y0126351D01*
X0156396Y0126357D01*
X0156407Y0126363D01*
X0156413D01*
X0156538Y0126408D01*
X0156670Y0126443D01*
X0156796Y0126471D01*
X0156910Y0126488D01*
X0157012Y0126500D01*
X0157058D01*
X0157092Y0126505D01*
X0157167D01*
X0157304Y0126500D01*
D02*
G37*
G36*
X0144959Y0121526D02*
X0141835D01*
Y0121869D01*
X0144959D01*
Y0121526D01*
D02*
G37*
G36*
X0152952Y0215517D02*
X0153043Y0215512D01*
X0153134Y0215494D01*
X0153214Y0215477D01*
X0153294Y0215455D01*
X0153368Y0215432D01*
X0153431Y0215409D01*
X0153488Y0215380D01*
X0153545Y0215352D01*
X0153591Y0215329D01*
X0153631Y0215306D01*
X0153665Y0215283D01*
X0153688Y0215266D01*
X0153705Y0215249D01*
X0153717Y0215243D01*
X0153722Y0215237D01*
X0153779Y0215180D01*
X0153831Y0215118D01*
X0153877Y0215055D01*
X0153917Y0214986D01*
X0153985Y0214849D01*
X0154031Y0214718D01*
X0154059Y0214598D01*
X0154071Y0214547D01*
X0154082Y0214501D01*
X0154088Y0214461D01*
X0154094Y0214432D01*
Y0214415D01*
Y0214410D01*
X0153608Y0214358D01*
X0153597Y0214484D01*
X0153574Y0214598D01*
X0153545Y0214695D01*
X0153505Y0214775D01*
X0153471Y0214838D01*
X0153437Y0214883D01*
X0153414Y0214912D01*
X0153408Y0214924D01*
X0153328Y0214992D01*
X0153237Y0215043D01*
X0153146Y0215083D01*
X0153054Y0215106D01*
X0152980Y0215123D01*
X0152917Y0215129D01*
X0152894Y0215135D01*
X0152860D01*
X0152746Y0215129D01*
X0152643Y0215106D01*
X0152558Y0215072D01*
X0152478Y0215038D01*
X0152420Y0215003D01*
X0152375Y0214969D01*
X0152352Y0214946D01*
X0152341Y0214941D01*
X0152272Y0214866D01*
X0152221Y0214786D01*
X0152186Y0214706D01*
X0152158Y0214632D01*
X0152146Y0214564D01*
X0152141Y0214512D01*
X0152135Y0214478D01*
Y0214472D01*
Y0214467D01*
X0152146Y0214364D01*
X0152169Y0214267D01*
X0152204Y0214170D01*
X0152243Y0214078D01*
X0152289Y0214004D01*
X0152323Y0213947D01*
X0152335Y0213924D01*
X0152346Y0213907D01*
X0152358Y0213901D01*
Y0213896D01*
X0152403Y0213839D01*
X0152461Y0213776D01*
X0152518Y0213713D01*
X0152586Y0213644D01*
X0152723Y0213507D01*
X0152866Y0213382D01*
X0152991Y0213262D01*
X0153049Y0213211D01*
X0153100Y0213171D01*
X0153146Y0213136D01*
X0153174Y0213108D01*
X0153197Y0213090D01*
X0153203Y0213085D01*
X0153346Y0212965D01*
X0153471Y0212856D01*
X0153580Y0212754D01*
X0153665Y0212668D01*
X0153734Y0212599D01*
X0153785Y0212548D01*
X0153814Y0212514D01*
X0153825Y0212508D01*
Y0212502D01*
X0153899Y0212411D01*
X0153962Y0212320D01*
X0154014Y0212234D01*
X0154059Y0212154D01*
X0154094Y0212091D01*
X0154116Y0212040D01*
X0154128Y0212006D01*
X0154133Y0212000D01*
Y0211994D01*
X0154151Y0211937D01*
X0154168Y0211874D01*
X0154174Y0211823D01*
X0154179Y0211771D01*
X0154185Y0211732D01*
Y0211697D01*
Y0211674D01*
Y0211669D01*
X0151644D01*
Y0212120D01*
X0153528D01*
X0153465Y0212211D01*
X0153431Y0212257D01*
X0153397Y0212291D01*
X0153368Y0212325D01*
X0153346Y0212348D01*
X0153334Y0212365D01*
X0153328Y0212371D01*
X0153300Y0212400D01*
X0153271Y0212428D01*
X0153191Y0212502D01*
X0153106Y0212582D01*
X0153014Y0212662D01*
X0152923Y0212737D01*
X0152855Y0212799D01*
X0152826Y0212822D01*
X0152803Y0212839D01*
X0152792Y0212851D01*
X0152786Y0212856D01*
X0152695Y0212936D01*
X0152609Y0213011D01*
X0152529Y0213079D01*
X0152461Y0213142D01*
X0152392Y0213205D01*
X0152335Y0213256D01*
X0152278Y0213307D01*
X0152232Y0213353D01*
X0152192Y0213393D01*
X0152158Y0213427D01*
X0152124Y0213462D01*
X0152101Y0213485D01*
X0152072Y0213519D01*
X0152061Y0213530D01*
X0151987Y0213622D01*
X0151918Y0213707D01*
X0151867Y0213787D01*
X0151821Y0213861D01*
X0151787Y0213918D01*
X0151764Y0213959D01*
X0151752Y0213987D01*
X0151747Y0213998D01*
X0151713Y0214084D01*
X0151690Y0214164D01*
X0151672Y0214238D01*
X0151661Y0214313D01*
X0151655Y0214370D01*
X0151650Y0214415D01*
Y0214444D01*
Y0214455D01*
X0151655Y0214541D01*
X0151661Y0214615D01*
X0151678Y0214695D01*
X0151701Y0214764D01*
X0151752Y0214895D01*
X0151810Y0215003D01*
X0151844Y0215049D01*
X0151872Y0215095D01*
X0151901Y0215129D01*
X0151924Y0215158D01*
X0151947Y0215186D01*
X0151964Y0215203D01*
X0151970Y0215209D01*
X0151975Y0215215D01*
X0152038Y0215272D01*
X0152106Y0215318D01*
X0152175Y0215357D01*
X0152243Y0215392D01*
X0152392Y0215449D01*
X0152529Y0215483D01*
X0152598Y0215500D01*
X0152655Y0215506D01*
X0152712Y0215512D01*
X0152757Y0215517D01*
X0152797Y0215523D01*
X0152849D01*
X0152952Y0215517D01*
D02*
G37*
G36*
X0159912Y0215569D02*
X0160083Y0215546D01*
X0160243Y0215506D01*
X0160312Y0215483D01*
X0160380Y0215466D01*
X0160437Y0215443D01*
X0160494Y0215420D01*
X0160540Y0215403D01*
X0160580Y0215380D01*
X0160614Y0215369D01*
X0160637Y0215357D01*
X0160649Y0215346D01*
X0160654D01*
X0160803Y0215249D01*
X0160934Y0215140D01*
X0161048Y0215026D01*
X0161140Y0214918D01*
X0161208Y0214821D01*
X0161237Y0214775D01*
X0161265Y0214741D01*
X0161283Y0214706D01*
X0161294Y0214684D01*
X0161305Y0214672D01*
Y0214667D01*
X0161380Y0214495D01*
X0161437Y0214318D01*
X0161477Y0214141D01*
X0161505Y0213976D01*
X0161517Y0213901D01*
X0161522Y0213833D01*
X0161528Y0213776D01*
Y0213724D01*
X0161534Y0213679D01*
Y0213650D01*
Y0213627D01*
Y0213622D01*
X0161522Y0213416D01*
X0161499Y0213228D01*
X0161471Y0213051D01*
X0161454Y0212971D01*
X0161431Y0212896D01*
X0161414Y0212828D01*
X0161397Y0212771D01*
X0161380Y0212714D01*
X0161362Y0212674D01*
X0161351Y0212634D01*
X0161340Y0212611D01*
X0161334Y0212594D01*
Y0212588D01*
X0161248Y0212417D01*
X0161157Y0212274D01*
X0161054Y0212148D01*
X0160957Y0212046D01*
X0160871Y0211960D01*
X0160837Y0211931D01*
X0160803Y0211903D01*
X0160774Y0211886D01*
X0160757Y0211869D01*
X0160746Y0211863D01*
X0160740Y0211857D01*
X0160666Y0211811D01*
X0160586Y0211777D01*
X0160420Y0211714D01*
X0160249Y0211669D01*
X0160089Y0211640D01*
X0160015Y0211629D01*
X0159946Y0211617D01*
X0159883Y0211612D01*
X0159832D01*
X0159786Y0211606D01*
X0159729D01*
X0159621Y0211612D01*
X0159512Y0211617D01*
X0159415Y0211634D01*
X0159318Y0211657D01*
X0159227Y0211680D01*
X0159147Y0211709D01*
X0159067Y0211737D01*
X0158999Y0211771D01*
X0158930Y0211800D01*
X0158879Y0211829D01*
X0158827Y0211857D01*
X0158787Y0211880D01*
X0158753Y0211903D01*
X0158730Y0211920D01*
X0158719Y0211926D01*
X0158713Y0211931D01*
X0158639Y0211994D01*
X0158570Y0212069D01*
X0158507Y0212143D01*
X0158445Y0212223D01*
X0158347Y0212377D01*
X0158268Y0212531D01*
X0158233Y0212605D01*
X0158211Y0212668D01*
X0158188Y0212731D01*
X0158165Y0212782D01*
X0158153Y0212828D01*
X0158142Y0212856D01*
X0158136Y0212879D01*
Y0212885D01*
X0158644Y0213016D01*
X0158690Y0212845D01*
X0158753Y0212697D01*
X0158821Y0212571D01*
X0158890Y0212468D01*
X0158953Y0212388D01*
X0158976Y0212360D01*
X0159004Y0212331D01*
X0159021Y0212314D01*
X0159038Y0212297D01*
X0159044Y0212291D01*
X0159050Y0212285D01*
X0159107Y0212240D01*
X0159164Y0212206D01*
X0159290Y0212143D01*
X0159410Y0212103D01*
X0159518Y0212069D01*
X0159621Y0212051D01*
X0159661Y0212046D01*
X0159701D01*
X0159729Y0212040D01*
X0159769D01*
X0159901Y0212046D01*
X0160021Y0212069D01*
X0160135Y0212097D01*
X0160232Y0212131D01*
X0160312Y0212160D01*
X0160375Y0212188D01*
X0160397Y0212200D01*
X0160415Y0212211D01*
X0160420Y0212217D01*
X0160426D01*
X0160529Y0212291D01*
X0160620Y0212383D01*
X0160694Y0212468D01*
X0160757Y0212560D01*
X0160803Y0212639D01*
X0160837Y0212708D01*
X0160848Y0212731D01*
X0160860Y0212748D01*
X0160866Y0212759D01*
Y0212765D01*
X0160911Y0212908D01*
X0160946Y0213051D01*
X0160974Y0213199D01*
X0160991Y0213330D01*
X0160997Y0213393D01*
X0161003Y0213445D01*
Y0213496D01*
X0161008Y0213542D01*
Y0213576D01*
Y0213599D01*
Y0213616D01*
Y0213622D01*
X0161003Y0213764D01*
X0160991Y0213896D01*
X0160968Y0214021D01*
X0160946Y0214136D01*
X0160928Y0214227D01*
X0160917Y0214267D01*
X0160906Y0214295D01*
X0160900Y0214324D01*
X0160894Y0214341D01*
X0160889Y0214352D01*
Y0214358D01*
X0160837Y0214484D01*
X0160774Y0214598D01*
X0160706Y0214695D01*
X0160637Y0214781D01*
X0160574Y0214844D01*
X0160517Y0214889D01*
X0160483Y0214918D01*
X0160477Y0214929D01*
X0160472D01*
X0160352Y0215003D01*
X0160232Y0215055D01*
X0160106Y0215095D01*
X0159986Y0215118D01*
X0159883Y0215135D01*
X0159844Y0215140D01*
X0159804D01*
X0159775Y0215146D01*
X0159729D01*
X0159592Y0215140D01*
X0159467Y0215118D01*
X0159358Y0215083D01*
X0159267Y0215049D01*
X0159193Y0215015D01*
X0159141Y0214981D01*
X0159107Y0214958D01*
X0159096Y0214952D01*
X0159004Y0214872D01*
X0158924Y0214775D01*
X0158856Y0214672D01*
X0158804Y0214575D01*
X0158759Y0214484D01*
X0158741Y0214444D01*
X0158724Y0214410D01*
X0158713Y0214381D01*
X0158707Y0214358D01*
X0158702Y0214347D01*
Y0214341D01*
X0158199Y0214461D01*
X0158233Y0214558D01*
X0158268Y0214649D01*
X0158308Y0214735D01*
X0158353Y0214815D01*
X0158399Y0214889D01*
X0158445Y0214952D01*
X0158490Y0215015D01*
X0158536Y0215072D01*
X0158582Y0215118D01*
X0158622Y0215163D01*
X0158656Y0215197D01*
X0158690Y0215232D01*
X0158713Y0215255D01*
X0158736Y0215272D01*
X0158747Y0215278D01*
X0158753Y0215283D01*
X0158827Y0215335D01*
X0158907Y0215380D01*
X0158987Y0215420D01*
X0159067Y0215455D01*
X0159233Y0215506D01*
X0159381Y0215546D01*
X0159455Y0215557D01*
X0159518Y0215563D01*
X0159575Y0215569D01*
X0159627Y0215574D01*
X0159667Y0215580D01*
X0159724D01*
X0159912Y0215569D01*
D02*
G37*
G36*
X0176899Y0211669D02*
X0176391D01*
Y0213233D01*
X0175409D01*
X0175260Y0213239D01*
X0175129Y0213250D01*
X0175004Y0213262D01*
X0174889Y0213285D01*
X0174787Y0213313D01*
X0174695Y0213342D01*
X0174615Y0213370D01*
X0174541Y0213405D01*
X0174478Y0213433D01*
X0174427Y0213462D01*
X0174381Y0213490D01*
X0174347Y0213519D01*
X0174318Y0213542D01*
X0174301Y0213553D01*
X0174290Y0213564D01*
X0174284Y0213570D01*
X0174227Y0213633D01*
X0174181Y0213702D01*
X0174136Y0213770D01*
X0174101Y0213844D01*
X0174044Y0213981D01*
X0174010Y0214113D01*
X0173999Y0214170D01*
X0173987Y0214227D01*
X0173981Y0214272D01*
X0173976Y0214318D01*
X0173970Y0214352D01*
Y0214375D01*
Y0214392D01*
Y0214398D01*
X0173976Y0214501D01*
X0173987Y0214604D01*
X0174010Y0214689D01*
X0174027Y0214769D01*
X0174050Y0214832D01*
X0174073Y0214883D01*
X0174084Y0214912D01*
X0174090Y0214924D01*
X0174136Y0215009D01*
X0174187Y0215083D01*
X0174238Y0215146D01*
X0174284Y0215197D01*
X0174330Y0215243D01*
X0174364Y0215272D01*
X0174387Y0215289D01*
X0174398Y0215295D01*
X0174473Y0215340D01*
X0174553Y0215380D01*
X0174632Y0215409D01*
X0174707Y0215432D01*
X0174769Y0215449D01*
X0174827Y0215460D01*
X0174861Y0215472D01*
X0174872D01*
X0174952Y0215483D01*
X0175049Y0215494D01*
X0175146Y0215500D01*
X0175238Y0215506D01*
X0175323Y0215512D01*
X0176899D01*
Y0211669D01*
D02*
G37*
G36*
X0173313D02*
X0172805D01*
Y0213376D01*
X0172149D01*
X0172091Y0213370D01*
X0172046D01*
X0172006Y0213365D01*
X0171977Y0213359D01*
X0171954D01*
X0171943Y0213353D01*
X0171937D01*
X0171852Y0213325D01*
X0171777Y0213290D01*
X0171743Y0213273D01*
X0171720Y0213262D01*
X0171709Y0213256D01*
X0171703Y0213250D01*
X0171658Y0213216D01*
X0171612Y0213182D01*
X0171532Y0213096D01*
X0171498Y0213056D01*
X0171469Y0213022D01*
X0171452Y0212999D01*
X0171446Y0212994D01*
X0171389Y0212919D01*
X0171326Y0212834D01*
X0171264Y0212748D01*
X0171206Y0212662D01*
X0171155Y0212582D01*
X0171115Y0212520D01*
X0171098Y0212497D01*
X0171087Y0212480D01*
X0171075Y0212468D01*
Y0212462D01*
X0170567Y0211669D01*
X0169933D01*
X0170601Y0212714D01*
X0170675Y0212822D01*
X0170750Y0212919D01*
X0170818Y0213005D01*
X0170881Y0213079D01*
X0170938Y0213142D01*
X0170978Y0213188D01*
X0171007Y0213211D01*
X0171018Y0213222D01*
X0171064Y0213256D01*
X0171109Y0213296D01*
X0171212Y0213353D01*
X0171258Y0213382D01*
X0171292Y0213399D01*
X0171315Y0213410D01*
X0171326Y0213416D01*
X0171224Y0213433D01*
X0171132Y0213450D01*
X0171047Y0213479D01*
X0170967Y0213502D01*
X0170892Y0213530D01*
X0170824Y0213559D01*
X0170767Y0213593D01*
X0170710Y0213622D01*
X0170664Y0213650D01*
X0170624Y0213679D01*
X0170590Y0213702D01*
X0170561Y0213724D01*
X0170538Y0213741D01*
X0170521Y0213759D01*
X0170516Y0213764D01*
X0170510Y0213770D01*
X0170464Y0213821D01*
X0170419Y0213878D01*
X0170356Y0213998D01*
X0170304Y0214113D01*
X0170276Y0214221D01*
X0170253Y0214318D01*
X0170247Y0214358D01*
Y0214392D01*
X0170241Y0214421D01*
Y0214444D01*
Y0214455D01*
Y0214461D01*
X0170247Y0214575D01*
X0170264Y0214684D01*
X0170293Y0214781D01*
X0170321Y0214866D01*
X0170356Y0214941D01*
X0170378Y0214992D01*
X0170401Y0215026D01*
X0170407Y0215038D01*
X0170470Y0215129D01*
X0170538Y0215203D01*
X0170613Y0215266D01*
X0170681Y0215318D01*
X0170744Y0215357D01*
X0170790Y0215386D01*
X0170824Y0215397D01*
X0170830Y0215403D01*
X0170835D01*
X0170887Y0215420D01*
X0170944Y0215437D01*
X0171069Y0215466D01*
X0171195Y0215483D01*
X0171321Y0215500D01*
X0171435Y0215506D01*
X0171486D01*
X0171526Y0215512D01*
X0173313D01*
Y0211669D01*
D02*
G37*
G36*
X0169356D02*
X0168848D01*
Y0215512D01*
X0169356D01*
Y0211669D01*
D02*
G37*
G36*
X0164965D02*
X0164457D01*
Y0213233D01*
X0163475D01*
X0163327Y0213239D01*
X0163195Y0213250D01*
X0163070Y0213262D01*
X0162955Y0213285D01*
X0162853Y0213313D01*
X0162761Y0213342D01*
X0162681Y0213370D01*
X0162607Y0213405D01*
X0162544Y0213433D01*
X0162493Y0213462D01*
X0162447Y0213490D01*
X0162413Y0213519D01*
X0162384Y0213542D01*
X0162367Y0213553D01*
X0162356Y0213564D01*
X0162350Y0213570D01*
X0162293Y0213633D01*
X0162248Y0213702D01*
X0162202Y0213770D01*
X0162168Y0213844D01*
X0162110Y0213981D01*
X0162076Y0214113D01*
X0162065Y0214170D01*
X0162053Y0214227D01*
X0162048Y0214272D01*
X0162042Y0214318D01*
X0162036Y0214352D01*
Y0214375D01*
Y0214392D01*
Y0214398D01*
X0162042Y0214501D01*
X0162053Y0214604D01*
X0162076Y0214689D01*
X0162093Y0214769D01*
X0162116Y0214832D01*
X0162139Y0214883D01*
X0162150Y0214912D01*
X0162156Y0214924D01*
X0162202Y0215009D01*
X0162253Y0215083D01*
X0162304Y0215146D01*
X0162350Y0215197D01*
X0162396Y0215243D01*
X0162430Y0215272D01*
X0162453Y0215289D01*
X0162464Y0215295D01*
X0162539Y0215340D01*
X0162619Y0215380D01*
X0162698Y0215409D01*
X0162773Y0215432D01*
X0162836Y0215449D01*
X0162893Y0215460D01*
X0162927Y0215472D01*
X0162938D01*
X0163018Y0215483D01*
X0163115Y0215494D01*
X0163212Y0215500D01*
X0163304Y0215506D01*
X0163390Y0215512D01*
X0164965D01*
Y0211669D01*
D02*
G37*
G36*
X0157531D02*
X0156069D01*
X0155938Y0211674D01*
X0155818Y0211680D01*
X0155715Y0211692D01*
X0155624Y0211703D01*
X0155550Y0211714D01*
X0155498Y0211720D01*
X0155464Y0211732D01*
X0155453D01*
X0155361Y0211760D01*
X0155275Y0211789D01*
X0155207Y0211817D01*
X0155144Y0211852D01*
X0155098Y0211874D01*
X0155059Y0211897D01*
X0155036Y0211914D01*
X0155030Y0211920D01*
X0154967Y0211971D01*
X0154910Y0212029D01*
X0154864Y0212086D01*
X0154824Y0212143D01*
X0154790Y0212194D01*
X0154767Y0212234D01*
X0154750Y0212263D01*
X0154745Y0212274D01*
X0154704Y0212365D01*
X0154676Y0212451D01*
X0154659Y0212537D01*
X0154642Y0212617D01*
X0154636Y0212685D01*
X0154630Y0212737D01*
Y0212771D01*
Y0212776D01*
Y0212782D01*
X0154636Y0212902D01*
X0154659Y0213011D01*
X0154693Y0213108D01*
X0154727Y0213193D01*
X0154762Y0213262D01*
X0154796Y0213313D01*
X0154819Y0213348D01*
X0154824Y0213359D01*
X0154899Y0213445D01*
X0154990Y0213519D01*
X0155076Y0213582D01*
X0155161Y0213633D01*
X0155241Y0213667D01*
X0155304Y0213696D01*
X0155327Y0213702D01*
X0155344Y0213707D01*
X0155356Y0213713D01*
X0155361D01*
X0155264Y0213764D01*
X0155184Y0213821D01*
X0155110Y0213878D01*
X0155053Y0213936D01*
X0155013Y0213987D01*
X0154979Y0214027D01*
X0154962Y0214050D01*
X0154956Y0214061D01*
X0154910Y0214141D01*
X0154876Y0214227D01*
X0154853Y0214301D01*
X0154836Y0214375D01*
X0154824Y0214432D01*
X0154819Y0214484D01*
Y0214512D01*
Y0214524D01*
X0154824Y0214621D01*
X0154842Y0214718D01*
X0154870Y0214804D01*
X0154893Y0214878D01*
X0154921Y0214941D01*
X0154950Y0214992D01*
X0154967Y0215020D01*
X0154973Y0215032D01*
X0155036Y0215118D01*
X0155098Y0215192D01*
X0155167Y0215255D01*
X0155236Y0215306D01*
X0155298Y0215340D01*
X0155344Y0215369D01*
X0155378Y0215386D01*
X0155384Y0215392D01*
X0155390D01*
X0155492Y0215432D01*
X0155612Y0215460D01*
X0155727Y0215483D01*
X0155841Y0215494D01*
X0155938Y0215506D01*
X0155984D01*
X0156018Y0215512D01*
X0157531D01*
Y0211669D01*
D02*
G37*
G36*
X0168448Y0210601D02*
X0165325D01*
Y0210944D01*
X0168448D01*
Y0210601D01*
D02*
G37*
%LPC*%
G36*
X0181715Y0121852D02*
X0180619D01*
X0180516Y0121846D01*
X0180436Y0121840D01*
X0180374Y0121835D01*
X0180322Y0121829D01*
X0180288Y0121823D01*
X0180271Y0121818D01*
X0180265D01*
X0180196Y0121789D01*
X0180128Y0121760D01*
X0180077Y0121721D01*
X0180031Y0121680D01*
X0179991Y0121646D01*
X0179968Y0121618D01*
X0179951Y0121595D01*
X0179945Y0121589D01*
X0179905Y0121521D01*
X0179871Y0121452D01*
X0179848Y0121384D01*
X0179837Y0121315D01*
X0179825Y0121258D01*
X0179820Y0121212D01*
Y0121184D01*
Y0121178D01*
Y0121172D01*
X0179831Y0121058D01*
X0179854Y0120955D01*
X0179888Y0120864D01*
X0179922Y0120790D01*
X0179962Y0120733D01*
X0179997Y0120693D01*
X0180019Y0120670D01*
X0180031Y0120658D01*
X0180071Y0120624D01*
X0180122Y0120596D01*
X0180225Y0120556D01*
X0180339Y0120521D01*
X0180454Y0120499D01*
X0180562Y0120487D01*
X0180608Y0120481D01*
X0180648D01*
X0180682Y0120476D01*
X0181715D01*
Y0121852D01*
D02*
G37*
G36*
X0174281D02*
X0173373D01*
X0173253Y0121840D01*
X0173150Y0121835D01*
X0173070Y0121823D01*
X0173013Y0121812D01*
X0172973Y0121806D01*
X0172945Y0121795D01*
X0172939D01*
X0172876Y0121772D01*
X0172825Y0121743D01*
X0172779Y0121709D01*
X0172745Y0121675D01*
X0172716Y0121646D01*
X0172694Y0121618D01*
X0172682Y0121601D01*
X0172676Y0121595D01*
X0172642Y0121538D01*
X0172619Y0121481D01*
X0172602Y0121424D01*
X0172591Y0121372D01*
X0172585Y0121326D01*
X0172579Y0121292D01*
Y0121269D01*
Y0121258D01*
X0172585Y0121184D01*
X0172597Y0121115D01*
X0172614Y0121058D01*
X0172631Y0121012D01*
X0172648Y0120973D01*
X0172665Y0120938D01*
X0172676Y0120921D01*
X0172682Y0120915D01*
X0172722Y0120870D01*
X0172768Y0120830D01*
X0172819Y0120796D01*
X0172865Y0120773D01*
X0172905Y0120750D01*
X0172939Y0120738D01*
X0172962Y0120733D01*
X0172973Y0120727D01*
X0173036Y0120716D01*
X0173110Y0120704D01*
X0173190Y0120698D01*
X0173265Y0120693D01*
X0173339Y0120687D01*
X0174281D01*
Y0121852D01*
D02*
G37*
G36*
Y0120236D02*
X0173265D01*
X0173156Y0120224D01*
X0173059Y0120213D01*
X0172979Y0120202D01*
X0172916Y0120190D01*
X0172871Y0120179D01*
X0172848Y0120173D01*
X0172836Y0120167D01*
X0172768Y0120139D01*
X0172705Y0120105D01*
X0172654Y0120070D01*
X0172608Y0120030D01*
X0172574Y0119996D01*
X0172551Y0119973D01*
X0172534Y0119950D01*
X0172528Y0119945D01*
X0172488Y0119882D01*
X0172459Y0119819D01*
X0172442Y0119756D01*
X0172425Y0119699D01*
X0172420Y0119648D01*
X0172414Y0119608D01*
Y0119585D01*
Y0119574D01*
X0172420Y0119505D01*
X0172425Y0119442D01*
X0172437Y0119385D01*
X0172454Y0119339D01*
X0172471Y0119299D01*
X0172482Y0119265D01*
X0172488Y0119248D01*
X0172494Y0119242D01*
X0172522Y0119197D01*
X0172556Y0119151D01*
X0172585Y0119117D01*
X0172619Y0119088D01*
X0172648Y0119060D01*
X0172665Y0119043D01*
X0172682Y0119037D01*
X0172688Y0119031D01*
X0172733Y0119008D01*
X0172779Y0118985D01*
X0172876Y0118951D01*
X0172916Y0118940D01*
X0172950Y0118934D01*
X0172973Y0118928D01*
X0172979D01*
X0173025Y0118923D01*
X0173076Y0118917D01*
X0173190Y0118911D01*
X0174281D01*
Y0120236D01*
D02*
G37*
G36*
X0140967Y0125986D02*
X0139871D01*
X0139768Y0125980D01*
X0139688Y0125974D01*
X0139626Y0125969D01*
X0139574Y0125963D01*
X0139540Y0125957D01*
X0139523Y0125951D01*
X0139517D01*
X0139448Y0125923D01*
X0139380Y0125894D01*
X0139329Y0125854D01*
X0139283Y0125814D01*
X0139243Y0125780D01*
X0139220Y0125752D01*
X0139203Y0125729D01*
X0139197Y0125723D01*
X0139157Y0125654D01*
X0139123Y0125586D01*
X0139100Y0125517D01*
X0139089Y0125449D01*
X0139077Y0125392D01*
X0139072Y0125346D01*
Y0125318D01*
Y0125312D01*
Y0125306D01*
X0139083Y0125192D01*
X0139106Y0125089D01*
X0139140Y0124998D01*
X0139174Y0124924D01*
X0139214Y0124866D01*
X0139249Y0124827D01*
X0139271Y0124804D01*
X0139283Y0124792D01*
X0139323Y0124758D01*
X0139374Y0124730D01*
X0139477Y0124689D01*
X0139591Y0124655D01*
X0139705Y0124632D01*
X0139814Y0124621D01*
X0139860Y0124615D01*
X0139900D01*
X0139934Y0124610D01*
X0140967D01*
Y0125986D01*
D02*
G37*
G36*
X0133533D02*
X0132625D01*
X0132505Y0125974D01*
X0132402Y0125969D01*
X0132322Y0125957D01*
X0132265Y0125946D01*
X0132225Y0125940D01*
X0132197Y0125929D01*
X0132191D01*
X0132128Y0125906D01*
X0132077Y0125877D01*
X0132031Y0125843D01*
X0131997Y0125809D01*
X0131968Y0125780D01*
X0131946Y0125752D01*
X0131934Y0125734D01*
X0131928Y0125729D01*
X0131894Y0125672D01*
X0131871Y0125615D01*
X0131854Y0125557D01*
X0131843Y0125506D01*
X0131837Y0125460D01*
X0131831Y0125426D01*
Y0125403D01*
Y0125392D01*
X0131837Y0125318D01*
X0131849Y0125249D01*
X0131866Y0125192D01*
X0131883Y0125146D01*
X0131900Y0125106D01*
X0131917Y0125072D01*
X0131928Y0125055D01*
X0131934Y0125049D01*
X0131974Y0125004D01*
X0132020Y0124964D01*
X0132071Y0124929D01*
X0132117Y0124907D01*
X0132157Y0124884D01*
X0132191Y0124872D01*
X0132214Y0124866D01*
X0132225Y0124861D01*
X0132288Y0124849D01*
X0132362Y0124838D01*
X0132442Y0124832D01*
X0132517Y0124827D01*
X0132591Y0124821D01*
X0133533D01*
Y0125986D01*
D02*
G37*
G36*
Y0124370D02*
X0132517D01*
X0132408Y0124358D01*
X0132311Y0124347D01*
X0132231Y0124336D01*
X0132168Y0124324D01*
X0132123Y0124313D01*
X0132100Y0124307D01*
X0132088Y0124301D01*
X0132020Y0124273D01*
X0131957Y0124238D01*
X0131906Y0124204D01*
X0131860Y0124164D01*
X0131826Y0124130D01*
X0131803Y0124107D01*
X0131786Y0124084D01*
X0131780Y0124079D01*
X0131740Y0124016D01*
X0131711Y0123953D01*
X0131694Y0123890D01*
X0131677Y0123833D01*
X0131672Y0123782D01*
X0131666Y0123742D01*
Y0123719D01*
Y0123707D01*
X0131672Y0123639D01*
X0131677Y0123576D01*
X0131689Y0123519D01*
X0131706Y0123473D01*
X0131723Y0123433D01*
X0131734Y0123399D01*
X0131740Y0123382D01*
X0131746Y0123376D01*
X0131774Y0123330D01*
X0131808Y0123285D01*
X0131837Y0123251D01*
X0131871Y0123222D01*
X0131900Y0123194D01*
X0131917Y0123176D01*
X0131934Y0123171D01*
X0131940Y0123165D01*
X0131985Y0123142D01*
X0132031Y0123119D01*
X0132128Y0123085D01*
X0132168Y0123074D01*
X0132202Y0123068D01*
X0132225Y0123062D01*
X0132231D01*
X0132277Y0123056D01*
X0132328Y0123051D01*
X0132442Y0123045D01*
X0133533D01*
Y0124370D01*
D02*
G37*
G36*
X0176391Y0215060D02*
X0175295D01*
X0175192Y0215055D01*
X0175112Y0215049D01*
X0175049Y0215043D01*
X0174998Y0215038D01*
X0174964Y0215032D01*
X0174946Y0215026D01*
X0174941D01*
X0174872Y0214998D01*
X0174804Y0214969D01*
X0174752Y0214929D01*
X0174707Y0214889D01*
X0174667Y0214855D01*
X0174644Y0214826D01*
X0174627Y0214804D01*
X0174621Y0214798D01*
X0174581Y0214729D01*
X0174547Y0214661D01*
X0174524Y0214592D01*
X0174513Y0214524D01*
X0174501Y0214467D01*
X0174495Y0214421D01*
Y0214392D01*
Y0214387D01*
Y0214381D01*
X0174507Y0214267D01*
X0174530Y0214164D01*
X0174564Y0214073D01*
X0174598Y0213998D01*
X0174638Y0213941D01*
X0174672Y0213901D01*
X0174695Y0213878D01*
X0174707Y0213867D01*
X0174747Y0213833D01*
X0174798Y0213804D01*
X0174901Y0213764D01*
X0175015Y0213730D01*
X0175129Y0213707D01*
X0175238Y0213696D01*
X0175283Y0213690D01*
X0175323D01*
X0175358Y0213684D01*
X0176391D01*
Y0215060D01*
D02*
G37*
G36*
X0172805Y0215089D02*
X0171589D01*
X0171441Y0215083D01*
X0171315Y0215060D01*
X0171206Y0215032D01*
X0171121Y0215003D01*
X0171052Y0214969D01*
X0171007Y0214941D01*
X0170978Y0214918D01*
X0170967Y0214912D01*
X0170898Y0214844D01*
X0170852Y0214769D01*
X0170818Y0214689D01*
X0170790Y0214621D01*
X0170778Y0214558D01*
X0170773Y0214507D01*
X0170767Y0214472D01*
Y0214467D01*
Y0214461D01*
X0170773Y0214392D01*
X0170784Y0214330D01*
X0170801Y0214267D01*
X0170818Y0214215D01*
X0170835Y0214176D01*
X0170852Y0214141D01*
X0170864Y0214118D01*
X0170870Y0214113D01*
X0170910Y0214061D01*
X0170961Y0214010D01*
X0171012Y0213976D01*
X0171058Y0213941D01*
X0171104Y0213918D01*
X0171138Y0213896D01*
X0171161Y0213890D01*
X0171172Y0213884D01*
X0171252Y0213861D01*
X0171338Y0213844D01*
X0171429Y0213833D01*
X0171515Y0213827D01*
X0171595Y0213821D01*
X0171658Y0213816D01*
X0172805D01*
Y0215089D01*
D02*
G37*
G36*
X0164457Y0215060D02*
X0163361D01*
X0163258Y0215055D01*
X0163178Y0215049D01*
X0163115Y0215043D01*
X0163064Y0215038D01*
X0163030Y0215032D01*
X0163013Y0215026D01*
X0163007D01*
X0162938Y0214998D01*
X0162870Y0214969D01*
X0162819Y0214929D01*
X0162773Y0214889D01*
X0162733Y0214855D01*
X0162710Y0214826D01*
X0162693Y0214804D01*
X0162687Y0214798D01*
X0162647Y0214729D01*
X0162613Y0214661D01*
X0162590Y0214592D01*
X0162579Y0214524D01*
X0162567Y0214467D01*
X0162562Y0214421D01*
Y0214392D01*
Y0214387D01*
Y0214381D01*
X0162573Y0214267D01*
X0162596Y0214164D01*
X0162630Y0214073D01*
X0162664Y0213998D01*
X0162704Y0213941D01*
X0162739Y0213901D01*
X0162761Y0213878D01*
X0162773Y0213867D01*
X0162813Y0213833D01*
X0162864Y0213804D01*
X0162967Y0213764D01*
X0163081Y0213730D01*
X0163195Y0213707D01*
X0163304Y0213696D01*
X0163349Y0213690D01*
X0163390D01*
X0163424Y0213684D01*
X0164457D01*
Y0215060D01*
D02*
G37*
G36*
X0157023D02*
X0156115D01*
X0155995Y0215049D01*
X0155892Y0215043D01*
X0155812Y0215032D01*
X0155755Y0215020D01*
X0155715Y0215015D01*
X0155687Y0215003D01*
X0155681D01*
X0155618Y0214981D01*
X0155567Y0214952D01*
X0155521Y0214918D01*
X0155487Y0214883D01*
X0155458Y0214855D01*
X0155435Y0214826D01*
X0155424Y0214809D01*
X0155418Y0214804D01*
X0155384Y0214746D01*
X0155361Y0214689D01*
X0155344Y0214632D01*
X0155333Y0214581D01*
X0155327Y0214535D01*
X0155321Y0214501D01*
Y0214478D01*
Y0214467D01*
X0155327Y0214392D01*
X0155338Y0214324D01*
X0155356Y0214267D01*
X0155373Y0214221D01*
X0155390Y0214181D01*
X0155407Y0214147D01*
X0155418Y0214130D01*
X0155424Y0214124D01*
X0155464Y0214078D01*
X0155510Y0214038D01*
X0155561Y0214004D01*
X0155607Y0213981D01*
X0155647Y0213959D01*
X0155681Y0213947D01*
X0155704Y0213941D01*
X0155715Y0213936D01*
X0155778Y0213924D01*
X0155852Y0213913D01*
X0155932Y0213907D01*
X0156006Y0213901D01*
X0156081Y0213896D01*
X0157023D01*
Y0215060D01*
D02*
G37*
G36*
Y0213445D02*
X0156006D01*
X0155898Y0213433D01*
X0155801Y0213422D01*
X0155721Y0213410D01*
X0155658Y0213399D01*
X0155612Y0213387D01*
X0155590Y0213382D01*
X0155578Y0213376D01*
X0155510Y0213348D01*
X0155447Y0213313D01*
X0155395Y0213279D01*
X0155350Y0213239D01*
X0155315Y0213205D01*
X0155293Y0213182D01*
X0155275Y0213159D01*
X0155270Y0213153D01*
X0155230Y0213090D01*
X0155201Y0213028D01*
X0155184Y0212965D01*
X0155167Y0212908D01*
X0155161Y0212856D01*
X0155156Y0212817D01*
Y0212794D01*
Y0212782D01*
X0155161Y0212714D01*
X0155167Y0212651D01*
X0155178Y0212594D01*
X0155196Y0212548D01*
X0155213Y0212508D01*
X0155224Y0212474D01*
X0155230Y0212457D01*
X0155236Y0212451D01*
X0155264Y0212405D01*
X0155298Y0212360D01*
X0155327Y0212325D01*
X0155361Y0212297D01*
X0155390Y0212268D01*
X0155407Y0212251D01*
X0155424Y0212245D01*
X0155430Y0212240D01*
X0155475Y0212217D01*
X0155521Y0212194D01*
X0155618Y0212160D01*
X0155658Y0212148D01*
X0155692Y0212143D01*
X0155715Y0212137D01*
X0155721D01*
X0155767Y0212131D01*
X0155818Y0212126D01*
X0155932Y0212120D01*
X0157023D01*
Y0213445D01*
D02*
G37*
%LPD*%
D11*
X0127461Y0109350D02*
X0155709D01*
X0127461Y0101476D02*
Y0109350D01*
Y0101476D02*
X0160335D01*
X0160335Y0105413D02*
X0160335Y0101476D01*
X0168209Y0109350D02*
X0196457D01*
X0168209Y0101476D02*
Y0109350D01*
Y0101476D02*
X0201083D01*
X0201083Y0105413D02*
X0201083Y0101476D01*
X0179035Y0229528D02*
X0179035Y0225590D01*
X0146161D02*
X0179035D01*
X0146161D02*
Y0233465D01*
X0174409D01*
M02*
