G04*
G04 #@! TF.GenerationSoftware,Altium Limited,Altium Designer,21.7.2 (23)*
G04*
G04 Layer_Physical_Order=4*
G04 Layer_Color=16711680*
%FSAX25Y25*%
%MOIN*%
G70*
G04*
G04 #@! TF.SameCoordinates,7A990169-6DC8-41C8-B485-EB3673424C17*
G04*
G04*
G04 #@! TF.FilePolarity,Positive*
G04*
G01*
G75*
%ADD14C,0.03937*%
%ADD15R,0.03937X0.03937*%
%ADD18C,0.05315*%
%ADD19R,0.05315X0.05315*%
%ADD20R,0.03937X0.03937*%
%ADD21C,0.02362*%
G36*
X0185876Y0202817D02*
X0186521Y0202550D01*
X0187101Y0202162D01*
X0187595Y0201668D01*
X0187983Y0201088D01*
X0188250Y0200443D01*
X0188364Y0199871D01*
X0188386Y0199410D01*
Y0199409D01*
X0188386D01*
X0188386Y0199409D01*
Y0132579D01*
Y0132305D01*
X0188176Y0131798D01*
X0187788Y0131411D01*
X0187282Y0131201D01*
X0164079D01*
X0163509Y0131314D01*
X0162971Y0131537D01*
X0162488Y0131860D01*
X0162076Y0132271D01*
X0161753Y0132755D01*
X0161531Y0133292D01*
X0161417Y0133863D01*
Y0143864D01*
X0161519Y0144378D01*
X0161720Y0144861D01*
X0162011Y0145296D01*
X0162381Y0145667D01*
X0162627Y0145831D01*
X0170866D01*
X0171256Y0145908D01*
X0171587Y0146129D01*
X0171808Y0146460D01*
X0171886Y0146850D01*
Y0187500D01*
X0171808Y0187890D01*
X0171587Y0188221D01*
X0171256Y0188442D01*
X0170866Y0188520D01*
X0154331D01*
X0153940Y0188442D01*
X0153610Y0188221D01*
X0153389Y0187890D01*
X0153311Y0187500D01*
Y0148955D01*
D01*
Y0146850D01*
X0153347Y0146673D01*
Y0138090D01*
X0153375Y0137441D01*
X0153347Y0137251D01*
Y0134252D01*
X0153383Y0133877D01*
X0153670Y0133186D01*
X0154199Y0132656D01*
X0154891Y0132369D01*
X0155265Y0132333D01*
X0155266Y0132333D01*
X0155726Y0132333D01*
X0156629Y0132153D01*
X0157480Y0131800D01*
X0158246Y0131289D01*
X0158897Y0130638D01*
X0159409Y0129872D01*
X0159761Y0129021D01*
X0159938Y0128131D01*
X0159941Y0127702D01*
Y0127657D01*
X0159941Y0127657D01*
X0159941Y0127657D01*
X0159941Y0114961D01*
X0159941Y0114588D01*
X0159656Y0113901D01*
X0159130Y0113375D01*
X0158443Y0113090D01*
X0158071Y0113091D01*
X0151181D01*
X0150789Y0113149D01*
X0150111Y0113557D01*
X0149640Y0114194D01*
X0149449Y0114963D01*
X0149508Y0115354D01*
X0149508Y0115354D01*
X0149648Y0115946D01*
X0149752Y0117157D01*
X0149617Y0118365D01*
X0149249Y0119523D01*
X0148663Y0120587D01*
X0147880Y0121517D01*
X0146930Y0122275D01*
X0145851Y0122834D01*
X0145276Y0123031D01*
X0145276Y0123031D01*
X0145275Y0123031D01*
X0139075Y0123031D01*
X0138654Y0122930D01*
X0137798Y0123064D01*
X0137059Y0123516D01*
X0136549Y0124216D01*
X0136448Y0124637D01*
X0136448Y0149114D01*
X0136516Y0149115D01*
X0136516Y0198917D01*
Y0199315D01*
X0136671Y0200094D01*
X0136975Y0200829D01*
X0137417Y0201490D01*
X0137979Y0202052D01*
X0138640Y0202494D01*
X0139374Y0202798D01*
X0140154Y0202953D01*
X0140551D01*
X0184843Y0202953D01*
X0185192Y0202953D01*
X0185876Y0202817D01*
D02*
G37*
D14*
X0146102Y0117854D02*
D03*
X0141102D02*
D03*
Y0112854D02*
D03*
X0155079Y0220472D02*
D03*
X0160079D02*
D03*
X0165079D02*
D03*
X0182283Y0112894D02*
D03*
D15*
X0146102Y0112854D02*
D03*
D18*
X0132087Y0105413D02*
D03*
X0139961D02*
D03*
X0147835D02*
D03*
X0172835D02*
D03*
X0180709D02*
D03*
X0188583D02*
D03*
X0166535Y0229528D02*
D03*
X0158661D02*
D03*
X0150787D02*
D03*
D19*
X0155709Y0105413D02*
D03*
X0196457D02*
D03*
X0174409Y0229528D02*
D03*
D20*
X0170079Y0220472D02*
D03*
X0187284Y0112894D02*
D03*
D21*
X0154528Y0114665D02*
D03*
X0167126Y0140847D02*
D03*
Y0143996D02*
D03*
X0158169Y0140847D02*
D03*
Y0143996D02*
D03*
X0154528Y0117815D02*
D03*
M02*
