M48
;Layer_Color=9474304
;FILE_FORMAT=2:5
INCH
;TYPE=PLATED
T1F00S00C0.01181
T2F00S00C0.02362
T3F00S00C0.03543
%
T01
X0154528Y0114665
Y0117815
X0158169Y0140847
Y0143996
X0167126
Y0140847
T02
X0141102Y0112854
X0146102
Y0117854
X0141102
X0182283Y0112894
X0187284
X0170079Y0220472
X0165079
X0160079
X0155079
T03
X0132087Y0105413
X0139961
X0147835
X0155709
X0172835
X0180709
X0188583
X0196457
X0174409Y0229528
X0166535
X0158661
X0150787
M30
