G04*
G04 #@! TF.GenerationSoftware,Altium Limited,Altium Designer,21.7.2 (23)*
G04*
G04 Layer_Physical_Order=2*
G04 Layer_Color=36540*
%FSAX25Y25*%
%MOIN*%
G70*
G04*
G04 #@! TF.SameCoordinates,7A990169-6DC8-41C8-B485-EB3673424C17*
G04*
G04*
G04 #@! TF.FilePolarity,Positive*
G04*
G01*
G75*
%ADD18C,0.05315*%
%ADD19R,0.05315X0.05315*%
%ADD21C,0.02362*%
%ADD22C,0.07874*%
%ADD23C,0.07087*%
D18*
X0147835Y0105413D02*
D03*
D19*
X0155709D02*
D03*
D21*
X0167126Y0140847D02*
D03*
Y0143996D02*
D03*
D22*
X0169114Y0114862D02*
G03*
X0172441Y0116240I0000000J0004705D01*
G01*
X0164567Y0114862D02*
G03*
X0161713Y0112008I0000000J-0002854D01*
G01*
X0155709Y0105413D02*
G03*
X0161713Y0111417I0000000J0006004D01*
G01*
X0164567Y0114862D02*
X0169114D01*
X0147835Y0105413D02*
X0155709D01*
X0161713Y0111417D02*
Y0112008D01*
D23*
X0164006Y0124016D02*
G03*
X0168996Y0126083I0000000J0007057D01*
G01*
X0160630Y0133465D02*
G03*
X0166732Y0139567I0000000J0006102D01*
G01*
X0172677Y0129764D02*
G03*
X0175606Y0136835I-0007071J0007071D01*
G01*
X0181815Y0125614D02*
G03*
X0184744Y0132685I-0007071J0007071D01*
G01*
X0140551Y0134016D02*
G03*
X0150551Y0124016I0010000J0000000D01*
G01*
X0156299Y0133465D02*
G03*
X0156102Y0133268I0000000J-0000197D01*
G01*
X0184744Y0191279D02*
G03*
X0174744Y0201279I-0010000J0000000D01*
G01*
X0175606Y0187205D02*
G03*
X0170669Y0192142I-0004937J0000000D01*
G01*
X0154528D02*
G03*
X0149591Y0187205I0000000J-0004937D01*
G01*
Y0139779D02*
G03*
X0156102Y0133268I0006512J0000000D01*
G01*
X0150551Y0201279D02*
G03*
X0140551Y0191279I0000000J-0010000D01*
G01*
X0172441Y0116240D02*
X0181815Y0125614D01*
X0150551Y0124016D02*
X0164006D01*
X0168996Y0126083D02*
X0172677Y0129764D01*
X0175606Y0136835D02*
Y0187205D01*
X0184744Y0132685D02*
Y0191279D01*
X0156299Y0133465D02*
X0160630D01*
X0150551Y0201279D02*
X0174744D01*
X0154528Y0192142D02*
X0170669D01*
X0140551Y0134016D02*
Y0191279D01*
X0149591Y0139779D02*
Y0187205D01*
X0166732Y0139567D02*
Y0142028D01*
Y0139567D02*
Y0139567D01*
M02*
