G04*
G04 #@! TF.GenerationSoftware,Altium Limited,Altium Designer,21.7.2 (23)*
G04*
G04 Layer_Color=8388736*
%FSAX25Y25*%
%MOIN*%
G70*
G04*
G04 #@! TF.SameCoordinates,C6185680-9DF1-42B3-8AB4-FD9FEACD6233*
G04*
G04*
G04 #@! TF.FilePolarity,Positive*
G04*
G01*
G75*
%ADD11C,0.00787*%
G36*
X0142215Y0137895D02*
X0142241Y0137891D01*
X0142275Y0137888D01*
X0142312Y0137880D01*
X0142353Y0137869D01*
X0142439Y0137839D01*
X0142484Y0137820D01*
X0142533Y0137798D01*
X0142581Y0137768D01*
X0142626Y0137734D01*
X0142671Y0137697D01*
X0142716Y0137656D01*
X0142720Y0137652D01*
X0142727Y0137645D01*
X0142738Y0137630D01*
X0142750Y0137615D01*
X0142768Y0137589D01*
X0142787Y0137562D01*
X0142809Y0137529D01*
X0142828Y0137491D01*
X0142851Y0137450D01*
X0142873Y0137402D01*
X0142892Y0137353D01*
X0142907Y0137301D01*
X0142922Y0137241D01*
X0142933Y0137181D01*
X0142940Y0137117D01*
X0142944Y0137050D01*
Y0137016D01*
X0142940Y0136994D01*
X0142937Y0136968D01*
X0142933Y0136934D01*
X0142929Y0136897D01*
X0142918Y0136855D01*
X0142895Y0136769D01*
X0142862Y0136676D01*
X0142839Y0136631D01*
X0142813Y0136583D01*
X0142783Y0136538D01*
X0142750Y0136496D01*
X0142746Y0136493D01*
X0142742Y0136489D01*
X0142731Y0136478D01*
X0142712Y0136463D01*
X0142694Y0136444D01*
X0142671Y0136425D01*
X0142641Y0136407D01*
X0142611Y0136384D01*
X0142536Y0136339D01*
X0142447Y0136302D01*
X0142346Y0136268D01*
X0142293Y0136257D01*
X0142234Y0136250D01*
X0142192Y0136560D01*
X0142196D01*
X0142204Y0136564D01*
X0142219Y0136568D01*
X0142237Y0136571D01*
X0142256Y0136575D01*
X0142282Y0136583D01*
X0142338Y0136601D01*
X0142402Y0136627D01*
X0142465Y0136657D01*
X0142525Y0136695D01*
X0142574Y0136740D01*
X0142578Y0136747D01*
X0142593Y0136762D01*
X0142611Y0136788D01*
X0142630Y0136826D01*
X0142652Y0136871D01*
X0142671Y0136923D01*
X0142686Y0136983D01*
X0142690Y0137050D01*
Y0137073D01*
X0142686Y0137087D01*
X0142682Y0137128D01*
X0142671Y0137181D01*
X0142652Y0137237D01*
X0142626Y0137301D01*
X0142589Y0137360D01*
X0142540Y0137420D01*
X0142533Y0137428D01*
X0142514Y0137443D01*
X0142480Y0137469D01*
X0142439Y0137495D01*
X0142383Y0137521D01*
X0142320Y0137547D01*
X0142248Y0137562D01*
X0142170Y0137570D01*
X0142166D01*
X0142159D01*
X0142148D01*
X0142133Y0137566D01*
X0142095Y0137562D01*
X0142047Y0137551D01*
X0141990Y0137536D01*
X0141931Y0137510D01*
X0141875Y0137476D01*
X0141818Y0137428D01*
X0141811Y0137420D01*
X0141796Y0137402D01*
X0141773Y0137372D01*
X0141747Y0137330D01*
X0141725Y0137282D01*
X0141702Y0137222D01*
X0141688Y0137151D01*
X0141680Y0137076D01*
Y0137042D01*
X0141684Y0137016D01*
X0141688Y0136986D01*
X0141695Y0136949D01*
X0141702Y0136908D01*
X0141714Y0136859D01*
X0141441Y0136893D01*
Y0136912D01*
X0141444Y0136927D01*
Y0136975D01*
X0141441Y0137013D01*
X0141433Y0137061D01*
X0141418Y0137117D01*
X0141403Y0137173D01*
X0141377Y0137237D01*
X0141343Y0137297D01*
Y0137301D01*
X0141340Y0137304D01*
X0141325Y0137323D01*
X0141299Y0137349D01*
X0141265Y0137379D01*
X0141220Y0137405D01*
X0141164Y0137432D01*
X0141100Y0137450D01*
X0141063Y0137458D01*
X0141025D01*
X0141022D01*
X0141018D01*
X0140996D01*
X0140966Y0137450D01*
X0140928Y0137443D01*
X0140883Y0137428D01*
X0140835Y0137409D01*
X0140790Y0137379D01*
X0140745Y0137342D01*
X0140741Y0137338D01*
X0140726Y0137319D01*
X0140708Y0137297D01*
X0140689Y0137259D01*
X0140666Y0137218D01*
X0140652Y0137166D01*
X0140637Y0137110D01*
X0140633Y0137042D01*
Y0137013D01*
X0140640Y0136979D01*
X0140648Y0136938D01*
X0140663Y0136889D01*
X0140682Y0136841D01*
X0140711Y0136792D01*
X0140749Y0136743D01*
X0140752Y0136740D01*
X0140771Y0136725D01*
X0140797Y0136702D01*
X0140831Y0136680D01*
X0140880Y0136654D01*
X0140939Y0136627D01*
X0141007Y0136605D01*
X0141085Y0136590D01*
X0141029Y0136280D01*
X0141025D01*
X0141014Y0136283D01*
X0140999Y0136287D01*
X0140977Y0136291D01*
X0140954Y0136298D01*
X0140925Y0136310D01*
X0140854Y0136332D01*
X0140779Y0136366D01*
X0140696Y0136410D01*
X0140622Y0136467D01*
X0140551Y0136534D01*
X0140547Y0136538D01*
X0140543Y0136545D01*
X0140536Y0136556D01*
X0140524Y0136571D01*
X0140509Y0136590D01*
X0140495Y0136612D01*
X0140480Y0136642D01*
X0140464Y0136672D01*
X0140435Y0136743D01*
X0140405Y0136829D01*
X0140386Y0136927D01*
X0140378Y0136979D01*
Y0137069D01*
X0140382Y0137110D01*
X0140390Y0137159D01*
X0140401Y0137218D01*
X0140416Y0137282D01*
X0140438Y0137346D01*
X0140468Y0137413D01*
Y0137417D01*
X0140472Y0137420D01*
X0140483Y0137443D01*
X0140506Y0137473D01*
X0140532Y0137514D01*
X0140566Y0137555D01*
X0140610Y0137600D01*
X0140655Y0137645D01*
X0140711Y0137682D01*
X0140719Y0137686D01*
X0140738Y0137697D01*
X0140768Y0137712D01*
X0140809Y0137731D01*
X0140857Y0137746D01*
X0140910Y0137761D01*
X0140969Y0137772D01*
X0141033Y0137776D01*
X0141041D01*
X0141059D01*
X0141093Y0137772D01*
X0141130Y0137764D01*
X0141179Y0137753D01*
X0141227Y0137738D01*
X0141280Y0137716D01*
X0141332Y0137686D01*
X0141340Y0137682D01*
X0141355Y0137671D01*
X0141377Y0137648D01*
X0141407Y0137622D01*
X0141441Y0137585D01*
X0141474Y0137540D01*
X0141512Y0137488D01*
X0141542Y0137428D01*
Y0137432D01*
X0141545Y0137439D01*
X0141549Y0137450D01*
X0141553Y0137465D01*
X0141568Y0137503D01*
X0141586Y0137555D01*
X0141616Y0137607D01*
X0141654Y0137667D01*
X0141699Y0137723D01*
X0141755Y0137772D01*
X0141762Y0137776D01*
X0141785Y0137791D01*
X0141818Y0137813D01*
X0141867Y0137835D01*
X0141923Y0137858D01*
X0141994Y0137880D01*
X0142073Y0137895D01*
X0142159Y0137899D01*
X0142163D01*
X0142174D01*
X0142189D01*
X0142215Y0137895D01*
D02*
G37*
G36*
X0142237Y0135913D02*
X0142282Y0135909D01*
X0142334Y0135898D01*
X0142391Y0135887D01*
X0142447Y0135868D01*
X0142507Y0135842D01*
X0142514Y0135838D01*
X0142533Y0135827D01*
X0142559Y0135812D01*
X0142593Y0135790D01*
X0142630Y0135763D01*
X0142667Y0135733D01*
X0142705Y0135696D01*
X0142738Y0135655D01*
X0142742Y0135651D01*
X0142753Y0135636D01*
X0142768Y0135610D01*
X0142783Y0135580D01*
X0142806Y0135539D01*
X0142824Y0135494D01*
X0142843Y0135438D01*
X0142862Y0135378D01*
Y0135371D01*
X0142869Y0135348D01*
X0142873Y0135315D01*
X0142881Y0135266D01*
X0142888Y0135206D01*
X0142895Y0135139D01*
X0142899Y0135060D01*
X0142903Y0134974D01*
Y0134017D01*
X0140386D01*
Y0135008D01*
X0140390Y0135030D01*
Y0135060D01*
X0140397Y0135124D01*
X0140405Y0135199D01*
X0140420Y0135274D01*
X0140438Y0135352D01*
X0140464Y0135419D01*
Y0135423D01*
X0140468Y0135427D01*
X0140480Y0135449D01*
X0140498Y0135479D01*
X0140521Y0135520D01*
X0140554Y0135565D01*
X0140595Y0135610D01*
X0140644Y0135651D01*
X0140700Y0135692D01*
X0140708Y0135696D01*
X0140726Y0135707D01*
X0140760Y0135726D01*
X0140801Y0135745D01*
X0140850Y0135760D01*
X0140906Y0135778D01*
X0140969Y0135790D01*
X0141033Y0135793D01*
X0141041D01*
X0141059D01*
X0141093Y0135790D01*
X0141130Y0135782D01*
X0141179Y0135771D01*
X0141227Y0135756D01*
X0141284Y0135733D01*
X0141336Y0135704D01*
X0141343Y0135700D01*
X0141358Y0135689D01*
X0141385Y0135666D01*
X0141418Y0135640D01*
X0141456Y0135603D01*
X0141493Y0135554D01*
X0141530Y0135502D01*
X0141564Y0135438D01*
Y0135442D01*
X0141568Y0135449D01*
X0141572Y0135460D01*
X0141575Y0135476D01*
X0141594Y0135517D01*
X0141616Y0135569D01*
X0141650Y0135625D01*
X0141691Y0135681D01*
X0141740Y0135741D01*
X0141796Y0135790D01*
X0141804Y0135793D01*
X0141826Y0135808D01*
X0141860Y0135831D01*
X0141904Y0135853D01*
X0141961Y0135876D01*
X0142024Y0135898D01*
X0142095Y0135913D01*
X0142174Y0135917D01*
X0142177D01*
X0142181D01*
X0142204D01*
X0142237Y0135913D01*
D02*
G37*
G36*
X0142125Y0133617D02*
X0142144Y0133609D01*
X0142174Y0133602D01*
X0142207Y0133587D01*
X0142248Y0133572D01*
X0142290Y0133557D01*
X0142338Y0133534D01*
X0142439Y0133482D01*
X0142540Y0133419D01*
X0142593Y0133377D01*
X0142641Y0133336D01*
X0142690Y0133291D01*
X0142731Y0133243D01*
X0142735Y0133239D01*
X0142738Y0133231D01*
X0142750Y0133217D01*
X0142765Y0133194D01*
X0142780Y0133168D01*
X0142798Y0133134D01*
X0142817Y0133101D01*
X0142836Y0133056D01*
X0142858Y0133011D01*
X0142877Y0132958D01*
X0142895Y0132906D01*
X0142911Y0132846D01*
X0142926Y0132783D01*
X0142937Y0132719D01*
X0142940Y0132648D01*
X0142944Y0132577D01*
Y0132540D01*
X0142940Y0132510D01*
Y0132476D01*
X0142937Y0132435D01*
X0142929Y0132390D01*
X0142922Y0132341D01*
X0142903Y0132237D01*
X0142873Y0132124D01*
X0142832Y0132016D01*
X0142809Y0131964D01*
X0142780Y0131915D01*
X0142776Y0131911D01*
X0142772Y0131904D01*
X0142761Y0131893D01*
X0142750Y0131874D01*
X0142731Y0131851D01*
X0142712Y0131829D01*
X0142656Y0131773D01*
X0142589Y0131709D01*
X0142507Y0131642D01*
X0142413Y0131582D01*
X0142301Y0131526D01*
X0142297D01*
X0142286Y0131522D01*
X0142271Y0131515D01*
X0142245Y0131507D01*
X0142219Y0131496D01*
X0142181Y0131485D01*
X0142144Y0131474D01*
X0142099Y0131462D01*
X0142050Y0131448D01*
X0141998Y0131436D01*
X0141882Y0131418D01*
X0141759Y0131403D01*
X0141624Y0131395D01*
X0141620D01*
X0141605D01*
X0141586D01*
X0141557Y0131399D01*
X0141523D01*
X0141486Y0131403D01*
X0141441Y0131406D01*
X0141392Y0131414D01*
X0141284Y0131432D01*
X0141168Y0131459D01*
X0141052Y0131496D01*
X0140939Y0131545D01*
X0140936D01*
X0140928Y0131552D01*
X0140913Y0131560D01*
X0140891Y0131571D01*
X0140868Y0131590D01*
X0140839Y0131608D01*
X0140775Y0131653D01*
X0140704Y0131713D01*
X0140629Y0131788D01*
X0140558Y0131874D01*
X0140495Y0131971D01*
Y0131975D01*
X0140487Y0131982D01*
X0140480Y0131997D01*
X0140472Y0132020D01*
X0140457Y0132046D01*
X0140446Y0132076D01*
X0140431Y0132113D01*
X0140416Y0132151D01*
X0140405Y0132195D01*
X0140390Y0132240D01*
X0140364Y0132345D01*
X0140349Y0132457D01*
X0140341Y0132581D01*
Y0132618D01*
X0140345Y0132644D01*
X0140349Y0132678D01*
X0140352Y0132715D01*
X0140356Y0132756D01*
X0140364Y0132805D01*
X0140390Y0132902D01*
X0140423Y0133011D01*
X0140446Y0133063D01*
X0140472Y0133115D01*
X0140502Y0133168D01*
X0140536Y0133217D01*
X0140539Y0133220D01*
X0140543Y0133228D01*
X0140554Y0133243D01*
X0140569Y0133258D01*
X0140592Y0133280D01*
X0140614Y0133302D01*
X0140644Y0133329D01*
X0140674Y0133359D01*
X0140711Y0133389D01*
X0140752Y0133419D01*
X0140794Y0133448D01*
X0140842Y0133478D01*
X0140895Y0133508D01*
X0140951Y0133534D01*
X0141011Y0133557D01*
X0141074Y0133579D01*
X0141153Y0133250D01*
X0141149D01*
X0141141Y0133246D01*
X0141127Y0133243D01*
X0141108Y0133235D01*
X0141085Y0133224D01*
X0141059Y0133213D01*
X0140999Y0133183D01*
X0140936Y0133149D01*
X0140868Y0133104D01*
X0140805Y0133052D01*
X0140752Y0132992D01*
X0140749Y0132985D01*
X0140734Y0132962D01*
X0140711Y0132929D01*
X0140689Y0132880D01*
X0140666Y0132820D01*
X0140644Y0132749D01*
X0140629Y0132667D01*
X0140625Y0132577D01*
Y0132547D01*
X0140629Y0132528D01*
Y0132502D01*
X0140633Y0132476D01*
X0140644Y0132409D01*
X0140659Y0132330D01*
X0140685Y0132248D01*
X0140719Y0132169D01*
X0140768Y0132091D01*
Y0132087D01*
X0140775Y0132083D01*
X0140794Y0132061D01*
X0140824Y0132024D01*
X0140865Y0131982D01*
X0140921Y0131937D01*
X0140984Y0131893D01*
X0141059Y0131851D01*
X0141141Y0131818D01*
X0141145D01*
X0141153Y0131814D01*
X0141164Y0131810D01*
X0141183Y0131807D01*
X0141201Y0131799D01*
X0141227Y0131792D01*
X0141287Y0131780D01*
X0141362Y0131765D01*
X0141444Y0131750D01*
X0141530Y0131743D01*
X0141624Y0131739D01*
X0141628D01*
X0141639D01*
X0141654D01*
X0141676D01*
X0141706Y0131743D01*
X0141740D01*
X0141773Y0131747D01*
X0141815Y0131750D01*
X0141901Y0131762D01*
X0141998Y0131780D01*
X0142091Y0131803D01*
X0142185Y0131833D01*
X0142189D01*
X0142196Y0131836D01*
X0142207Y0131844D01*
X0142222Y0131851D01*
X0142267Y0131874D01*
X0142320Y0131904D01*
X0142379Y0131945D01*
X0142436Y0131993D01*
X0142495Y0132053D01*
X0142544Y0132121D01*
Y0132124D01*
X0142548Y0132128D01*
X0142555Y0132139D01*
X0142563Y0132154D01*
X0142581Y0132195D01*
X0142600Y0132248D01*
X0142622Y0132311D01*
X0142641Y0132386D01*
X0142656Y0132465D01*
X0142660Y0132551D01*
Y0132577D01*
X0142656Y0132596D01*
Y0132622D01*
X0142652Y0132648D01*
X0142641Y0132715D01*
X0142619Y0132786D01*
X0142593Y0132865D01*
X0142552Y0132947D01*
X0142529Y0132985D01*
X0142499Y0133022D01*
X0142495Y0133026D01*
X0142492Y0133029D01*
X0142480Y0133041D01*
X0142469Y0133052D01*
X0142450Y0133071D01*
X0142432Y0133086D01*
X0142379Y0133127D01*
X0142312Y0133172D01*
X0142230Y0133217D01*
X0142133Y0133258D01*
X0142020Y0133288D01*
X0142106Y0133620D01*
X0142110D01*
X0142125Y0133617D01*
D02*
G37*
G36*
X0141168Y0131062D02*
X0141198Y0131059D01*
X0141227Y0131055D01*
X0141265Y0131047D01*
X0141302Y0131040D01*
X0141388Y0131017D01*
X0141478Y0130980D01*
X0141527Y0130957D01*
X0141572Y0130928D01*
X0141616Y0130898D01*
X0141658Y0130860D01*
X0141661Y0130857D01*
X0141669Y0130849D01*
X0141676Y0130838D01*
X0141691Y0130819D01*
X0141710Y0130797D01*
X0141729Y0130767D01*
X0141747Y0130733D01*
X0141766Y0130692D01*
X0141788Y0130643D01*
X0141807Y0130591D01*
X0141826Y0130531D01*
X0141845Y0130464D01*
X0141860Y0130389D01*
X0141867Y0130307D01*
X0141875Y0130221D01*
X0141878Y0130123D01*
Y0129480D01*
X0142903D01*
Y0129147D01*
X0140386D01*
Y0130180D01*
X0140390Y0130236D01*
X0140393Y0130296D01*
X0140397Y0130359D01*
X0140405Y0130423D01*
X0140412Y0130475D01*
Y0130483D01*
X0140420Y0130505D01*
X0140427Y0130542D01*
X0140438Y0130584D01*
X0140453Y0130632D01*
X0140472Y0130684D01*
X0140498Y0130737D01*
X0140528Y0130786D01*
X0140532Y0130793D01*
X0140543Y0130808D01*
X0140562Y0130830D01*
X0140592Y0130860D01*
X0140625Y0130890D01*
X0140666Y0130924D01*
X0140715Y0130957D01*
X0140771Y0130988D01*
X0140779Y0130991D01*
X0140797Y0130999D01*
X0140831Y0131014D01*
X0140872Y0131029D01*
X0140925Y0131040D01*
X0140981Y0131055D01*
X0141048Y0131062D01*
X0141115Y0131066D01*
X0141119D01*
X0141130D01*
X0141145D01*
X0141168Y0131062D01*
D02*
G37*
G36*
X0143602Y0126866D02*
X0143378D01*
Y0128912D01*
X0143602D01*
Y0126866D01*
D02*
G37*
G36*
X0142125Y0126776D02*
X0142144Y0126769D01*
X0142174Y0126761D01*
X0142207Y0126746D01*
X0142248Y0126731D01*
X0142290Y0126716D01*
X0142338Y0126694D01*
X0142439Y0126642D01*
X0142540Y0126578D01*
X0142593Y0126537D01*
X0142641Y0126496D01*
X0142690Y0126451D01*
X0142731Y0126402D01*
X0142735Y0126399D01*
X0142738Y0126391D01*
X0142750Y0126376D01*
X0142765Y0126354D01*
X0142780Y0126327D01*
X0142798Y0126294D01*
X0142817Y0126260D01*
X0142836Y0126215D01*
X0142858Y0126170D01*
X0142877Y0126118D01*
X0142895Y0126066D01*
X0142911Y0126006D01*
X0142926Y0125942D01*
X0142937Y0125879D01*
X0142940Y0125808D01*
X0142944Y0125736D01*
Y0125699D01*
X0142940Y0125669D01*
Y0125636D01*
X0142937Y0125594D01*
X0142929Y0125549D01*
X0142922Y0125501D01*
X0142903Y0125396D01*
X0142873Y0125284D01*
X0142832Y0125175D01*
X0142809Y0125123D01*
X0142780Y0125075D01*
X0142776Y0125071D01*
X0142772Y0125063D01*
X0142761Y0125052D01*
X0142750Y0125033D01*
X0142731Y0125011D01*
X0142712Y0124988D01*
X0142656Y0124932D01*
X0142589Y0124869D01*
X0142507Y0124802D01*
X0142413Y0124742D01*
X0142301Y0124686D01*
X0142297D01*
X0142286Y0124682D01*
X0142271Y0124674D01*
X0142245Y0124667D01*
X0142219Y0124656D01*
X0142181Y0124644D01*
X0142144Y0124633D01*
X0142099Y0124622D01*
X0142050Y0124607D01*
X0141998Y0124596D01*
X0141882Y0124577D01*
X0141759Y0124562D01*
X0141624Y0124555D01*
X0141620D01*
X0141605D01*
X0141586D01*
X0141557Y0124558D01*
X0141523D01*
X0141486Y0124562D01*
X0141441Y0124566D01*
X0141392Y0124573D01*
X0141284Y0124592D01*
X0141168Y0124618D01*
X0141052Y0124656D01*
X0140939Y0124704D01*
X0140936D01*
X0140928Y0124712D01*
X0140913Y0124719D01*
X0140891Y0124730D01*
X0140868Y0124749D01*
X0140839Y0124768D01*
X0140775Y0124813D01*
X0140704Y0124873D01*
X0140629Y0124947D01*
X0140558Y0125033D01*
X0140495Y0125131D01*
Y0125134D01*
X0140487Y0125142D01*
X0140480Y0125157D01*
X0140472Y0125179D01*
X0140457Y0125205D01*
X0140446Y0125235D01*
X0140431Y0125273D01*
X0140416Y0125310D01*
X0140405Y0125355D01*
X0140390Y0125400D01*
X0140364Y0125505D01*
X0140349Y0125617D01*
X0140341Y0125740D01*
Y0125778D01*
X0140345Y0125804D01*
X0140349Y0125838D01*
X0140352Y0125875D01*
X0140356Y0125916D01*
X0140364Y0125965D01*
X0140390Y0126062D01*
X0140423Y0126170D01*
X0140446Y0126223D01*
X0140472Y0126275D01*
X0140502Y0126327D01*
X0140536Y0126376D01*
X0140539Y0126380D01*
X0140543Y0126387D01*
X0140554Y0126402D01*
X0140569Y0126417D01*
X0140592Y0126440D01*
X0140614Y0126462D01*
X0140644Y0126488D01*
X0140674Y0126518D01*
X0140711Y0126548D01*
X0140752Y0126578D01*
X0140794Y0126608D01*
X0140842Y0126638D01*
X0140895Y0126668D01*
X0140951Y0126694D01*
X0141011Y0126716D01*
X0141074Y0126739D01*
X0141153Y0126410D01*
X0141149D01*
X0141141Y0126406D01*
X0141127Y0126402D01*
X0141108Y0126395D01*
X0141085Y0126383D01*
X0141059Y0126372D01*
X0140999Y0126342D01*
X0140936Y0126309D01*
X0140868Y0126264D01*
X0140805Y0126212D01*
X0140752Y0126152D01*
X0140749Y0126144D01*
X0140734Y0126122D01*
X0140711Y0126088D01*
X0140689Y0126040D01*
X0140666Y0125980D01*
X0140644Y0125909D01*
X0140629Y0125826D01*
X0140625Y0125736D01*
Y0125707D01*
X0140629Y0125688D01*
Y0125662D01*
X0140633Y0125636D01*
X0140644Y0125568D01*
X0140659Y0125490D01*
X0140685Y0125407D01*
X0140719Y0125329D01*
X0140768Y0125250D01*
Y0125247D01*
X0140775Y0125243D01*
X0140794Y0125220D01*
X0140824Y0125183D01*
X0140865Y0125142D01*
X0140921Y0125097D01*
X0140984Y0125052D01*
X0141059Y0125011D01*
X0141141Y0124977D01*
X0141145D01*
X0141153Y0124974D01*
X0141164Y0124970D01*
X0141183Y0124966D01*
X0141201Y0124959D01*
X0141227Y0124951D01*
X0141287Y0124940D01*
X0141362Y0124925D01*
X0141444Y0124910D01*
X0141530Y0124902D01*
X0141624Y0124899D01*
X0141628D01*
X0141639D01*
X0141654D01*
X0141676D01*
X0141706Y0124902D01*
X0141740D01*
X0141773Y0124906D01*
X0141815Y0124910D01*
X0141901Y0124921D01*
X0141998Y0124940D01*
X0142091Y0124962D01*
X0142185Y0124992D01*
X0142189D01*
X0142196Y0124996D01*
X0142207Y0125004D01*
X0142222Y0125011D01*
X0142267Y0125033D01*
X0142320Y0125063D01*
X0142379Y0125104D01*
X0142436Y0125153D01*
X0142495Y0125213D01*
X0142544Y0125280D01*
Y0125284D01*
X0142548Y0125288D01*
X0142555Y0125299D01*
X0142563Y0125314D01*
X0142581Y0125355D01*
X0142600Y0125407D01*
X0142622Y0125471D01*
X0142641Y0125546D01*
X0142656Y0125624D01*
X0142660Y0125710D01*
Y0125736D01*
X0142656Y0125755D01*
Y0125781D01*
X0142652Y0125808D01*
X0142641Y0125875D01*
X0142619Y0125946D01*
X0142593Y0126024D01*
X0142552Y0126107D01*
X0142529Y0126144D01*
X0142499Y0126182D01*
X0142495Y0126185D01*
X0142492Y0126189D01*
X0142480Y0126200D01*
X0142469Y0126212D01*
X0142450Y0126230D01*
X0142432Y0126245D01*
X0142379Y0126286D01*
X0142312Y0126331D01*
X0142230Y0126376D01*
X0142133Y0126417D01*
X0142020Y0126447D01*
X0142106Y0126780D01*
X0142110D01*
X0142125Y0126776D01*
D02*
G37*
G36*
X0142903Y0123422D02*
X0140939D01*
X0140943Y0123418D01*
X0140958Y0123403D01*
X0140977Y0123377D01*
X0141007Y0123343D01*
X0141037Y0123302D01*
X0141074Y0123249D01*
X0141112Y0123190D01*
X0141153Y0123126D01*
Y0123122D01*
X0141156Y0123118D01*
X0141171Y0123096D01*
X0141190Y0123062D01*
X0141212Y0123018D01*
X0141239Y0122969D01*
X0141261Y0122917D01*
X0141287Y0122860D01*
X0141310Y0122804D01*
X0141011D01*
Y0122808D01*
X0141007Y0122816D01*
X0140999Y0122830D01*
X0140988Y0122849D01*
X0140977Y0122872D01*
X0140962Y0122898D01*
X0140928Y0122958D01*
X0140887Y0123029D01*
X0140839Y0123103D01*
X0140782Y0123178D01*
X0140719Y0123253D01*
X0140715Y0123257D01*
X0140711Y0123261D01*
X0140689Y0123287D01*
X0140655Y0123320D01*
X0140610Y0123362D01*
X0140558Y0123407D01*
X0140502Y0123451D01*
X0140442Y0123496D01*
X0140378Y0123530D01*
Y0123732D01*
X0142903D01*
Y0123422D01*
D02*
G37*
G36*
X0142125Y0122281D02*
X0142144Y0122273D01*
X0142174Y0122266D01*
X0142207Y0122251D01*
X0142248Y0122236D01*
X0142290Y0122221D01*
X0142338Y0122198D01*
X0142439Y0122146D01*
X0142540Y0122082D01*
X0142593Y0122041D01*
X0142641Y0122000D01*
X0142690Y0121955D01*
X0142731Y0121907D01*
X0142735Y0121903D01*
X0142738Y0121896D01*
X0142750Y0121881D01*
X0142765Y0121858D01*
X0142780Y0121832D01*
X0142798Y0121798D01*
X0142817Y0121765D01*
X0142836Y0121720D01*
X0142858Y0121675D01*
X0142877Y0121623D01*
X0142895Y0121570D01*
X0142911Y0121510D01*
X0142926Y0121447D01*
X0142937Y0121383D01*
X0142940Y0121312D01*
X0142944Y0121241D01*
Y0121204D01*
X0142940Y0121174D01*
Y0121140D01*
X0142937Y0121099D01*
X0142929Y0121054D01*
X0142922Y0121005D01*
X0142903Y0120901D01*
X0142873Y0120789D01*
X0142832Y0120680D01*
X0142809Y0120628D01*
X0142780Y0120579D01*
X0142776Y0120575D01*
X0142772Y0120568D01*
X0142761Y0120557D01*
X0142750Y0120538D01*
X0142731Y0120516D01*
X0142712Y0120493D01*
X0142656Y0120437D01*
X0142589Y0120373D01*
X0142507Y0120306D01*
X0142413Y0120246D01*
X0142301Y0120190D01*
X0142297D01*
X0142286Y0120186D01*
X0142271Y0120179D01*
X0142245Y0120171D01*
X0142219Y0120160D01*
X0142181Y0120149D01*
X0142144Y0120138D01*
X0142099Y0120126D01*
X0142050Y0120112D01*
X0141998Y0120100D01*
X0141882Y0120082D01*
X0141759Y0120067D01*
X0141624Y0120059D01*
X0141620D01*
X0141605D01*
X0141586D01*
X0141557Y0120063D01*
X0141523D01*
X0141486Y0120067D01*
X0141441Y0120070D01*
X0141392Y0120078D01*
X0141284Y0120097D01*
X0141168Y0120123D01*
X0141052Y0120160D01*
X0140939Y0120209D01*
X0140936D01*
X0140928Y0120216D01*
X0140913Y0120224D01*
X0140891Y0120235D01*
X0140868Y0120254D01*
X0140839Y0120272D01*
X0140775Y0120317D01*
X0140704Y0120377D01*
X0140629Y0120452D01*
X0140558Y0120538D01*
X0140495Y0120635D01*
Y0120639D01*
X0140487Y0120646D01*
X0140480Y0120661D01*
X0140472Y0120684D01*
X0140457Y0120710D01*
X0140446Y0120740D01*
X0140431Y0120777D01*
X0140416Y0120815D01*
X0140405Y0120860D01*
X0140390Y0120904D01*
X0140364Y0121009D01*
X0140349Y0121121D01*
X0140341Y0121245D01*
Y0121282D01*
X0140345Y0121308D01*
X0140349Y0121342D01*
X0140352Y0121379D01*
X0140356Y0121421D01*
X0140364Y0121469D01*
X0140390Y0121566D01*
X0140423Y0121675D01*
X0140446Y0121727D01*
X0140472Y0121780D01*
X0140502Y0121832D01*
X0140536Y0121881D01*
X0140539Y0121884D01*
X0140543Y0121892D01*
X0140554Y0121907D01*
X0140569Y0121922D01*
X0140592Y0121944D01*
X0140614Y0121967D01*
X0140644Y0121993D01*
X0140674Y0122023D01*
X0140711Y0122053D01*
X0140752Y0122082D01*
X0140794Y0122112D01*
X0140842Y0122142D01*
X0140895Y0122172D01*
X0140951Y0122198D01*
X0141011Y0122221D01*
X0141074Y0122243D01*
X0141153Y0121914D01*
X0141149D01*
X0141141Y0121911D01*
X0141127Y0121907D01*
X0141108Y0121899D01*
X0141085Y0121888D01*
X0141059Y0121877D01*
X0140999Y0121847D01*
X0140936Y0121813D01*
X0140868Y0121768D01*
X0140805Y0121716D01*
X0140752Y0121656D01*
X0140749Y0121649D01*
X0140734Y0121626D01*
X0140711Y0121593D01*
X0140689Y0121544D01*
X0140666Y0121484D01*
X0140644Y0121413D01*
X0140629Y0121331D01*
X0140625Y0121241D01*
Y0121211D01*
X0140629Y0121192D01*
Y0121166D01*
X0140633Y0121140D01*
X0140644Y0121073D01*
X0140659Y0120994D01*
X0140685Y0120912D01*
X0140719Y0120833D01*
X0140768Y0120755D01*
Y0120751D01*
X0140775Y0120747D01*
X0140794Y0120725D01*
X0140824Y0120687D01*
X0140865Y0120646D01*
X0140921Y0120601D01*
X0140984Y0120557D01*
X0141059Y0120516D01*
X0141141Y0120482D01*
X0141145D01*
X0141153Y0120478D01*
X0141164Y0120474D01*
X0141183Y0120471D01*
X0141201Y0120463D01*
X0141227Y0120456D01*
X0141287Y0120444D01*
X0141362Y0120429D01*
X0141444Y0120414D01*
X0141530Y0120407D01*
X0141624Y0120403D01*
X0141628D01*
X0141639D01*
X0141654D01*
X0141676D01*
X0141706Y0120407D01*
X0141740D01*
X0141773Y0120411D01*
X0141815Y0120414D01*
X0141901Y0120426D01*
X0141998Y0120444D01*
X0142091Y0120467D01*
X0142185Y0120497D01*
X0142189D01*
X0142196Y0120501D01*
X0142207Y0120508D01*
X0142222Y0120516D01*
X0142267Y0120538D01*
X0142320Y0120568D01*
X0142379Y0120609D01*
X0142436Y0120658D01*
X0142495Y0120717D01*
X0142544Y0120785D01*
Y0120789D01*
X0142548Y0120792D01*
X0142555Y0120803D01*
X0142563Y0120818D01*
X0142581Y0120860D01*
X0142600Y0120912D01*
X0142622Y0120975D01*
X0142641Y0121050D01*
X0142656Y0121129D01*
X0142660Y0121215D01*
Y0121241D01*
X0142656Y0121260D01*
Y0121286D01*
X0142652Y0121312D01*
X0142641Y0121379D01*
X0142619Y0121450D01*
X0142593Y0121529D01*
X0142552Y0121611D01*
X0142529Y0121649D01*
X0142499Y0121686D01*
X0142495Y0121690D01*
X0142492Y0121694D01*
X0142480Y0121705D01*
X0142469Y0121716D01*
X0142450Y0121735D01*
X0142432Y0121750D01*
X0142379Y0121791D01*
X0142312Y0121836D01*
X0142230Y0121881D01*
X0142133Y0121922D01*
X0142020Y0121952D01*
X0142106Y0122284D01*
X0142110D01*
X0142125Y0122281D01*
D02*
G37*
G36*
X0142903Y0117815D02*
X0140386D01*
Y0119637D01*
X0140682D01*
Y0118148D01*
X0141452D01*
Y0119543D01*
X0141747D01*
Y0118148D01*
X0142608D01*
Y0119696D01*
X0142903D01*
Y0117815D01*
D02*
G37*
G36*
X0142267Y0117348D02*
X0142316Y0117340D01*
X0142376Y0117325D01*
X0142439Y0117306D01*
X0142507Y0117277D01*
X0142574Y0117239D01*
X0142578D01*
X0142581Y0117236D01*
X0142604Y0117217D01*
X0142634Y0117191D01*
X0142675Y0117153D01*
X0142716Y0117108D01*
X0142765Y0117049D01*
X0142806Y0116985D01*
X0142847Y0116906D01*
Y0116903D01*
X0142851Y0116895D01*
X0142854Y0116884D01*
X0142862Y0116869D01*
X0142869Y0116850D01*
X0142877Y0116824D01*
X0142895Y0116768D01*
X0142914Y0116693D01*
X0142929Y0116615D01*
X0142940Y0116521D01*
X0142944Y0116424D01*
Y0116368D01*
X0142940Y0116338D01*
Y0116304D01*
X0142937Y0116267D01*
X0142933Y0116226D01*
X0142922Y0116136D01*
X0142903Y0116039D01*
X0142881Y0115942D01*
X0142847Y0115852D01*
Y0115848D01*
X0142843Y0115840D01*
X0142836Y0115829D01*
X0142828Y0115814D01*
X0142806Y0115773D01*
X0142772Y0115721D01*
X0142731Y0115661D01*
X0142679Y0115601D01*
X0142619Y0115541D01*
X0142548Y0115489D01*
X0142544D01*
X0142540Y0115485D01*
X0142529Y0115478D01*
X0142510Y0115470D01*
X0142492Y0115459D01*
X0142469Y0115448D01*
X0142413Y0115422D01*
X0142346Y0115399D01*
X0142271Y0115377D01*
X0142185Y0115362D01*
X0142091Y0115354D01*
X0142065Y0115668D01*
X0142069D01*
X0142073D01*
X0142095Y0115672D01*
X0142133Y0115680D01*
X0142177Y0115687D01*
X0142226Y0115702D01*
X0142278Y0115721D01*
X0142331Y0115743D01*
X0142379Y0115769D01*
X0142383Y0115773D01*
X0142398Y0115784D01*
X0142421Y0115803D01*
X0142447Y0115833D01*
X0142480Y0115867D01*
X0142510Y0115911D01*
X0142544Y0115964D01*
X0142574Y0116024D01*
Y0116027D01*
X0142578Y0116031D01*
X0142585Y0116054D01*
X0142596Y0116091D01*
X0142611Y0116136D01*
X0142626Y0116192D01*
X0142638Y0116259D01*
X0142645Y0116330D01*
X0142649Y0116409D01*
Y0116443D01*
X0142645Y0116476D01*
X0142641Y0116521D01*
X0142634Y0116574D01*
X0142626Y0116630D01*
X0142611Y0116686D01*
X0142593Y0116742D01*
X0142589Y0116749D01*
X0142581Y0116764D01*
X0142570Y0116790D01*
X0142552Y0116824D01*
X0142529Y0116858D01*
X0142503Y0116895D01*
X0142473Y0116929D01*
X0142439Y0116959D01*
X0142436Y0116963D01*
X0142421Y0116970D01*
X0142402Y0116981D01*
X0142376Y0116996D01*
X0142342Y0117011D01*
X0142305Y0117022D01*
X0142263Y0117030D01*
X0142222Y0117034D01*
X0142219D01*
X0142204D01*
X0142181Y0117030D01*
X0142151Y0117026D01*
X0142118Y0117019D01*
X0142084Y0117004D01*
X0142050Y0116989D01*
X0142017Y0116966D01*
X0142013Y0116963D01*
X0142002Y0116955D01*
X0141987Y0116936D01*
X0141964Y0116914D01*
X0141942Y0116880D01*
X0141916Y0116843D01*
X0141890Y0116794D01*
X0141867Y0116738D01*
X0141863Y0116734D01*
X0141860Y0116716D01*
X0141848Y0116690D01*
X0141845Y0116667D01*
X0141837Y0116645D01*
X0141830Y0116615D01*
X0141818Y0116585D01*
X0141807Y0116547D01*
X0141796Y0116506D01*
X0141785Y0116461D01*
X0141773Y0116409D01*
X0141759Y0116353D01*
X0141744Y0116289D01*
Y0116286D01*
X0141740Y0116274D01*
X0141736Y0116256D01*
X0141729Y0116233D01*
X0141721Y0116203D01*
X0141714Y0116173D01*
X0141691Y0116098D01*
X0141669Y0116016D01*
X0141643Y0115938D01*
X0141616Y0115863D01*
X0141602Y0115833D01*
X0141586Y0115803D01*
Y0115799D01*
X0141583Y0115796D01*
X0141568Y0115773D01*
X0141549Y0115743D01*
X0141523Y0115702D01*
X0141489Y0115657D01*
X0141448Y0115612D01*
X0141403Y0115571D01*
X0141355Y0115534D01*
X0141347Y0115530D01*
X0141329Y0115519D01*
X0141299Y0115508D01*
X0141261Y0115493D01*
X0141216Y0115474D01*
X0141160Y0115463D01*
X0141100Y0115452D01*
X0141037Y0115448D01*
X0141033D01*
X0141029D01*
X0141018D01*
X0141003D01*
X0140969Y0115455D01*
X0140921Y0115463D01*
X0140865Y0115474D01*
X0140805Y0115493D01*
X0140745Y0115519D01*
X0140682Y0115552D01*
X0140678D01*
X0140674Y0115556D01*
X0140655Y0115571D01*
X0140625Y0115597D01*
X0140588Y0115635D01*
X0140547Y0115680D01*
X0140502Y0115732D01*
X0140461Y0115796D01*
X0140427Y0115870D01*
Y0115874D01*
X0140423Y0115882D01*
X0140420Y0115893D01*
X0140412Y0115908D01*
X0140408Y0115927D01*
X0140401Y0115949D01*
X0140382Y0116005D01*
X0140367Y0116076D01*
X0140356Y0116155D01*
X0140345Y0116241D01*
X0140341Y0116330D01*
Y0116379D01*
X0140345Y0116402D01*
Y0116431D01*
X0140352Y0116499D01*
X0140364Y0116574D01*
X0140382Y0116656D01*
X0140405Y0116742D01*
X0140435Y0116824D01*
Y0116828D01*
X0140438Y0116835D01*
X0140442Y0116847D01*
X0140450Y0116861D01*
X0140472Y0116899D01*
X0140502Y0116947D01*
X0140539Y0117000D01*
X0140584Y0117056D01*
X0140637Y0117108D01*
X0140700Y0117153D01*
X0140708Y0117157D01*
X0140730Y0117172D01*
X0140768Y0117191D01*
X0140812Y0117213D01*
X0140872Y0117236D01*
X0140939Y0117254D01*
X0141014Y0117273D01*
X0141093Y0117280D01*
X0141115Y0116963D01*
X0141112D01*
X0141104D01*
X0141093Y0116959D01*
X0141078Y0116955D01*
X0141033Y0116947D01*
X0140981Y0116932D01*
X0140925Y0116906D01*
X0140865Y0116876D01*
X0140809Y0116839D01*
X0140760Y0116787D01*
X0140756Y0116779D01*
X0140741Y0116761D01*
X0140723Y0116723D01*
X0140696Y0116674D01*
X0140674Y0116615D01*
X0140655Y0116536D01*
X0140640Y0116446D01*
X0140637Y0116345D01*
Y0116297D01*
X0140640Y0116271D01*
X0140644Y0116244D01*
X0140652Y0116177D01*
X0140663Y0116106D01*
X0140685Y0116035D01*
X0140711Y0115968D01*
X0140730Y0115934D01*
X0140749Y0115908D01*
X0140752Y0115900D01*
X0140768Y0115885D01*
X0140794Y0115863D01*
X0140824Y0115840D01*
X0140865Y0115814D01*
X0140910Y0115792D01*
X0140962Y0115777D01*
X0141018Y0115769D01*
X0141025D01*
X0141041D01*
X0141067Y0115773D01*
X0141097Y0115781D01*
X0141130Y0115792D01*
X0141168Y0115811D01*
X0141205Y0115833D01*
X0141239Y0115867D01*
X0141243Y0115870D01*
X0141254Y0115889D01*
X0141261Y0115900D01*
X0141272Y0115919D01*
X0141284Y0115938D01*
X0141295Y0115964D01*
X0141310Y0115994D01*
X0141321Y0116031D01*
X0141340Y0116072D01*
X0141355Y0116117D01*
X0141370Y0116170D01*
X0141388Y0116229D01*
X0141403Y0116297D01*
X0141422Y0116368D01*
Y0116372D01*
X0141426Y0116386D01*
X0141429Y0116405D01*
X0141437Y0116435D01*
X0141444Y0116469D01*
X0141456Y0116506D01*
X0141474Y0116592D01*
X0141500Y0116682D01*
X0141527Y0116776D01*
X0141538Y0116817D01*
X0141553Y0116858D01*
X0141568Y0116895D01*
X0141579Y0116925D01*
Y0116929D01*
X0141583Y0116936D01*
X0141590Y0116947D01*
X0141598Y0116963D01*
X0141620Y0117000D01*
X0141650Y0117049D01*
X0141688Y0117101D01*
X0141729Y0117157D01*
X0141781Y0117206D01*
X0141837Y0117251D01*
X0141845Y0117254D01*
X0141863Y0117265D01*
X0141897Y0117284D01*
X0141938Y0117303D01*
X0141990Y0117322D01*
X0142050Y0117340D01*
X0142118Y0117351D01*
X0142192Y0117355D01*
X0142196D01*
X0142200D01*
X0142211D01*
X0142226D01*
X0142267Y0117348D01*
D02*
G37*
%LPC*%
G36*
X0142174Y0135573D02*
X0142166D01*
X0142151D01*
X0142125Y0135569D01*
X0142091Y0135565D01*
X0142054Y0135554D01*
X0142013Y0135543D01*
X0141972Y0135524D01*
X0141931Y0135498D01*
X0141927Y0135494D01*
X0141912Y0135483D01*
X0141897Y0135468D01*
X0141875Y0135446D01*
X0141848Y0135416D01*
X0141826Y0135382D01*
X0141804Y0135341D01*
X0141785Y0135296D01*
X0141781Y0135289D01*
X0141777Y0135274D01*
X0141770Y0135244D01*
X0141762Y0135202D01*
X0141755Y0135150D01*
X0141747Y0135087D01*
X0141740Y0135015D01*
Y0134350D01*
X0142608D01*
Y0135064D01*
X0142604Y0135139D01*
X0142600Y0135172D01*
X0142596Y0135202D01*
Y0135206D01*
X0142593Y0135221D01*
X0142589Y0135244D01*
X0142581Y0135270D01*
X0142559Y0135333D01*
X0142544Y0135363D01*
X0142529Y0135393D01*
X0142525Y0135397D01*
X0142522Y0135408D01*
X0142510Y0135419D01*
X0142492Y0135438D01*
X0142473Y0135460D01*
X0142450Y0135479D01*
X0142421Y0135502D01*
X0142391Y0135520D01*
X0142387Y0135524D01*
X0142376Y0135528D01*
X0142353Y0135535D01*
X0142327Y0135547D01*
X0142297Y0135558D01*
X0142260Y0135565D01*
X0142219Y0135569D01*
X0142174Y0135573D01*
D02*
G37*
G36*
X0141070Y0135464D02*
X0141063D01*
X0141048D01*
X0141025Y0135460D01*
X0140996Y0135457D01*
X0140962Y0135449D01*
X0140925Y0135438D01*
X0140887Y0135423D01*
X0140850Y0135401D01*
X0140846Y0135397D01*
X0140835Y0135389D01*
X0140816Y0135374D01*
X0140797Y0135356D01*
X0140775Y0135333D01*
X0140752Y0135303D01*
X0140734Y0135270D01*
X0140719Y0135229D01*
Y0135225D01*
X0140711Y0135206D01*
X0140708Y0135180D01*
X0140700Y0135143D01*
X0140693Y0135090D01*
X0140689Y0135023D01*
X0140682Y0134944D01*
Y0134350D01*
X0141444D01*
Y0134967D01*
X0141441Y0135015D01*
X0141437Y0135064D01*
X0141433Y0135116D01*
X0141426Y0135165D01*
X0141418Y0135206D01*
X0141414Y0135214D01*
X0141411Y0135229D01*
X0141403Y0135251D01*
X0141388Y0135277D01*
X0141373Y0135307D01*
X0141351Y0135341D01*
X0141325Y0135371D01*
X0141295Y0135397D01*
X0141291Y0135401D01*
X0141280Y0135408D01*
X0141257Y0135419D01*
X0141231Y0135431D01*
X0141201Y0135442D01*
X0141164Y0135453D01*
X0141119Y0135460D01*
X0141070Y0135464D01*
D02*
G37*
G36*
X0141127Y0130722D02*
X0141123D01*
X0141119D01*
X0141100D01*
X0141070Y0130718D01*
X0141033Y0130711D01*
X0140988Y0130703D01*
X0140943Y0130688D01*
X0140898Y0130666D01*
X0140854Y0130640D01*
X0140850Y0130636D01*
X0140835Y0130625D01*
X0140816Y0130610D01*
X0140794Y0130584D01*
X0140768Y0130554D01*
X0140741Y0130520D01*
X0140723Y0130475D01*
X0140704Y0130430D01*
Y0130427D01*
X0140700Y0130415D01*
X0140696Y0130393D01*
X0140693Y0130359D01*
X0140689Y0130318D01*
X0140685Y0130266D01*
X0140682Y0130198D01*
Y0129480D01*
X0141583D01*
Y0130157D01*
X0141579Y0130180D01*
Y0130206D01*
X0141575Y0130236D01*
X0141568Y0130307D01*
X0141553Y0130382D01*
X0141530Y0130456D01*
X0141504Y0130524D01*
X0141486Y0130557D01*
X0141463Y0130584D01*
X0141456Y0130591D01*
X0141441Y0130606D01*
X0141414Y0130628D01*
X0141377Y0130655D01*
X0141329Y0130677D01*
X0141269Y0130700D01*
X0141201Y0130714D01*
X0141127Y0130722D01*
D02*
G37*
%LPD*%
D11*
X0136201Y0109468D02*
X0151004D01*
Y0121240D01*
X0136201D02*
X0151004D01*
X0136201Y0109468D02*
Y0121240D01*
M02*
