G04*
G04 #@! TF.GenerationSoftware,Altium Limited,Altium Designer,21.7.2 (23)*
G04*
G04 Layer_Color=65535*
%FSAX25Y25*%
%MOIN*%
G70*
G04*
G04 #@! TF.SameCoordinates,C6185680-9DF1-42B3-8AB4-FD9FEACD6233*
G04*
G04*
G04 #@! TF.FilePolarity,Positive*
G04*
G01*
G75*
%ADD10C,0.00984*%
%ADD11C,0.00787*%
G36*
X0158818Y0136598D02*
X0158151D01*
Y0138972D01*
X0155537D01*
Y0136598D01*
X0154870D01*
Y0141639D01*
X0155537D01*
Y0139564D01*
X0158151D01*
Y0141639D01*
X0158818D01*
Y0136598D01*
D02*
G37*
G36*
X0177168Y0139549D02*
X0176464D01*
Y0140253D01*
X0177168D01*
Y0139549D01*
D02*
G37*
G36*
X0171296D02*
X0170592D01*
Y0140253D01*
X0171296D01*
Y0139549D01*
D02*
G37*
G36*
X0179865Y0141646D02*
X0179924Y0141639D01*
X0179999Y0141631D01*
X0180074Y0141624D01*
X0180164Y0141602D01*
X0180344Y0141557D01*
X0180539Y0141482D01*
X0180629Y0141437D01*
X0180719Y0141384D01*
X0180808Y0141324D01*
X0180891Y0141249D01*
X0180898Y0141242D01*
X0180906Y0141234D01*
X0180928Y0141212D01*
X0180958Y0141174D01*
X0180988Y0141137D01*
X0181026Y0141092D01*
X0181063Y0141032D01*
X0181108Y0140972D01*
X0181183Y0140830D01*
X0181250Y0140658D01*
X0181280Y0140568D01*
X0181303Y0140463D01*
X0181310Y0140366D01*
X0181318Y0140253D01*
Y0140238D01*
Y0140201D01*
X0181310Y0140141D01*
X0181303Y0140066D01*
X0181288Y0139969D01*
X0181265Y0139871D01*
X0181235Y0139766D01*
X0181190Y0139654D01*
X0181183Y0139639D01*
X0181168Y0139602D01*
X0181138Y0139549D01*
X0181093Y0139474D01*
X0181033Y0139377D01*
X0180966Y0139272D01*
X0180876Y0139160D01*
X0180778Y0139040D01*
X0180763Y0139025D01*
X0180726Y0138980D01*
X0180696Y0138950D01*
X0180651Y0138905D01*
X0180606Y0138860D01*
X0180554Y0138808D01*
X0180494Y0138748D01*
X0180419Y0138680D01*
X0180344Y0138613D01*
X0180254Y0138531D01*
X0180164Y0138448D01*
X0180059Y0138358D01*
X0179947Y0138261D01*
X0179827Y0138156D01*
X0179820Y0138149D01*
X0179805Y0138134D01*
X0179775Y0138111D01*
X0179737Y0138081D01*
X0179647Y0137999D01*
X0179528Y0137901D01*
X0179408Y0137796D01*
X0179295Y0137692D01*
X0179191Y0137594D01*
X0179153Y0137557D01*
X0179116Y0137519D01*
X0179108Y0137512D01*
X0179093Y0137489D01*
X0179063Y0137460D01*
X0179026Y0137415D01*
X0178981Y0137370D01*
X0178936Y0137310D01*
X0178853Y0137190D01*
X0181325D01*
Y0136598D01*
X0177992D01*
Y0136606D01*
Y0136636D01*
Y0136680D01*
X0178000Y0136733D01*
X0178007Y0136800D01*
X0178015Y0136868D01*
X0178037Y0136950D01*
X0178059Y0137025D01*
Y0137033D01*
X0178067Y0137040D01*
X0178082Y0137085D01*
X0178112Y0137152D01*
X0178157Y0137235D01*
X0178217Y0137340D01*
X0178284Y0137452D01*
X0178367Y0137572D01*
X0178464Y0137692D01*
Y0137699D01*
X0178479Y0137707D01*
X0178516Y0137752D01*
X0178584Y0137819D01*
X0178674Y0137909D01*
X0178786Y0138021D01*
X0178928Y0138156D01*
X0179093Y0138298D01*
X0179280Y0138456D01*
X0179288Y0138463D01*
X0179318Y0138486D01*
X0179355Y0138523D01*
X0179415Y0138568D01*
X0179483Y0138620D01*
X0179558Y0138688D01*
X0179722Y0138845D01*
X0179910Y0139010D01*
X0180089Y0139190D01*
X0180179Y0139280D01*
X0180254Y0139362D01*
X0180329Y0139444D01*
X0180389Y0139519D01*
Y0139527D01*
X0180404Y0139534D01*
X0180419Y0139557D01*
X0180434Y0139587D01*
X0180479Y0139662D01*
X0180539Y0139759D01*
X0180591Y0139879D01*
X0180636Y0140006D01*
X0180666Y0140133D01*
X0180681Y0140268D01*
Y0140276D01*
Y0140283D01*
X0180674Y0140328D01*
X0180666Y0140396D01*
X0180651Y0140485D01*
X0180614Y0140583D01*
X0180569Y0140688D01*
X0180501Y0140793D01*
X0180411Y0140890D01*
X0180396Y0140897D01*
X0180367Y0140927D01*
X0180306Y0140972D01*
X0180232Y0141017D01*
X0180127Y0141062D01*
X0180014Y0141107D01*
X0179880Y0141137D01*
X0179730Y0141145D01*
X0179685D01*
X0179655Y0141137D01*
X0179572Y0141130D01*
X0179475Y0141107D01*
X0179355Y0141077D01*
X0179235Y0141025D01*
X0179116Y0140957D01*
X0179011Y0140867D01*
X0179003Y0140852D01*
X0178973Y0140815D01*
X0178928Y0140755D01*
X0178883Y0140673D01*
X0178831Y0140568D01*
X0178794Y0140440D01*
X0178764Y0140291D01*
X0178749Y0140126D01*
X0178112Y0140193D01*
Y0140201D01*
Y0140223D01*
X0178120Y0140261D01*
X0178127Y0140313D01*
X0178142Y0140373D01*
X0178157Y0140440D01*
X0178194Y0140598D01*
X0178254Y0140770D01*
X0178344Y0140950D01*
X0178397Y0141040D01*
X0178456Y0141122D01*
X0178524Y0141205D01*
X0178599Y0141279D01*
X0178606Y0141287D01*
X0178621Y0141294D01*
X0178644Y0141317D01*
X0178674Y0141339D01*
X0178719Y0141369D01*
X0178771Y0141399D01*
X0178831Y0141429D01*
X0178906Y0141467D01*
X0178981Y0141504D01*
X0179063Y0141534D01*
X0179161Y0141564D01*
X0179265Y0141594D01*
X0179370Y0141616D01*
X0179490Y0141639D01*
X0179610Y0141646D01*
X0179745Y0141654D01*
X0179812D01*
X0179865Y0141646D01*
D02*
G37*
G36*
X0177168Y0136598D02*
X0176464D01*
Y0137302D01*
X0177168D01*
Y0136598D01*
D02*
G37*
G36*
X0171296D02*
X0170592D01*
Y0137302D01*
X0171296D01*
Y0136598D01*
D02*
G37*
G36*
X0168120Y0141646D02*
X0168180Y0141639D01*
X0168255Y0141631D01*
X0168330Y0141624D01*
X0168420Y0141602D01*
X0168600Y0141557D01*
X0168794Y0141482D01*
X0168884Y0141437D01*
X0168974Y0141384D01*
X0169064Y0141324D01*
X0169146Y0141249D01*
X0169154Y0141242D01*
X0169161Y0141234D01*
X0169184Y0141212D01*
X0169214Y0141174D01*
X0169244Y0141137D01*
X0169281Y0141092D01*
X0169319Y0141032D01*
X0169364Y0140972D01*
X0169439Y0140830D01*
X0169506Y0140658D01*
X0169536Y0140568D01*
X0169558Y0140463D01*
X0169566Y0140366D01*
X0169573Y0140253D01*
Y0140238D01*
Y0140201D01*
X0169566Y0140141D01*
X0169558Y0140066D01*
X0169543Y0139969D01*
X0169521Y0139871D01*
X0169491Y0139766D01*
X0169446Y0139654D01*
X0169439Y0139639D01*
X0169424Y0139602D01*
X0169394Y0139549D01*
X0169349Y0139474D01*
X0169289Y0139377D01*
X0169221Y0139272D01*
X0169131Y0139160D01*
X0169034Y0139040D01*
X0169019Y0139025D01*
X0168982Y0138980D01*
X0168952Y0138950D01*
X0168907Y0138905D01*
X0168862Y0138860D01*
X0168809Y0138808D01*
X0168749Y0138748D01*
X0168675Y0138680D01*
X0168600Y0138613D01*
X0168510Y0138531D01*
X0168420Y0138448D01*
X0168315Y0138358D01*
X0168203Y0138261D01*
X0168083Y0138156D01*
X0168075Y0138149D01*
X0168060Y0138134D01*
X0168030Y0138111D01*
X0167993Y0138081D01*
X0167903Y0137999D01*
X0167783Y0137901D01*
X0167663Y0137796D01*
X0167551Y0137692D01*
X0167446Y0137594D01*
X0167409Y0137557D01*
X0167371Y0137519D01*
X0167364Y0137512D01*
X0167349Y0137489D01*
X0167319Y0137460D01*
X0167281Y0137415D01*
X0167236Y0137370D01*
X0167192Y0137310D01*
X0167109Y0137190D01*
X0169581D01*
Y0136598D01*
X0166248D01*
Y0136606D01*
Y0136636D01*
Y0136680D01*
X0166255Y0136733D01*
X0166263Y0136800D01*
X0166270Y0136868D01*
X0166293Y0136950D01*
X0166315Y0137025D01*
Y0137033D01*
X0166323Y0137040D01*
X0166338Y0137085D01*
X0166368Y0137152D01*
X0166413Y0137235D01*
X0166472Y0137340D01*
X0166540Y0137452D01*
X0166622Y0137572D01*
X0166720Y0137692D01*
Y0137699D01*
X0166735Y0137707D01*
X0166772Y0137752D01*
X0166840Y0137819D01*
X0166929Y0137909D01*
X0167042Y0138021D01*
X0167184Y0138156D01*
X0167349Y0138298D01*
X0167536Y0138456D01*
X0167544Y0138463D01*
X0167573Y0138486D01*
X0167611Y0138523D01*
X0167671Y0138568D01*
X0167738Y0138620D01*
X0167813Y0138688D01*
X0167978Y0138845D01*
X0168165Y0139010D01*
X0168345Y0139190D01*
X0168435Y0139280D01*
X0168510Y0139362D01*
X0168585Y0139444D01*
X0168645Y0139519D01*
Y0139527D01*
X0168660Y0139534D01*
X0168675Y0139557D01*
X0168690Y0139587D01*
X0168735Y0139662D01*
X0168794Y0139759D01*
X0168847Y0139879D01*
X0168892Y0140006D01*
X0168922Y0140133D01*
X0168937Y0140268D01*
Y0140276D01*
Y0140283D01*
X0168929Y0140328D01*
X0168922Y0140396D01*
X0168907Y0140485D01*
X0168869Y0140583D01*
X0168824Y0140688D01*
X0168757Y0140793D01*
X0168667Y0140890D01*
X0168652Y0140897D01*
X0168622Y0140927D01*
X0168562Y0140972D01*
X0168487Y0141017D01*
X0168382Y0141062D01*
X0168270Y0141107D01*
X0168135Y0141137D01*
X0167985Y0141145D01*
X0167940D01*
X0167911Y0141137D01*
X0167828Y0141130D01*
X0167731Y0141107D01*
X0167611Y0141077D01*
X0167491Y0141025D01*
X0167371Y0140957D01*
X0167266Y0140867D01*
X0167259Y0140852D01*
X0167229Y0140815D01*
X0167184Y0140755D01*
X0167139Y0140673D01*
X0167087Y0140568D01*
X0167049Y0140440D01*
X0167019Y0140291D01*
X0167004Y0140126D01*
X0166368Y0140193D01*
Y0140201D01*
Y0140223D01*
X0166375Y0140261D01*
X0166383Y0140313D01*
X0166398Y0140373D01*
X0166413Y0140440D01*
X0166450Y0140598D01*
X0166510Y0140770D01*
X0166600Y0140950D01*
X0166652Y0141040D01*
X0166712Y0141122D01*
X0166780Y0141205D01*
X0166855Y0141279D01*
X0166862Y0141287D01*
X0166877Y0141294D01*
X0166899Y0141317D01*
X0166929Y0141339D01*
X0166974Y0141369D01*
X0167027Y0141399D01*
X0167087Y0141429D01*
X0167162Y0141467D01*
X0167236Y0141504D01*
X0167319Y0141534D01*
X0167416Y0141564D01*
X0167521Y0141594D01*
X0167626Y0141616D01*
X0167746Y0141639D01*
X0167866Y0141646D01*
X0168000Y0141654D01*
X0168068D01*
X0168120Y0141646D01*
D02*
G37*
G36*
X0161934Y0141631D02*
X0161994D01*
X0162121Y0141616D01*
X0162271Y0141602D01*
X0162420Y0141571D01*
X0162578Y0141534D01*
X0162713Y0141482D01*
X0162720D01*
X0162727Y0141474D01*
X0162772Y0141452D01*
X0162832Y0141414D01*
X0162915Y0141369D01*
X0163005Y0141302D01*
X0163094Y0141219D01*
X0163177Y0141122D01*
X0163259Y0141010D01*
X0163267Y0140995D01*
X0163289Y0140957D01*
X0163327Y0140890D01*
X0163364Y0140807D01*
X0163394Y0140710D01*
X0163432Y0140598D01*
X0163454Y0140471D01*
X0163461Y0140343D01*
Y0140328D01*
Y0140291D01*
X0163454Y0140223D01*
X0163439Y0140148D01*
X0163417Y0140051D01*
X0163387Y0139954D01*
X0163342Y0139841D01*
X0163282Y0139736D01*
X0163274Y0139722D01*
X0163252Y0139691D01*
X0163207Y0139639D01*
X0163154Y0139572D01*
X0163080Y0139497D01*
X0162982Y0139422D01*
X0162877Y0139347D01*
X0162750Y0139280D01*
X0162758D01*
X0162772Y0139272D01*
X0162795Y0139265D01*
X0162825Y0139257D01*
X0162907Y0139220D01*
X0163012Y0139175D01*
X0163125Y0139107D01*
X0163237Y0139025D01*
X0163357Y0138927D01*
X0163454Y0138815D01*
X0163461Y0138800D01*
X0163491Y0138755D01*
X0163536Y0138688D01*
X0163581Y0138598D01*
X0163626Y0138486D01*
X0163671Y0138358D01*
X0163701Y0138216D01*
X0163709Y0138059D01*
Y0138051D01*
Y0138044D01*
Y0137999D01*
X0163701Y0137931D01*
X0163694Y0137841D01*
X0163671Y0137737D01*
X0163649Y0137624D01*
X0163611Y0137512D01*
X0163559Y0137392D01*
X0163551Y0137377D01*
X0163529Y0137340D01*
X0163499Y0137287D01*
X0163454Y0137220D01*
X0163402Y0137145D01*
X0163342Y0137070D01*
X0163267Y0136995D01*
X0163184Y0136928D01*
X0163177Y0136920D01*
X0163147Y0136898D01*
X0163094Y0136868D01*
X0163035Y0136838D01*
X0162952Y0136793D01*
X0162862Y0136755D01*
X0162750Y0136718D01*
X0162630Y0136680D01*
X0162615D01*
X0162570Y0136666D01*
X0162503Y0136658D01*
X0162405Y0136643D01*
X0162286Y0136628D01*
X0162151Y0136613D01*
X0161994Y0136606D01*
X0161821Y0136598D01*
X0159904D01*
Y0141639D01*
X0161889D01*
X0161934Y0141631D01*
D02*
G37*
G36*
X0152204Y0141047D02*
X0150541D01*
Y0136598D01*
X0149875D01*
Y0141047D01*
X0148212D01*
Y0141639D01*
X0152204D01*
Y0141047D01*
D02*
G37*
G36*
X0146077Y0141631D02*
X0146197Y0141624D01*
X0146324Y0141616D01*
X0146452Y0141602D01*
X0146557Y0141586D01*
X0146572D01*
X0146616Y0141571D01*
X0146691Y0141557D01*
X0146774Y0141534D01*
X0146871Y0141504D01*
X0146976Y0141467D01*
X0147081Y0141414D01*
X0147178Y0141354D01*
X0147193Y0141347D01*
X0147223Y0141324D01*
X0147268Y0141287D01*
X0147328Y0141227D01*
X0147388Y0141159D01*
X0147455Y0141077D01*
X0147523Y0140980D01*
X0147583Y0140867D01*
X0147590Y0140852D01*
X0147605Y0140815D01*
X0147635Y0140748D01*
X0147665Y0140665D01*
X0147688Y0140560D01*
X0147717Y0140448D01*
X0147732Y0140313D01*
X0147740Y0140178D01*
Y0140171D01*
Y0140148D01*
Y0140118D01*
X0147732Y0140074D01*
X0147725Y0140014D01*
X0147717Y0139954D01*
X0147703Y0139879D01*
X0147688Y0139804D01*
X0147643Y0139632D01*
X0147568Y0139452D01*
X0147523Y0139355D01*
X0147463Y0139265D01*
X0147403Y0139175D01*
X0147328Y0139092D01*
X0147321Y0139085D01*
X0147306Y0139070D01*
X0147283Y0139055D01*
X0147246Y0139025D01*
X0147201Y0138987D01*
X0147141Y0138950D01*
X0147073Y0138913D01*
X0146991Y0138875D01*
X0146894Y0138830D01*
X0146789Y0138793D01*
X0146669Y0138755D01*
X0146534Y0138718D01*
X0146384Y0138688D01*
X0146220Y0138673D01*
X0146047Y0138658D01*
X0145852Y0138650D01*
X0144564D01*
Y0136598D01*
X0143898D01*
Y0141639D01*
X0145965D01*
X0146077Y0141631D01*
D02*
G37*
G36*
X0173955Y0141646D02*
X0174007Y0141639D01*
X0174075Y0141631D01*
X0174225Y0141609D01*
X0174389Y0141557D01*
X0174569Y0141489D01*
X0174659Y0141444D01*
X0174741Y0141392D01*
X0174831Y0141332D01*
X0174906Y0141264D01*
X0174914Y0141257D01*
X0174921Y0141249D01*
X0174944Y0141227D01*
X0174966Y0141197D01*
X0175004Y0141159D01*
X0175034Y0141115D01*
X0175109Y0141002D01*
X0175183Y0140867D01*
X0175251Y0140710D01*
X0175296Y0140530D01*
X0175303Y0140433D01*
X0175311Y0140336D01*
Y0140328D01*
Y0140321D01*
Y0140276D01*
X0175303Y0140208D01*
X0175288Y0140126D01*
X0175266Y0140029D01*
X0175228Y0139931D01*
X0175183Y0139826D01*
X0175124Y0139722D01*
X0175116Y0139714D01*
X0175086Y0139676D01*
X0175041Y0139632D01*
X0174981Y0139579D01*
X0174906Y0139512D01*
X0174809Y0139444D01*
X0174697Y0139384D01*
X0174562Y0139324D01*
X0174569D01*
X0174584Y0139317D01*
X0174607Y0139310D01*
X0174637Y0139295D01*
X0174726Y0139257D01*
X0174831Y0139205D01*
X0174944Y0139137D01*
X0175064Y0139055D01*
X0175176Y0138958D01*
X0175273Y0138838D01*
X0175281Y0138823D01*
X0175311Y0138778D01*
X0175348Y0138710D01*
X0175401Y0138613D01*
X0175445Y0138493D01*
X0175483Y0138358D01*
X0175513Y0138201D01*
X0175520Y0138036D01*
Y0138029D01*
Y0138006D01*
Y0137976D01*
X0175513Y0137931D01*
X0175505Y0137871D01*
X0175498Y0137812D01*
X0175483Y0137737D01*
X0175461Y0137662D01*
X0175408Y0137489D01*
X0175371Y0137400D01*
X0175326Y0137310D01*
X0175273Y0137212D01*
X0175206Y0137122D01*
X0175138Y0137033D01*
X0175056Y0136950D01*
X0175049Y0136943D01*
X0175034Y0136935D01*
X0175011Y0136913D01*
X0174974Y0136883D01*
X0174929Y0136853D01*
X0174876Y0136815D01*
X0174809Y0136770D01*
X0174734Y0136733D01*
X0174652Y0136696D01*
X0174562Y0136651D01*
X0174464Y0136613D01*
X0174360Y0136583D01*
X0174247Y0136553D01*
X0174120Y0136538D01*
X0173993Y0136523D01*
X0173858Y0136516D01*
X0173783D01*
X0173730Y0136523D01*
X0173670Y0136531D01*
X0173595Y0136538D01*
X0173513Y0136553D01*
X0173423Y0136568D01*
X0173236Y0136621D01*
X0173131Y0136658D01*
X0173034Y0136703D01*
X0172936Y0136748D01*
X0172831Y0136808D01*
X0172742Y0136875D01*
X0172652Y0136950D01*
X0172644Y0136958D01*
X0172629Y0136973D01*
X0172607Y0136995D01*
X0172584Y0137033D01*
X0172547Y0137070D01*
X0172509Y0137122D01*
X0172465Y0137182D01*
X0172427Y0137257D01*
X0172382Y0137332D01*
X0172337Y0137415D01*
X0172270Y0137602D01*
X0172240Y0137707D01*
X0172217Y0137812D01*
X0172202Y0137931D01*
X0172195Y0138051D01*
Y0138059D01*
Y0138074D01*
Y0138096D01*
X0172202Y0138134D01*
Y0138179D01*
X0172210Y0138224D01*
X0172225Y0138343D01*
X0172255Y0138471D01*
X0172300Y0138605D01*
X0172360Y0138748D01*
X0172442Y0138875D01*
Y0138883D01*
X0172457Y0138890D01*
X0172487Y0138927D01*
X0172547Y0138987D01*
X0172622Y0139055D01*
X0172727Y0139130D01*
X0172846Y0139205D01*
X0172989Y0139272D01*
X0173154Y0139324D01*
X0173146D01*
X0173139Y0139332D01*
X0173094Y0139355D01*
X0173019Y0139384D01*
X0172936Y0139429D01*
X0172839Y0139489D01*
X0172749Y0139557D01*
X0172659Y0139639D01*
X0172577Y0139729D01*
X0172569Y0139744D01*
X0172547Y0139774D01*
X0172517Y0139834D01*
X0172487Y0139909D01*
X0172457Y0139999D01*
X0172427Y0140103D01*
X0172405Y0140223D01*
X0172397Y0140351D01*
Y0140358D01*
Y0140373D01*
Y0140403D01*
X0172405Y0140440D01*
X0172412Y0140493D01*
X0172420Y0140545D01*
X0172450Y0140673D01*
X0172494Y0140823D01*
X0172562Y0140980D01*
X0172607Y0141055D01*
X0172659Y0141130D01*
X0172719Y0141205D01*
X0172787Y0141279D01*
X0172794Y0141287D01*
X0172801Y0141294D01*
X0172831Y0141317D01*
X0172862Y0141339D01*
X0172899Y0141369D01*
X0172944Y0141399D01*
X0173004Y0141429D01*
X0173071Y0141467D01*
X0173139Y0141504D01*
X0173221Y0141534D01*
X0173401Y0141594D01*
X0173610Y0141639D01*
X0173723Y0141646D01*
X0173843Y0141654D01*
X0173910D01*
X0173955Y0141646D01*
D02*
G37*
G36*
X0127007Y0127877D02*
X0127053D01*
X0127155Y0127866D01*
X0127270Y0127849D01*
X0127395Y0127821D01*
X0127527Y0127786D01*
X0127652Y0127741D01*
X0127658D01*
X0127669Y0127735D01*
X0127687Y0127729D01*
X0127709Y0127718D01*
X0127766Y0127683D01*
X0127841Y0127638D01*
X0127921Y0127581D01*
X0128006Y0127512D01*
X0128086Y0127432D01*
X0128155Y0127335D01*
X0128160Y0127324D01*
X0128183Y0127289D01*
X0128212Y0127232D01*
X0128246Y0127164D01*
X0128280Y0127072D01*
X0128309Y0126970D01*
X0128337Y0126856D01*
X0128349Y0126735D01*
X0127864Y0126701D01*
Y0126707D01*
Y0126718D01*
X0127858Y0126735D01*
X0127852Y0126758D01*
X0127841Y0126827D01*
X0127818Y0126907D01*
X0127778Y0126992D01*
X0127732Y0127084D01*
X0127675Y0127170D01*
X0127595Y0127244D01*
X0127584Y0127250D01*
X0127555Y0127272D01*
X0127498Y0127301D01*
X0127424Y0127341D01*
X0127332Y0127375D01*
X0127213Y0127404D01*
X0127076Y0127427D01*
X0126921Y0127432D01*
X0126847D01*
X0126807Y0127427D01*
X0126767Y0127421D01*
X0126664Y0127409D01*
X0126556Y0127392D01*
X0126447Y0127358D01*
X0126345Y0127318D01*
X0126293Y0127289D01*
X0126253Y0127261D01*
X0126242Y0127255D01*
X0126219Y0127232D01*
X0126185Y0127192D01*
X0126151Y0127147D01*
X0126110Y0127084D01*
X0126076Y0127015D01*
X0126053Y0126935D01*
X0126042Y0126850D01*
Y0126838D01*
Y0126815D01*
X0126048Y0126776D01*
X0126059Y0126730D01*
X0126076Y0126678D01*
X0126105Y0126621D01*
X0126139Y0126564D01*
X0126190Y0126513D01*
X0126196Y0126507D01*
X0126225Y0126490D01*
X0126242Y0126479D01*
X0126270Y0126462D01*
X0126299Y0126444D01*
X0126339Y0126427D01*
X0126385Y0126404D01*
X0126442Y0126387D01*
X0126505Y0126359D01*
X0126573Y0126336D01*
X0126653Y0126313D01*
X0126744Y0126285D01*
X0126847Y0126262D01*
X0126956Y0126233D01*
X0126961D01*
X0126984Y0126227D01*
X0127013Y0126222D01*
X0127058Y0126210D01*
X0127110Y0126199D01*
X0127167Y0126182D01*
X0127298Y0126153D01*
X0127435Y0126113D01*
X0127578Y0126073D01*
X0127641Y0126056D01*
X0127704Y0126033D01*
X0127761Y0126010D01*
X0127806Y0125993D01*
X0127812D01*
X0127823Y0125988D01*
X0127841Y0125976D01*
X0127864Y0125965D01*
X0127921Y0125930D01*
X0127995Y0125885D01*
X0128075Y0125828D01*
X0128160Y0125765D01*
X0128235Y0125685D01*
X0128303Y0125599D01*
X0128309Y0125588D01*
X0128326Y0125559D01*
X0128355Y0125508D01*
X0128383Y0125445D01*
X0128412Y0125365D01*
X0128440Y0125274D01*
X0128457Y0125171D01*
X0128463Y0125057D01*
Y0125051D01*
Y0125045D01*
Y0125028D01*
Y0125005D01*
X0128452Y0124943D01*
X0128440Y0124868D01*
X0128417Y0124777D01*
X0128389Y0124680D01*
X0128343Y0124577D01*
X0128286Y0124474D01*
Y0124469D01*
X0128280Y0124463D01*
X0128252Y0124429D01*
X0128212Y0124383D01*
X0128155Y0124320D01*
X0128086Y0124257D01*
X0127995Y0124183D01*
X0127898Y0124120D01*
X0127778Y0124058D01*
X0127772D01*
X0127761Y0124052D01*
X0127744Y0124046D01*
X0127721Y0124035D01*
X0127692Y0124023D01*
X0127652Y0124012D01*
X0127567Y0123983D01*
X0127452Y0123955D01*
X0127332Y0123932D01*
X0127190Y0123915D01*
X0127041Y0123909D01*
X0126956D01*
X0126910Y0123915D01*
X0126858D01*
X0126801Y0123921D01*
X0126739Y0123926D01*
X0126602Y0123943D01*
X0126453Y0123972D01*
X0126305Y0124006D01*
X0126168Y0124058D01*
X0126162D01*
X0126151Y0124063D01*
X0126133Y0124075D01*
X0126110Y0124086D01*
X0126048Y0124120D01*
X0125968Y0124172D01*
X0125876Y0124235D01*
X0125785Y0124314D01*
X0125694Y0124406D01*
X0125614Y0124514D01*
Y0124520D01*
X0125608Y0124526D01*
X0125597Y0124543D01*
X0125585Y0124572D01*
X0125568Y0124600D01*
X0125551Y0124634D01*
X0125511Y0124720D01*
X0125477Y0124823D01*
X0125442Y0124937D01*
X0125420Y0125068D01*
X0125408Y0125211D01*
X0125888Y0125251D01*
Y0125245D01*
Y0125240D01*
X0125893Y0125205D01*
X0125905Y0125148D01*
X0125916Y0125080D01*
X0125939Y0125005D01*
X0125968Y0124925D01*
X0126002Y0124846D01*
X0126042Y0124771D01*
X0126048Y0124766D01*
X0126065Y0124743D01*
X0126093Y0124708D01*
X0126139Y0124669D01*
X0126190Y0124617D01*
X0126259Y0124572D01*
X0126339Y0124520D01*
X0126430Y0124474D01*
X0126436D01*
X0126442Y0124469D01*
X0126476Y0124457D01*
X0126533Y0124440D01*
X0126602Y0124417D01*
X0126687Y0124395D01*
X0126790Y0124377D01*
X0126899Y0124366D01*
X0127018Y0124360D01*
X0127070D01*
X0127121Y0124366D01*
X0127190Y0124372D01*
X0127270Y0124383D01*
X0127355Y0124395D01*
X0127441Y0124417D01*
X0127527Y0124446D01*
X0127538Y0124451D01*
X0127561Y0124463D01*
X0127601Y0124480D01*
X0127652Y0124509D01*
X0127704Y0124543D01*
X0127761Y0124583D01*
X0127812Y0124629D01*
X0127858Y0124680D01*
X0127864Y0124686D01*
X0127875Y0124708D01*
X0127892Y0124737D01*
X0127915Y0124777D01*
X0127938Y0124828D01*
X0127955Y0124885D01*
X0127966Y0124948D01*
X0127972Y0125011D01*
Y0125017D01*
Y0125040D01*
X0127966Y0125074D01*
X0127961Y0125120D01*
X0127949Y0125171D01*
X0127926Y0125222D01*
X0127903Y0125274D01*
X0127869Y0125325D01*
X0127864Y0125331D01*
X0127852Y0125348D01*
X0127823Y0125371D01*
X0127789Y0125405D01*
X0127738Y0125439D01*
X0127681Y0125479D01*
X0127606Y0125519D01*
X0127521Y0125554D01*
X0127515Y0125559D01*
X0127487Y0125565D01*
X0127447Y0125582D01*
X0127412Y0125588D01*
X0127378Y0125599D01*
X0127332Y0125611D01*
X0127287Y0125628D01*
X0127230Y0125645D01*
X0127167Y0125662D01*
X0127098Y0125679D01*
X0127018Y0125696D01*
X0126933Y0125719D01*
X0126836Y0125742D01*
X0126830D01*
X0126813Y0125748D01*
X0126784Y0125753D01*
X0126750Y0125765D01*
X0126704Y0125776D01*
X0126659Y0125788D01*
X0126544Y0125822D01*
X0126419Y0125856D01*
X0126299Y0125896D01*
X0126185Y0125936D01*
X0126139Y0125959D01*
X0126093Y0125982D01*
X0126088D01*
X0126082Y0125988D01*
X0126048Y0126010D01*
X0126002Y0126039D01*
X0125939Y0126079D01*
X0125871Y0126130D01*
X0125802Y0126193D01*
X0125739Y0126262D01*
X0125682Y0126336D01*
X0125677Y0126347D01*
X0125659Y0126376D01*
X0125642Y0126421D01*
X0125619Y0126479D01*
X0125591Y0126547D01*
X0125574Y0126633D01*
X0125557Y0126724D01*
X0125551Y0126821D01*
Y0126827D01*
Y0126833D01*
Y0126850D01*
Y0126873D01*
X0125562Y0126924D01*
X0125574Y0126998D01*
X0125591Y0127084D01*
X0125619Y0127175D01*
X0125659Y0127267D01*
X0125711Y0127364D01*
Y0127369D01*
X0125716Y0127375D01*
X0125739Y0127404D01*
X0125779Y0127449D01*
X0125836Y0127506D01*
X0125905Y0127569D01*
X0125985Y0127638D01*
X0126082Y0127700D01*
X0126196Y0127752D01*
X0126202D01*
X0126213Y0127758D01*
X0126230Y0127763D01*
X0126253Y0127775D01*
X0126282Y0127780D01*
X0126316Y0127792D01*
X0126402Y0127821D01*
X0126510Y0127843D01*
X0126630Y0127860D01*
X0126761Y0127877D01*
X0126899Y0127883D01*
X0126973D01*
X0127007Y0127877D01*
D02*
G37*
G36*
X0151805D02*
X0151857Y0127872D01*
X0151914Y0127866D01*
X0151977Y0127860D01*
X0152051Y0127849D01*
X0152199Y0127809D01*
X0152365Y0127758D01*
X0152445Y0127723D01*
X0152525Y0127683D01*
X0152605Y0127638D01*
X0152679Y0127586D01*
X0152685Y0127581D01*
X0152696Y0127575D01*
X0152719Y0127558D01*
X0152742Y0127535D01*
X0152776Y0127501D01*
X0152811Y0127466D01*
X0152850Y0127421D01*
X0152896Y0127375D01*
X0152942Y0127318D01*
X0152988Y0127255D01*
X0153033Y0127192D01*
X0153079Y0127118D01*
X0153124Y0127038D01*
X0153165Y0126953D01*
X0153199Y0126861D01*
X0153233Y0126764D01*
X0152731Y0126644D01*
Y0126650D01*
X0152725Y0126661D01*
X0152719Y0126684D01*
X0152708Y0126713D01*
X0152691Y0126747D01*
X0152673Y0126787D01*
X0152628Y0126878D01*
X0152576Y0126975D01*
X0152508Y0127078D01*
X0152428Y0127175D01*
X0152337Y0127255D01*
X0152325Y0127261D01*
X0152291Y0127284D01*
X0152240Y0127318D01*
X0152165Y0127352D01*
X0152074Y0127386D01*
X0151965Y0127421D01*
X0151840Y0127444D01*
X0151703Y0127449D01*
X0151657D01*
X0151628Y0127444D01*
X0151588D01*
X0151549Y0127438D01*
X0151446Y0127421D01*
X0151326Y0127398D01*
X0151200Y0127358D01*
X0151080Y0127306D01*
X0150960Y0127232D01*
X0150955D01*
X0150949Y0127221D01*
X0150915Y0127192D01*
X0150858Y0127147D01*
X0150795Y0127084D01*
X0150726Y0126998D01*
X0150658Y0126901D01*
X0150595Y0126787D01*
X0150544Y0126661D01*
Y0126656D01*
X0150538Y0126644D01*
X0150532Y0126627D01*
X0150526Y0126599D01*
X0150515Y0126570D01*
X0150504Y0126530D01*
X0150487Y0126439D01*
X0150464Y0126324D01*
X0150441Y0126199D01*
X0150429Y0126067D01*
X0150424Y0125925D01*
Y0125919D01*
Y0125902D01*
Y0125879D01*
Y0125845D01*
X0150429Y0125799D01*
Y0125748D01*
X0150435Y0125696D01*
X0150441Y0125634D01*
X0150458Y0125502D01*
X0150487Y0125354D01*
X0150521Y0125211D01*
X0150566Y0125068D01*
Y0125063D01*
X0150572Y0125051D01*
X0150584Y0125034D01*
X0150595Y0125011D01*
X0150629Y0124943D01*
X0150675Y0124863D01*
X0150738Y0124771D01*
X0150812Y0124686D01*
X0150903Y0124594D01*
X0151006Y0124520D01*
X0151012D01*
X0151017Y0124514D01*
X0151035Y0124503D01*
X0151058Y0124492D01*
X0151120Y0124463D01*
X0151200Y0124434D01*
X0151297Y0124400D01*
X0151411Y0124372D01*
X0151531Y0124349D01*
X0151663Y0124343D01*
X0151703D01*
X0151731Y0124349D01*
X0151771D01*
X0151811Y0124355D01*
X0151914Y0124372D01*
X0152023Y0124406D01*
X0152142Y0124446D01*
X0152268Y0124509D01*
X0152325Y0124543D01*
X0152382Y0124589D01*
X0152388Y0124594D01*
X0152394Y0124600D01*
X0152411Y0124617D01*
X0152428Y0124634D01*
X0152456Y0124663D01*
X0152479Y0124691D01*
X0152542Y0124771D01*
X0152611Y0124874D01*
X0152679Y0125000D01*
X0152742Y0125148D01*
X0152788Y0125320D01*
X0153296Y0125188D01*
Y0125182D01*
X0153290Y0125160D01*
X0153279Y0125131D01*
X0153267Y0125085D01*
X0153244Y0125034D01*
X0153222Y0124971D01*
X0153199Y0124908D01*
X0153165Y0124834D01*
X0153085Y0124680D01*
X0152988Y0124526D01*
X0152925Y0124446D01*
X0152862Y0124372D01*
X0152793Y0124297D01*
X0152719Y0124235D01*
X0152713Y0124229D01*
X0152702Y0124223D01*
X0152679Y0124206D01*
X0152645Y0124183D01*
X0152605Y0124160D01*
X0152553Y0124132D01*
X0152502Y0124103D01*
X0152434Y0124075D01*
X0152365Y0124040D01*
X0152285Y0124012D01*
X0152205Y0123983D01*
X0152114Y0123960D01*
X0152017Y0123938D01*
X0151920Y0123921D01*
X0151811Y0123915D01*
X0151703Y0123909D01*
X0151646D01*
X0151600Y0123915D01*
X0151549D01*
X0151486Y0123921D01*
X0151417Y0123932D01*
X0151343Y0123943D01*
X0151183Y0123972D01*
X0151012Y0124018D01*
X0150846Y0124080D01*
X0150766Y0124115D01*
X0150692Y0124160D01*
X0150686Y0124166D01*
X0150675Y0124172D01*
X0150658Y0124189D01*
X0150629Y0124206D01*
X0150595Y0124235D01*
X0150561Y0124263D01*
X0150475Y0124349D01*
X0150378Y0124451D01*
X0150275Y0124577D01*
X0150184Y0124720D01*
X0150098Y0124891D01*
Y0124897D01*
X0150092Y0124914D01*
X0150081Y0124937D01*
X0150070Y0124977D01*
X0150052Y0125017D01*
X0150035Y0125074D01*
X0150018Y0125131D01*
X0150001Y0125200D01*
X0149978Y0125274D01*
X0149961Y0125354D01*
X0149933Y0125531D01*
X0149910Y0125719D01*
X0149898Y0125925D01*
Y0125930D01*
Y0125953D01*
Y0125982D01*
X0149904Y0126028D01*
Y0126079D01*
X0149910Y0126136D01*
X0149916Y0126205D01*
X0149927Y0126279D01*
X0149955Y0126444D01*
X0149995Y0126621D01*
X0150052Y0126798D01*
X0150127Y0126970D01*
Y0126975D01*
X0150138Y0126987D01*
X0150150Y0127010D01*
X0150167Y0127044D01*
X0150195Y0127078D01*
X0150224Y0127124D01*
X0150292Y0127221D01*
X0150384Y0127329D01*
X0150498Y0127444D01*
X0150629Y0127552D01*
X0150778Y0127649D01*
X0150783D01*
X0150795Y0127661D01*
X0150818Y0127672D01*
X0150852Y0127683D01*
X0150892Y0127706D01*
X0150938Y0127723D01*
X0150995Y0127746D01*
X0151052Y0127769D01*
X0151120Y0127786D01*
X0151189Y0127809D01*
X0151349Y0127849D01*
X0151520Y0127872D01*
X0151708Y0127883D01*
X0151766D01*
X0151805Y0127877D01*
D02*
G37*
G36*
X0141362D02*
X0141413Y0127872D01*
X0141470Y0127866D01*
X0141533Y0127860D01*
X0141607Y0127849D01*
X0141756Y0127809D01*
X0141921Y0127758D01*
X0142001Y0127723D01*
X0142081Y0127683D01*
X0142161Y0127638D01*
X0142236Y0127586D01*
X0142241Y0127581D01*
X0142253Y0127575D01*
X0142276Y0127558D01*
X0142298Y0127535D01*
X0142333Y0127501D01*
X0142367Y0127466D01*
X0142407Y0127421D01*
X0142453Y0127375D01*
X0142498Y0127318D01*
X0142544Y0127255D01*
X0142590Y0127192D01*
X0142635Y0127118D01*
X0142681Y0127038D01*
X0142721Y0126953D01*
X0142755Y0126861D01*
X0142789Y0126764D01*
X0142287Y0126644D01*
Y0126650D01*
X0142281Y0126661D01*
X0142276Y0126684D01*
X0142264Y0126713D01*
X0142247Y0126747D01*
X0142230Y0126787D01*
X0142184Y0126878D01*
X0142133Y0126975D01*
X0142064Y0127078D01*
X0141984Y0127175D01*
X0141893Y0127255D01*
X0141882Y0127261D01*
X0141847Y0127284D01*
X0141796Y0127318D01*
X0141722Y0127352D01*
X0141630Y0127386D01*
X0141522Y0127421D01*
X0141396Y0127444D01*
X0141259Y0127449D01*
X0141213D01*
X0141185Y0127444D01*
X0141145D01*
X0141105Y0127438D01*
X0141002Y0127421D01*
X0140882Y0127398D01*
X0140757Y0127358D01*
X0140637Y0127306D01*
X0140517Y0127232D01*
X0140511D01*
X0140505Y0127221D01*
X0140471Y0127192D01*
X0140414Y0127147D01*
X0140351Y0127084D01*
X0140283Y0126998D01*
X0140214Y0126901D01*
X0140151Y0126787D01*
X0140100Y0126661D01*
Y0126656D01*
X0140094Y0126644D01*
X0140089Y0126627D01*
X0140083Y0126599D01*
X0140071Y0126570D01*
X0140060Y0126530D01*
X0140043Y0126439D01*
X0140020Y0126324D01*
X0139997Y0126199D01*
X0139986Y0126067D01*
X0139980Y0125925D01*
Y0125919D01*
Y0125902D01*
Y0125879D01*
Y0125845D01*
X0139986Y0125799D01*
Y0125748D01*
X0139991Y0125696D01*
X0139997Y0125634D01*
X0140014Y0125502D01*
X0140043Y0125354D01*
X0140077Y0125211D01*
X0140123Y0125068D01*
Y0125063D01*
X0140129Y0125051D01*
X0140140Y0125034D01*
X0140151Y0125011D01*
X0140186Y0124943D01*
X0140231Y0124863D01*
X0140294Y0124771D01*
X0140368Y0124686D01*
X0140460Y0124594D01*
X0140562Y0124520D01*
X0140568D01*
X0140574Y0124514D01*
X0140591Y0124503D01*
X0140614Y0124492D01*
X0140677Y0124463D01*
X0140757Y0124434D01*
X0140854Y0124400D01*
X0140968Y0124372D01*
X0141088Y0124349D01*
X0141219Y0124343D01*
X0141259D01*
X0141288Y0124349D01*
X0141328D01*
X0141368Y0124355D01*
X0141470Y0124372D01*
X0141579Y0124406D01*
X0141699Y0124446D01*
X0141824Y0124509D01*
X0141882Y0124543D01*
X0141939Y0124589D01*
X0141944Y0124594D01*
X0141950Y0124600D01*
X0141967Y0124617D01*
X0141984Y0124634D01*
X0142013Y0124663D01*
X0142036Y0124691D01*
X0142098Y0124771D01*
X0142167Y0124874D01*
X0142236Y0125000D01*
X0142298Y0125148D01*
X0142344Y0125320D01*
X0142852Y0125188D01*
Y0125182D01*
X0142847Y0125160D01*
X0142835Y0125131D01*
X0142824Y0125085D01*
X0142801Y0125034D01*
X0142778Y0124971D01*
X0142755Y0124908D01*
X0142721Y0124834D01*
X0142641Y0124680D01*
X0142544Y0124526D01*
X0142481Y0124446D01*
X0142418Y0124372D01*
X0142350Y0124297D01*
X0142276Y0124235D01*
X0142270Y0124229D01*
X0142258Y0124223D01*
X0142236Y0124206D01*
X0142201Y0124183D01*
X0142161Y0124160D01*
X0142110Y0124132D01*
X0142059Y0124103D01*
X0141990Y0124075D01*
X0141921Y0124040D01*
X0141842Y0124012D01*
X0141762Y0123983D01*
X0141670Y0123960D01*
X0141573Y0123938D01*
X0141476Y0123921D01*
X0141368Y0123915D01*
X0141259Y0123909D01*
X0141202D01*
X0141156Y0123915D01*
X0141105D01*
X0141042Y0123921D01*
X0140974Y0123932D01*
X0140899Y0123943D01*
X0140740Y0123972D01*
X0140568Y0124018D01*
X0140403Y0124080D01*
X0140323Y0124115D01*
X0140249Y0124160D01*
X0140243Y0124166D01*
X0140231Y0124172D01*
X0140214Y0124189D01*
X0140186Y0124206D01*
X0140151Y0124235D01*
X0140117Y0124263D01*
X0140032Y0124349D01*
X0139934Y0124451D01*
X0139832Y0124577D01*
X0139740Y0124720D01*
X0139655Y0124891D01*
Y0124897D01*
X0139649Y0124914D01*
X0139637Y0124937D01*
X0139626Y0124977D01*
X0139609Y0125017D01*
X0139592Y0125074D01*
X0139575Y0125131D01*
X0139558Y0125200D01*
X0139535Y0125274D01*
X0139518Y0125354D01*
X0139489Y0125531D01*
X0139466Y0125719D01*
X0139455Y0125925D01*
Y0125930D01*
Y0125953D01*
Y0125982D01*
X0139461Y0126028D01*
Y0126079D01*
X0139466Y0126136D01*
X0139472Y0126205D01*
X0139483Y0126279D01*
X0139512Y0126444D01*
X0139552Y0126621D01*
X0139609Y0126798D01*
X0139683Y0126970D01*
Y0126975D01*
X0139695Y0126987D01*
X0139706Y0127010D01*
X0139723Y0127044D01*
X0139752Y0127078D01*
X0139780Y0127124D01*
X0139849Y0127221D01*
X0139940Y0127329D01*
X0140054Y0127444D01*
X0140186Y0127552D01*
X0140334Y0127649D01*
X0140340D01*
X0140351Y0127661D01*
X0140374Y0127672D01*
X0140408Y0127683D01*
X0140448Y0127706D01*
X0140494Y0127723D01*
X0140551Y0127746D01*
X0140608Y0127769D01*
X0140677Y0127786D01*
X0140745Y0127809D01*
X0140905Y0127849D01*
X0141076Y0127872D01*
X0141265Y0127883D01*
X0141322D01*
X0141362Y0127877D01*
D02*
G37*
G36*
X0134499D02*
X0134550Y0127872D01*
X0134607Y0127866D01*
X0134670Y0127860D01*
X0134744Y0127849D01*
X0134892Y0127809D01*
X0135058Y0127758D01*
X0135138Y0127723D01*
X0135218Y0127683D01*
X0135298Y0127638D01*
X0135372Y0127586D01*
X0135378Y0127581D01*
X0135389Y0127575D01*
X0135412Y0127558D01*
X0135435Y0127535D01*
X0135469Y0127501D01*
X0135503Y0127466D01*
X0135543Y0127421D01*
X0135589Y0127375D01*
X0135635Y0127318D01*
X0135680Y0127255D01*
X0135726Y0127192D01*
X0135772Y0127118D01*
X0135818Y0127038D01*
X0135857Y0126953D01*
X0135892Y0126861D01*
X0135926Y0126764D01*
X0135424Y0126644D01*
Y0126650D01*
X0135418Y0126661D01*
X0135412Y0126684D01*
X0135401Y0126713D01*
X0135383Y0126747D01*
X0135366Y0126787D01*
X0135321Y0126878D01*
X0135269Y0126975D01*
X0135201Y0127078D01*
X0135121Y0127175D01*
X0135029Y0127255D01*
X0135018Y0127261D01*
X0134984Y0127284D01*
X0134932Y0127318D01*
X0134858Y0127352D01*
X0134767Y0127386D01*
X0134658Y0127421D01*
X0134533Y0127444D01*
X0134396Y0127449D01*
X0134350D01*
X0134321Y0127444D01*
X0134282D01*
X0134241Y0127438D01*
X0134139Y0127421D01*
X0134019Y0127398D01*
X0133893Y0127358D01*
X0133773Y0127306D01*
X0133653Y0127232D01*
X0133648D01*
X0133642Y0127221D01*
X0133608Y0127192D01*
X0133551Y0127147D01*
X0133488Y0127084D01*
X0133419Y0126998D01*
X0133351Y0126901D01*
X0133288Y0126787D01*
X0133237Y0126661D01*
Y0126656D01*
X0133231Y0126644D01*
X0133225Y0126627D01*
X0133220Y0126599D01*
X0133208Y0126570D01*
X0133197Y0126530D01*
X0133179Y0126439D01*
X0133157Y0126324D01*
X0133134Y0126199D01*
X0133122Y0126067D01*
X0133117Y0125925D01*
Y0125919D01*
Y0125902D01*
Y0125879D01*
Y0125845D01*
X0133122Y0125799D01*
Y0125748D01*
X0133128Y0125696D01*
X0133134Y0125634D01*
X0133151Y0125502D01*
X0133179Y0125354D01*
X0133214Y0125211D01*
X0133259Y0125068D01*
Y0125063D01*
X0133265Y0125051D01*
X0133276Y0125034D01*
X0133288Y0125011D01*
X0133322Y0124943D01*
X0133368Y0124863D01*
X0133431Y0124771D01*
X0133505Y0124686D01*
X0133596Y0124594D01*
X0133699Y0124520D01*
X0133705D01*
X0133711Y0124514D01*
X0133728Y0124503D01*
X0133750Y0124492D01*
X0133813Y0124463D01*
X0133893Y0124434D01*
X0133990Y0124400D01*
X0134105Y0124372D01*
X0134224Y0124349D01*
X0134356Y0124343D01*
X0134396D01*
X0134424Y0124349D01*
X0134464D01*
X0134504Y0124355D01*
X0134607Y0124372D01*
X0134715Y0124406D01*
X0134835Y0124446D01*
X0134961Y0124509D01*
X0135018Y0124543D01*
X0135075Y0124589D01*
X0135081Y0124594D01*
X0135087Y0124600D01*
X0135104Y0124617D01*
X0135121Y0124634D01*
X0135149Y0124663D01*
X0135172Y0124691D01*
X0135235Y0124771D01*
X0135304Y0124874D01*
X0135372Y0125000D01*
X0135435Y0125148D01*
X0135481Y0125320D01*
X0135989Y0125188D01*
Y0125182D01*
X0135983Y0125160D01*
X0135972Y0125131D01*
X0135960Y0125085D01*
X0135937Y0125034D01*
X0135915Y0124971D01*
X0135892Y0124908D01*
X0135857Y0124834D01*
X0135777Y0124680D01*
X0135680Y0124526D01*
X0135618Y0124446D01*
X0135555Y0124372D01*
X0135486Y0124297D01*
X0135412Y0124235D01*
X0135406Y0124229D01*
X0135395Y0124223D01*
X0135372Y0124206D01*
X0135338Y0124183D01*
X0135298Y0124160D01*
X0135247Y0124132D01*
X0135195Y0124103D01*
X0135127Y0124075D01*
X0135058Y0124040D01*
X0134978Y0124012D01*
X0134898Y0123983D01*
X0134807Y0123960D01*
X0134710Y0123938D01*
X0134613Y0123921D01*
X0134504Y0123915D01*
X0134396Y0123909D01*
X0134339D01*
X0134293Y0123915D01*
X0134241D01*
X0134179Y0123921D01*
X0134110Y0123932D01*
X0134036Y0123943D01*
X0133876Y0123972D01*
X0133705Y0124018D01*
X0133539Y0124080D01*
X0133459Y0124115D01*
X0133385Y0124160D01*
X0133379Y0124166D01*
X0133368Y0124172D01*
X0133351Y0124189D01*
X0133322Y0124206D01*
X0133288Y0124235D01*
X0133254Y0124263D01*
X0133168Y0124349D01*
X0133071Y0124451D01*
X0132968Y0124577D01*
X0132877Y0124720D01*
X0132791Y0124891D01*
Y0124897D01*
X0132785Y0124914D01*
X0132774Y0124937D01*
X0132763Y0124977D01*
X0132746Y0125017D01*
X0132728Y0125074D01*
X0132711Y0125131D01*
X0132694Y0125200D01*
X0132671Y0125274D01*
X0132654Y0125354D01*
X0132626Y0125531D01*
X0132603Y0125719D01*
X0132591Y0125925D01*
Y0125930D01*
Y0125953D01*
Y0125982D01*
X0132597Y0126028D01*
Y0126079D01*
X0132603Y0126136D01*
X0132608Y0126205D01*
X0132620Y0126279D01*
X0132649Y0126444D01*
X0132688Y0126621D01*
X0132746Y0126798D01*
X0132820Y0126970D01*
Y0126975D01*
X0132831Y0126987D01*
X0132843Y0127010D01*
X0132860Y0127044D01*
X0132888Y0127078D01*
X0132917Y0127124D01*
X0132985Y0127221D01*
X0133077Y0127329D01*
X0133191Y0127444D01*
X0133322Y0127552D01*
X0133471Y0127649D01*
X0133476D01*
X0133488Y0127661D01*
X0133511Y0127672D01*
X0133545Y0127683D01*
X0133585Y0127706D01*
X0133631Y0127723D01*
X0133688Y0127746D01*
X0133745Y0127769D01*
X0133813Y0127786D01*
X0133882Y0127809D01*
X0134042Y0127849D01*
X0134213Y0127872D01*
X0134401Y0127883D01*
X0134458D01*
X0134499Y0127877D01*
D02*
G37*
G36*
X0158623Y0127821D02*
X0158697Y0127809D01*
X0158789Y0127792D01*
X0158886Y0127769D01*
X0158983Y0127735D01*
X0159086Y0127689D01*
X0159091D01*
X0159097Y0127683D01*
X0159131Y0127666D01*
X0159177Y0127632D01*
X0159240Y0127592D01*
X0159303Y0127541D01*
X0159371Y0127472D01*
X0159440Y0127404D01*
X0159497Y0127318D01*
X0159503Y0127306D01*
X0159520Y0127278D01*
X0159543Y0127232D01*
X0159571Y0127170D01*
X0159594Y0127095D01*
X0159617Y0127015D01*
X0159634Y0126924D01*
X0159640Y0126827D01*
Y0126815D01*
Y0126787D01*
X0159634Y0126735D01*
X0159623Y0126678D01*
X0159605Y0126604D01*
X0159582Y0126530D01*
X0159548Y0126450D01*
X0159503Y0126370D01*
X0159497Y0126359D01*
X0159480Y0126336D01*
X0159446Y0126302D01*
X0159406Y0126256D01*
X0159348Y0126205D01*
X0159280Y0126153D01*
X0159200Y0126096D01*
X0159109Y0126050D01*
X0159114D01*
X0159126Y0126045D01*
X0159143Y0126039D01*
X0159166Y0126033D01*
X0159223Y0126010D01*
X0159303Y0125982D01*
X0159383Y0125936D01*
X0159474Y0125879D01*
X0159560Y0125811D01*
X0159634Y0125725D01*
X0159640Y0125714D01*
X0159662Y0125679D01*
X0159697Y0125628D01*
X0159731Y0125554D01*
X0159765Y0125468D01*
X0159800Y0125359D01*
X0159822Y0125240D01*
X0159828Y0125108D01*
Y0125102D01*
Y0125085D01*
Y0125063D01*
X0159822Y0125023D01*
X0159817Y0124983D01*
X0159811Y0124931D01*
X0159800Y0124874D01*
X0159782Y0124811D01*
X0159737Y0124680D01*
X0159708Y0124611D01*
X0159674Y0124537D01*
X0159628Y0124463D01*
X0159577Y0124395D01*
X0159520Y0124326D01*
X0159457Y0124257D01*
X0159451Y0124252D01*
X0159440Y0124240D01*
X0159417Y0124223D01*
X0159394Y0124206D01*
X0159354Y0124178D01*
X0159314Y0124149D01*
X0159263Y0124115D01*
X0159206Y0124086D01*
X0159143Y0124052D01*
X0159069Y0124018D01*
X0158994Y0123989D01*
X0158914Y0123966D01*
X0158823Y0123943D01*
X0158732Y0123926D01*
X0158635Y0123915D01*
X0158532Y0123909D01*
X0158481D01*
X0158446Y0123915D01*
X0158406Y0123921D01*
X0158355Y0123926D01*
X0158298Y0123932D01*
X0158235Y0123949D01*
X0158104Y0123983D01*
X0157961Y0124035D01*
X0157892Y0124069D01*
X0157818Y0124109D01*
X0157750Y0124155D01*
X0157687Y0124206D01*
X0157681Y0124212D01*
X0157675Y0124217D01*
X0157658Y0124235D01*
X0157635Y0124263D01*
X0157607Y0124292D01*
X0157578Y0124326D01*
X0157550Y0124372D01*
X0157516Y0124417D01*
X0157447Y0124531D01*
X0157390Y0124669D01*
X0157339Y0124823D01*
X0157321Y0124903D01*
X0157310Y0124994D01*
X0157784Y0125057D01*
Y0125051D01*
X0157790Y0125040D01*
X0157795Y0125017D01*
X0157801Y0124988D01*
X0157807Y0124960D01*
X0157818Y0124920D01*
X0157847Y0124834D01*
X0157887Y0124737D01*
X0157932Y0124640D01*
X0157989Y0124549D01*
X0158058Y0124474D01*
X0158069Y0124469D01*
X0158092Y0124446D01*
X0158132Y0124417D01*
X0158189Y0124389D01*
X0158258Y0124355D01*
X0158338Y0124326D01*
X0158429Y0124303D01*
X0158532Y0124297D01*
X0158566D01*
X0158589Y0124303D01*
X0158652Y0124309D01*
X0158732Y0124326D01*
X0158817Y0124355D01*
X0158914Y0124395D01*
X0159006Y0124451D01*
X0159097Y0124526D01*
X0159109Y0124537D01*
X0159131Y0124566D01*
X0159171Y0124617D01*
X0159211Y0124680D01*
X0159251Y0124766D01*
X0159291Y0124863D01*
X0159314Y0124971D01*
X0159326Y0125091D01*
Y0125097D01*
Y0125108D01*
Y0125125D01*
X0159320Y0125148D01*
X0159314Y0125205D01*
X0159297Y0125279D01*
X0159274Y0125365D01*
X0159234Y0125457D01*
X0159183Y0125542D01*
X0159109Y0125628D01*
X0159097Y0125639D01*
X0159069Y0125662D01*
X0159023Y0125696D01*
X0158960Y0125736D01*
X0158886Y0125771D01*
X0158794Y0125805D01*
X0158686Y0125828D01*
X0158572Y0125839D01*
X0158520D01*
X0158481Y0125833D01*
X0158435Y0125828D01*
X0158378Y0125816D01*
X0158315Y0125805D01*
X0158241Y0125788D01*
X0158292Y0126205D01*
X0158321D01*
X0158344Y0126199D01*
X0158418D01*
X0158475Y0126205D01*
X0158549Y0126216D01*
X0158635Y0126239D01*
X0158720Y0126262D01*
X0158817Y0126302D01*
X0158909Y0126353D01*
X0158914D01*
X0158920Y0126359D01*
X0158949Y0126382D01*
X0158989Y0126421D01*
X0159034Y0126473D01*
X0159074Y0126541D01*
X0159114Y0126627D01*
X0159143Y0126724D01*
X0159154Y0126781D01*
Y0126838D01*
Y0126844D01*
Y0126850D01*
Y0126884D01*
X0159143Y0126930D01*
X0159131Y0126987D01*
X0159109Y0127055D01*
X0159080Y0127129D01*
X0159034Y0127198D01*
X0158977Y0127267D01*
X0158972Y0127272D01*
X0158943Y0127295D01*
X0158909Y0127324D01*
X0158852Y0127352D01*
X0158789Y0127386D01*
X0158709Y0127409D01*
X0158623Y0127432D01*
X0158520Y0127438D01*
X0158475D01*
X0158423Y0127427D01*
X0158361Y0127415D01*
X0158286Y0127392D01*
X0158212Y0127364D01*
X0158138Y0127318D01*
X0158064Y0127261D01*
X0158058Y0127255D01*
X0158035Y0127227D01*
X0158001Y0127187D01*
X0157967Y0127135D01*
X0157927Y0127061D01*
X0157887Y0126970D01*
X0157852Y0126867D01*
X0157829Y0126747D01*
X0157356Y0126833D01*
Y0126838D01*
X0157361Y0126856D01*
X0157367Y0126878D01*
X0157373Y0126913D01*
X0157384Y0126947D01*
X0157401Y0126992D01*
X0157436Y0127101D01*
X0157487Y0127215D01*
X0157555Y0127341D01*
X0157641Y0127455D01*
X0157744Y0127564D01*
X0157750Y0127569D01*
X0157761Y0127575D01*
X0157778Y0127586D01*
X0157801Y0127603D01*
X0157829Y0127626D01*
X0157864Y0127649D01*
X0157910Y0127672D01*
X0157955Y0127695D01*
X0158064Y0127741D01*
X0158195Y0127786D01*
X0158344Y0127815D01*
X0158423Y0127826D01*
X0158560D01*
X0158623Y0127821D01*
D02*
G37*
G36*
X0155448Y0127809D02*
X0155494D01*
X0155591Y0127798D01*
X0155705Y0127786D01*
X0155820Y0127763D01*
X0155939Y0127735D01*
X0156042Y0127695D01*
X0156048D01*
X0156054Y0127689D01*
X0156088Y0127672D01*
X0156134Y0127643D01*
X0156196Y0127609D01*
X0156265Y0127558D01*
X0156333Y0127495D01*
X0156396Y0127421D01*
X0156459Y0127335D01*
X0156465Y0127324D01*
X0156482Y0127295D01*
X0156510Y0127244D01*
X0156539Y0127181D01*
X0156562Y0127107D01*
X0156590Y0127021D01*
X0156608Y0126924D01*
X0156613Y0126827D01*
Y0126815D01*
Y0126787D01*
X0156608Y0126735D01*
X0156596Y0126678D01*
X0156579Y0126604D01*
X0156556Y0126530D01*
X0156522Y0126444D01*
X0156476Y0126364D01*
X0156471Y0126353D01*
X0156453Y0126330D01*
X0156419Y0126290D01*
X0156379Y0126239D01*
X0156322Y0126182D01*
X0156248Y0126125D01*
X0156168Y0126067D01*
X0156071Y0126016D01*
X0156077D01*
X0156088Y0126010D01*
X0156105Y0126005D01*
X0156128Y0125999D01*
X0156191Y0125970D01*
X0156271Y0125936D01*
X0156356Y0125885D01*
X0156442Y0125822D01*
X0156533Y0125748D01*
X0156608Y0125662D01*
X0156613Y0125651D01*
X0156636Y0125616D01*
X0156670Y0125565D01*
X0156705Y0125496D01*
X0156739Y0125411D01*
X0156773Y0125314D01*
X0156796Y0125205D01*
X0156802Y0125085D01*
Y0125080D01*
Y0125074D01*
Y0125040D01*
X0156796Y0124988D01*
X0156790Y0124920D01*
X0156773Y0124840D01*
X0156756Y0124754D01*
X0156728Y0124669D01*
X0156688Y0124577D01*
X0156682Y0124566D01*
X0156665Y0124537D01*
X0156642Y0124497D01*
X0156608Y0124446D01*
X0156568Y0124389D01*
X0156522Y0124332D01*
X0156465Y0124275D01*
X0156402Y0124223D01*
X0156396Y0124217D01*
X0156374Y0124200D01*
X0156333Y0124178D01*
X0156288Y0124155D01*
X0156225Y0124120D01*
X0156157Y0124092D01*
X0156071Y0124063D01*
X0155980Y0124035D01*
X0155968D01*
X0155934Y0124023D01*
X0155882Y0124018D01*
X0155808Y0124006D01*
X0155717Y0123995D01*
X0155614Y0123983D01*
X0155494Y0123978D01*
X0155363Y0123972D01*
X0153901D01*
Y0127815D01*
X0155414D01*
X0155448Y0127809D01*
D02*
G37*
G36*
X0148128D02*
X0148220Y0127803D01*
X0148317Y0127798D01*
X0148414Y0127786D01*
X0148494Y0127775D01*
X0148505D01*
X0148539Y0127763D01*
X0148597Y0127752D01*
X0148659Y0127735D01*
X0148733Y0127712D01*
X0148813Y0127683D01*
X0148893Y0127643D01*
X0148968Y0127598D01*
X0148979Y0127592D01*
X0149002Y0127575D01*
X0149036Y0127546D01*
X0149082Y0127501D01*
X0149127Y0127449D01*
X0149179Y0127386D01*
X0149230Y0127312D01*
X0149276Y0127227D01*
X0149282Y0127215D01*
X0149293Y0127187D01*
X0149316Y0127135D01*
X0149339Y0127072D01*
X0149356Y0126992D01*
X0149379Y0126907D01*
X0149390Y0126804D01*
X0149396Y0126701D01*
Y0126696D01*
Y0126678D01*
Y0126656D01*
X0149390Y0126621D01*
X0149384Y0126576D01*
X0149379Y0126530D01*
X0149367Y0126473D01*
X0149356Y0126416D01*
X0149322Y0126285D01*
X0149265Y0126147D01*
X0149230Y0126073D01*
X0149185Y0126005D01*
X0149139Y0125936D01*
X0149082Y0125873D01*
X0149076Y0125868D01*
X0149065Y0125856D01*
X0149048Y0125845D01*
X0149019Y0125822D01*
X0148985Y0125793D01*
X0148939Y0125765D01*
X0148888Y0125736D01*
X0148825Y0125708D01*
X0148751Y0125673D01*
X0148671Y0125645D01*
X0148579Y0125616D01*
X0148477Y0125588D01*
X0148362Y0125565D01*
X0148237Y0125554D01*
X0148105Y0125542D01*
X0147957Y0125536D01*
X0146975D01*
Y0123972D01*
X0146467D01*
Y0127815D01*
X0148043D01*
X0148128Y0127809D01*
D02*
G37*
G36*
X0138199Y0123972D02*
X0137725D01*
Y0126970D01*
X0137719Y0126964D01*
X0137696Y0126941D01*
X0137656Y0126913D01*
X0137605Y0126867D01*
X0137542Y0126821D01*
X0137462Y0126764D01*
X0137371Y0126707D01*
X0137274Y0126644D01*
X0137268D01*
X0137262Y0126638D01*
X0137228Y0126616D01*
X0137177Y0126587D01*
X0137108Y0126553D01*
X0137034Y0126513D01*
X0136954Y0126479D01*
X0136868Y0126439D01*
X0136783Y0126404D01*
Y0126861D01*
X0136788D01*
X0136800Y0126867D01*
X0136822Y0126878D01*
X0136851Y0126895D01*
X0136885Y0126913D01*
X0136925Y0126935D01*
X0137017Y0126987D01*
X0137125Y0127050D01*
X0137239Y0127124D01*
X0137354Y0127209D01*
X0137468Y0127306D01*
X0137473Y0127312D01*
X0137479Y0127318D01*
X0137519Y0127352D01*
X0137571Y0127404D01*
X0137633Y0127472D01*
X0137702Y0127552D01*
X0137770Y0127638D01*
X0137839Y0127729D01*
X0137890Y0127826D01*
X0138199D01*
Y0123972D01*
D02*
G37*
G36*
X0131946Y0127364D02*
X0129674D01*
Y0126187D01*
X0131803D01*
Y0125736D01*
X0129674D01*
Y0124423D01*
X0132037D01*
Y0123972D01*
X0129165D01*
Y0127815D01*
X0131946D01*
Y0127364D01*
D02*
G37*
G36*
X0146107Y0122904D02*
X0142983D01*
Y0123247D01*
X0146107D01*
Y0122904D01*
D02*
G37*
G36*
X0171836Y0216657D02*
X0171888Y0216651D01*
X0171945Y0216646D01*
X0172008Y0216640D01*
X0172082Y0216629D01*
X0172230Y0216589D01*
X0172396Y0216537D01*
X0172476Y0216503D01*
X0172556Y0216463D01*
X0172636Y0216417D01*
X0172710Y0216366D01*
X0172716Y0216360D01*
X0172727Y0216354D01*
X0172750Y0216337D01*
X0172773Y0216315D01*
X0172807Y0216280D01*
X0172841Y0216246D01*
X0172881Y0216200D01*
X0172927Y0216155D01*
X0172973Y0216097D01*
X0173018Y0216035D01*
X0173064Y0215972D01*
X0173110Y0215898D01*
X0173155Y0215818D01*
X0173195Y0215732D01*
X0173230Y0215641D01*
X0173264Y0215544D01*
X0172761Y0215424D01*
Y0215429D01*
X0172756Y0215441D01*
X0172750Y0215464D01*
X0172739Y0215492D01*
X0172721Y0215527D01*
X0172704Y0215566D01*
X0172659Y0215658D01*
X0172607Y0215755D01*
X0172539Y0215858D01*
X0172459Y0215955D01*
X0172367Y0216035D01*
X0172356Y0216040D01*
X0172322Y0216063D01*
X0172270Y0216097D01*
X0172196Y0216132D01*
X0172105Y0216166D01*
X0171996Y0216200D01*
X0171871Y0216223D01*
X0171734Y0216229D01*
X0171688D01*
X0171659Y0216223D01*
X0171619D01*
X0171579Y0216217D01*
X0171477Y0216200D01*
X0171357Y0216177D01*
X0171231Y0216138D01*
X0171111Y0216086D01*
X0170991Y0216012D01*
X0170985D01*
X0170980Y0216000D01*
X0170946Y0215972D01*
X0170888Y0215926D01*
X0170826Y0215863D01*
X0170757Y0215778D01*
X0170689Y0215681D01*
X0170626Y0215566D01*
X0170574Y0215441D01*
Y0215435D01*
X0170569Y0215424D01*
X0170563Y0215407D01*
X0170557Y0215378D01*
X0170546Y0215350D01*
X0170535Y0215310D01*
X0170517Y0215218D01*
X0170494Y0215104D01*
X0170472Y0214978D01*
X0170460Y0214847D01*
X0170455Y0214704D01*
Y0214699D01*
Y0214681D01*
Y0214659D01*
Y0214624D01*
X0170460Y0214579D01*
Y0214527D01*
X0170466Y0214476D01*
X0170472Y0214413D01*
X0170489Y0214282D01*
X0170517Y0214133D01*
X0170552Y0213990D01*
X0170597Y0213848D01*
Y0213842D01*
X0170603Y0213831D01*
X0170614Y0213813D01*
X0170626Y0213791D01*
X0170660Y0213722D01*
X0170706Y0213642D01*
X0170769Y0213551D01*
X0170843Y0213465D01*
X0170934Y0213374D01*
X0171037Y0213300D01*
X0171043D01*
X0171048Y0213294D01*
X0171065Y0213282D01*
X0171088Y0213271D01*
X0171151Y0213243D01*
X0171231Y0213214D01*
X0171328Y0213180D01*
X0171442Y0213151D01*
X0171562Y0213128D01*
X0171694Y0213123D01*
X0171734D01*
X0171762Y0213128D01*
X0171802D01*
X0171842Y0213134D01*
X0171945Y0213151D01*
X0172053Y0213185D01*
X0172173Y0213225D01*
X0172299Y0213288D01*
X0172356Y0213322D01*
X0172413Y0213368D01*
X0172419Y0213374D01*
X0172424Y0213380D01*
X0172442Y0213397D01*
X0172459Y0213414D01*
X0172487Y0213442D01*
X0172510Y0213471D01*
X0172573Y0213551D01*
X0172642Y0213654D01*
X0172710Y0213779D01*
X0172773Y0213928D01*
X0172819Y0214099D01*
X0173327Y0213968D01*
Y0213962D01*
X0173321Y0213939D01*
X0173310Y0213911D01*
X0173298Y0213865D01*
X0173275Y0213813D01*
X0173252Y0213751D01*
X0173230Y0213688D01*
X0173195Y0213614D01*
X0173115Y0213459D01*
X0173018Y0213305D01*
X0172956Y0213225D01*
X0172893Y0213151D01*
X0172824Y0213077D01*
X0172750Y0213014D01*
X0172744Y0213008D01*
X0172733Y0213003D01*
X0172710Y0212986D01*
X0172676Y0212963D01*
X0172636Y0212940D01*
X0172584Y0212911D01*
X0172533Y0212883D01*
X0172464Y0212854D01*
X0172396Y0212820D01*
X0172316Y0212791D01*
X0172236Y0212763D01*
X0172145Y0212740D01*
X0172048Y0212717D01*
X0171950Y0212700D01*
X0171842Y0212694D01*
X0171734Y0212689D01*
X0171677D01*
X0171631Y0212694D01*
X0171579D01*
X0171517Y0212700D01*
X0171448Y0212712D01*
X0171374Y0212723D01*
X0171214Y0212751D01*
X0171043Y0212797D01*
X0170877Y0212860D01*
X0170797Y0212894D01*
X0170723Y0212940D01*
X0170717Y0212946D01*
X0170706Y0212951D01*
X0170689Y0212968D01*
X0170660Y0212986D01*
X0170626Y0213014D01*
X0170592Y0213043D01*
X0170506Y0213128D01*
X0170409Y0213231D01*
X0170306Y0213357D01*
X0170215Y0213499D01*
X0170129Y0213671D01*
Y0213677D01*
X0170123Y0213694D01*
X0170112Y0213716D01*
X0170100Y0213756D01*
X0170083Y0213796D01*
X0170066Y0213854D01*
X0170049Y0213911D01*
X0170032Y0213979D01*
X0170009Y0214053D01*
X0169992Y0214133D01*
X0169964Y0214310D01*
X0169941Y0214499D01*
X0169929Y0214704D01*
Y0214710D01*
Y0214733D01*
Y0214761D01*
X0169935Y0214807D01*
Y0214858D01*
X0169941Y0214915D01*
X0169946Y0214984D01*
X0169958Y0215058D01*
X0169986Y0215224D01*
X0170026Y0215401D01*
X0170083Y0215578D01*
X0170158Y0215749D01*
Y0215755D01*
X0170169Y0215766D01*
X0170180Y0215789D01*
X0170198Y0215823D01*
X0170226Y0215858D01*
X0170255Y0215903D01*
X0170323Y0216000D01*
X0170415Y0216109D01*
X0170529Y0216223D01*
X0170660Y0216332D01*
X0170808Y0216429D01*
X0170814D01*
X0170826Y0216440D01*
X0170849Y0216452D01*
X0170883Y0216463D01*
X0170923Y0216486D01*
X0170968Y0216503D01*
X0171026Y0216526D01*
X0171083Y0216549D01*
X0171151Y0216566D01*
X0171220Y0216589D01*
X0171379Y0216629D01*
X0171551Y0216651D01*
X0171739Y0216663D01*
X0171796D01*
X0171836Y0216657D01*
D02*
G37*
G36*
X0161393D02*
X0161444Y0216651D01*
X0161501Y0216646D01*
X0161564Y0216640D01*
X0161638Y0216629D01*
X0161787Y0216589D01*
X0161952Y0216537D01*
X0162032Y0216503D01*
X0162112Y0216463D01*
X0162192Y0216417D01*
X0162266Y0216366D01*
X0162272Y0216360D01*
X0162284Y0216354D01*
X0162306Y0216337D01*
X0162329Y0216315D01*
X0162363Y0216280D01*
X0162398Y0216246D01*
X0162438Y0216200D01*
X0162483Y0216155D01*
X0162529Y0216097D01*
X0162575Y0216035D01*
X0162620Y0215972D01*
X0162666Y0215898D01*
X0162712Y0215818D01*
X0162752Y0215732D01*
X0162786Y0215641D01*
X0162820Y0215544D01*
X0162318Y0215424D01*
Y0215429D01*
X0162312Y0215441D01*
X0162306Y0215464D01*
X0162295Y0215492D01*
X0162278Y0215527D01*
X0162261Y0215566D01*
X0162215Y0215658D01*
X0162164Y0215755D01*
X0162095Y0215858D01*
X0162015Y0215955D01*
X0161924Y0216035D01*
X0161912Y0216040D01*
X0161878Y0216063D01*
X0161827Y0216097D01*
X0161752Y0216132D01*
X0161661Y0216166D01*
X0161553Y0216200D01*
X0161427Y0216223D01*
X0161290Y0216229D01*
X0161244D01*
X0161216Y0216223D01*
X0161176D01*
X0161136Y0216217D01*
X0161033Y0216200D01*
X0160913Y0216177D01*
X0160787Y0216138D01*
X0160668Y0216086D01*
X0160548Y0216012D01*
X0160542D01*
X0160536Y0216000D01*
X0160502Y0215972D01*
X0160445Y0215926D01*
X0160382Y0215863D01*
X0160314Y0215778D01*
X0160245Y0215681D01*
X0160182Y0215566D01*
X0160131Y0215441D01*
Y0215435D01*
X0160125Y0215424D01*
X0160119Y0215407D01*
X0160114Y0215378D01*
X0160102Y0215350D01*
X0160091Y0215310D01*
X0160074Y0215218D01*
X0160051Y0215104D01*
X0160028Y0214978D01*
X0160017Y0214847D01*
X0160011Y0214704D01*
Y0214699D01*
Y0214681D01*
Y0214659D01*
Y0214624D01*
X0160017Y0214579D01*
Y0214527D01*
X0160022Y0214476D01*
X0160028Y0214413D01*
X0160045Y0214282D01*
X0160074Y0214133D01*
X0160108Y0213990D01*
X0160154Y0213848D01*
Y0213842D01*
X0160159Y0213831D01*
X0160171Y0213813D01*
X0160182Y0213791D01*
X0160216Y0213722D01*
X0160262Y0213642D01*
X0160325Y0213551D01*
X0160399Y0213465D01*
X0160491Y0213374D01*
X0160593Y0213300D01*
X0160599D01*
X0160605Y0213294D01*
X0160622Y0213282D01*
X0160645Y0213271D01*
X0160707Y0213243D01*
X0160787Y0213214D01*
X0160885Y0213180D01*
X0160999Y0213151D01*
X0161119Y0213128D01*
X0161250Y0213123D01*
X0161290D01*
X0161319Y0213128D01*
X0161358D01*
X0161398Y0213134D01*
X0161501Y0213151D01*
X0161610Y0213185D01*
X0161730Y0213225D01*
X0161855Y0213288D01*
X0161912Y0213322D01*
X0161969Y0213368D01*
X0161975Y0213374D01*
X0161981Y0213380D01*
X0161998Y0213397D01*
X0162015Y0213414D01*
X0162044Y0213442D01*
X0162066Y0213471D01*
X0162129Y0213551D01*
X0162198Y0213654D01*
X0162266Y0213779D01*
X0162329Y0213928D01*
X0162375Y0214099D01*
X0162883Y0213968D01*
Y0213962D01*
X0162877Y0213939D01*
X0162866Y0213911D01*
X0162855Y0213865D01*
X0162832Y0213813D01*
X0162809Y0213751D01*
X0162786Y0213688D01*
X0162752Y0213614D01*
X0162672Y0213459D01*
X0162575Y0213305D01*
X0162512Y0213225D01*
X0162449Y0213151D01*
X0162381Y0213077D01*
X0162306Y0213014D01*
X0162301Y0213008D01*
X0162289Y0213003D01*
X0162266Y0212986D01*
X0162232Y0212963D01*
X0162192Y0212940D01*
X0162141Y0212911D01*
X0162089Y0212883D01*
X0162021Y0212854D01*
X0161952Y0212820D01*
X0161872Y0212791D01*
X0161793Y0212763D01*
X0161701Y0212740D01*
X0161604Y0212717D01*
X0161507Y0212700D01*
X0161398Y0212694D01*
X0161290Y0212689D01*
X0161233D01*
X0161187Y0212694D01*
X0161136D01*
X0161073Y0212700D01*
X0161004Y0212712D01*
X0160930Y0212723D01*
X0160770Y0212751D01*
X0160599Y0212797D01*
X0160433Y0212860D01*
X0160354Y0212894D01*
X0160279Y0212940D01*
X0160274Y0212946D01*
X0160262Y0212951D01*
X0160245Y0212968D01*
X0160216Y0212986D01*
X0160182Y0213014D01*
X0160148Y0213043D01*
X0160062Y0213128D01*
X0159965Y0213231D01*
X0159862Y0213357D01*
X0159771Y0213499D01*
X0159686Y0213671D01*
Y0213677D01*
X0159680Y0213694D01*
X0159668Y0213716D01*
X0159657Y0213756D01*
X0159640Y0213796D01*
X0159623Y0213854D01*
X0159606Y0213911D01*
X0159588Y0213979D01*
X0159566Y0214053D01*
X0159548Y0214133D01*
X0159520Y0214310D01*
X0159497Y0214499D01*
X0159486Y0214704D01*
Y0214710D01*
Y0214733D01*
Y0214761D01*
X0159491Y0214807D01*
Y0214858D01*
X0159497Y0214915D01*
X0159503Y0214984D01*
X0159514Y0215058D01*
X0159543Y0215224D01*
X0159583Y0215401D01*
X0159640Y0215578D01*
X0159714Y0215749D01*
Y0215755D01*
X0159725Y0215766D01*
X0159737Y0215789D01*
X0159754Y0215823D01*
X0159783Y0215858D01*
X0159811Y0215903D01*
X0159880Y0216000D01*
X0159971Y0216109D01*
X0160085Y0216223D01*
X0160216Y0216332D01*
X0160365Y0216429D01*
X0160371D01*
X0160382Y0216440D01*
X0160405Y0216452D01*
X0160439Y0216463D01*
X0160479Y0216486D01*
X0160525Y0216503D01*
X0160582Y0216526D01*
X0160639Y0216549D01*
X0160707Y0216566D01*
X0160776Y0216589D01*
X0160936Y0216629D01*
X0161107Y0216651D01*
X0161296Y0216663D01*
X0161353D01*
X0161393Y0216657D01*
D02*
G37*
G36*
X0178654Y0216600D02*
X0178728Y0216589D01*
X0178820Y0216571D01*
X0178917Y0216549D01*
X0179014Y0216514D01*
X0179117Y0216469D01*
X0179122D01*
X0179128Y0216463D01*
X0179162Y0216446D01*
X0179208Y0216411D01*
X0179271Y0216372D01*
X0179334Y0216320D01*
X0179402Y0216252D01*
X0179471Y0216183D01*
X0179528Y0216097D01*
X0179533Y0216086D01*
X0179551Y0216057D01*
X0179573Y0216012D01*
X0179602Y0215949D01*
X0179625Y0215875D01*
X0179648Y0215795D01*
X0179665Y0215704D01*
X0179671Y0215606D01*
Y0215595D01*
Y0215566D01*
X0179665Y0215515D01*
X0179653Y0215458D01*
X0179636Y0215384D01*
X0179613Y0215310D01*
X0179579Y0215230D01*
X0179533Y0215150D01*
X0179528Y0215138D01*
X0179511Y0215115D01*
X0179476Y0215081D01*
X0179436Y0215035D01*
X0179379Y0214984D01*
X0179311Y0214933D01*
X0179231Y0214876D01*
X0179139Y0214830D01*
X0179145D01*
X0179157Y0214824D01*
X0179174Y0214819D01*
X0179197Y0214813D01*
X0179254Y0214790D01*
X0179334Y0214761D01*
X0179413Y0214716D01*
X0179505Y0214659D01*
X0179590Y0214590D01*
X0179665Y0214504D01*
X0179671Y0214493D01*
X0179693Y0214459D01*
X0179728Y0214407D01*
X0179762Y0214333D01*
X0179796Y0214247D01*
X0179830Y0214139D01*
X0179853Y0214019D01*
X0179859Y0213888D01*
Y0213882D01*
Y0213865D01*
Y0213842D01*
X0179853Y0213802D01*
X0179848Y0213762D01*
X0179842Y0213711D01*
X0179830Y0213654D01*
X0179813Y0213591D01*
X0179768Y0213459D01*
X0179739Y0213391D01*
X0179705Y0213317D01*
X0179659Y0213243D01*
X0179608Y0213174D01*
X0179551Y0213106D01*
X0179488Y0213037D01*
X0179482Y0213031D01*
X0179471Y0213020D01*
X0179448Y0213003D01*
X0179425Y0212986D01*
X0179385Y0212957D01*
X0179345Y0212929D01*
X0179294Y0212894D01*
X0179236Y0212866D01*
X0179174Y0212831D01*
X0179100Y0212797D01*
X0179025Y0212769D01*
X0178945Y0212746D01*
X0178854Y0212723D01*
X0178763Y0212706D01*
X0178665Y0212694D01*
X0178563Y0212689D01*
X0178511D01*
X0178477Y0212694D01*
X0178437Y0212700D01*
X0178386Y0212706D01*
X0178329Y0212712D01*
X0178266Y0212729D01*
X0178135Y0212763D01*
X0177992Y0212814D01*
X0177923Y0212848D01*
X0177849Y0212889D01*
X0177780Y0212934D01*
X0177718Y0212986D01*
X0177712Y0212991D01*
X0177706Y0212997D01*
X0177689Y0213014D01*
X0177666Y0213043D01*
X0177638Y0213071D01*
X0177609Y0213106D01*
X0177581Y0213151D01*
X0177546Y0213197D01*
X0177478Y0213311D01*
X0177421Y0213448D01*
X0177369Y0213602D01*
X0177352Y0213682D01*
X0177341Y0213773D01*
X0177815Y0213836D01*
Y0213831D01*
X0177820Y0213819D01*
X0177826Y0213796D01*
X0177832Y0213768D01*
X0177838Y0213739D01*
X0177849Y0213699D01*
X0177877Y0213614D01*
X0177918Y0213517D01*
X0177963Y0213420D01*
X0178020Y0213328D01*
X0178089Y0213254D01*
X0178100Y0213248D01*
X0178123Y0213225D01*
X0178163Y0213197D01*
X0178220Y0213168D01*
X0178289Y0213134D01*
X0178369Y0213106D01*
X0178460Y0213083D01*
X0178563Y0213077D01*
X0178597D01*
X0178620Y0213083D01*
X0178683Y0213088D01*
X0178763Y0213106D01*
X0178848Y0213134D01*
X0178945Y0213174D01*
X0179037Y0213231D01*
X0179128Y0213305D01*
X0179139Y0213317D01*
X0179162Y0213345D01*
X0179202Y0213397D01*
X0179242Y0213459D01*
X0179282Y0213545D01*
X0179322Y0213642D01*
X0179345Y0213751D01*
X0179356Y0213871D01*
Y0213876D01*
Y0213888D01*
Y0213905D01*
X0179351Y0213928D01*
X0179345Y0213985D01*
X0179328Y0214059D01*
X0179305Y0214145D01*
X0179265Y0214236D01*
X0179214Y0214322D01*
X0179139Y0214407D01*
X0179128Y0214419D01*
X0179100Y0214442D01*
X0179054Y0214476D01*
X0178991Y0214516D01*
X0178917Y0214550D01*
X0178825Y0214584D01*
X0178717Y0214607D01*
X0178603Y0214619D01*
X0178551D01*
X0178511Y0214613D01*
X0178466Y0214607D01*
X0178409Y0214596D01*
X0178346Y0214584D01*
X0178271Y0214567D01*
X0178323Y0214984D01*
X0178351D01*
X0178374Y0214978D01*
X0178448D01*
X0178506Y0214984D01*
X0178580Y0214996D01*
X0178665Y0215018D01*
X0178751Y0215041D01*
X0178848Y0215081D01*
X0178940Y0215132D01*
X0178945D01*
X0178951Y0215138D01*
X0178980Y0215161D01*
X0179019Y0215201D01*
X0179065Y0215252D01*
X0179105Y0215321D01*
X0179145Y0215407D01*
X0179174Y0215504D01*
X0179185Y0215561D01*
Y0215618D01*
Y0215624D01*
Y0215629D01*
Y0215664D01*
X0179174Y0215709D01*
X0179162Y0215766D01*
X0179139Y0215835D01*
X0179111Y0215909D01*
X0179065Y0215978D01*
X0179008Y0216046D01*
X0179002Y0216052D01*
X0178974Y0216075D01*
X0178940Y0216103D01*
X0178883Y0216132D01*
X0178820Y0216166D01*
X0178740Y0216189D01*
X0178654Y0216212D01*
X0178551Y0216217D01*
X0178506D01*
X0178454Y0216206D01*
X0178391Y0216195D01*
X0178317Y0216172D01*
X0178243Y0216143D01*
X0178169Y0216097D01*
X0178094Y0216040D01*
X0178089Y0216035D01*
X0178066Y0216006D01*
X0178032Y0215966D01*
X0177997Y0215915D01*
X0177957Y0215841D01*
X0177918Y0215749D01*
X0177883Y0215646D01*
X0177860Y0215527D01*
X0177386Y0215612D01*
Y0215618D01*
X0177392Y0215635D01*
X0177398Y0215658D01*
X0177404Y0215692D01*
X0177415Y0215726D01*
X0177432Y0215772D01*
X0177466Y0215880D01*
X0177518Y0215995D01*
X0177586Y0216120D01*
X0177672Y0216234D01*
X0177775Y0216343D01*
X0177780Y0216349D01*
X0177792Y0216354D01*
X0177809Y0216366D01*
X0177832Y0216383D01*
X0177860Y0216406D01*
X0177895Y0216429D01*
X0177940Y0216452D01*
X0177986Y0216474D01*
X0178094Y0216520D01*
X0178226Y0216566D01*
X0178374Y0216594D01*
X0178454Y0216606D01*
X0178591D01*
X0178654Y0216600D01*
D02*
G37*
G36*
X0175479Y0216589D02*
X0175525D01*
X0175622Y0216577D01*
X0175736Y0216566D01*
X0175850Y0216543D01*
X0175970Y0216514D01*
X0176073Y0216474D01*
X0176079D01*
X0176085Y0216469D01*
X0176119Y0216452D01*
X0176164Y0216423D01*
X0176227Y0216389D01*
X0176296Y0216337D01*
X0176364Y0216274D01*
X0176427Y0216200D01*
X0176490Y0216115D01*
X0176496Y0216103D01*
X0176513Y0216075D01*
X0176541Y0216023D01*
X0176570Y0215961D01*
X0176593Y0215886D01*
X0176621Y0215801D01*
X0176638Y0215704D01*
X0176644Y0215606D01*
Y0215595D01*
Y0215566D01*
X0176638Y0215515D01*
X0176627Y0215458D01*
X0176610Y0215384D01*
X0176587Y0215310D01*
X0176553Y0215224D01*
X0176507Y0215144D01*
X0176501Y0215132D01*
X0176484Y0215110D01*
X0176450Y0215070D01*
X0176410Y0215018D01*
X0176353Y0214961D01*
X0176279Y0214904D01*
X0176199Y0214847D01*
X0176102Y0214796D01*
X0176107D01*
X0176119Y0214790D01*
X0176136Y0214784D01*
X0176159Y0214778D01*
X0176222Y0214750D01*
X0176302Y0214716D01*
X0176387Y0214664D01*
X0176473Y0214601D01*
X0176564Y0214527D01*
X0176638Y0214442D01*
X0176644Y0214430D01*
X0176667Y0214396D01*
X0176701Y0214345D01*
X0176735Y0214276D01*
X0176770Y0214190D01*
X0176804Y0214093D01*
X0176827Y0213985D01*
X0176833Y0213865D01*
Y0213859D01*
Y0213854D01*
Y0213819D01*
X0176827Y0213768D01*
X0176821Y0213699D01*
X0176804Y0213619D01*
X0176787Y0213534D01*
X0176758Y0213448D01*
X0176718Y0213357D01*
X0176713Y0213345D01*
X0176696Y0213317D01*
X0176673Y0213277D01*
X0176638Y0213225D01*
X0176599Y0213168D01*
X0176553Y0213111D01*
X0176496Y0213054D01*
X0176433Y0213003D01*
X0176427Y0212997D01*
X0176404Y0212980D01*
X0176364Y0212957D01*
X0176319Y0212934D01*
X0176256Y0212900D01*
X0176187Y0212871D01*
X0176102Y0212843D01*
X0176010Y0212814D01*
X0175999D01*
X0175965Y0212803D01*
X0175913Y0212797D01*
X0175839Y0212786D01*
X0175748Y0212774D01*
X0175645Y0212763D01*
X0175525Y0212757D01*
X0175394Y0212751D01*
X0173932D01*
Y0216594D01*
X0175445D01*
X0175479Y0216589D01*
D02*
G37*
G36*
X0168159D02*
X0168251Y0216583D01*
X0168348Y0216577D01*
X0168445Y0216566D01*
X0168525Y0216554D01*
X0168536D01*
X0168570Y0216543D01*
X0168627Y0216531D01*
X0168690Y0216514D01*
X0168764Y0216492D01*
X0168844Y0216463D01*
X0168924Y0216423D01*
X0168999Y0216377D01*
X0169010Y0216372D01*
X0169033Y0216354D01*
X0169067Y0216326D01*
X0169113Y0216280D01*
X0169158Y0216229D01*
X0169210Y0216166D01*
X0169261Y0216092D01*
X0169307Y0216006D01*
X0169313Y0215995D01*
X0169324Y0215966D01*
X0169347Y0215915D01*
X0169370Y0215852D01*
X0169387Y0215772D01*
X0169410Y0215686D01*
X0169421Y0215584D01*
X0169427Y0215481D01*
Y0215475D01*
Y0215458D01*
Y0215435D01*
X0169421Y0215401D01*
X0169415Y0215355D01*
X0169410Y0215310D01*
X0169398Y0215252D01*
X0169387Y0215195D01*
X0169352Y0215064D01*
X0169295Y0214927D01*
X0169261Y0214853D01*
X0169216Y0214784D01*
X0169170Y0214716D01*
X0169113Y0214653D01*
X0169107Y0214647D01*
X0169096Y0214636D01*
X0169078Y0214624D01*
X0169050Y0214601D01*
X0169016Y0214573D01*
X0168970Y0214544D01*
X0168919Y0214516D01*
X0168856Y0214487D01*
X0168781Y0214453D01*
X0168702Y0214424D01*
X0168610Y0214396D01*
X0168507Y0214367D01*
X0168393Y0214345D01*
X0168268Y0214333D01*
X0168136Y0214322D01*
X0167988Y0214316D01*
X0167006D01*
Y0212751D01*
X0166498D01*
Y0216594D01*
X0168073D01*
X0168159Y0216589D01*
D02*
G37*
G36*
X0155751Y0212751D02*
X0155243D01*
Y0216594D01*
X0155751D01*
Y0212751D01*
D02*
G37*
G36*
X0153113Y0216589D02*
X0153165D01*
X0153279Y0216583D01*
X0153404Y0216566D01*
X0153530Y0216549D01*
X0153656Y0216520D01*
X0153713Y0216503D01*
X0153764Y0216486D01*
X0153770D01*
X0153776Y0216480D01*
X0153810Y0216469D01*
X0153856Y0216440D01*
X0153918Y0216400D01*
X0153987Y0216349D01*
X0154061Y0216286D01*
X0154130Y0216212D01*
X0154192Y0216120D01*
X0154198Y0216109D01*
X0154221Y0216075D01*
X0154244Y0216023D01*
X0154278Y0215949D01*
X0154307Y0215863D01*
X0154335Y0215766D01*
X0154352Y0215658D01*
X0154358Y0215544D01*
Y0215538D01*
Y0215527D01*
Y0215504D01*
X0154352Y0215475D01*
Y0215441D01*
X0154347Y0215401D01*
X0154324Y0215304D01*
X0154295Y0215195D01*
X0154244Y0215081D01*
X0154181Y0214961D01*
X0154135Y0214904D01*
X0154090Y0214853D01*
X0154084Y0214847D01*
X0154078Y0214841D01*
X0154061Y0214824D01*
X0154038Y0214807D01*
X0154010Y0214784D01*
X0153975Y0214761D01*
X0153936Y0214733D01*
X0153890Y0214704D01*
X0153833Y0214676D01*
X0153776Y0214641D01*
X0153707Y0214613D01*
X0153633Y0214584D01*
X0153553Y0214562D01*
X0153467Y0214533D01*
X0153376Y0214516D01*
X0153273Y0214499D01*
X0153285Y0214493D01*
X0153307Y0214482D01*
X0153342Y0214464D01*
X0153387Y0214436D01*
X0153490Y0214379D01*
X0153536Y0214339D01*
X0153582Y0214305D01*
X0153593Y0214293D01*
X0153621Y0214270D01*
X0153661Y0214225D01*
X0153718Y0214162D01*
X0153781Y0214088D01*
X0153850Y0214002D01*
X0153924Y0213905D01*
X0153998Y0213796D01*
X0154666Y0212751D01*
X0154033D01*
X0153524Y0213545D01*
Y0213551D01*
X0153513Y0213562D01*
X0153501Y0213579D01*
X0153484Y0213602D01*
X0153444Y0213665D01*
X0153393Y0213745D01*
X0153336Y0213831D01*
X0153273Y0213916D01*
X0153210Y0214002D01*
X0153153Y0214076D01*
X0153147Y0214082D01*
X0153130Y0214105D01*
X0153102Y0214139D01*
X0153068Y0214179D01*
X0152988Y0214265D01*
X0152942Y0214299D01*
X0152896Y0214333D01*
X0152891Y0214339D01*
X0152879Y0214345D01*
X0152856Y0214356D01*
X0152822Y0214373D01*
X0152748Y0214407D01*
X0152662Y0214436D01*
X0152656D01*
X0152645Y0214442D01*
X0152622D01*
X0152594Y0214447D01*
X0152554Y0214453D01*
X0152508D01*
X0152451Y0214459D01*
X0151794D01*
Y0212751D01*
X0151286D01*
Y0216594D01*
X0153073D01*
X0153113Y0216589D01*
D02*
G37*
G36*
X0149362D02*
X0149453Y0216583D01*
X0149550Y0216577D01*
X0149647Y0216566D01*
X0149727Y0216554D01*
X0149739D01*
X0149773Y0216543D01*
X0149830Y0216531D01*
X0149893Y0216514D01*
X0149967Y0216492D01*
X0150047Y0216463D01*
X0150127Y0216423D01*
X0150201Y0216377D01*
X0150213Y0216372D01*
X0150235Y0216354D01*
X0150270Y0216326D01*
X0150315Y0216280D01*
X0150361Y0216229D01*
X0150412Y0216166D01*
X0150464Y0216092D01*
X0150510Y0216006D01*
X0150515Y0215995D01*
X0150527Y0215966D01*
X0150549Y0215915D01*
X0150572Y0215852D01*
X0150589Y0215772D01*
X0150612Y0215686D01*
X0150624Y0215584D01*
X0150629Y0215481D01*
Y0215475D01*
Y0215458D01*
Y0215435D01*
X0150624Y0215401D01*
X0150618Y0215355D01*
X0150612Y0215310D01*
X0150601Y0215252D01*
X0150589Y0215195D01*
X0150555Y0215064D01*
X0150498Y0214927D01*
X0150464Y0214853D01*
X0150418Y0214784D01*
X0150373Y0214716D01*
X0150315Y0214653D01*
X0150310Y0214647D01*
X0150298Y0214636D01*
X0150281Y0214624D01*
X0150252Y0214601D01*
X0150218Y0214573D01*
X0150173Y0214544D01*
X0150121Y0214516D01*
X0150058Y0214487D01*
X0149984Y0214453D01*
X0149904Y0214424D01*
X0149813Y0214396D01*
X0149710Y0214367D01*
X0149596Y0214345D01*
X0149470Y0214333D01*
X0149339Y0214322D01*
X0149190Y0214316D01*
X0148208D01*
Y0212751D01*
X0147700D01*
Y0216594D01*
X0149276D01*
X0149362Y0216589D01*
D02*
G37*
G36*
X0166138Y0211684D02*
X0163014D01*
Y0212026D01*
X0166138D01*
Y0211684D01*
D02*
G37*
G36*
X0159274D02*
X0156151D01*
Y0212026D01*
X0159274D01*
Y0211684D01*
D02*
G37*
G36*
X0166180Y0127976D02*
X0166226D01*
X0166329Y0127965D01*
X0166443Y0127947D01*
X0166569Y0127919D01*
X0166700Y0127885D01*
X0166825Y0127839D01*
X0166831D01*
X0166843Y0127833D01*
X0166860Y0127828D01*
X0166883Y0127816D01*
X0166940Y0127782D01*
X0167014Y0127736D01*
X0167094Y0127679D01*
X0167179Y0127611D01*
X0167259Y0127531D01*
X0167328Y0127434D01*
X0167334Y0127422D01*
X0167357Y0127388D01*
X0167385Y0127331D01*
X0167419Y0127262D01*
X0167454Y0127171D01*
X0167482Y0127068D01*
X0167511Y0126954D01*
X0167522Y0126834D01*
X0167037Y0126800D01*
Y0126805D01*
Y0126817D01*
X0167031Y0126834D01*
X0167025Y0126857D01*
X0167014Y0126925D01*
X0166991Y0127005D01*
X0166951Y0127091D01*
X0166905Y0127182D01*
X0166848Y0127268D01*
X0166768Y0127342D01*
X0166757Y0127348D01*
X0166728Y0127371D01*
X0166671Y0127399D01*
X0166597Y0127439D01*
X0166506Y0127473D01*
X0166386Y0127502D01*
X0166249Y0127525D01*
X0166095Y0127531D01*
X0166020D01*
X0165980Y0127525D01*
X0165940Y0127519D01*
X0165838Y0127508D01*
X0165729Y0127491D01*
X0165621Y0127456D01*
X0165518Y0127416D01*
X0165466Y0127388D01*
X0165427Y0127359D01*
X0165415Y0127354D01*
X0165392Y0127331D01*
X0165358Y0127291D01*
X0165324Y0127245D01*
X0165284Y0127182D01*
X0165250Y0127114D01*
X0165227Y0127034D01*
X0165215Y0126948D01*
Y0126937D01*
Y0126914D01*
X0165221Y0126874D01*
X0165232Y0126828D01*
X0165250Y0126777D01*
X0165278Y0126720D01*
X0165312Y0126663D01*
X0165364Y0126611D01*
X0165369Y0126606D01*
X0165398Y0126588D01*
X0165415Y0126577D01*
X0165444Y0126560D01*
X0165472Y0126543D01*
X0165512Y0126526D01*
X0165558Y0126503D01*
X0165615Y0126486D01*
X0165678Y0126457D01*
X0165746Y0126434D01*
X0165826Y0126411D01*
X0165918Y0126383D01*
X0166020Y0126360D01*
X0166129Y0126331D01*
X0166135D01*
X0166157Y0126326D01*
X0166186Y0126320D01*
X0166232Y0126309D01*
X0166283Y0126297D01*
X0166340Y0126280D01*
X0166471Y0126252D01*
X0166608Y0126212D01*
X0166751Y0126172D01*
X0166814Y0126154D01*
X0166877Y0126132D01*
X0166934Y0126109D01*
X0166980Y0126092D01*
X0166985D01*
X0166997Y0126086D01*
X0167014Y0126075D01*
X0167037Y0126063D01*
X0167094Y0126029D01*
X0167168Y0125983D01*
X0167248Y0125926D01*
X0167334Y0125863D01*
X0167408Y0125783D01*
X0167476Y0125698D01*
X0167482Y0125686D01*
X0167499Y0125658D01*
X0167528Y0125606D01*
X0167556Y0125543D01*
X0167585Y0125464D01*
X0167613Y0125372D01*
X0167631Y0125269D01*
X0167636Y0125155D01*
Y0125150D01*
Y0125144D01*
Y0125127D01*
Y0125104D01*
X0167625Y0125041D01*
X0167613Y0124967D01*
X0167591Y0124875D01*
X0167562Y0124778D01*
X0167516Y0124676D01*
X0167459Y0124573D01*
Y0124567D01*
X0167454Y0124561D01*
X0167425Y0124527D01*
X0167385Y0124481D01*
X0167328Y0124419D01*
X0167259Y0124356D01*
X0167168Y0124282D01*
X0167071Y0124219D01*
X0166951Y0124156D01*
X0166945D01*
X0166934Y0124150D01*
X0166917Y0124145D01*
X0166894Y0124133D01*
X0166865Y0124122D01*
X0166825Y0124110D01*
X0166740Y0124082D01*
X0166626Y0124053D01*
X0166506Y0124030D01*
X0166363Y0124013D01*
X0166215Y0124007D01*
X0166129D01*
X0166083Y0124013D01*
X0166032D01*
X0165975Y0124019D01*
X0165912Y0124025D01*
X0165775Y0124042D01*
X0165626Y0124070D01*
X0165478Y0124105D01*
X0165341Y0124156D01*
X0165335D01*
X0165324Y0124162D01*
X0165307Y0124173D01*
X0165284Y0124185D01*
X0165221Y0124219D01*
X0165141Y0124270D01*
X0165050Y0124333D01*
X0164958Y0124413D01*
X0164867Y0124504D01*
X0164787Y0124613D01*
Y0124618D01*
X0164781Y0124624D01*
X0164770Y0124641D01*
X0164758Y0124670D01*
X0164741Y0124698D01*
X0164724Y0124733D01*
X0164684Y0124818D01*
X0164650Y0124921D01*
X0164616Y0125035D01*
X0164593Y0125167D01*
X0164581Y0125309D01*
X0165061Y0125349D01*
Y0125344D01*
Y0125338D01*
X0165067Y0125304D01*
X0165078Y0125247D01*
X0165090Y0125178D01*
X0165112Y0125104D01*
X0165141Y0125024D01*
X0165175Y0124944D01*
X0165215Y0124870D01*
X0165221Y0124864D01*
X0165238Y0124841D01*
X0165267Y0124807D01*
X0165312Y0124767D01*
X0165364Y0124716D01*
X0165432Y0124670D01*
X0165512Y0124618D01*
X0165603Y0124573D01*
X0165609D01*
X0165615Y0124567D01*
X0165649Y0124556D01*
X0165706Y0124539D01*
X0165775Y0124516D01*
X0165860Y0124493D01*
X0165963Y0124476D01*
X0166072Y0124464D01*
X0166192Y0124459D01*
X0166243D01*
X0166294Y0124464D01*
X0166363Y0124470D01*
X0166443Y0124481D01*
X0166528Y0124493D01*
X0166614Y0124516D01*
X0166700Y0124544D01*
X0166711Y0124550D01*
X0166734Y0124561D01*
X0166774Y0124578D01*
X0166825Y0124607D01*
X0166877Y0124641D01*
X0166934Y0124681D01*
X0166985Y0124727D01*
X0167031Y0124778D01*
X0167037Y0124784D01*
X0167048Y0124807D01*
X0167065Y0124836D01*
X0167088Y0124875D01*
X0167111Y0124927D01*
X0167128Y0124984D01*
X0167139Y0125047D01*
X0167145Y0125110D01*
Y0125115D01*
Y0125138D01*
X0167139Y0125172D01*
X0167134Y0125218D01*
X0167122Y0125269D01*
X0167099Y0125321D01*
X0167077Y0125372D01*
X0167042Y0125424D01*
X0167037Y0125429D01*
X0167025Y0125446D01*
X0166997Y0125469D01*
X0166963Y0125504D01*
X0166911Y0125538D01*
X0166854Y0125578D01*
X0166780Y0125618D01*
X0166694Y0125652D01*
X0166688Y0125658D01*
X0166660Y0125663D01*
X0166620Y0125681D01*
X0166586Y0125686D01*
X0166551Y0125698D01*
X0166506Y0125709D01*
X0166460Y0125726D01*
X0166403Y0125743D01*
X0166340Y0125760D01*
X0166272Y0125778D01*
X0166192Y0125795D01*
X0166106Y0125818D01*
X0166009Y0125840D01*
X0166003D01*
X0165986Y0125846D01*
X0165957Y0125852D01*
X0165923Y0125863D01*
X0165878Y0125875D01*
X0165832Y0125886D01*
X0165718Y0125920D01*
X0165592Y0125955D01*
X0165472Y0125995D01*
X0165358Y0126035D01*
X0165312Y0126057D01*
X0165267Y0126080D01*
X0165261D01*
X0165255Y0126086D01*
X0165221Y0126109D01*
X0165175Y0126137D01*
X0165112Y0126177D01*
X0165044Y0126229D01*
X0164975Y0126292D01*
X0164913Y0126360D01*
X0164856Y0126434D01*
X0164850Y0126446D01*
X0164833Y0126474D01*
X0164815Y0126520D01*
X0164793Y0126577D01*
X0164764Y0126646D01*
X0164747Y0126731D01*
X0164730Y0126823D01*
X0164724Y0126920D01*
Y0126925D01*
Y0126931D01*
Y0126948D01*
Y0126971D01*
X0164736Y0127022D01*
X0164747Y0127097D01*
X0164764Y0127182D01*
X0164793Y0127274D01*
X0164833Y0127365D01*
X0164884Y0127462D01*
Y0127468D01*
X0164890Y0127473D01*
X0164913Y0127502D01*
X0164953Y0127548D01*
X0165010Y0127605D01*
X0165078Y0127668D01*
X0165158Y0127736D01*
X0165255Y0127799D01*
X0165369Y0127850D01*
X0165375D01*
X0165386Y0127856D01*
X0165404Y0127862D01*
X0165427Y0127873D01*
X0165455Y0127879D01*
X0165489Y0127890D01*
X0165575Y0127919D01*
X0165683Y0127942D01*
X0165803Y0127959D01*
X0165935Y0127976D01*
X0166072Y0127982D01*
X0166146D01*
X0166180Y0127976D01*
D02*
G37*
G36*
X0190979D02*
X0191030Y0127970D01*
X0191087Y0127965D01*
X0191150Y0127959D01*
X0191224Y0127947D01*
X0191373Y0127908D01*
X0191538Y0127856D01*
X0191618Y0127822D01*
X0191698Y0127782D01*
X0191778Y0127736D01*
X0191852Y0127685D01*
X0191858Y0127679D01*
X0191869Y0127673D01*
X0191892Y0127656D01*
X0191915Y0127633D01*
X0191949Y0127599D01*
X0191984Y0127565D01*
X0192024Y0127519D01*
X0192069Y0127473D01*
X0192115Y0127416D01*
X0192161Y0127354D01*
X0192206Y0127291D01*
X0192252Y0127217D01*
X0192298Y0127137D01*
X0192338Y0127051D01*
X0192372Y0126960D01*
X0192406Y0126863D01*
X0191904Y0126743D01*
Y0126748D01*
X0191898Y0126760D01*
X0191892Y0126783D01*
X0191881Y0126811D01*
X0191864Y0126845D01*
X0191847Y0126885D01*
X0191801Y0126977D01*
X0191750Y0127074D01*
X0191681Y0127177D01*
X0191601Y0127274D01*
X0191510Y0127354D01*
X0191498Y0127359D01*
X0191464Y0127382D01*
X0191413Y0127416D01*
X0191339Y0127451D01*
X0191247Y0127485D01*
X0191139Y0127519D01*
X0191013Y0127542D01*
X0190876Y0127548D01*
X0190830D01*
X0190802Y0127542D01*
X0190762D01*
X0190722Y0127536D01*
X0190619Y0127519D01*
X0190499Y0127496D01*
X0190374Y0127456D01*
X0190254Y0127405D01*
X0190134Y0127331D01*
X0190128D01*
X0190122Y0127319D01*
X0190088Y0127291D01*
X0190031Y0127245D01*
X0189968Y0127182D01*
X0189900Y0127097D01*
X0189831Y0127000D01*
X0189768Y0126885D01*
X0189717Y0126760D01*
Y0126754D01*
X0189711Y0126743D01*
X0189705Y0126725D01*
X0189700Y0126697D01*
X0189688Y0126668D01*
X0189677Y0126628D01*
X0189660Y0126537D01*
X0189637Y0126423D01*
X0189614Y0126297D01*
X0189603Y0126166D01*
X0189597Y0126023D01*
Y0126017D01*
Y0126000D01*
Y0125978D01*
Y0125943D01*
X0189603Y0125898D01*
Y0125846D01*
X0189608Y0125795D01*
X0189614Y0125732D01*
X0189631Y0125601D01*
X0189660Y0125452D01*
X0189694Y0125309D01*
X0189740Y0125167D01*
Y0125161D01*
X0189745Y0125150D01*
X0189757Y0125132D01*
X0189768Y0125110D01*
X0189803Y0125041D01*
X0189848Y0124961D01*
X0189911Y0124870D01*
X0189985Y0124784D01*
X0190076Y0124693D01*
X0190179Y0124618D01*
X0190185D01*
X0190191Y0124613D01*
X0190208Y0124601D01*
X0190231Y0124590D01*
X0190294Y0124561D01*
X0190374Y0124533D01*
X0190471Y0124499D01*
X0190585Y0124470D01*
X0190705Y0124447D01*
X0190836Y0124442D01*
X0190876D01*
X0190904Y0124447D01*
X0190945D01*
X0190984Y0124453D01*
X0191087Y0124470D01*
X0191196Y0124504D01*
X0191316Y0124544D01*
X0191441Y0124607D01*
X0191498Y0124641D01*
X0191555Y0124687D01*
X0191561Y0124693D01*
X0191567Y0124698D01*
X0191584Y0124716D01*
X0191601Y0124733D01*
X0191630Y0124761D01*
X0191653Y0124790D01*
X0191715Y0124870D01*
X0191784Y0124972D01*
X0191852Y0125098D01*
X0191915Y0125247D01*
X0191961Y0125418D01*
X0192469Y0125287D01*
Y0125281D01*
X0192463Y0125258D01*
X0192452Y0125230D01*
X0192440Y0125184D01*
X0192418Y0125132D01*
X0192395Y0125070D01*
X0192372Y0125007D01*
X0192338Y0124933D01*
X0192258Y0124778D01*
X0192161Y0124624D01*
X0192098Y0124544D01*
X0192035Y0124470D01*
X0191967Y0124396D01*
X0191892Y0124333D01*
X0191887Y0124327D01*
X0191875Y0124322D01*
X0191852Y0124304D01*
X0191818Y0124282D01*
X0191778Y0124259D01*
X0191727Y0124230D01*
X0191675Y0124202D01*
X0191607Y0124173D01*
X0191538Y0124139D01*
X0191458Y0124110D01*
X0191378Y0124082D01*
X0191287Y0124059D01*
X0191190Y0124036D01*
X0191093Y0124019D01*
X0190984Y0124013D01*
X0190876Y0124007D01*
X0190819D01*
X0190773Y0124013D01*
X0190722D01*
X0190659Y0124019D01*
X0190591Y0124030D01*
X0190516Y0124042D01*
X0190356Y0124070D01*
X0190185Y0124116D01*
X0190020Y0124179D01*
X0189939Y0124213D01*
X0189865Y0124259D01*
X0189860Y0124265D01*
X0189848Y0124270D01*
X0189831Y0124287D01*
X0189803Y0124304D01*
X0189768Y0124333D01*
X0189734Y0124362D01*
X0189648Y0124447D01*
X0189551Y0124550D01*
X0189448Y0124676D01*
X0189357Y0124818D01*
X0189271Y0124990D01*
Y0124995D01*
X0189266Y0125013D01*
X0189254Y0125035D01*
X0189243Y0125075D01*
X0189226Y0125115D01*
X0189209Y0125172D01*
X0189191Y0125230D01*
X0189174Y0125298D01*
X0189152Y0125372D01*
X0189134Y0125452D01*
X0189106Y0125629D01*
X0189083Y0125818D01*
X0189072Y0126023D01*
Y0126029D01*
Y0126052D01*
Y0126080D01*
X0189077Y0126126D01*
Y0126177D01*
X0189083Y0126234D01*
X0189089Y0126303D01*
X0189100Y0126377D01*
X0189129Y0126543D01*
X0189169Y0126720D01*
X0189226Y0126897D01*
X0189300Y0127068D01*
Y0127074D01*
X0189311Y0127085D01*
X0189323Y0127108D01*
X0189340Y0127142D01*
X0189368Y0127177D01*
X0189397Y0127222D01*
X0189466Y0127319D01*
X0189557Y0127428D01*
X0189671Y0127542D01*
X0189803Y0127650D01*
X0189951Y0127748D01*
X0189957D01*
X0189968Y0127759D01*
X0189991Y0127770D01*
X0190025Y0127782D01*
X0190065Y0127805D01*
X0190111Y0127822D01*
X0190168Y0127845D01*
X0190225Y0127867D01*
X0190294Y0127885D01*
X0190362Y0127908D01*
X0190522Y0127947D01*
X0190693Y0127970D01*
X0190882Y0127982D01*
X0190939D01*
X0190979Y0127976D01*
D02*
G37*
G36*
X0180535D02*
X0180587Y0127970D01*
X0180644Y0127965D01*
X0180706Y0127959D01*
X0180781Y0127947D01*
X0180929Y0127908D01*
X0181095Y0127856D01*
X0181175Y0127822D01*
X0181255Y0127782D01*
X0181334Y0127736D01*
X0181409Y0127685D01*
X0181414Y0127679D01*
X0181426Y0127673D01*
X0181449Y0127656D01*
X0181472Y0127633D01*
X0181506Y0127599D01*
X0181540Y0127565D01*
X0181580Y0127519D01*
X0181626Y0127473D01*
X0181671Y0127416D01*
X0181717Y0127354D01*
X0181763Y0127291D01*
X0181808Y0127217D01*
X0181854Y0127137D01*
X0181894Y0127051D01*
X0181928Y0126960D01*
X0181963Y0126863D01*
X0181460Y0126743D01*
Y0126748D01*
X0181454Y0126760D01*
X0181449Y0126783D01*
X0181437Y0126811D01*
X0181420Y0126845D01*
X0181403Y0126885D01*
X0181357Y0126977D01*
X0181306Y0127074D01*
X0181237Y0127177D01*
X0181158Y0127274D01*
X0181066Y0127354D01*
X0181055Y0127359D01*
X0181020Y0127382D01*
X0180969Y0127416D01*
X0180895Y0127451D01*
X0180804Y0127485D01*
X0180695Y0127519D01*
X0180569Y0127542D01*
X0180432Y0127548D01*
X0180387D01*
X0180358Y0127542D01*
X0180318D01*
X0180278Y0127536D01*
X0180175Y0127519D01*
X0180055Y0127496D01*
X0179930Y0127456D01*
X0179810Y0127405D01*
X0179690Y0127331D01*
X0179684D01*
X0179679Y0127319D01*
X0179644Y0127291D01*
X0179587Y0127245D01*
X0179525Y0127182D01*
X0179456Y0127097D01*
X0179387Y0127000D01*
X0179325Y0126885D01*
X0179273Y0126760D01*
Y0126754D01*
X0179268Y0126743D01*
X0179262Y0126725D01*
X0179256Y0126697D01*
X0179245Y0126668D01*
X0179233Y0126628D01*
X0179216Y0126537D01*
X0179193Y0126423D01*
X0179171Y0126297D01*
X0179159Y0126166D01*
X0179153Y0126023D01*
Y0126017D01*
Y0126000D01*
Y0125978D01*
Y0125943D01*
X0179159Y0125898D01*
Y0125846D01*
X0179165Y0125795D01*
X0179171Y0125732D01*
X0179188Y0125601D01*
X0179216Y0125452D01*
X0179250Y0125309D01*
X0179296Y0125167D01*
Y0125161D01*
X0179302Y0125150D01*
X0179313Y0125132D01*
X0179325Y0125110D01*
X0179359Y0125041D01*
X0179405Y0124961D01*
X0179467Y0124870D01*
X0179542Y0124784D01*
X0179633Y0124693D01*
X0179736Y0124618D01*
X0179742D01*
X0179747Y0124613D01*
X0179764Y0124601D01*
X0179787Y0124590D01*
X0179850Y0124561D01*
X0179930Y0124533D01*
X0180027Y0124499D01*
X0180141Y0124470D01*
X0180261Y0124447D01*
X0180392Y0124442D01*
X0180432D01*
X0180461Y0124447D01*
X0180501D01*
X0180541Y0124453D01*
X0180644Y0124470D01*
X0180752Y0124504D01*
X0180872Y0124544D01*
X0180998Y0124607D01*
X0181055Y0124641D01*
X0181112Y0124687D01*
X0181118Y0124693D01*
X0181123Y0124698D01*
X0181140Y0124716D01*
X0181158Y0124733D01*
X0181186Y0124761D01*
X0181209Y0124790D01*
X0181272Y0124870D01*
X0181340Y0124972D01*
X0181409Y0125098D01*
X0181472Y0125247D01*
X0181517Y0125418D01*
X0182026Y0125287D01*
Y0125281D01*
X0182020Y0125258D01*
X0182008Y0125230D01*
X0181997Y0125184D01*
X0181974Y0125132D01*
X0181951Y0125070D01*
X0181928Y0125007D01*
X0181894Y0124933D01*
X0181814Y0124778D01*
X0181717Y0124624D01*
X0181654Y0124544D01*
X0181591Y0124470D01*
X0181523Y0124396D01*
X0181449Y0124333D01*
X0181443Y0124327D01*
X0181432Y0124322D01*
X0181409Y0124304D01*
X0181375Y0124282D01*
X0181334Y0124259D01*
X0181283Y0124230D01*
X0181232Y0124202D01*
X0181163Y0124173D01*
X0181095Y0124139D01*
X0181015Y0124110D01*
X0180935Y0124082D01*
X0180843Y0124059D01*
X0180746Y0124036D01*
X0180649Y0124019D01*
X0180541Y0124013D01*
X0180432Y0124007D01*
X0180375D01*
X0180330Y0124013D01*
X0180278D01*
X0180215Y0124019D01*
X0180147Y0124030D01*
X0180073Y0124042D01*
X0179913Y0124070D01*
X0179742Y0124116D01*
X0179576Y0124179D01*
X0179496Y0124213D01*
X0179422Y0124259D01*
X0179416Y0124265D01*
X0179405Y0124270D01*
X0179387Y0124287D01*
X0179359Y0124304D01*
X0179325Y0124333D01*
X0179290Y0124362D01*
X0179205Y0124447D01*
X0179108Y0124550D01*
X0179005Y0124676D01*
X0178913Y0124818D01*
X0178828Y0124990D01*
Y0124995D01*
X0178822Y0125013D01*
X0178811Y0125035D01*
X0178799Y0125075D01*
X0178782Y0125115D01*
X0178765Y0125172D01*
X0178748Y0125230D01*
X0178731Y0125298D01*
X0178708Y0125372D01*
X0178691Y0125452D01*
X0178662Y0125629D01*
X0178639Y0125818D01*
X0178628Y0126023D01*
Y0126029D01*
Y0126052D01*
Y0126080D01*
X0178634Y0126126D01*
Y0126177D01*
X0178639Y0126234D01*
X0178645Y0126303D01*
X0178656Y0126377D01*
X0178685Y0126543D01*
X0178725Y0126720D01*
X0178782Y0126897D01*
X0178856Y0127068D01*
Y0127074D01*
X0178868Y0127085D01*
X0178879Y0127108D01*
X0178896Y0127142D01*
X0178925Y0127177D01*
X0178954Y0127222D01*
X0179022Y0127319D01*
X0179113Y0127428D01*
X0179227Y0127542D01*
X0179359Y0127650D01*
X0179507Y0127748D01*
X0179513D01*
X0179525Y0127759D01*
X0179547Y0127770D01*
X0179582Y0127782D01*
X0179622Y0127805D01*
X0179667Y0127822D01*
X0179724Y0127845D01*
X0179781Y0127867D01*
X0179850Y0127885D01*
X0179919Y0127908D01*
X0180078Y0127947D01*
X0180250Y0127970D01*
X0180438Y0127982D01*
X0180495D01*
X0180535Y0127976D01*
D02*
G37*
G36*
X0173672D02*
X0173723Y0127970D01*
X0173780Y0127965D01*
X0173843Y0127959D01*
X0173917Y0127947D01*
X0174066Y0127908D01*
X0174231Y0127856D01*
X0174311Y0127822D01*
X0174391Y0127782D01*
X0174471Y0127736D01*
X0174545Y0127685D01*
X0174551Y0127679D01*
X0174563Y0127673D01*
X0174585Y0127656D01*
X0174608Y0127633D01*
X0174642Y0127599D01*
X0174677Y0127565D01*
X0174717Y0127519D01*
X0174762Y0127473D01*
X0174808Y0127416D01*
X0174854Y0127354D01*
X0174899Y0127291D01*
X0174945Y0127217D01*
X0174991Y0127137D01*
X0175031Y0127051D01*
X0175065Y0126960D01*
X0175099Y0126863D01*
X0174597Y0126743D01*
Y0126748D01*
X0174591Y0126760D01*
X0174585Y0126783D01*
X0174574Y0126811D01*
X0174557Y0126845D01*
X0174540Y0126885D01*
X0174494Y0126977D01*
X0174443Y0127074D01*
X0174374Y0127177D01*
X0174294Y0127274D01*
X0174203Y0127354D01*
X0174191Y0127359D01*
X0174157Y0127382D01*
X0174106Y0127416D01*
X0174031Y0127451D01*
X0173940Y0127485D01*
X0173832Y0127519D01*
X0173706Y0127542D01*
X0173569Y0127548D01*
X0173523D01*
X0173495Y0127542D01*
X0173455D01*
X0173415Y0127536D01*
X0173312Y0127519D01*
X0173192Y0127496D01*
X0173066Y0127456D01*
X0172947Y0127405D01*
X0172827Y0127331D01*
X0172821D01*
X0172815Y0127319D01*
X0172781Y0127291D01*
X0172724Y0127245D01*
X0172661Y0127182D01*
X0172592Y0127097D01*
X0172524Y0127000D01*
X0172461Y0126885D01*
X0172410Y0126760D01*
Y0126754D01*
X0172404Y0126743D01*
X0172398Y0126725D01*
X0172393Y0126697D01*
X0172381Y0126668D01*
X0172370Y0126628D01*
X0172353Y0126537D01*
X0172330Y0126423D01*
X0172307Y0126297D01*
X0172296Y0126166D01*
X0172290Y0126023D01*
Y0126017D01*
Y0126000D01*
Y0125978D01*
Y0125943D01*
X0172296Y0125898D01*
Y0125846D01*
X0172301Y0125795D01*
X0172307Y0125732D01*
X0172324Y0125601D01*
X0172353Y0125452D01*
X0172387Y0125309D01*
X0172433Y0125167D01*
Y0125161D01*
X0172438Y0125150D01*
X0172450Y0125132D01*
X0172461Y0125110D01*
X0172495Y0125041D01*
X0172541Y0124961D01*
X0172604Y0124870D01*
X0172678Y0124784D01*
X0172769Y0124693D01*
X0172872Y0124618D01*
X0172878D01*
X0172884Y0124613D01*
X0172901Y0124601D01*
X0172924Y0124590D01*
X0172986Y0124561D01*
X0173066Y0124533D01*
X0173163Y0124499D01*
X0173278Y0124470D01*
X0173398Y0124447D01*
X0173529Y0124442D01*
X0173569D01*
X0173598Y0124447D01*
X0173637D01*
X0173677Y0124453D01*
X0173780Y0124470D01*
X0173889Y0124504D01*
X0174009Y0124544D01*
X0174134Y0124607D01*
X0174191Y0124641D01*
X0174248Y0124687D01*
X0174254Y0124693D01*
X0174260Y0124698D01*
X0174277Y0124716D01*
X0174294Y0124733D01*
X0174323Y0124761D01*
X0174346Y0124790D01*
X0174408Y0124870D01*
X0174477Y0124972D01*
X0174545Y0125098D01*
X0174608Y0125247D01*
X0174654Y0125418D01*
X0175162Y0125287D01*
Y0125281D01*
X0175156Y0125258D01*
X0175145Y0125230D01*
X0175134Y0125184D01*
X0175111Y0125132D01*
X0175088Y0125070D01*
X0175065Y0125007D01*
X0175031Y0124933D01*
X0174951Y0124778D01*
X0174854Y0124624D01*
X0174791Y0124544D01*
X0174728Y0124470D01*
X0174660Y0124396D01*
X0174585Y0124333D01*
X0174580Y0124327D01*
X0174568Y0124322D01*
X0174545Y0124304D01*
X0174511Y0124282D01*
X0174471Y0124259D01*
X0174420Y0124230D01*
X0174368Y0124202D01*
X0174300Y0124173D01*
X0174231Y0124139D01*
X0174151Y0124110D01*
X0174071Y0124082D01*
X0173980Y0124059D01*
X0173883Y0124036D01*
X0173786Y0124019D01*
X0173677Y0124013D01*
X0173569Y0124007D01*
X0173512D01*
X0173466Y0124013D01*
X0173415D01*
X0173352Y0124019D01*
X0173283Y0124030D01*
X0173209Y0124042D01*
X0173049Y0124070D01*
X0172878Y0124116D01*
X0172712Y0124179D01*
X0172633Y0124213D01*
X0172558Y0124259D01*
X0172553Y0124265D01*
X0172541Y0124270D01*
X0172524Y0124287D01*
X0172495Y0124304D01*
X0172461Y0124333D01*
X0172427Y0124362D01*
X0172341Y0124447D01*
X0172244Y0124550D01*
X0172141Y0124676D01*
X0172050Y0124818D01*
X0171964Y0124990D01*
Y0124995D01*
X0171959Y0125013D01*
X0171947Y0125035D01*
X0171936Y0125075D01*
X0171919Y0125115D01*
X0171902Y0125172D01*
X0171885Y0125230D01*
X0171867Y0125298D01*
X0171844Y0125372D01*
X0171827Y0125452D01*
X0171799Y0125629D01*
X0171776Y0125818D01*
X0171765Y0126023D01*
Y0126029D01*
Y0126052D01*
Y0126080D01*
X0171770Y0126126D01*
Y0126177D01*
X0171776Y0126234D01*
X0171782Y0126303D01*
X0171793Y0126377D01*
X0171822Y0126543D01*
X0171862Y0126720D01*
X0171919Y0126897D01*
X0171993Y0127068D01*
Y0127074D01*
X0172004Y0127085D01*
X0172016Y0127108D01*
X0172033Y0127142D01*
X0172062Y0127177D01*
X0172090Y0127222D01*
X0172159Y0127319D01*
X0172250Y0127428D01*
X0172364Y0127542D01*
X0172495Y0127650D01*
X0172644Y0127748D01*
X0172650D01*
X0172661Y0127759D01*
X0172684Y0127770D01*
X0172718Y0127782D01*
X0172758Y0127805D01*
X0172804Y0127822D01*
X0172861Y0127845D01*
X0172918Y0127867D01*
X0172986Y0127885D01*
X0173055Y0127908D01*
X0173215Y0127947D01*
X0173386Y0127970D01*
X0173575Y0127982D01*
X0173632D01*
X0173672Y0127976D01*
D02*
G37*
G36*
X0197796Y0127919D02*
X0197871Y0127908D01*
X0197962Y0127890D01*
X0198059Y0127867D01*
X0198156Y0127833D01*
X0198259Y0127788D01*
X0198265D01*
X0198270Y0127782D01*
X0198305Y0127765D01*
X0198350Y0127730D01*
X0198413Y0127690D01*
X0198476Y0127639D01*
X0198545Y0127571D01*
X0198613Y0127502D01*
X0198670Y0127416D01*
X0198676Y0127405D01*
X0198693Y0127376D01*
X0198716Y0127331D01*
X0198744Y0127268D01*
X0198767Y0127194D01*
X0198790Y0127114D01*
X0198807Y0127022D01*
X0198813Y0126925D01*
Y0126914D01*
Y0126885D01*
X0198807Y0126834D01*
X0198796Y0126777D01*
X0198779Y0126703D01*
X0198756Y0126628D01*
X0198722Y0126549D01*
X0198676Y0126469D01*
X0198670Y0126457D01*
X0198653Y0126434D01*
X0198619Y0126400D01*
X0198579Y0126354D01*
X0198522Y0126303D01*
X0198453Y0126252D01*
X0198373Y0126195D01*
X0198282Y0126149D01*
X0198287D01*
X0198299Y0126143D01*
X0198316Y0126137D01*
X0198339Y0126132D01*
X0198396Y0126109D01*
X0198476Y0126080D01*
X0198556Y0126035D01*
X0198647Y0125978D01*
X0198733Y0125909D01*
X0198807Y0125823D01*
X0198813Y0125812D01*
X0198836Y0125778D01*
X0198870Y0125726D01*
X0198904Y0125652D01*
X0198939Y0125566D01*
X0198973Y0125458D01*
X0198996Y0125338D01*
X0199001Y0125207D01*
Y0125201D01*
Y0125184D01*
Y0125161D01*
X0198996Y0125121D01*
X0198990Y0125081D01*
X0198984Y0125030D01*
X0198973Y0124972D01*
X0198956Y0124910D01*
X0198910Y0124778D01*
X0198881Y0124710D01*
X0198847Y0124636D01*
X0198801Y0124561D01*
X0198750Y0124493D01*
X0198693Y0124424D01*
X0198630Y0124356D01*
X0198624Y0124350D01*
X0198613Y0124339D01*
X0198590Y0124322D01*
X0198567Y0124304D01*
X0198527Y0124276D01*
X0198487Y0124247D01*
X0198436Y0124213D01*
X0198379Y0124185D01*
X0198316Y0124150D01*
X0198242Y0124116D01*
X0198168Y0124088D01*
X0198088Y0124065D01*
X0197996Y0124042D01*
X0197905Y0124025D01*
X0197808Y0124013D01*
X0197705Y0124007D01*
X0197654D01*
X0197619Y0124013D01*
X0197580Y0124019D01*
X0197528Y0124025D01*
X0197471Y0124030D01*
X0197408Y0124048D01*
X0197277Y0124082D01*
X0197134Y0124133D01*
X0197066Y0124167D01*
X0196991Y0124207D01*
X0196923Y0124253D01*
X0196860Y0124304D01*
X0196854Y0124310D01*
X0196849Y0124316D01*
X0196832Y0124333D01*
X0196809Y0124362D01*
X0196780Y0124390D01*
X0196751Y0124424D01*
X0196723Y0124470D01*
X0196689Y0124516D01*
X0196620Y0124630D01*
X0196563Y0124767D01*
X0196512Y0124921D01*
X0196495Y0125001D01*
X0196483Y0125092D01*
X0196957Y0125155D01*
Y0125150D01*
X0196963Y0125138D01*
X0196968Y0125115D01*
X0196974Y0125087D01*
X0196980Y0125058D01*
X0196991Y0125018D01*
X0197020Y0124933D01*
X0197060Y0124836D01*
X0197106Y0124738D01*
X0197163Y0124647D01*
X0197231Y0124573D01*
X0197243Y0124567D01*
X0197265Y0124544D01*
X0197305Y0124516D01*
X0197362Y0124487D01*
X0197431Y0124453D01*
X0197511Y0124424D01*
X0197602Y0124401D01*
X0197705Y0124396D01*
X0197739D01*
X0197762Y0124401D01*
X0197825Y0124407D01*
X0197905Y0124424D01*
X0197991Y0124453D01*
X0198088Y0124493D01*
X0198179Y0124550D01*
X0198270Y0124624D01*
X0198282Y0124636D01*
X0198305Y0124664D01*
X0198345Y0124716D01*
X0198385Y0124778D01*
X0198425Y0124864D01*
X0198465Y0124961D01*
X0198487Y0125070D01*
X0198499Y0125189D01*
Y0125195D01*
Y0125207D01*
Y0125224D01*
X0198493Y0125247D01*
X0198487Y0125304D01*
X0198470Y0125378D01*
X0198447Y0125464D01*
X0198407Y0125555D01*
X0198356Y0125641D01*
X0198282Y0125726D01*
X0198270Y0125738D01*
X0198242Y0125760D01*
X0198196Y0125795D01*
X0198133Y0125835D01*
X0198059Y0125869D01*
X0197968Y0125903D01*
X0197859Y0125926D01*
X0197745Y0125937D01*
X0197694D01*
X0197654Y0125932D01*
X0197608Y0125926D01*
X0197551Y0125915D01*
X0197488Y0125903D01*
X0197414Y0125886D01*
X0197465Y0126303D01*
X0197494D01*
X0197517Y0126297D01*
X0197591D01*
X0197648Y0126303D01*
X0197722Y0126314D01*
X0197808Y0126337D01*
X0197894Y0126360D01*
X0197991Y0126400D01*
X0198082Y0126451D01*
X0198088D01*
X0198093Y0126457D01*
X0198122Y0126480D01*
X0198162Y0126520D01*
X0198208Y0126571D01*
X0198248Y0126640D01*
X0198287Y0126725D01*
X0198316Y0126823D01*
X0198328Y0126880D01*
Y0126937D01*
Y0126943D01*
Y0126948D01*
Y0126982D01*
X0198316Y0127028D01*
X0198305Y0127085D01*
X0198282Y0127154D01*
X0198253Y0127228D01*
X0198208Y0127296D01*
X0198151Y0127365D01*
X0198145Y0127371D01*
X0198116Y0127394D01*
X0198082Y0127422D01*
X0198025Y0127451D01*
X0197962Y0127485D01*
X0197882Y0127508D01*
X0197796Y0127531D01*
X0197694Y0127536D01*
X0197648D01*
X0197597Y0127525D01*
X0197534Y0127514D01*
X0197460Y0127491D01*
X0197385Y0127462D01*
X0197311Y0127416D01*
X0197237Y0127359D01*
X0197231Y0127354D01*
X0197208Y0127325D01*
X0197174Y0127285D01*
X0197140Y0127234D01*
X0197100Y0127159D01*
X0197060Y0127068D01*
X0197026Y0126965D01*
X0197003Y0126845D01*
X0196529Y0126931D01*
Y0126937D01*
X0196535Y0126954D01*
X0196540Y0126977D01*
X0196546Y0127011D01*
X0196557Y0127045D01*
X0196574Y0127091D01*
X0196609Y0127199D01*
X0196660Y0127314D01*
X0196729Y0127439D01*
X0196814Y0127553D01*
X0196917Y0127662D01*
X0196923Y0127668D01*
X0196934Y0127673D01*
X0196951Y0127685D01*
X0196974Y0127702D01*
X0197003Y0127725D01*
X0197037Y0127748D01*
X0197083Y0127770D01*
X0197128Y0127793D01*
X0197237Y0127839D01*
X0197368Y0127885D01*
X0197517Y0127913D01*
X0197597Y0127925D01*
X0197734D01*
X0197796Y0127919D01*
D02*
G37*
G36*
X0194622Y0127908D02*
X0194667D01*
X0194764Y0127896D01*
X0194879Y0127885D01*
X0194993Y0127862D01*
X0195113Y0127833D01*
X0195216Y0127793D01*
X0195221D01*
X0195227Y0127788D01*
X0195261Y0127770D01*
X0195307Y0127742D01*
X0195370Y0127708D01*
X0195438Y0127656D01*
X0195507Y0127593D01*
X0195570Y0127519D01*
X0195632Y0127434D01*
X0195638Y0127422D01*
X0195655Y0127394D01*
X0195684Y0127342D01*
X0195712Y0127279D01*
X0195735Y0127205D01*
X0195764Y0127120D01*
X0195781Y0127022D01*
X0195787Y0126925D01*
Y0126914D01*
Y0126885D01*
X0195781Y0126834D01*
X0195769Y0126777D01*
X0195752Y0126703D01*
X0195729Y0126628D01*
X0195695Y0126543D01*
X0195650Y0126463D01*
X0195644Y0126451D01*
X0195627Y0126429D01*
X0195592Y0126389D01*
X0195552Y0126337D01*
X0195495Y0126280D01*
X0195421Y0126223D01*
X0195341Y0126166D01*
X0195244Y0126114D01*
X0195250D01*
X0195261Y0126109D01*
X0195278Y0126103D01*
X0195301Y0126097D01*
X0195364Y0126069D01*
X0195444Y0126035D01*
X0195530Y0125983D01*
X0195615Y0125920D01*
X0195707Y0125846D01*
X0195781Y0125760D01*
X0195787Y0125749D01*
X0195809Y0125715D01*
X0195844Y0125663D01*
X0195878Y0125595D01*
X0195912Y0125509D01*
X0195946Y0125412D01*
X0195969Y0125304D01*
X0195975Y0125184D01*
Y0125178D01*
Y0125172D01*
Y0125138D01*
X0195969Y0125087D01*
X0195964Y0125018D01*
X0195946Y0124938D01*
X0195929Y0124853D01*
X0195901Y0124767D01*
X0195861Y0124676D01*
X0195855Y0124664D01*
X0195838Y0124636D01*
X0195815Y0124596D01*
X0195781Y0124544D01*
X0195741Y0124487D01*
X0195695Y0124430D01*
X0195638Y0124373D01*
X0195575Y0124322D01*
X0195570Y0124316D01*
X0195547Y0124299D01*
X0195507Y0124276D01*
X0195461Y0124253D01*
X0195398Y0124219D01*
X0195330Y0124190D01*
X0195244Y0124162D01*
X0195153Y0124133D01*
X0195141D01*
X0195107Y0124122D01*
X0195056Y0124116D01*
X0194981Y0124105D01*
X0194890Y0124093D01*
X0194787Y0124082D01*
X0194667Y0124076D01*
X0194536Y0124070D01*
X0193074D01*
Y0127913D01*
X0194587D01*
X0194622Y0127908D01*
D02*
G37*
G36*
X0187302D02*
X0187393Y0127902D01*
X0187490Y0127896D01*
X0187587Y0127885D01*
X0187667Y0127873D01*
X0187678D01*
X0187713Y0127862D01*
X0187770Y0127850D01*
X0187832Y0127833D01*
X0187907Y0127810D01*
X0187987Y0127782D01*
X0188067Y0127742D01*
X0188141Y0127696D01*
X0188152Y0127690D01*
X0188175Y0127673D01*
X0188209Y0127645D01*
X0188255Y0127599D01*
X0188301Y0127548D01*
X0188352Y0127485D01*
X0188403Y0127411D01*
X0188449Y0127325D01*
X0188455Y0127314D01*
X0188466Y0127285D01*
X0188489Y0127234D01*
X0188512Y0127171D01*
X0188529Y0127091D01*
X0188552Y0127005D01*
X0188563Y0126902D01*
X0188569Y0126800D01*
Y0126794D01*
Y0126777D01*
Y0126754D01*
X0188563Y0126720D01*
X0188558Y0126674D01*
X0188552Y0126628D01*
X0188541Y0126571D01*
X0188529Y0126514D01*
X0188495Y0126383D01*
X0188438Y0126246D01*
X0188403Y0126172D01*
X0188358Y0126103D01*
X0188312Y0126035D01*
X0188255Y0125972D01*
X0188249Y0125966D01*
X0188238Y0125955D01*
X0188221Y0125943D01*
X0188192Y0125920D01*
X0188158Y0125892D01*
X0188112Y0125863D01*
X0188061Y0125835D01*
X0187998Y0125806D01*
X0187924Y0125772D01*
X0187844Y0125743D01*
X0187753Y0125715D01*
X0187650Y0125686D01*
X0187536Y0125663D01*
X0187410Y0125652D01*
X0187279Y0125641D01*
X0187130Y0125635D01*
X0186148D01*
Y0124070D01*
X0185640D01*
Y0127913D01*
X0187216D01*
X0187302Y0127908D01*
D02*
G37*
G36*
X0176961Y0127919D02*
X0177006Y0127913D01*
X0177064Y0127908D01*
X0177121Y0127902D01*
X0177189Y0127885D01*
X0177326Y0127850D01*
X0177475Y0127793D01*
X0177543Y0127759D01*
X0177612Y0127719D01*
X0177680Y0127673D01*
X0177743Y0127616D01*
X0177749Y0127611D01*
X0177754Y0127605D01*
X0177771Y0127588D01*
X0177794Y0127559D01*
X0177817Y0127531D01*
X0177846Y0127496D01*
X0177874Y0127451D01*
X0177909Y0127405D01*
X0177966Y0127296D01*
X0178017Y0127165D01*
X0178040Y0127097D01*
X0178057Y0127017D01*
X0178063Y0126943D01*
X0178068Y0126857D01*
Y0126845D01*
Y0126817D01*
X0178063Y0126771D01*
X0178057Y0126714D01*
X0178046Y0126640D01*
X0178028Y0126566D01*
X0178006Y0126486D01*
X0177971Y0126400D01*
X0177966Y0126389D01*
X0177954Y0126360D01*
X0177931Y0126320D01*
X0177897Y0126263D01*
X0177851Y0126189D01*
X0177800Y0126109D01*
X0177732Y0126023D01*
X0177657Y0125932D01*
X0177646Y0125920D01*
X0177617Y0125886D01*
X0177594Y0125863D01*
X0177560Y0125829D01*
X0177526Y0125795D01*
X0177486Y0125755D01*
X0177440Y0125709D01*
X0177383Y0125658D01*
X0177326Y0125606D01*
X0177258Y0125543D01*
X0177189Y0125481D01*
X0177109Y0125412D01*
X0177023Y0125338D01*
X0176932Y0125258D01*
X0176926Y0125252D01*
X0176915Y0125241D01*
X0176892Y0125224D01*
X0176864Y0125201D01*
X0176795Y0125138D01*
X0176704Y0125064D01*
X0176612Y0124984D01*
X0176527Y0124904D01*
X0176447Y0124830D01*
X0176418Y0124801D01*
X0176390Y0124773D01*
X0176384Y0124767D01*
X0176373Y0124750D01*
X0176350Y0124727D01*
X0176321Y0124693D01*
X0176287Y0124659D01*
X0176253Y0124613D01*
X0176190Y0124521D01*
X0178074D01*
Y0124070D01*
X0175533D01*
Y0124076D01*
Y0124099D01*
Y0124133D01*
X0175539Y0124173D01*
X0175545Y0124224D01*
X0175550Y0124276D01*
X0175567Y0124339D01*
X0175585Y0124396D01*
Y0124401D01*
X0175590Y0124407D01*
X0175602Y0124442D01*
X0175625Y0124493D01*
X0175659Y0124556D01*
X0175705Y0124636D01*
X0175756Y0124721D01*
X0175819Y0124813D01*
X0175893Y0124904D01*
Y0124910D01*
X0175904Y0124915D01*
X0175933Y0124950D01*
X0175984Y0125001D01*
X0176053Y0125070D01*
X0176138Y0125155D01*
X0176247Y0125258D01*
X0176373Y0125366D01*
X0176515Y0125486D01*
X0176521Y0125492D01*
X0176544Y0125509D01*
X0176572Y0125538D01*
X0176618Y0125572D01*
X0176670Y0125612D01*
X0176727Y0125663D01*
X0176852Y0125783D01*
X0176995Y0125909D01*
X0177132Y0126046D01*
X0177200Y0126114D01*
X0177258Y0126177D01*
X0177315Y0126240D01*
X0177360Y0126297D01*
Y0126303D01*
X0177372Y0126309D01*
X0177383Y0126326D01*
X0177395Y0126349D01*
X0177429Y0126406D01*
X0177475Y0126480D01*
X0177515Y0126571D01*
X0177549Y0126668D01*
X0177572Y0126766D01*
X0177583Y0126868D01*
Y0126874D01*
Y0126880D01*
X0177577Y0126914D01*
X0177572Y0126965D01*
X0177560Y0127034D01*
X0177532Y0127108D01*
X0177497Y0127188D01*
X0177446Y0127268D01*
X0177377Y0127342D01*
X0177366Y0127348D01*
X0177343Y0127371D01*
X0177298Y0127405D01*
X0177241Y0127439D01*
X0177161Y0127473D01*
X0177075Y0127508D01*
X0176972Y0127531D01*
X0176858Y0127536D01*
X0176824D01*
X0176801Y0127531D01*
X0176738Y0127525D01*
X0176664Y0127508D01*
X0176572Y0127485D01*
X0176481Y0127445D01*
X0176390Y0127394D01*
X0176310Y0127325D01*
X0176304Y0127314D01*
X0176281Y0127285D01*
X0176247Y0127239D01*
X0176213Y0127177D01*
X0176173Y0127097D01*
X0176144Y0127000D01*
X0176121Y0126885D01*
X0176110Y0126760D01*
X0175625Y0126811D01*
Y0126817D01*
Y0126834D01*
X0175630Y0126863D01*
X0175636Y0126902D01*
X0175647Y0126948D01*
X0175659Y0127000D01*
X0175687Y0127120D01*
X0175733Y0127251D01*
X0175802Y0127388D01*
X0175841Y0127456D01*
X0175887Y0127519D01*
X0175939Y0127582D01*
X0175996Y0127639D01*
X0176001Y0127645D01*
X0176013Y0127650D01*
X0176030Y0127668D01*
X0176053Y0127685D01*
X0176087Y0127708D01*
X0176127Y0127730D01*
X0176173Y0127753D01*
X0176230Y0127782D01*
X0176287Y0127810D01*
X0176350Y0127833D01*
X0176424Y0127856D01*
X0176504Y0127879D01*
X0176584Y0127896D01*
X0176675Y0127913D01*
X0176767Y0127919D01*
X0176869Y0127925D01*
X0176921D01*
X0176961Y0127919D01*
D02*
G37*
G36*
X0171119Y0127462D02*
X0168847D01*
Y0126286D01*
X0170977D01*
Y0125835D01*
X0168847D01*
Y0124521D01*
X0171211D01*
Y0124070D01*
X0168339D01*
Y0127913D01*
X0171119D01*
Y0127462D01*
D02*
G37*
G36*
X0185280Y0123003D02*
X0182157D01*
Y0123345D01*
X0185280D01*
Y0123003D01*
D02*
G37*
%LPC*%
G36*
X0161761Y0141047D02*
X0160570D01*
Y0139519D01*
X0161806D01*
X0161904Y0139527D01*
X0162001Y0139534D01*
X0162106Y0139542D01*
X0162203Y0139557D01*
X0162286Y0139572D01*
X0162301Y0139579D01*
X0162330Y0139587D01*
X0162375Y0139602D01*
X0162428Y0139632D01*
X0162488Y0139662D01*
X0162555Y0139707D01*
X0162615Y0139759D01*
X0162668Y0139819D01*
X0162675Y0139826D01*
X0162690Y0139849D01*
X0162713Y0139894D01*
X0162735Y0139946D01*
X0162758Y0140006D01*
X0162780Y0140081D01*
X0162795Y0140171D01*
X0162802Y0140268D01*
Y0140283D01*
Y0140313D01*
X0162795Y0140358D01*
X0162787Y0140418D01*
X0162772Y0140485D01*
X0162750Y0140560D01*
X0162720Y0140635D01*
X0162675Y0140710D01*
X0162668Y0140718D01*
X0162653Y0140740D01*
X0162623Y0140778D01*
X0162585Y0140815D01*
X0162540Y0140860D01*
X0162480Y0140905D01*
X0162413Y0140942D01*
X0162330Y0140972D01*
X0162323D01*
X0162286Y0140987D01*
X0162233Y0140995D01*
X0162158Y0141010D01*
X0162053Y0141025D01*
X0161919Y0141032D01*
X0161761Y0141047D01*
D02*
G37*
G36*
X0161904Y0138927D02*
X0160570D01*
Y0137190D01*
X0162001D01*
X0162151Y0137197D01*
X0162218Y0137205D01*
X0162278Y0137212D01*
X0162286D01*
X0162316Y0137220D01*
X0162361Y0137227D01*
X0162413Y0137242D01*
X0162540Y0137287D01*
X0162600Y0137317D01*
X0162660Y0137347D01*
X0162668Y0137355D01*
X0162690Y0137362D01*
X0162713Y0137385D01*
X0162750Y0137422D01*
X0162795Y0137460D01*
X0162832Y0137504D01*
X0162877Y0137564D01*
X0162915Y0137624D01*
X0162922Y0137632D01*
X0162930Y0137654D01*
X0162945Y0137699D01*
X0162967Y0137752D01*
X0162990Y0137812D01*
X0163005Y0137886D01*
X0163012Y0137969D01*
X0163020Y0138059D01*
Y0138074D01*
Y0138104D01*
X0163012Y0138156D01*
X0163005Y0138224D01*
X0162982Y0138298D01*
X0162960Y0138381D01*
X0162922Y0138463D01*
X0162870Y0138546D01*
X0162862Y0138553D01*
X0162840Y0138583D01*
X0162810Y0138613D01*
X0162765Y0138658D01*
X0162705Y0138710D01*
X0162638Y0138755D01*
X0162555Y0138800D01*
X0162465Y0138838D01*
X0162450Y0138845D01*
X0162420Y0138853D01*
X0162361Y0138868D01*
X0162278Y0138883D01*
X0162173Y0138898D01*
X0162046Y0138913D01*
X0161904Y0138927D01*
D02*
G37*
G36*
X0146002Y0141047D02*
X0144564D01*
Y0139242D01*
X0145920D01*
X0145965Y0139250D01*
X0146017D01*
X0146077Y0139257D01*
X0146220Y0139272D01*
X0146369Y0139302D01*
X0146519Y0139347D01*
X0146654Y0139399D01*
X0146721Y0139437D01*
X0146774Y0139482D01*
X0146789Y0139497D01*
X0146819Y0139527D01*
X0146864Y0139579D01*
X0146916Y0139654D01*
X0146961Y0139751D01*
X0147006Y0139871D01*
X0147036Y0140006D01*
X0147051Y0140156D01*
Y0140163D01*
Y0140171D01*
Y0140208D01*
X0147043Y0140268D01*
X0147029Y0140343D01*
X0147013Y0140433D01*
X0146984Y0140523D01*
X0146939Y0140613D01*
X0146886Y0140703D01*
X0146879Y0140710D01*
X0146856Y0140740D01*
X0146826Y0140778D01*
X0146774Y0140823D01*
X0146714Y0140875D01*
X0146646Y0140927D01*
X0146557Y0140965D01*
X0146467Y0141002D01*
X0146459D01*
X0146437Y0141010D01*
X0146392Y0141017D01*
X0146324Y0141025D01*
X0146242Y0141032D01*
X0146137Y0141040D01*
X0146002Y0141047D01*
D02*
G37*
G36*
X0173850Y0141145D02*
X0173790D01*
X0173723Y0141130D01*
X0173640Y0141115D01*
X0173550Y0141085D01*
X0173446Y0141047D01*
X0173348Y0140987D01*
X0173258Y0140912D01*
X0173251Y0140905D01*
X0173221Y0140875D01*
X0173191Y0140823D01*
X0173146Y0140763D01*
X0173109Y0140680D01*
X0173071Y0140590D01*
X0173041Y0140485D01*
X0173034Y0140373D01*
Y0140366D01*
Y0140358D01*
X0173041Y0140313D01*
X0173049Y0140246D01*
X0173064Y0140163D01*
X0173086Y0140074D01*
X0173131Y0139976D01*
X0173184Y0139879D01*
X0173258Y0139789D01*
X0173266Y0139781D01*
X0173303Y0139751D01*
X0173348Y0139722D01*
X0173416Y0139676D01*
X0173506Y0139639D01*
X0173603Y0139602D01*
X0173723Y0139572D01*
X0173858Y0139564D01*
X0173873D01*
X0173918Y0139572D01*
X0173985Y0139579D01*
X0174067Y0139594D01*
X0174157Y0139617D01*
X0174255Y0139662D01*
X0174352Y0139714D01*
X0174442Y0139789D01*
X0174449Y0139796D01*
X0174479Y0139826D01*
X0174517Y0139879D01*
X0174562Y0139939D01*
X0174599Y0140021D01*
X0174637Y0140111D01*
X0174667Y0140223D01*
X0174674Y0140336D01*
Y0140343D01*
Y0140351D01*
Y0140396D01*
X0174659Y0140455D01*
X0174644Y0140538D01*
X0174614Y0140628D01*
X0174577Y0140725D01*
X0174517Y0140823D01*
X0174434Y0140912D01*
X0174427Y0140920D01*
X0174389Y0140950D01*
X0174345Y0140987D01*
X0174277Y0141032D01*
X0174187Y0141070D01*
X0174090Y0141107D01*
X0173977Y0141137D01*
X0173850Y0141145D01*
D02*
G37*
G36*
X0173835Y0139062D02*
X0173790D01*
X0173760Y0139055D01*
X0173685Y0139047D01*
X0173581Y0139025D01*
X0173468Y0138995D01*
X0173348Y0138943D01*
X0173229Y0138868D01*
X0173116Y0138770D01*
X0173101Y0138755D01*
X0173071Y0138718D01*
X0173026Y0138658D01*
X0172974Y0138575D01*
X0172921Y0138471D01*
X0172876Y0138351D01*
X0172846Y0138208D01*
X0172831Y0138051D01*
Y0138036D01*
Y0138006D01*
X0172839Y0137954D01*
X0172846Y0137886D01*
X0172862Y0137812D01*
X0172884Y0137729D01*
X0172914Y0137632D01*
X0172951Y0137542D01*
X0172959Y0137534D01*
X0172974Y0137504D01*
X0173004Y0137460D01*
X0173049Y0137400D01*
X0173101Y0137340D01*
X0173161Y0137280D01*
X0173236Y0137212D01*
X0173326Y0137160D01*
X0173341Y0137152D01*
X0173371Y0137137D01*
X0173416Y0137115D01*
X0173483Y0137092D01*
X0173565Y0137070D01*
X0173655Y0137048D01*
X0173753Y0137033D01*
X0173858Y0137025D01*
X0173903D01*
X0173933Y0137033D01*
X0174015Y0137040D01*
X0174120Y0137063D01*
X0174232Y0137092D01*
X0174360Y0137145D01*
X0174479Y0137212D01*
X0174592Y0137310D01*
X0174607Y0137325D01*
X0174637Y0137362D01*
X0174681Y0137422D01*
X0174741Y0137504D01*
X0174794Y0137609D01*
X0174839Y0137737D01*
X0174869Y0137871D01*
X0174884Y0138029D01*
Y0138036D01*
Y0138051D01*
Y0138074D01*
X0174876Y0138104D01*
X0174869Y0138186D01*
X0174846Y0138291D01*
X0174809Y0138411D01*
X0174756Y0138531D01*
X0174681Y0138658D01*
X0174584Y0138770D01*
X0174569Y0138785D01*
X0174532Y0138815D01*
X0174464Y0138860D01*
X0174382Y0138920D01*
X0174270Y0138972D01*
X0174142Y0139017D01*
X0174000Y0139047D01*
X0173835Y0139062D01*
D02*
G37*
G36*
X0155317Y0127364D02*
X0154409D01*
Y0126199D01*
X0155351D01*
X0155426Y0126205D01*
X0155500Y0126210D01*
X0155580Y0126216D01*
X0155654Y0126227D01*
X0155717Y0126239D01*
X0155728Y0126244D01*
X0155751Y0126250D01*
X0155785Y0126262D01*
X0155825Y0126285D01*
X0155871Y0126307D01*
X0155922Y0126342D01*
X0155968Y0126382D01*
X0156008Y0126427D01*
X0156014Y0126433D01*
X0156025Y0126450D01*
X0156042Y0126484D01*
X0156059Y0126524D01*
X0156077Y0126570D01*
X0156094Y0126627D01*
X0156105Y0126696D01*
X0156111Y0126770D01*
Y0126781D01*
Y0126804D01*
X0156105Y0126838D01*
X0156099Y0126884D01*
X0156088Y0126935D01*
X0156071Y0126992D01*
X0156048Y0127050D01*
X0156014Y0127107D01*
X0156008Y0127112D01*
X0155997Y0127129D01*
X0155974Y0127158D01*
X0155945Y0127187D01*
X0155911Y0127221D01*
X0155865Y0127255D01*
X0155814Y0127284D01*
X0155751Y0127306D01*
X0155745D01*
X0155717Y0127318D01*
X0155677Y0127324D01*
X0155620Y0127335D01*
X0155540Y0127347D01*
X0155437Y0127352D01*
X0155317Y0127364D01*
D02*
G37*
G36*
X0155426Y0125748D02*
X0154409D01*
Y0124423D01*
X0155500D01*
X0155614Y0124429D01*
X0155666Y0124434D01*
X0155711Y0124440D01*
X0155717D01*
X0155740Y0124446D01*
X0155774Y0124451D01*
X0155814Y0124463D01*
X0155911Y0124497D01*
X0155957Y0124520D01*
X0156002Y0124543D01*
X0156008Y0124549D01*
X0156025Y0124554D01*
X0156042Y0124572D01*
X0156071Y0124600D01*
X0156105Y0124629D01*
X0156134Y0124663D01*
X0156168Y0124708D01*
X0156196Y0124754D01*
X0156202Y0124760D01*
X0156208Y0124777D01*
X0156219Y0124811D01*
X0156237Y0124851D01*
X0156254Y0124897D01*
X0156265Y0124954D01*
X0156271Y0125017D01*
X0156276Y0125085D01*
Y0125097D01*
Y0125120D01*
X0156271Y0125160D01*
X0156265Y0125211D01*
X0156248Y0125268D01*
X0156231Y0125331D01*
X0156202Y0125394D01*
X0156162Y0125457D01*
X0156157Y0125462D01*
X0156139Y0125485D01*
X0156117Y0125508D01*
X0156082Y0125542D01*
X0156037Y0125582D01*
X0155985Y0125616D01*
X0155922Y0125651D01*
X0155854Y0125679D01*
X0155842Y0125685D01*
X0155820Y0125691D01*
X0155774Y0125702D01*
X0155711Y0125714D01*
X0155631Y0125725D01*
X0155534Y0125736D01*
X0155426Y0125748D01*
D02*
G37*
G36*
X0148071Y0127364D02*
X0146975D01*
Y0125988D01*
X0148008D01*
X0148043Y0125993D01*
X0148083D01*
X0148128Y0125999D01*
X0148237Y0126010D01*
X0148351Y0126033D01*
X0148465Y0126067D01*
X0148568Y0126107D01*
X0148619Y0126136D01*
X0148659Y0126170D01*
X0148671Y0126182D01*
X0148694Y0126205D01*
X0148728Y0126244D01*
X0148768Y0126302D01*
X0148802Y0126376D01*
X0148836Y0126467D01*
X0148859Y0126570D01*
X0148871Y0126684D01*
Y0126690D01*
Y0126696D01*
Y0126724D01*
X0148865Y0126770D01*
X0148853Y0126827D01*
X0148842Y0126895D01*
X0148819Y0126964D01*
X0148785Y0127032D01*
X0148745Y0127101D01*
X0148739Y0127107D01*
X0148722Y0127129D01*
X0148699Y0127158D01*
X0148659Y0127192D01*
X0148614Y0127232D01*
X0148562Y0127272D01*
X0148494Y0127301D01*
X0148425Y0127329D01*
X0148419D01*
X0148402Y0127335D01*
X0148368Y0127341D01*
X0148317Y0127347D01*
X0148254Y0127352D01*
X0148174Y0127358D01*
X0148071Y0127364D01*
D02*
G37*
G36*
X0175348Y0216143D02*
X0174440D01*
Y0214978D01*
X0175382D01*
X0175457Y0214984D01*
X0175531Y0214990D01*
X0175611Y0214996D01*
X0175685Y0215007D01*
X0175748Y0215018D01*
X0175759Y0215024D01*
X0175782Y0215030D01*
X0175816Y0215041D01*
X0175856Y0215064D01*
X0175902Y0215087D01*
X0175953Y0215121D01*
X0175999Y0215161D01*
X0176039Y0215207D01*
X0176045Y0215212D01*
X0176056Y0215230D01*
X0176073Y0215264D01*
X0176090Y0215304D01*
X0176107Y0215350D01*
X0176125Y0215407D01*
X0176136Y0215475D01*
X0176142Y0215549D01*
Y0215561D01*
Y0215584D01*
X0176136Y0215618D01*
X0176130Y0215664D01*
X0176119Y0215715D01*
X0176102Y0215772D01*
X0176079Y0215829D01*
X0176045Y0215886D01*
X0176039Y0215892D01*
X0176028Y0215909D01*
X0176005Y0215938D01*
X0175976Y0215966D01*
X0175942Y0216000D01*
X0175896Y0216035D01*
X0175845Y0216063D01*
X0175782Y0216086D01*
X0175776D01*
X0175748Y0216097D01*
X0175708Y0216103D01*
X0175651Y0216115D01*
X0175571Y0216126D01*
X0175468Y0216132D01*
X0175348Y0216143D01*
D02*
G37*
G36*
X0175457Y0214527D02*
X0174440D01*
Y0213203D01*
X0175531D01*
X0175645Y0213208D01*
X0175696Y0213214D01*
X0175742Y0213220D01*
X0175748D01*
X0175770Y0213225D01*
X0175805Y0213231D01*
X0175845Y0213243D01*
X0175942Y0213277D01*
X0175988Y0213300D01*
X0176033Y0213322D01*
X0176039Y0213328D01*
X0176056Y0213334D01*
X0176073Y0213351D01*
X0176102Y0213380D01*
X0176136Y0213408D01*
X0176164Y0213442D01*
X0176199Y0213488D01*
X0176227Y0213534D01*
X0176233Y0213539D01*
X0176239Y0213557D01*
X0176250Y0213591D01*
X0176267Y0213631D01*
X0176284Y0213677D01*
X0176296Y0213734D01*
X0176302Y0213796D01*
X0176307Y0213865D01*
Y0213876D01*
Y0213899D01*
X0176302Y0213939D01*
X0176296Y0213990D01*
X0176279Y0214048D01*
X0176262Y0214110D01*
X0176233Y0214173D01*
X0176193Y0214236D01*
X0176187Y0214242D01*
X0176170Y0214265D01*
X0176147Y0214287D01*
X0176113Y0214322D01*
X0176067Y0214362D01*
X0176016Y0214396D01*
X0175953Y0214430D01*
X0175885Y0214459D01*
X0175873Y0214464D01*
X0175850Y0214470D01*
X0175805Y0214482D01*
X0175742Y0214493D01*
X0175662Y0214504D01*
X0175565Y0214516D01*
X0175457Y0214527D01*
D02*
G37*
G36*
X0168102Y0216143D02*
X0167006D01*
Y0214767D01*
X0168039D01*
X0168073Y0214773D01*
X0168113D01*
X0168159Y0214778D01*
X0168268Y0214790D01*
X0168382Y0214813D01*
X0168496Y0214847D01*
X0168599Y0214887D01*
X0168650Y0214915D01*
X0168690Y0214950D01*
X0168702Y0214961D01*
X0168724Y0214984D01*
X0168759Y0215024D01*
X0168799Y0215081D01*
X0168833Y0215155D01*
X0168867Y0215247D01*
X0168890Y0215350D01*
X0168901Y0215464D01*
Y0215469D01*
Y0215475D01*
Y0215504D01*
X0168896Y0215549D01*
X0168884Y0215606D01*
X0168873Y0215675D01*
X0168850Y0215743D01*
X0168816Y0215812D01*
X0168776Y0215880D01*
X0168770Y0215886D01*
X0168753Y0215909D01*
X0168730Y0215938D01*
X0168690Y0215972D01*
X0168644Y0216012D01*
X0168593Y0216052D01*
X0168525Y0216080D01*
X0168456Y0216109D01*
X0168450D01*
X0168433Y0216115D01*
X0168399Y0216120D01*
X0168348Y0216126D01*
X0168285Y0216132D01*
X0168205Y0216138D01*
X0168102Y0216143D01*
D02*
G37*
G36*
X0153010Y0216172D02*
X0151794D01*
Y0214898D01*
X0152942D01*
X0153005Y0214904D01*
X0153085Y0214910D01*
X0153170Y0214915D01*
X0153262Y0214927D01*
X0153347Y0214944D01*
X0153427Y0214967D01*
X0153439Y0214973D01*
X0153462Y0214978D01*
X0153496Y0215001D01*
X0153542Y0215024D01*
X0153587Y0215058D01*
X0153639Y0215092D01*
X0153690Y0215144D01*
X0153730Y0215195D01*
X0153736Y0215201D01*
X0153747Y0215224D01*
X0153764Y0215258D01*
X0153781Y0215298D01*
X0153798Y0215350D01*
X0153816Y0215412D01*
X0153827Y0215475D01*
X0153833Y0215544D01*
Y0215549D01*
Y0215555D01*
X0153827Y0215589D01*
X0153821Y0215641D01*
X0153810Y0215704D01*
X0153781Y0215772D01*
X0153747Y0215852D01*
X0153701Y0215926D01*
X0153633Y0215995D01*
X0153621Y0216000D01*
X0153593Y0216023D01*
X0153547Y0216052D01*
X0153479Y0216086D01*
X0153393Y0216115D01*
X0153285Y0216143D01*
X0153159Y0216166D01*
X0153010Y0216172D01*
D02*
G37*
G36*
X0149305Y0216143D02*
X0148208D01*
Y0214767D01*
X0149242D01*
X0149276Y0214773D01*
X0149316D01*
X0149362Y0214778D01*
X0149470Y0214790D01*
X0149584Y0214813D01*
X0149699Y0214847D01*
X0149801Y0214887D01*
X0149853Y0214915D01*
X0149893Y0214950D01*
X0149904Y0214961D01*
X0149927Y0214984D01*
X0149961Y0215024D01*
X0150001Y0215081D01*
X0150036Y0215155D01*
X0150070Y0215247D01*
X0150093Y0215350D01*
X0150104Y0215464D01*
Y0215469D01*
Y0215475D01*
Y0215504D01*
X0150098Y0215549D01*
X0150087Y0215606D01*
X0150075Y0215675D01*
X0150053Y0215743D01*
X0150018Y0215812D01*
X0149978Y0215880D01*
X0149973Y0215886D01*
X0149956Y0215909D01*
X0149933Y0215938D01*
X0149893Y0215972D01*
X0149847Y0216012D01*
X0149796Y0216052D01*
X0149727Y0216080D01*
X0149659Y0216109D01*
X0149653D01*
X0149636Y0216115D01*
X0149602Y0216120D01*
X0149550Y0216126D01*
X0149487Y0216132D01*
X0149407Y0216138D01*
X0149305Y0216143D01*
D02*
G37*
G36*
X0194490Y0127462D02*
X0193582D01*
Y0126297D01*
X0194525D01*
X0194599Y0126303D01*
X0194673Y0126309D01*
X0194753Y0126314D01*
X0194827Y0126326D01*
X0194890Y0126337D01*
X0194902Y0126343D01*
X0194924Y0126349D01*
X0194959Y0126360D01*
X0194999Y0126383D01*
X0195044Y0126406D01*
X0195096Y0126440D01*
X0195141Y0126480D01*
X0195181Y0126526D01*
X0195187Y0126531D01*
X0195198Y0126549D01*
X0195216Y0126583D01*
X0195233Y0126623D01*
X0195250Y0126668D01*
X0195267Y0126725D01*
X0195278Y0126794D01*
X0195284Y0126868D01*
Y0126880D01*
Y0126902D01*
X0195278Y0126937D01*
X0195273Y0126982D01*
X0195261Y0127034D01*
X0195244Y0127091D01*
X0195221Y0127148D01*
X0195187Y0127205D01*
X0195181Y0127211D01*
X0195170Y0127228D01*
X0195147Y0127257D01*
X0195118Y0127285D01*
X0195084Y0127319D01*
X0195038Y0127354D01*
X0194987Y0127382D01*
X0194924Y0127405D01*
X0194919D01*
X0194890Y0127416D01*
X0194850Y0127422D01*
X0194793Y0127434D01*
X0194713Y0127445D01*
X0194610Y0127451D01*
X0194490Y0127462D01*
D02*
G37*
G36*
X0194599Y0125846D02*
X0193582D01*
Y0124521D01*
X0194673D01*
X0194787Y0124527D01*
X0194839Y0124533D01*
X0194884Y0124539D01*
X0194890D01*
X0194913Y0124544D01*
X0194947Y0124550D01*
X0194987Y0124561D01*
X0195084Y0124596D01*
X0195130Y0124618D01*
X0195176Y0124641D01*
X0195181Y0124647D01*
X0195198Y0124653D01*
X0195216Y0124670D01*
X0195244Y0124698D01*
X0195278Y0124727D01*
X0195307Y0124761D01*
X0195341Y0124807D01*
X0195370Y0124853D01*
X0195375Y0124858D01*
X0195381Y0124875D01*
X0195393Y0124910D01*
X0195410Y0124950D01*
X0195427Y0124995D01*
X0195438Y0125052D01*
X0195444Y0125115D01*
X0195450Y0125184D01*
Y0125195D01*
Y0125218D01*
X0195444Y0125258D01*
X0195438Y0125309D01*
X0195421Y0125366D01*
X0195404Y0125429D01*
X0195375Y0125492D01*
X0195335Y0125555D01*
X0195330Y0125561D01*
X0195313Y0125584D01*
X0195290Y0125606D01*
X0195255Y0125641D01*
X0195210Y0125681D01*
X0195158Y0125715D01*
X0195096Y0125749D01*
X0195027Y0125778D01*
X0195016Y0125783D01*
X0194993Y0125789D01*
X0194947Y0125801D01*
X0194884Y0125812D01*
X0194804Y0125823D01*
X0194707Y0125835D01*
X0194599Y0125846D01*
D02*
G37*
G36*
X0187244Y0127462D02*
X0186148D01*
Y0126086D01*
X0187182D01*
X0187216Y0126092D01*
X0187256D01*
X0187302Y0126097D01*
X0187410Y0126109D01*
X0187524Y0126132D01*
X0187638Y0126166D01*
X0187741Y0126206D01*
X0187793Y0126234D01*
X0187832Y0126269D01*
X0187844Y0126280D01*
X0187867Y0126303D01*
X0187901Y0126343D01*
X0187941Y0126400D01*
X0187975Y0126474D01*
X0188010Y0126566D01*
X0188032Y0126668D01*
X0188044Y0126783D01*
Y0126788D01*
Y0126794D01*
Y0126823D01*
X0188038Y0126868D01*
X0188027Y0126925D01*
X0188015Y0126994D01*
X0187992Y0127062D01*
X0187958Y0127131D01*
X0187918Y0127199D01*
X0187912Y0127205D01*
X0187895Y0127228D01*
X0187873Y0127257D01*
X0187832Y0127291D01*
X0187787Y0127331D01*
X0187735Y0127371D01*
X0187667Y0127399D01*
X0187598Y0127428D01*
X0187593D01*
X0187576Y0127434D01*
X0187541Y0127439D01*
X0187490Y0127445D01*
X0187427Y0127451D01*
X0187347Y0127456D01*
X0187244Y0127462D01*
D02*
G37*
%LPD*%
D10*
X0146595Y0107992D02*
G03*
X0146595Y0107992I-0000492J0000000D01*
G01*
D11*
X0136594Y0109862D02*
X0137421D01*
X0149784D02*
X0150610D01*
Y0120846D01*
X0136594D02*
X0137421D01*
X0149784D02*
X0150610D01*
X0136594Y0109862D02*
Y0120846D01*
X0178740Y0116437D02*
X0190827D01*
Y0109350D02*
Y0116437D01*
X0178740Y0109350D02*
X0190827D01*
X0178740D02*
Y0116437D01*
X0151496Y0224803D02*
X0173583D01*
Y0217717D02*
Y0224803D01*
X0151496Y0217717D02*
X0173583D01*
X0151496D02*
Y0224803D01*
M02*
