G04*
G04 #@! TF.GenerationSoftware,Altium Limited,Altium Designer,21.7.2 (23)*
G04*
G04 Layer_Physical_Order=3*
G04 Layer_Color=16440176*
%FSAX25Y25*%
%MOIN*%
G70*
G04*
G04 #@! TF.SameCoordinates,C6185680-9DF1-42B3-8AB4-FD9FEACD6233*
G04*
G04*
G04 #@! TF.FilePolarity,Positive*
G04*
G01*
G75*
%ADD18C,0.05315*%
%ADD20R,0.03937X0.03937*%
%ADD21C,0.03937*%
G36*
X0186143Y0202624D02*
X0186770Y0202364D01*
X0187334Y0201987D01*
X0187814Y0201507D01*
X0188191Y0200943D01*
X0188450Y0200316D01*
X0188583Y0199650D01*
Y0199311D01*
Y0147244D01*
X0188613Y0146937D01*
X0188848Y0146369D01*
X0189283Y0145935D01*
X0189850Y0145700D01*
X0190157Y0145669D01*
X0190412D01*
X0190882Y0145475D01*
X0191242Y0145115D01*
X0191437Y0144644D01*
Y0144390D01*
Y0111417D01*
Y0111241D01*
X0191302Y0110916D01*
X0191053Y0110666D01*
X0190727Y0110531D01*
X0179706D01*
X0179308Y0110696D01*
X0179003Y0111001D01*
X0178839Y0111399D01*
Y0111614D01*
Y0137170D01*
X0178798Y0137993D01*
X0178477Y0139609D01*
X0177847Y0141130D01*
X0176932Y0142499D01*
X0176378Y0143110D01*
X0174681Y0144807D01*
X0173985Y0145504D01*
X0172890Y0147142D01*
X0172136Y0148961D01*
X0171970Y0149796D01*
X0171787Y0187407D01*
X0171748Y0187599D01*
X0171710Y0187792D01*
X0171708Y0187794D01*
X0171708Y0187796D01*
X0171598Y0187959D01*
X0171489Y0188122D01*
X0171487Y0188124D01*
X0171485Y0188126D01*
X0171321Y0188234D01*
X0171158Y0188344D01*
X0171155Y0188344D01*
X0171153Y0188345D01*
X0170960Y0188383D01*
X0170768Y0188421D01*
X0154528D01*
X0154333Y0188383D01*
X0154140Y0188345D01*
X0154139Y0188344D01*
X0154137Y0188344D01*
X0153973Y0188233D01*
X0153808Y0188124D01*
X0153808Y0188123D01*
X0153807Y0188122D01*
X0153697Y0187959D01*
X0153586Y0187794D01*
X0153586Y0187793D01*
X0153586Y0187792D01*
X0153547Y0187599D01*
X0153508Y0187404D01*
X0153410Y0146853D01*
X0153410Y0146849D01*
X0153410Y0146844D01*
X0153449Y0146654D01*
X0153486Y0146463D01*
X0153489Y0146459D01*
X0153489Y0146455D01*
X0153598Y0146293D01*
X0153706Y0146131D01*
X0153710Y0146129D01*
X0153712Y0146125D01*
X0153875Y0146018D01*
X0154037Y0145909D01*
X0154041Y0145908D01*
X0154045Y0145906D01*
X0154236Y0145869D01*
X0154427Y0145831D01*
X0154431Y0145832D01*
X0154435Y0145831D01*
X0170969Y0145929D01*
X0170969D01*
X0170970D01*
X0170971Y0145929D01*
X0171163Y0145969D01*
X0171172Y0145970D01*
X0171226Y0145960D01*
X0171715Y0145757D01*
X0172155Y0145463D01*
X0172343Y0145276D01*
X0174925Y0142693D01*
X0174925Y0142693D01*
X0175622Y0141996D01*
X0176716Y0140358D01*
X0177470Y0138539D01*
X0177854Y0136607D01*
Y0135622D01*
Y0110039D01*
X0177886Y0109713D01*
X0178136Y0109110D01*
X0178598Y0108648D01*
X0179201Y0108398D01*
X0179528Y0108366D01*
X0181395D01*
X0182299Y0107992D01*
X0182992Y0107299D01*
X0183366Y0106395D01*
Y0105905D01*
Y0102854D01*
Y0102600D01*
X0183171Y0102129D01*
X0182811Y0101770D01*
X0182341Y0101575D01*
X0169089D01*
X0168500Y0101692D01*
X0167945Y0101922D01*
X0167445Y0102256D01*
X0167020Y0102681D01*
X0166686Y0103181D01*
X0166456Y0103736D01*
X0166339Y0104325D01*
Y0104626D01*
Y0127657D01*
X0166323Y0127986D01*
X0166194Y0128629D01*
X0165943Y0129235D01*
X0165579Y0129780D01*
X0165115Y0130244D01*
X0164570Y0130609D01*
X0163963Y0130860D01*
X0163320Y0130988D01*
X0162992Y0131004D01*
X0139197D01*
X0138665Y0131110D01*
X0138163Y0131318D01*
X0137712Y0131619D01*
X0137328Y0132003D01*
X0137026Y0132454D01*
X0136819Y0132956D01*
X0136713Y0133488D01*
Y0133760D01*
Y0199705D01*
Y0200005D01*
X0136830Y0200595D01*
X0137060Y0201150D01*
X0137394Y0201650D01*
X0137819Y0202075D01*
X0138319Y0202409D01*
X0138874Y0202639D01*
X0139463Y0202756D01*
X0185477D01*
X0186143Y0202624D01*
D02*
G37*
D18*
X0172835Y0105413D02*
D03*
X0180709D02*
D03*
D20*
X0187284Y0112894D02*
D03*
D21*
X0182283D02*
D03*
M02*
