G04*
G04 #@! TF.GenerationSoftware,Altium Limited,Altium Designer,21.7.2 (23)*
G04*
G04 Layer_Physical_Order=2*
G04 Layer_Color=36540*
%FSAX25Y25*%
%MOIN*%
G70*
G04*
G04 #@! TF.SameCoordinates,C6185680-9DF1-42B3-8AB4-FD9FEACD6233*
G04*
G04*
G04 #@! TF.FilePolarity,Positive*
G04*
G01*
G75*
%ADD18C,0.05315*%
%ADD19R,0.05315X0.05315*%
%ADD20R,0.03937X0.03937*%
%ADD21C,0.03937*%
G36*
X0186426Y0233041D02*
X0186857Y0233041D01*
X0187653Y0232712D01*
X0188262Y0232102D01*
X0188578Y0231340D01*
X0188592Y0230878D01*
Y0230876D01*
X0188592Y0230876D01*
X0188592Y0230876D01*
Y0132648D01*
Y0132315D01*
X0188337Y0131700D01*
X0187866Y0131229D01*
X0187251Y0130974D01*
X0139198D01*
X0138659Y0131081D01*
X0138151Y0131292D01*
X0137694Y0131597D01*
X0137306Y0131986D01*
X0137001Y0132442D01*
X0136790Y0132950D01*
X0136683Y0133489D01*
Y0133764D01*
Y0199538D01*
Y0199852D01*
X0136805Y0200468D01*
X0137046Y0201048D01*
X0137395Y0201570D01*
X0137839Y0202014D01*
X0138361Y0202363D01*
X0138941Y0202604D01*
X0139557Y0202726D01*
X0139871Y0202726D01*
X0139871Y0202726D01*
X0161230D01*
X0161594Y0202762D01*
X0162269Y0203042D01*
X0162785Y0203557D01*
X0163064Y0204232D01*
X0163100Y0204596D01*
Y0221230D01*
Y0221700D01*
X0163459Y0222568D01*
X0164124Y0223233D01*
X0164992Y0223592D01*
X0165462Y0223592D01*
X0165462Y0223592D01*
X0171543D01*
X0172050Y0223383D01*
X0172437Y0222995D01*
X0172647Y0222489D01*
Y0222215D01*
X0172647Y0196632D01*
X0172647Y0195647D01*
X0172263Y0193715D01*
X0171509Y0191895D01*
X0170414Y0190258D01*
X0169718Y0189561D01*
X0169718Y0189561D01*
X0169718Y0189561D01*
X0168578Y0188421D01*
X0154528D01*
X0154333Y0188383D01*
X0154140Y0188345D01*
X0154139Y0188344D01*
X0154137Y0188344D01*
X0153973Y0188233D01*
X0153808Y0188124D01*
X0153808Y0188123D01*
X0153807Y0188122D01*
X0153697Y0187959D01*
X0153586Y0187794D01*
X0153586Y0187793D01*
X0153586Y0187792D01*
X0153547Y0187599D01*
X0153508Y0187404D01*
X0153410Y0146853D01*
X0153410Y0146849D01*
X0153410Y0146844D01*
X0153449Y0146654D01*
X0153486Y0146463D01*
X0153489Y0146459D01*
X0153489Y0146455D01*
X0153598Y0146293D01*
X0153706Y0146131D01*
X0153710Y0146129D01*
X0153712Y0146125D01*
X0153875Y0146018D01*
X0154037Y0145909D01*
X0154041Y0145908D01*
X0154045Y0145906D01*
X0154236Y0145869D01*
X0154427Y0145831D01*
X0154431Y0145832D01*
X0154435Y0145831D01*
X0170971Y0145929D01*
X0171163Y0145969D01*
X0171359Y0146009D01*
X0171360Y0146009D01*
X0171360Y0146009D01*
X0171527Y0146122D01*
X0171689Y0146231D01*
X0171689Y0146232D01*
X0171690Y0146232D01*
X0171801Y0146401D01*
X0171908Y0146563D01*
X0171908Y0146564D01*
X0171909Y0146564D01*
X0171946Y0146758D01*
X0171984Y0146954D01*
X0171787Y0187407D01*
X0171748Y0187599D01*
X0171738Y0187651D01*
X0172252Y0188554D01*
X0173214Y0190576D01*
X0173973Y0192682D01*
X0174521Y0194853D01*
X0174714Y0195956D01*
X0174714Y0195956D01*
X0174714Y0222707D01*
X0174669Y0223167D01*
X0174316Y0224019D01*
X0173664Y0224671D01*
X0172812Y0225023D01*
X0172352Y0225069D01*
X0168146D01*
X0167234Y0225250D01*
X0166374Y0225606D01*
X0165600Y0226123D01*
X0164942Y0226782D01*
X0164425Y0227555D01*
X0164069Y0228415D01*
X0163887Y0229328D01*
Y0230557D01*
X0163993Y0231089D01*
X0164201Y0231591D01*
X0164502Y0232042D01*
X0164886Y0232426D01*
X0165338Y0232728D01*
X0165839Y0232935D01*
X0166372Y0233041D01*
X0166643D01*
X0186426Y0233041D01*
D02*
G37*
D18*
X0166535Y0229528D02*
D03*
D19*
X0174409D02*
D03*
D20*
X0170039Y0221260D02*
D03*
D21*
X0165039D02*
D03*
M02*
