G04*
G04 #@! TF.GenerationSoftware,Altium Limited,Altium Designer,21.7.2 (23)*
G04*
G04 Layer_Physical_Order=4*
G04 Layer_Color=16711680*
%FSAX25Y25*%
%MOIN*%
G70*
G04*
G04 #@! TF.SameCoordinates,C6185680-9DF1-42B3-8AB4-FD9FEACD6233*
G04*
G04*
G04 #@! TF.FilePolarity,Positive*
G04*
G01*
G75*
%ADD14C,0.04409*%
%ADD15R,0.04409X0.04409*%
%ADD18C,0.05315*%
%ADD19R,0.05315X0.05315*%
%ADD20R,0.03937X0.03937*%
%ADD21C,0.03937*%
G36*
X0186383Y0202637D02*
X0186948Y0202402D01*
X0187457Y0202063D01*
X0187889Y0201630D01*
X0188229Y0201121D01*
X0188463Y0200556D01*
X0188583Y0199956D01*
Y0199650D01*
Y0132283D01*
Y0132029D01*
X0188388Y0131559D01*
X0188028Y0131199D01*
X0187558Y0131004D01*
X0157292D01*
X0157292Y0131004D01*
X0156312Y0130956D01*
X0154389Y0130573D01*
X0152578Y0129823D01*
X0150948Y0128734D01*
X0150221Y0128075D01*
X0146236Y0124090D01*
X0146236Y0124090D01*
X0145577Y0123363D01*
X0144488Y0121733D01*
X0143738Y0119922D01*
X0143355Y0117999D01*
X0143307Y0117019D01*
Y0111417D01*
X0143307Y0111417D01*
X0143307Y0111241D01*
X0143172Y0110916D01*
X0142923Y0110666D01*
X0142597Y0110531D01*
X0142421Y0110531D01*
X0139075D01*
X0138850Y0110531D01*
X0138436Y0110703D01*
X0138119Y0111020D01*
X0137947Y0111435D01*
X0137947Y0111659D01*
Y0123721D01*
X0137947Y0123721D01*
X0137947Y0123721D01*
X0137958Y0124291D01*
X0138093Y0125425D01*
X0138337Y0126539D01*
X0138690Y0127625D01*
X0139148Y0128671D01*
X0139706Y0129666D01*
X0140359Y0130603D01*
X0141100Y0131470D01*
X0141512Y0131866D01*
X0152744Y0143099D01*
X0152744Y0143099D01*
X0152744Y0143099D01*
X0153441Y0143795D01*
X0155079Y0144890D01*
X0156898Y0145643D01*
X0157946Y0145852D01*
X0170971Y0145929D01*
X0171163Y0145969D01*
X0171359Y0146009D01*
X0171360Y0146009D01*
X0171360Y0146009D01*
X0171527Y0146122D01*
X0171689Y0146231D01*
X0171689Y0146232D01*
X0171690Y0146232D01*
X0171801Y0146401D01*
X0171908Y0146563D01*
X0171908Y0146564D01*
X0171909Y0146564D01*
X0171946Y0146758D01*
X0171984Y0146954D01*
X0171787Y0187407D01*
X0171748Y0187599D01*
X0171710Y0187792D01*
X0171708Y0187794D01*
X0171708Y0187796D01*
X0171598Y0187959D01*
X0171489Y0188122D01*
X0171487Y0188124D01*
X0171485Y0188126D01*
X0171321Y0188234D01*
X0171158Y0188344D01*
X0171155Y0188344D01*
X0171153Y0188345D01*
X0170960Y0188383D01*
X0170768Y0188421D01*
X0154528D01*
X0154333Y0188383D01*
X0154140Y0188345D01*
X0154139Y0188344D01*
X0154137Y0188344D01*
X0153973Y0188233D01*
X0153808Y0188124D01*
X0153808Y0188123D01*
X0153807Y0188122D01*
X0153697Y0187959D01*
X0153586Y0187794D01*
X0153586Y0187793D01*
X0153586Y0187792D01*
X0153547Y0187599D01*
X0153508Y0187404D01*
X0153410Y0146863D01*
X0153388Y0146755D01*
X0153084Y0146020D01*
X0152641Y0145358D01*
X0152360Y0145077D01*
X0137378Y0130094D01*
Y0130094D01*
X0137163Y0129896D01*
X0136796Y0129442D01*
X0136525Y0128925D01*
X0136360Y0128365D01*
X0136319Y0128075D01*
Y0110925D01*
X0136346Y0110661D01*
X0136478Y0110146D01*
X0136708Y0109667D01*
X0137027Y0109242D01*
X0137423Y0108887D01*
X0137880Y0108616D01*
X0138381Y0108440D01*
X0138907Y0108365D01*
X0139173Y0108366D01*
X0141159Y0108366D01*
X0141829Y0108089D01*
X0142341Y0107577D01*
X0142618Y0106907D01*
Y0103565D01*
X0142333Y0102878D01*
X0141807Y0102352D01*
X0141120Y0102067D01*
X0125376D01*
X0124797Y0102307D01*
X0124354Y0102750D01*
X0124114Y0103329D01*
Y0103642D01*
Y0143996D01*
X0124114Y0143996D01*
X0124114Y0143996D01*
X0124161Y0144462D01*
X0124384Y0145000D01*
X0124882Y0145498D01*
X0125533Y0145768D01*
X0125886Y0145768D01*
X0135335Y0145768D01*
X0135603Y0145794D01*
X0136100Y0146000D01*
X0136480Y0146380D01*
X0136686Y0146877D01*
X0136713Y0147146D01*
Y0200098D01*
X0136713Y0200098D01*
X0136713Y0200098D01*
X0136754Y0200566D01*
X0136815Y0200873D01*
X0137015Y0201357D01*
X0137306Y0201793D01*
X0137676Y0202163D01*
X0138111Y0202453D01*
X0138595Y0202654D01*
X0139108Y0202756D01*
X0139370Y0202756D01*
X0185477Y0202756D01*
X0185783D01*
X0186383Y0202637D01*
D02*
G37*
D14*
X0146102Y0117854D02*
D03*
X0141102D02*
D03*
Y0112854D02*
D03*
D15*
X0146102D02*
D03*
D18*
X0132087Y0105413D02*
D03*
X0139961D02*
D03*
X0147835D02*
D03*
X0172835D02*
D03*
X0180709D02*
D03*
X0188583D02*
D03*
X0166535Y0229528D02*
D03*
X0158661D02*
D03*
X0150787D02*
D03*
D19*
X0155709Y0105413D02*
D03*
X0196457D02*
D03*
X0174409Y0229528D02*
D03*
D20*
X0187284Y0112894D02*
D03*
X0170039Y0221260D02*
D03*
D21*
X0182283Y0112894D02*
D03*
X0165039Y0221260D02*
D03*
X0160039D02*
D03*
X0155039D02*
D03*
M02*
