M48
;Layer_Color=9474304
;FILE_FORMAT=2:5
INCH
;TYPE=PLATED
T1F00S00C0.02362
T2F00S00C0.02795
T3F00S00C0.03543
%
T01
X0182283Y0112894
X0187284
X0170039Y0221260
X0165039
X0160039
X0155039
T02
X0141102Y0112854
X0146102
Y0117854
X0141102
T03
X0132087Y0105413
X0139961
X0147835
X0155709
X0172835
X0180709
X0188583
X0196457
X0174409Y0229528
X0166535
X0158661
X0150787
M30
