G04*
G04 #@! TF.GenerationSoftware,Altium Limited,Altium Designer,21.7.2 (23)*
G04*
G04 Layer_Color=16711935*
%FSAX25Y25*%
%MOIN*%
G70*
G04*
G04 #@! TF.SameCoordinates,914A0A10-9902-47D2-BBE9-F090EB24A124*
G04*
G04*
G04 #@! TF.FilePolarity,Negative*
G04*
G01*
G75*
%ADD16R,0.04147X0.04540*%
%ADD17R,0.03713X0.11824*%
%ADD18O,0.03162X0.09265*%
D16*
X0527559Y0152756D02*
D03*
X0532874D02*
D03*
X0527559Y0205709D02*
D03*
X0532874D02*
D03*
D17*
X0533484Y0139961D02*
D03*
X0538484D02*
D03*
X0543484D02*
D03*
X0548484D02*
D03*
X0553484D02*
D03*
X0558484D02*
D03*
X0558524Y0218307D02*
D03*
X0553524D02*
D03*
X0548524D02*
D03*
X0543524D02*
D03*
X0538524D02*
D03*
X0533524D02*
D03*
D18*
X0528563Y0197244D02*
D03*
X0533563D02*
D03*
X0538563D02*
D03*
X0543563D02*
D03*
X0548563D02*
D03*
X0553563D02*
D03*
X0558563D02*
D03*
X0563563D02*
D03*
X0528563Y0161024D02*
D03*
X0533563Y0161024D02*
D03*
X0538563Y0161024D02*
D03*
X0543563Y0161024D02*
D03*
X0553563Y0161024D02*
D03*
X0558563Y0161024D02*
D03*
X0563563Y0161024D02*
D03*
X0548563Y0161024D02*
D03*
M02*
