G04*
G04 #@! TF.GenerationSoftware,Altium Limited,Altium Designer,21.7.2 (23)*
G04*
G04 Layer_Physical_Order=1*
G04 Layer_Color=255*
%FSAX25Y25*%
%MOIN*%
G70*
G04*
G04 #@! TF.SameCoordinates,914A0A10-9902-47D2-BBE9-F090EB24A124*
G04*
G04*
G04 #@! TF.FilePolarity,Positive*
G04*
G01*
G75*
%ADD13R,0.03347X0.03740*%
%ADD14R,0.02913X0.11024*%
%ADD15O,0.02362X0.08465*%
%ADD19C,0.01000*%
%ADD20C,0.02362*%
G36*
X0527396Y0162628D02*
X0527392Y0162723D01*
X0527367Y0162808D01*
X0527320Y0162883D01*
X0527251Y0162948D01*
X0527161Y0163003D01*
X0527049Y0163048D01*
X0526915Y0163083D01*
X0526810Y0163100D01*
X0526707Y0163078D01*
X0526610Y0163050D01*
X0526518Y0163016D01*
X0526431Y0162976D01*
X0526351Y0162929D01*
X0526276Y0162876D01*
X0526206Y0162817D01*
X0526281Y0164469D01*
X0526345Y0164404D01*
X0526415Y0164346D01*
X0526492Y0164295D01*
X0526575Y0164251D01*
X0526664Y0164213D01*
X0526759Y0164182D01*
X0526861Y0164159D01*
X0526863Y0164158D01*
X0526961Y0164173D01*
X0527108Y0164207D01*
X0527233Y0164252D01*
X0527337Y0164306D01*
X0527420Y0164371D01*
X0527481Y0164445D01*
X0527520Y0164529D01*
X0527538Y0164623D01*
X0527396Y0162628D01*
D02*
G37*
G36*
X0549295Y0157076D02*
X0549201Y0157079D01*
X0549118Y0157053D01*
X0549044Y0156999D01*
X0548980Y0156917D01*
X0548925Y0156806D01*
X0548881Y0156667D01*
X0548847Y0156499D01*
X0548822Y0156303D01*
X0548807Y0156078D01*
X0548802Y0155825D01*
X0547802Y0156082D01*
X0547800Y0156268D01*
X0547761Y0156752D01*
X0547737Y0156888D01*
X0547709Y0157012D01*
X0547675Y0157123D01*
X0547636Y0157222D01*
X0547591Y0157309D01*
X0547542Y0157383D01*
X0549295Y0157076D01*
D02*
G37*
G36*
X0528101Y0156912D02*
X0528077Y0156937D01*
X0528044Y0156948D01*
X0528001Y0156944D01*
X0527949Y0156926D01*
X0527887Y0156893D01*
X0527816Y0156845D01*
X0527735Y0156782D01*
X0527545Y0156613D01*
X0527436Y0156507D01*
X0526729Y0157214D01*
X0526872Y0157360D01*
X0527276Y0157824D01*
X0527334Y0157911D01*
X0527375Y0157985D01*
X0527399Y0158047D01*
X0527406Y0158097D01*
X0527396Y0158136D01*
X0528101Y0156912D01*
D02*
G37*
G36*
X0533832Y0156841D02*
X0533754Y0156895D01*
X0533664Y0156922D01*
X0533559Y0156922D01*
X0533442Y0156895D01*
X0533312Y0156841D01*
X0533168Y0156759D01*
X0533011Y0156651D01*
X0532841Y0156516D01*
X0532658Y0156353D01*
X0532461Y0156163D01*
X0531754Y0156871D01*
X0531940Y0157064D01*
X0532231Y0157410D01*
X0532336Y0157563D01*
X0532413Y0157704D01*
X0532464Y0157831D01*
X0532488Y0157945D01*
X0532484Y0158045D01*
X0532453Y0158133D01*
X0532396Y0158207D01*
X0533832Y0156841D01*
D02*
G37*
G36*
X0559460Y0157348D02*
X0559377Y0157305D01*
X0559303Y0157232D01*
X0559240Y0157131D01*
X0559186Y0157000D01*
X0559141Y0156841D01*
X0559107Y0156653D01*
X0559083Y0156436D01*
X0559068Y0156189D01*
X0559063Y0155914D01*
X0558063D01*
X0558058Y0156189D01*
X0558019Y0156653D01*
X0557984Y0156841D01*
X0557940Y0157000D01*
X0557886Y0157131D01*
X0557823Y0157232D01*
X0557749Y0157305D01*
X0557666Y0157348D01*
X0557573Y0157362D01*
X0559553D01*
X0559460Y0157348D01*
D02*
G37*
G36*
X0544460D02*
X0544377Y0157305D01*
X0544303Y0157232D01*
X0544240Y0157131D01*
X0544186Y0157000D01*
X0544141Y0156841D01*
X0544107Y0156653D01*
X0544083Y0156436D01*
X0544068Y0156189D01*
X0544063Y0155914D01*
X0543063D01*
X0543058Y0156189D01*
X0543019Y0156653D01*
X0542984Y0156841D01*
X0542940Y0157000D01*
X0542886Y0157131D01*
X0542823Y0157232D01*
X0542749Y0157305D01*
X0542666Y0157348D01*
X0542572Y0157362D01*
X0544554D01*
X0544460Y0157348D01*
D02*
G37*
G36*
X0564460Y0157348D02*
X0564377Y0157305D01*
X0564303Y0157232D01*
X0564240Y0157131D01*
X0564186Y0157000D01*
X0564142Y0156841D01*
X0564107Y0156653D01*
X0564083Y0156436D01*
X0564068Y0156189D01*
X0564063Y0155914D01*
X0563063D01*
X0563058Y0156189D01*
X0563019Y0156653D01*
X0562985Y0156841D01*
X0562940Y0157000D01*
X0562886Y0157131D01*
X0562823Y0157232D01*
X0562749Y0157305D01*
X0562666Y0157348D01*
X0562572Y0157362D01*
X0564553D01*
X0564460Y0157348D01*
D02*
G37*
G36*
X0554460D02*
X0554377Y0157305D01*
X0554303Y0157232D01*
X0554240Y0157131D01*
X0554186Y0157000D01*
X0554142Y0156841D01*
X0554107Y0156653D01*
X0554083Y0156436D01*
X0554068Y0156189D01*
X0554063Y0155914D01*
X0553063D01*
X0553058Y0156189D01*
X0553019Y0156653D01*
X0552985Y0156841D01*
X0552940Y0157000D01*
X0552886Y0157131D01*
X0552823Y0157232D01*
X0552749Y0157305D01*
X0552666Y0157348D01*
X0552572Y0157362D01*
X0554554D01*
X0554460Y0157348D01*
D02*
G37*
G36*
X0564068Y0155619D02*
X0564083Y0155447D01*
X0564108Y0155295D01*
X0564143Y0155163D01*
X0564188Y0155052D01*
X0564243Y0154961D01*
X0564308Y0154890D01*
X0564383Y0154839D01*
X0564468Y0154809D01*
X0564563Y0154799D01*
X0562563D01*
X0562658Y0154809D01*
X0562743Y0154839D01*
X0562818Y0154890D01*
X0562883Y0154961D01*
X0562938Y0155052D01*
X0562983Y0155163D01*
X0563018Y0155295D01*
X0563043Y0155447D01*
X0563058Y0155619D01*
X0563063Y0155811D01*
X0564063D01*
X0564068Y0155619D01*
D02*
G37*
G36*
X0559068D02*
X0559083Y0155447D01*
X0559108Y0155295D01*
X0559143Y0155163D01*
X0559188Y0155052D01*
X0559243Y0154961D01*
X0559308Y0154890D01*
X0559383Y0154839D01*
X0559468Y0154809D01*
X0559563Y0154799D01*
X0557563D01*
X0557658Y0154809D01*
X0557743Y0154839D01*
X0557818Y0154890D01*
X0557883Y0154961D01*
X0557938Y0155052D01*
X0557983Y0155163D01*
X0558018Y0155295D01*
X0558043Y0155447D01*
X0558058Y0155619D01*
X0558063Y0155811D01*
X0559063D01*
X0559068Y0155619D01*
D02*
G37*
G36*
X0563405Y0151096D02*
X0563320Y0151065D01*
X0563245Y0151014D01*
X0563180Y0150943D01*
X0563125Y0150852D01*
X0563080Y0150741D01*
X0563045Y0150609D01*
X0563020Y0150458D01*
X0563005Y0150286D01*
X0563000Y0150095D01*
X0562000D01*
X0561998Y0150285D01*
X0561956Y0150845D01*
X0561936Y0150935D01*
X0561913Y0151005D01*
X0561887Y0151055D01*
X0561857Y0151085D01*
X0561823Y0151095D01*
X0563500Y0151107D01*
X0563405Y0151096D01*
D02*
G37*
G36*
X0559549Y0151097D02*
X0559464Y0151066D01*
X0559389Y0151016D01*
X0559324Y0150945D01*
X0559269Y0150854D01*
X0559224Y0150742D01*
X0559189Y0150611D01*
X0559178Y0150546D01*
X0559196Y0150465D01*
X0559226Y0150369D01*
X0559262Y0150278D01*
X0559304Y0150194D01*
X0559353Y0150115D01*
X0559409Y0150042D01*
X0559471Y0149975D01*
X0557817D01*
X0557879Y0150042D01*
X0557935Y0150115D01*
X0557984Y0150194D01*
X0558027Y0150278D01*
X0558063Y0150369D01*
X0558092Y0150465D01*
X0558110Y0150546D01*
X0558099Y0150611D01*
X0558064Y0150742D01*
X0558019Y0150854D01*
X0557964Y0150945D01*
X0557899Y0151016D01*
X0557824Y0151066D01*
X0557739Y0151097D01*
X0557644Y0151107D01*
X0559644D01*
X0559549Y0151097D01*
D02*
G37*
G36*
X0549253Y0150493D02*
X0549199Y0150419D01*
X0549151Y0150339D01*
X0549110Y0150253D01*
X0549075Y0150162D01*
X0549046Y0150065D01*
X0549023Y0149962D01*
X0549008Y0149854D01*
X0548998Y0149740D01*
X0548995Y0149620D01*
X0547995Y0149593D01*
X0547992Y0149713D01*
X0547982Y0149827D01*
X0547965Y0149935D01*
X0547941Y0150037D01*
X0547911Y0150133D01*
X0547874Y0150223D01*
X0547831Y0150306D01*
X0547781Y0150384D01*
X0547724Y0150455D01*
X0547660Y0150521D01*
X0549313Y0150561D01*
X0549253Y0150493D01*
D02*
G37*
G36*
X0527472Y0149887D02*
X0527482Y0149773D01*
X0527498Y0149665D01*
X0527521Y0149562D01*
X0527550Y0149466D01*
X0527586Y0149375D01*
X0527629Y0149291D01*
X0527678Y0149212D01*
X0527733Y0149139D01*
X0527795Y0149072D01*
X0526142D01*
X0526204Y0149139D01*
X0526259Y0149212D01*
X0526308Y0149291D01*
X0526351Y0149375D01*
X0526387Y0149466D01*
X0526416Y0149562D01*
X0526439Y0149665D01*
X0526455Y0149773D01*
X0526465Y0149887D01*
X0526469Y0150007D01*
X0527468D01*
X0527472Y0149887D01*
D02*
G37*
G36*
X0533822Y0148301D02*
X0533783Y0148222D01*
X0533748Y0148137D01*
X0533718Y0148047D01*
X0533693Y0147953D01*
X0533672Y0147853D01*
X0533656Y0147748D01*
X0533637Y0147523D01*
X0533635Y0147404D01*
X0532635Y0147151D01*
X0532631Y0147272D01*
X0532619Y0147385D01*
X0532600Y0147490D01*
X0532574Y0147588D01*
X0532539Y0147678D01*
X0532498Y0147760D01*
X0532448Y0147835D01*
X0532391Y0147901D01*
X0532326Y0147960D01*
X0532254Y0148011D01*
X0533867Y0148375D01*
X0533822Y0148301D01*
D02*
G37*
G36*
X0545151Y0146555D02*
X0545060Y0146552D01*
X0544969Y0146539D01*
X0544879Y0146518D01*
X0544789Y0146488D01*
X0544699Y0146450D01*
X0544610Y0146403D01*
X0544522Y0146346D01*
X0544434Y0146281D01*
X0544346Y0146207D01*
X0544259Y0146125D01*
X0543552Y0146832D01*
X0543634Y0146919D01*
X0543708Y0147007D01*
X0543773Y0147095D01*
X0543829Y0147184D01*
X0543877Y0147273D01*
X0543915Y0147362D01*
X0543945Y0147452D01*
X0543966Y0147542D01*
X0543979Y0147633D01*
X0543982Y0147724D01*
X0545151Y0146555D01*
D02*
G37*
G36*
X0554067Y0146268D02*
X0554082Y0146096D01*
X0554107Y0145944D01*
X0554142Y0145813D01*
X0554187Y0145701D01*
X0554242Y0145610D01*
X0554307Y0145539D01*
X0554382Y0145489D01*
X0554467Y0145459D01*
X0554562Y0145448D01*
X0552562D01*
X0552657Y0145459D01*
X0552742Y0145489D01*
X0552817Y0145539D01*
X0552882Y0145610D01*
X0552937Y0145701D01*
X0552982Y0145813D01*
X0553017Y0145944D01*
X0553042Y0146096D01*
X0553057Y0146268D01*
X0553062Y0146460D01*
X0554062D01*
X0554067Y0146268D01*
D02*
G37*
G36*
X0549000D02*
X0549015Y0146096D01*
X0549040Y0145944D01*
X0549075Y0145813D01*
X0549120Y0145701D01*
X0549175Y0145610D01*
X0549240Y0145539D01*
X0549315Y0145489D01*
X0549400Y0145459D01*
X0549495Y0145448D01*
X0547495D01*
X0547590Y0145459D01*
X0547675Y0145489D01*
X0547750Y0145539D01*
X0547815Y0145610D01*
X0547870Y0145701D01*
X0547915Y0145813D01*
X0547950Y0145944D01*
X0547975Y0146096D01*
X0547990Y0146268D01*
X0547995Y0146460D01*
X0548995D01*
X0549000Y0146268D01*
D02*
G37*
G36*
X0538103Y0146269D02*
X0538118Y0146097D01*
X0538143Y0145946D01*
X0538178Y0145815D01*
X0538223Y0145703D01*
X0538278Y0145612D01*
X0538343Y0145541D01*
X0538418Y0145490D01*
X0538503Y0145459D01*
X0538598Y0145448D01*
X0537040Y0145460D01*
X0537051Y0145470D01*
X0537061Y0145500D01*
X0537070Y0145550D01*
X0537077Y0145620D01*
X0537093Y0145950D01*
X0537098Y0146460D01*
X0538098D01*
X0538103Y0146269D01*
D02*
G37*
G36*
X0533640Y0146268D02*
X0533655Y0146096D01*
X0533680Y0145944D01*
X0533715Y0145813D01*
X0533760Y0145701D01*
X0533815Y0145610D01*
X0533880Y0145539D01*
X0533955Y0145489D01*
X0534040Y0145459D01*
X0534135Y0145448D01*
X0532135D01*
X0532230Y0145459D01*
X0532315Y0145489D01*
X0532390Y0145539D01*
X0532455Y0145610D01*
X0532510Y0145701D01*
X0532555Y0145813D01*
X0532590Y0145944D01*
X0532615Y0146096D01*
X0532630Y0146268D01*
X0532635Y0146460D01*
X0533635D01*
X0533640Y0146268D01*
D02*
G37*
G36*
X0544119Y0146049D02*
X0544137Y0145812D01*
X0544153Y0145715D01*
X0544174Y0145634D01*
X0544199Y0145567D01*
X0544229Y0145515D01*
X0544263Y0145478D01*
X0544302Y0145456D01*
X0544346Y0145448D01*
X0542887D01*
X0542931Y0145456D01*
X0542970Y0145478D01*
X0543004Y0145515D01*
X0543034Y0145567D01*
X0543059Y0145634D01*
X0543080Y0145715D01*
X0543096Y0145812D01*
X0543107Y0145923D01*
X0543117Y0146190D01*
X0544117D01*
X0544119Y0146049D01*
D02*
G37*
G36*
X0560636Y0145224D02*
X0560447Y0145029D01*
X0560148Y0144674D01*
X0560037Y0144514D01*
X0559952Y0144367D01*
X0559893Y0144231D01*
X0559860Y0144108D01*
X0559853Y0143997D01*
X0559872Y0143897D01*
X0559917Y0143810D01*
X0558751Y0145448D01*
X0558817Y0145382D01*
X0558900Y0145347D01*
X0559000Y0145343D01*
X0559116Y0145369D01*
X0559249Y0145425D01*
X0559399Y0145512D01*
X0559565Y0145630D01*
X0559749Y0145779D01*
X0560165Y0146168D01*
X0560636Y0145224D01*
D02*
G37*
G36*
X0532040Y0141224D02*
X0532030Y0141319D01*
X0532000Y0141404D01*
X0531950Y0141479D01*
X0531880Y0141544D01*
X0531790Y0141599D01*
X0531680Y0141644D01*
X0531550Y0141679D01*
X0531456Y0141695D01*
X0531456Y0141695D01*
X0531354Y0141672D01*
X0531257Y0141643D01*
X0531167Y0141607D01*
X0531082Y0141564D01*
X0531003Y0141515D01*
X0530930Y0141460D01*
X0530863Y0141398D01*
Y0143051D01*
X0530930Y0142989D01*
X0531003Y0142933D01*
X0531082Y0142885D01*
X0531167Y0142842D01*
X0531257Y0142806D01*
X0531354Y0142777D01*
X0531456Y0142754D01*
X0531456Y0142754D01*
X0531550Y0142769D01*
X0531680Y0142804D01*
X0531790Y0142849D01*
X0531880Y0142904D01*
X0531950Y0142969D01*
X0532000Y0143044D01*
X0532030Y0143129D01*
X0532040Y0143224D01*
Y0141224D01*
D02*
G37*
G36*
X0559927Y0138208D02*
X0559957Y0138123D01*
X0560008Y0138048D01*
X0560079Y0137983D01*
X0560170Y0137928D01*
X0560281Y0137883D01*
X0560413Y0137848D01*
X0560516Y0137831D01*
X0560525Y0137833D01*
X0560628Y0137855D01*
X0560724Y0137885D01*
X0560815Y0137921D01*
X0560899Y0137963D01*
X0560978Y0138012D01*
X0561051Y0138068D01*
X0561118Y0138130D01*
Y0136476D01*
X0561051Y0136539D01*
X0560978Y0136594D01*
X0560899Y0136643D01*
X0560815Y0136686D01*
X0560724Y0136722D01*
X0560628Y0136751D01*
X0560525Y0136774D01*
X0560516Y0136775D01*
X0560413Y0136758D01*
X0560281Y0136723D01*
X0560170Y0136678D01*
X0560079Y0136623D01*
X0560008Y0136558D01*
X0559957Y0136483D01*
X0559927Y0136398D01*
X0559917Y0136303D01*
Y0138303D01*
X0559927Y0138208D01*
D02*
G37*
G36*
X0561530Y0220586D02*
X0560897Y0220571D01*
Y0221571D01*
X0561367Y0221593D01*
X0561530Y0220586D01*
D02*
G37*
G36*
X0559977Y0221878D02*
X0560005Y0221809D01*
X0560050Y0221748D01*
X0560113Y0221695D01*
X0560195Y0221651D01*
X0560295Y0221614D01*
X0560413Y0221585D01*
X0560548Y0221565D01*
X0560703Y0221553D01*
X0560875Y0221549D01*
Y0220549D01*
X0560703Y0220545D01*
X0560548Y0220533D01*
X0560413Y0220512D01*
X0560295Y0220484D01*
X0560195Y0220447D01*
X0560113Y0220403D01*
X0560050Y0220350D01*
X0560005Y0220289D01*
X0559977Y0220220D01*
X0559968Y0220142D01*
Y0221955D01*
X0559977Y0221878D01*
D02*
G37*
G36*
X0532091Y0216717D02*
X0532081Y0216811D01*
X0532051Y0216897D01*
X0532000Y0216971D01*
X0531929Y0217037D01*
X0531838Y0217091D01*
X0531727Y0217137D01*
X0531595Y0217172D01*
X0531502Y0217187D01*
X0531400Y0217164D01*
X0531304Y0217135D01*
X0531213Y0217099D01*
X0531128Y0217056D01*
X0531049Y0217007D01*
X0530977Y0216952D01*
X0530910Y0216890D01*
Y0218543D01*
X0530977Y0218481D01*
X0531049Y0218426D01*
X0531128Y0218377D01*
X0531213Y0218334D01*
X0531304Y0218298D01*
X0531400Y0218269D01*
X0531502Y0218246D01*
X0531595Y0218262D01*
X0531727Y0218297D01*
X0531838Y0218341D01*
X0531929Y0218396D01*
X0532000Y0218461D01*
X0532051Y0218536D01*
X0532081Y0218621D01*
X0532091Y0218717D01*
Y0216717D01*
D02*
G37*
G36*
X0559769Y0212812D02*
X0559730Y0212790D01*
X0559696Y0212753D01*
X0559666Y0212701D01*
X0559641Y0212634D01*
X0559620Y0212552D01*
X0559604Y0212456D01*
X0559593Y0212345D01*
X0559584Y0212078D01*
X0558583D01*
X0558581Y0212219D01*
X0558563Y0212456D01*
X0558547Y0212552D01*
X0558526Y0212634D01*
X0558501Y0212701D01*
X0558471Y0212753D01*
X0558437Y0212790D01*
X0558398Y0212812D01*
X0558354Y0212819D01*
X0559813D01*
X0559769Y0212812D01*
D02*
G37*
G36*
X0549468Y0212809D02*
X0549383Y0212779D01*
X0549308Y0212728D01*
X0549243Y0212657D01*
X0549188Y0212566D01*
X0549143Y0212455D01*
X0549108Y0212323D01*
X0549083Y0212172D01*
X0549068Y0212000D01*
X0549063Y0211807D01*
X0548063D01*
X0548058Y0212000D01*
X0548043Y0212172D01*
X0548018Y0212323D01*
X0547983Y0212455D01*
X0547938Y0212566D01*
X0547883Y0212657D01*
X0547818Y0212728D01*
X0547743Y0212779D01*
X0547658Y0212809D01*
X0547563Y0212819D01*
X0549563D01*
X0549468Y0212809D01*
D02*
G37*
G36*
X0554968Y0212807D02*
X0554905Y0212797D01*
X0554848Y0212767D01*
X0554798Y0212717D01*
X0554754Y0212647D01*
X0554717Y0212557D01*
X0554687Y0212447D01*
X0554664Y0212317D01*
X0554647Y0212167D01*
X0554634Y0211807D01*
X0553634D01*
X0553629Y0211999D01*
X0553614Y0212171D01*
X0553589Y0212322D01*
X0553554Y0212453D01*
X0553509Y0212565D01*
X0553454Y0212656D01*
X0553389Y0212727D01*
X0553314Y0212778D01*
X0553229Y0212809D01*
X0553134Y0212819D01*
X0554968Y0212807D01*
D02*
G37*
G36*
X0538208Y0212808D02*
X0538123Y0212777D01*
X0538048Y0212726D01*
X0537983Y0212655D01*
X0537928Y0212564D01*
X0537883Y0212453D01*
X0537848Y0212321D01*
X0537823Y0212170D01*
X0537808Y0211999D01*
X0537803Y0211807D01*
X0536803D01*
X0537079Y0212807D01*
X0538303Y0212819D01*
X0538208Y0212808D01*
D02*
G37*
G36*
X0534389Y0212809D02*
X0534304Y0212779D01*
X0534229Y0212728D01*
X0534164Y0212657D01*
X0534109Y0212566D01*
X0534064Y0212455D01*
X0534029Y0212323D01*
X0534004Y0212172D01*
X0533989Y0212000D01*
X0533984Y0211807D01*
X0532984D01*
X0532979Y0212000D01*
X0532964Y0212172D01*
X0532939Y0212323D01*
X0532904Y0212455D01*
X0532859Y0212566D01*
X0532804Y0212657D01*
X0532739Y0212728D01*
X0532664Y0212779D01*
X0532579Y0212809D01*
X0532484Y0212819D01*
X0534484D01*
X0534389Y0212809D01*
D02*
G37*
G36*
X0544448D02*
X0544363Y0212779D01*
X0544288Y0212728D01*
X0544223Y0212657D01*
X0544168Y0212566D01*
X0544123Y0212455D01*
X0544088Y0212323D01*
X0544068Y0212204D01*
X0544073Y0212174D01*
X0544096Y0212072D01*
X0544126Y0211976D01*
X0544163Y0211885D01*
X0544206Y0211802D01*
X0544256Y0211723D01*
X0544312Y0211651D01*
X0544375Y0211585D01*
X0542722Y0211558D01*
X0542783Y0211626D01*
X0542838Y0211700D01*
X0542886Y0211779D01*
X0542928Y0211864D01*
X0542963Y0211956D01*
X0542992Y0212052D01*
X0543014Y0212155D01*
X0543020Y0212192D01*
X0542998Y0212323D01*
X0542963Y0212455D01*
X0542918Y0212566D01*
X0542863Y0212657D01*
X0542798Y0212728D01*
X0542723Y0212779D01*
X0542638Y0212809D01*
X0542543Y0212819D01*
X0544543D01*
X0544448Y0212809D01*
D02*
G37*
G36*
X0533378Y0210598D02*
X0533295Y0210510D01*
X0533223Y0210422D01*
X0533162Y0210334D01*
X0533112Y0210246D01*
X0533072Y0210158D01*
X0533044Y0210070D01*
X0533026Y0209983D01*
X0533020Y0209895D01*
X0533024Y0209808D01*
X0533039Y0209721D01*
X0531641Y0210603D01*
X0531724Y0210625D01*
X0531809Y0210653D01*
X0531893Y0210688D01*
X0531978Y0210730D01*
X0532062Y0210779D01*
X0532148Y0210835D01*
X0532233Y0210898D01*
X0532405Y0211044D01*
X0532492Y0211127D01*
X0533378Y0210598D01*
D02*
G37*
G36*
X0549066Y0210542D02*
X0549077Y0210428D01*
X0549094Y0210321D01*
X0549118Y0210219D01*
X0549149Y0210124D01*
X0549186Y0210035D01*
X0549231Y0209952D01*
X0549282Y0209876D01*
X0549340Y0209806D01*
X0549406Y0209742D01*
X0547754Y0209659D01*
X0547813Y0209729D01*
X0547865Y0209804D01*
X0547912Y0209885D01*
X0547952Y0209972D01*
X0547986Y0210064D01*
X0548014Y0210161D01*
X0548035Y0210264D01*
X0548051Y0210373D01*
X0548060Y0210487D01*
X0548063Y0210607D01*
X0549063Y0210663D01*
X0549066Y0210542D01*
D02*
G37*
G36*
X0563141Y0208080D02*
X0563156Y0207908D01*
X0563181Y0207757D01*
X0563216Y0207626D01*
X0563261Y0207514D01*
X0563316Y0207423D01*
X0563381Y0207352D01*
X0563456Y0207301D01*
X0563541Y0207270D01*
X0563636Y0207259D01*
X0562118Y0207272D01*
X0562122Y0207281D01*
X0562125Y0207312D01*
X0562130Y0207432D01*
X0562136Y0208272D01*
X0563136D01*
X0563141Y0208080D01*
D02*
G37*
G36*
X0559380Y0208079D02*
X0559393Y0207934D01*
X0559702D01*
X0559640Y0207867D01*
X0559585Y0207794D01*
X0559536Y0207715D01*
X0559493Y0207630D01*
X0559473Y0207580D01*
X0559501Y0207512D01*
X0559555Y0207421D01*
X0559621Y0207351D01*
X0559695Y0207300D01*
X0559781Y0207270D01*
X0559875Y0207259D01*
X0559393D01*
X0559389Y0207233D01*
X0559379Y0207118D01*
X0559375Y0206998D01*
X0558376D01*
X0558372Y0207118D01*
X0558362Y0207233D01*
X0558358Y0207259D01*
X0557875D01*
X0557971Y0207270D01*
X0558055Y0207300D01*
X0558131Y0207351D01*
X0558195Y0207421D01*
X0558251Y0207512D01*
X0558278Y0207580D01*
X0558258Y0207630D01*
X0558215Y0207715D01*
X0558166Y0207794D01*
X0558111Y0207867D01*
X0558049Y0207934D01*
X0558358D01*
X0558370Y0208079D01*
X0558376Y0208272D01*
X0559375D01*
X0559380Y0208079D01*
D02*
G37*
G36*
X0564468Y0203557D02*
X0564383Y0203527D01*
X0564308Y0203476D01*
X0564243Y0203405D01*
X0564188Y0203314D01*
X0564143Y0203203D01*
X0564108Y0203071D01*
X0564083Y0202920D01*
X0564068Y0202748D01*
X0564063Y0202555D01*
X0563063D01*
X0563058Y0202748D01*
X0563043Y0202920D01*
X0563018Y0203071D01*
X0562983Y0203203D01*
X0562938Y0203314D01*
X0562883Y0203405D01*
X0562818Y0203476D01*
X0562743Y0203527D01*
X0562658Y0203557D01*
X0562563Y0203567D01*
X0564563D01*
X0564468Y0203557D01*
D02*
G37*
G36*
X0559468D02*
X0559383Y0203527D01*
X0559308Y0203476D01*
X0559243Y0203405D01*
X0559188Y0203314D01*
X0559143Y0203203D01*
X0559108Y0203071D01*
X0559083Y0202920D01*
X0559068Y0202748D01*
X0559063Y0202555D01*
X0558063D01*
X0558058Y0202748D01*
X0558043Y0202920D01*
X0558018Y0203071D01*
X0557983Y0203203D01*
X0557938Y0203314D01*
X0557883Y0203405D01*
X0557818Y0203476D01*
X0557743Y0203527D01*
X0557658Y0203557D01*
X0557563Y0203567D01*
X0559563D01*
X0559468Y0203557D01*
D02*
G37*
G36*
X0554634Y0202324D02*
X0554702Y0200601D01*
X0553138Y0201372D01*
X0553233Y0201339D01*
X0553317Y0201337D01*
X0553391Y0201368D01*
X0553455Y0201430D01*
X0553510Y0201523D01*
X0553555Y0201648D01*
X0553589Y0201805D01*
X0553614Y0201993D01*
X0553629Y0202213D01*
X0553634Y0202465D01*
X0554634Y0202324D01*
D02*
G37*
G36*
X0545852Y0201069D02*
X0545763Y0201080D01*
X0545674Y0201081D01*
X0545585Y0201071D01*
X0545497Y0201051D01*
X0545408Y0201020D01*
X0545320Y0200979D01*
X0545231Y0200927D01*
X0545154Y0200873D01*
X0544954Y0200635D01*
X0544847Y0200479D01*
X0544765Y0200334D01*
X0544708Y0200201D01*
X0544676Y0200078D01*
X0544669Y0199967D01*
X0544687Y0199867D01*
X0544730Y0199778D01*
X0543603Y0201457D01*
X0543666Y0201388D01*
X0543743Y0201346D01*
X0543834Y0201333D01*
X0543939Y0201347D01*
X0544058Y0201390D01*
X0544191Y0201460D01*
X0544338Y0201558D01*
X0544499Y0201684D01*
X0544561Y0201739D01*
X0544621Y0201812D01*
X0544682Y0201898D01*
X0544736Y0201985D01*
X0544783Y0202072D01*
X0544822Y0202159D01*
X0544854Y0202245D01*
X0544879Y0202332D01*
X0544897Y0202419D01*
X0545852Y0201069D01*
D02*
G37*
G36*
X0534054Y0201930D02*
X0534088Y0201427D01*
X0534100Y0201373D01*
X0534115Y0201334D01*
X0534131Y0201311D01*
X0534150Y0201304D01*
X0532957Y0201288D01*
X0532975Y0201296D01*
X0532991Y0201320D01*
X0533006Y0201360D01*
X0533018Y0201415D01*
X0533029Y0201486D01*
X0533044Y0201675D01*
X0533053Y0202077D01*
X0534053D01*
X0534054Y0201930D01*
D02*
G37*
G36*
X0564068Y0202078D02*
X0564107Y0201615D01*
X0564142Y0201427D01*
X0564186Y0201267D01*
X0564240Y0201137D01*
X0564303Y0201036D01*
X0564377Y0200963D01*
X0564460Y0200920D01*
X0564553Y0200905D01*
X0562572D01*
X0562666Y0200920D01*
X0562749Y0200963D01*
X0562823Y0201036D01*
X0562886Y0201137D01*
X0562940Y0201267D01*
X0562985Y0201427D01*
X0563019Y0201615D01*
X0563043Y0201832D01*
X0563058Y0202078D01*
X0563063Y0202354D01*
X0564063D01*
X0564068Y0202078D01*
D02*
G37*
G36*
X0559068D02*
X0559107Y0201615D01*
X0559141Y0201427D01*
X0559186Y0201267D01*
X0559240Y0201137D01*
X0559303Y0201036D01*
X0559377Y0200963D01*
X0559460Y0200920D01*
X0559553Y0200905D01*
X0557573D01*
X0557666Y0200920D01*
X0557749Y0200963D01*
X0557823Y0201036D01*
X0557886Y0201137D01*
X0557940Y0201267D01*
X0557984Y0201427D01*
X0558019Y0201615D01*
X0558043Y0201832D01*
X0558058Y0202078D01*
X0558063Y0202354D01*
X0559063D01*
X0559068Y0202078D01*
D02*
G37*
G36*
X0549068D02*
X0549107Y0201615D01*
X0549142Y0201427D01*
X0549186Y0201267D01*
X0549240Y0201137D01*
X0549303Y0201036D01*
X0549377Y0200963D01*
X0549460Y0200920D01*
X0549553Y0200905D01*
X0547573D01*
X0547666Y0200920D01*
X0547749Y0200963D01*
X0547823Y0201036D01*
X0547886Y0201137D01*
X0547940Y0201267D01*
X0547985Y0201427D01*
X0548019Y0201615D01*
X0548043Y0201832D01*
X0548058Y0202078D01*
X0548063Y0202354D01*
X0549063D01*
X0549068Y0202078D01*
D02*
G37*
G36*
X0526892Y0202353D02*
X0526928Y0202306D01*
X0527050Y0202168D01*
X0527444Y0201763D01*
X0527732Y0201522D01*
X0527867Y0201432D01*
X0527989Y0201368D01*
X0528097Y0201330D01*
X0528191Y0201318D01*
X0528273Y0201332D01*
X0528340Y0201373D01*
X0528394Y0201440D01*
X0527396Y0199751D01*
X0527431Y0199836D01*
X0527443Y0199932D01*
X0527431Y0200040D01*
X0527396Y0200157D01*
X0527337Y0200286D01*
X0527255Y0200426D01*
X0527149Y0200577D01*
X0527019Y0200738D01*
X0527016Y0200742D01*
X0526941Y0200793D01*
X0526857Y0200838D01*
X0526776Y0200870D01*
X0526697Y0200889D01*
X0526620Y0200895D01*
X0526545Y0200888D01*
X0526473Y0200868D01*
X0526402Y0200834D01*
X0526872Y0202384D01*
X0526892Y0202353D01*
D02*
G37*
G36*
X0527519Y0193690D02*
X0527502Y0193784D01*
X0527464Y0193868D01*
X0527404Y0193942D01*
X0527323Y0194007D01*
X0527220Y0194061D01*
X0527096Y0194106D01*
X0526950Y0194141D01*
X0526839Y0194157D01*
X0526830Y0194156D01*
X0526728Y0194133D01*
X0526631Y0194103D01*
X0526541Y0194067D01*
X0526456Y0194025D01*
X0526377Y0193976D01*
X0526304Y0193920D01*
X0526237Y0193858D01*
Y0195512D01*
X0526304Y0195450D01*
X0526377Y0195394D01*
X0526456Y0195345D01*
X0526541Y0195303D01*
X0526631Y0195267D01*
X0526728Y0195237D01*
X0526824Y0195216D01*
X0526913Y0195230D01*
X0527046Y0195265D01*
X0527158Y0195310D01*
X0527249Y0195365D01*
X0527318Y0195430D01*
X0527365Y0195505D01*
X0527391Y0195590D01*
X0527396Y0195685D01*
X0527519Y0193690D01*
D02*
G37*
D13*
X0563484Y0152953D02*
D03*
X0558169D02*
D03*
X0563779Y0205413D02*
D03*
X0558465D02*
D03*
D14*
X0533484Y0139961D02*
D03*
X0558484D02*
D03*
X0553484D02*
D03*
X0548484D02*
D03*
X0543484Y0139961D02*
D03*
X0538484Y0139961D02*
D03*
X0558524Y0218307D02*
D03*
X0533524D02*
D03*
X0538524D02*
D03*
X0543524D02*
D03*
X0548524Y0218307D02*
D03*
X0553524Y0218307D02*
D03*
D15*
X0543563Y0161024D02*
D03*
X0528563Y0161024D02*
D03*
X0533563Y0161024D02*
D03*
X0538563Y0161024D02*
D03*
X0548563Y0161024D02*
D03*
X0553563Y0161024D02*
D03*
X0558563Y0161024D02*
D03*
X0563563Y0161024D02*
D03*
X0528563Y0197244D02*
D03*
X0533563D02*
D03*
X0538563D02*
D03*
X0543563D02*
D03*
X0548563D02*
D03*
X0553563D02*
D03*
X0558563D02*
D03*
X0563563D02*
D03*
D19*
X0543504Y0218504D02*
X0543543Y0218465D01*
Y0210748D02*
Y0218465D01*
Y0210748D02*
X0543563Y0210728D01*
X0539370Y0206988D02*
X0542456D01*
X0544532Y0207009D02*
X0544552Y0206988D01*
X0546181D02*
X0548563Y0204606D01*
X0537303Y0209055D02*
X0539370Y0206988D01*
X0544552D02*
X0546181D01*
X0542476Y0207009D02*
X0544532D01*
X0542456Y0206988D02*
X0542476Y0207009D01*
X0537303Y0209055D02*
Y0213032D01*
X0538524Y0214252D02*
Y0218307D01*
X0537303Y0213032D02*
X0538524Y0214252D01*
X0543563Y0200013D02*
X0545781Y0202232D01*
X0546063D01*
X0543563Y0197244D02*
Y0200013D01*
X0553563Y0197244D02*
Y0200664D01*
X0554134Y0201235D01*
X0553524Y0218307D02*
X0554134Y0217697D01*
Y0201235D02*
Y0217697D01*
X0537598Y0140847D02*
Y0146885D01*
X0537578Y0146905D02*
X0537598Y0146885D01*
X0537578Y0149684D02*
X0538484Y0150591D01*
X0537578Y0146905D02*
Y0149684D01*
X0538484Y0150591D02*
X0544095D01*
X0548302Y0154798D01*
X0537598Y0140847D02*
X0538484Y0139961D01*
X0543069Y0153289D02*
X0543177Y0153182D01*
X0543069Y0153811D02*
X0543563Y0154305D01*
X0543069Y0153289D02*
Y0153811D01*
X0543563Y0154305D02*
Y0161024D01*
X0553562Y0152539D02*
X0553564Y0152540D01*
Y0154669D01*
X0553563Y0154670D02*
X0553564Y0154669D01*
X0553563Y0154670D02*
Y0161024D01*
X0553484Y0139961D02*
X0553562Y0140039D01*
Y0152539D01*
X0530020Y0142224D02*
X0532567D01*
X0533135Y0140869D02*
Y0144208D01*
Y0140153D02*
X0533524Y0139764D01*
X0533135Y0140153D02*
Y0140869D01*
X0533524Y0139764D02*
Y0140480D01*
X0533563Y0157972D02*
Y0161024D01*
X0526968Y0151378D02*
X0533563Y0157972D01*
X0526968Y0148228D02*
Y0151378D01*
X0533135Y0142792D02*
Y0144208D01*
Y0148755D01*
X0532874Y0149016D02*
X0533135Y0148755D01*
X0548302Y0154798D02*
Y0160763D01*
X0543617Y0146190D02*
X0545163Y0147736D01*
X0558644Y0149131D02*
Y0152832D01*
X0548466Y0151384D02*
X0548495Y0151356D01*
X0525975Y0156860D02*
X0527082D01*
X0528563Y0158341D02*
Y0162999D01*
X0527082Y0156860D02*
X0528563Y0158341D01*
X0525714Y0156600D02*
X0525975Y0156860D01*
X0525454Y0163628D02*
X0527934D01*
X0528563Y0162999D01*
X0525401Y0163681D02*
X0525454Y0163628D01*
X0525394Y0194685D02*
X0527934D01*
X0528563Y0195314D02*
Y0197244D01*
X0527934Y0194685D02*
X0528563Y0195314D01*
Y0197244D02*
Y0199927D01*
X0526075Y0201598D02*
X0526892D01*
X0528563Y0199927D01*
X0525814Y0201859D02*
X0526075Y0201598D01*
X0532567Y0142224D02*
X0533135Y0142792D01*
Y0140869D02*
X0533524Y0140480D01*
X0532717Y0217717D02*
X0533504Y0218504D01*
X0530066Y0217717D02*
X0532717D01*
X0527165Y0209646D02*
X0527426Y0209385D01*
Y0208204D02*
Y0209385D01*
Y0208204D02*
X0533553Y0202077D01*
X0559480Y0137303D02*
X0561961D01*
X0558524Y0138260D02*
Y0143819D01*
X0543617Y0139857D02*
Y0146190D01*
X0543524Y0139764D02*
X0543617Y0139857D01*
X0548563Y0208917D02*
Y0218445D01*
Y0208917D02*
X0548622Y0208858D01*
X0562500Y0151969D02*
X0563563Y0153032D01*
Y0153347D01*
X0558524Y0143819D02*
X0562500Y0147795D01*
X0563563Y0153347D02*
Y0161024D01*
X0562500Y0147795D02*
Y0151969D01*
X0558524Y0152953D02*
X0558644Y0152832D01*
X0558524Y0152953D02*
Y0153307D01*
X0533553Y0197254D02*
X0533563Y0197244D01*
X0533553Y0197254D02*
Y0202077D01*
X0531890Y0209817D02*
X0533484Y0211412D01*
X0531890Y0209449D02*
Y0209817D01*
X0533484Y0211412D02*
Y0218484D01*
X0533504Y0218504D01*
X0558504Y0220092D02*
X0559461Y0221049D01*
X0562311Y0221071D02*
X0562500Y0221260D01*
X0559461Y0221049D02*
X0560875D01*
X0560897Y0221071D01*
X0562311D01*
X0558504Y0218504D02*
Y0220092D01*
X0558524Y0138260D02*
X0559480Y0137303D01*
X0558876Y0205824D02*
Y0208777D01*
X0558465Y0205413D02*
X0558876Y0205824D01*
X0558504Y0218504D02*
X0559084Y0217924D01*
X0562636Y0206557D02*
Y0208525D01*
X0559084Y0212078D02*
X0562636Y0208525D01*
X0559084Y0212078D02*
Y0217924D01*
X0562636Y0206557D02*
X0563779Y0205413D01*
X0558563Y0197244D02*
Y0205315D01*
X0558465Y0205413D02*
X0558563Y0205315D01*
X0563563Y0205197D02*
X0563779Y0205413D01*
X0563563Y0197244D02*
Y0205197D01*
X0548563Y0197244D02*
Y0204606D01*
X0548504Y0218504D02*
X0548563Y0218445D01*
X0548302Y0160763D02*
X0548563Y0161024D01*
X0548495Y0139793D02*
X0548524Y0139764D01*
X0548495Y0139793D02*
Y0151356D01*
X0558169Y0152953D02*
X0558524Y0153307D01*
X0558563Y0153347D01*
Y0161024D01*
D20*
X0540256Y0210236D02*
D03*
X0543563Y0210728D02*
D03*
X0543504Y0204528D02*
D03*
X0546063Y0202232D02*
D03*
X0551083Y0205610D02*
D03*
X0540059Y0147933D02*
D03*
X0540551Y0155118D02*
D03*
X0543177Y0153182D02*
D03*
X0551083Y0153642D02*
D03*
X0525000Y0136122D02*
D03*
X0524902Y0222047D02*
D03*
X0566043Y0221358D02*
D03*
X0565846Y0137205D02*
D03*
X0530020Y0142224D02*
D03*
X0562008Y0215945D02*
D03*
X0532874Y0149016D02*
D03*
X0526968Y0148228D02*
D03*
X0545163Y0147736D02*
D03*
X0558644Y0149131D02*
D03*
X0548466Y0151384D02*
D03*
X0525714Y0156600D02*
D03*
X0525401Y0163681D02*
D03*
X0525394Y0194685D02*
D03*
X0525814Y0201859D02*
D03*
X0566725Y0194488D02*
D03*
X0566392Y0201799D02*
D03*
X0530066Y0217717D02*
D03*
X0527165Y0209646D02*
D03*
X0561961Y0137303D02*
D03*
Y0140945D02*
D03*
X0548622Y0208858D02*
D03*
X0531890Y0209449D02*
D03*
X0562500Y0221260D02*
D03*
X0558876Y0208777D02*
D03*
X0566321Y0156426D02*
D03*
X0566725Y0162598D02*
D03*
M02*
