G04*
G04 #@! TF.GenerationSoftware,Altium Limited,Altium Designer,21.7.2 (23)*
G04*
G04 Layer_Color=32896*
%FSAX25Y25*%
%MOIN*%
G70*
G04*
G04 #@! TF.SameCoordinates,914A0A10-9902-47D2-BBE9-F090EB24A124*
G04*
G04*
G04 #@! TF.FilePolarity,Positive*
G04*
G01*
G75*
%ADD10C,0.02362*%
%ADD11C,0.00984*%
%ADD12C,0.00787*%
G36*
X0560632Y0155299D02*
X0560723Y0155294D01*
X0560814Y0155276D01*
X0560894Y0155259D01*
X0560974Y0155236D01*
X0561048Y0155214D01*
X0561111Y0155191D01*
X0561168Y0155162D01*
X0561225Y0155134D01*
X0561271Y0155111D01*
X0561311Y0155088D01*
X0561345Y0155065D01*
X0561368Y0155048D01*
X0561385Y0155031D01*
X0561397Y0155025D01*
X0561402Y0155019D01*
X0561459Y0154962D01*
X0561511Y0154900D01*
X0561556Y0154837D01*
X0561596Y0154768D01*
X0561665Y0154631D01*
X0561711Y0154500D01*
X0561739Y0154380D01*
X0561751Y0154329D01*
X0561762Y0154283D01*
X0561768Y0154243D01*
X0561773Y0154214D01*
Y0154197D01*
Y0154192D01*
X0561288Y0154140D01*
X0561277Y0154266D01*
X0561254Y0154380D01*
X0561225Y0154477D01*
X0561185Y0154557D01*
X0561151Y0154620D01*
X0561117Y0154666D01*
X0561094Y0154694D01*
X0561088Y0154705D01*
X0561008Y0154774D01*
X0560917Y0154825D01*
X0560826Y0154865D01*
X0560734Y0154888D01*
X0560660Y0154905D01*
X0560597Y0154911D01*
X0560574Y0154917D01*
X0560540D01*
X0560426Y0154911D01*
X0560323Y0154888D01*
X0560238Y0154854D01*
X0560157Y0154820D01*
X0560100Y0154785D01*
X0560055Y0154751D01*
X0560032Y0154728D01*
X0560020Y0154723D01*
X0559952Y0154648D01*
X0559901Y0154568D01*
X0559866Y0154489D01*
X0559838Y0154414D01*
X0559826Y0154346D01*
X0559821Y0154294D01*
X0559815Y0154260D01*
Y0154254D01*
Y0154249D01*
X0559826Y0154146D01*
X0559849Y0154049D01*
X0559883Y0153952D01*
X0559923Y0153860D01*
X0559969Y0153786D01*
X0560003Y0153729D01*
X0560015Y0153706D01*
X0560026Y0153689D01*
X0560038Y0153683D01*
Y0153678D01*
X0560083Y0153621D01*
X0560140Y0153558D01*
X0560197Y0153495D01*
X0560266Y0153426D01*
X0560403Y0153289D01*
X0560546Y0153164D01*
X0560671Y0153044D01*
X0560729Y0152992D01*
X0560780Y0152953D01*
X0560826Y0152918D01*
X0560854Y0152890D01*
X0560877Y0152873D01*
X0560883Y0152867D01*
X0561025Y0152747D01*
X0561151Y0152638D01*
X0561260Y0152536D01*
X0561345Y0152450D01*
X0561414Y0152382D01*
X0561465Y0152330D01*
X0561494Y0152296D01*
X0561505Y0152290D01*
Y0152284D01*
X0561579Y0152193D01*
X0561642Y0152102D01*
X0561693Y0152016D01*
X0561739Y0151936D01*
X0561773Y0151873D01*
X0561796Y0151822D01*
X0561808Y0151788D01*
X0561813Y0151782D01*
Y0151776D01*
X0561831Y0151719D01*
X0561848Y0151656D01*
X0561853Y0151605D01*
X0561859Y0151553D01*
X0561865Y0151514D01*
Y0151479D01*
Y0151456D01*
Y0151451D01*
X0559324D01*
Y0151902D01*
X0561208D01*
X0561145Y0151993D01*
X0561111Y0152039D01*
X0561077Y0152073D01*
X0561048Y0152107D01*
X0561025Y0152130D01*
X0561014Y0152147D01*
X0561008Y0152153D01*
X0560980Y0152182D01*
X0560951Y0152210D01*
X0560871Y0152284D01*
X0560786Y0152364D01*
X0560694Y0152444D01*
X0560603Y0152518D01*
X0560534Y0152581D01*
X0560506Y0152604D01*
X0560483Y0152621D01*
X0560472Y0152633D01*
X0560466Y0152638D01*
X0560374Y0152718D01*
X0560289Y0152793D01*
X0560209Y0152861D01*
X0560140Y0152924D01*
X0560072Y0152987D01*
X0560015Y0153038D01*
X0559958Y0153089D01*
X0559912Y0153135D01*
X0559872Y0153175D01*
X0559838Y0153209D01*
X0559803Y0153244D01*
X0559781Y0153267D01*
X0559752Y0153301D01*
X0559741Y0153312D01*
X0559666Y0153404D01*
X0559598Y0153489D01*
X0559547Y0153569D01*
X0559501Y0153643D01*
X0559467Y0153700D01*
X0559444Y0153741D01*
X0559432Y0153769D01*
X0559427Y0153780D01*
X0559392Y0153866D01*
X0559370Y0153946D01*
X0559352Y0154020D01*
X0559341Y0154095D01*
X0559335Y0154152D01*
X0559330Y0154197D01*
Y0154226D01*
Y0154237D01*
X0559335Y0154323D01*
X0559341Y0154397D01*
X0559358Y0154477D01*
X0559381Y0154546D01*
X0559432Y0154677D01*
X0559489Y0154785D01*
X0559524Y0154831D01*
X0559552Y0154877D01*
X0559581Y0154911D01*
X0559604Y0154940D01*
X0559626Y0154968D01*
X0559644Y0154985D01*
X0559649Y0154991D01*
X0559655Y0154997D01*
X0559718Y0155054D01*
X0559786Y0155099D01*
X0559855Y0155139D01*
X0559923Y0155174D01*
X0560072Y0155231D01*
X0560209Y0155265D01*
X0560278Y0155282D01*
X0560335Y0155288D01*
X0560392Y0155294D01*
X0560437Y0155299D01*
X0560477Y0155305D01*
X0560529D01*
X0560632Y0155299D01*
D02*
G37*
G36*
X0565479Y0153072D02*
Y0152964D01*
X0565474Y0152855D01*
X0565468Y0152758D01*
X0565456Y0152661D01*
X0565445Y0152576D01*
X0565434Y0152501D01*
X0565422Y0152427D01*
X0565405Y0152359D01*
X0565394Y0152302D01*
X0565382Y0152250D01*
X0565371Y0152210D01*
X0565359Y0152170D01*
X0565348Y0152142D01*
X0565342Y0152125D01*
X0565337Y0152113D01*
Y0152107D01*
X0565274Y0151982D01*
X0565200Y0151879D01*
X0565114Y0151782D01*
X0565034Y0151708D01*
X0564960Y0151651D01*
X0564902Y0151605D01*
X0564880Y0151588D01*
X0564863Y0151582D01*
X0564851Y0151571D01*
X0564845D01*
X0564708Y0151508D01*
X0564560Y0151468D01*
X0564417Y0151434D01*
X0564274Y0151411D01*
X0564212Y0151405D01*
X0564149Y0151399D01*
X0564097Y0151394D01*
X0564052D01*
X0564012Y0151388D01*
X0563960D01*
X0563761Y0151399D01*
X0563669Y0151405D01*
X0563589Y0151422D01*
X0563509Y0151439D01*
X0563435Y0151456D01*
X0563367Y0151474D01*
X0563304Y0151496D01*
X0563247Y0151514D01*
X0563201Y0151531D01*
X0563161Y0151548D01*
X0563127Y0151565D01*
X0563098Y0151582D01*
X0563081Y0151588D01*
X0563070Y0151599D01*
X0563064D01*
X0562944Y0151685D01*
X0562847Y0151776D01*
X0562761Y0151868D01*
X0562699Y0151953D01*
X0562647Y0152033D01*
X0562613Y0152096D01*
X0562601Y0152119D01*
X0562596Y0152136D01*
X0562590Y0152147D01*
Y0152153D01*
X0562544Y0152290D01*
X0562516Y0152444D01*
X0562493Y0152593D01*
X0562476Y0152741D01*
X0562470Y0152810D01*
X0562464Y0152873D01*
Y0152930D01*
X0562459Y0152975D01*
Y0153015D01*
Y0153050D01*
Y0153067D01*
Y0153072D01*
Y0155294D01*
X0562967D01*
Y0153072D01*
Y0152941D01*
X0562978Y0152827D01*
X0562990Y0152713D01*
X0563007Y0152616D01*
X0563024Y0152530D01*
X0563041Y0152450D01*
X0563064Y0152376D01*
X0563087Y0152313D01*
X0563110Y0152262D01*
X0563132Y0152216D01*
X0563150Y0152176D01*
X0563167Y0152147D01*
X0563184Y0152125D01*
X0563195Y0152107D01*
X0563201Y0152102D01*
X0563207Y0152096D01*
X0563252Y0152050D01*
X0563309Y0152016D01*
X0563435Y0151953D01*
X0563566Y0151908D01*
X0563698Y0151879D01*
X0563818Y0151856D01*
X0563869Y0151850D01*
X0563915D01*
X0563955Y0151845D01*
X0564006D01*
X0564126Y0151850D01*
X0564234Y0151862D01*
X0564326Y0151885D01*
X0564411Y0151908D01*
X0564474Y0151930D01*
X0564526Y0151953D01*
X0564554Y0151965D01*
X0564566Y0151970D01*
X0564646Y0152022D01*
X0564708Y0152079D01*
X0564766Y0152142D01*
X0564806Y0152199D01*
X0564840Y0152256D01*
X0564863Y0152296D01*
X0564874Y0152324D01*
X0564880Y0152336D01*
X0564897Y0152382D01*
X0564908Y0152439D01*
X0564931Y0152553D01*
X0564948Y0152673D01*
X0564960Y0152793D01*
X0564965Y0152901D01*
Y0152953D01*
X0564971Y0152992D01*
Y0153027D01*
Y0153050D01*
Y0153067D01*
Y0153072D01*
Y0155294D01*
X0565479D01*
Y0153072D01*
D02*
G37*
G36*
X0540327Y0154239D02*
X0540498Y0154217D01*
X0540658Y0154177D01*
X0540727Y0154154D01*
X0540795Y0154137D01*
X0540852Y0154114D01*
X0540909Y0154091D01*
X0540955Y0154074D01*
X0540995Y0154051D01*
X0541029Y0154040D01*
X0541052Y0154028D01*
X0541063Y0154017D01*
X0541069D01*
X0541218Y0153920D01*
X0541349Y0153811D01*
X0541463Y0153697D01*
X0541555Y0153588D01*
X0541623Y0153491D01*
X0541652Y0153446D01*
X0541680Y0153411D01*
X0541697Y0153377D01*
X0541709Y0153354D01*
X0541720Y0153343D01*
Y0153337D01*
X0541794Y0153166D01*
X0541852Y0152989D01*
X0541891Y0152812D01*
X0541920Y0152646D01*
X0541931Y0152572D01*
X0541937Y0152504D01*
X0541943Y0152446D01*
Y0152395D01*
X0541949Y0152349D01*
Y0152321D01*
Y0152298D01*
Y0152292D01*
X0541937Y0152087D01*
X0541914Y0151898D01*
X0541886Y0151721D01*
X0541869Y0151641D01*
X0541846Y0151567D01*
X0541829Y0151499D01*
X0541812Y0151442D01*
X0541794Y0151384D01*
X0541777Y0151345D01*
X0541766Y0151304D01*
X0541754Y0151282D01*
X0541749Y0151265D01*
Y0151259D01*
X0541663Y0151087D01*
X0541572Y0150945D01*
X0541469Y0150819D01*
X0541372Y0150716D01*
X0541286Y0150631D01*
X0541252Y0150602D01*
X0541218Y0150574D01*
X0541189Y0150557D01*
X0541172Y0150539D01*
X0541161Y0150534D01*
X0541155Y0150528D01*
X0541081Y0150482D01*
X0541001Y0150448D01*
X0540835Y0150385D01*
X0540664Y0150339D01*
X0540504Y0150311D01*
X0540430Y0150300D01*
X0540361Y0150288D01*
X0540298Y0150282D01*
X0540247D01*
X0540201Y0150277D01*
X0540144D01*
X0540036Y0150282D01*
X0539927Y0150288D01*
X0539830Y0150305D01*
X0539733Y0150328D01*
X0539642Y0150351D01*
X0539562Y0150380D01*
X0539482Y0150408D01*
X0539413Y0150442D01*
X0539345Y0150471D01*
X0539293Y0150499D01*
X0539242Y0150528D01*
X0539202Y0150551D01*
X0539168Y0150574D01*
X0539145Y0150591D01*
X0539134Y0150596D01*
X0539128Y0150602D01*
X0539054Y0150665D01*
X0538985Y0150739D01*
X0538922Y0150813D01*
X0538860Y0150893D01*
X0538762Y0151048D01*
X0538683Y0151202D01*
X0538648Y0151276D01*
X0538625Y0151339D01*
X0538602Y0151402D01*
X0538580Y0151453D01*
X0538568Y0151499D01*
X0538557Y0151527D01*
X0538551Y0151550D01*
Y0151556D01*
X0539059Y0151687D01*
X0539105Y0151516D01*
X0539168Y0151367D01*
X0539236Y0151242D01*
X0539305Y0151139D01*
X0539368Y0151059D01*
X0539391Y0151030D01*
X0539419Y0151002D01*
X0539436Y0150985D01*
X0539453Y0150968D01*
X0539459Y0150962D01*
X0539465Y0150956D01*
X0539522Y0150910D01*
X0539579Y0150876D01*
X0539705Y0150813D01*
X0539824Y0150774D01*
X0539933Y0150739D01*
X0540036Y0150722D01*
X0540076Y0150716D01*
X0540116D01*
X0540144Y0150711D01*
X0540184D01*
X0540315Y0150716D01*
X0540435Y0150739D01*
X0540550Y0150768D01*
X0540647Y0150802D01*
X0540727Y0150831D01*
X0540790Y0150859D01*
X0540812Y0150871D01*
X0540829Y0150882D01*
X0540835Y0150888D01*
X0540841D01*
X0540944Y0150962D01*
X0541035Y0151053D01*
X0541109Y0151139D01*
X0541172Y0151230D01*
X0541218Y0151310D01*
X0541252Y0151379D01*
X0541263Y0151402D01*
X0541275Y0151419D01*
X0541281Y0151430D01*
Y0151436D01*
X0541326Y0151579D01*
X0541361Y0151721D01*
X0541389Y0151870D01*
X0541406Y0152001D01*
X0541412Y0152064D01*
X0541418Y0152115D01*
Y0152167D01*
X0541423Y0152212D01*
Y0152247D01*
Y0152269D01*
Y0152287D01*
Y0152292D01*
X0541418Y0152435D01*
X0541406Y0152566D01*
X0541383Y0152692D01*
X0541361Y0152806D01*
X0541343Y0152898D01*
X0541332Y0152938D01*
X0541321Y0152966D01*
X0541315Y0152995D01*
X0541309Y0153012D01*
X0541303Y0153023D01*
Y0153029D01*
X0541252Y0153155D01*
X0541189Y0153269D01*
X0541121Y0153366D01*
X0541052Y0153452D01*
X0540989Y0153514D01*
X0540932Y0153560D01*
X0540898Y0153588D01*
X0540892Y0153600D01*
X0540886D01*
X0540767Y0153674D01*
X0540647Y0153726D01*
X0540521Y0153765D01*
X0540401Y0153788D01*
X0540298Y0153805D01*
X0540258Y0153811D01*
X0540218D01*
X0540190Y0153817D01*
X0540144D01*
X0540007Y0153811D01*
X0539882Y0153788D01*
X0539773Y0153754D01*
X0539682Y0153720D01*
X0539607Y0153686D01*
X0539556Y0153651D01*
X0539522Y0153629D01*
X0539510Y0153623D01*
X0539419Y0153543D01*
X0539339Y0153446D01*
X0539271Y0153343D01*
X0539219Y0153246D01*
X0539174Y0153155D01*
X0539156Y0153115D01*
X0539139Y0153080D01*
X0539128Y0153052D01*
X0539122Y0153029D01*
X0539116Y0153017D01*
Y0153012D01*
X0538614Y0153132D01*
X0538648Y0153229D01*
X0538683Y0153320D01*
X0538722Y0153406D01*
X0538768Y0153486D01*
X0538814Y0153560D01*
X0538860Y0153623D01*
X0538905Y0153686D01*
X0538951Y0153743D01*
X0538997Y0153788D01*
X0539037Y0153834D01*
X0539071Y0153868D01*
X0539105Y0153902D01*
X0539128Y0153925D01*
X0539151Y0153943D01*
X0539162Y0153948D01*
X0539168Y0153954D01*
X0539242Y0154005D01*
X0539322Y0154051D01*
X0539402Y0154091D01*
X0539482Y0154125D01*
X0539647Y0154177D01*
X0539796Y0154217D01*
X0539870Y0154228D01*
X0539933Y0154234D01*
X0539990Y0154239D01*
X0540041Y0154245D01*
X0540081Y0154251D01*
X0540138D01*
X0540327Y0154239D01*
D02*
G37*
G36*
X0538277Y0151693D02*
Y0151259D01*
X0536604D01*
Y0150339D01*
X0536130D01*
Y0151259D01*
X0535610D01*
Y0151693D01*
X0536130D01*
Y0154182D01*
X0536513D01*
X0538277Y0151693D01*
D02*
G37*
G36*
X0537089Y0208021D02*
X0537238Y0207992D01*
X0537369Y0207947D01*
X0537478Y0207901D01*
X0537523Y0207878D01*
X0537569Y0207855D01*
X0537603Y0207833D01*
X0537632Y0207810D01*
X0537655Y0207792D01*
X0537672Y0207781D01*
X0537683Y0207775D01*
X0537689Y0207770D01*
X0537792Y0207661D01*
X0537877Y0207547D01*
X0537946Y0207421D01*
X0537997Y0207307D01*
X0538031Y0207199D01*
X0538049Y0207153D01*
X0538060Y0207119D01*
X0538066Y0207084D01*
X0538071Y0207062D01*
X0538077Y0207045D01*
Y0207039D01*
X0537603Y0206953D01*
X0537580Y0207073D01*
X0537546Y0207176D01*
X0537506Y0207267D01*
X0537466Y0207341D01*
X0537432Y0207393D01*
X0537398Y0207433D01*
X0537375Y0207461D01*
X0537369Y0207467D01*
X0537295Y0207524D01*
X0537221Y0207570D01*
X0537147Y0207598D01*
X0537072Y0207621D01*
X0537009Y0207633D01*
X0536958Y0207644D01*
X0536912D01*
X0536810Y0207638D01*
X0536724Y0207615D01*
X0536644Y0207593D01*
X0536581Y0207558D01*
X0536524Y0207530D01*
X0536490Y0207501D01*
X0536461Y0207478D01*
X0536456Y0207473D01*
X0536399Y0207404D01*
X0536353Y0207336D01*
X0536324Y0207261D01*
X0536301Y0207193D01*
X0536290Y0207136D01*
X0536278Y0207090D01*
Y0207056D01*
Y0207050D01*
Y0207045D01*
Y0206987D01*
X0536290Y0206930D01*
X0536318Y0206833D01*
X0536358Y0206748D01*
X0536399Y0206679D01*
X0536444Y0206628D01*
X0536484Y0206588D01*
X0536513Y0206565D01*
X0536518Y0206559D01*
X0536524D01*
X0536615Y0206508D01*
X0536713Y0206468D01*
X0536798Y0206445D01*
X0536884Y0206422D01*
X0536958Y0206411D01*
X0537015Y0206405D01*
X0537089D01*
X0537112Y0206411D01*
X0537141D01*
X0537192Y0205994D01*
X0537118Y0206011D01*
X0537055Y0206022D01*
X0536998Y0206034D01*
X0536952Y0206040D01*
X0536912Y0206045D01*
X0536861D01*
X0536747Y0206034D01*
X0536638Y0206011D01*
X0536547Y0205977D01*
X0536473Y0205943D01*
X0536410Y0205903D01*
X0536364Y0205868D01*
X0536336Y0205845D01*
X0536324Y0205834D01*
X0536250Y0205748D01*
X0536199Y0205663D01*
X0536159Y0205571D01*
X0536136Y0205486D01*
X0536119Y0205412D01*
X0536113Y0205354D01*
X0536107Y0205331D01*
Y0205314D01*
Y0205303D01*
Y0205297D01*
X0536119Y0205177D01*
X0536141Y0205069D01*
X0536181Y0204972D01*
X0536222Y0204886D01*
X0536261Y0204823D01*
X0536301Y0204772D01*
X0536324Y0204743D01*
X0536336Y0204732D01*
X0536427Y0204658D01*
X0536518Y0204601D01*
X0536615Y0204561D01*
X0536701Y0204532D01*
X0536781Y0204515D01*
X0536844Y0204509D01*
X0536867Y0204504D01*
X0536901D01*
X0537004Y0204509D01*
X0537095Y0204532D01*
X0537175Y0204561D01*
X0537244Y0204595D01*
X0537301Y0204624D01*
X0537341Y0204652D01*
X0537363Y0204675D01*
X0537375Y0204681D01*
X0537443Y0204755D01*
X0537500Y0204846D01*
X0537546Y0204943D01*
X0537586Y0205040D01*
X0537615Y0205126D01*
X0537626Y0205166D01*
X0537632Y0205194D01*
X0537638Y0205223D01*
X0537643Y0205246D01*
X0537649Y0205257D01*
Y0205263D01*
X0538123Y0205200D01*
X0538111Y0205109D01*
X0538094Y0205029D01*
X0538043Y0204875D01*
X0537986Y0204738D01*
X0537917Y0204624D01*
X0537883Y0204578D01*
X0537854Y0204532D01*
X0537826Y0204498D01*
X0537797Y0204469D01*
X0537775Y0204441D01*
X0537757Y0204424D01*
X0537752Y0204418D01*
X0537746Y0204412D01*
X0537683Y0204361D01*
X0537615Y0204315D01*
X0537540Y0204275D01*
X0537472Y0204241D01*
X0537329Y0204189D01*
X0537198Y0204155D01*
X0537135Y0204138D01*
X0537078Y0204132D01*
X0537027Y0204127D01*
X0536987Y0204121D01*
X0536952Y0204115D01*
X0536901D01*
X0536798Y0204121D01*
X0536701Y0204132D01*
X0536610Y0204150D01*
X0536518Y0204172D01*
X0536438Y0204195D01*
X0536364Y0204224D01*
X0536290Y0204258D01*
X0536227Y0204292D01*
X0536170Y0204321D01*
X0536119Y0204355D01*
X0536079Y0204384D01*
X0536039Y0204412D01*
X0536016Y0204429D01*
X0535993Y0204447D01*
X0535982Y0204458D01*
X0535976Y0204464D01*
X0535913Y0204532D01*
X0535856Y0204601D01*
X0535805Y0204669D01*
X0535759Y0204743D01*
X0535725Y0204818D01*
X0535696Y0204886D01*
X0535650Y0205017D01*
X0535633Y0205080D01*
X0535622Y0205137D01*
X0535616Y0205189D01*
X0535610Y0205229D01*
X0535605Y0205269D01*
Y0205292D01*
Y0205309D01*
Y0205314D01*
X0535610Y0205446D01*
X0535633Y0205566D01*
X0535668Y0205674D01*
X0535702Y0205760D01*
X0535736Y0205834D01*
X0535770Y0205885D01*
X0535793Y0205920D01*
X0535799Y0205931D01*
X0535873Y0206017D01*
X0535959Y0206085D01*
X0536050Y0206142D01*
X0536130Y0206188D01*
X0536210Y0206217D01*
X0536267Y0206239D01*
X0536290Y0206245D01*
X0536307Y0206251D01*
X0536318Y0206257D01*
X0536324D01*
X0536233Y0206302D01*
X0536153Y0206359D01*
X0536084Y0206411D01*
X0536027Y0206462D01*
X0535987Y0206508D01*
X0535953Y0206542D01*
X0535936Y0206565D01*
X0535930Y0206576D01*
X0535885Y0206656D01*
X0535850Y0206736D01*
X0535827Y0206810D01*
X0535810Y0206885D01*
X0535799Y0206942D01*
X0535793Y0206993D01*
Y0207022D01*
Y0207033D01*
X0535799Y0207130D01*
X0535816Y0207222D01*
X0535839Y0207301D01*
X0535862Y0207376D01*
X0535890Y0207438D01*
X0535913Y0207484D01*
X0535930Y0207513D01*
X0535936Y0207524D01*
X0535993Y0207610D01*
X0536062Y0207678D01*
X0536130Y0207747D01*
X0536193Y0207798D01*
X0536256Y0207838D01*
X0536301Y0207873D01*
X0536336Y0207890D01*
X0536341Y0207895D01*
X0536347D01*
X0536450Y0207941D01*
X0536547Y0207975D01*
X0536644Y0207998D01*
X0536735Y0208015D01*
X0536810Y0208027D01*
X0536872Y0208032D01*
X0537009D01*
X0537089Y0208021D01*
D02*
G37*
G36*
X0540333Y0208078D02*
X0540504Y0208055D01*
X0540664Y0208015D01*
X0540732Y0207992D01*
X0540801Y0207975D01*
X0540858Y0207952D01*
X0540915Y0207930D01*
X0540961Y0207912D01*
X0541001Y0207890D01*
X0541035Y0207878D01*
X0541058Y0207867D01*
X0541069Y0207855D01*
X0541075D01*
X0541223Y0207758D01*
X0541355Y0207650D01*
X0541469Y0207536D01*
X0541560Y0207427D01*
X0541629Y0207330D01*
X0541657Y0207284D01*
X0541686Y0207250D01*
X0541703Y0207216D01*
X0541714Y0207193D01*
X0541726Y0207182D01*
Y0207176D01*
X0541800Y0207004D01*
X0541857Y0206827D01*
X0541897Y0206650D01*
X0541926Y0206485D01*
X0541937Y0206411D01*
X0541943Y0206342D01*
X0541949Y0206285D01*
Y0206234D01*
X0541954Y0206188D01*
Y0206159D01*
Y0206137D01*
Y0206131D01*
X0541943Y0205925D01*
X0541920Y0205737D01*
X0541891Y0205560D01*
X0541874Y0205480D01*
X0541852Y0205406D01*
X0541834Y0205337D01*
X0541817Y0205280D01*
X0541800Y0205223D01*
X0541783Y0205183D01*
X0541772Y0205143D01*
X0541760Y0205120D01*
X0541754Y0205103D01*
Y0205097D01*
X0541669Y0204926D01*
X0541577Y0204783D01*
X0541475Y0204658D01*
X0541378Y0204555D01*
X0541292Y0204469D01*
X0541258Y0204441D01*
X0541223Y0204412D01*
X0541195Y0204395D01*
X0541178Y0204378D01*
X0541166Y0204372D01*
X0541161Y0204366D01*
X0541086Y0204321D01*
X0541006Y0204287D01*
X0540841Y0204224D01*
X0540669Y0204178D01*
X0540510Y0204150D01*
X0540435Y0204138D01*
X0540367Y0204127D01*
X0540304Y0204121D01*
X0540253D01*
X0540207Y0204115D01*
X0540150D01*
X0540041Y0204121D01*
X0539933Y0204127D01*
X0539836Y0204144D01*
X0539739Y0204167D01*
X0539647Y0204189D01*
X0539568Y0204218D01*
X0539488Y0204247D01*
X0539419Y0204281D01*
X0539351Y0204309D01*
X0539299Y0204338D01*
X0539248Y0204366D01*
X0539208Y0204389D01*
X0539174Y0204412D01*
X0539151Y0204429D01*
X0539139Y0204435D01*
X0539134Y0204441D01*
X0539059Y0204504D01*
X0538991Y0204578D01*
X0538928Y0204652D01*
X0538865Y0204732D01*
X0538768Y0204886D01*
X0538688Y0205040D01*
X0538654Y0205115D01*
X0538631Y0205177D01*
X0538608Y0205240D01*
X0538585Y0205292D01*
X0538574Y0205337D01*
X0538563Y0205366D01*
X0538557Y0205389D01*
Y0205394D01*
X0539065Y0205526D01*
X0539111Y0205354D01*
X0539174Y0205206D01*
X0539242Y0205080D01*
X0539311Y0204977D01*
X0539373Y0204898D01*
X0539396Y0204869D01*
X0539425Y0204840D01*
X0539442Y0204823D01*
X0539459Y0204806D01*
X0539465Y0204801D01*
X0539470Y0204795D01*
X0539528Y0204749D01*
X0539585Y0204715D01*
X0539710Y0204652D01*
X0539830Y0204612D01*
X0539939Y0204578D01*
X0540041Y0204561D01*
X0540081Y0204555D01*
X0540121D01*
X0540150Y0204549D01*
X0540190D01*
X0540321Y0204555D01*
X0540441Y0204578D01*
X0540555Y0204606D01*
X0540652Y0204641D01*
X0540732Y0204669D01*
X0540795Y0204698D01*
X0540818Y0204709D01*
X0540835Y0204720D01*
X0540841Y0204726D01*
X0540847D01*
X0540949Y0204801D01*
X0541041Y0204892D01*
X0541115Y0204977D01*
X0541178Y0205069D01*
X0541223Y0205149D01*
X0541258Y0205217D01*
X0541269Y0205240D01*
X0541281Y0205257D01*
X0541286Y0205269D01*
Y0205274D01*
X0541332Y0205417D01*
X0541366Y0205560D01*
X0541395Y0205708D01*
X0541412Y0205840D01*
X0541418Y0205903D01*
X0541423Y0205954D01*
Y0206005D01*
X0541429Y0206051D01*
Y0206085D01*
Y0206108D01*
Y0206125D01*
Y0206131D01*
X0541423Y0206274D01*
X0541412Y0206405D01*
X0541389Y0206531D01*
X0541366Y0206645D01*
X0541349Y0206736D01*
X0541338Y0206776D01*
X0541326Y0206805D01*
X0541321Y0206833D01*
X0541315Y0206850D01*
X0541309Y0206862D01*
Y0206868D01*
X0541258Y0206993D01*
X0541195Y0207107D01*
X0541126Y0207204D01*
X0541058Y0207290D01*
X0540995Y0207353D01*
X0540938Y0207399D01*
X0540904Y0207427D01*
X0540898Y0207438D01*
X0540892D01*
X0540772Y0207513D01*
X0540652Y0207564D01*
X0540527Y0207604D01*
X0540407Y0207627D01*
X0540304Y0207644D01*
X0540264Y0207650D01*
X0540224D01*
X0540196Y0207656D01*
X0540150D01*
X0540013Y0207650D01*
X0539887Y0207627D01*
X0539779Y0207593D01*
X0539687Y0207558D01*
X0539613Y0207524D01*
X0539562Y0207490D01*
X0539528Y0207467D01*
X0539516Y0207461D01*
X0539425Y0207381D01*
X0539345Y0207284D01*
X0539276Y0207182D01*
X0539225Y0207084D01*
X0539179Y0206993D01*
X0539162Y0206953D01*
X0539145Y0206919D01*
X0539134Y0206890D01*
X0539128Y0206868D01*
X0539122Y0206856D01*
Y0206850D01*
X0538620Y0206970D01*
X0538654Y0207067D01*
X0538688Y0207159D01*
X0538728Y0207244D01*
X0538774Y0207324D01*
X0538820Y0207399D01*
X0538865Y0207461D01*
X0538911Y0207524D01*
X0538956Y0207581D01*
X0539002Y0207627D01*
X0539042Y0207673D01*
X0539077Y0207707D01*
X0539111Y0207741D01*
X0539134Y0207764D01*
X0539156Y0207781D01*
X0539168Y0207787D01*
X0539174Y0207792D01*
X0539248Y0207844D01*
X0539328Y0207890D01*
X0539408Y0207930D01*
X0539488Y0207964D01*
X0539653Y0208015D01*
X0539802Y0208055D01*
X0539876Y0208067D01*
X0539939Y0208072D01*
X0539996Y0208078D01*
X0540047Y0208084D01*
X0540087Y0208089D01*
X0540144D01*
X0540333Y0208078D01*
D02*
G37*
%LPC*%
G36*
X0536604Y0153411D02*
Y0151693D01*
X0537815D01*
X0536604Y0153411D01*
D02*
G37*
%LPD*%
D10*
X0530905Y0187500D02*
G03*
X0530905Y0187500I-0001181J0000000D01*
G01*
D11*
X0525709Y0197244D02*
G03*
X0525709Y0197244I-0000492J0000000D01*
G01*
D12*
X0525787Y0191437D02*
X0566339D01*
X0525787Y0166831D02*
X0566339D01*
X0525787D02*
Y0191437D01*
X0566339Y0166831D02*
Y0191437D01*
M02*
