G04*
G04 #@! TF.GenerationSoftware,Altium Limited,Altium Designer,21.7.2 (23)*
G04*
G04 Layer_Color=65535*
%FSAX25Y25*%
%MOIN*%
G70*
G04*
G04 #@! TF.SameCoordinates,914A0A10-9902-47D2-BBE9-F090EB24A124*
G04*
G04*
G04 #@! TF.FilePolarity,Positive*
G04*
G01*
G75*
%ADD10C,0.02362*%
%ADD11C,0.00984*%
%ADD12C,0.00787*%
G36*
X0552918Y0210249D02*
X0552970Y0210243D01*
X0553027Y0210238D01*
X0553090Y0210232D01*
X0553164Y0210221D01*
X0553312Y0210181D01*
X0553478Y0210129D01*
X0553558Y0210095D01*
X0553638Y0210055D01*
X0553718Y0210009D01*
X0553792Y0209958D01*
X0553798Y0209952D01*
X0553809Y0209946D01*
X0553832Y0209929D01*
X0553855Y0209907D01*
X0553889Y0209872D01*
X0553923Y0209838D01*
X0553963Y0209792D01*
X0554009Y0209747D01*
X0554055Y0209689D01*
X0554100Y0209627D01*
X0554146Y0209564D01*
X0554192Y0209490D01*
X0554237Y0209410D01*
X0554277Y0209324D01*
X0554312Y0209233D01*
X0554346Y0209136D01*
X0553843Y0209016D01*
Y0209021D01*
X0553838Y0209033D01*
X0553832Y0209056D01*
X0553821Y0209084D01*
X0553803Y0209119D01*
X0553786Y0209158D01*
X0553741Y0209250D01*
X0553689Y0209347D01*
X0553621Y0209450D01*
X0553541Y0209547D01*
X0553449Y0209627D01*
X0553438Y0209632D01*
X0553404Y0209655D01*
X0553352Y0209689D01*
X0553278Y0209724D01*
X0553187Y0209758D01*
X0553078Y0209792D01*
X0552953Y0209815D01*
X0552815Y0209821D01*
X0552770D01*
X0552741Y0209815D01*
X0552701D01*
X0552661Y0209809D01*
X0552559Y0209792D01*
X0552439Y0209770D01*
X0552313Y0209730D01*
X0552193Y0209678D01*
X0552073Y0209604D01*
X0552068D01*
X0552062Y0209592D01*
X0552028Y0209564D01*
X0551970Y0209518D01*
X0551908Y0209455D01*
X0551839Y0209370D01*
X0551771Y0209273D01*
X0551708Y0209158D01*
X0551656Y0209033D01*
Y0209027D01*
X0551651Y0209016D01*
X0551645Y0208999D01*
X0551639Y0208970D01*
X0551628Y0208942D01*
X0551616Y0208902D01*
X0551599Y0208810D01*
X0551577Y0208696D01*
X0551554Y0208570D01*
X0551542Y0208439D01*
X0551537Y0208296D01*
Y0208291D01*
Y0208273D01*
Y0208251D01*
Y0208216D01*
X0551542Y0208171D01*
Y0208119D01*
X0551548Y0208068D01*
X0551554Y0208005D01*
X0551571Y0207874D01*
X0551599Y0207725D01*
X0551634Y0207582D01*
X0551679Y0207440D01*
Y0207434D01*
X0551685Y0207423D01*
X0551696Y0207405D01*
X0551708Y0207383D01*
X0551742Y0207314D01*
X0551788Y0207234D01*
X0551851Y0207143D01*
X0551925Y0207057D01*
X0552016Y0206966D01*
X0552119Y0206892D01*
X0552125D01*
X0552130Y0206886D01*
X0552147Y0206874D01*
X0552170Y0206863D01*
X0552233Y0206835D01*
X0552313Y0206806D01*
X0552410Y0206772D01*
X0552524Y0206743D01*
X0552644Y0206720D01*
X0552776Y0206715D01*
X0552815D01*
X0552844Y0206720D01*
X0552884D01*
X0552924Y0206726D01*
X0553027Y0206743D01*
X0553135Y0206777D01*
X0553255Y0206817D01*
X0553381Y0206880D01*
X0553438Y0206914D01*
X0553495Y0206960D01*
X0553501Y0206966D01*
X0553507Y0206972D01*
X0553524Y0206989D01*
X0553541Y0207006D01*
X0553569Y0207034D01*
X0553592Y0207063D01*
X0553655Y0207143D01*
X0553723Y0207246D01*
X0553792Y0207371D01*
X0553855Y0207520D01*
X0553900Y0207691D01*
X0554409Y0207560D01*
Y0207554D01*
X0554403Y0207531D01*
X0554391Y0207503D01*
X0554380Y0207457D01*
X0554357Y0207405D01*
X0554334Y0207343D01*
X0554312Y0207280D01*
X0554277Y0207206D01*
X0554197Y0207051D01*
X0554100Y0206897D01*
X0554038Y0206817D01*
X0553975Y0206743D01*
X0553906Y0206669D01*
X0553832Y0206606D01*
X0553826Y0206600D01*
X0553815Y0206595D01*
X0553792Y0206578D01*
X0553758Y0206555D01*
X0553718Y0206532D01*
X0553666Y0206503D01*
X0553615Y0206475D01*
X0553546Y0206446D01*
X0553478Y0206412D01*
X0553398Y0206383D01*
X0553318Y0206355D01*
X0553227Y0206332D01*
X0553130Y0206309D01*
X0553032Y0206292D01*
X0552924Y0206286D01*
X0552815Y0206281D01*
X0552758D01*
X0552713Y0206286D01*
X0552661D01*
X0552599Y0206292D01*
X0552530Y0206304D01*
X0552456Y0206315D01*
X0552296Y0206343D01*
X0552125Y0206389D01*
X0551959Y0206452D01*
X0551879Y0206486D01*
X0551805Y0206532D01*
X0551799Y0206538D01*
X0551788Y0206543D01*
X0551771Y0206560D01*
X0551742Y0206578D01*
X0551708Y0206606D01*
X0551674Y0206635D01*
X0551588Y0206720D01*
X0551491Y0206823D01*
X0551388Y0206949D01*
X0551297Y0207091D01*
X0551211Y0207263D01*
Y0207269D01*
X0551205Y0207286D01*
X0551194Y0207308D01*
X0551183Y0207348D01*
X0551165Y0207388D01*
X0551148Y0207446D01*
X0551131Y0207503D01*
X0551114Y0207571D01*
X0551091Y0207645D01*
X0551074Y0207725D01*
X0551045Y0207902D01*
X0551023Y0208091D01*
X0551011Y0208296D01*
Y0208302D01*
Y0208325D01*
Y0208353D01*
X0551017Y0208399D01*
Y0208450D01*
X0551023Y0208507D01*
X0551028Y0208576D01*
X0551040Y0208650D01*
X0551068Y0208816D01*
X0551108Y0208993D01*
X0551165Y0209170D01*
X0551240Y0209341D01*
Y0209347D01*
X0551251Y0209358D01*
X0551262Y0209381D01*
X0551280Y0209415D01*
X0551308Y0209450D01*
X0551337Y0209495D01*
X0551405Y0209592D01*
X0551497Y0209701D01*
X0551611Y0209815D01*
X0551742Y0209924D01*
X0551891Y0210021D01*
X0551896D01*
X0551908Y0210032D01*
X0551931Y0210044D01*
X0551965Y0210055D01*
X0552005Y0210078D01*
X0552050Y0210095D01*
X0552107Y0210118D01*
X0552165Y0210141D01*
X0552233Y0210158D01*
X0552302Y0210181D01*
X0552461Y0210221D01*
X0552633Y0210243D01*
X0552821Y0210255D01*
X0552878D01*
X0552918Y0210249D01*
D02*
G37*
G36*
X0545164D02*
X0545216Y0210243D01*
X0545273Y0210238D01*
X0545335Y0210232D01*
X0545410Y0210221D01*
X0545558Y0210181D01*
X0545724Y0210129D01*
X0545804Y0210095D01*
X0545884Y0210055D01*
X0545964Y0210009D01*
X0546038Y0209958D01*
X0546043Y0209952D01*
X0546055Y0209946D01*
X0546078Y0209929D01*
X0546101Y0209907D01*
X0546135Y0209872D01*
X0546169Y0209838D01*
X0546209Y0209792D01*
X0546255Y0209747D01*
X0546300Y0209689D01*
X0546346Y0209627D01*
X0546392Y0209564D01*
X0546438Y0209490D01*
X0546483Y0209410D01*
X0546523Y0209324D01*
X0546557Y0209233D01*
X0546592Y0209136D01*
X0546089Y0209016D01*
Y0209021D01*
X0546083Y0209033D01*
X0546078Y0209056D01*
X0546066Y0209084D01*
X0546049Y0209119D01*
X0546032Y0209158D01*
X0545986Y0209250D01*
X0545935Y0209347D01*
X0545866Y0209450D01*
X0545787Y0209547D01*
X0545695Y0209627D01*
X0545684Y0209632D01*
X0545649Y0209655D01*
X0545598Y0209689D01*
X0545524Y0209724D01*
X0545433Y0209758D01*
X0545324Y0209792D01*
X0545198Y0209815D01*
X0545061Y0209821D01*
X0545016D01*
X0544987Y0209815D01*
X0544947D01*
X0544907Y0209809D01*
X0544804Y0209792D01*
X0544685Y0209770D01*
X0544559Y0209730D01*
X0544439Y0209678D01*
X0544319Y0209604D01*
X0544313D01*
X0544308Y0209592D01*
X0544273Y0209564D01*
X0544216Y0209518D01*
X0544153Y0209455D01*
X0544085Y0209370D01*
X0544016Y0209273D01*
X0543954Y0209158D01*
X0543902Y0209033D01*
Y0209027D01*
X0543896Y0209016D01*
X0543891Y0208999D01*
X0543885Y0208970D01*
X0543874Y0208942D01*
X0543862Y0208902D01*
X0543845Y0208810D01*
X0543822Y0208696D01*
X0543799Y0208570D01*
X0543788Y0208439D01*
X0543782Y0208296D01*
Y0208291D01*
Y0208273D01*
Y0208251D01*
Y0208216D01*
X0543788Y0208171D01*
Y0208119D01*
X0543794Y0208068D01*
X0543799Y0208005D01*
X0543817Y0207874D01*
X0543845Y0207725D01*
X0543879Y0207582D01*
X0543925Y0207440D01*
Y0207434D01*
X0543931Y0207423D01*
X0543942Y0207405D01*
X0543954Y0207383D01*
X0543988Y0207314D01*
X0544034Y0207234D01*
X0544096Y0207143D01*
X0544171Y0207057D01*
X0544262Y0206966D01*
X0544365Y0206892D01*
X0544371D01*
X0544376Y0206886D01*
X0544393Y0206874D01*
X0544416Y0206863D01*
X0544479Y0206835D01*
X0544559Y0206806D01*
X0544656Y0206772D01*
X0544770Y0206743D01*
X0544890Y0206720D01*
X0545021Y0206715D01*
X0545061D01*
X0545090Y0206720D01*
X0545130D01*
X0545170Y0206726D01*
X0545273Y0206743D01*
X0545381Y0206777D01*
X0545501Y0206817D01*
X0545627Y0206880D01*
X0545684Y0206914D01*
X0545741Y0206960D01*
X0545747Y0206966D01*
X0545752Y0206972D01*
X0545769Y0206989D01*
X0545787Y0207006D01*
X0545815Y0207034D01*
X0545838Y0207063D01*
X0545901Y0207143D01*
X0545969Y0207246D01*
X0546038Y0207371D01*
X0546101Y0207520D01*
X0546146Y0207691D01*
X0546655Y0207560D01*
Y0207554D01*
X0546649Y0207531D01*
X0546637Y0207503D01*
X0546626Y0207457D01*
X0546603Y0207405D01*
X0546580Y0207343D01*
X0546557Y0207280D01*
X0546523Y0207206D01*
X0546443Y0207051D01*
X0546346Y0206897D01*
X0546283Y0206817D01*
X0546220Y0206743D01*
X0546152Y0206669D01*
X0546078Y0206606D01*
X0546072Y0206600D01*
X0546061Y0206595D01*
X0546038Y0206578D01*
X0546003Y0206555D01*
X0545964Y0206532D01*
X0545912Y0206503D01*
X0545861Y0206475D01*
X0545792Y0206446D01*
X0545724Y0206412D01*
X0545644Y0206383D01*
X0545564Y0206355D01*
X0545472Y0206332D01*
X0545375Y0206309D01*
X0545278Y0206292D01*
X0545170Y0206286D01*
X0545061Y0206281D01*
X0545004D01*
X0544959Y0206286D01*
X0544907D01*
X0544844Y0206292D01*
X0544776Y0206304D01*
X0544702Y0206315D01*
X0544542Y0206343D01*
X0544371Y0206389D01*
X0544205Y0206452D01*
X0544125Y0206486D01*
X0544051Y0206532D01*
X0544045Y0206538D01*
X0544034Y0206543D01*
X0544016Y0206560D01*
X0543988Y0206578D01*
X0543954Y0206606D01*
X0543919Y0206635D01*
X0543834Y0206720D01*
X0543737Y0206823D01*
X0543634Y0206949D01*
X0543542Y0207091D01*
X0543457Y0207263D01*
Y0207269D01*
X0543451Y0207286D01*
X0543440Y0207308D01*
X0543428Y0207348D01*
X0543411Y0207388D01*
X0543394Y0207446D01*
X0543377Y0207503D01*
X0543360Y0207571D01*
X0543337Y0207645D01*
X0543320Y0207725D01*
X0543291Y0207902D01*
X0543268Y0208091D01*
X0543257Y0208296D01*
Y0208302D01*
Y0208325D01*
Y0208353D01*
X0543263Y0208399D01*
Y0208450D01*
X0543268Y0208507D01*
X0543274Y0208576D01*
X0543286Y0208650D01*
X0543314Y0208816D01*
X0543354Y0208993D01*
X0543411Y0209170D01*
X0543485Y0209341D01*
Y0209347D01*
X0543497Y0209358D01*
X0543508Y0209381D01*
X0543525Y0209415D01*
X0543554Y0209450D01*
X0543582Y0209495D01*
X0543651Y0209592D01*
X0543742Y0209701D01*
X0543857Y0209815D01*
X0543988Y0209924D01*
X0544136Y0210021D01*
X0544142D01*
X0544153Y0210032D01*
X0544176Y0210044D01*
X0544211Y0210055D01*
X0544251Y0210078D01*
X0544296Y0210095D01*
X0544353Y0210118D01*
X0544410Y0210141D01*
X0544479Y0210158D01*
X0544548Y0210181D01*
X0544707Y0210221D01*
X0544879Y0210243D01*
X0545067Y0210255D01*
X0545124D01*
X0545164Y0210249D01*
D02*
G37*
G36*
X0548858Y0210181D02*
X0548967Y0210175D01*
X0549081Y0210163D01*
X0549190Y0210146D01*
X0549287Y0210129D01*
X0549293D01*
X0549304Y0210123D01*
X0549321D01*
X0549344Y0210112D01*
X0549407Y0210095D01*
X0549481Y0210066D01*
X0549572Y0210032D01*
X0549664Y0209981D01*
X0549761Y0209924D01*
X0549852Y0209855D01*
X0549858D01*
X0549863Y0209844D01*
X0549881Y0209826D01*
X0549903Y0209809D01*
X0549955Y0209752D01*
X0550023Y0209678D01*
X0550098Y0209581D01*
X0550172Y0209472D01*
X0550240Y0209341D01*
X0550303Y0209198D01*
Y0209193D01*
X0550309Y0209181D01*
X0550320Y0209158D01*
X0550326Y0209130D01*
X0550337Y0209090D01*
X0550354Y0209044D01*
X0550366Y0208993D01*
X0550383Y0208936D01*
X0550394Y0208867D01*
X0550406Y0208799D01*
X0550434Y0208645D01*
X0550452Y0208473D01*
X0550457Y0208285D01*
Y0208279D01*
Y0208268D01*
Y0208245D01*
Y0208211D01*
X0550452Y0208171D01*
Y0208131D01*
X0550446Y0208022D01*
X0550434Y0207902D01*
X0550412Y0207771D01*
X0550389Y0207640D01*
X0550354Y0207508D01*
Y0207503D01*
X0550349Y0207491D01*
X0550343Y0207474D01*
X0550337Y0207451D01*
X0550315Y0207388D01*
X0550286Y0207314D01*
X0550246Y0207223D01*
X0550200Y0207131D01*
X0550149Y0207034D01*
X0550092Y0206949D01*
X0550086Y0206937D01*
X0550063Y0206914D01*
X0550029Y0206869D01*
X0549989Y0206823D01*
X0549938Y0206766D01*
X0549875Y0206703D01*
X0549806Y0206646D01*
X0549738Y0206595D01*
X0549732Y0206589D01*
X0549704Y0206572D01*
X0549664Y0206549D01*
X0549612Y0206526D01*
X0549544Y0206492D01*
X0549464Y0206463D01*
X0549378Y0206435D01*
X0549281Y0206406D01*
X0549270D01*
X0549253Y0206401D01*
X0549235Y0206395D01*
X0549178Y0206389D01*
X0549104Y0206378D01*
X0549013Y0206366D01*
X0548910Y0206355D01*
X0548790Y0206349D01*
X0548664Y0206343D01*
X0547283D01*
Y0210186D01*
X0548756D01*
X0548858Y0210181D01*
D02*
G37*
G36*
X0541104D02*
X0541213Y0210175D01*
X0541327Y0210163D01*
X0541435Y0210146D01*
X0541533Y0210129D01*
X0541538D01*
X0541550Y0210123D01*
X0541567D01*
X0541590Y0210112D01*
X0541652Y0210095D01*
X0541727Y0210066D01*
X0541818Y0210032D01*
X0541910Y0209981D01*
X0542006Y0209924D01*
X0542098Y0209855D01*
X0542104D01*
X0542109Y0209844D01*
X0542126Y0209826D01*
X0542149Y0209809D01*
X0542201Y0209752D01*
X0542269Y0209678D01*
X0542343Y0209581D01*
X0542418Y0209472D01*
X0542486Y0209341D01*
X0542549Y0209198D01*
Y0209193D01*
X0542555Y0209181D01*
X0542566Y0209158D01*
X0542572Y0209130D01*
X0542583Y0209090D01*
X0542600Y0209044D01*
X0542612Y0208993D01*
X0542629Y0208936D01*
X0542640Y0208867D01*
X0542652Y0208799D01*
X0542680Y0208645D01*
X0542697Y0208473D01*
X0542703Y0208285D01*
Y0208279D01*
Y0208268D01*
Y0208245D01*
Y0208211D01*
X0542697Y0208171D01*
Y0208131D01*
X0542692Y0208022D01*
X0542680Y0207902D01*
X0542658Y0207771D01*
X0542635Y0207640D01*
X0542600Y0207508D01*
Y0207503D01*
X0542595Y0207491D01*
X0542589Y0207474D01*
X0542583Y0207451D01*
X0542560Y0207388D01*
X0542532Y0207314D01*
X0542492Y0207223D01*
X0542446Y0207131D01*
X0542395Y0207034D01*
X0542338Y0206949D01*
X0542332Y0206937D01*
X0542309Y0206914D01*
X0542275Y0206869D01*
X0542235Y0206823D01*
X0542183Y0206766D01*
X0542121Y0206703D01*
X0542052Y0206646D01*
X0541984Y0206595D01*
X0541978Y0206589D01*
X0541949Y0206572D01*
X0541910Y0206549D01*
X0541858Y0206526D01*
X0541789Y0206492D01*
X0541710Y0206463D01*
X0541624Y0206435D01*
X0541527Y0206406D01*
X0541515D01*
X0541498Y0206401D01*
X0541481Y0206395D01*
X0541424Y0206389D01*
X0541350Y0206378D01*
X0541258Y0206366D01*
X0541156Y0206355D01*
X0541036Y0206349D01*
X0540910Y0206343D01*
X0539528D01*
Y0210186D01*
X0541002D01*
X0541104Y0210181D01*
D02*
G37*
G36*
X0551747Y0153802D02*
X0551798Y0153797D01*
X0551856Y0153791D01*
X0551918Y0153785D01*
X0551993Y0153774D01*
X0552141Y0153734D01*
X0552307Y0153682D01*
X0552387Y0153648D01*
X0552466Y0153608D01*
X0552546Y0153562D01*
X0552621Y0153511D01*
X0552626Y0153505D01*
X0552638Y0153500D01*
X0552661Y0153482D01*
X0552683Y0153460D01*
X0552718Y0153425D01*
X0552752Y0153391D01*
X0552792Y0153346D01*
X0552838Y0153300D01*
X0552883Y0153243D01*
X0552929Y0153180D01*
X0552975Y0153117D01*
X0553020Y0153043D01*
X0553066Y0152963D01*
X0553106Y0152877D01*
X0553140Y0152786D01*
X0553174Y0152689D01*
X0552672Y0152569D01*
Y0152575D01*
X0552666Y0152586D01*
X0552661Y0152609D01*
X0552649Y0152637D01*
X0552632Y0152672D01*
X0552615Y0152712D01*
X0552569Y0152803D01*
X0552518Y0152900D01*
X0552449Y0153003D01*
X0552369Y0153100D01*
X0552278Y0153180D01*
X0552267Y0153186D01*
X0552232Y0153208D01*
X0552181Y0153243D01*
X0552107Y0153277D01*
X0552015Y0153311D01*
X0551907Y0153346D01*
X0551781Y0153368D01*
X0551644Y0153374D01*
X0551599D01*
X0551570Y0153368D01*
X0551530D01*
X0551490Y0153363D01*
X0551387Y0153346D01*
X0551267Y0153323D01*
X0551142Y0153283D01*
X0551022Y0153231D01*
X0550902Y0153157D01*
X0550896D01*
X0550890Y0153146D01*
X0550856Y0153117D01*
X0550799Y0153071D01*
X0550736Y0153009D01*
X0550668Y0152923D01*
X0550599Y0152826D01*
X0550536Y0152712D01*
X0550485Y0152586D01*
Y0152580D01*
X0550479Y0152569D01*
X0550474Y0152552D01*
X0550468Y0152523D01*
X0550457Y0152495D01*
X0550445Y0152455D01*
X0550428Y0152363D01*
X0550405Y0152249D01*
X0550382Y0152124D01*
X0550371Y0151992D01*
X0550365Y0151849D01*
Y0151844D01*
Y0151827D01*
Y0151804D01*
Y0151769D01*
X0550371Y0151724D01*
Y0151672D01*
X0550377Y0151621D01*
X0550382Y0151558D01*
X0550399Y0151427D01*
X0550428Y0151278D01*
X0550462Y0151136D01*
X0550508Y0150993D01*
Y0150987D01*
X0550514Y0150976D01*
X0550525Y0150959D01*
X0550536Y0150936D01*
X0550571Y0150867D01*
X0550616Y0150787D01*
X0550679Y0150696D01*
X0550753Y0150610D01*
X0550845Y0150519D01*
X0550948Y0150445D01*
X0550953D01*
X0550959Y0150439D01*
X0550976Y0150428D01*
X0550999Y0150416D01*
X0551062Y0150388D01*
X0551142Y0150359D01*
X0551239Y0150325D01*
X0551353Y0150296D01*
X0551473Y0150274D01*
X0551604Y0150268D01*
X0551644D01*
X0551673Y0150274D01*
X0551713D01*
X0551753Y0150279D01*
X0551856Y0150296D01*
X0551964Y0150331D01*
X0552084Y0150371D01*
X0552210Y0150433D01*
X0552267Y0150468D01*
X0552324Y0150513D01*
X0552329Y0150519D01*
X0552335Y0150525D01*
X0552352Y0150542D01*
X0552369Y0150559D01*
X0552398Y0150588D01*
X0552421Y0150616D01*
X0552484Y0150696D01*
X0552552Y0150799D01*
X0552621Y0150925D01*
X0552683Y0151073D01*
X0552729Y0151244D01*
X0553237Y0151113D01*
Y0151107D01*
X0553232Y0151084D01*
X0553220Y0151056D01*
X0553209Y0151010D01*
X0553186Y0150959D01*
X0553163Y0150896D01*
X0553140Y0150833D01*
X0553106Y0150759D01*
X0553026Y0150605D01*
X0552929Y0150451D01*
X0552866Y0150371D01*
X0552803Y0150296D01*
X0552735Y0150222D01*
X0552661Y0150159D01*
X0552655Y0150154D01*
X0552643Y0150148D01*
X0552621Y0150131D01*
X0552586Y0150108D01*
X0552546Y0150085D01*
X0552495Y0150057D01*
X0552444Y0150028D01*
X0552375Y0149999D01*
X0552307Y0149965D01*
X0552227Y0149937D01*
X0552147Y0149908D01*
X0552055Y0149885D01*
X0551958Y0149862D01*
X0551861Y0149845D01*
X0551753Y0149840D01*
X0551644Y0149834D01*
X0551587D01*
X0551542Y0149840D01*
X0551490D01*
X0551427Y0149845D01*
X0551359Y0149857D01*
X0551285Y0149868D01*
X0551125Y0149897D01*
X0550953Y0149942D01*
X0550788Y0150005D01*
X0550708Y0150039D01*
X0550634Y0150085D01*
X0550628Y0150091D01*
X0550616Y0150096D01*
X0550599Y0150114D01*
X0550571Y0150131D01*
X0550536Y0150159D01*
X0550502Y0150188D01*
X0550417Y0150274D01*
X0550319Y0150376D01*
X0550217Y0150502D01*
X0550125Y0150645D01*
X0550040Y0150816D01*
Y0150822D01*
X0550034Y0150839D01*
X0550023Y0150862D01*
X0550011Y0150902D01*
X0549994Y0150942D01*
X0549977Y0150999D01*
X0549960Y0151056D01*
X0549943Y0151124D01*
X0549920Y0151198D01*
X0549903Y0151278D01*
X0549874Y0151455D01*
X0549851Y0151644D01*
X0549840Y0151849D01*
Y0151855D01*
Y0151878D01*
Y0151907D01*
X0549846Y0151952D01*
Y0152004D01*
X0549851Y0152061D01*
X0549857Y0152129D01*
X0549868Y0152204D01*
X0549897Y0152369D01*
X0549937Y0152546D01*
X0549994Y0152723D01*
X0550068Y0152894D01*
Y0152900D01*
X0550080Y0152911D01*
X0550091Y0152934D01*
X0550108Y0152969D01*
X0550137Y0153003D01*
X0550165Y0153049D01*
X0550234Y0153146D01*
X0550325Y0153254D01*
X0550439Y0153368D01*
X0550571Y0153477D01*
X0550719Y0153574D01*
X0550725D01*
X0550736Y0153585D01*
X0550759Y0153597D01*
X0550794Y0153608D01*
X0550833Y0153631D01*
X0550879Y0153648D01*
X0550936Y0153671D01*
X0550993Y0153694D01*
X0551062Y0153711D01*
X0551130Y0153734D01*
X0551290Y0153774D01*
X0551462Y0153797D01*
X0551650Y0153808D01*
X0551707D01*
X0551747Y0153802D01*
D02*
G37*
G36*
X0544290D02*
X0544341Y0153797D01*
X0544398Y0153791D01*
X0544461Y0153785D01*
X0544535Y0153774D01*
X0544684Y0153734D01*
X0544849Y0153682D01*
X0544929Y0153648D01*
X0545009Y0153608D01*
X0545089Y0153562D01*
X0545163Y0153511D01*
X0545169Y0153505D01*
X0545181Y0153500D01*
X0545203Y0153482D01*
X0545226Y0153460D01*
X0545260Y0153425D01*
X0545295Y0153391D01*
X0545335Y0153346D01*
X0545380Y0153300D01*
X0545426Y0153243D01*
X0545472Y0153180D01*
X0545517Y0153117D01*
X0545563Y0153043D01*
X0545609Y0152963D01*
X0545649Y0152877D01*
X0545683Y0152786D01*
X0545717Y0152689D01*
X0545215Y0152569D01*
Y0152575D01*
X0545209Y0152586D01*
X0545203Y0152609D01*
X0545192Y0152637D01*
X0545175Y0152672D01*
X0545158Y0152712D01*
X0545112Y0152803D01*
X0545061Y0152900D01*
X0544992Y0153003D01*
X0544912Y0153100D01*
X0544821Y0153180D01*
X0544809Y0153186D01*
X0544775Y0153208D01*
X0544724Y0153243D01*
X0544650Y0153277D01*
X0544558Y0153311D01*
X0544450Y0153346D01*
X0544324Y0153368D01*
X0544187Y0153374D01*
X0544141D01*
X0544113Y0153368D01*
X0544073D01*
X0544033Y0153363D01*
X0543930Y0153346D01*
X0543810Y0153323D01*
X0543684Y0153283D01*
X0543565Y0153231D01*
X0543445Y0153157D01*
X0543439D01*
X0543433Y0153146D01*
X0543399Y0153117D01*
X0543342Y0153071D01*
X0543279Y0153009D01*
X0543211Y0152923D01*
X0543142Y0152826D01*
X0543079Y0152712D01*
X0543028Y0152586D01*
Y0152580D01*
X0543022Y0152569D01*
X0543016Y0152552D01*
X0543011Y0152523D01*
X0542999Y0152495D01*
X0542988Y0152455D01*
X0542971Y0152363D01*
X0542948Y0152249D01*
X0542925Y0152124D01*
X0542914Y0151992D01*
X0542908Y0151849D01*
Y0151844D01*
Y0151827D01*
Y0151804D01*
Y0151769D01*
X0542914Y0151724D01*
Y0151672D01*
X0542919Y0151621D01*
X0542925Y0151558D01*
X0542942Y0151427D01*
X0542971Y0151278D01*
X0543005Y0151136D01*
X0543051Y0150993D01*
Y0150987D01*
X0543056Y0150976D01*
X0543068Y0150959D01*
X0543079Y0150936D01*
X0543114Y0150867D01*
X0543159Y0150787D01*
X0543222Y0150696D01*
X0543296Y0150610D01*
X0543388Y0150519D01*
X0543490Y0150445D01*
X0543496D01*
X0543502Y0150439D01*
X0543519Y0150428D01*
X0543542Y0150416D01*
X0543605Y0150388D01*
X0543684Y0150359D01*
X0543782Y0150325D01*
X0543896Y0150296D01*
X0544016Y0150274D01*
X0544147Y0150268D01*
X0544187D01*
X0544215Y0150274D01*
X0544255D01*
X0544296Y0150279D01*
X0544398Y0150296D01*
X0544507Y0150331D01*
X0544627Y0150371D01*
X0544752Y0150433D01*
X0544809Y0150468D01*
X0544867Y0150513D01*
X0544872Y0150519D01*
X0544878Y0150525D01*
X0544895Y0150542D01*
X0544912Y0150559D01*
X0544941Y0150588D01*
X0544964Y0150616D01*
X0545026Y0150696D01*
X0545095Y0150799D01*
X0545163Y0150925D01*
X0545226Y0151073D01*
X0545272Y0151244D01*
X0545780Y0151113D01*
Y0151107D01*
X0545774Y0151084D01*
X0545763Y0151056D01*
X0545751Y0151010D01*
X0545729Y0150959D01*
X0545706Y0150896D01*
X0545683Y0150833D01*
X0545649Y0150759D01*
X0545569Y0150605D01*
X0545472Y0150451D01*
X0545409Y0150371D01*
X0545346Y0150296D01*
X0545278Y0150222D01*
X0545203Y0150159D01*
X0545198Y0150154D01*
X0545186Y0150148D01*
X0545163Y0150131D01*
X0545129Y0150108D01*
X0545089Y0150085D01*
X0545038Y0150057D01*
X0544986Y0150028D01*
X0544918Y0149999D01*
X0544849Y0149965D01*
X0544769Y0149937D01*
X0544690Y0149908D01*
X0544598Y0149885D01*
X0544501Y0149862D01*
X0544404Y0149845D01*
X0544296Y0149840D01*
X0544187Y0149834D01*
X0544130D01*
X0544084Y0149840D01*
X0544033D01*
X0543970Y0149845D01*
X0543901Y0149857D01*
X0543827Y0149868D01*
X0543667Y0149897D01*
X0543496Y0149942D01*
X0543330Y0150005D01*
X0543251Y0150039D01*
X0543176Y0150085D01*
X0543171Y0150091D01*
X0543159Y0150096D01*
X0543142Y0150114D01*
X0543114Y0150131D01*
X0543079Y0150159D01*
X0543045Y0150188D01*
X0542959Y0150274D01*
X0542862Y0150376D01*
X0542760Y0150502D01*
X0542668Y0150645D01*
X0542583Y0150816D01*
Y0150822D01*
X0542577Y0150839D01*
X0542565Y0150862D01*
X0542554Y0150902D01*
X0542537Y0150942D01*
X0542520Y0150999D01*
X0542502Y0151056D01*
X0542485Y0151124D01*
X0542463Y0151198D01*
X0542445Y0151278D01*
X0542417Y0151455D01*
X0542394Y0151644D01*
X0542383Y0151849D01*
Y0151855D01*
Y0151878D01*
Y0151907D01*
X0542388Y0151952D01*
Y0152004D01*
X0542394Y0152061D01*
X0542400Y0152129D01*
X0542411Y0152204D01*
X0542440Y0152369D01*
X0542480Y0152546D01*
X0542537Y0152723D01*
X0542611Y0152894D01*
Y0152900D01*
X0542623Y0152911D01*
X0542634Y0152934D01*
X0542651Y0152969D01*
X0542680Y0153003D01*
X0542708Y0153049D01*
X0542777Y0153146D01*
X0542868Y0153254D01*
X0542982Y0153368D01*
X0543114Y0153477D01*
X0543262Y0153574D01*
X0543268D01*
X0543279Y0153585D01*
X0543302Y0153597D01*
X0543336Y0153608D01*
X0543376Y0153631D01*
X0543422Y0153648D01*
X0543479Y0153671D01*
X0543536Y0153694D01*
X0543605Y0153711D01*
X0543673Y0153734D01*
X0543833Y0153774D01*
X0544004Y0153797D01*
X0544193Y0153808D01*
X0544250D01*
X0544290Y0153802D01*
D02*
G37*
G36*
X0549572Y0149897D02*
X0548995D01*
X0548549Y0151061D01*
X0546939D01*
X0546522Y0149897D01*
X0545986D01*
X0547447Y0153740D01*
X0548007D01*
X0549572Y0149897D01*
D02*
G37*
G36*
X0540230Y0153734D02*
X0540339Y0153728D01*
X0540453Y0153717D01*
X0540561Y0153700D01*
X0540658Y0153682D01*
X0540664D01*
X0540675Y0153677D01*
X0540693D01*
X0540715Y0153665D01*
X0540778Y0153648D01*
X0540852Y0153620D01*
X0540944Y0153585D01*
X0541035Y0153534D01*
X0541132Y0153477D01*
X0541223Y0153408D01*
X0541229D01*
X0541235Y0153397D01*
X0541252Y0153380D01*
X0541275Y0153363D01*
X0541326Y0153305D01*
X0541395Y0153231D01*
X0541469Y0153134D01*
X0541543Y0153026D01*
X0541612Y0152894D01*
X0541675Y0152752D01*
Y0152746D01*
X0541680Y0152734D01*
X0541692Y0152712D01*
X0541697Y0152683D01*
X0541709Y0152643D01*
X0541726Y0152597D01*
X0541737Y0152546D01*
X0541754Y0152489D01*
X0541766Y0152420D01*
X0541777Y0152352D01*
X0541806Y0152198D01*
X0541823Y0152026D01*
X0541829Y0151838D01*
Y0151832D01*
Y0151821D01*
Y0151798D01*
Y0151764D01*
X0541823Y0151724D01*
Y0151684D01*
X0541817Y0151575D01*
X0541806Y0151455D01*
X0541783Y0151324D01*
X0541760Y0151193D01*
X0541726Y0151061D01*
Y0151056D01*
X0541720Y0151044D01*
X0541715Y0151027D01*
X0541709Y0151004D01*
X0541686Y0150942D01*
X0541657Y0150867D01*
X0541617Y0150776D01*
X0541572Y0150685D01*
X0541520Y0150588D01*
X0541463Y0150502D01*
X0541458Y0150490D01*
X0541435Y0150468D01*
X0541400Y0150422D01*
X0541361Y0150376D01*
X0541309Y0150319D01*
X0541246Y0150256D01*
X0541178Y0150199D01*
X0541109Y0150148D01*
X0541104Y0150142D01*
X0541075Y0150125D01*
X0541035Y0150102D01*
X0540984Y0150079D01*
X0540915Y0150045D01*
X0540835Y0150017D01*
X0540750Y0149988D01*
X0540653Y0149960D01*
X0540641D01*
X0540624Y0149954D01*
X0540607Y0149948D01*
X0540550Y0149942D01*
X0540476Y0149931D01*
X0540384Y0149919D01*
X0540281Y0149908D01*
X0540161Y0149902D01*
X0540036Y0149897D01*
X0538654D01*
Y0153740D01*
X0540127D01*
X0540230Y0153734D01*
D02*
G37*
G36*
X0530708Y0204549D02*
Y0204543D01*
Y0204526D01*
Y0204492D01*
Y0204452D01*
X0530702Y0204406D01*
Y0204349D01*
X0530696Y0204286D01*
X0530690Y0204218D01*
X0530673Y0204069D01*
X0530650Y0203921D01*
X0530622Y0203766D01*
X0530576Y0203629D01*
Y0203624D01*
X0530570Y0203612D01*
X0530565Y0203595D01*
X0530553Y0203572D01*
X0530519Y0203509D01*
X0530468Y0203430D01*
X0530405Y0203344D01*
X0530319Y0203253D01*
X0530222Y0203161D01*
X0530102Y0203076D01*
X0530096D01*
X0530085Y0203064D01*
X0530068Y0203058D01*
X0530039Y0203041D01*
X0530005Y0203024D01*
X0529965Y0203007D01*
X0529919Y0202990D01*
X0529862Y0202973D01*
X0529800Y0202950D01*
X0529731Y0202933D01*
X0529657Y0202916D01*
X0529577Y0202899D01*
X0529497Y0202881D01*
X0529406Y0202876D01*
X0529206Y0202864D01*
X0529154D01*
X0529114Y0202870D01*
X0529069D01*
X0529017Y0202876D01*
X0528955Y0202881D01*
X0528892Y0202887D01*
X0528749Y0202910D01*
X0528606Y0202944D01*
X0528458Y0202984D01*
X0528321Y0203047D01*
X0528315D01*
X0528303Y0203058D01*
X0528286Y0203064D01*
X0528264Y0203081D01*
X0528206Y0203127D01*
X0528132Y0203184D01*
X0528052Y0203258D01*
X0527967Y0203355D01*
X0527892Y0203458D01*
X0527830Y0203584D01*
Y0203590D01*
X0527824Y0203601D01*
X0527818Y0203618D01*
X0527807Y0203647D01*
X0527795Y0203686D01*
X0527784Y0203727D01*
X0527773Y0203778D01*
X0527761Y0203835D01*
X0527744Y0203904D01*
X0527733Y0203978D01*
X0527721Y0204052D01*
X0527710Y0204138D01*
X0527698Y0204235D01*
X0527693Y0204332D01*
X0527687Y0204440D01*
Y0204549D01*
Y0206770D01*
X0528195D01*
Y0204549D01*
Y0204543D01*
Y0204526D01*
Y0204503D01*
Y0204469D01*
X0528201Y0204429D01*
Y0204377D01*
X0528206Y0204269D01*
X0528218Y0204149D01*
X0528235Y0204029D01*
X0528258Y0203915D01*
X0528269Y0203858D01*
X0528286Y0203812D01*
X0528292Y0203801D01*
X0528303Y0203772D01*
X0528326Y0203732D01*
X0528361Y0203675D01*
X0528401Y0203618D01*
X0528458Y0203555D01*
X0528520Y0203498D01*
X0528601Y0203447D01*
X0528612Y0203441D01*
X0528640Y0203430D01*
X0528692Y0203407D01*
X0528755Y0203384D01*
X0528840Y0203361D01*
X0528932Y0203338D01*
X0529040Y0203327D01*
X0529160Y0203321D01*
X0529211D01*
X0529251Y0203327D01*
X0529297D01*
X0529349Y0203332D01*
X0529468Y0203355D01*
X0529600Y0203384D01*
X0529731Y0203430D01*
X0529857Y0203492D01*
X0529914Y0203527D01*
X0529959Y0203572D01*
X0529965Y0203578D01*
X0529971Y0203584D01*
X0529982Y0203601D01*
X0529999Y0203624D01*
X0530017Y0203652D01*
X0530034Y0203692D01*
X0530056Y0203738D01*
X0530079Y0203789D01*
X0530102Y0203852D01*
X0530125Y0203926D01*
X0530142Y0204006D01*
X0530159Y0204092D01*
X0530176Y0204189D01*
X0530188Y0204303D01*
X0530199Y0204417D01*
Y0204549D01*
Y0206770D01*
X0530708D01*
Y0204549D01*
D02*
G37*
G36*
X0533140Y0202927D02*
X0532666D01*
Y0205925D01*
X0532660Y0205919D01*
X0532637Y0205896D01*
X0532597Y0205868D01*
X0532546Y0205822D01*
X0532483Y0205776D01*
X0532403Y0205719D01*
X0532312Y0205662D01*
X0532215Y0205599D01*
X0532209D01*
X0532203Y0205594D01*
X0532169Y0205571D01*
X0532118Y0205542D01*
X0532049Y0205508D01*
X0531975Y0205468D01*
X0531895Y0205434D01*
X0531810Y0205394D01*
X0531724Y0205360D01*
Y0205816D01*
X0531730D01*
X0531741Y0205822D01*
X0531764Y0205834D01*
X0531792Y0205851D01*
X0531827Y0205868D01*
X0531867Y0205891D01*
X0531958Y0205942D01*
X0532066Y0206005D01*
X0532181Y0206079D01*
X0532295Y0206165D01*
X0532409Y0206262D01*
X0532415Y0206267D01*
X0532420Y0206273D01*
X0532460Y0206307D01*
X0532512Y0206359D01*
X0532575Y0206427D01*
X0532643Y0206507D01*
X0532712Y0206593D01*
X0532780Y0206684D01*
X0532832Y0206781D01*
X0533140D01*
Y0202927D01*
D02*
G37*
G36*
X0560465Y0150603D02*
X0560516Y0150598D01*
X0560573Y0150592D01*
X0560636Y0150586D01*
X0560710Y0150575D01*
X0560859Y0150535D01*
X0561025Y0150484D01*
X0561104Y0150449D01*
X0561184Y0150409D01*
X0561264Y0150364D01*
X0561339Y0150312D01*
X0561344Y0150306D01*
X0561356Y0150301D01*
X0561379Y0150284D01*
X0561401Y0150261D01*
X0561436Y0150227D01*
X0561470Y0150192D01*
X0561510Y0150147D01*
X0561556Y0150101D01*
X0561601Y0150044D01*
X0561647Y0149981D01*
X0561693Y0149918D01*
X0561738Y0149844D01*
X0561784Y0149764D01*
X0561824Y0149678D01*
X0561858Y0149587D01*
X0561893Y0149490D01*
X0561390Y0149370D01*
Y0149376D01*
X0561384Y0149387D01*
X0561379Y0149410D01*
X0561367Y0149439D01*
X0561350Y0149473D01*
X0561333Y0149513D01*
X0561287Y0149604D01*
X0561236Y0149701D01*
X0561167Y0149804D01*
X0561087Y0149901D01*
X0560996Y0149981D01*
X0560985Y0149987D01*
X0560950Y0150010D01*
X0560899Y0150044D01*
X0560825Y0150078D01*
X0560733Y0150112D01*
X0560625Y0150147D01*
X0560499Y0150170D01*
X0560362Y0150175D01*
X0560317D01*
X0560288Y0150170D01*
X0560248D01*
X0560208Y0150164D01*
X0560105Y0150147D01*
X0559985Y0150124D01*
X0559860Y0150084D01*
X0559740Y0150032D01*
X0559620Y0149958D01*
X0559614D01*
X0559609Y0149947D01*
X0559574Y0149918D01*
X0559517Y0149873D01*
X0559454Y0149810D01*
X0559386Y0149724D01*
X0559317Y0149627D01*
X0559254Y0149513D01*
X0559203Y0149387D01*
Y0149381D01*
X0559197Y0149370D01*
X0559192Y0149353D01*
X0559186Y0149324D01*
X0559174Y0149296D01*
X0559163Y0149256D01*
X0559146Y0149164D01*
X0559123Y0149050D01*
X0559100Y0148925D01*
X0559089Y0148793D01*
X0559083Y0148651D01*
Y0148645D01*
Y0148628D01*
Y0148605D01*
Y0148571D01*
X0559089Y0148525D01*
Y0148474D01*
X0559095Y0148422D01*
X0559100Y0148359D01*
X0559117Y0148228D01*
X0559146Y0148080D01*
X0559180Y0147937D01*
X0559226Y0147794D01*
Y0147788D01*
X0559232Y0147777D01*
X0559243Y0147760D01*
X0559254Y0147737D01*
X0559289Y0147669D01*
X0559334Y0147589D01*
X0559397Y0147497D01*
X0559471Y0147412D01*
X0559563Y0147320D01*
X0559666Y0147246D01*
X0559671D01*
X0559677Y0147240D01*
X0559694Y0147229D01*
X0559717Y0147217D01*
X0559780Y0147189D01*
X0559860Y0147160D01*
X0559957Y0147126D01*
X0560071Y0147098D01*
X0560191Y0147075D01*
X0560322Y0147069D01*
X0560362D01*
X0560391Y0147075D01*
X0560431D01*
X0560471Y0147080D01*
X0560573Y0147098D01*
X0560682Y0147132D01*
X0560802Y0147172D01*
X0560927Y0147234D01*
X0560985Y0147269D01*
X0561042Y0147315D01*
X0561047Y0147320D01*
X0561053Y0147326D01*
X0561070Y0147343D01*
X0561087Y0147360D01*
X0561116Y0147389D01*
X0561139Y0147417D01*
X0561202Y0147497D01*
X0561270Y0147600D01*
X0561339Y0147726D01*
X0561401Y0147874D01*
X0561447Y0148045D01*
X0561955Y0147914D01*
Y0147908D01*
X0561950Y0147886D01*
X0561938Y0147857D01*
X0561927Y0147811D01*
X0561904Y0147760D01*
X0561881Y0147697D01*
X0561858Y0147634D01*
X0561824Y0147560D01*
X0561744Y0147406D01*
X0561647Y0147252D01*
X0561584Y0147172D01*
X0561521Y0147098D01*
X0561453Y0147023D01*
X0561379Y0146960D01*
X0561373Y0146955D01*
X0561361Y0146949D01*
X0561339Y0146932D01*
X0561304Y0146909D01*
X0561264Y0146886D01*
X0561213Y0146858D01*
X0561162Y0146829D01*
X0561093Y0146801D01*
X0561025Y0146766D01*
X0560945Y0146738D01*
X0560865Y0146709D01*
X0560773Y0146686D01*
X0560676Y0146663D01*
X0560579Y0146646D01*
X0560471Y0146641D01*
X0560362Y0146635D01*
X0560305D01*
X0560259Y0146641D01*
X0560208D01*
X0560145Y0146646D01*
X0560077Y0146658D01*
X0560003Y0146669D01*
X0559843Y0146698D01*
X0559671Y0146744D01*
X0559506Y0146806D01*
X0559426Y0146841D01*
X0559351Y0146886D01*
X0559346Y0146892D01*
X0559334Y0146898D01*
X0559317Y0146915D01*
X0559289Y0146932D01*
X0559254Y0146960D01*
X0559220Y0146989D01*
X0559134Y0147075D01*
X0559037Y0147177D01*
X0558935Y0147303D01*
X0558843Y0147446D01*
X0558758Y0147617D01*
Y0147623D01*
X0558752Y0147640D01*
X0558741Y0147663D01*
X0558729Y0147703D01*
X0558712Y0147743D01*
X0558695Y0147800D01*
X0558678Y0147857D01*
X0558661Y0147925D01*
X0558638Y0148000D01*
X0558621Y0148080D01*
X0558592Y0148257D01*
X0558569Y0148445D01*
X0558558Y0148651D01*
Y0148656D01*
Y0148679D01*
Y0148708D01*
X0558564Y0148753D01*
Y0148805D01*
X0558569Y0148862D01*
X0558575Y0148930D01*
X0558586Y0149005D01*
X0558615Y0149170D01*
X0558655Y0149347D01*
X0558712Y0149524D01*
X0558786Y0149696D01*
Y0149701D01*
X0558798Y0149713D01*
X0558809Y0149735D01*
X0558826Y0149770D01*
X0558855Y0149804D01*
X0558883Y0149850D01*
X0558952Y0149947D01*
X0559043Y0150055D01*
X0559157Y0150170D01*
X0559289Y0150278D01*
X0559437Y0150375D01*
X0559443D01*
X0559454Y0150386D01*
X0559477Y0150398D01*
X0559511Y0150409D01*
X0559551Y0150432D01*
X0559597Y0150449D01*
X0559654Y0150472D01*
X0559711Y0150495D01*
X0559780Y0150512D01*
X0559848Y0150535D01*
X0560008Y0150575D01*
X0560180Y0150598D01*
X0560368Y0150609D01*
X0560425D01*
X0560465Y0150603D01*
D02*
G37*
G36*
X0563754Y0150546D02*
X0563800Y0150541D01*
X0563857Y0150535D01*
X0563914Y0150529D01*
X0563982Y0150512D01*
X0564119Y0150478D01*
X0564268Y0150421D01*
X0564336Y0150386D01*
X0564405Y0150347D01*
X0564473Y0150301D01*
X0564536Y0150244D01*
X0564542Y0150238D01*
X0564548Y0150232D01*
X0564565Y0150215D01*
X0564588Y0150187D01*
X0564610Y0150158D01*
X0564639Y0150124D01*
X0564668Y0150078D01*
X0564702Y0150032D01*
X0564759Y0149924D01*
X0564810Y0149793D01*
X0564833Y0149724D01*
X0564850Y0149644D01*
X0564856Y0149570D01*
X0564862Y0149484D01*
Y0149473D01*
Y0149444D01*
X0564856Y0149399D01*
X0564850Y0149341D01*
X0564839Y0149267D01*
X0564822Y0149193D01*
X0564799Y0149113D01*
X0564765Y0149028D01*
X0564759Y0149016D01*
X0564747Y0148987D01*
X0564725Y0148948D01*
X0564690Y0148890D01*
X0564645Y0148816D01*
X0564593Y0148736D01*
X0564525Y0148651D01*
X0564451Y0148559D01*
X0564439Y0148548D01*
X0564411Y0148514D01*
X0564388Y0148491D01*
X0564354Y0148457D01*
X0564319Y0148422D01*
X0564279Y0148382D01*
X0564234Y0148337D01*
X0564177Y0148285D01*
X0564119Y0148234D01*
X0564051Y0148171D01*
X0563982Y0148108D01*
X0563902Y0148040D01*
X0563817Y0147965D01*
X0563725Y0147886D01*
X0563720Y0147880D01*
X0563708Y0147868D01*
X0563685Y0147851D01*
X0563657Y0147828D01*
X0563588Y0147766D01*
X0563497Y0147691D01*
X0563406Y0147611D01*
X0563320Y0147531D01*
X0563240Y0147457D01*
X0563211Y0147429D01*
X0563183Y0147400D01*
X0563177Y0147394D01*
X0563166Y0147377D01*
X0563143Y0147354D01*
X0563114Y0147320D01*
X0563080Y0147286D01*
X0563046Y0147240D01*
X0562983Y0147149D01*
X0564867D01*
Y0146698D01*
X0562326D01*
Y0146704D01*
Y0146726D01*
Y0146761D01*
X0562332Y0146801D01*
X0562338Y0146852D01*
X0562344Y0146903D01*
X0562361Y0146966D01*
X0562378Y0147023D01*
Y0147029D01*
X0562384Y0147035D01*
X0562395Y0147069D01*
X0562418Y0147120D01*
X0562452Y0147183D01*
X0562498Y0147263D01*
X0562549Y0147349D01*
X0562612Y0147440D01*
X0562686Y0147531D01*
Y0147537D01*
X0562698Y0147543D01*
X0562726Y0147577D01*
X0562778Y0147628D01*
X0562846Y0147697D01*
X0562932Y0147783D01*
X0563040Y0147886D01*
X0563166Y0147994D01*
X0563309Y0148114D01*
X0563314Y0148120D01*
X0563337Y0148137D01*
X0563366Y0148165D01*
X0563411Y0148199D01*
X0563463Y0148240D01*
X0563520Y0148291D01*
X0563645Y0148411D01*
X0563788Y0148536D01*
X0563925Y0148673D01*
X0563994Y0148742D01*
X0564051Y0148805D01*
X0564108Y0148868D01*
X0564154Y0148925D01*
Y0148930D01*
X0564165Y0148936D01*
X0564177Y0148953D01*
X0564188Y0148976D01*
X0564222Y0149033D01*
X0564268Y0149107D01*
X0564308Y0149199D01*
X0564342Y0149296D01*
X0564365Y0149393D01*
X0564376Y0149496D01*
Y0149501D01*
Y0149507D01*
X0564371Y0149541D01*
X0564365Y0149593D01*
X0564354Y0149661D01*
X0564325Y0149735D01*
X0564291Y0149815D01*
X0564239Y0149895D01*
X0564171Y0149970D01*
X0564159Y0149975D01*
X0564137Y0149998D01*
X0564091Y0150032D01*
X0564034Y0150067D01*
X0563954Y0150101D01*
X0563868Y0150135D01*
X0563765Y0150158D01*
X0563651Y0150164D01*
X0563617D01*
X0563594Y0150158D01*
X0563531Y0150152D01*
X0563457Y0150135D01*
X0563366Y0150112D01*
X0563274Y0150072D01*
X0563183Y0150021D01*
X0563103Y0149952D01*
X0563097Y0149941D01*
X0563074Y0149913D01*
X0563040Y0149867D01*
X0563006Y0149804D01*
X0562966Y0149724D01*
X0562937Y0149627D01*
X0562915Y0149513D01*
X0562903Y0149387D01*
X0562418Y0149439D01*
Y0149444D01*
Y0149461D01*
X0562424Y0149490D01*
X0562429Y0149530D01*
X0562441Y0149576D01*
X0562452Y0149627D01*
X0562481Y0149747D01*
X0562526Y0149878D01*
X0562595Y0150015D01*
X0562635Y0150084D01*
X0562680Y0150147D01*
X0562732Y0150209D01*
X0562789Y0150267D01*
X0562795Y0150272D01*
X0562806Y0150278D01*
X0562823Y0150295D01*
X0562846Y0150312D01*
X0562880Y0150335D01*
X0562920Y0150358D01*
X0562966Y0150381D01*
X0563023Y0150409D01*
X0563080Y0150438D01*
X0563143Y0150461D01*
X0563217Y0150484D01*
X0563297Y0150506D01*
X0563377Y0150523D01*
X0563468Y0150541D01*
X0563560Y0150546D01*
X0563663Y0150552D01*
X0563714D01*
X0563754Y0150546D01*
D02*
G37*
G36*
X0564458Y0211922D02*
X0564509Y0211917D01*
X0564566Y0211911D01*
X0564629Y0211905D01*
X0564703Y0211894D01*
X0564852Y0211854D01*
X0565017Y0211802D01*
X0565097Y0211768D01*
X0565177Y0211728D01*
X0565257Y0211683D01*
X0565332Y0211631D01*
X0565337Y0211625D01*
X0565349Y0211620D01*
X0565372Y0211603D01*
X0565394Y0211580D01*
X0565429Y0211545D01*
X0565463Y0211511D01*
X0565503Y0211466D01*
X0565549Y0211420D01*
X0565594Y0211363D01*
X0565640Y0211300D01*
X0565686Y0211237D01*
X0565731Y0211163D01*
X0565777Y0211083D01*
X0565817Y0210997D01*
X0565851Y0210906D01*
X0565885Y0210809D01*
X0565383Y0210689D01*
Y0210695D01*
X0565377Y0210706D01*
X0565372Y0210729D01*
X0565360Y0210757D01*
X0565343Y0210792D01*
X0565326Y0210832D01*
X0565280Y0210923D01*
X0565229Y0211020D01*
X0565160Y0211123D01*
X0565080Y0211220D01*
X0564989Y0211300D01*
X0564978Y0211306D01*
X0564943Y0211329D01*
X0564892Y0211363D01*
X0564818Y0211397D01*
X0564726Y0211431D01*
X0564618Y0211466D01*
X0564492Y0211488D01*
X0564355Y0211494D01*
X0564309D01*
X0564281Y0211488D01*
X0564241D01*
X0564201Y0211483D01*
X0564098Y0211466D01*
X0563978Y0211443D01*
X0563853Y0211403D01*
X0563733Y0211351D01*
X0563613Y0211277D01*
X0563607D01*
X0563601Y0211266D01*
X0563567Y0211237D01*
X0563510Y0211191D01*
X0563447Y0211129D01*
X0563379Y0211043D01*
X0563310Y0210946D01*
X0563247Y0210832D01*
X0563196Y0210706D01*
Y0210700D01*
X0563190Y0210689D01*
X0563184Y0210672D01*
X0563179Y0210643D01*
X0563167Y0210615D01*
X0563156Y0210575D01*
X0563139Y0210483D01*
X0563116Y0210369D01*
X0563093Y0210244D01*
X0563082Y0210112D01*
X0563076Y0209969D01*
Y0209964D01*
Y0209947D01*
Y0209924D01*
Y0209890D01*
X0563082Y0209844D01*
Y0209792D01*
X0563088Y0209741D01*
X0563093Y0209678D01*
X0563110Y0209547D01*
X0563139Y0209399D01*
X0563173Y0209256D01*
X0563219Y0209113D01*
Y0209107D01*
X0563225Y0209096D01*
X0563236Y0209079D01*
X0563247Y0209056D01*
X0563282Y0208987D01*
X0563327Y0208907D01*
X0563390Y0208816D01*
X0563464Y0208730D01*
X0563556Y0208639D01*
X0563659Y0208565D01*
X0563664D01*
X0563670Y0208559D01*
X0563687Y0208548D01*
X0563710Y0208536D01*
X0563773Y0208508D01*
X0563853Y0208479D01*
X0563950Y0208445D01*
X0564064Y0208416D01*
X0564184Y0208394D01*
X0564315Y0208388D01*
X0564355D01*
X0564384Y0208394D01*
X0564424D01*
X0564464Y0208399D01*
X0564566Y0208416D01*
X0564675Y0208451D01*
X0564795Y0208491D01*
X0564920Y0208553D01*
X0564978Y0208588D01*
X0565035Y0208633D01*
X0565040Y0208639D01*
X0565046Y0208645D01*
X0565063Y0208662D01*
X0565080Y0208679D01*
X0565109Y0208708D01*
X0565132Y0208736D01*
X0565194Y0208816D01*
X0565263Y0208919D01*
X0565332Y0209045D01*
X0565394Y0209193D01*
X0565440Y0209364D01*
X0565948Y0209233D01*
Y0209227D01*
X0565942Y0209204D01*
X0565931Y0209176D01*
X0565920Y0209130D01*
X0565897Y0209079D01*
X0565874Y0209016D01*
X0565851Y0208953D01*
X0565817Y0208879D01*
X0565737Y0208725D01*
X0565640Y0208571D01*
X0565577Y0208491D01*
X0565514Y0208416D01*
X0565446Y0208342D01*
X0565372Y0208279D01*
X0565366Y0208274D01*
X0565354Y0208268D01*
X0565332Y0208251D01*
X0565297Y0208228D01*
X0565257Y0208205D01*
X0565206Y0208176D01*
X0565155Y0208148D01*
X0565086Y0208120D01*
X0565017Y0208085D01*
X0564937Y0208057D01*
X0564858Y0208028D01*
X0564766Y0208005D01*
X0564669Y0207982D01*
X0564572Y0207965D01*
X0564464Y0207960D01*
X0564355Y0207954D01*
X0564298D01*
X0564252Y0207960D01*
X0564201D01*
X0564138Y0207965D01*
X0564070Y0207977D01*
X0563995Y0207988D01*
X0563835Y0208017D01*
X0563664Y0208062D01*
X0563499Y0208125D01*
X0563419Y0208159D01*
X0563344Y0208205D01*
X0563339Y0208211D01*
X0563327Y0208217D01*
X0563310Y0208234D01*
X0563282Y0208251D01*
X0563247Y0208279D01*
X0563213Y0208308D01*
X0563127Y0208394D01*
X0563030Y0208496D01*
X0562928Y0208622D01*
X0562836Y0208765D01*
X0562751Y0208936D01*
Y0208942D01*
X0562745Y0208959D01*
X0562733Y0208982D01*
X0562722Y0209022D01*
X0562705Y0209062D01*
X0562688Y0209119D01*
X0562671Y0209176D01*
X0562653Y0209244D01*
X0562631Y0209319D01*
X0562613Y0209399D01*
X0562585Y0209576D01*
X0562562Y0209764D01*
X0562551Y0209969D01*
Y0209975D01*
Y0209998D01*
Y0210027D01*
X0562556Y0210072D01*
Y0210124D01*
X0562562Y0210181D01*
X0562568Y0210249D01*
X0562579Y0210324D01*
X0562608Y0210489D01*
X0562648Y0210666D01*
X0562705Y0210843D01*
X0562779Y0211014D01*
Y0211020D01*
X0562790Y0211032D01*
X0562802Y0211054D01*
X0562819Y0211089D01*
X0562848Y0211123D01*
X0562876Y0211169D01*
X0562945Y0211266D01*
X0563036Y0211374D01*
X0563150Y0211488D01*
X0563282Y0211597D01*
X0563430Y0211694D01*
X0563436D01*
X0563447Y0211705D01*
X0563470Y0211717D01*
X0563504Y0211728D01*
X0563544Y0211751D01*
X0563590Y0211768D01*
X0563647Y0211791D01*
X0563704Y0211814D01*
X0563773Y0211831D01*
X0563841Y0211854D01*
X0564001Y0211894D01*
X0564172Y0211917D01*
X0564361Y0211928D01*
X0564418D01*
X0564458Y0211922D01*
D02*
G37*
G36*
X0568158Y0208017D02*
X0567684D01*
Y0211014D01*
X0567678Y0211009D01*
X0567656Y0210986D01*
X0567616Y0210957D01*
X0567564Y0210912D01*
X0567501Y0210866D01*
X0567421Y0210809D01*
X0567330Y0210752D01*
X0567233Y0210689D01*
X0567227D01*
X0567221Y0210683D01*
X0567187Y0210660D01*
X0567136Y0210632D01*
X0567067Y0210598D01*
X0566993Y0210558D01*
X0566913Y0210523D01*
X0566827Y0210483D01*
X0566742Y0210449D01*
Y0210906D01*
X0566748D01*
X0566759Y0210912D01*
X0566782Y0210923D01*
X0566810Y0210940D01*
X0566845Y0210957D01*
X0566885Y0210980D01*
X0566976Y0211032D01*
X0567085Y0211094D01*
X0567199Y0211169D01*
X0567313Y0211254D01*
X0567427Y0211351D01*
X0567433Y0211357D01*
X0567439Y0211363D01*
X0567478Y0211397D01*
X0567530Y0211448D01*
X0567593Y0211517D01*
X0567661Y0211597D01*
X0567730Y0211683D01*
X0567798Y0211774D01*
X0567850Y0211871D01*
X0568158D01*
Y0208017D01*
D02*
G37*
%LPC*%
G36*
X0548676Y0209735D02*
X0547791D01*
Y0206795D01*
X0548670D01*
X0548739Y0206800D01*
X0548824Y0206806D01*
X0548916Y0206812D01*
X0549018Y0206823D01*
X0549116Y0206840D01*
X0549201Y0206863D01*
X0549213Y0206869D01*
X0549235Y0206874D01*
X0549275Y0206892D01*
X0549327Y0206914D01*
X0549384Y0206943D01*
X0549441Y0206977D01*
X0549498Y0207017D01*
X0549549Y0207063D01*
X0549555Y0207074D01*
X0549578Y0207097D01*
X0549612Y0207137D01*
X0549652Y0207194D01*
X0549698Y0207263D01*
X0549744Y0207343D01*
X0549789Y0207440D01*
X0549829Y0207548D01*
Y0207554D01*
X0549835Y0207565D01*
X0549841Y0207582D01*
X0549846Y0207605D01*
X0549852Y0207634D01*
X0549863Y0207668D01*
X0549881Y0207759D01*
X0549898Y0207868D01*
X0549915Y0207994D01*
X0549926Y0208136D01*
X0549932Y0208291D01*
Y0208296D01*
Y0208319D01*
Y0208348D01*
X0549926Y0208388D01*
Y0208439D01*
X0549921Y0208502D01*
X0549915Y0208565D01*
X0549909Y0208633D01*
X0549881Y0208782D01*
X0549846Y0208936D01*
X0549801Y0209084D01*
X0549766Y0209153D01*
X0549732Y0209216D01*
Y0209221D01*
X0549721Y0209233D01*
X0549709Y0209244D01*
X0549698Y0209267D01*
X0549652Y0209324D01*
X0549595Y0209393D01*
X0549527Y0209467D01*
X0549447Y0209541D01*
X0549355Y0209604D01*
X0549253Y0209655D01*
X0549241Y0209661D01*
X0549213Y0209667D01*
X0549161Y0209678D01*
X0549093Y0209695D01*
X0549001Y0209712D01*
X0548887Y0209724D01*
X0548756Y0209730D01*
X0548676Y0209735D01*
D02*
G37*
G36*
X0540922D02*
X0540037D01*
Y0206795D01*
X0540916D01*
X0540984Y0206800D01*
X0541070Y0206806D01*
X0541161Y0206812D01*
X0541264Y0206823D01*
X0541361Y0206840D01*
X0541447Y0206863D01*
X0541458Y0206869D01*
X0541481Y0206874D01*
X0541521Y0206892D01*
X0541573Y0206914D01*
X0541630Y0206943D01*
X0541687Y0206977D01*
X0541744Y0207017D01*
X0541795Y0207063D01*
X0541801Y0207074D01*
X0541824Y0207097D01*
X0541858Y0207137D01*
X0541898Y0207194D01*
X0541944Y0207263D01*
X0541989Y0207343D01*
X0542035Y0207440D01*
X0542075Y0207548D01*
Y0207554D01*
X0542081Y0207565D01*
X0542087Y0207582D01*
X0542092Y0207605D01*
X0542098Y0207634D01*
X0542109Y0207668D01*
X0542126Y0207759D01*
X0542144Y0207868D01*
X0542161Y0207994D01*
X0542172Y0208136D01*
X0542178Y0208291D01*
Y0208296D01*
Y0208319D01*
Y0208348D01*
X0542172Y0208388D01*
Y0208439D01*
X0542166Y0208502D01*
X0542161Y0208565D01*
X0542155Y0208633D01*
X0542126Y0208782D01*
X0542092Y0208936D01*
X0542046Y0209084D01*
X0542012Y0209153D01*
X0541978Y0209216D01*
Y0209221D01*
X0541967Y0209233D01*
X0541955Y0209244D01*
X0541944Y0209267D01*
X0541898Y0209324D01*
X0541841Y0209393D01*
X0541772Y0209467D01*
X0541692Y0209541D01*
X0541601Y0209604D01*
X0541498Y0209655D01*
X0541487Y0209661D01*
X0541458Y0209667D01*
X0541407Y0209678D01*
X0541338Y0209695D01*
X0541247Y0209712D01*
X0541133Y0209724D01*
X0541002Y0209730D01*
X0540922Y0209735D01*
D02*
G37*
G36*
X0547716Y0153340D02*
Y0153334D01*
X0547710Y0153323D01*
Y0153305D01*
X0547704Y0153277D01*
X0547693Y0153243D01*
X0547687Y0153203D01*
X0547664Y0153106D01*
X0547630Y0152997D01*
X0547596Y0152872D01*
X0547556Y0152740D01*
X0547505Y0152603D01*
X0547088Y0151478D01*
X0548389D01*
X0547990Y0152535D01*
Y0152540D01*
X0547984Y0152558D01*
X0547973Y0152580D01*
X0547961Y0152615D01*
X0547944Y0152655D01*
X0547927Y0152706D01*
X0547887Y0152820D01*
X0547841Y0152946D01*
X0547796Y0153077D01*
X0547756Y0153214D01*
X0547716Y0153340D01*
D02*
G37*
G36*
X0540047Y0153288D02*
X0539162D01*
Y0150348D01*
X0540041D01*
X0540110Y0150353D01*
X0540196Y0150359D01*
X0540287Y0150365D01*
X0540390Y0150376D01*
X0540487Y0150393D01*
X0540573Y0150416D01*
X0540584Y0150422D01*
X0540607Y0150428D01*
X0540647Y0150445D01*
X0540698Y0150468D01*
X0540755Y0150496D01*
X0540812Y0150531D01*
X0540870Y0150570D01*
X0540921Y0150616D01*
X0540927Y0150628D01*
X0540949Y0150650D01*
X0540984Y0150690D01*
X0541024Y0150747D01*
X0541069Y0150816D01*
X0541115Y0150896D01*
X0541161Y0150993D01*
X0541201Y0151102D01*
Y0151107D01*
X0541206Y0151119D01*
X0541212Y0151136D01*
X0541218Y0151159D01*
X0541223Y0151187D01*
X0541235Y0151221D01*
X0541252Y0151313D01*
X0541269Y0151421D01*
X0541286Y0151547D01*
X0541298Y0151690D01*
X0541303Y0151844D01*
Y0151849D01*
Y0151872D01*
Y0151901D01*
X0541298Y0151941D01*
Y0151992D01*
X0541292Y0152055D01*
X0541286Y0152118D01*
X0541281Y0152186D01*
X0541252Y0152335D01*
X0541218Y0152489D01*
X0541172Y0152637D01*
X0541138Y0152706D01*
X0541104Y0152769D01*
Y0152775D01*
X0541092Y0152786D01*
X0541081Y0152797D01*
X0541069Y0152820D01*
X0541024Y0152877D01*
X0540967Y0152946D01*
X0540898Y0153020D01*
X0540818Y0153094D01*
X0540727Y0153157D01*
X0540624Y0153208D01*
X0540613Y0153214D01*
X0540584Y0153220D01*
X0540533Y0153231D01*
X0540464Y0153248D01*
X0540373Y0153266D01*
X0540259Y0153277D01*
X0540127Y0153283D01*
X0540047Y0153288D01*
D02*
G37*
%LPD*%
D10*
X0563583Y0187500D02*
G03*
X0563583Y0187500I-0001181J0000000D01*
G01*
D11*
X0567402Y0197244D02*
G03*
X0567402Y0197244I-0000492J0000000D01*
G01*
D12*
X0530532Y0138878D02*
Y0146457D01*
X0561535D01*
Y0138878D02*
Y0146457D01*
X0561476Y0211811D02*
Y0219390D01*
X0530473Y0211811D02*
X0561476D01*
X0530473D02*
Y0219390D01*
X0525787Y0166831D02*
Y0191437D01*
X0566339Y0166831D02*
Y0191437D01*
X0525787Y0166831D02*
X0566339D01*
X0525787Y0191437D02*
X0566339D01*
M02*
