G04*
G04 #@! TF.GenerationSoftware,Altium Limited,Altium Designer,21.7.2 (23)*
G04*
G04 Layer_Physical_Order=4*
G04 Layer_Color=16711680*
%FSAX25Y25*%
%MOIN*%
G70*
G04*
G04 #@! TF.SameCoordinates,914A0A10-9902-47D2-BBE9-F090EB24A124*
G04*
G04*
G04 #@! TF.FilePolarity,Positive*
G04*
G01*
G75*
%ADD13R,0.03347X0.03740*%
%ADD14R,0.02913X0.11024*%
%ADD15O,0.02362X0.08465*%
%ADD19C,0.01000*%
%ADD20C,0.02362*%
G36*
X0559966Y0216850D02*
X0559997Y0216765D01*
X0560047Y0216690D01*
X0560118Y0216625D01*
X0560209Y0216570D01*
X0560321Y0216525D01*
X0560452Y0216490D01*
X0560559Y0216472D01*
X0560572Y0216474D01*
X0560674Y0216497D01*
X0560770Y0216527D01*
X0560861Y0216563D01*
X0560946Y0216605D01*
X0561025Y0216654D01*
X0561097Y0216710D01*
X0561164Y0216772D01*
Y0215118D01*
X0561097Y0215180D01*
X0561025Y0215236D01*
X0560946Y0215285D01*
X0560861Y0215327D01*
X0560770Y0215363D01*
X0560674Y0215393D01*
X0560572Y0215416D01*
X0560559Y0215417D01*
X0560452Y0215400D01*
X0560321Y0215365D01*
X0560209Y0215320D01*
X0560118Y0215265D01*
X0560047Y0215200D01*
X0559997Y0215125D01*
X0559966Y0215040D01*
X0559956Y0214945D01*
Y0216945D01*
X0559966Y0216850D01*
D02*
G37*
G36*
X0549870Y0212813D02*
X0549845Y0212793D01*
X0549824Y0212760D01*
X0549805Y0212714D01*
X0549789Y0212655D01*
X0549777Y0212583D01*
X0549766Y0212498D01*
X0549755Y0212288D01*
X0549754Y0212164D01*
X0548754D01*
X0548752Y0212288D01*
X0548731Y0212583D01*
X0548718Y0212655D01*
X0548702Y0212714D01*
X0548683Y0212760D01*
X0548662Y0212793D01*
X0548637Y0212813D01*
X0548610Y0212819D01*
X0549897D01*
X0549870Y0212813D01*
D02*
G37*
G36*
X0544909Y0214314D02*
X0544888Y0214217D01*
X0544894Y0214107D01*
X0544926Y0213984D01*
X0544984Y0213849D01*
X0545069Y0213702D01*
X0545181Y0213541D01*
X0545319Y0213368D01*
X0545675Y0212984D01*
X0545146Y0212100D01*
X0544931Y0212307D01*
X0544552Y0212631D01*
X0544386Y0212748D01*
X0544237Y0212835D01*
X0544103Y0212892D01*
X0543986Y0212919D01*
X0543885Y0212916D01*
X0543800Y0212882D01*
X0543731Y0212819D01*
X0544956Y0214399D01*
X0544909Y0214314D01*
D02*
G37*
G36*
X0534910Y0214344D02*
X0534890Y0214246D01*
X0534897Y0214135D01*
X0534929Y0214012D01*
X0534988Y0213877D01*
X0535073Y0213730D01*
X0535184Y0213570D01*
X0535322Y0213397D01*
X0535675Y0213016D01*
X0535177Y0212100D01*
X0534962Y0212309D01*
X0534580Y0212635D01*
X0534414Y0212752D01*
X0534264Y0212839D01*
X0534131Y0212896D01*
X0534014Y0212922D01*
X0533914Y0212918D01*
X0533830Y0212884D01*
X0533763Y0212819D01*
X0534956Y0214430D01*
X0534910Y0214344D01*
D02*
G37*
G36*
X0559595Y0212809D02*
X0559510Y0212779D01*
X0559435Y0212728D01*
X0559370Y0212657D01*
X0559315Y0212566D01*
X0559270Y0212455D01*
X0559235Y0212323D01*
X0559210Y0212172D01*
X0559195Y0212000D01*
X0559190Y0211807D01*
X0558190D01*
X0558185Y0212000D01*
X0558170Y0212172D01*
X0558145Y0212323D01*
X0558110Y0212455D01*
X0558065Y0212566D01*
X0558010Y0212657D01*
X0557945Y0212728D01*
X0557870Y0212779D01*
X0557785Y0212809D01*
X0557690Y0212819D01*
X0559690D01*
X0559595Y0212809D01*
D02*
G37*
G36*
X0554968Y0212807D02*
X0554967Y0212797D01*
X0554965Y0212767D01*
X0554961Y0211807D01*
X0553961D01*
X0553956Y0211999D01*
X0553941Y0212170D01*
X0553916Y0212322D01*
X0553881Y0212453D01*
X0553836Y0212564D01*
X0553781Y0212655D01*
X0553716Y0212726D01*
X0553641Y0212777D01*
X0553556Y0212808D01*
X0553461Y0212819D01*
X0554968Y0212807D01*
D02*
G37*
G36*
X0559193Y0210504D02*
X0559204Y0210390D01*
X0559223Y0210284D01*
X0559249Y0210184D01*
X0559282Y0210092D01*
X0559323Y0210008D01*
X0559371Y0209930D01*
X0559426Y0209859D01*
X0559489Y0209796D01*
X0559559Y0209740D01*
X0557926Y0209480D01*
X0557976Y0209554D01*
X0558021Y0209632D01*
X0558061Y0209716D01*
X0558095Y0209805D01*
X0558124Y0209900D01*
X0558148Y0209999D01*
X0558166Y0210103D01*
X0558179Y0210213D01*
X0558190Y0210447D01*
X0559190Y0210624D01*
X0559193Y0210504D01*
D02*
G37*
G36*
X0544327Y0209818D02*
X0544272Y0209745D01*
X0544223Y0209666D01*
X0544180Y0209581D01*
X0544144Y0209491D01*
X0544115Y0209395D01*
X0544092Y0209292D01*
X0544076Y0209184D01*
X0544066Y0209070D01*
X0544063Y0208950D01*
X0543063D01*
X0543059Y0209070D01*
X0543050Y0209184D01*
X0543033Y0209292D01*
X0543011Y0209395D01*
X0542981Y0209491D01*
X0542945Y0209581D01*
X0542903Y0209666D01*
X0542854Y0209745D01*
X0542798Y0209818D01*
X0542736Y0209885D01*
X0544389D01*
X0544327Y0209818D01*
D02*
G37*
G36*
X0532654Y0208538D02*
X0532599Y0208465D01*
X0532550Y0208387D01*
X0532507Y0208302D01*
X0532472Y0208211D01*
X0532442Y0208115D01*
X0532432Y0208069D01*
X0532435Y0208052D01*
X0532470Y0207921D01*
X0532515Y0207809D01*
X0532570Y0207718D01*
X0532635Y0207647D01*
X0532710Y0207596D01*
X0532795Y0207565D01*
X0532890Y0207555D01*
X0531213Y0207567D01*
X0531246Y0207577D01*
X0531277Y0207607D01*
X0531303Y0207657D01*
X0531326Y0207727D01*
X0531346Y0207817D01*
X0531361Y0207927D01*
X0531365Y0207979D01*
X0531360Y0208013D01*
X0531337Y0208115D01*
X0531308Y0208211D01*
X0531272Y0208302D01*
X0531230Y0208387D01*
X0531181Y0208465D01*
X0531125Y0208538D01*
X0531063Y0208605D01*
X0532717D01*
X0532654Y0208538D01*
D02*
G37*
G36*
X0527930Y0208735D02*
X0527875Y0208662D01*
X0527825Y0208583D01*
X0527783Y0208499D01*
X0527747Y0208408D01*
X0527718Y0208312D01*
X0527695Y0208209D01*
X0527690Y0208176D01*
X0527710Y0208051D01*
X0527745Y0207919D01*
X0527790Y0207808D01*
X0527845Y0207717D01*
X0527910Y0207646D01*
X0527985Y0207595D01*
X0528070Y0207565D01*
X0528165Y0207555D01*
X0526165D01*
X0526260Y0207565D01*
X0526345Y0207595D01*
X0526420Y0207646D01*
X0526485Y0207717D01*
X0526540Y0207808D01*
X0526585Y0207919D01*
X0526620Y0208051D01*
X0526641Y0208176D01*
X0526636Y0208209D01*
X0526613Y0208312D01*
X0526584Y0208408D01*
X0526548Y0208499D01*
X0526505Y0208583D01*
X0526456Y0208662D01*
X0526401Y0208735D01*
X0526339Y0208802D01*
X0527992D01*
X0527930Y0208735D01*
D02*
G37*
G36*
X0549428Y0207994D02*
X0549364Y0207929D01*
X0549307Y0207857D01*
X0549257Y0207780D01*
X0549213Y0207696D01*
X0549176Y0207606D01*
X0549146Y0207510D01*
X0549123Y0207408D01*
X0549106Y0207300D01*
X0549096Y0207186D01*
X0549092Y0207066D01*
X0548093Y0207094D01*
X0548089Y0207214D01*
X0548080Y0207328D01*
X0548064Y0207437D01*
X0548042Y0207539D01*
X0548013Y0207636D01*
X0547978Y0207728D01*
X0547937Y0207813D01*
X0547889Y0207893D01*
X0547835Y0207967D01*
X0547774Y0208036D01*
X0549428Y0207994D01*
D02*
G37*
G36*
X0546547Y0203899D02*
X0546557Y0203785D01*
X0546574Y0203677D01*
X0546597Y0203575D01*
X0546627Y0203479D01*
X0546663Y0203389D01*
X0546707Y0203305D01*
X0546756Y0203226D01*
X0546813Y0203154D01*
X0546876Y0203088D01*
X0545223Y0203062D01*
X0545284Y0203130D01*
X0545338Y0203203D01*
X0545386Y0203283D01*
X0545428Y0203368D01*
X0545464Y0203459D01*
X0545492Y0203556D01*
X0545515Y0203659D01*
X0545531Y0203767D01*
X0545541Y0203881D01*
X0545544Y0204001D01*
X0546544Y0204019D01*
X0546547Y0203899D01*
D02*
G37*
G36*
X0529220Y0203851D02*
X0529190Y0203841D01*
X0529164Y0203811D01*
X0529140Y0203761D01*
X0529120Y0203691D01*
X0529102Y0203601D01*
X0529088Y0203491D01*
X0529069Y0203211D01*
X0529063Y0202851D01*
X0528063D01*
X0528058Y0203042D01*
X0528043Y0203214D01*
X0528018Y0203365D01*
X0527983Y0203497D01*
X0527938Y0203608D01*
X0527883Y0203699D01*
X0527818Y0203770D01*
X0527743Y0203821D01*
X0527658Y0203852D01*
X0527563Y0203863D01*
X0529220Y0203851D01*
D02*
G37*
G36*
X0535372Y0201397D02*
X0535186Y0201204D01*
X0534895Y0200858D01*
X0534790Y0200704D01*
X0534713Y0200564D01*
X0534662Y0200437D01*
X0534638Y0200323D01*
X0534642Y0200222D01*
X0534672Y0200135D01*
X0534730Y0200060D01*
X0533294Y0201427D01*
X0533372Y0201373D01*
X0533462Y0201346D01*
X0533567Y0201346D01*
X0533684Y0201373D01*
X0533814Y0201427D01*
X0533958Y0201508D01*
X0534115Y0201617D01*
X0534285Y0201752D01*
X0534468Y0201915D01*
X0534665Y0202104D01*
X0535372Y0201397D01*
D02*
G37*
G36*
X0554634Y0202324D02*
X0554702Y0200601D01*
X0553138Y0201372D01*
X0553233Y0201339D01*
X0553317Y0201337D01*
X0553391Y0201368D01*
X0553455Y0201430D01*
X0553510Y0201523D01*
X0553555Y0201648D01*
X0553589Y0201805D01*
X0553614Y0201993D01*
X0553629Y0202213D01*
X0553634Y0202465D01*
X0554634Y0202324D01*
D02*
G37*
G36*
X0565437Y0201094D02*
X0565269Y0200920D01*
X0564997Y0200608D01*
X0564894Y0200468D01*
X0564813Y0200340D01*
X0564753Y0200223D01*
X0564715Y0200118D01*
X0564698Y0200024D01*
X0564703Y0199942D01*
X0564730Y0199870D01*
X0563837Y0201426D01*
X0563881Y0201372D01*
X0563937Y0201340D01*
X0564005Y0201330D01*
X0564085Y0201343D01*
X0564178Y0201378D01*
X0564282Y0201436D01*
X0564399Y0201516D01*
X0564527Y0201619D01*
X0564668Y0201744D01*
X0564821Y0201892D01*
X0565437Y0201094D01*
D02*
G37*
G36*
X0559068Y0202078D02*
X0559107Y0201615D01*
X0559141Y0201427D01*
X0559186Y0201267D01*
X0559240Y0201137D01*
X0559303Y0201036D01*
X0559377Y0200963D01*
X0559460Y0200920D01*
X0559553Y0200905D01*
X0557573D01*
X0557666Y0200920D01*
X0557749Y0200963D01*
X0557823Y0201036D01*
X0557886Y0201137D01*
X0557940Y0201267D01*
X0557984Y0201427D01*
X0558019Y0201615D01*
X0558043Y0201832D01*
X0558058Y0202078D01*
X0558063Y0202354D01*
X0559063D01*
X0559068Y0202078D01*
D02*
G37*
G36*
X0529068D02*
X0529107Y0201615D01*
X0529142Y0201427D01*
X0529186Y0201267D01*
X0529240Y0201137D01*
X0529303Y0201036D01*
X0529377Y0200963D01*
X0529460Y0200920D01*
X0529554Y0200905D01*
X0527572D01*
X0527666Y0200920D01*
X0527749Y0200963D01*
X0527823Y0201036D01*
X0527886Y0201137D01*
X0527940Y0201267D01*
X0527985Y0201427D01*
X0528019Y0201615D01*
X0528043Y0201832D01*
X0528058Y0202078D01*
X0528063Y0202354D01*
X0529063D01*
X0529068Y0202078D01*
D02*
G37*
G36*
X0549092Y0202341D02*
X0549097Y0202180D01*
X0549112Y0202022D01*
X0549137Y0201868D01*
X0549171Y0201717D01*
X0549215Y0201569D01*
X0549269Y0201426D01*
X0549333Y0201285D01*
X0549407Y0201148D01*
X0549491Y0201015D01*
X0549584Y0200885D01*
X0547602Y0200944D01*
X0547695Y0200955D01*
X0547779Y0200996D01*
X0547852Y0201066D01*
X0547916Y0201164D01*
X0547970Y0201292D01*
X0548014Y0201449D01*
X0548048Y0201634D01*
X0548073Y0201849D01*
X0548088Y0202093D01*
X0548093Y0202366D01*
X0549092Y0202341D01*
D02*
G37*
G36*
X0564733Y0195496D02*
X0564757Y0195411D01*
X0564804Y0195335D01*
X0564872Y0195271D01*
X0564962Y0195216D01*
X0565075Y0195171D01*
X0565209Y0195135D01*
X0565333Y0195116D01*
X0565344Y0195117D01*
X0565448Y0195138D01*
X0565546Y0195164D01*
X0565639Y0195196D01*
X0565726Y0195235D01*
X0565808Y0195279D01*
X0565885Y0195329D01*
X0565956Y0195385D01*
X0565813Y0193738D01*
X0565752Y0193805D01*
X0565684Y0193865D01*
X0565610Y0193918D01*
X0565528Y0193964D01*
X0565441Y0194002D01*
X0565347Y0194034D01*
X0565246Y0194059D01*
X0565243Y0194059D01*
X0565152Y0194046D01*
X0565003Y0194012D01*
X0564876Y0193967D01*
X0564771Y0193913D01*
X0564687Y0193849D01*
X0564625Y0193775D01*
X0564584Y0193692D01*
X0564565Y0193598D01*
X0564730Y0195591D01*
X0564733Y0195496D01*
D02*
G37*
G36*
X0564740Y0163503D02*
X0564771Y0163418D01*
X0564821Y0163343D01*
X0564892Y0163278D01*
X0564983Y0163223D01*
X0565095Y0163178D01*
X0565226Y0163143D01*
X0565302Y0163131D01*
X0565391Y0163151D01*
X0565488Y0163180D01*
X0565578Y0163216D01*
X0565663Y0163259D01*
X0565742Y0163308D01*
X0565815Y0163363D01*
X0565882Y0163425D01*
Y0161772D01*
X0565815Y0161834D01*
X0565742Y0161889D01*
X0565663Y0161938D01*
X0565578Y0161981D01*
X0565488Y0162017D01*
X0565391Y0162046D01*
X0565302Y0162066D01*
X0565226Y0162053D01*
X0565095Y0162018D01*
X0564983Y0161973D01*
X0564892Y0161918D01*
X0564821Y0161853D01*
X0564771Y0161778D01*
X0564740Y0161693D01*
X0564730Y0161598D01*
Y0163598D01*
X0564740Y0163503D01*
D02*
G37*
G36*
X0544667Y0157961D02*
X0544631Y0157879D01*
X0544622Y0157784D01*
X0544640Y0157675D01*
X0544686Y0157553D01*
X0544759Y0157418D01*
X0544858Y0157270D01*
X0544985Y0157108D01*
X0545139Y0156933D01*
X0545320Y0156745D01*
X0544531Y0156121D01*
X0544405Y0156241D01*
X0544152Y0156448D01*
X0544026Y0156536D01*
X0543898Y0156613D01*
X0543771Y0156679D01*
X0543643Y0156734D01*
X0543515Y0156778D01*
X0543387Y0156811D01*
X0543258Y0156833D01*
X0544730Y0158030D01*
X0544667Y0157961D01*
D02*
G37*
G36*
X0559460Y0157348D02*
X0559377Y0157305D01*
X0559303Y0157232D01*
X0559240Y0157131D01*
X0559186Y0157000D01*
X0559141Y0156841D01*
X0559107Y0156653D01*
X0559083Y0156436D01*
X0559068Y0156189D01*
X0559063Y0155914D01*
X0558063D01*
X0558058Y0156189D01*
X0558019Y0156653D01*
X0557984Y0156841D01*
X0557940Y0157000D01*
X0557886Y0157131D01*
X0557823Y0157232D01*
X0557749Y0157305D01*
X0557666Y0157348D01*
X0557573Y0157362D01*
X0559553D01*
X0559460Y0157348D01*
D02*
G37*
G36*
X0554423Y0157289D02*
X0554347Y0157247D01*
X0554281Y0157177D01*
X0554223Y0157080D01*
X0554174Y0156955D01*
X0554134Y0156803D01*
X0554103Y0156622D01*
X0554081Y0156414D01*
X0554063Y0155914D01*
X0553063D01*
X0553059Y0156178D01*
X0553023Y0156622D01*
X0552992Y0156803D01*
X0552952Y0156955D01*
X0552903Y0157080D01*
X0552845Y0157177D01*
X0552779Y0157247D01*
X0552703Y0157289D01*
X0552619Y0157302D01*
X0554507D01*
X0554423Y0157289D01*
D02*
G37*
G36*
X0529368Y0157201D02*
X0529304Y0157162D01*
X0529247Y0157097D01*
X0529198Y0157006D01*
X0529157Y0156889D01*
X0529123Y0156746D01*
X0529097Y0156577D01*
X0529078Y0156382D01*
X0529063Y0155914D01*
X0528063D01*
X0528059Y0156161D01*
X0528029Y0156577D01*
X0528003Y0156746D01*
X0527969Y0156889D01*
X0527928Y0157006D01*
X0527879Y0157097D01*
X0527822Y0157162D01*
X0527758Y0157201D01*
X0527687Y0157214D01*
X0529439D01*
X0529368Y0157201D01*
D02*
G37*
G36*
X0549505Y0157299D02*
X0549412Y0157289D01*
X0549329Y0157250D01*
X0549255Y0157182D01*
X0549191Y0157085D01*
X0549137Y0156958D01*
X0549093Y0156804D01*
X0549059Y0156620D01*
X0549034Y0156407D01*
X0549019Y0156165D01*
X0549015Y0155894D01*
X0548015Y0155934D01*
X0548010Y0156098D01*
X0547996Y0156258D01*
X0547972Y0156414D01*
X0547939Y0156566D01*
X0547896Y0156713D01*
X0547844Y0156855D01*
X0547783Y0156994D01*
X0547712Y0157128D01*
X0547632Y0157257D01*
X0547542Y0157383D01*
X0549505Y0157299D01*
D02*
G37*
G36*
X0564697Y0158402D02*
X0564687Y0158309D01*
X0564700Y0158206D01*
X0564737Y0158091D01*
X0564796Y0157966D01*
X0564878Y0157829D01*
X0564983Y0157682D01*
X0565107Y0157529D01*
X0565182Y0157478D01*
X0565265Y0157433D01*
X0565346Y0157401D01*
X0565424Y0157382D01*
X0565500Y0157377D01*
X0565574Y0157385D01*
X0565646Y0157405D01*
X0565715Y0157440D01*
X0565269Y0155889D01*
X0565253Y0155913D01*
X0565219Y0155954D01*
X0565013Y0156174D01*
X0564712Y0156480D01*
X0564695Y0156496D01*
X0564396Y0156747D01*
X0564266Y0156835D01*
X0564149Y0156897D01*
X0564045Y0156934D01*
X0563955Y0156947D01*
X0563877Y0156933D01*
X0563813Y0156895D01*
X0563762Y0156832D01*
X0564730Y0158483D01*
X0564697Y0158402D01*
D02*
G37*
G36*
X0528700Y0155362D02*
X0528713Y0155202D01*
X0528734Y0155062D01*
X0528764Y0154940D01*
X0528802Y0154836D01*
X0528849Y0154752D01*
X0528904Y0154686D01*
X0528968Y0154639D01*
X0529041Y0154611D01*
X0529122Y0154602D01*
X0527269D01*
X0527350Y0154611D01*
X0527423Y0154639D01*
X0527487Y0154686D01*
X0527542Y0154752D01*
X0527589Y0154836D01*
X0527628Y0154940D01*
X0527657Y0155062D01*
X0527679Y0155202D01*
X0527691Y0155362D01*
X0527696Y0155540D01*
X0528696D01*
X0528700Y0155362D01*
D02*
G37*
G36*
X0549015Y0153139D02*
X0549018Y0153019D01*
X0549027Y0152905D01*
X0549043Y0152796D01*
X0549064Y0152693D01*
X0549093Y0152596D01*
X0549127Y0152504D01*
X0549168Y0152418D01*
X0549214Y0152337D01*
X0549267Y0152262D01*
X0549327Y0152193D01*
X0547675Y0152261D01*
X0547739Y0152325D01*
X0547797Y0152396D01*
X0547848Y0152473D01*
X0547892Y0152556D01*
X0547930Y0152645D01*
X0547960Y0152741D01*
X0547984Y0152842D01*
X0548001Y0152950D01*
X0548011Y0153064D01*
X0548015Y0153184D01*
X0549015Y0153139D01*
D02*
G37*
G36*
X0543941Y0152271D02*
X0543886Y0152198D01*
X0543837Y0152119D01*
X0543794Y0152035D01*
X0543758Y0151944D01*
X0543729Y0151848D01*
X0543706Y0151745D01*
X0543690Y0151637D01*
X0543680Y0151523D01*
X0543677Y0151403D01*
X0542677D01*
X0542673Y0151523D01*
X0542664Y0151637D01*
X0542647Y0151745D01*
X0542624Y0151848D01*
X0542595Y0151944D01*
X0542559Y0152035D01*
X0542517Y0152119D01*
X0542468Y0152198D01*
X0542412Y0152271D01*
X0542350Y0152338D01*
X0544003D01*
X0543941Y0152271D01*
D02*
G37*
G36*
X0533779Y0150900D02*
X0533694Y0150869D01*
X0533619Y0150819D01*
X0533554Y0150748D01*
X0533499Y0150657D01*
X0533454Y0150546D01*
X0533419Y0150414D01*
X0533416Y0150396D01*
X0533426Y0150350D01*
X0533456Y0150253D01*
X0533492Y0150163D01*
X0533534Y0150078D01*
X0533583Y0149999D01*
X0533639Y0149926D01*
X0533701Y0149859D01*
X0532047D01*
X0532109Y0149926D01*
X0532165Y0149999D01*
X0532214Y0150078D01*
X0532256Y0150163D01*
X0532292Y0150253D01*
X0532322Y0150350D01*
X0532332Y0150396D01*
X0532329Y0150414D01*
X0532294Y0150546D01*
X0532249Y0150657D01*
X0532194Y0150748D01*
X0532129Y0150819D01*
X0532054Y0150869D01*
X0531969Y0150900D01*
X0531874Y0150910D01*
X0533874D01*
X0533779Y0150900D01*
D02*
G37*
G36*
X0528464D02*
X0528379Y0150869D01*
X0528304Y0150819D01*
X0528239Y0150748D01*
X0528184Y0150657D01*
X0528139Y0150546D01*
X0528104Y0150414D01*
X0528079Y0150262D01*
X0528064Y0150090D01*
X0528060Y0149927D01*
X0528091Y0148596D01*
X0526674Y0149372D01*
X0526747Y0149398D01*
X0526813Y0149434D01*
X0526870Y0149481D01*
X0526921Y0149539D01*
X0526963Y0149607D01*
X0526998Y0149687D01*
X0527024Y0149778D01*
X0527044Y0149879D01*
X0527055Y0149991D01*
X0527056Y0150016D01*
X0527054Y0150090D01*
X0527039Y0150262D01*
X0527014Y0150414D01*
X0526979Y0150546D01*
X0526934Y0150657D01*
X0526879Y0150748D01*
X0526814Y0150819D01*
X0526739Y0150869D01*
X0526654Y0150900D01*
X0526559Y0150910D01*
X0528559D01*
X0528464Y0150900D01*
D02*
G37*
G36*
X0559427Y0148247D02*
X0559362Y0148183D01*
X0559303Y0148113D01*
X0559252Y0148037D01*
X0559207Y0147954D01*
X0559170Y0147865D01*
X0559139Y0147770D01*
X0559115Y0147669D01*
X0559098Y0147561D01*
X0559087Y0147447D01*
X0559084Y0147327D01*
X0558084Y0147383D01*
X0558081Y0147503D01*
X0558072Y0147617D01*
X0558056Y0147726D01*
X0558035Y0147829D01*
X0558007Y0147927D01*
X0557973Y0148019D01*
X0557933Y0148105D01*
X0557887Y0148186D01*
X0557834Y0148261D01*
X0557775Y0148331D01*
X0559427Y0148247D01*
D02*
G37*
G36*
X0559089Y0146268D02*
X0559104Y0146096D01*
X0559129Y0145944D01*
X0559164Y0145813D01*
X0559209Y0145701D01*
X0559264Y0145610D01*
X0559329Y0145539D01*
X0559404Y0145489D01*
X0559489Y0145459D01*
X0559584Y0145448D01*
X0557584D01*
X0557679Y0145459D01*
X0557764Y0145489D01*
X0557839Y0145539D01*
X0557904Y0145610D01*
X0557959Y0145701D01*
X0558004Y0145813D01*
X0558039Y0145944D01*
X0558064Y0146096D01*
X0558079Y0146268D01*
X0558084Y0146460D01*
X0559084D01*
X0559089Y0146268D01*
D02*
G37*
G36*
X0554029D02*
X0554044Y0146096D01*
X0554069Y0145944D01*
X0554104Y0145813D01*
X0554149Y0145701D01*
X0554204Y0145610D01*
X0554269Y0145539D01*
X0554344Y0145489D01*
X0554429Y0145459D01*
X0554524Y0145448D01*
X0552524D01*
X0552619Y0145459D01*
X0552704Y0145489D01*
X0552779Y0145539D01*
X0552844Y0145610D01*
X0552899Y0145701D01*
X0552944Y0145813D01*
X0552979Y0145944D01*
X0553004Y0146096D01*
X0553019Y0146268D01*
X0553024Y0146460D01*
X0554024D01*
X0554029Y0146268D01*
D02*
G37*
G36*
X0549029D02*
X0549044Y0146096D01*
X0549069Y0145944D01*
X0549104Y0145813D01*
X0549149Y0145701D01*
X0549204Y0145610D01*
X0549269Y0145539D01*
X0549344Y0145489D01*
X0549429Y0145459D01*
X0549524Y0145448D01*
X0547524D01*
X0547619Y0145459D01*
X0547704Y0145489D01*
X0547779Y0145539D01*
X0547844Y0145610D01*
X0547899Y0145701D01*
X0547944Y0145813D01*
X0547979Y0145944D01*
X0548004Y0146096D01*
X0548019Y0146268D01*
X0548024Y0146460D01*
X0549024D01*
X0549029Y0146268D01*
D02*
G37*
G36*
X0543508Y0146208D02*
X0543521Y0146049D01*
X0543542Y0145908D01*
X0543572Y0145786D01*
X0543610Y0145683D01*
X0543657Y0145599D01*
X0543713Y0145533D01*
X0543777Y0145486D01*
X0543849Y0145458D01*
X0543930Y0145448D01*
X0542078D01*
X0542159Y0145458D01*
X0542231Y0145486D01*
X0542295Y0145533D01*
X0542350Y0145599D01*
X0542397Y0145683D01*
X0542436Y0145786D01*
X0542465Y0145908D01*
X0542487Y0146049D01*
X0542499Y0146208D01*
X0542504Y0146387D01*
X0543504D01*
X0543508Y0146208D01*
D02*
G37*
G36*
X0538075Y0146269D02*
X0538090Y0146097D01*
X0538115Y0145946D01*
X0538150Y0145815D01*
X0538195Y0145703D01*
X0538250Y0145612D01*
X0538315Y0145541D01*
X0538390Y0145490D01*
X0538475Y0145459D01*
X0538570Y0145448D01*
X0537040Y0145460D01*
X0537045Y0145470D01*
X0537051Y0145500D01*
X0537055Y0145550D01*
X0537065Y0145820D01*
X0537070Y0146460D01*
X0538070D01*
X0538075Y0146269D01*
D02*
G37*
G36*
X0534586Y0146049D02*
X0534604Y0145812D01*
X0534620Y0145715D01*
X0534641Y0145634D01*
X0534666Y0145567D01*
X0534696Y0145515D01*
X0534730Y0145478D01*
X0534769Y0145456D01*
X0534813Y0145448D01*
X0533354D01*
X0533398Y0145456D01*
X0533437Y0145478D01*
X0533471Y0145515D01*
X0533501Y0145567D01*
X0533526Y0145634D01*
X0533547Y0145715D01*
X0533563Y0145812D01*
X0533574Y0145923D01*
X0533583Y0146190D01*
X0534584D01*
X0534586Y0146049D01*
D02*
G37*
G36*
X0559939Y0141850D02*
X0559969Y0141765D01*
X0560019Y0141690D01*
X0560089Y0141625D01*
X0560179Y0141570D01*
X0560289Y0141525D01*
X0560419Y0141490D01*
X0560519Y0141473D01*
X0560525Y0141474D01*
X0560628Y0141497D01*
X0560724Y0141527D01*
X0560815Y0141562D01*
X0560899Y0141605D01*
X0560978Y0141654D01*
X0561051Y0141710D01*
X0561118Y0141772D01*
Y0140118D01*
X0561051Y0140180D01*
X0560978Y0140236D01*
X0560899Y0140285D01*
X0560815Y0140327D01*
X0560724Y0140363D01*
X0560628Y0140393D01*
X0560525Y0140416D01*
X0560519Y0140417D01*
X0560419Y0140400D01*
X0560289Y0140365D01*
X0560179Y0140320D01*
X0560089Y0140265D01*
X0560019Y0140200D01*
X0559969Y0140125D01*
X0559939Y0140040D01*
X0559929Y0139945D01*
Y0141945D01*
X0559939Y0141850D01*
D02*
G37*
D13*
X0527559Y0152756D02*
D03*
X0532874D02*
D03*
X0527559Y0205709D02*
D03*
X0532874D02*
D03*
D14*
X0533484Y0139961D02*
D03*
X0538484D02*
D03*
X0543484D02*
D03*
X0548484D02*
D03*
X0553484D02*
D03*
X0558484D02*
D03*
X0558524Y0218307D02*
D03*
X0553524D02*
D03*
X0548524D02*
D03*
X0543524D02*
D03*
X0538524D02*
D03*
X0533524D02*
D03*
D15*
X0528563Y0197244D02*
D03*
X0533563D02*
D03*
X0538563D02*
D03*
X0543563D02*
D03*
X0548563D02*
D03*
X0553563D02*
D03*
X0558563D02*
D03*
X0563563D02*
D03*
X0528563Y0161024D02*
D03*
X0533563Y0161024D02*
D03*
X0538563Y0161024D02*
D03*
X0543563Y0161024D02*
D03*
X0553563Y0161024D02*
D03*
X0558563Y0161024D02*
D03*
X0563563Y0161024D02*
D03*
X0548563Y0161024D02*
D03*
D19*
X0553563Y0161024D02*
X0553563Y0161024D01*
X0554232Y0152362D02*
Y0155170D01*
X0553563Y0155839D02*
Y0161024D01*
Y0155839D02*
X0554232Y0155170D01*
X0548524Y0139764D02*
Y0146654D01*
X0554232Y0152362D01*
X0538563Y0197244D02*
Y0200664D01*
X0537746Y0201481D02*
Y0217529D01*
X0538524Y0218307D01*
X0537746Y0201481D02*
X0538563Y0200664D01*
X0540945Y0202362D02*
Y0205709D01*
X0543563Y0208327D02*
Y0210728D01*
X0540945Y0205709D02*
X0543563Y0208327D01*
X0546044Y0202251D02*
Y0211909D01*
X0543563Y0197244D02*
Y0199927D01*
X0540945Y0202362D02*
X0542392Y0200916D01*
X0542574D02*
X0543563Y0199927D01*
X0542392Y0200916D02*
X0542574D01*
X0553563Y0197244D02*
Y0200664D01*
X0554134Y0201235D02*
Y0207283D01*
X0553563Y0200664D02*
X0554134Y0201235D01*
X0549254Y0212164D02*
X0554134Y0207283D01*
X0537570Y0140875D02*
Y0149525D01*
X0537647Y0149602D01*
Y0156688D02*
X0538563Y0157604D01*
X0537647Y0149602D02*
Y0156688D01*
X0537570Y0140875D02*
X0538484Y0139961D01*
X0535630Y0150130D02*
X0535847Y0150347D01*
Y0156401D01*
X0534084Y0146190D02*
X0535630Y0147736D01*
Y0150130D01*
X0534815Y0157433D02*
X0535847Y0156401D01*
X0542682Y0148764D02*
X0543177Y0149259D01*
X0543004Y0140284D02*
X0543524Y0139764D01*
X0543004Y0140284D02*
Y0146387D01*
X0542682Y0146709D02*
X0543004Y0146387D01*
X0542682Y0146709D02*
Y0148764D01*
X0543177Y0149259D02*
Y0153182D01*
X0538563Y0157604D02*
Y0161024D01*
X0545163Y0148105D02*
X0545866Y0148808D01*
Y0155492D01*
X0543563Y0157795D02*
X0545866Y0155492D01*
X0545163Y0147736D02*
Y0148105D01*
X0559461Y0215945D02*
X0562008D01*
X0532874Y0149016D02*
Y0152756D01*
X0526968Y0148228D02*
Y0148597D01*
X0527559Y0149188D01*
Y0152756D01*
X0528563Y0155907D02*
Y0161024D01*
X0528196Y0155540D02*
X0528563Y0155907D01*
X0528196Y0153393D02*
Y0155540D01*
X0527559Y0152756D02*
X0528196Y0153393D01*
X0553524Y0148602D02*
X0558563Y0153642D01*
X0553524Y0139764D02*
Y0148602D01*
X0558584Y0149071D02*
X0558644Y0149131D01*
X0558563Y0153642D02*
Y0161024D01*
X0548466Y0151384D02*
X0548515Y0151433D01*
X0533563Y0158341D02*
Y0161024D01*
Y0158341D02*
X0534471Y0157433D01*
X0534815D01*
X0548515Y0151433D02*
Y0160975D01*
X0566623Y0194591D02*
X0566725Y0194488D01*
X0563563Y0195220D02*
X0564192Y0194591D01*
X0566623D01*
X0563563Y0195220D02*
Y0199927D01*
X0558690Y0216716D02*
X0559461Y0215945D01*
X0558690Y0216716D02*
Y0218318D01*
Y0208963D02*
Y0216716D01*
X0566131Y0201538D02*
X0566392Y0201799D01*
X0565175Y0201538D02*
X0566131D01*
X0563563Y0199927D02*
X0565175Y0201538D01*
X0558504Y0218504D02*
X0558690Y0218318D01*
Y0208963D02*
X0558876Y0208777D01*
X0527165Y0206102D02*
X0528563Y0204705D01*
X0527165Y0206102D02*
Y0209646D01*
X0558524Y0140185D02*
X0559283Y0140945D01*
X0561961D01*
X0548593Y0208829D02*
X0548622Y0208858D01*
X0548563Y0197244D02*
X0548593Y0197274D01*
Y0208829D01*
X0558584Y0140245D02*
Y0149071D01*
X0558524Y0140185D02*
X0558584Y0140245D01*
X0531890Y0206693D02*
X0532874Y0205709D01*
X0531890Y0206693D02*
Y0209449D01*
X0528563Y0197244D02*
Y0204705D01*
X0533504Y0214449D02*
Y0218504D01*
Y0214449D02*
X0534461Y0213492D01*
X0534492D01*
X0535946Y0212039D01*
Y0202678D02*
Y0212039D01*
X0533563Y0200295D02*
X0535946Y0202678D01*
X0533563Y0197244D02*
Y0200295D01*
X0554461Y0210205D02*
Y0217547D01*
X0556299Y0206594D02*
Y0208366D01*
X0554461Y0210205D02*
X0556299Y0208366D01*
Y0206594D02*
X0558563Y0204331D01*
Y0197244D02*
Y0204331D01*
X0553504Y0218504D02*
X0554461Y0217547D01*
X0548504Y0218504D02*
X0549254Y0217754D01*
Y0212164D02*
Y0217754D01*
X0543504Y0214449D02*
Y0218504D01*
Y0214449D02*
X0546044Y0211909D01*
X0543563Y0157795D02*
Y0161024D01*
X0548515Y0160975D02*
X0548563Y0161024D01*
X0566061Y0156687D02*
X0566321Y0156426D01*
X0563563Y0158341D02*
Y0161024D01*
Y0158341D02*
X0565217Y0156687D01*
X0566061D01*
X0564192Y0162598D02*
X0566725D01*
X0563563Y0161024D02*
Y0161969D01*
X0564192Y0162598D01*
X0534084Y0140324D02*
Y0146190D01*
X0533524Y0139764D02*
X0534084Y0140324D01*
X0558524Y0139764D02*
Y0140185D01*
D20*
X0540256Y0210236D02*
D03*
X0543563Y0210728D02*
D03*
X0543504Y0204528D02*
D03*
X0546063Y0202232D02*
D03*
X0551083Y0205610D02*
D03*
X0540059Y0147933D02*
D03*
X0540551Y0155118D02*
D03*
X0543177Y0153182D02*
D03*
X0551083Y0153642D02*
D03*
X0525000Y0136122D02*
D03*
X0524902Y0222047D02*
D03*
X0566043Y0221358D02*
D03*
X0565846Y0137205D02*
D03*
X0530020Y0142224D02*
D03*
X0562008Y0215945D02*
D03*
X0532874Y0149016D02*
D03*
X0526968Y0148228D02*
D03*
X0545163Y0147736D02*
D03*
X0558644Y0149131D02*
D03*
X0548466Y0151384D02*
D03*
X0525714Y0156600D02*
D03*
X0525401Y0163681D02*
D03*
X0525394Y0194685D02*
D03*
X0525814Y0201859D02*
D03*
X0566725Y0194488D02*
D03*
X0566392Y0201799D02*
D03*
X0530066Y0217717D02*
D03*
X0527165Y0209646D02*
D03*
X0561961Y0137303D02*
D03*
Y0140945D02*
D03*
X0548622Y0208858D02*
D03*
X0531890Y0209449D02*
D03*
X0562500Y0221260D02*
D03*
X0558876Y0208777D02*
D03*
X0566321Y0156426D02*
D03*
X0566725Y0162598D02*
D03*
M02*
