G04*
G04 #@! TF.GenerationSoftware,Altium Limited,Altium Designer,21.7.2 (23)*
G04*
G04 Layer_Color=16711935*
%FSAX25Y25*%
%MOIN*%
G70*
G04*
G04 #@! TF.SameCoordinates,914A0A10-9902-47D2-BBE9-F090EB24A124*
G04*
G04*
G04 #@! TF.FilePolarity,Positive*
G04*
G01*
G75*
%ADD22C,0.00394*%
D22*
X0531299Y0190354D02*
G03*
X0531299Y0190354I-0001969J0000000D01*
G01*
X0564764D02*
G03*
X0564764Y0190354I-0001969J0000000D01*
G01*
X0526870Y0150984D02*
Y0154528D01*
X0533563Y0150984D02*
Y0154528D01*
X0526870Y0150984D02*
X0533563D01*
X0526870Y0154528D02*
X0533563D01*
X0564173Y0151181D02*
Y0154724D01*
X0557480Y0151181D02*
Y0154724D01*
Y0151181D02*
X0564173D01*
X0557480Y0154724D02*
X0564173D01*
X0525787Y0193898D02*
X0566339D01*
X0525787Y0164370D02*
X0566339D01*
X0525787D02*
Y0193898D01*
X0566339Y0164370D02*
Y0193898D01*
X0564468Y0203642D02*
Y0207185D01*
X0557776Y0203642D02*
Y0207185D01*
Y0203642D02*
X0564468D01*
X0557776Y0207185D02*
X0564468D01*
X0526870Y0203937D02*
Y0207480D01*
X0533563Y0203937D02*
Y0207480D01*
X0526870Y0203937D02*
X0533563D01*
X0526870Y0207480D02*
X0533563D01*
X0525787Y0164370D02*
Y0193898D01*
X0566339Y0164370D02*
Y0193898D01*
X0525787Y0164370D02*
X0566339D01*
X0525787Y0193898D02*
X0566339D01*
M02*
