M48
;Layer_Color=9474304
;FILE_FORMAT=2:5
INCH
;TYPE=PLATED
T1F00S00C0.01181
T2F00S00C0.02756
T3F00S00C0.03150
T4F00S00C0.03504
T5F00S00C0.03543
T6F00S00C0.04000
T7F00S00C0.04331
T8F00S00C0.11811
T9F00S00C0.13780
;TYPE=NON_PLATED
T10F00S00C0.02913
%
T01
X0471457Y0303445
X0471180Y0310944
X0478346Y0311417
X0478051Y0306890
X0487885Y0305599
X0488572Y0300984
X0492618
X0492717Y0306594
X0497244Y0310433
X0505413
X0510728Y0308071
Y0300984
X0505670Y0302579
X0504528Y0299803
X0501279
X0530345Y0300970
X0530315Y0308071
X0468405Y0298917
X0464764Y0298721
X0464665Y0302165
X0460433Y0298524
X0443681Y0305630
X0388327
X0383327
X0339173Y0311319
X0318012Y0301476
X0313681Y0299016
X0312992Y0306201
X0310630Y0308760
X0309350Y0298130
X0303346Y0303937
X0300000Y0304035
X0272087Y0305630
X0267028Y0306496
X0257087Y0305630
X0252067Y0306398
X0245472Y0304134
X0242618Y0306004
X0196949Y0304134
X0193564Y0300848
X0182538Y0299369
X0181578Y0304030
X0172638Y0304035
X0172638Y0307185
X0172539Y0300689
X0158465Y0300689
X0177095Y0311828
X0150246Y0312193
X0145832Y0311700
X0139469Y0311811
Y0304921
X0142815Y0304716
X0146063Y0304713
X0149606Y0305217
X0152343Y0307556
X0155916Y0303730
X0154724Y0298228
X0149606
X0145571Y0297933
X0142717Y0295374
X0137303Y0296358
X0135728Y0304823
X0131299Y0306398
X0127647Y0302559
X0125689Y0296358
X0136614Y0313779
Y0317421
X0136699Y0320560
X0137015Y0323737
X0131595Y0328248
X0118898Y0329035
X0118799Y0322047
X0107382Y0341240
X0102539Y0341299
Y0351299
X0101181Y0358465
X0116240Y0356201
X0119980Y0352559
X0111811Y0348524
X0114567Y0364173
X0121850Y0364272
X0122047Y0389075
X0118209Y0393406
Y0402756
X0108563Y0399114
X0106501Y0404449
X0106890Y0412992
X0102170Y0412815
X0098228Y0412992
X0094291
X0096260Y0403543
X0090453Y0390354
X0090551Y0384350
X0108661Y0383465
Y0386614
Y0380315
X0113371Y0412781
X0116142Y0422835
X0121850Y0424213
X0106501Y0421182
X0129028Y0465740
X0141831Y0343799
X0145472Y0338484
X0153452Y0336532
X0155512Y0338878
X0155413Y0342028
X0151862Y0350107
X0155315Y0326673
Y0322342
Y0318012
X0091437Y0328346
X0087815Y0341299
Y0346299
X0156693Y0346752
X0161909Y0340846
X0166339Y0341732
X0168701Y0339370
X0172858Y0337235
X0176279
X0178150Y0343701
X0181693Y0349902
X0174902Y0350590
X0174803Y0357087
X0173721Y0366142
X0171161Y0368388
X0170823Y0372950
X0176084
X0179823Y0376575
X0175295Y0381201
X0176134Y0385630
X0168209Y0385236
X0170823Y0379528
X0168898Y0362008
X0166437Y0359252
X0163386Y0357776
X0162911Y0335132
X0156307Y0335056
X0159646Y0326673
X0159646Y0322342
X0163976
X0163976Y0318012
X0159646
X0163976Y0326673
X0172232Y0315324
X0177575Y0320339
X0193915Y0324902
X0193996Y0313976
X0215158Y0347835
Y0352854
Y0357874
X0223622Y0381201
X0222244Y0384154
X0223524Y0391043
X0232972Y0387008
X0232874Y0381201
X0232793Y0400886
X0234154Y0405413
X0231594Y0408661
X0236221Y0409744
X0237309Y0413055
X0242891Y0409449
X0241043Y0402756
X0238767Y0400707
X0252264Y0402165
X0262008Y0388189
X0259547Y0384449
X0293602Y0385335
X0293012Y0388976
X0307382Y0387697
X0308169Y0384252
X0307382Y0402756
Y0406890
X0307480Y0418021
X0307382Y0421358
Y0441732
Y0445276
X0296046Y0446457
Y0443209
X0288656Y0443979
X0277362Y0448032
X0274410Y0446555
X0272047Y0448721
X0278543Y0452658
X0286713Y0463878
X0299902Y0464567
X0302067Y0466732
X0270556Y0465849
X0266916Y0436995
X0263287Y0436122
X0263589Y0432062
X0260827Y0433465
X0258465Y0429429
X0262106Y0439359
X0268307Y0423917
X0272235Y0418021
X0274794Y0415140
X0280413Y0415059
X0290257Y0428198
X0239272Y0428445
X0237588Y0425492
X0233384Y0433763
X0233395Y0438583
X0226575Y0439567
X0227345Y0435541
X0227260Y0444129
X0228051Y0448425
X0225197Y0450787
X0228937Y0452854
X0229823Y0457283
X0233071Y0457382
X0226969Y0464156
X0221850Y0462008
X0220569Y0458995
X0218562Y0454387
X0213189Y0454626
X0206890Y0449508
X0203445Y0450098
X0203270Y0457376
X0205371Y0459604
X0209231Y0465375
X0183071Y0464083
X0183169Y0446457
X0180217Y0444587
X0184547Y0432874
X0182382Y0430610
X0181890Y0426279
Y0421966
X0182776Y0418898
X0186516Y0421966
X0187106Y0413878
X0193269Y0416081
X0197982Y0405857
X0200492Y0408169
X0207972Y0408465
X0207677Y0412008
X0211122
X0217705Y0415070
X0219886Y0417225
X0224448Y0418225
X0227740Y0421438
X0226870Y0406693
X0222736Y0405315
X0218307Y0404429
X0212795Y0398425
X0204742Y0422187
X0217580Y0427216
X0215571Y0431778
X0222933Y0442815
X0221457Y0445965
X0237205Y0467126
X0243718Y0418417
X0194185Y0434047
X0189346Y0451500
X0173130Y0430118
X0174932Y0425954
X0170150Y0419484
X0169980Y0416240
X0166629Y0416750
X0166353Y0422244
X0160039Y0423721
X0172047Y0406299
X0171555Y0402067
X0168307Y0398425
X0248622Y0325098
X0252067Y0325197
X0255118Y0331102
X0258760
X0281201
X0284449Y0330512
X0287479Y0331890
X0277067Y0320276
X0309646Y0334449
X0313681Y0334842
X0340256Y0343799
X0338287Y0348031
X0342421Y0347933
Y0354134
X0342421Y0358465
X0338090Y0358465
X0338091Y0354134
X0331201Y0360039
X0330610Y0365551
X0327559Y0367126
X0324311Y0381496
X0317126Y0385531
X0314567Y0387992
X0313386Y0383661
X0323130Y0402362
X0325886Y0400984
X0326181Y0425787
X0323819Y0428445
X0328445Y0428543
X0336060Y0435312
X0344587Y0432480
X0347933
X0354134Y0429626
X0359350Y0434252
X0363090
X0366732Y0430118
X0348031Y0450591
X0338521Y0449879
X0331693Y0450394
X0332677Y0468012
X0325984Y0464961
X0377768Y0467531
X0383268Y0465031
X0388768Y0467531
X0399052Y0450844
Y0445923
Y0440608
X0393307Y0414075
X0389961Y0411614
Y0406398
Y0400098
Y0395374
X0389764Y0390067
X0393307Y0385433
X0397933Y0385062
X0404823Y0387894
X0411614Y0386221
X0420768Y0387992
X0424606Y0385236
X0427756Y0387992
X0433465
X0430610Y0391929
X0440748Y0387992
X0436221Y0342421
X0432776Y0341929
X0434154Y0321850
X0439370
X0458681Y0320354
X0462348Y0323478
X0457087Y0326870
X0455905Y0334744
X0464885Y0332295
X0466732Y0351181
X0406791Y0332972
X0396654Y0335138
X0376378Y0334646
X0383366Y0327165
X0378346Y0319077
X0367421Y0315551
X0346457Y0319980
X0339272Y0320177
X0339173Y0316732
X0361811Y0344193
X0363386Y0347441
X0361319Y0350295
X0365059Y0353150
X0364567Y0373622
X0360531Y0379134
X0356693Y0376476
X0386221Y0365945
X0389469Y0366043
X0399016Y0375098
X0383661Y0406299
X0438845Y0445354
X0440551Y0451870
X0444783
X0449016
X0457677Y0449409
X0457784Y0455647
X0468209Y0456595
X0460618Y0467827
X0455158Y0465341
X0449618Y0467827
X0456398Y0443701
X0476870Y0443996
Y0447146
X0480315Y0443996
X0483465
X0489370Y0447736
X0488878Y0436417
X0492028
X0495669Y0436319
X0498819
X0498192Y0413276
X0501932
X0490846Y0413287
X0478839Y0409646
X0478937Y0406693
X0494783Y0387598
X0497759Y0386355
X0502559Y0387402
X0502495Y0394868
X0508401Y0397624
X0510163Y0386338
X0510554Y0377989
X0514764Y0380413
X0531988Y0380020
X0538386
X0538287Y0375984
X0545866Y0380020
X0542717Y0351575
X0544193Y0348524
X0544291Y0343602
X0539787Y0338816
X0534176
X0530118Y0336520
X0529921Y0333465
X0537205Y0331693
X0542224Y0323425
X0540453Y0320768
X0519488Y0319882
X0516738Y0336733
X0511243Y0343737
Y0346985
X0507995
Y0343737
X0500221Y0346966
X0500087Y0350115
X0490771Y0352497
X0493231Y0357320
X0493084Y0360912
X0500417Y0362832
X0508094
X0508292Y0359466
X0510554Y0354875
X0525295Y0349311
X0528543Y0347736
X0508222Y0331102
X0494882Y0330894
X0495375Y0336299
X0477400Y0341723
X0472539Y0340256
X0470177Y0342618
X0469980Y0351083
X0473327Y0333071
X0471260Y0318799
X0470247Y0315650
X0474508Y0316623
X0478346Y0316339
X0490562Y0313072
X0501279Y0313224
X0561122Y0327658
X0566260Y0330177
X0581004Y0330217
X0580984Y0335177
X0581004Y0340158
X0583169Y0344685
X0583268Y0348327
X0573622Y0343898
X0580984Y0325177
X0572244Y0390354
X0483661Y0454823
X0480512
Y0459842
X0483661
Y0465158
X0480512
X0480315Y0470866
X0483465
X0486909Y0474016
X0483661Y0480118
X0480512
X0476968
Y0483268
Y0490846
Y0495866
Y0499606
X0490945Y0509252
X0497047
X0502854Y0509350
X0498327Y0530512
X0495177
X0491831Y0530610
X0488779
X0526876Y0534215
X0530616Y0537660
X0526384Y0520633
X0526378Y0515846
X0530315Y0512992
X0533760
X0557782Y0518270
X0554238Y0521814
X0506890Y0479331
X0503740Y0479232
X0497922Y0474100
X0463118Y0473327
X0460618Y0478827
X0455118Y0481327
X0455219Y0488485
X0455243Y0499568
X0447638Y0498032
X0443405
X0439173
X0437598Y0487500
X0449618Y0478827
X0447118Y0473327
X0407972Y0472835
X0404823Y0472835
X0391253Y0473071
X0388768Y0478532
X0383268Y0481032
X0377768Y0478532
X0375268Y0473032
X0381201Y0488681
X0392421Y0491240
X0398031Y0489567
X0398524Y0497441
Y0508465
X0393701Y0514950
X0396654Y0529823
X0390748
X0406496Y0525295
X0412697Y0525098
X0410433Y0500098
X0406682Y0491623
X0381201Y0507776
X0377264
X0368701Y0508957
X0368406Y0512303
X0367323Y0521938
Y0525000
X0352165Y0517815
Y0512205
X0342520Y0512008
X0333071Y0512205
X0321358Y0510925
X0313681Y0506496
X0315158Y0535433
X0313386Y0538287
X0325984Y0480512
X0332677Y0477461
Y0472736
X0302559Y0473425
X0302854Y0481791
X0296752Y0487894
X0291929Y0501673
X0294783Y0508071
X0297441Y0510630
X0308465Y0511024
X0307480Y0507874
X0287402Y0506693
X0278586Y0506779
X0276220Y0509145
X0278937Y0494488
X0282185Y0492028
X0280674Y0479775
X0277749Y0478867
X0278065Y0481913
X0281004Y0475984
X0272126Y0488320
X0266615Y0493834
X0263484Y0502658
X0259941Y0506595
X0258039Y0516437
X0267913Y0526083
X0266634Y0531201
X0269390Y0533563
X0268898Y0538779
X0265551Y0536122
X0278248Y0529429
X0279528Y0526476
X0297539Y0526772
X0300947Y0526575
X0304035Y0532283
X0307382
X0294488
X0254853Y0495017
X0249590Y0486260
X0248158Y0483554
X0241831Y0480905
X0234646Y0476870
X0231212Y0473023
X0239370Y0470079
X0222244Y0476953
X0217815Y0477165
X0217224Y0472047
X0213070Y0469214
X0209350Y0477658
X0207185Y0479921
X0203937Y0491535
X0201714Y0493641
X0198524Y0493602
Y0490256
X0213512Y0491955
X0212390Y0499201
X0208268Y0499114
X0204952Y0513460
X0198524Y0517717
X0200591Y0520177
X0217897Y0512764
X0217480Y0508032
X0228545Y0501629
X0224803Y0497715
X0218823Y0488346
X0220611Y0481515
X0229837Y0485052
X0256988Y0476673
X0259440Y0474409
X0187712Y0481087
X0178543Y0484350
X0183965Y0469303
X0164862Y0517520
X0148721Y0517421
X0130905Y0517815
X0145188Y0497649
X0152165Y0480807
X0129035Y0479035
X0117028Y0482185
X0089173Y0481496
X0091634Y0477559
T02
X0090522Y0404120
Y0410025
Y0415931
Y0421836
T03
X0115157Y0531595
Y0541437
T04
X0168701Y0532008
X0168701Y0542008
X0152264Y0542106
X0152264Y0532106
X0134941Y0532205
Y0542205
T05
X0094429Y0443504
X0104429
X0114429
Y0453504
X0104429
X0094429
X0212441Y0324665
Y0314665
X0222441
Y0324665
X0232441
Y0314665
X0094390Y0494370
Y0504370
Y0514370
Y0524370
T06
X0140059Y0351083
X0417815Y0313189
X0094587Y0535728
T07
X0496260Y0315453
X0506260
X0516260
X0526260
T08
X0528150Y0431791
X0573150Y0431791
X0455118Y0473327
X0383169Y0472638
T09
X0567323Y0305610
X0103839
X0567323Y0530020
X0230020
T10
X0378327Y0310492
X0383327
X0388327
X0393327
X0443681
X0448681
X0453681
X0458681
X0277067
X0272067
X0267067
X0262067
X0257067
X0252067
X0097677Y0336299
X0092677
Y0341299
X0097677
Y0346299
X0092677
Y0351299
X0097677
X0252067Y0315492
X0257067
X0262067
X0267067
X0272067
X0277067
X0378327
X0383327
X0388327
X0393327
X0443681
X0448681
X0453681
X0458681
X0571122Y0325177
X0576122
Y0330177
Y0335177
X0571122
Y0330177
Y0340177
X0576122
M30
