G04*
G04 #@! TF.GenerationSoftware,Altium Limited,Altium Designer,21.7.2 (23)*
G04*
G04 Layer_Physical_Order=4*
G04 Layer_Color=16711680*
%FSAX25Y25*%
%MOIN*%
G70*
G04*
G04 #@! TF.SameCoordinates,43612BD9-7431-4496-A61A-E5E58A6AB67A*
G04*
G04*
G04 #@! TF.FilePolarity,Positive*
G04*
G01*
G75*
%ADD14C,0.04409*%
%ADD15R,0.04409X0.04409*%
%ADD18C,0.05315*%
%ADD19R,0.05315X0.05315*%
%ADD20R,0.03937X0.03937*%
%ADD21C,0.03937*%
G36*
X0186426Y0233140D02*
X0186857Y0233140D01*
X0187653Y0232810D01*
X0188262Y0232201D01*
X0188576Y0231443D01*
X0188592Y0230984D01*
Y0230974D01*
X0188592Y0230974D01*
X0188592Y0230974D01*
Y0132746D01*
Y0132413D01*
X0188337Y0131798D01*
X0187866Y0131327D01*
X0187251Y0131073D01*
X0139198D01*
X0138659Y0131180D01*
X0138151Y0131390D01*
X0137694Y0131695D01*
X0137306Y0132084D01*
X0137001Y0132541D01*
X0136790Y0133048D01*
X0136683Y0133587D01*
Y0133862D01*
Y0199636D01*
Y0199950D01*
X0136805Y0200566D01*
X0137046Y0201146D01*
X0137395Y0201669D01*
X0137839Y0202113D01*
X0138361Y0202462D01*
X0138941Y0202702D01*
X0139557Y0202824D01*
X0139871Y0202824D01*
X0139871Y0202825D01*
X0150403D01*
X0150725Y0202895D01*
X0151299Y0203216D01*
X0151706Y0203732D01*
X0151885Y0204364D01*
X0151879Y0204695D01*
X0151879Y0204695D01*
Y0221241D01*
X0151851Y0221700D01*
X0152150Y0222569D01*
X0152759Y0223259D01*
X0153585Y0223662D01*
X0154044Y0223691D01*
X0154045Y0223691D01*
X0160048Y0223691D01*
X0160536Y0223691D01*
X0161436Y0223318D01*
X0162126Y0222629D01*
X0162499Y0221728D01*
X0162498Y0221241D01*
X0162498Y0221241D01*
X0162499Y0221240D01*
X0162499Y0188859D01*
X0162401Y0188734D01*
X0162160Y0188529D01*
X0162144Y0188520D01*
X0154232D01*
X0153842Y0188442D01*
X0153511Y0188221D01*
X0153290Y0187890D01*
X0153213Y0187500D01*
Y0146850D01*
X0153290Y0146460D01*
X0153511Y0146129D01*
X0153842Y0145908D01*
X0154232Y0145831D01*
X0170965D01*
X0171355Y0145908D01*
X0171686Y0146129D01*
X0171906Y0146460D01*
X0171984Y0146850D01*
Y0187457D01*
Y0187500D01*
X0171906Y0187890D01*
X0171859Y0187962D01*
D01*
X0171686Y0188221D01*
X0171355Y0188442D01*
X0170965Y0188520D01*
X0166822D01*
X0166777Y0188533D01*
X0166348Y0189020D01*
X0166348Y0202946D01*
X0166348Y0203417D01*
X0166348Y0203417D01*
X0166348Y0203417D01*
X0166348Y0203417D01*
X0166348Y0204402D01*
X0166732Y0206334D01*
X0167486Y0208154D01*
X0168580Y0209792D01*
X0169277Y0210489D01*
X0170831Y0212042D01*
X0170831Y0212042D01*
X0170831Y0212043D01*
X0171332Y0212617D01*
X0172242Y0213841D01*
X0173022Y0215152D01*
X0173662Y0216536D01*
X0174155Y0217979D01*
X0174497Y0219466D01*
X0174684Y0220979D01*
X0174713Y0222504D01*
X0174669Y0223266D01*
X0174669Y0223266D01*
X0174316Y0224117D01*
X0173664Y0224769D01*
X0172812Y0225122D01*
X0172352Y0225167D01*
X0168146D01*
X0167234Y0225349D01*
X0166374Y0225705D01*
X0165600Y0226222D01*
X0164942Y0226880D01*
X0164425Y0227654D01*
X0164069Y0228514D01*
X0163887Y0229426D01*
Y0230655D01*
X0163993Y0231188D01*
X0164201Y0231689D01*
X0164502Y0232141D01*
X0164886Y0232524D01*
X0165338Y0232826D01*
X0165839Y0233034D01*
X0166372Y0233140D01*
X0166643D01*
X0186426Y0233140D01*
D02*
G37*
D14*
X0146102Y0117854D02*
D03*
X0141102D02*
D03*
Y0112854D02*
D03*
D15*
X0146102D02*
D03*
D18*
X0132087Y0105413D02*
D03*
X0139961D02*
D03*
X0147835D02*
D03*
X0172835D02*
D03*
X0180709D02*
D03*
X0188583D02*
D03*
X0166535Y0229528D02*
D03*
X0158661D02*
D03*
X0150787D02*
D03*
D19*
X0155709Y0105413D02*
D03*
X0196457D02*
D03*
X0174409Y0229528D02*
D03*
D20*
X0187284Y0112894D02*
D03*
X0170079Y0220472D02*
D03*
D21*
X0182283Y0112894D02*
D03*
X0165079Y0220472D02*
D03*
X0160079D02*
D03*
X0155079D02*
D03*
M02*
