G04*
G04 #@! TF.GenerationSoftware,Altium Limited,Altium Designer,21.7.2 (23)*
G04*
G04 Layer_Physical_Order=3*
G04 Layer_Color=16440176*
%FSAX25Y25*%
%MOIN*%
G70*
G04*
G04 #@! TF.SameCoordinates,43612BD9-7431-4496-A61A-E5E58A6AB67A*
G04*
G04*
G04 #@! TF.FilePolarity,Positive*
G04*
G01*
G75*
%ADD18C,0.05315*%
%ADD20R,0.03937X0.03937*%
%ADD21C,0.03937*%
G36*
X0160649Y0233195D02*
X0161148Y0232696D01*
X0161372Y0232156D01*
X0161417Y0231695D01*
Y0231693D01*
X0161417Y0231693D01*
X0161417Y0231693D01*
Y0229167D01*
X0161315Y0228654D01*
X0161115Y0228170D01*
X0160824Y0227735D01*
X0160454Y0227365D01*
X0160019Y0227074D01*
X0159535Y0226874D01*
X0159022Y0226772D01*
X0151378D01*
X0150879Y0226723D01*
X0149956Y0226340D01*
X0149250Y0225634D01*
X0148868Y0224712D01*
X0148819Y0224213D01*
X0148721Y0224114D01*
Y0218975D01*
X0148748Y0218689D01*
X0149163Y0216593D01*
X0149782Y0214549D01*
X0150598Y0212575D01*
X0151603Y0210690D01*
X0152788Y0208914D01*
X0153445Y0208071D01*
D01*
X0156815Y0204701D01*
X0157512Y0204004D01*
X0158606Y0202366D01*
X0159360Y0200546D01*
X0159744Y0198614D01*
X0159744Y0197629D01*
X0159744Y0197629D01*
X0159744Y0197629D01*
Y0188520D01*
X0154232D01*
X0153842Y0188442D01*
X0153511Y0188221D01*
X0153290Y0187890D01*
X0153213Y0187500D01*
Y0187402D01*
Y0146850D01*
X0153290Y0146460D01*
X0153511Y0146129D01*
X0153842Y0145908D01*
X0154232Y0145831D01*
X0170965D01*
X0171355Y0145908D01*
X0171686Y0146129D01*
X0171906Y0146460D01*
X0171984Y0146850D01*
Y0187500D01*
X0171906Y0187890D01*
X0171686Y0188221D01*
X0171355Y0188442D01*
X0170965Y0188520D01*
X0162402D01*
Y0202854D01*
Y0218110D01*
Y0221654D01*
X0162426Y0221910D01*
X0162574Y0222405D01*
X0162815Y0222861D01*
X0163141Y0223261D01*
X0163538Y0223590D01*
X0163992Y0223835D01*
X0164486Y0223987D01*
X0164999Y0224040D01*
X0165256Y0224015D01*
X0165256Y0224016D01*
X0170669Y0224016D01*
X0171023Y0223962D01*
X0171696Y0223720D01*
X0172310Y0223351D01*
X0172839Y0222869D01*
X0173264Y0222293D01*
X0173568Y0221645D01*
X0173740Y0220951D01*
X0173768Y0220346D01*
X0173721Y0219887D01*
X0173720Y0219882D01*
X0173720Y0219882D01*
X0173720Y0219882D01*
X0173721Y0215551D01*
X0173721Y0205118D01*
X0173743Y0204694D01*
X0174032Y0203898D01*
X0174603Y0203273D01*
X0175369Y0202915D01*
X0175790Y0202854D01*
X0186417D01*
X0186848Y0202854D01*
X0187644Y0202525D01*
X0188253Y0201916D01*
X0188567Y0201158D01*
X0188582Y0200696D01*
Y0200689D01*
X0188582Y0200689D01*
X0188583Y0200689D01*
Y0132522D01*
Y0132239D01*
X0188367Y0131718D01*
X0187967Y0131318D01*
X0187446Y0131102D01*
X0139020D01*
X0138525Y0131201D01*
X0138059Y0131394D01*
X0137640Y0131674D01*
X0137284Y0132030D01*
X0137004Y0132449D01*
X0136811Y0132915D01*
X0136713Y0133409D01*
Y0133661D01*
Y0232185D01*
Y0232440D01*
X0136907Y0232910D01*
X0137267Y0233270D01*
X0137738Y0233465D01*
X0159646Y0233465D01*
X0159998Y0233465D01*
X0160649Y0233195D01*
D02*
G37*
D18*
X0158661Y0229528D02*
D03*
X0150787D02*
D03*
D20*
X0170079Y0220472D02*
D03*
D21*
X0165079D02*
D03*
M02*
