G04*
G04 #@! TF.GenerationSoftware,Altium Limited,Altium Designer,21.7.2 (23)*
G04*
G04 Layer_Physical_Order=1*
G04 Layer_Color=255*
%FSAX25Y25*%
%MOIN*%
G70*
G04*
G04 #@! TF.SameCoordinates,43612BD9-7431-4496-A61A-E5E58A6AB67A*
G04*
G04*
G04 #@! TF.FilePolarity,Positive*
G04*
G01*
G75*
%ADD14C,0.04409*%
%ADD15R,0.04409X0.04409*%
%ADD18C,0.05315*%
%ADD19R,0.05315X0.05315*%
%ADD20R,0.03937X0.03937*%
%ADD21C,0.03937*%
G36*
X0187644Y0202525D02*
X0188253Y0201916D01*
X0188583Y0201120D01*
Y0200689D01*
Y0132579D01*
X0188583Y0132579D01*
X0188583Y0132285D01*
X0188358Y0131742D01*
X0187943Y0131327D01*
X0187400Y0131102D01*
X0162697D01*
X0162157Y0131076D01*
X0161097Y0130865D01*
X0160099Y0130452D01*
X0159200Y0129851D01*
X0158436Y0129087D01*
X0157836Y0128189D01*
X0157422Y0127190D01*
X0157212Y0126131D01*
X0157185Y0125591D01*
Y0111753D01*
X0156990Y0111283D01*
X0156630Y0110923D01*
X0156160Y0110728D01*
X0145768D01*
X0145768Y0110728D01*
X0145357Y0110787D01*
X0144642Y0111210D01*
X0144143Y0111875D01*
X0143937Y0112679D01*
X0143996Y0113091D01*
X0143996Y0131102D01*
X0143996Y0131102D01*
X0143996Y0131102D01*
X0144061Y0131762D01*
X0144320Y0133062D01*
X0144706Y0134330D01*
X0145214Y0135555D01*
X0145839Y0136723D01*
X0146576Y0137825D01*
X0147418Y0138850D01*
X0148355Y0139787D01*
X0148868Y0140207D01*
X0153860Y0145199D01*
X0153860Y0145199D01*
X0154232Y0145508D01*
X0154471Y0145667D01*
X0154865Y0145831D01*
X0170965D01*
X0171355Y0145908D01*
X0171686Y0146129D01*
X0171906Y0146460D01*
X0171984Y0146850D01*
Y0187500D01*
X0171906Y0187890D01*
X0171686Y0188221D01*
X0171355Y0188442D01*
X0170965Y0188520D01*
X0154232D01*
X0153842Y0188442D01*
X0153511Y0188221D01*
X0153290Y0187890D01*
X0153213Y0187500D01*
Y0146850D01*
X0153290Y0146460D01*
X0153393Y0146306D01*
X0147785Y0140699D01*
Y0140699D01*
X0147290Y0140230D01*
X0146371Y0139223D01*
X0145556Y0138131D01*
X0144851Y0136964D01*
X0144264Y0135733D01*
X0143801Y0134451D01*
X0143465Y0133130D01*
X0143261Y0131782D01*
X0143209Y0131102D01*
X0143209Y0113091D01*
X0143209Y0113091D01*
X0143287Y0112699D01*
X0143132Y0111916D01*
X0142689Y0111251D01*
X0142025Y0110807D01*
X0141634Y0110728D01*
X0129331D01*
X0129057Y0110728D01*
X0128550Y0110938D01*
X0128163Y0111326D01*
X0127953Y0111832D01*
X0127953Y0112106D01*
Y0144587D01*
Y0144861D01*
X0128163Y0145367D01*
X0128550Y0145755D01*
X0129057Y0145965D01*
X0135138D01*
X0135630Y0145965D01*
X0135630Y0145965D01*
Y0145965D01*
X0135630Y0145965D01*
X0135841Y0145985D01*
X0136231Y0146147D01*
X0136530Y0146446D01*
X0136692Y0146836D01*
X0136713Y0147047D01*
X0136713Y0199803D01*
Y0200104D01*
X0136830Y0200693D01*
X0137060Y0201248D01*
X0137394Y0201748D01*
X0137819Y0202173D01*
X0138319Y0202507D01*
X0138874Y0202737D01*
X0139463Y0202854D01*
X0186848D01*
X0187644Y0202525D01*
D02*
G37*
D14*
X0146102Y0117854D02*
D03*
X0141102D02*
D03*
Y0112854D02*
D03*
D15*
X0146102D02*
D03*
D18*
X0132087Y0105413D02*
D03*
X0139961D02*
D03*
X0147835D02*
D03*
X0172835D02*
D03*
X0180709D02*
D03*
X0188583D02*
D03*
X0166535Y0229528D02*
D03*
X0158661D02*
D03*
X0150787D02*
D03*
D19*
X0155709Y0105413D02*
D03*
X0196457D02*
D03*
X0174409Y0229528D02*
D03*
D20*
X0187284Y0112894D02*
D03*
X0170079Y0220472D02*
D03*
D21*
X0182283Y0112894D02*
D03*
X0165079Y0220472D02*
D03*
X0160079D02*
D03*
X0155079D02*
D03*
M02*
