G04*
G04 #@! TF.GenerationSoftware,Altium Limited,Altium Designer,21.7.2 (23)*
G04*
G04 Layer_Color=65535*
%FSAX25Y25*%
%MOIN*%
G70*
G04*
G04 #@! TF.SameCoordinates,43612BD9-7431-4496-A61A-E5E58A6AB67A*
G04*
G04*
G04 #@! TF.FilePolarity,Positive*
G04*
G01*
G75*
%ADD10C,0.00984*%
%ADD11C,0.00787*%
G36*
X0158916Y0136401D02*
X0158249D01*
Y0138776D01*
X0155635D01*
Y0136401D01*
X0154969D01*
Y0141442D01*
X0155635D01*
Y0139367D01*
X0158249D01*
Y0141442D01*
X0158916D01*
Y0136401D01*
D02*
G37*
G36*
X0177267Y0139352D02*
X0176563D01*
Y0140056D01*
X0177267D01*
Y0139352D01*
D02*
G37*
G36*
X0171395D02*
X0170690D01*
Y0140056D01*
X0171395D01*
Y0139352D01*
D02*
G37*
G36*
X0179963Y0141449D02*
X0180023Y0141442D01*
X0180098Y0141435D01*
X0180173Y0141427D01*
X0180263Y0141405D01*
X0180442Y0141360D01*
X0180637Y0141285D01*
X0180727Y0141240D01*
X0180817Y0141187D01*
X0180907Y0141128D01*
X0180989Y0141053D01*
X0180997Y0141045D01*
X0181004Y0141038D01*
X0181027Y0141015D01*
X0181057Y0140978D01*
X0181087Y0140940D01*
X0181124Y0140895D01*
X0181161Y0140835D01*
X0181206Y0140776D01*
X0181281Y0140633D01*
X0181349Y0140461D01*
X0181379Y0140371D01*
X0181401Y0140266D01*
X0181409Y0140169D01*
X0181416Y0140056D01*
Y0140041D01*
Y0140004D01*
X0181409Y0139944D01*
X0181401Y0139869D01*
X0181386Y0139772D01*
X0181364Y0139674D01*
X0181334Y0139570D01*
X0181289Y0139457D01*
X0181281Y0139442D01*
X0181266Y0139405D01*
X0181236Y0139352D01*
X0181191Y0139277D01*
X0181131Y0139180D01*
X0181064Y0139075D01*
X0180974Y0138963D01*
X0180877Y0138843D01*
X0180862Y0138828D01*
X0180824Y0138783D01*
X0180794Y0138753D01*
X0180749Y0138708D01*
X0180705Y0138663D01*
X0180652Y0138611D01*
X0180592Y0138551D01*
X0180517Y0138484D01*
X0180442Y0138416D01*
X0180352Y0138334D01*
X0180263Y0138251D01*
X0180158Y0138161D01*
X0180045Y0138064D01*
X0179926Y0137959D01*
X0179918Y0137952D01*
X0179903Y0137937D01*
X0179873Y0137914D01*
X0179836Y0137884D01*
X0179746Y0137802D01*
X0179626Y0137705D01*
X0179506Y0137600D01*
X0179394Y0137495D01*
X0179289Y0137398D01*
X0179252Y0137360D01*
X0179214Y0137323D01*
X0179207Y0137315D01*
X0179192Y0137293D01*
X0179162Y0137263D01*
X0179124Y0137218D01*
X0179079Y0137173D01*
X0179034Y0137113D01*
X0178952Y0136993D01*
X0181424D01*
Y0136401D01*
X0178091D01*
Y0136409D01*
Y0136439D01*
Y0136484D01*
X0178098Y0136536D01*
X0178105Y0136603D01*
X0178113Y0136671D01*
X0178136Y0136753D01*
X0178158Y0136828D01*
Y0136836D01*
X0178165Y0136843D01*
X0178180Y0136888D01*
X0178210Y0136955D01*
X0178255Y0137038D01*
X0178315Y0137143D01*
X0178383Y0137255D01*
X0178465Y0137375D01*
X0178562Y0137495D01*
Y0137502D01*
X0178577Y0137510D01*
X0178615Y0137555D01*
X0178682Y0137622D01*
X0178772Y0137712D01*
X0178884Y0137824D01*
X0179027Y0137959D01*
X0179192Y0138101D01*
X0179379Y0138259D01*
X0179386Y0138266D01*
X0179416Y0138289D01*
X0179454Y0138326D01*
X0179514Y0138371D01*
X0179581Y0138424D01*
X0179656Y0138491D01*
X0179821Y0138648D01*
X0180008Y0138813D01*
X0180188Y0138993D01*
X0180278Y0139083D01*
X0180352Y0139165D01*
X0180427Y0139248D01*
X0180487Y0139322D01*
Y0139330D01*
X0180502Y0139337D01*
X0180517Y0139360D01*
X0180532Y0139390D01*
X0180577Y0139465D01*
X0180637Y0139562D01*
X0180690Y0139682D01*
X0180735Y0139809D01*
X0180764Y0139937D01*
X0180780Y0140071D01*
Y0140079D01*
Y0140086D01*
X0180772Y0140131D01*
X0180764Y0140199D01*
X0180749Y0140289D01*
X0180712Y0140386D01*
X0180667Y0140491D01*
X0180600Y0140596D01*
X0180510Y0140693D01*
X0180495Y0140700D01*
X0180465Y0140731D01*
X0180405Y0140776D01*
X0180330Y0140820D01*
X0180225Y0140865D01*
X0180113Y0140910D01*
X0179978Y0140940D01*
X0179828Y0140948D01*
X0179783D01*
X0179753Y0140940D01*
X0179671Y0140933D01*
X0179574Y0140910D01*
X0179454Y0140880D01*
X0179334Y0140828D01*
X0179214Y0140761D01*
X0179109Y0140671D01*
X0179102Y0140656D01*
X0179072Y0140618D01*
X0179027Y0140558D01*
X0178982Y0140476D01*
X0178929Y0140371D01*
X0178892Y0140244D01*
X0178862Y0140094D01*
X0178847Y0139929D01*
X0178210Y0139997D01*
Y0140004D01*
Y0140026D01*
X0178218Y0140064D01*
X0178225Y0140116D01*
X0178240Y0140176D01*
X0178255Y0140244D01*
X0178293Y0140401D01*
X0178353Y0140573D01*
X0178443Y0140753D01*
X0178495Y0140843D01*
X0178555Y0140925D01*
X0178622Y0141008D01*
X0178697Y0141083D01*
X0178705Y0141090D01*
X0178720Y0141097D01*
X0178742Y0141120D01*
X0178772Y0141142D01*
X0178817Y0141172D01*
X0178869Y0141202D01*
X0178929Y0141232D01*
X0179004Y0141270D01*
X0179079Y0141307D01*
X0179162Y0141337D01*
X0179259Y0141367D01*
X0179364Y0141397D01*
X0179469Y0141420D01*
X0179589Y0141442D01*
X0179708Y0141449D01*
X0179843Y0141457D01*
X0179911D01*
X0179963Y0141449D01*
D02*
G37*
G36*
X0177267Y0136401D02*
X0176563D01*
Y0137105D01*
X0177267D01*
Y0136401D01*
D02*
G37*
G36*
X0171395D02*
X0170690D01*
Y0137105D01*
X0171395D01*
Y0136401D01*
D02*
G37*
G36*
X0168219Y0141449D02*
X0168279Y0141442D01*
X0168353Y0141435D01*
X0168428Y0141427D01*
X0168518Y0141405D01*
X0168698Y0141360D01*
X0168893Y0141285D01*
X0168983Y0141240D01*
X0169073Y0141187D01*
X0169162Y0141128D01*
X0169245Y0141053D01*
X0169252Y0141045D01*
X0169260Y0141038D01*
X0169282Y0141015D01*
X0169312Y0140978D01*
X0169342Y0140940D01*
X0169380Y0140895D01*
X0169417Y0140835D01*
X0169462Y0140776D01*
X0169537Y0140633D01*
X0169604Y0140461D01*
X0169634Y0140371D01*
X0169657Y0140266D01*
X0169664Y0140169D01*
X0169672Y0140056D01*
Y0140041D01*
Y0140004D01*
X0169664Y0139944D01*
X0169657Y0139869D01*
X0169642Y0139772D01*
X0169619Y0139674D01*
X0169589Y0139570D01*
X0169544Y0139457D01*
X0169537Y0139442D01*
X0169522Y0139405D01*
X0169492Y0139352D01*
X0169447Y0139277D01*
X0169387Y0139180D01*
X0169320Y0139075D01*
X0169230Y0138963D01*
X0169132Y0138843D01*
X0169117Y0138828D01*
X0169080Y0138783D01*
X0169050Y0138753D01*
X0169005Y0138708D01*
X0168960Y0138663D01*
X0168908Y0138611D01*
X0168848Y0138551D01*
X0168773Y0138484D01*
X0168698Y0138416D01*
X0168608Y0138334D01*
X0168518Y0138251D01*
X0168413Y0138161D01*
X0168301Y0138064D01*
X0168181Y0137959D01*
X0168174Y0137952D01*
X0168159Y0137937D01*
X0168129Y0137914D01*
X0168091Y0137884D01*
X0168001Y0137802D01*
X0167882Y0137705D01*
X0167762Y0137600D01*
X0167649Y0137495D01*
X0167545Y0137398D01*
X0167507Y0137360D01*
X0167470Y0137323D01*
X0167462Y0137315D01*
X0167447Y0137293D01*
X0167417Y0137263D01*
X0167380Y0137218D01*
X0167335Y0137173D01*
X0167290Y0137113D01*
X0167208Y0136993D01*
X0169679D01*
Y0136401D01*
X0166346D01*
Y0136409D01*
Y0136439D01*
Y0136484D01*
X0166354Y0136536D01*
X0166361Y0136603D01*
X0166369Y0136671D01*
X0166391Y0136753D01*
X0166414Y0136828D01*
Y0136836D01*
X0166421Y0136843D01*
X0166436Y0136888D01*
X0166466Y0136955D01*
X0166511Y0137038D01*
X0166571Y0137143D01*
X0166638Y0137255D01*
X0166721Y0137375D01*
X0166818Y0137495D01*
Y0137502D01*
X0166833Y0137510D01*
X0166870Y0137555D01*
X0166938Y0137622D01*
X0167028Y0137712D01*
X0167140Y0137824D01*
X0167282Y0137959D01*
X0167447Y0138101D01*
X0167634Y0138259D01*
X0167642Y0138266D01*
X0167672Y0138289D01*
X0167709Y0138326D01*
X0167769Y0138371D01*
X0167837Y0138424D01*
X0167912Y0138491D01*
X0168076Y0138648D01*
X0168264Y0138813D01*
X0168443Y0138993D01*
X0168533Y0139083D01*
X0168608Y0139165D01*
X0168683Y0139248D01*
X0168743Y0139322D01*
Y0139330D01*
X0168758Y0139337D01*
X0168773Y0139360D01*
X0168788Y0139390D01*
X0168833Y0139465D01*
X0168893Y0139562D01*
X0168945Y0139682D01*
X0168990Y0139809D01*
X0169020Y0139937D01*
X0169035Y0140071D01*
Y0140079D01*
Y0140086D01*
X0169028Y0140131D01*
X0169020Y0140199D01*
X0169005Y0140289D01*
X0168968Y0140386D01*
X0168923Y0140491D01*
X0168855Y0140596D01*
X0168765Y0140693D01*
X0168751Y0140700D01*
X0168721Y0140731D01*
X0168661Y0140776D01*
X0168586Y0140820D01*
X0168481Y0140865D01*
X0168368Y0140910D01*
X0168234Y0140940D01*
X0168084Y0140948D01*
X0168039D01*
X0168009Y0140940D01*
X0167927Y0140933D01*
X0167829Y0140910D01*
X0167709Y0140880D01*
X0167590Y0140828D01*
X0167470Y0140761D01*
X0167365Y0140671D01*
X0167357Y0140656D01*
X0167327Y0140618D01*
X0167282Y0140558D01*
X0167237Y0140476D01*
X0167185Y0140371D01*
X0167148Y0140244D01*
X0167118Y0140094D01*
X0167103Y0139929D01*
X0166466Y0139997D01*
Y0140004D01*
Y0140026D01*
X0166474Y0140064D01*
X0166481Y0140116D01*
X0166496Y0140176D01*
X0166511Y0140244D01*
X0166549Y0140401D01*
X0166608Y0140573D01*
X0166698Y0140753D01*
X0166751Y0140843D01*
X0166811Y0140925D01*
X0166878Y0141008D01*
X0166953Y0141083D01*
X0166960Y0141090D01*
X0166975Y0141097D01*
X0166998Y0141120D01*
X0167028Y0141142D01*
X0167073Y0141172D01*
X0167125Y0141202D01*
X0167185Y0141232D01*
X0167260Y0141270D01*
X0167335Y0141307D01*
X0167417Y0141337D01*
X0167515Y0141367D01*
X0167620Y0141397D01*
X0167724Y0141420D01*
X0167844Y0141442D01*
X0167964Y0141449D01*
X0168099Y0141457D01*
X0168166D01*
X0168219Y0141449D01*
D02*
G37*
G36*
X0162032Y0141435D02*
X0162092D01*
X0162219Y0141420D01*
X0162369Y0141405D01*
X0162519Y0141375D01*
X0162676Y0141337D01*
X0162811Y0141285D01*
X0162818D01*
X0162826Y0141277D01*
X0162871Y0141255D01*
X0162931Y0141217D01*
X0163013Y0141172D01*
X0163103Y0141105D01*
X0163193Y0141023D01*
X0163275Y0140925D01*
X0163358Y0140813D01*
X0163365Y0140798D01*
X0163388Y0140761D01*
X0163425Y0140693D01*
X0163463Y0140611D01*
X0163493Y0140513D01*
X0163530Y0140401D01*
X0163552Y0140274D01*
X0163560Y0140146D01*
Y0140131D01*
Y0140094D01*
X0163552Y0140026D01*
X0163538Y0139952D01*
X0163515Y0139854D01*
X0163485Y0139757D01*
X0163440Y0139645D01*
X0163380Y0139540D01*
X0163373Y0139525D01*
X0163350Y0139495D01*
X0163305Y0139442D01*
X0163253Y0139375D01*
X0163178Y0139300D01*
X0163081Y0139225D01*
X0162976Y0139150D01*
X0162848Y0139083D01*
X0162856D01*
X0162871Y0139075D01*
X0162893Y0139068D01*
X0162923Y0139060D01*
X0163006Y0139023D01*
X0163110Y0138978D01*
X0163223Y0138910D01*
X0163335Y0138828D01*
X0163455Y0138731D01*
X0163552Y0138618D01*
X0163560Y0138603D01*
X0163590Y0138558D01*
X0163635Y0138491D01*
X0163680Y0138401D01*
X0163725Y0138289D01*
X0163770Y0138161D01*
X0163800Y0138019D01*
X0163807Y0137862D01*
Y0137854D01*
Y0137847D01*
Y0137802D01*
X0163800Y0137734D01*
X0163792Y0137645D01*
X0163770Y0137540D01*
X0163747Y0137427D01*
X0163710Y0137315D01*
X0163657Y0137195D01*
X0163650Y0137180D01*
X0163627Y0137143D01*
X0163597Y0137090D01*
X0163552Y0137023D01*
X0163500Y0136948D01*
X0163440Y0136873D01*
X0163365Y0136798D01*
X0163283Y0136731D01*
X0163275Y0136723D01*
X0163245Y0136701D01*
X0163193Y0136671D01*
X0163133Y0136641D01*
X0163051Y0136596D01*
X0162961Y0136559D01*
X0162848Y0136521D01*
X0162729Y0136484D01*
X0162714D01*
X0162669Y0136469D01*
X0162601Y0136461D01*
X0162504Y0136446D01*
X0162384Y0136431D01*
X0162249Y0136416D01*
X0162092Y0136409D01*
X0161920Y0136401D01*
X0160002D01*
Y0141442D01*
X0161987D01*
X0162032Y0141435D01*
D02*
G37*
G36*
X0152303Y0140850D02*
X0150640D01*
Y0136401D01*
X0149973D01*
Y0140850D01*
X0148310D01*
Y0141442D01*
X0152303D01*
Y0140850D01*
D02*
G37*
G36*
X0146176Y0141435D02*
X0146295Y0141427D01*
X0146423Y0141420D01*
X0146550Y0141405D01*
X0146655Y0141390D01*
X0146670D01*
X0146715Y0141375D01*
X0146790Y0141360D01*
X0146872Y0141337D01*
X0146970Y0141307D01*
X0147074Y0141270D01*
X0147179Y0141217D01*
X0147277Y0141157D01*
X0147292Y0141150D01*
X0147322Y0141128D01*
X0147367Y0141090D01*
X0147426Y0141030D01*
X0147486Y0140963D01*
X0147554Y0140880D01*
X0147621Y0140783D01*
X0147681Y0140671D01*
X0147689Y0140656D01*
X0147704Y0140618D01*
X0147734Y0140551D01*
X0147764Y0140468D01*
X0147786Y0140364D01*
X0147816Y0140251D01*
X0147831Y0140116D01*
X0147838Y0139981D01*
Y0139974D01*
Y0139952D01*
Y0139922D01*
X0147831Y0139877D01*
X0147824Y0139817D01*
X0147816Y0139757D01*
X0147801Y0139682D01*
X0147786Y0139607D01*
X0147741Y0139435D01*
X0147666Y0139255D01*
X0147621Y0139158D01*
X0147561Y0139068D01*
X0147501Y0138978D01*
X0147426Y0138895D01*
X0147419Y0138888D01*
X0147404Y0138873D01*
X0147381Y0138858D01*
X0147344Y0138828D01*
X0147299Y0138791D01*
X0147239Y0138753D01*
X0147172Y0138716D01*
X0147089Y0138678D01*
X0146992Y0138633D01*
X0146887Y0138596D01*
X0146767Y0138558D01*
X0146633Y0138521D01*
X0146483Y0138491D01*
X0146318Y0138476D01*
X0146146Y0138461D01*
X0145951Y0138453D01*
X0144663D01*
Y0136401D01*
X0143996D01*
Y0141442D01*
X0146063D01*
X0146176Y0141435D01*
D02*
G37*
G36*
X0174053Y0141449D02*
X0174106Y0141442D01*
X0174173Y0141435D01*
X0174323Y0141412D01*
X0174488Y0141360D01*
X0174668Y0141292D01*
X0174758Y0141247D01*
X0174840Y0141195D01*
X0174930Y0141135D01*
X0175005Y0141068D01*
X0175012Y0141060D01*
X0175020Y0141053D01*
X0175042Y0141030D01*
X0175065Y0141000D01*
X0175102Y0140963D01*
X0175132Y0140918D01*
X0175207Y0140805D01*
X0175282Y0140671D01*
X0175349Y0140513D01*
X0175394Y0140333D01*
X0175402Y0140236D01*
X0175409Y0140139D01*
Y0140131D01*
Y0140124D01*
Y0140079D01*
X0175402Y0140012D01*
X0175387Y0139929D01*
X0175364Y0139832D01*
X0175327Y0139734D01*
X0175282Y0139629D01*
X0175222Y0139525D01*
X0175214Y0139517D01*
X0175184Y0139480D01*
X0175139Y0139435D01*
X0175080Y0139382D01*
X0175005Y0139315D01*
X0174907Y0139248D01*
X0174795Y0139188D01*
X0174660Y0139128D01*
X0174668D01*
X0174683Y0139120D01*
X0174705Y0139113D01*
X0174735Y0139098D01*
X0174825Y0139060D01*
X0174930Y0139008D01*
X0175042Y0138940D01*
X0175162Y0138858D01*
X0175274Y0138761D01*
X0175372Y0138641D01*
X0175379Y0138626D01*
X0175409Y0138581D01*
X0175447Y0138514D01*
X0175499Y0138416D01*
X0175544Y0138296D01*
X0175581Y0138161D01*
X0175611Y0138004D01*
X0175619Y0137839D01*
Y0137832D01*
Y0137809D01*
Y0137779D01*
X0175611Y0137734D01*
X0175604Y0137675D01*
X0175596Y0137615D01*
X0175581Y0137540D01*
X0175559Y0137465D01*
X0175506Y0137293D01*
X0175469Y0137203D01*
X0175424Y0137113D01*
X0175372Y0137015D01*
X0175304Y0136926D01*
X0175237Y0136836D01*
X0175154Y0136753D01*
X0175147Y0136746D01*
X0175132Y0136738D01*
X0175110Y0136716D01*
X0175072Y0136686D01*
X0175027Y0136656D01*
X0174975Y0136618D01*
X0174907Y0136574D01*
X0174832Y0136536D01*
X0174750Y0136499D01*
X0174660Y0136454D01*
X0174563Y0136416D01*
X0174458Y0136386D01*
X0174346Y0136356D01*
X0174218Y0136341D01*
X0174091Y0136326D01*
X0173956Y0136319D01*
X0173881D01*
X0173829Y0136326D01*
X0173769Y0136334D01*
X0173694Y0136341D01*
X0173611Y0136356D01*
X0173522Y0136371D01*
X0173334Y0136424D01*
X0173230Y0136461D01*
X0173132Y0136506D01*
X0173035Y0136551D01*
X0172930Y0136611D01*
X0172840Y0136678D01*
X0172750Y0136753D01*
X0172743Y0136761D01*
X0172728Y0136776D01*
X0172705Y0136798D01*
X0172683Y0136836D01*
X0172645Y0136873D01*
X0172608Y0136926D01*
X0172563Y0136986D01*
X0172526Y0137060D01*
X0172480Y0137135D01*
X0172436Y0137218D01*
X0172368Y0137405D01*
X0172338Y0137510D01*
X0172316Y0137615D01*
X0172301Y0137734D01*
X0172293Y0137854D01*
Y0137862D01*
Y0137877D01*
Y0137899D01*
X0172301Y0137937D01*
Y0137982D01*
X0172308Y0138027D01*
X0172323Y0138146D01*
X0172353Y0138274D01*
X0172398Y0138409D01*
X0172458Y0138551D01*
X0172540Y0138678D01*
Y0138686D01*
X0172555Y0138693D01*
X0172585Y0138731D01*
X0172645Y0138791D01*
X0172720Y0138858D01*
X0172825Y0138933D01*
X0172945Y0139008D01*
X0173087Y0139075D01*
X0173252Y0139128D01*
X0173245D01*
X0173237Y0139135D01*
X0173192Y0139158D01*
X0173117Y0139188D01*
X0173035Y0139233D01*
X0172937Y0139292D01*
X0172848Y0139360D01*
X0172758Y0139442D01*
X0172675Y0139532D01*
X0172668Y0139547D01*
X0172645Y0139577D01*
X0172615Y0139637D01*
X0172585Y0139712D01*
X0172555Y0139802D01*
X0172526Y0139907D01*
X0172503Y0140026D01*
X0172495Y0140154D01*
Y0140161D01*
Y0140176D01*
Y0140206D01*
X0172503Y0140244D01*
X0172511Y0140296D01*
X0172518Y0140348D01*
X0172548Y0140476D01*
X0172593Y0140626D01*
X0172660Y0140783D01*
X0172705Y0140858D01*
X0172758Y0140933D01*
X0172818Y0141008D01*
X0172885Y0141083D01*
X0172892Y0141090D01*
X0172900Y0141097D01*
X0172930Y0141120D01*
X0172960Y0141142D01*
X0172997Y0141172D01*
X0173042Y0141202D01*
X0173102Y0141232D01*
X0173170Y0141270D01*
X0173237Y0141307D01*
X0173319Y0141337D01*
X0173499Y0141397D01*
X0173709Y0141442D01*
X0173821Y0141449D01*
X0173941Y0141457D01*
X0174009D01*
X0174053Y0141449D01*
D02*
G37*
G36*
X0173428Y0215181D02*
X0173479Y0215175D01*
X0173537Y0215169D01*
X0173599Y0215164D01*
X0173673Y0215152D01*
X0173822Y0215112D01*
X0173988Y0215061D01*
X0174067Y0215026D01*
X0174147Y0214987D01*
X0174227Y0214941D01*
X0174302Y0214890D01*
X0174307Y0214884D01*
X0174319Y0214878D01*
X0174342Y0214861D01*
X0174364Y0214838D01*
X0174399Y0214804D01*
X0174433Y0214770D01*
X0174473Y0214724D01*
X0174519Y0214678D01*
X0174564Y0214621D01*
X0174610Y0214558D01*
X0174656Y0214495D01*
X0174701Y0214421D01*
X0174747Y0214341D01*
X0174787Y0214256D01*
X0174821Y0214164D01*
X0174855Y0214067D01*
X0174353Y0213947D01*
Y0213953D01*
X0174347Y0213965D01*
X0174342Y0213987D01*
X0174330Y0214016D01*
X0174313Y0214050D01*
X0174296Y0214090D01*
X0174250Y0214181D01*
X0174199Y0214279D01*
X0174130Y0214381D01*
X0174050Y0214478D01*
X0173959Y0214558D01*
X0173948Y0214564D01*
X0173913Y0214587D01*
X0173862Y0214621D01*
X0173788Y0214655D01*
X0173696Y0214690D01*
X0173588Y0214724D01*
X0173462Y0214747D01*
X0173325Y0214752D01*
X0173280D01*
X0173251Y0214747D01*
X0173211D01*
X0173171Y0214741D01*
X0173068Y0214724D01*
X0172948Y0214701D01*
X0172823Y0214661D01*
X0172703Y0214610D01*
X0172583Y0214535D01*
X0172577D01*
X0172572Y0214524D01*
X0172537Y0214495D01*
X0172480Y0214450D01*
X0172417Y0214387D01*
X0172349Y0214301D01*
X0172280Y0214204D01*
X0172218Y0214090D01*
X0172166Y0213965D01*
Y0213959D01*
X0172160Y0213947D01*
X0172155Y0213930D01*
X0172149Y0213902D01*
X0172137Y0213873D01*
X0172126Y0213833D01*
X0172109Y0213742D01*
X0172086Y0213628D01*
X0172063Y0213502D01*
X0172052Y0213371D01*
X0172046Y0213228D01*
Y0213222D01*
Y0213205D01*
Y0213182D01*
Y0213148D01*
X0172052Y0213102D01*
Y0213051D01*
X0172058Y0213000D01*
X0172063Y0212937D01*
X0172080Y0212805D01*
X0172109Y0212657D01*
X0172143Y0212514D01*
X0172189Y0212371D01*
Y0212366D01*
X0172195Y0212354D01*
X0172206Y0212337D01*
X0172218Y0212314D01*
X0172252Y0212246D01*
X0172297Y0212166D01*
X0172360Y0212074D01*
X0172434Y0211989D01*
X0172526Y0211897D01*
X0172629Y0211823D01*
X0172634D01*
X0172640Y0211818D01*
X0172657Y0211806D01*
X0172680Y0211795D01*
X0172743Y0211766D01*
X0172823Y0211738D01*
X0172920Y0211703D01*
X0173034Y0211675D01*
X0173154Y0211652D01*
X0173285Y0211646D01*
X0173325D01*
X0173354Y0211652D01*
X0173394D01*
X0173434Y0211658D01*
X0173537Y0211675D01*
X0173645Y0211709D01*
X0173765Y0211749D01*
X0173890Y0211812D01*
X0173948Y0211846D01*
X0174005Y0211892D01*
X0174010Y0211897D01*
X0174016Y0211903D01*
X0174033Y0211920D01*
X0174050Y0211937D01*
X0174079Y0211966D01*
X0174102Y0211995D01*
X0174165Y0212074D01*
X0174233Y0212177D01*
X0174302Y0212303D01*
X0174364Y0212451D01*
X0174410Y0212623D01*
X0174918Y0212491D01*
Y0212486D01*
X0174913Y0212463D01*
X0174901Y0212434D01*
X0174890Y0212388D01*
X0174867Y0212337D01*
X0174844Y0212274D01*
X0174821Y0212211D01*
X0174787Y0212137D01*
X0174707Y0211983D01*
X0174610Y0211829D01*
X0174547Y0211749D01*
X0174484Y0211675D01*
X0174416Y0211600D01*
X0174342Y0211538D01*
X0174336Y0211532D01*
X0174325Y0211526D01*
X0174302Y0211509D01*
X0174267Y0211486D01*
X0174227Y0211463D01*
X0174176Y0211435D01*
X0174125Y0211406D01*
X0174056Y0211378D01*
X0173988Y0211344D01*
X0173908Y0211315D01*
X0173828Y0211286D01*
X0173736Y0211264D01*
X0173639Y0211241D01*
X0173542Y0211224D01*
X0173434Y0211218D01*
X0173325Y0211212D01*
X0173268D01*
X0173222Y0211218D01*
X0173171D01*
X0173108Y0211224D01*
X0173040Y0211235D01*
X0172966Y0211246D01*
X0172806Y0211275D01*
X0172634Y0211321D01*
X0172469Y0211384D01*
X0172389Y0211418D01*
X0172315Y0211463D01*
X0172309Y0211469D01*
X0172297Y0211475D01*
X0172280Y0211492D01*
X0172252Y0211509D01*
X0172218Y0211538D01*
X0172183Y0211566D01*
X0172098Y0211652D01*
X0172001Y0211755D01*
X0171898Y0211880D01*
X0171806Y0212023D01*
X0171721Y0212194D01*
Y0212200D01*
X0171715Y0212217D01*
X0171704Y0212240D01*
X0171692Y0212280D01*
X0171675Y0212320D01*
X0171658Y0212377D01*
X0171641Y0212434D01*
X0171624Y0212503D01*
X0171601Y0212577D01*
X0171584Y0212657D01*
X0171555Y0212834D01*
X0171532Y0213022D01*
X0171521Y0213228D01*
Y0213234D01*
Y0213256D01*
Y0213285D01*
X0171527Y0213331D01*
Y0213382D01*
X0171532Y0213439D01*
X0171538Y0213508D01*
X0171549Y0213582D01*
X0171578Y0213748D01*
X0171618Y0213925D01*
X0171675Y0214102D01*
X0171749Y0214273D01*
Y0214279D01*
X0171761Y0214290D01*
X0171772Y0214313D01*
X0171789Y0214347D01*
X0171818Y0214381D01*
X0171846Y0214427D01*
X0171915Y0214524D01*
X0172006Y0214633D01*
X0172120Y0214747D01*
X0172252Y0214855D01*
X0172400Y0214952D01*
X0172406D01*
X0172417Y0214964D01*
X0172440Y0214975D01*
X0172474Y0214987D01*
X0172514Y0215009D01*
X0172560Y0215026D01*
X0172617Y0215049D01*
X0172674Y0215072D01*
X0172743Y0215089D01*
X0172811Y0215112D01*
X0172971Y0215152D01*
X0173143Y0215175D01*
X0173331Y0215186D01*
X0173388D01*
X0173428Y0215181D01*
D02*
G37*
G36*
X0162984D02*
X0163036Y0215175D01*
X0163093Y0215169D01*
X0163156Y0215164D01*
X0163230Y0215152D01*
X0163378Y0215112D01*
X0163544Y0215061D01*
X0163624Y0215026D01*
X0163704Y0214987D01*
X0163784Y0214941D01*
X0163858Y0214890D01*
X0163864Y0214884D01*
X0163875Y0214878D01*
X0163898Y0214861D01*
X0163921Y0214838D01*
X0163955Y0214804D01*
X0163989Y0214770D01*
X0164029Y0214724D01*
X0164075Y0214678D01*
X0164121Y0214621D01*
X0164166Y0214558D01*
X0164212Y0214495D01*
X0164258Y0214421D01*
X0164303Y0214341D01*
X0164343Y0214256D01*
X0164378Y0214164D01*
X0164412Y0214067D01*
X0163909Y0213947D01*
Y0213953D01*
X0163904Y0213965D01*
X0163898Y0213987D01*
X0163887Y0214016D01*
X0163869Y0214050D01*
X0163852Y0214090D01*
X0163807Y0214181D01*
X0163755Y0214279D01*
X0163687Y0214381D01*
X0163607Y0214478D01*
X0163515Y0214558D01*
X0163504Y0214564D01*
X0163470Y0214587D01*
X0163418Y0214621D01*
X0163344Y0214655D01*
X0163253Y0214690D01*
X0163144Y0214724D01*
X0163019Y0214747D01*
X0162882Y0214752D01*
X0162836D01*
X0162807Y0214747D01*
X0162767D01*
X0162727Y0214741D01*
X0162625Y0214724D01*
X0162505Y0214701D01*
X0162379Y0214661D01*
X0162259Y0214610D01*
X0162139Y0214535D01*
X0162134D01*
X0162128Y0214524D01*
X0162094Y0214495D01*
X0162037Y0214450D01*
X0161974Y0214387D01*
X0161905Y0214301D01*
X0161837Y0214204D01*
X0161774Y0214090D01*
X0161723Y0213965D01*
Y0213959D01*
X0161717Y0213947D01*
X0161711Y0213930D01*
X0161705Y0213902D01*
X0161694Y0213873D01*
X0161682Y0213833D01*
X0161665Y0213742D01*
X0161643Y0213628D01*
X0161620Y0213502D01*
X0161608Y0213371D01*
X0161603Y0213228D01*
Y0213222D01*
Y0213205D01*
Y0213182D01*
Y0213148D01*
X0161608Y0213102D01*
Y0213051D01*
X0161614Y0213000D01*
X0161620Y0212937D01*
X0161637Y0212805D01*
X0161665Y0212657D01*
X0161700Y0212514D01*
X0161745Y0212371D01*
Y0212366D01*
X0161751Y0212354D01*
X0161762Y0212337D01*
X0161774Y0212314D01*
X0161808Y0212246D01*
X0161854Y0212166D01*
X0161917Y0212074D01*
X0161991Y0211989D01*
X0162082Y0211897D01*
X0162185Y0211823D01*
X0162191D01*
X0162196Y0211818D01*
X0162214Y0211806D01*
X0162236Y0211795D01*
X0162299Y0211766D01*
X0162379Y0211738D01*
X0162476Y0211703D01*
X0162590Y0211675D01*
X0162710Y0211652D01*
X0162842Y0211646D01*
X0162882D01*
X0162910Y0211652D01*
X0162950D01*
X0162990Y0211658D01*
X0163093Y0211675D01*
X0163201Y0211709D01*
X0163321Y0211749D01*
X0163447Y0211812D01*
X0163504Y0211846D01*
X0163561Y0211892D01*
X0163567Y0211897D01*
X0163573Y0211903D01*
X0163590Y0211920D01*
X0163607Y0211937D01*
X0163635Y0211966D01*
X0163658Y0211995D01*
X0163721Y0212074D01*
X0163789Y0212177D01*
X0163858Y0212303D01*
X0163921Y0212451D01*
X0163967Y0212623D01*
X0164475Y0212491D01*
Y0212486D01*
X0164469Y0212463D01*
X0164458Y0212434D01*
X0164446Y0212388D01*
X0164423Y0212337D01*
X0164400Y0212274D01*
X0164378Y0212211D01*
X0164343Y0212137D01*
X0164263Y0211983D01*
X0164166Y0211829D01*
X0164103Y0211749D01*
X0164041Y0211675D01*
X0163972Y0211600D01*
X0163898Y0211538D01*
X0163892Y0211532D01*
X0163881Y0211526D01*
X0163858Y0211509D01*
X0163824Y0211486D01*
X0163784Y0211463D01*
X0163732Y0211435D01*
X0163681Y0211406D01*
X0163612Y0211378D01*
X0163544Y0211344D01*
X0163464Y0211315D01*
X0163384Y0211286D01*
X0163293Y0211264D01*
X0163196Y0211241D01*
X0163099Y0211224D01*
X0162990Y0211218D01*
X0162882Y0211212D01*
X0162824D01*
X0162779Y0211218D01*
X0162727D01*
X0162665Y0211224D01*
X0162596Y0211235D01*
X0162522Y0211246D01*
X0162362Y0211275D01*
X0162191Y0211321D01*
X0162025Y0211384D01*
X0161945Y0211418D01*
X0161871Y0211463D01*
X0161865Y0211469D01*
X0161854Y0211475D01*
X0161837Y0211492D01*
X0161808Y0211509D01*
X0161774Y0211538D01*
X0161740Y0211566D01*
X0161654Y0211652D01*
X0161557Y0211755D01*
X0161454Y0211880D01*
X0161363Y0212023D01*
X0161277Y0212194D01*
Y0212200D01*
X0161271Y0212217D01*
X0161260Y0212240D01*
X0161249Y0212280D01*
X0161231Y0212320D01*
X0161214Y0212377D01*
X0161197Y0212434D01*
X0161180Y0212503D01*
X0161157Y0212577D01*
X0161140Y0212657D01*
X0161111Y0212834D01*
X0161089Y0213022D01*
X0161077Y0213228D01*
Y0213234D01*
Y0213256D01*
Y0213285D01*
X0161083Y0213331D01*
Y0213382D01*
X0161089Y0213439D01*
X0161094Y0213508D01*
X0161106Y0213582D01*
X0161134Y0213748D01*
X0161174Y0213925D01*
X0161231Y0214102D01*
X0161306Y0214273D01*
Y0214279D01*
X0161317Y0214290D01*
X0161328Y0214313D01*
X0161346Y0214347D01*
X0161374Y0214381D01*
X0161403Y0214427D01*
X0161471Y0214524D01*
X0161563Y0214633D01*
X0161677Y0214747D01*
X0161808Y0214855D01*
X0161957Y0214952D01*
X0161962D01*
X0161974Y0214964D01*
X0161997Y0214975D01*
X0162031Y0214987D01*
X0162071Y0215009D01*
X0162117Y0215026D01*
X0162174Y0215049D01*
X0162231Y0215072D01*
X0162299Y0215089D01*
X0162368Y0215112D01*
X0162528Y0215152D01*
X0162699Y0215175D01*
X0162887Y0215186D01*
X0162944D01*
X0162984Y0215181D01*
D02*
G37*
G36*
X0180708Y0211275D02*
X0180234D01*
Y0214273D01*
X0180229Y0214267D01*
X0180206Y0214244D01*
X0180166Y0214216D01*
X0180114Y0214170D01*
X0180052Y0214124D01*
X0179972Y0214067D01*
X0179880Y0214010D01*
X0179783Y0213947D01*
X0179778D01*
X0179772Y0213942D01*
X0179737Y0213919D01*
X0179686Y0213890D01*
X0179618Y0213856D01*
X0179543Y0213816D01*
X0179463Y0213782D01*
X0179378Y0213742D01*
X0179292Y0213707D01*
Y0214164D01*
X0179298D01*
X0179309Y0214170D01*
X0179332Y0214181D01*
X0179361Y0214199D01*
X0179395Y0214216D01*
X0179435Y0214239D01*
X0179526Y0214290D01*
X0179635Y0214353D01*
X0179749Y0214427D01*
X0179863Y0214513D01*
X0179977Y0214610D01*
X0179983Y0214615D01*
X0179989Y0214621D01*
X0180029Y0214655D01*
X0180080Y0214707D01*
X0180143Y0214775D01*
X0180211Y0214855D01*
X0180280Y0214941D01*
X0180349Y0215032D01*
X0180400Y0215129D01*
X0180708D01*
Y0211275D01*
D02*
G37*
G36*
X0177071Y0215112D02*
X0177117D01*
X0177214Y0215101D01*
X0177328Y0215089D01*
X0177442Y0215067D01*
X0177562Y0215038D01*
X0177665Y0214998D01*
X0177671D01*
X0177676Y0214992D01*
X0177710Y0214975D01*
X0177756Y0214947D01*
X0177819Y0214912D01*
X0177887Y0214861D01*
X0177956Y0214798D01*
X0178019Y0214724D01*
X0178082Y0214638D01*
X0178087Y0214627D01*
X0178104Y0214598D01*
X0178133Y0214547D01*
X0178162Y0214484D01*
X0178184Y0214410D01*
X0178213Y0214324D01*
X0178230Y0214227D01*
X0178236Y0214130D01*
Y0214119D01*
Y0214090D01*
X0178230Y0214039D01*
X0178219Y0213982D01*
X0178201Y0213907D01*
X0178179Y0213833D01*
X0178144Y0213748D01*
X0178099Y0213667D01*
X0178093Y0213656D01*
X0178076Y0213633D01*
X0178042Y0213593D01*
X0178002Y0213542D01*
X0177945Y0213485D01*
X0177870Y0213428D01*
X0177790Y0213371D01*
X0177693Y0213319D01*
X0177699D01*
X0177710Y0213314D01*
X0177728Y0213308D01*
X0177751Y0213302D01*
X0177813Y0213274D01*
X0177893Y0213239D01*
X0177979Y0213188D01*
X0178065Y0213125D01*
X0178156Y0213051D01*
X0178230Y0212965D01*
X0178236Y0212954D01*
X0178259Y0212919D01*
X0178293Y0212868D01*
X0178327Y0212800D01*
X0178361Y0212714D01*
X0178396Y0212617D01*
X0178419Y0212508D01*
X0178424Y0212388D01*
Y0212383D01*
Y0212377D01*
Y0212343D01*
X0178419Y0212291D01*
X0178413Y0212223D01*
X0178396Y0212143D01*
X0178378Y0212057D01*
X0178350Y0211972D01*
X0178310Y0211880D01*
X0178304Y0211869D01*
X0178287Y0211840D01*
X0178264Y0211800D01*
X0178230Y0211749D01*
X0178190Y0211692D01*
X0178144Y0211635D01*
X0178087Y0211578D01*
X0178024Y0211526D01*
X0178019Y0211521D01*
X0177996Y0211504D01*
X0177956Y0211481D01*
X0177910Y0211458D01*
X0177848Y0211423D01*
X0177779Y0211395D01*
X0177693Y0211366D01*
X0177602Y0211338D01*
X0177591D01*
X0177556Y0211327D01*
X0177505Y0211321D01*
X0177431Y0211309D01*
X0177339Y0211298D01*
X0177237Y0211286D01*
X0177117Y0211281D01*
X0176985Y0211275D01*
X0175524D01*
Y0215118D01*
X0177037D01*
X0177071Y0215112D01*
D02*
G37*
G36*
X0169751D02*
X0169842Y0215107D01*
X0169939Y0215101D01*
X0170036Y0215089D01*
X0170116Y0215078D01*
X0170128D01*
X0170162Y0215067D01*
X0170219Y0215055D01*
X0170282Y0215038D01*
X0170356Y0215015D01*
X0170436Y0214987D01*
X0170516Y0214947D01*
X0170590Y0214901D01*
X0170601Y0214895D01*
X0170624Y0214878D01*
X0170659Y0214849D01*
X0170704Y0214804D01*
X0170750Y0214752D01*
X0170801Y0214690D01*
X0170853Y0214615D01*
X0170898Y0214530D01*
X0170904Y0214518D01*
X0170916Y0214490D01*
X0170938Y0214438D01*
X0170961Y0214376D01*
X0170978Y0214296D01*
X0171001Y0214210D01*
X0171013Y0214107D01*
X0171018Y0214004D01*
Y0213999D01*
Y0213982D01*
Y0213959D01*
X0171013Y0213925D01*
X0171007Y0213879D01*
X0171001Y0213833D01*
X0170990Y0213776D01*
X0170978Y0213719D01*
X0170944Y0213588D01*
X0170887Y0213451D01*
X0170853Y0213376D01*
X0170807Y0213308D01*
X0170761Y0213239D01*
X0170704Y0213176D01*
X0170699Y0213171D01*
X0170687Y0213159D01*
X0170670Y0213148D01*
X0170642Y0213125D01*
X0170607Y0213096D01*
X0170562Y0213068D01*
X0170510Y0213039D01*
X0170447Y0213011D01*
X0170373Y0212977D01*
X0170293Y0212948D01*
X0170202Y0212919D01*
X0170099Y0212891D01*
X0169985Y0212868D01*
X0169859Y0212857D01*
X0169728Y0212845D01*
X0169579Y0212840D01*
X0168597D01*
Y0211275D01*
X0168089D01*
Y0215118D01*
X0169665D01*
X0169751Y0215112D01*
D02*
G37*
G36*
X0157343Y0211275D02*
X0156835D01*
Y0215118D01*
X0157343D01*
Y0211275D01*
D02*
G37*
G36*
X0154705Y0215112D02*
X0154756D01*
X0154870Y0215107D01*
X0154996Y0215089D01*
X0155122Y0215072D01*
X0155247Y0215044D01*
X0155304Y0215026D01*
X0155356Y0215009D01*
X0155361D01*
X0155367Y0215004D01*
X0155402Y0214992D01*
X0155447Y0214964D01*
X0155510Y0214924D01*
X0155578Y0214872D01*
X0155653Y0214809D01*
X0155721Y0214735D01*
X0155784Y0214644D01*
X0155790Y0214633D01*
X0155813Y0214598D01*
X0155835Y0214547D01*
X0155870Y0214473D01*
X0155898Y0214387D01*
X0155927Y0214290D01*
X0155944Y0214181D01*
X0155950Y0214067D01*
Y0214061D01*
Y0214050D01*
Y0214027D01*
X0155944Y0213999D01*
Y0213965D01*
X0155938Y0213925D01*
X0155915Y0213827D01*
X0155887Y0213719D01*
X0155835Y0213605D01*
X0155773Y0213485D01*
X0155727Y0213428D01*
X0155681Y0213376D01*
X0155676Y0213371D01*
X0155670Y0213365D01*
X0155653Y0213348D01*
X0155630Y0213331D01*
X0155601Y0213308D01*
X0155567Y0213285D01*
X0155527Y0213256D01*
X0155481Y0213228D01*
X0155424Y0213199D01*
X0155367Y0213165D01*
X0155299Y0213137D01*
X0155225Y0213108D01*
X0155145Y0213085D01*
X0155059Y0213057D01*
X0154968Y0213039D01*
X0154865Y0213022D01*
X0154876Y0213017D01*
X0154899Y0213005D01*
X0154933Y0212988D01*
X0154979Y0212960D01*
X0155082Y0212902D01*
X0155127Y0212862D01*
X0155173Y0212828D01*
X0155184Y0212817D01*
X0155213Y0212794D01*
X0155253Y0212748D01*
X0155310Y0212685D01*
X0155373Y0212611D01*
X0155441Y0212526D01*
X0155516Y0212428D01*
X0155590Y0212320D01*
X0156258Y0211275D01*
X0155624D01*
X0155116Y0212069D01*
Y0212074D01*
X0155105Y0212086D01*
X0155093Y0212103D01*
X0155076Y0212126D01*
X0155036Y0212189D01*
X0154985Y0212269D01*
X0154928Y0212354D01*
X0154865Y0212440D01*
X0154802Y0212526D01*
X0154745Y0212600D01*
X0154739Y0212606D01*
X0154722Y0212628D01*
X0154693Y0212663D01*
X0154659Y0212703D01*
X0154579Y0212788D01*
X0154534Y0212823D01*
X0154488Y0212857D01*
X0154482Y0212862D01*
X0154471Y0212868D01*
X0154448Y0212880D01*
X0154414Y0212897D01*
X0154340Y0212931D01*
X0154254Y0212960D01*
X0154248D01*
X0154237Y0212965D01*
X0154214D01*
X0154185Y0212971D01*
X0154145Y0212977D01*
X0154100D01*
X0154042Y0212982D01*
X0153386D01*
Y0211275D01*
X0152878D01*
Y0215118D01*
X0154665D01*
X0154705Y0215112D01*
D02*
G37*
G36*
X0150953D02*
X0151045Y0215107D01*
X0151142Y0215101D01*
X0151239Y0215089D01*
X0151319Y0215078D01*
X0151330D01*
X0151365Y0215067D01*
X0151422Y0215055D01*
X0151484Y0215038D01*
X0151559Y0215015D01*
X0151639Y0214987D01*
X0151719Y0214947D01*
X0151793Y0214901D01*
X0151804Y0214895D01*
X0151827Y0214878D01*
X0151861Y0214849D01*
X0151907Y0214804D01*
X0151953Y0214752D01*
X0152004Y0214690D01*
X0152055Y0214615D01*
X0152101Y0214530D01*
X0152107Y0214518D01*
X0152118Y0214490D01*
X0152141Y0214438D01*
X0152164Y0214376D01*
X0152181Y0214296D01*
X0152204Y0214210D01*
X0152215Y0214107D01*
X0152221Y0214004D01*
Y0213999D01*
Y0213982D01*
Y0213959D01*
X0152215Y0213925D01*
X0152210Y0213879D01*
X0152204Y0213833D01*
X0152192Y0213776D01*
X0152181Y0213719D01*
X0152147Y0213588D01*
X0152090Y0213451D01*
X0152055Y0213376D01*
X0152010Y0213308D01*
X0151964Y0213239D01*
X0151907Y0213176D01*
X0151901Y0213171D01*
X0151890Y0213159D01*
X0151873Y0213148D01*
X0151844Y0213125D01*
X0151810Y0213096D01*
X0151764Y0213068D01*
X0151713Y0213039D01*
X0151650Y0213011D01*
X0151576Y0212977D01*
X0151496Y0212948D01*
X0151405Y0212919D01*
X0151302Y0212891D01*
X0151188Y0212868D01*
X0151062Y0212857D01*
X0150931Y0212845D01*
X0150782Y0212840D01*
X0149800D01*
Y0211275D01*
X0149292D01*
Y0215118D01*
X0150868D01*
X0150953Y0215112D01*
D02*
G37*
G36*
X0167729Y0210207D02*
X0164606D01*
Y0210550D01*
X0167729D01*
Y0210207D01*
D02*
G37*
G36*
X0160866D02*
X0157743D01*
Y0210550D01*
X0160866D01*
Y0210207D01*
D02*
G37*
G36*
X0167536Y0128173D02*
X0167581D01*
X0167684Y0128161D01*
X0167798Y0128144D01*
X0167924Y0128116D01*
X0168055Y0128082D01*
X0168181Y0128036D01*
X0168186D01*
X0168198Y0128030D01*
X0168215Y0128024D01*
X0168238Y0128013D01*
X0168295Y0127979D01*
X0168369Y0127933D01*
X0168449Y0127876D01*
X0168535Y0127807D01*
X0168615Y0127727D01*
X0168683Y0127630D01*
X0168689Y0127619D01*
X0168712Y0127585D01*
X0168740Y0127528D01*
X0168775Y0127459D01*
X0168809Y0127368D01*
X0168837Y0127265D01*
X0168866Y0127151D01*
X0168877Y0127031D01*
X0168392Y0126997D01*
Y0127002D01*
Y0127014D01*
X0168386Y0127031D01*
X0168381Y0127054D01*
X0168369Y0127122D01*
X0168346Y0127202D01*
X0168306Y0127288D01*
X0168261Y0127379D01*
X0168204Y0127465D01*
X0168124Y0127539D01*
X0168112Y0127545D01*
X0168084Y0127568D01*
X0168027Y0127596D01*
X0167952Y0127636D01*
X0167861Y0127670D01*
X0167741Y0127699D01*
X0167604Y0127722D01*
X0167450Y0127727D01*
X0167376D01*
X0167336Y0127722D01*
X0167296Y0127716D01*
X0167193Y0127705D01*
X0167085Y0127688D01*
X0166976Y0127653D01*
X0166873Y0127613D01*
X0166822Y0127585D01*
X0166782Y0127556D01*
X0166771Y0127550D01*
X0166748Y0127528D01*
X0166713Y0127488D01*
X0166679Y0127442D01*
X0166639Y0127379D01*
X0166605Y0127311D01*
X0166582Y0127231D01*
X0166571Y0127145D01*
Y0127134D01*
Y0127111D01*
X0166576Y0127071D01*
X0166588Y0127025D01*
X0166605Y0126974D01*
X0166633Y0126917D01*
X0166668Y0126859D01*
X0166719Y0126808D01*
X0166725Y0126802D01*
X0166753Y0126785D01*
X0166771Y0126774D01*
X0166799Y0126757D01*
X0166828Y0126740D01*
X0166867Y0126723D01*
X0166913Y0126700D01*
X0166970Y0126682D01*
X0167033Y0126654D01*
X0167102Y0126631D01*
X0167182Y0126608D01*
X0167273Y0126580D01*
X0167376Y0126557D01*
X0167484Y0126528D01*
X0167490D01*
X0167513Y0126523D01*
X0167541Y0126517D01*
X0167587Y0126505D01*
X0167638Y0126494D01*
X0167695Y0126477D01*
X0167827Y0126448D01*
X0167964Y0126408D01*
X0168107Y0126368D01*
X0168169Y0126351D01*
X0168232Y0126329D01*
X0168289Y0126306D01*
X0168335Y0126288D01*
X0168341D01*
X0168352Y0126283D01*
X0168369Y0126271D01*
X0168392Y0126260D01*
X0168449Y0126226D01*
X0168523Y0126180D01*
X0168603Y0126123D01*
X0168689Y0126060D01*
X0168763Y0125980D01*
X0168832Y0125894D01*
X0168837Y0125883D01*
X0168855Y0125855D01*
X0168883Y0125803D01*
X0168912Y0125740D01*
X0168940Y0125660D01*
X0168969Y0125569D01*
X0168986Y0125466D01*
X0168992Y0125352D01*
Y0125346D01*
Y0125341D01*
Y0125323D01*
Y0125301D01*
X0168980Y0125238D01*
X0168969Y0125164D01*
X0168946Y0125072D01*
X0168917Y0124975D01*
X0168872Y0124873D01*
X0168815Y0124770D01*
Y0124764D01*
X0168809Y0124758D01*
X0168780Y0124724D01*
X0168740Y0124678D01*
X0168683Y0124616D01*
X0168615Y0124553D01*
X0168523Y0124478D01*
X0168426Y0124416D01*
X0168306Y0124353D01*
X0168301D01*
X0168289Y0124347D01*
X0168272Y0124341D01*
X0168249Y0124330D01*
X0168221Y0124319D01*
X0168181Y0124307D01*
X0168095Y0124279D01*
X0167981Y0124250D01*
X0167861Y0124227D01*
X0167718Y0124210D01*
X0167570Y0124204D01*
X0167484D01*
X0167438Y0124210D01*
X0167387D01*
X0167330Y0124216D01*
X0167267Y0124222D01*
X0167130Y0124239D01*
X0166982Y0124267D01*
X0166833Y0124301D01*
X0166696Y0124353D01*
X0166691D01*
X0166679Y0124358D01*
X0166662Y0124370D01*
X0166639Y0124381D01*
X0166576Y0124416D01*
X0166496Y0124467D01*
X0166405Y0124530D01*
X0166314Y0124610D01*
X0166222Y0124701D01*
X0166142Y0124810D01*
Y0124815D01*
X0166137Y0124821D01*
X0166125Y0124838D01*
X0166114Y0124867D01*
X0166097Y0124895D01*
X0166079Y0124929D01*
X0166040Y0125015D01*
X0166005Y0125118D01*
X0165971Y0125232D01*
X0165948Y0125364D01*
X0165937Y0125506D01*
X0166416Y0125546D01*
Y0125540D01*
Y0125535D01*
X0166422Y0125501D01*
X0166434Y0125443D01*
X0166445Y0125375D01*
X0166468Y0125301D01*
X0166496Y0125221D01*
X0166531Y0125141D01*
X0166571Y0125067D01*
X0166576Y0125061D01*
X0166594Y0125038D01*
X0166622Y0125004D01*
X0166668Y0124964D01*
X0166719Y0124912D01*
X0166788Y0124867D01*
X0166867Y0124815D01*
X0166959Y0124770D01*
X0166965D01*
X0166970Y0124764D01*
X0167005Y0124752D01*
X0167062Y0124735D01*
X0167130Y0124713D01*
X0167216Y0124690D01*
X0167319Y0124673D01*
X0167427Y0124661D01*
X0167547Y0124655D01*
X0167598D01*
X0167650Y0124661D01*
X0167718Y0124667D01*
X0167798Y0124678D01*
X0167884Y0124690D01*
X0167970Y0124713D01*
X0168055Y0124741D01*
X0168067Y0124747D01*
X0168089Y0124758D01*
X0168129Y0124775D01*
X0168181Y0124804D01*
X0168232Y0124838D01*
X0168289Y0124878D01*
X0168341Y0124924D01*
X0168386Y0124975D01*
X0168392Y0124981D01*
X0168403Y0125004D01*
X0168421Y0125032D01*
X0168444Y0125072D01*
X0168466Y0125124D01*
X0168483Y0125181D01*
X0168495Y0125244D01*
X0168501Y0125306D01*
Y0125312D01*
Y0125335D01*
X0168495Y0125369D01*
X0168489Y0125415D01*
X0168478Y0125466D01*
X0168455Y0125518D01*
X0168432Y0125569D01*
X0168398Y0125620D01*
X0168392Y0125626D01*
X0168381Y0125643D01*
X0168352Y0125666D01*
X0168318Y0125700D01*
X0168266Y0125735D01*
X0168209Y0125775D01*
X0168135Y0125815D01*
X0168050Y0125849D01*
X0168044Y0125855D01*
X0168015Y0125860D01*
X0167975Y0125877D01*
X0167941Y0125883D01*
X0167907Y0125894D01*
X0167861Y0125906D01*
X0167815Y0125923D01*
X0167758Y0125940D01*
X0167695Y0125957D01*
X0167627Y0125975D01*
X0167547Y0125992D01*
X0167461Y0126014D01*
X0167364Y0126037D01*
X0167359D01*
X0167341Y0126043D01*
X0167313Y0126049D01*
X0167279Y0126060D01*
X0167233Y0126072D01*
X0167187Y0126083D01*
X0167073Y0126117D01*
X0166947Y0126152D01*
X0166828Y0126191D01*
X0166713Y0126231D01*
X0166668Y0126254D01*
X0166622Y0126277D01*
X0166616D01*
X0166611Y0126283D01*
X0166576Y0126306D01*
X0166531Y0126334D01*
X0166468Y0126374D01*
X0166399Y0126426D01*
X0166331Y0126488D01*
X0166268Y0126557D01*
X0166211Y0126631D01*
X0166205Y0126643D01*
X0166188Y0126671D01*
X0166171Y0126717D01*
X0166148Y0126774D01*
X0166120Y0126842D01*
X0166102Y0126928D01*
X0166085Y0127019D01*
X0166079Y0127117D01*
Y0127122D01*
Y0127128D01*
Y0127145D01*
Y0127168D01*
X0166091Y0127219D01*
X0166102Y0127294D01*
X0166120Y0127379D01*
X0166148Y0127471D01*
X0166188Y0127562D01*
X0166239Y0127659D01*
Y0127665D01*
X0166245Y0127670D01*
X0166268Y0127699D01*
X0166308Y0127745D01*
X0166365Y0127802D01*
X0166434Y0127865D01*
X0166514Y0127933D01*
X0166611Y0127996D01*
X0166725Y0128047D01*
X0166730D01*
X0166742Y0128053D01*
X0166759Y0128059D01*
X0166782Y0128070D01*
X0166810Y0128076D01*
X0166845Y0128087D01*
X0166930Y0128116D01*
X0167039Y0128139D01*
X0167159Y0128156D01*
X0167290Y0128173D01*
X0167427Y0128179D01*
X0167501D01*
X0167536Y0128173D01*
D02*
G37*
G36*
X0192334D02*
X0192385Y0128167D01*
X0192443Y0128161D01*
X0192505Y0128156D01*
X0192580Y0128144D01*
X0192728Y0128104D01*
X0192894Y0128053D01*
X0192974Y0128019D01*
X0193054Y0127979D01*
X0193133Y0127933D01*
X0193208Y0127882D01*
X0193213Y0127876D01*
X0193225Y0127870D01*
X0193248Y0127853D01*
X0193271Y0127830D01*
X0193305Y0127796D01*
X0193339Y0127762D01*
X0193379Y0127716D01*
X0193425Y0127670D01*
X0193470Y0127613D01*
X0193516Y0127550D01*
X0193562Y0127488D01*
X0193607Y0127413D01*
X0193653Y0127333D01*
X0193693Y0127248D01*
X0193727Y0127156D01*
X0193762Y0127059D01*
X0193259Y0126939D01*
Y0126945D01*
X0193253Y0126957D01*
X0193248Y0126979D01*
X0193236Y0127008D01*
X0193219Y0127042D01*
X0193202Y0127082D01*
X0193156Y0127174D01*
X0193105Y0127271D01*
X0193036Y0127373D01*
X0192956Y0127471D01*
X0192865Y0127550D01*
X0192854Y0127556D01*
X0192819Y0127579D01*
X0192768Y0127613D01*
X0192694Y0127647D01*
X0192603Y0127682D01*
X0192494Y0127716D01*
X0192368Y0127739D01*
X0192231Y0127745D01*
X0192186D01*
X0192157Y0127739D01*
X0192117D01*
X0192077Y0127733D01*
X0191974Y0127716D01*
X0191855Y0127693D01*
X0191729Y0127653D01*
X0191609Y0127602D01*
X0191489Y0127528D01*
X0191483D01*
X0191478Y0127516D01*
X0191443Y0127488D01*
X0191386Y0127442D01*
X0191323Y0127379D01*
X0191255Y0127294D01*
X0191186Y0127196D01*
X0191124Y0127082D01*
X0191072Y0126957D01*
Y0126951D01*
X0191067Y0126939D01*
X0191061Y0126922D01*
X0191055Y0126894D01*
X0191044Y0126865D01*
X0191032Y0126825D01*
X0191015Y0126734D01*
X0190992Y0126620D01*
X0190969Y0126494D01*
X0190958Y0126363D01*
X0190952Y0126220D01*
Y0126214D01*
Y0126197D01*
Y0126174D01*
Y0126140D01*
X0190958Y0126094D01*
Y0126043D01*
X0190964Y0125992D01*
X0190969Y0125929D01*
X0190987Y0125797D01*
X0191015Y0125649D01*
X0191049Y0125506D01*
X0191095Y0125364D01*
Y0125358D01*
X0191101Y0125346D01*
X0191112Y0125329D01*
X0191124Y0125306D01*
X0191158Y0125238D01*
X0191203Y0125158D01*
X0191266Y0125067D01*
X0191341Y0124981D01*
X0191432Y0124890D01*
X0191535Y0124815D01*
X0191540D01*
X0191546Y0124810D01*
X0191563Y0124798D01*
X0191586Y0124787D01*
X0191649Y0124758D01*
X0191729Y0124730D01*
X0191826Y0124695D01*
X0191940Y0124667D01*
X0192060Y0124644D01*
X0192191Y0124638D01*
X0192231D01*
X0192260Y0124644D01*
X0192300D01*
X0192340Y0124650D01*
X0192443Y0124667D01*
X0192551Y0124701D01*
X0192671Y0124741D01*
X0192797Y0124804D01*
X0192854Y0124838D01*
X0192911Y0124884D01*
X0192917Y0124890D01*
X0192922Y0124895D01*
X0192939Y0124912D01*
X0192956Y0124929D01*
X0192985Y0124958D01*
X0193008Y0124987D01*
X0193071Y0125067D01*
X0193139Y0125169D01*
X0193208Y0125295D01*
X0193271Y0125443D01*
X0193316Y0125615D01*
X0193824Y0125483D01*
Y0125478D01*
X0193819Y0125455D01*
X0193807Y0125426D01*
X0193796Y0125381D01*
X0193773Y0125329D01*
X0193750Y0125266D01*
X0193727Y0125204D01*
X0193693Y0125129D01*
X0193613Y0124975D01*
X0193516Y0124821D01*
X0193453Y0124741D01*
X0193391Y0124667D01*
X0193322Y0124593D01*
X0193248Y0124530D01*
X0193242Y0124524D01*
X0193231Y0124518D01*
X0193208Y0124501D01*
X0193174Y0124478D01*
X0193133Y0124456D01*
X0193082Y0124427D01*
X0193031Y0124399D01*
X0192962Y0124370D01*
X0192894Y0124336D01*
X0192814Y0124307D01*
X0192734Y0124279D01*
X0192642Y0124256D01*
X0192545Y0124233D01*
X0192448Y0124216D01*
X0192340Y0124210D01*
X0192231Y0124204D01*
X0192174D01*
X0192129Y0124210D01*
X0192077D01*
X0192014Y0124216D01*
X0191946Y0124227D01*
X0191872Y0124239D01*
X0191712Y0124267D01*
X0191540Y0124313D01*
X0191375Y0124376D01*
X0191295Y0124410D01*
X0191221Y0124456D01*
X0191215Y0124461D01*
X0191203Y0124467D01*
X0191186Y0124484D01*
X0191158Y0124501D01*
X0191124Y0124530D01*
X0191089Y0124558D01*
X0191004Y0124644D01*
X0190907Y0124747D01*
X0190804Y0124873D01*
X0190712Y0125015D01*
X0190627Y0125187D01*
Y0125192D01*
X0190621Y0125209D01*
X0190610Y0125232D01*
X0190598Y0125272D01*
X0190581Y0125312D01*
X0190564Y0125369D01*
X0190547Y0125426D01*
X0190530Y0125495D01*
X0190507Y0125569D01*
X0190490Y0125649D01*
X0190461Y0125826D01*
X0190438Y0126014D01*
X0190427Y0126220D01*
Y0126226D01*
Y0126249D01*
Y0126277D01*
X0190433Y0126323D01*
Y0126374D01*
X0190438Y0126431D01*
X0190444Y0126500D01*
X0190455Y0126574D01*
X0190484Y0126740D01*
X0190524Y0126917D01*
X0190581Y0127094D01*
X0190655Y0127265D01*
Y0127271D01*
X0190667Y0127282D01*
X0190678Y0127305D01*
X0190695Y0127339D01*
X0190724Y0127373D01*
X0190752Y0127419D01*
X0190821Y0127516D01*
X0190912Y0127625D01*
X0191026Y0127739D01*
X0191158Y0127847D01*
X0191306Y0127944D01*
X0191312D01*
X0191323Y0127956D01*
X0191346Y0127967D01*
X0191381Y0127979D01*
X0191420Y0128001D01*
X0191466Y0128019D01*
X0191523Y0128042D01*
X0191580Y0128064D01*
X0191649Y0128082D01*
X0191718Y0128104D01*
X0191877Y0128144D01*
X0192049Y0128167D01*
X0192237Y0128179D01*
X0192294D01*
X0192334Y0128173D01*
D02*
G37*
G36*
X0181890D02*
X0181942Y0128167D01*
X0181999Y0128161D01*
X0182062Y0128156D01*
X0182136Y0128144D01*
X0182284Y0128104D01*
X0182450Y0128053D01*
X0182530Y0128019D01*
X0182610Y0127979D01*
X0182690Y0127933D01*
X0182764Y0127882D01*
X0182770Y0127876D01*
X0182781Y0127870D01*
X0182804Y0127853D01*
X0182827Y0127830D01*
X0182861Y0127796D01*
X0182896Y0127762D01*
X0182936Y0127716D01*
X0182981Y0127670D01*
X0183027Y0127613D01*
X0183072Y0127550D01*
X0183118Y0127488D01*
X0183164Y0127413D01*
X0183210Y0127333D01*
X0183249Y0127248D01*
X0183284Y0127156D01*
X0183318Y0127059D01*
X0182816Y0126939D01*
Y0126945D01*
X0182810Y0126957D01*
X0182804Y0126979D01*
X0182793Y0127008D01*
X0182776Y0127042D01*
X0182758Y0127082D01*
X0182713Y0127174D01*
X0182661Y0127271D01*
X0182593Y0127373D01*
X0182513Y0127471D01*
X0182422Y0127550D01*
X0182410Y0127556D01*
X0182376Y0127579D01*
X0182325Y0127613D01*
X0182250Y0127647D01*
X0182159Y0127682D01*
X0182050Y0127716D01*
X0181925Y0127739D01*
X0181788Y0127745D01*
X0181742D01*
X0181713Y0127739D01*
X0181674D01*
X0181634Y0127733D01*
X0181531Y0127716D01*
X0181411Y0127693D01*
X0181285Y0127653D01*
X0181165Y0127602D01*
X0181045Y0127528D01*
X0181040D01*
X0181034Y0127516D01*
X0181000Y0127488D01*
X0180943Y0127442D01*
X0180880Y0127379D01*
X0180811Y0127294D01*
X0180743Y0127196D01*
X0180680Y0127082D01*
X0180629Y0126957D01*
Y0126951D01*
X0180623Y0126939D01*
X0180617Y0126922D01*
X0180612Y0126894D01*
X0180600Y0126865D01*
X0180589Y0126825D01*
X0180571Y0126734D01*
X0180549Y0126620D01*
X0180526Y0126494D01*
X0180514Y0126363D01*
X0180509Y0126220D01*
Y0126214D01*
Y0126197D01*
Y0126174D01*
Y0126140D01*
X0180514Y0126094D01*
Y0126043D01*
X0180520Y0125992D01*
X0180526Y0125929D01*
X0180543Y0125797D01*
X0180571Y0125649D01*
X0180606Y0125506D01*
X0180651Y0125364D01*
Y0125358D01*
X0180657Y0125346D01*
X0180669Y0125329D01*
X0180680Y0125306D01*
X0180714Y0125238D01*
X0180760Y0125158D01*
X0180823Y0125067D01*
X0180897Y0124981D01*
X0180988Y0124890D01*
X0181091Y0124815D01*
X0181097D01*
X0181103Y0124810D01*
X0181120Y0124798D01*
X0181142Y0124787D01*
X0181205Y0124758D01*
X0181285Y0124730D01*
X0181382Y0124695D01*
X0181497Y0124667D01*
X0181616Y0124644D01*
X0181748Y0124638D01*
X0181788D01*
X0181816Y0124644D01*
X0181856D01*
X0181896Y0124650D01*
X0181999Y0124667D01*
X0182107Y0124701D01*
X0182227Y0124741D01*
X0182353Y0124804D01*
X0182410Y0124838D01*
X0182467Y0124884D01*
X0182473Y0124890D01*
X0182479Y0124895D01*
X0182496Y0124912D01*
X0182513Y0124929D01*
X0182542Y0124958D01*
X0182564Y0124987D01*
X0182627Y0125067D01*
X0182696Y0125169D01*
X0182764Y0125295D01*
X0182827Y0125443D01*
X0182873Y0125615D01*
X0183381Y0125483D01*
Y0125478D01*
X0183375Y0125455D01*
X0183364Y0125426D01*
X0183352Y0125381D01*
X0183329Y0125329D01*
X0183307Y0125266D01*
X0183284Y0125204D01*
X0183249Y0125129D01*
X0183170Y0124975D01*
X0183072Y0124821D01*
X0183010Y0124741D01*
X0182947Y0124667D01*
X0182878Y0124593D01*
X0182804Y0124530D01*
X0182798Y0124524D01*
X0182787Y0124518D01*
X0182764Y0124501D01*
X0182730Y0124478D01*
X0182690Y0124456D01*
X0182639Y0124427D01*
X0182587Y0124399D01*
X0182519Y0124370D01*
X0182450Y0124336D01*
X0182370Y0124307D01*
X0182290Y0124279D01*
X0182199Y0124256D01*
X0182102Y0124233D01*
X0182005Y0124216D01*
X0181896Y0124210D01*
X0181788Y0124204D01*
X0181731D01*
X0181685Y0124210D01*
X0181634D01*
X0181571Y0124216D01*
X0181502Y0124227D01*
X0181428Y0124239D01*
X0181268Y0124267D01*
X0181097Y0124313D01*
X0180931Y0124376D01*
X0180851Y0124410D01*
X0180777Y0124456D01*
X0180771Y0124461D01*
X0180760Y0124467D01*
X0180743Y0124484D01*
X0180714Y0124501D01*
X0180680Y0124530D01*
X0180646Y0124558D01*
X0180560Y0124644D01*
X0180463Y0124747D01*
X0180360Y0124873D01*
X0180269Y0125015D01*
X0180183Y0125187D01*
Y0125192D01*
X0180177Y0125209D01*
X0180166Y0125232D01*
X0180155Y0125272D01*
X0180138Y0125312D01*
X0180120Y0125369D01*
X0180103Y0125426D01*
X0180086Y0125495D01*
X0180063Y0125569D01*
X0180046Y0125649D01*
X0180018Y0125826D01*
X0179995Y0126014D01*
X0179983Y0126220D01*
Y0126226D01*
Y0126249D01*
Y0126277D01*
X0179989Y0126323D01*
Y0126374D01*
X0179995Y0126431D01*
X0180000Y0126500D01*
X0180012Y0126574D01*
X0180041Y0126740D01*
X0180080Y0126917D01*
X0180138Y0127094D01*
X0180212Y0127265D01*
Y0127271D01*
X0180223Y0127282D01*
X0180235Y0127305D01*
X0180252Y0127339D01*
X0180280Y0127373D01*
X0180309Y0127419D01*
X0180377Y0127516D01*
X0180469Y0127625D01*
X0180583Y0127739D01*
X0180714Y0127847D01*
X0180863Y0127944D01*
X0180868D01*
X0180880Y0127956D01*
X0180903Y0127967D01*
X0180937Y0127979D01*
X0180977Y0128001D01*
X0181023Y0128019D01*
X0181080Y0128042D01*
X0181137Y0128064D01*
X0181205Y0128082D01*
X0181274Y0128104D01*
X0181434Y0128144D01*
X0181605Y0128167D01*
X0181793Y0128179D01*
X0181851D01*
X0181890Y0128173D01*
D02*
G37*
G36*
X0175027D02*
X0175078Y0128167D01*
X0175136Y0128161D01*
X0175198Y0128156D01*
X0175273Y0128144D01*
X0175421Y0128104D01*
X0175587Y0128053D01*
X0175667Y0128019D01*
X0175747Y0127979D01*
X0175827Y0127933D01*
X0175901Y0127882D01*
X0175907Y0127876D01*
X0175918Y0127870D01*
X0175941Y0127853D01*
X0175964Y0127830D01*
X0175998Y0127796D01*
X0176032Y0127762D01*
X0176072Y0127716D01*
X0176118Y0127670D01*
X0176163Y0127613D01*
X0176209Y0127550D01*
X0176255Y0127488D01*
X0176301Y0127413D01*
X0176346Y0127333D01*
X0176386Y0127248D01*
X0176420Y0127156D01*
X0176455Y0127059D01*
X0175952Y0126939D01*
Y0126945D01*
X0175946Y0126957D01*
X0175941Y0126979D01*
X0175929Y0127008D01*
X0175912Y0127042D01*
X0175895Y0127082D01*
X0175849Y0127174D01*
X0175798Y0127271D01*
X0175729Y0127373D01*
X0175649Y0127471D01*
X0175558Y0127550D01*
X0175547Y0127556D01*
X0175513Y0127579D01*
X0175461Y0127613D01*
X0175387Y0127647D01*
X0175295Y0127682D01*
X0175187Y0127716D01*
X0175061Y0127739D01*
X0174924Y0127745D01*
X0174879D01*
X0174850Y0127739D01*
X0174810D01*
X0174770Y0127733D01*
X0174667Y0127716D01*
X0174548Y0127693D01*
X0174422Y0127653D01*
X0174302Y0127602D01*
X0174182Y0127528D01*
X0174176D01*
X0174171Y0127516D01*
X0174136Y0127488D01*
X0174079Y0127442D01*
X0174016Y0127379D01*
X0173948Y0127294D01*
X0173879Y0127196D01*
X0173817Y0127082D01*
X0173765Y0126957D01*
Y0126951D01*
X0173759Y0126939D01*
X0173754Y0126922D01*
X0173748Y0126894D01*
X0173737Y0126865D01*
X0173725Y0126825D01*
X0173708Y0126734D01*
X0173685Y0126620D01*
X0173662Y0126494D01*
X0173651Y0126363D01*
X0173645Y0126220D01*
Y0126214D01*
Y0126197D01*
Y0126174D01*
Y0126140D01*
X0173651Y0126094D01*
Y0126043D01*
X0173657Y0125992D01*
X0173662Y0125929D01*
X0173680Y0125797D01*
X0173708Y0125649D01*
X0173742Y0125506D01*
X0173788Y0125364D01*
Y0125358D01*
X0173794Y0125346D01*
X0173805Y0125329D01*
X0173817Y0125306D01*
X0173851Y0125238D01*
X0173897Y0125158D01*
X0173959Y0125067D01*
X0174034Y0124981D01*
X0174125Y0124890D01*
X0174228Y0124815D01*
X0174233D01*
X0174239Y0124810D01*
X0174256Y0124798D01*
X0174279Y0124787D01*
X0174342Y0124758D01*
X0174422Y0124730D01*
X0174519Y0124695D01*
X0174633Y0124667D01*
X0174753Y0124644D01*
X0174884Y0124638D01*
X0174924D01*
X0174953Y0124644D01*
X0174993D01*
X0175033Y0124650D01*
X0175136Y0124667D01*
X0175244Y0124701D01*
X0175364Y0124741D01*
X0175490Y0124804D01*
X0175547Y0124838D01*
X0175604Y0124884D01*
X0175610Y0124890D01*
X0175615Y0124895D01*
X0175632Y0124912D01*
X0175649Y0124929D01*
X0175678Y0124958D01*
X0175701Y0124987D01*
X0175764Y0125067D01*
X0175832Y0125169D01*
X0175901Y0125295D01*
X0175964Y0125443D01*
X0176009Y0125615D01*
X0176517Y0125483D01*
Y0125478D01*
X0176512Y0125455D01*
X0176500Y0125426D01*
X0176489Y0125381D01*
X0176466Y0125329D01*
X0176443Y0125266D01*
X0176420Y0125204D01*
X0176386Y0125129D01*
X0176306Y0124975D01*
X0176209Y0124821D01*
X0176146Y0124741D01*
X0176084Y0124667D01*
X0176015Y0124593D01*
X0175941Y0124530D01*
X0175935Y0124524D01*
X0175924Y0124518D01*
X0175901Y0124501D01*
X0175866Y0124478D01*
X0175827Y0124456D01*
X0175775Y0124427D01*
X0175724Y0124399D01*
X0175655Y0124370D01*
X0175587Y0124336D01*
X0175507Y0124307D01*
X0175427Y0124279D01*
X0175336Y0124256D01*
X0175238Y0124233D01*
X0175141Y0124216D01*
X0175033Y0124210D01*
X0174924Y0124204D01*
X0174867D01*
X0174822Y0124210D01*
X0174770D01*
X0174707Y0124216D01*
X0174639Y0124227D01*
X0174565Y0124239D01*
X0174405Y0124267D01*
X0174233Y0124313D01*
X0174068Y0124376D01*
X0173988Y0124410D01*
X0173914Y0124456D01*
X0173908Y0124461D01*
X0173897Y0124467D01*
X0173879Y0124484D01*
X0173851Y0124501D01*
X0173817Y0124530D01*
X0173782Y0124558D01*
X0173697Y0124644D01*
X0173600Y0124747D01*
X0173497Y0124873D01*
X0173406Y0125015D01*
X0173320Y0125187D01*
Y0125192D01*
X0173314Y0125209D01*
X0173303Y0125232D01*
X0173291Y0125272D01*
X0173274Y0125312D01*
X0173257Y0125369D01*
X0173240Y0125426D01*
X0173223Y0125495D01*
X0173200Y0125569D01*
X0173183Y0125649D01*
X0173154Y0125826D01*
X0173131Y0126014D01*
X0173120Y0126220D01*
Y0126226D01*
Y0126249D01*
Y0126277D01*
X0173126Y0126323D01*
Y0126374D01*
X0173131Y0126431D01*
X0173137Y0126500D01*
X0173149Y0126574D01*
X0173177Y0126740D01*
X0173217Y0126917D01*
X0173274Y0127094D01*
X0173348Y0127265D01*
Y0127271D01*
X0173360Y0127282D01*
X0173371Y0127305D01*
X0173388Y0127339D01*
X0173417Y0127373D01*
X0173445Y0127419D01*
X0173514Y0127516D01*
X0173605Y0127625D01*
X0173720Y0127739D01*
X0173851Y0127847D01*
X0173999Y0127944D01*
X0174005D01*
X0174016Y0127956D01*
X0174039Y0127967D01*
X0174074Y0127979D01*
X0174114Y0128001D01*
X0174159Y0128019D01*
X0174216Y0128042D01*
X0174273Y0128064D01*
X0174342Y0128082D01*
X0174410Y0128104D01*
X0174570Y0128144D01*
X0174742Y0128167D01*
X0174930Y0128179D01*
X0174987D01*
X0175027Y0128173D01*
D02*
G37*
G36*
X0199614Y0124267D02*
X0199141D01*
Y0127265D01*
X0199135Y0127259D01*
X0199112Y0127236D01*
X0199072Y0127208D01*
X0199021Y0127162D01*
X0198958Y0127117D01*
X0198878Y0127059D01*
X0198786Y0127002D01*
X0198689Y0126939D01*
X0198684D01*
X0198678Y0126934D01*
X0198644Y0126911D01*
X0198592Y0126882D01*
X0198524Y0126848D01*
X0198450Y0126808D01*
X0198370Y0126774D01*
X0198284Y0126734D01*
X0198198Y0126700D01*
Y0127156D01*
X0198204D01*
X0198215Y0127162D01*
X0198238Y0127174D01*
X0198267Y0127191D01*
X0198301Y0127208D01*
X0198341Y0127231D01*
X0198432Y0127282D01*
X0198541Y0127345D01*
X0198655Y0127419D01*
X0198769Y0127505D01*
X0198883Y0127602D01*
X0198889Y0127608D01*
X0198895Y0127613D01*
X0198935Y0127647D01*
X0198986Y0127699D01*
X0199049Y0127767D01*
X0199118Y0127847D01*
X0199186Y0127933D01*
X0199255Y0128024D01*
X0199306Y0128121D01*
X0199614D01*
Y0124267D01*
D02*
G37*
G36*
X0195977Y0128104D02*
X0196023D01*
X0196120Y0128093D01*
X0196234Y0128082D01*
X0196348Y0128059D01*
X0196468Y0128030D01*
X0196571Y0127990D01*
X0196577D01*
X0196582Y0127984D01*
X0196617Y0127967D01*
X0196662Y0127939D01*
X0196725Y0127904D01*
X0196794Y0127853D01*
X0196862Y0127790D01*
X0196925Y0127716D01*
X0196988Y0127630D01*
X0196994Y0127619D01*
X0197011Y0127590D01*
X0197039Y0127539D01*
X0197068Y0127476D01*
X0197091Y0127402D01*
X0197119Y0127316D01*
X0197136Y0127219D01*
X0197142Y0127122D01*
Y0127111D01*
Y0127082D01*
X0197136Y0127031D01*
X0197125Y0126974D01*
X0197108Y0126900D01*
X0197085Y0126825D01*
X0197051Y0126740D01*
X0197005Y0126660D01*
X0196999Y0126648D01*
X0196982Y0126625D01*
X0196948Y0126585D01*
X0196908Y0126534D01*
X0196851Y0126477D01*
X0196776Y0126420D01*
X0196697Y0126363D01*
X0196599Y0126311D01*
X0196605D01*
X0196617Y0126306D01*
X0196634Y0126300D01*
X0196657Y0126294D01*
X0196719Y0126266D01*
X0196799Y0126231D01*
X0196885Y0126180D01*
X0196971Y0126117D01*
X0197062Y0126043D01*
X0197136Y0125957D01*
X0197142Y0125946D01*
X0197165Y0125912D01*
X0197199Y0125860D01*
X0197233Y0125792D01*
X0197268Y0125706D01*
X0197302Y0125609D01*
X0197325Y0125501D01*
X0197330Y0125381D01*
Y0125375D01*
Y0125369D01*
Y0125335D01*
X0197325Y0125284D01*
X0197319Y0125215D01*
X0197302Y0125135D01*
X0197285Y0125049D01*
X0197256Y0124964D01*
X0197216Y0124873D01*
X0197211Y0124861D01*
X0197193Y0124832D01*
X0197170Y0124793D01*
X0197136Y0124741D01*
X0197096Y0124684D01*
X0197051Y0124627D01*
X0196994Y0124570D01*
X0196931Y0124518D01*
X0196925Y0124513D01*
X0196902Y0124496D01*
X0196862Y0124473D01*
X0196817Y0124450D01*
X0196754Y0124416D01*
X0196685Y0124387D01*
X0196599Y0124358D01*
X0196508Y0124330D01*
X0196497D01*
X0196463Y0124319D01*
X0196411Y0124313D01*
X0196337Y0124301D01*
X0196246Y0124290D01*
X0196143Y0124279D01*
X0196023Y0124273D01*
X0195891Y0124267D01*
X0194430D01*
Y0128110D01*
X0195943D01*
X0195977Y0128104D01*
D02*
G37*
G36*
X0188657D02*
X0188748Y0128099D01*
X0188845Y0128093D01*
X0188942Y0128082D01*
X0189022Y0128070D01*
X0189034D01*
X0189068Y0128059D01*
X0189125Y0128047D01*
X0189188Y0128030D01*
X0189262Y0128007D01*
X0189342Y0127979D01*
X0189422Y0127939D01*
X0189496Y0127893D01*
X0189508Y0127887D01*
X0189531Y0127870D01*
X0189565Y0127842D01*
X0189611Y0127796D01*
X0189656Y0127745D01*
X0189708Y0127682D01*
X0189759Y0127608D01*
X0189805Y0127522D01*
X0189810Y0127510D01*
X0189822Y0127482D01*
X0189845Y0127430D01*
X0189867Y0127368D01*
X0189884Y0127288D01*
X0189907Y0127202D01*
X0189919Y0127099D01*
X0189925Y0126997D01*
Y0126991D01*
Y0126974D01*
Y0126951D01*
X0189919Y0126917D01*
X0189913Y0126871D01*
X0189907Y0126825D01*
X0189896Y0126768D01*
X0189884Y0126711D01*
X0189850Y0126580D01*
X0189793Y0126443D01*
X0189759Y0126368D01*
X0189713Y0126300D01*
X0189668Y0126231D01*
X0189611Y0126169D01*
X0189605Y0126163D01*
X0189593Y0126152D01*
X0189576Y0126140D01*
X0189548Y0126117D01*
X0189513Y0126089D01*
X0189468Y0126060D01*
X0189416Y0126032D01*
X0189354Y0126003D01*
X0189279Y0125969D01*
X0189199Y0125940D01*
X0189108Y0125912D01*
X0189005Y0125883D01*
X0188891Y0125860D01*
X0188765Y0125849D01*
X0188634Y0125837D01*
X0188486Y0125832D01*
X0187504D01*
Y0124267D01*
X0186995D01*
Y0128110D01*
X0188571D01*
X0188657Y0128104D01*
D02*
G37*
G36*
X0178316Y0128116D02*
X0178362Y0128110D01*
X0178419Y0128104D01*
X0178476Y0128099D01*
X0178544Y0128082D01*
X0178682Y0128047D01*
X0178830Y0127990D01*
X0178899Y0127956D01*
X0178967Y0127916D01*
X0179035Y0127870D01*
X0179098Y0127813D01*
X0179104Y0127807D01*
X0179110Y0127802D01*
X0179127Y0127785D01*
X0179150Y0127756D01*
X0179173Y0127727D01*
X0179201Y0127693D01*
X0179230Y0127647D01*
X0179264Y0127602D01*
X0179321Y0127493D01*
X0179372Y0127362D01*
X0179395Y0127294D01*
X0179412Y0127214D01*
X0179418Y0127139D01*
X0179424Y0127054D01*
Y0127042D01*
Y0127014D01*
X0179418Y0126968D01*
X0179412Y0126911D01*
X0179401Y0126837D01*
X0179384Y0126762D01*
X0179361Y0126682D01*
X0179327Y0126597D01*
X0179321Y0126585D01*
X0179310Y0126557D01*
X0179287Y0126517D01*
X0179253Y0126460D01*
X0179207Y0126386D01*
X0179155Y0126306D01*
X0179087Y0126220D01*
X0179013Y0126129D01*
X0179001Y0126117D01*
X0178973Y0126083D01*
X0178950Y0126060D01*
X0178916Y0126026D01*
X0178881Y0125992D01*
X0178841Y0125952D01*
X0178796Y0125906D01*
X0178739Y0125855D01*
X0178682Y0125803D01*
X0178613Y0125740D01*
X0178544Y0125678D01*
X0178464Y0125609D01*
X0178379Y0125535D01*
X0178287Y0125455D01*
X0178282Y0125449D01*
X0178270Y0125438D01*
X0178248Y0125421D01*
X0178219Y0125398D01*
X0178150Y0125335D01*
X0178059Y0125261D01*
X0177968Y0125181D01*
X0177882Y0125101D01*
X0177802Y0125027D01*
X0177774Y0124998D01*
X0177745Y0124969D01*
X0177739Y0124964D01*
X0177728Y0124947D01*
X0177705Y0124924D01*
X0177677Y0124890D01*
X0177642Y0124855D01*
X0177608Y0124810D01*
X0177545Y0124718D01*
X0179429D01*
Y0124267D01*
X0176889D01*
Y0124273D01*
Y0124296D01*
Y0124330D01*
X0176894Y0124370D01*
X0176900Y0124421D01*
X0176906Y0124473D01*
X0176923Y0124536D01*
X0176940Y0124593D01*
Y0124598D01*
X0176946Y0124604D01*
X0176957Y0124638D01*
X0176980Y0124690D01*
X0177014Y0124752D01*
X0177060Y0124832D01*
X0177111Y0124918D01*
X0177174Y0125010D01*
X0177248Y0125101D01*
Y0125107D01*
X0177260Y0125112D01*
X0177288Y0125146D01*
X0177340Y0125198D01*
X0177408Y0125266D01*
X0177494Y0125352D01*
X0177602Y0125455D01*
X0177728Y0125563D01*
X0177871Y0125683D01*
X0177876Y0125689D01*
X0177899Y0125706D01*
X0177928Y0125735D01*
X0177973Y0125769D01*
X0178025Y0125809D01*
X0178082Y0125860D01*
X0178208Y0125980D01*
X0178350Y0126106D01*
X0178487Y0126243D01*
X0178556Y0126311D01*
X0178613Y0126374D01*
X0178670Y0126437D01*
X0178716Y0126494D01*
Y0126500D01*
X0178727Y0126505D01*
X0178739Y0126523D01*
X0178750Y0126546D01*
X0178784Y0126603D01*
X0178830Y0126677D01*
X0178870Y0126768D01*
X0178904Y0126865D01*
X0178927Y0126962D01*
X0178938Y0127065D01*
Y0127071D01*
Y0127076D01*
X0178933Y0127111D01*
X0178927Y0127162D01*
X0178916Y0127231D01*
X0178887Y0127305D01*
X0178853Y0127385D01*
X0178801Y0127465D01*
X0178733Y0127539D01*
X0178721Y0127545D01*
X0178699Y0127568D01*
X0178653Y0127602D01*
X0178596Y0127636D01*
X0178516Y0127670D01*
X0178430Y0127705D01*
X0178328Y0127727D01*
X0178213Y0127733D01*
X0178179D01*
X0178156Y0127727D01*
X0178093Y0127722D01*
X0178019Y0127705D01*
X0177928Y0127682D01*
X0177836Y0127642D01*
X0177745Y0127590D01*
X0177665Y0127522D01*
X0177659Y0127510D01*
X0177637Y0127482D01*
X0177602Y0127436D01*
X0177568Y0127373D01*
X0177528Y0127294D01*
X0177499Y0127196D01*
X0177477Y0127082D01*
X0177465Y0126957D01*
X0176980Y0127008D01*
Y0127014D01*
Y0127031D01*
X0176986Y0127059D01*
X0176991Y0127099D01*
X0177003Y0127145D01*
X0177014Y0127196D01*
X0177043Y0127316D01*
X0177088Y0127448D01*
X0177157Y0127585D01*
X0177197Y0127653D01*
X0177243Y0127716D01*
X0177294Y0127779D01*
X0177351Y0127836D01*
X0177357Y0127842D01*
X0177368Y0127847D01*
X0177385Y0127865D01*
X0177408Y0127882D01*
X0177443Y0127904D01*
X0177482Y0127927D01*
X0177528Y0127950D01*
X0177585Y0127979D01*
X0177642Y0128007D01*
X0177705Y0128030D01*
X0177779Y0128053D01*
X0177859Y0128076D01*
X0177939Y0128093D01*
X0178031Y0128110D01*
X0178122Y0128116D01*
X0178225Y0128121D01*
X0178276D01*
X0178316Y0128116D01*
D02*
G37*
G36*
X0172475Y0127659D02*
X0170202D01*
Y0126483D01*
X0172332D01*
Y0126032D01*
X0170202D01*
Y0124718D01*
X0172566D01*
Y0124267D01*
X0169694D01*
Y0128110D01*
X0172475D01*
Y0127659D01*
D02*
G37*
G36*
X0186635Y0123199D02*
X0183512D01*
Y0123542D01*
X0186635D01*
Y0123199D01*
D02*
G37*
G36*
X0129543Y0127877D02*
X0129589D01*
X0129692Y0127866D01*
X0129806Y0127849D01*
X0129932Y0127821D01*
X0130063Y0127786D01*
X0130189Y0127741D01*
X0130194D01*
X0130206Y0127735D01*
X0130223Y0127729D01*
X0130246Y0127718D01*
X0130303Y0127683D01*
X0130377Y0127638D01*
X0130457Y0127581D01*
X0130543Y0127512D01*
X0130623Y0127432D01*
X0130691Y0127335D01*
X0130697Y0127324D01*
X0130720Y0127289D01*
X0130748Y0127232D01*
X0130782Y0127164D01*
X0130817Y0127072D01*
X0130845Y0126970D01*
X0130874Y0126856D01*
X0130885Y0126735D01*
X0130400Y0126701D01*
Y0126707D01*
Y0126718D01*
X0130394Y0126735D01*
X0130389Y0126758D01*
X0130377Y0126827D01*
X0130354Y0126907D01*
X0130314Y0126992D01*
X0130269Y0127084D01*
X0130211Y0127170D01*
X0130132Y0127244D01*
X0130120Y0127250D01*
X0130092Y0127272D01*
X0130034Y0127301D01*
X0129960Y0127341D01*
X0129869Y0127375D01*
X0129749Y0127404D01*
X0129612Y0127427D01*
X0129458Y0127432D01*
X0129384D01*
X0129344Y0127427D01*
X0129304Y0127421D01*
X0129201Y0127409D01*
X0129092Y0127392D01*
X0128984Y0127358D01*
X0128881Y0127318D01*
X0128830Y0127289D01*
X0128790Y0127261D01*
X0128778Y0127255D01*
X0128755Y0127232D01*
X0128721Y0127192D01*
X0128687Y0127147D01*
X0128647Y0127084D01*
X0128613Y0127015D01*
X0128590Y0126935D01*
X0128578Y0126850D01*
Y0126838D01*
Y0126815D01*
X0128584Y0126776D01*
X0128596Y0126730D01*
X0128613Y0126678D01*
X0128641Y0126621D01*
X0128675Y0126564D01*
X0128727Y0126513D01*
X0128733Y0126507D01*
X0128761Y0126490D01*
X0128778Y0126479D01*
X0128807Y0126462D01*
X0128835Y0126444D01*
X0128875Y0126427D01*
X0128921Y0126404D01*
X0128978Y0126387D01*
X0129041Y0126359D01*
X0129110Y0126336D01*
X0129190Y0126313D01*
X0129281Y0126285D01*
X0129384Y0126262D01*
X0129492Y0126233D01*
X0129498D01*
X0129521Y0126227D01*
X0129549Y0126222D01*
X0129595Y0126210D01*
X0129646Y0126199D01*
X0129703Y0126182D01*
X0129835Y0126153D01*
X0129972Y0126113D01*
X0130114Y0126073D01*
X0130177Y0126056D01*
X0130240Y0126033D01*
X0130297Y0126010D01*
X0130343Y0125993D01*
X0130349D01*
X0130360Y0125988D01*
X0130377Y0125976D01*
X0130400Y0125965D01*
X0130457Y0125930D01*
X0130531Y0125885D01*
X0130611Y0125828D01*
X0130697Y0125765D01*
X0130771Y0125685D01*
X0130840Y0125599D01*
X0130845Y0125588D01*
X0130862Y0125559D01*
X0130891Y0125508D01*
X0130920Y0125445D01*
X0130948Y0125365D01*
X0130977Y0125274D01*
X0130994Y0125171D01*
X0131000Y0125057D01*
Y0125051D01*
Y0125045D01*
Y0125028D01*
Y0125005D01*
X0130988Y0124943D01*
X0130977Y0124868D01*
X0130954Y0124777D01*
X0130925Y0124680D01*
X0130880Y0124577D01*
X0130823Y0124474D01*
Y0124469D01*
X0130817Y0124463D01*
X0130788Y0124429D01*
X0130748Y0124383D01*
X0130691Y0124320D01*
X0130623Y0124257D01*
X0130531Y0124183D01*
X0130434Y0124120D01*
X0130314Y0124058D01*
X0130309D01*
X0130297Y0124052D01*
X0130280Y0124046D01*
X0130257Y0124035D01*
X0130229Y0124023D01*
X0130189Y0124012D01*
X0130103Y0123983D01*
X0129989Y0123955D01*
X0129869Y0123932D01*
X0129726Y0123915D01*
X0129578Y0123909D01*
X0129492D01*
X0129446Y0123915D01*
X0129395D01*
X0129338Y0123921D01*
X0129275Y0123926D01*
X0129138Y0123943D01*
X0128990Y0123972D01*
X0128841Y0124006D01*
X0128704Y0124058D01*
X0128698D01*
X0128687Y0124063D01*
X0128670Y0124075D01*
X0128647Y0124086D01*
X0128584Y0124120D01*
X0128504Y0124172D01*
X0128413Y0124235D01*
X0128322Y0124314D01*
X0128230Y0124406D01*
X0128150Y0124514D01*
Y0124520D01*
X0128145Y0124526D01*
X0128133Y0124543D01*
X0128122Y0124572D01*
X0128104Y0124600D01*
X0128087Y0124634D01*
X0128048Y0124720D01*
X0128013Y0124823D01*
X0127979Y0124937D01*
X0127956Y0125068D01*
X0127945Y0125211D01*
X0128424Y0125251D01*
Y0125245D01*
Y0125240D01*
X0128430Y0125205D01*
X0128441Y0125148D01*
X0128453Y0125080D01*
X0128476Y0125005D01*
X0128504Y0124925D01*
X0128539Y0124846D01*
X0128578Y0124771D01*
X0128584Y0124766D01*
X0128601Y0124743D01*
X0128630Y0124708D01*
X0128675Y0124669D01*
X0128727Y0124617D01*
X0128796Y0124572D01*
X0128875Y0124520D01*
X0128967Y0124474D01*
X0128972D01*
X0128978Y0124469D01*
X0129012Y0124457D01*
X0129069Y0124440D01*
X0129138Y0124417D01*
X0129224Y0124395D01*
X0129326Y0124377D01*
X0129435Y0124366D01*
X0129555Y0124360D01*
X0129606D01*
X0129658Y0124366D01*
X0129726Y0124372D01*
X0129806Y0124383D01*
X0129892Y0124395D01*
X0129977Y0124417D01*
X0130063Y0124446D01*
X0130075Y0124451D01*
X0130097Y0124463D01*
X0130137Y0124480D01*
X0130189Y0124509D01*
X0130240Y0124543D01*
X0130297Y0124583D01*
X0130349Y0124629D01*
X0130394Y0124680D01*
X0130400Y0124686D01*
X0130411Y0124708D01*
X0130429Y0124737D01*
X0130451Y0124777D01*
X0130474Y0124828D01*
X0130491Y0124885D01*
X0130503Y0124948D01*
X0130508Y0125011D01*
Y0125017D01*
Y0125040D01*
X0130503Y0125074D01*
X0130497Y0125120D01*
X0130486Y0125171D01*
X0130463Y0125222D01*
X0130440Y0125274D01*
X0130406Y0125325D01*
X0130400Y0125331D01*
X0130389Y0125348D01*
X0130360Y0125371D01*
X0130326Y0125405D01*
X0130274Y0125439D01*
X0130217Y0125479D01*
X0130143Y0125519D01*
X0130057Y0125554D01*
X0130052Y0125559D01*
X0130023Y0125565D01*
X0129983Y0125582D01*
X0129949Y0125588D01*
X0129915Y0125599D01*
X0129869Y0125611D01*
X0129823Y0125628D01*
X0129766Y0125645D01*
X0129703Y0125662D01*
X0129635Y0125679D01*
X0129555Y0125696D01*
X0129469Y0125719D01*
X0129372Y0125742D01*
X0129367D01*
X0129349Y0125748D01*
X0129321Y0125753D01*
X0129287Y0125765D01*
X0129241Y0125776D01*
X0129195Y0125788D01*
X0129081Y0125822D01*
X0128955Y0125856D01*
X0128835Y0125896D01*
X0128721Y0125936D01*
X0128675Y0125959D01*
X0128630Y0125982D01*
X0128624D01*
X0128619Y0125988D01*
X0128584Y0126010D01*
X0128539Y0126039D01*
X0128476Y0126079D01*
X0128407Y0126130D01*
X0128339Y0126193D01*
X0128276Y0126262D01*
X0128219Y0126336D01*
X0128213Y0126347D01*
X0128196Y0126376D01*
X0128179Y0126421D01*
X0128156Y0126479D01*
X0128127Y0126547D01*
X0128110Y0126633D01*
X0128093Y0126724D01*
X0128087Y0126821D01*
Y0126827D01*
Y0126833D01*
Y0126850D01*
Y0126873D01*
X0128099Y0126924D01*
X0128110Y0126998D01*
X0128127Y0127084D01*
X0128156Y0127175D01*
X0128196Y0127267D01*
X0128247Y0127364D01*
Y0127369D01*
X0128253Y0127375D01*
X0128276Y0127404D01*
X0128316Y0127449D01*
X0128373Y0127506D01*
X0128441Y0127569D01*
X0128521Y0127638D01*
X0128619Y0127700D01*
X0128733Y0127752D01*
X0128738D01*
X0128750Y0127758D01*
X0128767Y0127763D01*
X0128790Y0127775D01*
X0128818Y0127780D01*
X0128853Y0127792D01*
X0128938Y0127821D01*
X0129047Y0127843D01*
X0129167Y0127860D01*
X0129298Y0127877D01*
X0129435Y0127883D01*
X0129509D01*
X0129543Y0127877D01*
D02*
G37*
G36*
X0154342D02*
X0154393Y0127872D01*
X0154451Y0127866D01*
X0154513Y0127860D01*
X0154587Y0127849D01*
X0154736Y0127809D01*
X0154902Y0127758D01*
X0154982Y0127723D01*
X0155061Y0127683D01*
X0155141Y0127638D01*
X0155216Y0127586D01*
X0155221Y0127581D01*
X0155233Y0127575D01*
X0155256Y0127558D01*
X0155278Y0127535D01*
X0155313Y0127501D01*
X0155347Y0127466D01*
X0155387Y0127421D01*
X0155433Y0127375D01*
X0155478Y0127318D01*
X0155524Y0127255D01*
X0155570Y0127192D01*
X0155615Y0127118D01*
X0155661Y0127038D01*
X0155701Y0126953D01*
X0155735Y0126861D01*
X0155770Y0126764D01*
X0155267Y0126644D01*
Y0126650D01*
X0155261Y0126661D01*
X0155256Y0126684D01*
X0155244Y0126713D01*
X0155227Y0126747D01*
X0155210Y0126787D01*
X0155164Y0126878D01*
X0155113Y0126975D01*
X0155044Y0127078D01*
X0154964Y0127175D01*
X0154873Y0127255D01*
X0154862Y0127261D01*
X0154827Y0127284D01*
X0154776Y0127318D01*
X0154702Y0127352D01*
X0154610Y0127386D01*
X0154502Y0127421D01*
X0154376Y0127444D01*
X0154239Y0127449D01*
X0154193D01*
X0154165Y0127444D01*
X0154125D01*
X0154085Y0127438D01*
X0153982Y0127421D01*
X0153862Y0127398D01*
X0153737Y0127358D01*
X0153617Y0127306D01*
X0153497Y0127232D01*
X0153491D01*
X0153486Y0127221D01*
X0153451Y0127192D01*
X0153394Y0127147D01*
X0153331Y0127084D01*
X0153263Y0126998D01*
X0153194Y0126901D01*
X0153131Y0126787D01*
X0153080Y0126661D01*
Y0126656D01*
X0153074Y0126644D01*
X0153069Y0126627D01*
X0153063Y0126599D01*
X0153051Y0126570D01*
X0153040Y0126530D01*
X0153023Y0126439D01*
X0153000Y0126324D01*
X0152977Y0126199D01*
X0152966Y0126067D01*
X0152960Y0125925D01*
Y0125919D01*
Y0125902D01*
Y0125879D01*
Y0125845D01*
X0152966Y0125799D01*
Y0125748D01*
X0152972Y0125696D01*
X0152977Y0125634D01*
X0152994Y0125502D01*
X0153023Y0125354D01*
X0153057Y0125211D01*
X0153103Y0125068D01*
Y0125063D01*
X0153109Y0125051D01*
X0153120Y0125034D01*
X0153131Y0125011D01*
X0153166Y0124943D01*
X0153211Y0124863D01*
X0153274Y0124771D01*
X0153349Y0124686D01*
X0153440Y0124594D01*
X0153543Y0124520D01*
X0153548D01*
X0153554Y0124514D01*
X0153571Y0124503D01*
X0153594Y0124492D01*
X0153657Y0124463D01*
X0153737Y0124434D01*
X0153834Y0124400D01*
X0153948Y0124372D01*
X0154068Y0124349D01*
X0154199Y0124343D01*
X0154239D01*
X0154268Y0124349D01*
X0154308D01*
X0154348Y0124355D01*
X0154451Y0124372D01*
X0154559Y0124406D01*
X0154679Y0124446D01*
X0154805Y0124509D01*
X0154862Y0124543D01*
X0154919Y0124589D01*
X0154924Y0124594D01*
X0154930Y0124600D01*
X0154947Y0124617D01*
X0154964Y0124634D01*
X0154993Y0124663D01*
X0155016Y0124691D01*
X0155079Y0124771D01*
X0155147Y0124874D01*
X0155216Y0125000D01*
X0155278Y0125148D01*
X0155324Y0125320D01*
X0155832Y0125188D01*
Y0125182D01*
X0155827Y0125160D01*
X0155815Y0125131D01*
X0155804Y0125085D01*
X0155781Y0125034D01*
X0155758Y0124971D01*
X0155735Y0124908D01*
X0155701Y0124834D01*
X0155621Y0124680D01*
X0155524Y0124526D01*
X0155461Y0124446D01*
X0155398Y0124372D01*
X0155330Y0124297D01*
X0155256Y0124235D01*
X0155250Y0124229D01*
X0155238Y0124223D01*
X0155216Y0124206D01*
X0155181Y0124183D01*
X0155141Y0124160D01*
X0155090Y0124132D01*
X0155039Y0124103D01*
X0154970Y0124075D01*
X0154902Y0124040D01*
X0154822Y0124012D01*
X0154742Y0123983D01*
X0154650Y0123960D01*
X0154553Y0123938D01*
X0154456Y0123921D01*
X0154348Y0123915D01*
X0154239Y0123909D01*
X0154182D01*
X0154136Y0123915D01*
X0154085D01*
X0154022Y0123921D01*
X0153954Y0123932D01*
X0153879Y0123943D01*
X0153720Y0123972D01*
X0153548Y0124018D01*
X0153383Y0124080D01*
X0153303Y0124115D01*
X0153228Y0124160D01*
X0153223Y0124166D01*
X0153211Y0124172D01*
X0153194Y0124189D01*
X0153166Y0124206D01*
X0153131Y0124235D01*
X0153097Y0124263D01*
X0153012Y0124349D01*
X0152915Y0124451D01*
X0152812Y0124577D01*
X0152720Y0124720D01*
X0152635Y0124891D01*
Y0124897D01*
X0152629Y0124914D01*
X0152618Y0124937D01*
X0152606Y0124977D01*
X0152589Y0125017D01*
X0152572Y0125074D01*
X0152555Y0125131D01*
X0152538Y0125200D01*
X0152515Y0125274D01*
X0152498Y0125354D01*
X0152469Y0125531D01*
X0152446Y0125719D01*
X0152435Y0125925D01*
Y0125930D01*
Y0125953D01*
Y0125982D01*
X0152441Y0126028D01*
Y0126079D01*
X0152446Y0126136D01*
X0152452Y0126205D01*
X0152463Y0126279D01*
X0152492Y0126444D01*
X0152532Y0126621D01*
X0152589Y0126798D01*
X0152663Y0126970D01*
Y0126975D01*
X0152675Y0126987D01*
X0152686Y0127010D01*
X0152703Y0127044D01*
X0152732Y0127078D01*
X0152760Y0127124D01*
X0152829Y0127221D01*
X0152920Y0127329D01*
X0153034Y0127444D01*
X0153166Y0127552D01*
X0153314Y0127649D01*
X0153320D01*
X0153331Y0127661D01*
X0153354Y0127672D01*
X0153388Y0127683D01*
X0153428Y0127706D01*
X0153474Y0127723D01*
X0153531Y0127746D01*
X0153588Y0127769D01*
X0153657Y0127786D01*
X0153725Y0127809D01*
X0153885Y0127849D01*
X0154057Y0127872D01*
X0154245Y0127883D01*
X0154302D01*
X0154342Y0127877D01*
D02*
G37*
G36*
X0143898D02*
X0143950Y0127872D01*
X0144007Y0127866D01*
X0144070Y0127860D01*
X0144144Y0127849D01*
X0144292Y0127809D01*
X0144458Y0127758D01*
X0144538Y0127723D01*
X0144618Y0127683D01*
X0144698Y0127638D01*
X0144772Y0127586D01*
X0144778Y0127581D01*
X0144789Y0127575D01*
X0144812Y0127558D01*
X0144835Y0127535D01*
X0144869Y0127501D01*
X0144903Y0127466D01*
X0144943Y0127421D01*
X0144989Y0127375D01*
X0145035Y0127318D01*
X0145080Y0127255D01*
X0145126Y0127192D01*
X0145172Y0127118D01*
X0145217Y0127038D01*
X0145257Y0126953D01*
X0145292Y0126861D01*
X0145326Y0126764D01*
X0144823Y0126644D01*
Y0126650D01*
X0144818Y0126661D01*
X0144812Y0126684D01*
X0144801Y0126713D01*
X0144783Y0126747D01*
X0144766Y0126787D01*
X0144721Y0126878D01*
X0144669Y0126975D01*
X0144601Y0127078D01*
X0144521Y0127175D01*
X0144429Y0127255D01*
X0144418Y0127261D01*
X0144384Y0127284D01*
X0144332Y0127318D01*
X0144258Y0127352D01*
X0144167Y0127386D01*
X0144058Y0127421D01*
X0143933Y0127444D01*
X0143796Y0127449D01*
X0143750D01*
X0143721Y0127444D01*
X0143681D01*
X0143641Y0127438D01*
X0143539Y0127421D01*
X0143419Y0127398D01*
X0143293Y0127358D01*
X0143173Y0127306D01*
X0143053Y0127232D01*
X0143048D01*
X0143042Y0127221D01*
X0143008Y0127192D01*
X0142950Y0127147D01*
X0142888Y0127084D01*
X0142819Y0126998D01*
X0142751Y0126901D01*
X0142688Y0126787D01*
X0142637Y0126661D01*
Y0126656D01*
X0142631Y0126644D01*
X0142625Y0126627D01*
X0142619Y0126599D01*
X0142608Y0126570D01*
X0142596Y0126530D01*
X0142579Y0126439D01*
X0142557Y0126324D01*
X0142534Y0126199D01*
X0142522Y0126067D01*
X0142517Y0125925D01*
Y0125919D01*
Y0125902D01*
Y0125879D01*
Y0125845D01*
X0142522Y0125799D01*
Y0125748D01*
X0142528Y0125696D01*
X0142534Y0125634D01*
X0142551Y0125502D01*
X0142579Y0125354D01*
X0142614Y0125211D01*
X0142659Y0125068D01*
Y0125063D01*
X0142665Y0125051D01*
X0142676Y0125034D01*
X0142688Y0125011D01*
X0142722Y0124943D01*
X0142768Y0124863D01*
X0142831Y0124771D01*
X0142905Y0124686D01*
X0142996Y0124594D01*
X0143099Y0124520D01*
X0143105D01*
X0143110Y0124514D01*
X0143128Y0124503D01*
X0143150Y0124492D01*
X0143213Y0124463D01*
X0143293Y0124434D01*
X0143390Y0124400D01*
X0143504Y0124372D01*
X0143624Y0124349D01*
X0143756Y0124343D01*
X0143796D01*
X0143824Y0124349D01*
X0143864D01*
X0143904Y0124355D01*
X0144007Y0124372D01*
X0144115Y0124406D01*
X0144235Y0124446D01*
X0144361Y0124509D01*
X0144418Y0124543D01*
X0144475Y0124589D01*
X0144481Y0124594D01*
X0144486Y0124600D01*
X0144504Y0124617D01*
X0144521Y0124634D01*
X0144549Y0124663D01*
X0144572Y0124691D01*
X0144635Y0124771D01*
X0144703Y0124874D01*
X0144772Y0125000D01*
X0144835Y0125148D01*
X0144880Y0125320D01*
X0145389Y0125188D01*
Y0125182D01*
X0145383Y0125160D01*
X0145372Y0125131D01*
X0145360Y0125085D01*
X0145337Y0125034D01*
X0145315Y0124971D01*
X0145292Y0124908D01*
X0145257Y0124834D01*
X0145177Y0124680D01*
X0145080Y0124526D01*
X0145018Y0124446D01*
X0144955Y0124372D01*
X0144886Y0124297D01*
X0144812Y0124235D01*
X0144806Y0124229D01*
X0144795Y0124223D01*
X0144772Y0124206D01*
X0144738Y0124183D01*
X0144698Y0124160D01*
X0144646Y0124132D01*
X0144595Y0124103D01*
X0144527Y0124075D01*
X0144458Y0124040D01*
X0144378Y0124012D01*
X0144298Y0123983D01*
X0144207Y0123960D01*
X0144110Y0123938D01*
X0144013Y0123921D01*
X0143904Y0123915D01*
X0143796Y0123909D01*
X0143738D01*
X0143693Y0123915D01*
X0143641D01*
X0143579Y0123921D01*
X0143510Y0123932D01*
X0143436Y0123943D01*
X0143276Y0123972D01*
X0143105Y0124018D01*
X0142939Y0124080D01*
X0142859Y0124115D01*
X0142785Y0124160D01*
X0142779Y0124166D01*
X0142768Y0124172D01*
X0142751Y0124189D01*
X0142722Y0124206D01*
X0142688Y0124235D01*
X0142654Y0124263D01*
X0142568Y0124349D01*
X0142471Y0124451D01*
X0142368Y0124577D01*
X0142277Y0124720D01*
X0142191Y0124891D01*
Y0124897D01*
X0142185Y0124914D01*
X0142174Y0124937D01*
X0142163Y0124977D01*
X0142145Y0125017D01*
X0142128Y0125074D01*
X0142111Y0125131D01*
X0142094Y0125200D01*
X0142071Y0125274D01*
X0142054Y0125354D01*
X0142025Y0125531D01*
X0142003Y0125719D01*
X0141991Y0125925D01*
Y0125930D01*
Y0125953D01*
Y0125982D01*
X0141997Y0126028D01*
Y0126079D01*
X0142003Y0126136D01*
X0142008Y0126205D01*
X0142020Y0126279D01*
X0142048Y0126444D01*
X0142088Y0126621D01*
X0142145Y0126798D01*
X0142220Y0126970D01*
Y0126975D01*
X0142231Y0126987D01*
X0142243Y0127010D01*
X0142260Y0127044D01*
X0142288Y0127078D01*
X0142317Y0127124D01*
X0142385Y0127221D01*
X0142477Y0127329D01*
X0142591Y0127444D01*
X0142722Y0127552D01*
X0142871Y0127649D01*
X0142876D01*
X0142888Y0127661D01*
X0142911Y0127672D01*
X0142945Y0127683D01*
X0142985Y0127706D01*
X0143031Y0127723D01*
X0143088Y0127746D01*
X0143145Y0127769D01*
X0143213Y0127786D01*
X0143282Y0127809D01*
X0143442Y0127849D01*
X0143613Y0127872D01*
X0143801Y0127883D01*
X0143858D01*
X0143898Y0127877D01*
D02*
G37*
G36*
X0137035D02*
X0137086Y0127872D01*
X0137144Y0127866D01*
X0137206Y0127860D01*
X0137280Y0127849D01*
X0137429Y0127809D01*
X0137595Y0127758D01*
X0137674Y0127723D01*
X0137754Y0127683D01*
X0137834Y0127638D01*
X0137909Y0127586D01*
X0137914Y0127581D01*
X0137926Y0127575D01*
X0137949Y0127558D01*
X0137971Y0127535D01*
X0138006Y0127501D01*
X0138040Y0127466D01*
X0138080Y0127421D01*
X0138126Y0127375D01*
X0138171Y0127318D01*
X0138217Y0127255D01*
X0138263Y0127192D01*
X0138308Y0127118D01*
X0138354Y0127038D01*
X0138394Y0126953D01*
X0138428Y0126861D01*
X0138462Y0126764D01*
X0137960Y0126644D01*
Y0126650D01*
X0137954Y0126661D01*
X0137949Y0126684D01*
X0137937Y0126713D01*
X0137920Y0126747D01*
X0137903Y0126787D01*
X0137857Y0126878D01*
X0137806Y0126975D01*
X0137737Y0127078D01*
X0137657Y0127175D01*
X0137566Y0127255D01*
X0137555Y0127261D01*
X0137520Y0127284D01*
X0137469Y0127318D01*
X0137395Y0127352D01*
X0137303Y0127386D01*
X0137195Y0127421D01*
X0137069Y0127444D01*
X0136932Y0127449D01*
X0136887D01*
X0136858Y0127444D01*
X0136818D01*
X0136778Y0127438D01*
X0136675Y0127421D01*
X0136555Y0127398D01*
X0136430Y0127358D01*
X0136310Y0127306D01*
X0136190Y0127232D01*
X0136184D01*
X0136179Y0127221D01*
X0136144Y0127192D01*
X0136087Y0127147D01*
X0136024Y0127084D01*
X0135956Y0126998D01*
X0135887Y0126901D01*
X0135825Y0126787D01*
X0135773Y0126661D01*
Y0126656D01*
X0135767Y0126644D01*
X0135762Y0126627D01*
X0135756Y0126599D01*
X0135745Y0126570D01*
X0135733Y0126530D01*
X0135716Y0126439D01*
X0135693Y0126324D01*
X0135670Y0126199D01*
X0135659Y0126067D01*
X0135653Y0125925D01*
Y0125919D01*
Y0125902D01*
Y0125879D01*
Y0125845D01*
X0135659Y0125799D01*
Y0125748D01*
X0135665Y0125696D01*
X0135670Y0125634D01*
X0135687Y0125502D01*
X0135716Y0125354D01*
X0135750Y0125211D01*
X0135796Y0125068D01*
Y0125063D01*
X0135802Y0125051D01*
X0135813Y0125034D01*
X0135825Y0125011D01*
X0135859Y0124943D01*
X0135904Y0124863D01*
X0135967Y0124771D01*
X0136041Y0124686D01*
X0136133Y0124594D01*
X0136236Y0124520D01*
X0136241D01*
X0136247Y0124514D01*
X0136264Y0124503D01*
X0136287Y0124492D01*
X0136350Y0124463D01*
X0136430Y0124434D01*
X0136527Y0124400D01*
X0136641Y0124372D01*
X0136761Y0124349D01*
X0136892Y0124343D01*
X0136932D01*
X0136961Y0124349D01*
X0137001D01*
X0137041Y0124355D01*
X0137144Y0124372D01*
X0137252Y0124406D01*
X0137372Y0124446D01*
X0137497Y0124509D01*
X0137555Y0124543D01*
X0137612Y0124589D01*
X0137617Y0124594D01*
X0137623Y0124600D01*
X0137640Y0124617D01*
X0137657Y0124634D01*
X0137686Y0124663D01*
X0137709Y0124691D01*
X0137772Y0124771D01*
X0137840Y0124874D01*
X0137909Y0125000D01*
X0137971Y0125148D01*
X0138017Y0125320D01*
X0138525Y0125188D01*
Y0125182D01*
X0138520Y0125160D01*
X0138508Y0125131D01*
X0138497Y0125085D01*
X0138474Y0125034D01*
X0138451Y0124971D01*
X0138428Y0124908D01*
X0138394Y0124834D01*
X0138314Y0124680D01*
X0138217Y0124526D01*
X0138154Y0124446D01*
X0138091Y0124372D01*
X0138023Y0124297D01*
X0137949Y0124235D01*
X0137943Y0124229D01*
X0137932Y0124223D01*
X0137909Y0124206D01*
X0137874Y0124183D01*
X0137834Y0124160D01*
X0137783Y0124132D01*
X0137732Y0124103D01*
X0137663Y0124075D01*
X0137595Y0124040D01*
X0137515Y0124012D01*
X0137435Y0123983D01*
X0137343Y0123960D01*
X0137246Y0123938D01*
X0137149Y0123921D01*
X0137041Y0123915D01*
X0136932Y0123909D01*
X0136875D01*
X0136829Y0123915D01*
X0136778D01*
X0136715Y0123921D01*
X0136647Y0123932D01*
X0136573Y0123943D01*
X0136413Y0123972D01*
X0136241Y0124018D01*
X0136076Y0124080D01*
X0135996Y0124115D01*
X0135922Y0124160D01*
X0135916Y0124166D01*
X0135904Y0124172D01*
X0135887Y0124189D01*
X0135859Y0124206D01*
X0135825Y0124235D01*
X0135790Y0124263D01*
X0135705Y0124349D01*
X0135608Y0124451D01*
X0135505Y0124577D01*
X0135413Y0124720D01*
X0135328Y0124891D01*
Y0124897D01*
X0135322Y0124914D01*
X0135311Y0124937D01*
X0135299Y0124977D01*
X0135282Y0125017D01*
X0135265Y0125074D01*
X0135248Y0125131D01*
X0135231Y0125200D01*
X0135208Y0125274D01*
X0135191Y0125354D01*
X0135162Y0125531D01*
X0135139Y0125719D01*
X0135128Y0125925D01*
Y0125930D01*
Y0125953D01*
Y0125982D01*
X0135134Y0126028D01*
Y0126079D01*
X0135139Y0126136D01*
X0135145Y0126205D01*
X0135156Y0126279D01*
X0135185Y0126444D01*
X0135225Y0126621D01*
X0135282Y0126798D01*
X0135356Y0126970D01*
Y0126975D01*
X0135368Y0126987D01*
X0135379Y0127010D01*
X0135396Y0127044D01*
X0135425Y0127078D01*
X0135453Y0127124D01*
X0135522Y0127221D01*
X0135613Y0127329D01*
X0135727Y0127444D01*
X0135859Y0127552D01*
X0136007Y0127649D01*
X0136013D01*
X0136024Y0127661D01*
X0136047Y0127672D01*
X0136081Y0127683D01*
X0136121Y0127706D01*
X0136167Y0127723D01*
X0136224Y0127746D01*
X0136281Y0127769D01*
X0136350Y0127786D01*
X0136418Y0127809D01*
X0136578Y0127849D01*
X0136749Y0127872D01*
X0136938Y0127883D01*
X0136995D01*
X0137035Y0127877D01*
D02*
G37*
G36*
X0161622Y0123972D02*
X0161148D01*
Y0126970D01*
X0161143Y0126964D01*
X0161120Y0126941D01*
X0161080Y0126913D01*
X0161028Y0126867D01*
X0160966Y0126821D01*
X0160886Y0126764D01*
X0160794Y0126707D01*
X0160697Y0126644D01*
X0160691D01*
X0160686Y0126638D01*
X0160652Y0126616D01*
X0160600Y0126587D01*
X0160532Y0126553D01*
X0160457Y0126513D01*
X0160378Y0126479D01*
X0160292Y0126439D01*
X0160206Y0126404D01*
Y0126861D01*
X0160212D01*
X0160223Y0126867D01*
X0160246Y0126878D01*
X0160275Y0126895D01*
X0160309Y0126913D01*
X0160349Y0126935D01*
X0160440Y0126987D01*
X0160549Y0127050D01*
X0160663Y0127124D01*
X0160777Y0127209D01*
X0160891Y0127306D01*
X0160897Y0127312D01*
X0160903Y0127318D01*
X0160943Y0127352D01*
X0160994Y0127404D01*
X0161057Y0127472D01*
X0161126Y0127552D01*
X0161194Y0127638D01*
X0161263Y0127729D01*
X0161314Y0127826D01*
X0161622D01*
Y0123972D01*
D02*
G37*
G36*
X0157985Y0127809D02*
X0158031D01*
X0158128Y0127798D01*
X0158242Y0127786D01*
X0158356Y0127763D01*
X0158476Y0127735D01*
X0158579Y0127695D01*
X0158584D01*
X0158590Y0127689D01*
X0158624Y0127672D01*
X0158670Y0127643D01*
X0158733Y0127609D01*
X0158801Y0127558D01*
X0158870Y0127495D01*
X0158933Y0127421D01*
X0158996Y0127335D01*
X0159001Y0127324D01*
X0159019Y0127295D01*
X0159047Y0127244D01*
X0159076Y0127181D01*
X0159098Y0127107D01*
X0159127Y0127021D01*
X0159144Y0126924D01*
X0159150Y0126827D01*
Y0126815D01*
Y0126787D01*
X0159144Y0126735D01*
X0159133Y0126678D01*
X0159116Y0126604D01*
X0159093Y0126530D01*
X0159058Y0126444D01*
X0159013Y0126364D01*
X0159007Y0126353D01*
X0158990Y0126330D01*
X0158956Y0126290D01*
X0158916Y0126239D01*
X0158859Y0126182D01*
X0158784Y0126125D01*
X0158704Y0126067D01*
X0158607Y0126016D01*
X0158613D01*
X0158624Y0126010D01*
X0158642Y0126005D01*
X0158665Y0125999D01*
X0158727Y0125970D01*
X0158807Y0125936D01*
X0158893Y0125885D01*
X0158978Y0125822D01*
X0159070Y0125748D01*
X0159144Y0125662D01*
X0159150Y0125651D01*
X0159173Y0125616D01*
X0159207Y0125565D01*
X0159241Y0125496D01*
X0159275Y0125411D01*
X0159310Y0125314D01*
X0159333Y0125205D01*
X0159338Y0125085D01*
Y0125080D01*
Y0125074D01*
Y0125040D01*
X0159333Y0124988D01*
X0159327Y0124920D01*
X0159310Y0124840D01*
X0159293Y0124754D01*
X0159264Y0124669D01*
X0159224Y0124577D01*
X0159218Y0124566D01*
X0159201Y0124537D01*
X0159178Y0124497D01*
X0159144Y0124446D01*
X0159104Y0124389D01*
X0159058Y0124332D01*
X0159001Y0124275D01*
X0158939Y0124223D01*
X0158933Y0124217D01*
X0158910Y0124200D01*
X0158870Y0124178D01*
X0158824Y0124155D01*
X0158762Y0124120D01*
X0158693Y0124092D01*
X0158607Y0124063D01*
X0158516Y0124035D01*
X0158505D01*
X0158470Y0124023D01*
X0158419Y0124018D01*
X0158345Y0124006D01*
X0158253Y0123995D01*
X0158151Y0123983D01*
X0158031Y0123978D01*
X0157899Y0123972D01*
X0156438D01*
Y0127815D01*
X0157951D01*
X0157985Y0127809D01*
D02*
G37*
G36*
X0150665D02*
X0150756Y0127803D01*
X0150853Y0127798D01*
X0150950Y0127786D01*
X0151030Y0127775D01*
X0151042D01*
X0151076Y0127763D01*
X0151133Y0127752D01*
X0151196Y0127735D01*
X0151270Y0127712D01*
X0151350Y0127683D01*
X0151430Y0127643D01*
X0151504Y0127598D01*
X0151516Y0127592D01*
X0151538Y0127575D01*
X0151573Y0127546D01*
X0151618Y0127501D01*
X0151664Y0127449D01*
X0151715Y0127386D01*
X0151767Y0127312D01*
X0151813Y0127227D01*
X0151818Y0127215D01*
X0151830Y0127187D01*
X0151852Y0127135D01*
X0151875Y0127072D01*
X0151892Y0126992D01*
X0151915Y0126907D01*
X0151927Y0126804D01*
X0151932Y0126701D01*
Y0126696D01*
Y0126678D01*
Y0126656D01*
X0151927Y0126621D01*
X0151921Y0126576D01*
X0151915Y0126530D01*
X0151904Y0126473D01*
X0151892Y0126416D01*
X0151858Y0126285D01*
X0151801Y0126147D01*
X0151767Y0126073D01*
X0151721Y0126005D01*
X0151675Y0125936D01*
X0151618Y0125873D01*
X0151613Y0125868D01*
X0151601Y0125856D01*
X0151584Y0125845D01*
X0151556Y0125822D01*
X0151521Y0125793D01*
X0151476Y0125765D01*
X0151424Y0125736D01*
X0151361Y0125708D01*
X0151287Y0125673D01*
X0151207Y0125645D01*
X0151116Y0125616D01*
X0151013Y0125588D01*
X0150899Y0125565D01*
X0150773Y0125554D01*
X0150642Y0125542D01*
X0150494Y0125536D01*
X0149511D01*
Y0123972D01*
X0149003D01*
Y0127815D01*
X0150579D01*
X0150665Y0127809D01*
D02*
G37*
G36*
X0140735Y0123972D02*
X0140261D01*
Y0126970D01*
X0140255Y0126964D01*
X0140233Y0126941D01*
X0140193Y0126913D01*
X0140141Y0126867D01*
X0140078Y0126821D01*
X0139998Y0126764D01*
X0139907Y0126707D01*
X0139810Y0126644D01*
X0139804D01*
X0139799Y0126638D01*
X0139764Y0126616D01*
X0139713Y0126587D01*
X0139645Y0126553D01*
X0139570Y0126513D01*
X0139490Y0126479D01*
X0139405Y0126439D01*
X0139319Y0126404D01*
Y0126861D01*
X0139325D01*
X0139336Y0126867D01*
X0139359Y0126878D01*
X0139388Y0126895D01*
X0139422Y0126913D01*
X0139462Y0126935D01*
X0139553Y0126987D01*
X0139662Y0127050D01*
X0139776Y0127124D01*
X0139890Y0127209D01*
X0140004Y0127306D01*
X0140010Y0127312D01*
X0140016Y0127318D01*
X0140056Y0127352D01*
X0140107Y0127404D01*
X0140170Y0127472D01*
X0140238Y0127552D01*
X0140307Y0127638D01*
X0140375Y0127729D01*
X0140427Y0127826D01*
X0140735D01*
Y0123972D01*
D02*
G37*
G36*
X0134483Y0127364D02*
X0132210D01*
Y0126187D01*
X0134340D01*
Y0125736D01*
X0132210D01*
Y0124423D01*
X0134574D01*
Y0123972D01*
X0131702D01*
Y0127815D01*
X0134483D01*
Y0127364D01*
D02*
G37*
G36*
X0148643Y0122904D02*
X0145520D01*
Y0123247D01*
X0148643D01*
Y0122904D01*
D02*
G37*
%LPC*%
G36*
X0161860Y0140850D02*
X0160669D01*
Y0139322D01*
X0161905D01*
X0162002Y0139330D01*
X0162099Y0139337D01*
X0162204Y0139345D01*
X0162302Y0139360D01*
X0162384Y0139375D01*
X0162399Y0139382D01*
X0162429Y0139390D01*
X0162474Y0139405D01*
X0162526Y0139435D01*
X0162586Y0139465D01*
X0162654Y0139510D01*
X0162714Y0139562D01*
X0162766Y0139622D01*
X0162774Y0139629D01*
X0162788Y0139652D01*
X0162811Y0139697D01*
X0162833Y0139749D01*
X0162856Y0139809D01*
X0162878Y0139884D01*
X0162893Y0139974D01*
X0162901Y0140071D01*
Y0140086D01*
Y0140116D01*
X0162893Y0140161D01*
X0162886Y0140221D01*
X0162871Y0140289D01*
X0162848Y0140364D01*
X0162818Y0140438D01*
X0162774Y0140513D01*
X0162766Y0140521D01*
X0162751Y0140543D01*
X0162721Y0140581D01*
X0162684Y0140618D01*
X0162639Y0140663D01*
X0162579Y0140708D01*
X0162511Y0140745D01*
X0162429Y0140776D01*
X0162422D01*
X0162384Y0140790D01*
X0162332Y0140798D01*
X0162257Y0140813D01*
X0162152Y0140828D01*
X0162017Y0140835D01*
X0161860Y0140850D01*
D02*
G37*
G36*
X0162002Y0138731D02*
X0160669D01*
Y0136993D01*
X0162099D01*
X0162249Y0137001D01*
X0162317Y0137008D01*
X0162376Y0137015D01*
X0162384D01*
X0162414Y0137023D01*
X0162459Y0137030D01*
X0162511Y0137045D01*
X0162639Y0137090D01*
X0162699Y0137120D01*
X0162759Y0137150D01*
X0162766Y0137158D01*
X0162788Y0137165D01*
X0162811Y0137188D01*
X0162848Y0137225D01*
X0162893Y0137263D01*
X0162931Y0137308D01*
X0162976Y0137367D01*
X0163013Y0137427D01*
X0163021Y0137435D01*
X0163028Y0137457D01*
X0163043Y0137502D01*
X0163066Y0137555D01*
X0163088Y0137615D01*
X0163103Y0137690D01*
X0163110Y0137772D01*
X0163118Y0137862D01*
Y0137877D01*
Y0137907D01*
X0163110Y0137959D01*
X0163103Y0138027D01*
X0163081Y0138101D01*
X0163058Y0138184D01*
X0163021Y0138266D01*
X0162968Y0138349D01*
X0162961Y0138356D01*
X0162938Y0138386D01*
X0162908Y0138416D01*
X0162863Y0138461D01*
X0162803Y0138514D01*
X0162736Y0138558D01*
X0162654Y0138603D01*
X0162564Y0138641D01*
X0162549Y0138648D01*
X0162519Y0138656D01*
X0162459Y0138671D01*
X0162376Y0138686D01*
X0162272Y0138701D01*
X0162144Y0138716D01*
X0162002Y0138731D01*
D02*
G37*
G36*
X0146101Y0140850D02*
X0144663D01*
Y0139045D01*
X0146018D01*
X0146063Y0139053D01*
X0146116D01*
X0146176Y0139060D01*
X0146318Y0139075D01*
X0146468Y0139105D01*
X0146618Y0139150D01*
X0146752Y0139202D01*
X0146820Y0139240D01*
X0146872Y0139285D01*
X0146887Y0139300D01*
X0146917Y0139330D01*
X0146962Y0139382D01*
X0147014Y0139457D01*
X0147060Y0139555D01*
X0147104Y0139674D01*
X0147134Y0139809D01*
X0147149Y0139959D01*
Y0139966D01*
Y0139974D01*
Y0140012D01*
X0147142Y0140071D01*
X0147127Y0140146D01*
X0147112Y0140236D01*
X0147082Y0140326D01*
X0147037Y0140416D01*
X0146985Y0140506D01*
X0146977Y0140513D01*
X0146955Y0140543D01*
X0146925Y0140581D01*
X0146872Y0140626D01*
X0146812Y0140678D01*
X0146745Y0140731D01*
X0146655Y0140768D01*
X0146565Y0140805D01*
X0146558D01*
X0146535Y0140813D01*
X0146490Y0140820D01*
X0146423Y0140828D01*
X0146340Y0140835D01*
X0146236Y0140843D01*
X0146101Y0140850D01*
D02*
G37*
G36*
X0173949Y0140948D02*
X0173889D01*
X0173821Y0140933D01*
X0173739Y0140918D01*
X0173649Y0140888D01*
X0173544Y0140850D01*
X0173447Y0140790D01*
X0173357Y0140716D01*
X0173349Y0140708D01*
X0173319Y0140678D01*
X0173290Y0140626D01*
X0173245Y0140566D01*
X0173207Y0140483D01*
X0173170Y0140393D01*
X0173140Y0140289D01*
X0173132Y0140176D01*
Y0140169D01*
Y0140161D01*
X0173140Y0140116D01*
X0173147Y0140049D01*
X0173162Y0139966D01*
X0173185Y0139877D01*
X0173230Y0139779D01*
X0173282Y0139682D01*
X0173357Y0139592D01*
X0173364Y0139585D01*
X0173402Y0139555D01*
X0173447Y0139525D01*
X0173514Y0139480D01*
X0173604Y0139442D01*
X0173701Y0139405D01*
X0173821Y0139375D01*
X0173956Y0139367D01*
X0173971D01*
X0174016Y0139375D01*
X0174083Y0139382D01*
X0174166Y0139397D01*
X0174256Y0139420D01*
X0174353Y0139465D01*
X0174450Y0139517D01*
X0174540Y0139592D01*
X0174548Y0139600D01*
X0174578Y0139629D01*
X0174615Y0139682D01*
X0174660Y0139742D01*
X0174698Y0139824D01*
X0174735Y0139914D01*
X0174765Y0140026D01*
X0174773Y0140139D01*
Y0140146D01*
Y0140154D01*
Y0140199D01*
X0174758Y0140259D01*
X0174742Y0140341D01*
X0174713Y0140431D01*
X0174675Y0140528D01*
X0174615Y0140626D01*
X0174533Y0140716D01*
X0174525Y0140723D01*
X0174488Y0140753D01*
X0174443Y0140790D01*
X0174375Y0140835D01*
X0174286Y0140873D01*
X0174188Y0140910D01*
X0174076Y0140940D01*
X0173949Y0140948D01*
D02*
G37*
G36*
X0173934Y0138865D02*
X0173889D01*
X0173859Y0138858D01*
X0173784Y0138850D01*
X0173679Y0138828D01*
X0173567Y0138798D01*
X0173447Y0138746D01*
X0173327Y0138671D01*
X0173215Y0138573D01*
X0173200Y0138558D01*
X0173170Y0138521D01*
X0173125Y0138461D01*
X0173072Y0138379D01*
X0173020Y0138274D01*
X0172975Y0138154D01*
X0172945Y0138012D01*
X0172930Y0137854D01*
Y0137839D01*
Y0137809D01*
X0172937Y0137757D01*
X0172945Y0137690D01*
X0172960Y0137615D01*
X0172982Y0137532D01*
X0173012Y0137435D01*
X0173050Y0137345D01*
X0173057Y0137338D01*
X0173072Y0137308D01*
X0173102Y0137263D01*
X0173147Y0137203D01*
X0173200Y0137143D01*
X0173259Y0137083D01*
X0173334Y0137015D01*
X0173424Y0136963D01*
X0173439Y0136955D01*
X0173469Y0136941D01*
X0173514Y0136918D01*
X0173582Y0136896D01*
X0173664Y0136873D01*
X0173754Y0136851D01*
X0173851Y0136836D01*
X0173956Y0136828D01*
X0174001D01*
X0174031Y0136836D01*
X0174113Y0136843D01*
X0174218Y0136866D01*
X0174331Y0136896D01*
X0174458Y0136948D01*
X0174578Y0137015D01*
X0174690Y0137113D01*
X0174705Y0137128D01*
X0174735Y0137165D01*
X0174780Y0137225D01*
X0174840Y0137308D01*
X0174892Y0137412D01*
X0174937Y0137540D01*
X0174967Y0137675D01*
X0174982Y0137832D01*
Y0137839D01*
Y0137854D01*
Y0137877D01*
X0174975Y0137907D01*
X0174967Y0137989D01*
X0174945Y0138094D01*
X0174907Y0138214D01*
X0174855Y0138334D01*
X0174780Y0138461D01*
X0174683Y0138573D01*
X0174668Y0138588D01*
X0174630Y0138618D01*
X0174563Y0138663D01*
X0174480Y0138723D01*
X0174368Y0138776D01*
X0174241Y0138821D01*
X0174098Y0138850D01*
X0173934Y0138865D01*
D02*
G37*
G36*
X0176940Y0214667D02*
X0176032D01*
Y0213502D01*
X0176974D01*
X0177048Y0213508D01*
X0177122Y0213513D01*
X0177202Y0213519D01*
X0177277Y0213530D01*
X0177339Y0213542D01*
X0177351Y0213548D01*
X0177374Y0213553D01*
X0177408Y0213565D01*
X0177448Y0213588D01*
X0177494Y0213610D01*
X0177545Y0213645D01*
X0177591Y0213685D01*
X0177630Y0213730D01*
X0177636Y0213736D01*
X0177648Y0213753D01*
X0177665Y0213788D01*
X0177682Y0213827D01*
X0177699Y0213873D01*
X0177716Y0213930D01*
X0177728Y0213999D01*
X0177733Y0214073D01*
Y0214084D01*
Y0214107D01*
X0177728Y0214142D01*
X0177722Y0214187D01*
X0177710Y0214239D01*
X0177693Y0214296D01*
X0177671Y0214353D01*
X0177636Y0214410D01*
X0177630Y0214416D01*
X0177619Y0214433D01*
X0177596Y0214461D01*
X0177568Y0214490D01*
X0177533Y0214524D01*
X0177488Y0214558D01*
X0177436Y0214587D01*
X0177374Y0214610D01*
X0177368D01*
X0177339Y0214621D01*
X0177299Y0214627D01*
X0177242Y0214638D01*
X0177162Y0214650D01*
X0177059Y0214655D01*
X0176940Y0214667D01*
D02*
G37*
G36*
X0177048Y0213051D02*
X0176032D01*
Y0211726D01*
X0177122D01*
X0177237Y0211732D01*
X0177288Y0211738D01*
X0177334Y0211743D01*
X0177339D01*
X0177362Y0211749D01*
X0177396Y0211755D01*
X0177436Y0211766D01*
X0177533Y0211800D01*
X0177579Y0211823D01*
X0177625Y0211846D01*
X0177630Y0211852D01*
X0177648Y0211858D01*
X0177665Y0211875D01*
X0177693Y0211903D01*
X0177728Y0211932D01*
X0177756Y0211966D01*
X0177790Y0212012D01*
X0177819Y0212057D01*
X0177825Y0212063D01*
X0177830Y0212080D01*
X0177842Y0212114D01*
X0177859Y0212154D01*
X0177876Y0212200D01*
X0177887Y0212257D01*
X0177893Y0212320D01*
X0177899Y0212388D01*
Y0212400D01*
Y0212423D01*
X0177893Y0212463D01*
X0177887Y0212514D01*
X0177870Y0212571D01*
X0177853Y0212634D01*
X0177825Y0212697D01*
X0177785Y0212760D01*
X0177779Y0212765D01*
X0177762Y0212788D01*
X0177739Y0212811D01*
X0177705Y0212845D01*
X0177659Y0212885D01*
X0177608Y0212919D01*
X0177545Y0212954D01*
X0177476Y0212982D01*
X0177465Y0212988D01*
X0177442Y0212994D01*
X0177396Y0213005D01*
X0177334Y0213017D01*
X0177254Y0213028D01*
X0177157Y0213039D01*
X0177048Y0213051D01*
D02*
G37*
G36*
X0169694Y0214667D02*
X0168597D01*
Y0213291D01*
X0169631D01*
X0169665Y0213296D01*
X0169705D01*
X0169751Y0213302D01*
X0169859Y0213314D01*
X0169973Y0213336D01*
X0170088Y0213371D01*
X0170190Y0213411D01*
X0170242Y0213439D01*
X0170282Y0213473D01*
X0170293Y0213485D01*
X0170316Y0213508D01*
X0170350Y0213548D01*
X0170390Y0213605D01*
X0170424Y0213679D01*
X0170459Y0213770D01*
X0170482Y0213873D01*
X0170493Y0213987D01*
Y0213993D01*
Y0213999D01*
Y0214027D01*
X0170487Y0214073D01*
X0170476Y0214130D01*
X0170465Y0214199D01*
X0170442Y0214267D01*
X0170407Y0214336D01*
X0170367Y0214404D01*
X0170362Y0214410D01*
X0170345Y0214433D01*
X0170322Y0214461D01*
X0170282Y0214495D01*
X0170236Y0214535D01*
X0170185Y0214575D01*
X0170116Y0214604D01*
X0170048Y0214633D01*
X0170042D01*
X0170025Y0214638D01*
X0169991Y0214644D01*
X0169939Y0214650D01*
X0169876Y0214655D01*
X0169796Y0214661D01*
X0169694Y0214667D01*
D02*
G37*
G36*
X0154602Y0214695D02*
X0153386D01*
Y0213422D01*
X0154534D01*
X0154596Y0213428D01*
X0154676Y0213433D01*
X0154762Y0213439D01*
X0154853Y0213451D01*
X0154939Y0213468D01*
X0155019Y0213491D01*
X0155030Y0213496D01*
X0155053Y0213502D01*
X0155087Y0213525D01*
X0155133Y0213548D01*
X0155179Y0213582D01*
X0155230Y0213616D01*
X0155282Y0213667D01*
X0155322Y0213719D01*
X0155327Y0213725D01*
X0155339Y0213748D01*
X0155356Y0213782D01*
X0155373Y0213822D01*
X0155390Y0213873D01*
X0155407Y0213936D01*
X0155419Y0213999D01*
X0155424Y0214067D01*
Y0214073D01*
Y0214079D01*
X0155419Y0214113D01*
X0155413Y0214164D01*
X0155402Y0214227D01*
X0155373Y0214296D01*
X0155339Y0214376D01*
X0155293Y0214450D01*
X0155225Y0214518D01*
X0155213Y0214524D01*
X0155184Y0214547D01*
X0155139Y0214575D01*
X0155070Y0214610D01*
X0154985Y0214638D01*
X0154876Y0214667D01*
X0154751Y0214690D01*
X0154602Y0214695D01*
D02*
G37*
G36*
X0150896Y0214667D02*
X0149800D01*
Y0213291D01*
X0150833D01*
X0150868Y0213296D01*
X0150908D01*
X0150953Y0213302D01*
X0151062Y0213314D01*
X0151176Y0213336D01*
X0151290Y0213371D01*
X0151393Y0213411D01*
X0151444Y0213439D01*
X0151484Y0213473D01*
X0151496Y0213485D01*
X0151519Y0213508D01*
X0151553Y0213548D01*
X0151593Y0213605D01*
X0151627Y0213679D01*
X0151662Y0213770D01*
X0151684Y0213873D01*
X0151696Y0213987D01*
Y0213993D01*
Y0213999D01*
Y0214027D01*
X0151690Y0214073D01*
X0151679Y0214130D01*
X0151667Y0214199D01*
X0151644Y0214267D01*
X0151610Y0214336D01*
X0151570Y0214404D01*
X0151564Y0214410D01*
X0151547Y0214433D01*
X0151524Y0214461D01*
X0151484Y0214495D01*
X0151439Y0214535D01*
X0151387Y0214575D01*
X0151319Y0214604D01*
X0151250Y0214633D01*
X0151245D01*
X0151227Y0214638D01*
X0151193Y0214644D01*
X0151142Y0214650D01*
X0151079Y0214655D01*
X0150999Y0214661D01*
X0150896Y0214667D01*
D02*
G37*
G36*
X0195846Y0127659D02*
X0194938D01*
Y0126494D01*
X0195880D01*
X0195954Y0126500D01*
X0196028Y0126505D01*
X0196108Y0126511D01*
X0196183Y0126523D01*
X0196246Y0126534D01*
X0196257Y0126540D01*
X0196280Y0126546D01*
X0196314Y0126557D01*
X0196354Y0126580D01*
X0196400Y0126603D01*
X0196451Y0126637D01*
X0196497Y0126677D01*
X0196537Y0126723D01*
X0196542Y0126728D01*
X0196554Y0126745D01*
X0196571Y0126780D01*
X0196588Y0126820D01*
X0196605Y0126865D01*
X0196622Y0126922D01*
X0196634Y0126991D01*
X0196640Y0127065D01*
Y0127076D01*
Y0127099D01*
X0196634Y0127134D01*
X0196628Y0127179D01*
X0196617Y0127231D01*
X0196599Y0127288D01*
X0196577Y0127345D01*
X0196542Y0127402D01*
X0196537Y0127408D01*
X0196525Y0127425D01*
X0196502Y0127453D01*
X0196474Y0127482D01*
X0196440Y0127516D01*
X0196394Y0127550D01*
X0196343Y0127579D01*
X0196280Y0127602D01*
X0196274D01*
X0196246Y0127613D01*
X0196205Y0127619D01*
X0196148Y0127630D01*
X0196069Y0127642D01*
X0195966Y0127647D01*
X0195846Y0127659D01*
D02*
G37*
G36*
X0195954Y0126043D02*
X0194938D01*
Y0124718D01*
X0196028D01*
X0196143Y0124724D01*
X0196194Y0124730D01*
X0196240Y0124735D01*
X0196246D01*
X0196268Y0124741D01*
X0196303Y0124747D01*
X0196343Y0124758D01*
X0196440Y0124793D01*
X0196485Y0124815D01*
X0196531Y0124838D01*
X0196537Y0124844D01*
X0196554Y0124850D01*
X0196571Y0124867D01*
X0196599Y0124895D01*
X0196634Y0124924D01*
X0196662Y0124958D01*
X0196697Y0125004D01*
X0196725Y0125049D01*
X0196731Y0125055D01*
X0196737Y0125072D01*
X0196748Y0125107D01*
X0196765Y0125146D01*
X0196782Y0125192D01*
X0196794Y0125249D01*
X0196799Y0125312D01*
X0196805Y0125381D01*
Y0125392D01*
Y0125415D01*
X0196799Y0125455D01*
X0196794Y0125506D01*
X0196776Y0125563D01*
X0196759Y0125626D01*
X0196731Y0125689D01*
X0196691Y0125752D01*
X0196685Y0125758D01*
X0196668Y0125780D01*
X0196645Y0125803D01*
X0196611Y0125837D01*
X0196565Y0125877D01*
X0196514Y0125912D01*
X0196451Y0125946D01*
X0196382Y0125975D01*
X0196371Y0125980D01*
X0196348Y0125986D01*
X0196303Y0125997D01*
X0196240Y0126009D01*
X0196160Y0126020D01*
X0196063Y0126032D01*
X0195954Y0126043D01*
D02*
G37*
G36*
X0188600Y0127659D02*
X0187504D01*
Y0126283D01*
X0188537D01*
X0188571Y0126288D01*
X0188611D01*
X0188657Y0126294D01*
X0188765Y0126306D01*
X0188880Y0126329D01*
X0188994Y0126363D01*
X0189097Y0126403D01*
X0189148Y0126431D01*
X0189188Y0126465D01*
X0189199Y0126477D01*
X0189222Y0126500D01*
X0189256Y0126540D01*
X0189296Y0126597D01*
X0189331Y0126671D01*
X0189365Y0126762D01*
X0189388Y0126865D01*
X0189399Y0126979D01*
Y0126985D01*
Y0126991D01*
Y0127019D01*
X0189393Y0127065D01*
X0189382Y0127122D01*
X0189371Y0127191D01*
X0189348Y0127259D01*
X0189313Y0127328D01*
X0189274Y0127396D01*
X0189268Y0127402D01*
X0189251Y0127425D01*
X0189228Y0127453D01*
X0189188Y0127488D01*
X0189142Y0127528D01*
X0189091Y0127568D01*
X0189022Y0127596D01*
X0188954Y0127625D01*
X0188948D01*
X0188931Y0127630D01*
X0188897Y0127636D01*
X0188845Y0127642D01*
X0188783Y0127647D01*
X0188703Y0127653D01*
X0188600Y0127659D01*
D02*
G37*
G36*
X0157854Y0127364D02*
X0156946D01*
Y0126199D01*
X0157888D01*
X0157962Y0126205D01*
X0158036Y0126210D01*
X0158116Y0126216D01*
X0158191Y0126227D01*
X0158253Y0126239D01*
X0158265Y0126244D01*
X0158288Y0126250D01*
X0158322Y0126262D01*
X0158362Y0126285D01*
X0158407Y0126307D01*
X0158459Y0126342D01*
X0158505Y0126382D01*
X0158545Y0126427D01*
X0158550Y0126433D01*
X0158562Y0126450D01*
X0158579Y0126484D01*
X0158596Y0126524D01*
X0158613Y0126570D01*
X0158630Y0126627D01*
X0158642Y0126696D01*
X0158647Y0126770D01*
Y0126781D01*
Y0126804D01*
X0158642Y0126838D01*
X0158636Y0126884D01*
X0158624Y0126935D01*
X0158607Y0126992D01*
X0158584Y0127050D01*
X0158550Y0127107D01*
X0158545Y0127112D01*
X0158533Y0127129D01*
X0158510Y0127158D01*
X0158482Y0127187D01*
X0158448Y0127221D01*
X0158402Y0127255D01*
X0158350Y0127284D01*
X0158288Y0127306D01*
X0158282D01*
X0158253Y0127318D01*
X0158213Y0127324D01*
X0158156Y0127335D01*
X0158076Y0127347D01*
X0157974Y0127352D01*
X0157854Y0127364D01*
D02*
G37*
G36*
X0157962Y0125748D02*
X0156946D01*
Y0124423D01*
X0158036D01*
X0158151Y0124429D01*
X0158202Y0124434D01*
X0158248Y0124440D01*
X0158253D01*
X0158276Y0124446D01*
X0158310Y0124451D01*
X0158350Y0124463D01*
X0158448Y0124497D01*
X0158493Y0124520D01*
X0158539Y0124543D01*
X0158545Y0124549D01*
X0158562Y0124554D01*
X0158579Y0124572D01*
X0158607Y0124600D01*
X0158642Y0124629D01*
X0158670Y0124663D01*
X0158704Y0124708D01*
X0158733Y0124754D01*
X0158739Y0124760D01*
X0158744Y0124777D01*
X0158756Y0124811D01*
X0158773Y0124851D01*
X0158790Y0124897D01*
X0158801Y0124954D01*
X0158807Y0125017D01*
X0158813Y0125085D01*
Y0125097D01*
Y0125120D01*
X0158807Y0125160D01*
X0158801Y0125211D01*
X0158784Y0125268D01*
X0158767Y0125331D01*
X0158739Y0125394D01*
X0158699Y0125457D01*
X0158693Y0125462D01*
X0158676Y0125485D01*
X0158653Y0125508D01*
X0158619Y0125542D01*
X0158573Y0125582D01*
X0158522Y0125616D01*
X0158459Y0125651D01*
X0158390Y0125679D01*
X0158379Y0125685D01*
X0158356Y0125691D01*
X0158310Y0125702D01*
X0158248Y0125714D01*
X0158168Y0125725D01*
X0158071Y0125736D01*
X0157962Y0125748D01*
D02*
G37*
G36*
X0150608Y0127364D02*
X0149511D01*
Y0125988D01*
X0150545D01*
X0150579Y0125993D01*
X0150619D01*
X0150665Y0125999D01*
X0150773Y0126010D01*
X0150887Y0126033D01*
X0151002Y0126067D01*
X0151104Y0126107D01*
X0151156Y0126136D01*
X0151196Y0126170D01*
X0151207Y0126182D01*
X0151230Y0126205D01*
X0151264Y0126244D01*
X0151304Y0126302D01*
X0151339Y0126376D01*
X0151373Y0126467D01*
X0151396Y0126570D01*
X0151407Y0126684D01*
Y0126690D01*
Y0126696D01*
Y0126724D01*
X0151401Y0126770D01*
X0151390Y0126827D01*
X0151379Y0126895D01*
X0151356Y0126964D01*
X0151321Y0127032D01*
X0151281Y0127101D01*
X0151276Y0127107D01*
X0151259Y0127129D01*
X0151236Y0127158D01*
X0151196Y0127192D01*
X0151150Y0127232D01*
X0151099Y0127272D01*
X0151030Y0127301D01*
X0150962Y0127329D01*
X0150956D01*
X0150939Y0127335D01*
X0150905Y0127341D01*
X0150853Y0127347D01*
X0150790Y0127352D01*
X0150710Y0127358D01*
X0150608Y0127364D01*
D02*
G37*
%LPD*%
D10*
X0146595Y0107992D02*
G03*
X0146595Y0107992I-0000492J0000000D01*
G01*
D11*
X0136594Y0109862D02*
X0137421D01*
X0149784D02*
X0150610D01*
Y0120846D01*
X0136594D02*
X0137421D01*
X0149784D02*
X0150610D01*
X0136594Y0109862D02*
Y0120846D01*
X0178740Y0116437D02*
X0190827D01*
Y0109350D02*
Y0116437D01*
X0178740Y0109350D02*
X0190827D01*
X0178740D02*
Y0116437D01*
X0151535Y0224016D02*
X0173622D01*
Y0216929D02*
Y0224016D01*
X0151535Y0216929D02*
X0173622D01*
X0151535D02*
Y0224016D01*
M02*
