G04*
G04 #@! TF.GenerationSoftware,Altium Limited,Altium Designer,21.7.2 (23)*
G04*
G04 Layer_Physical_Order=2*
G04 Layer_Color=36540*
%FSAX25Y25*%
%MOIN*%
G70*
G04*
G04 #@! TF.SameCoordinates,43612BD9-7431-4496-A61A-E5E58A6AB67A*
G04*
G04*
G04 #@! TF.FilePolarity,Positive*
G04*
G01*
G75*
%ADD18C,0.05315*%
%ADD19R,0.05315X0.05315*%
%ADD20R,0.03937X0.03937*%
%ADD21C,0.03937*%
G36*
X0187687Y0202540D02*
X0188268Y0201958D01*
X0188583Y0201199D01*
Y0200787D01*
Y0147441D01*
X0188617Y0147095D01*
X0188881Y0146457D01*
X0189370Y0145968D01*
X0190009Y0145703D01*
X0190354Y0145669D01*
X0199387D01*
X0200255Y0145310D01*
X0200920Y0144645D01*
X0201279Y0143777D01*
Y0143307D01*
Y0103248D01*
Y0102974D01*
X0201070Y0102468D01*
X0200682Y0102080D01*
X0200176Y0101870D01*
X0187818D01*
X0186949Y0102230D01*
X0186285Y0102894D01*
X0185925Y0103762D01*
Y0104232D01*
Y0107677D01*
Y0107971D01*
X0186150Y0108513D01*
X0186565Y0108929D01*
X0187108Y0109153D01*
X0190847D01*
X0191154Y0109184D01*
X0191721Y0109419D01*
X0192156Y0109853D01*
X0192391Y0110421D01*
X0192421Y0110728D01*
Y0123909D01*
X0192373Y0124889D01*
X0191991Y0126812D01*
X0191241Y0128623D01*
X0190151Y0130253D01*
X0189492Y0130980D01*
X0174681Y0145791D01*
X0173985Y0146488D01*
X0172890Y0148126D01*
X0172136Y0149946D01*
X0171984Y0150710D01*
Y0187500D01*
X0171906Y0187890D01*
X0171686Y0188221D01*
X0171355Y0188442D01*
X0170965Y0188520D01*
X0154232D01*
X0153842Y0188442D01*
X0153511Y0188221D01*
X0153290Y0187890D01*
X0153213Y0187500D01*
Y0146850D01*
X0153290Y0146460D01*
X0153511Y0146129D01*
X0153842Y0145908D01*
X0154232Y0145831D01*
X0170965D01*
X0171355Y0145908D01*
X0171439Y0145965D01*
X0172266D01*
X0172915Y0145835D01*
X0173527Y0145582D01*
X0174077Y0145214D01*
X0174311Y0144980D01*
X0188508Y0130783D01*
X0188508Y0130783D01*
X0189205Y0130087D01*
X0190299Y0128449D01*
X0191053Y0126629D01*
X0191437Y0124697D01*
Y0123712D01*
Y0111516D01*
Y0111300D01*
X0191272Y0110903D01*
X0190968Y0110598D01*
X0190570Y0110433D01*
X0179569D01*
X0178918Y0110703D01*
X0178419Y0111201D01*
X0178150Y0111852D01*
Y0112205D01*
Y0128248D01*
X0178136Y0128528D01*
X0178027Y0129077D01*
X0177813Y0129594D01*
X0177502Y0130059D01*
X0177106Y0130454D01*
X0176641Y0130765D01*
X0176124Y0130979D01*
X0175575Y0131089D01*
X0175295Y0131102D01*
X0137738D01*
X0137267Y0131297D01*
X0136907Y0131657D01*
X0136713Y0132127D01*
Y0132382D01*
Y0199902D01*
Y0200192D01*
X0136826Y0200763D01*
X0137049Y0201300D01*
X0137372Y0201784D01*
X0137783Y0202195D01*
X0138267Y0202518D01*
X0138804Y0202741D01*
X0139374Y0202854D01*
X0186927D01*
X0187687Y0202540D01*
D02*
G37*
D18*
X0188583Y0105413D02*
D03*
D19*
X0196457D02*
D03*
D20*
X0187284Y0112894D02*
D03*
D21*
X0182283D02*
D03*
M02*
