G04*
G04 #@! TF.GenerationSoftware,Altium Limited,Altium Designer,21.7.2 (23)*
G04*
G04 Layer_Color=65535*
%FSAX25Y25*%
%MOIN*%
G70*
G04*
G04 #@! TF.SameCoordinates,25756C21-EA0E-48A6-96D4-99705350E32D*
G04*
G04*
G04 #@! TF.FilePolarity,Positive*
G04*
G01*
G75*
%ADD10C,0.01000*%
%ADD11C,0.00500*%
%ADD12C,0.00984*%
%ADD13C,0.00787*%
%ADD14C,0.00394*%
%ADD15C,0.01968*%
%ADD16C,0.01181*%
%ADD17C,0.01575*%
%ADD18C,0.00039*%
G36*
X0177591Y0324323D02*
X0175440Y0322173D01*
X0177704D01*
X0177591Y0324323D01*
D02*
G37*
G36*
X0373319Y0325682D02*
X0371169Y0323531D01*
X0373433D01*
X0373319Y0325682D01*
D02*
G37*
G36*
X0417587Y0400012D02*
X0419795Y0400012D01*
X0417587Y0397803D01*
Y0400012D01*
D02*
G37*
G36*
X0550539Y0512469D02*
X0557539Y0519469D01*
X0550539D01*
X0550039Y0519969D01*
X0550539Y0512469D01*
D02*
G37*
G36*
X0711863Y0065571D02*
X0710840D01*
X0706861Y0071506D01*
Y0065571D01*
X0705905D01*
Y0073135D01*
X0706917D01*
X0710907Y0067189D01*
Y0073135D01*
X0711863D01*
Y0065571D01*
D02*
G37*
G36*
X0675387Y0072739D02*
X0670913D01*
Y0070424D01*
X0675106D01*
Y0069536D01*
X0670913D01*
Y0066951D01*
X0675567D01*
Y0066063D01*
X0669913D01*
Y0073628D01*
X0675387D01*
Y0072739D01*
D02*
G37*
G36*
X0666125Y0073616D02*
X0666305Y0073605D01*
X0666496Y0073594D01*
X0666687Y0073571D01*
X0666845Y0073549D01*
X0666867D01*
X0666934Y0073526D01*
X0667047Y0073504D01*
X0667170Y0073470D01*
X0667317Y0073425D01*
X0667474Y0073369D01*
X0667631Y0073290D01*
X0667777Y0073200D01*
X0667800Y0073189D01*
X0667845Y0073155D01*
X0667912Y0073099D01*
X0668002Y0073009D01*
X0668092Y0072908D01*
X0668193Y0072785D01*
X0668294Y0072638D01*
X0668384Y0072470D01*
X0668396Y0072447D01*
X0668418Y0072391D01*
X0668463Y0072290D01*
X0668508Y0072166D01*
X0668542Y0072009D01*
X0668587Y0071840D01*
X0668609Y0071638D01*
X0668620Y0071436D01*
Y0071425D01*
Y0071391D01*
Y0071346D01*
X0668609Y0071278D01*
X0668598Y0071188D01*
X0668587Y0071099D01*
X0668564Y0070986D01*
X0668542Y0070874D01*
X0668474Y0070615D01*
X0668362Y0070345D01*
X0668294Y0070199D01*
X0668205Y0070064D01*
X0668115Y0069929D01*
X0668002Y0069806D01*
X0667991Y0069795D01*
X0667969Y0069772D01*
X0667935Y0069750D01*
X0667879Y0069705D01*
X0667811Y0069649D01*
X0667721Y0069592D01*
X0667620Y0069536D01*
X0667496Y0069480D01*
X0667350Y0069412D01*
X0667193Y0069356D01*
X0667013Y0069300D01*
X0666811Y0069244D01*
X0666586Y0069199D01*
X0666339Y0069177D01*
X0666080Y0069154D01*
X0665788Y0069143D01*
X0663855D01*
Y0066063D01*
X0662854D01*
Y0073628D01*
X0665957D01*
X0666125Y0073616D01*
D02*
G37*
G36*
X0767810Y0288878D02*
X0762891D01*
X0762900Y0288869D01*
X0762938Y0288831D01*
X0762985Y0288766D01*
X0763060Y0288681D01*
X0763135Y0288578D01*
X0763228Y0288447D01*
X0763322Y0288297D01*
X0763425Y0288138D01*
Y0288128D01*
X0763435Y0288119D01*
X0763472Y0288063D01*
X0763519Y0287979D01*
X0763575Y0287866D01*
X0763641Y0287744D01*
X0763697Y0287613D01*
X0763763Y0287473D01*
X0763819Y0287332D01*
X0763069D01*
Y0287341D01*
X0763060Y0287360D01*
X0763041Y0287398D01*
X0763013Y0287444D01*
X0762985Y0287501D01*
X0762947Y0287566D01*
X0762863Y0287716D01*
X0762760Y0287894D01*
X0762638Y0288082D01*
X0762498Y0288269D01*
X0762338Y0288456D01*
X0762329Y0288466D01*
X0762320Y0288475D01*
X0762263Y0288541D01*
X0762179Y0288625D01*
X0762067Y0288728D01*
X0761935Y0288841D01*
X0761795Y0288953D01*
X0761645Y0289066D01*
X0761486Y0289150D01*
Y0289656D01*
X0767810D01*
Y0288878D01*
D02*
G37*
G36*
Y0281738D02*
X0767801D01*
X0767764D01*
X0767707D01*
X0767642Y0281748D01*
X0767557Y0281757D01*
X0767473Y0281766D01*
X0767370Y0281794D01*
X0767276Y0281822D01*
X0767267D01*
X0767257Y0281832D01*
X0767201Y0281851D01*
X0767117Y0281888D01*
X0767014Y0281944D01*
X0766883Y0282019D01*
X0766742Y0282103D01*
X0766592Y0282207D01*
X0766442Y0282328D01*
X0766433D01*
X0766424Y0282347D01*
X0766367Y0282394D01*
X0766283Y0282478D01*
X0766171Y0282591D01*
X0766030Y0282731D01*
X0765861Y0282909D01*
X0765683Y0283116D01*
X0765487Y0283350D01*
X0765477Y0283359D01*
X0765449Y0283397D01*
X0765402Y0283443D01*
X0765346Y0283518D01*
X0765280Y0283603D01*
X0765196Y0283697D01*
X0764999Y0283903D01*
X0764793Y0284137D01*
X0764568Y0284362D01*
X0764456Y0284474D01*
X0764353Y0284568D01*
X0764250Y0284662D01*
X0764156Y0284736D01*
X0764147D01*
X0764137Y0284755D01*
X0764109Y0284774D01*
X0764072Y0284793D01*
X0763978Y0284849D01*
X0763856Y0284924D01*
X0763706Y0284990D01*
X0763547Y0285046D01*
X0763388Y0285083D01*
X0763219Y0285102D01*
X0763210D01*
X0763200D01*
X0763144Y0285093D01*
X0763060Y0285083D01*
X0762947Y0285065D01*
X0762825Y0285018D01*
X0762694Y0284961D01*
X0762563Y0284877D01*
X0762441Y0284765D01*
X0762432Y0284746D01*
X0762395Y0284708D01*
X0762338Y0284633D01*
X0762282Y0284540D01*
X0762226Y0284409D01*
X0762170Y0284268D01*
X0762132Y0284099D01*
X0762123Y0283912D01*
Y0283856D01*
X0762132Y0283818D01*
X0762142Y0283715D01*
X0762170Y0283593D01*
X0762207Y0283443D01*
X0762273Y0283294D01*
X0762357Y0283144D01*
X0762469Y0283012D01*
X0762488Y0283003D01*
X0762535Y0282966D01*
X0762610Y0282909D01*
X0762713Y0282853D01*
X0762844Y0282788D01*
X0763003Y0282741D01*
X0763191Y0282703D01*
X0763397Y0282684D01*
X0763313Y0281888D01*
X0763303D01*
X0763275D01*
X0763228Y0281897D01*
X0763163Y0281907D01*
X0763088Y0281926D01*
X0763003Y0281944D01*
X0762807Y0281991D01*
X0762591Y0282066D01*
X0762366Y0282178D01*
X0762254Y0282244D01*
X0762151Y0282319D01*
X0762048Y0282403D01*
X0761954Y0282497D01*
X0761945Y0282506D01*
X0761935Y0282525D01*
X0761907Y0282553D01*
X0761879Y0282591D01*
X0761842Y0282647D01*
X0761804Y0282713D01*
X0761767Y0282788D01*
X0761720Y0282881D01*
X0761673Y0282975D01*
X0761635Y0283078D01*
X0761598Y0283200D01*
X0761560Y0283331D01*
X0761532Y0283462D01*
X0761504Y0283612D01*
X0761495Y0283762D01*
X0761486Y0283931D01*
Y0284015D01*
X0761495Y0284081D01*
X0761504Y0284156D01*
X0761514Y0284249D01*
X0761523Y0284343D01*
X0761551Y0284455D01*
X0761607Y0284680D01*
X0761701Y0284924D01*
X0761757Y0285036D01*
X0761823Y0285149D01*
X0761898Y0285261D01*
X0761992Y0285364D01*
X0762001Y0285374D01*
X0762010Y0285383D01*
X0762038Y0285411D01*
X0762085Y0285449D01*
X0762132Y0285486D01*
X0762188Y0285533D01*
X0762263Y0285580D01*
X0762338Y0285636D01*
X0762516Y0285730D01*
X0762732Y0285814D01*
X0762844Y0285852D01*
X0762975Y0285880D01*
X0763097Y0285889D01*
X0763238Y0285898D01*
X0763257D01*
X0763303D01*
X0763378Y0285889D01*
X0763472Y0285880D01*
X0763594Y0285861D01*
X0763716Y0285833D01*
X0763847Y0285795D01*
X0763987Y0285739D01*
X0764006Y0285730D01*
X0764053Y0285711D01*
X0764118Y0285673D01*
X0764212Y0285617D01*
X0764334Y0285542D01*
X0764465Y0285458D01*
X0764606Y0285346D01*
X0764756Y0285224D01*
X0764774Y0285205D01*
X0764831Y0285158D01*
X0764868Y0285121D01*
X0764924Y0285065D01*
X0764981Y0285008D01*
X0765046Y0284943D01*
X0765121Y0284868D01*
X0765205Y0284774D01*
X0765290Y0284680D01*
X0765393Y0284568D01*
X0765496Y0284455D01*
X0765608Y0284324D01*
X0765730Y0284184D01*
X0765861Y0284034D01*
X0765871Y0284024D01*
X0765890Y0284006D01*
X0765918Y0283968D01*
X0765955Y0283921D01*
X0766058Y0283809D01*
X0766180Y0283659D01*
X0766311Y0283509D01*
X0766442Y0283368D01*
X0766564Y0283237D01*
X0766611Y0283190D01*
X0766658Y0283144D01*
X0766667Y0283134D01*
X0766695Y0283116D01*
X0766733Y0283078D01*
X0766789Y0283031D01*
X0766845Y0282975D01*
X0766920Y0282919D01*
X0767070Y0282816D01*
Y0285908D01*
X0767810D01*
Y0281738D01*
D02*
G37*
G36*
X0764990Y0281045D02*
X0765093D01*
X0765215Y0281035D01*
X0765346Y0281026D01*
X0765627Y0280998D01*
X0765927Y0280951D01*
X0766227Y0280895D01*
X0766367Y0280857D01*
X0766499Y0280820D01*
X0766508D01*
X0766527Y0280810D01*
X0766564Y0280792D01*
X0766611Y0280782D01*
X0766667Y0280754D01*
X0766733Y0280726D01*
X0766883Y0280651D01*
X0767051Y0280557D01*
X0767229Y0280436D01*
X0767398Y0280295D01*
X0767548Y0280136D01*
Y0280127D01*
X0767567Y0280117D01*
X0767585Y0280089D01*
X0767604Y0280051D01*
X0767660Y0279958D01*
X0767726Y0279827D01*
X0767801Y0279658D01*
X0767857Y0279461D01*
X0767895Y0279246D01*
X0767913Y0278993D01*
Y0278908D01*
X0767904Y0278843D01*
X0767895Y0278768D01*
X0767876Y0278674D01*
X0767857Y0278580D01*
X0767829Y0278477D01*
X0767801Y0278365D01*
X0767754Y0278243D01*
X0767707Y0278121D01*
X0767642Y0278009D01*
X0767567Y0277887D01*
X0767482Y0277775D01*
X0767379Y0277662D01*
X0767267Y0277559D01*
X0767257Y0277550D01*
X0767229Y0277531D01*
X0767182Y0277503D01*
X0767117Y0277465D01*
X0767033Y0277419D01*
X0766920Y0277362D01*
X0766798Y0277306D01*
X0766648Y0277250D01*
X0766480Y0277194D01*
X0766292Y0277137D01*
X0766086Y0277081D01*
X0765852Y0277034D01*
X0765599Y0276997D01*
X0765327Y0276969D01*
X0765027Y0276950D01*
X0764709Y0276941D01*
X0764700D01*
X0764662D01*
X0764606D01*
X0764522D01*
X0764428Y0276950D01*
X0764315D01*
X0764193Y0276959D01*
X0764062Y0276969D01*
X0763781Y0276997D01*
X0763481Y0277034D01*
X0763181Y0277091D01*
X0763041Y0277128D01*
X0762910Y0277166D01*
X0762900D01*
X0762882Y0277175D01*
X0762844Y0277194D01*
X0762797Y0277212D01*
X0762741Y0277231D01*
X0762676Y0277259D01*
X0762526Y0277344D01*
X0762357Y0277437D01*
X0762179Y0277550D01*
X0762010Y0277690D01*
X0761860Y0277850D01*
Y0277859D01*
X0761842Y0277868D01*
X0761823Y0277896D01*
X0761804Y0277934D01*
X0761776Y0277981D01*
X0761739Y0278028D01*
X0761673Y0278168D01*
X0761607Y0278327D01*
X0761542Y0278524D01*
X0761504Y0278749D01*
X0761486Y0278993D01*
Y0279077D01*
X0761495Y0279171D01*
X0761514Y0279292D01*
X0761532Y0279433D01*
X0761570Y0279583D01*
X0761626Y0279733D01*
X0761692Y0279883D01*
X0761701Y0279902D01*
X0761729Y0279948D01*
X0761776Y0280014D01*
X0761842Y0280108D01*
X0761926Y0280201D01*
X0762029Y0280314D01*
X0762142Y0280417D01*
X0762282Y0280511D01*
X0762301Y0280520D01*
X0762348Y0280548D01*
X0762432Y0280595D01*
X0762544Y0280651D01*
X0762676Y0280717D01*
X0762835Y0280782D01*
X0763022Y0280848D01*
X0763219Y0280904D01*
X0763228D01*
X0763247Y0280914D01*
X0763275Y0280923D01*
X0763322Y0280932D01*
X0763378Y0280942D01*
X0763444Y0280951D01*
X0763519Y0280970D01*
X0763613Y0280979D01*
X0763716Y0280998D01*
X0763828Y0281007D01*
X0763950Y0281017D01*
X0764081Y0281035D01*
X0764222Y0281045D01*
X0764371D01*
X0764540Y0281054D01*
X0764709D01*
X0764718D01*
X0764756D01*
X0764812D01*
X0764896D01*
X0764990Y0281045D01*
D02*
G37*
G36*
X0767810Y0271937D02*
X0767801D01*
X0767764D01*
X0767707D01*
X0767642Y0271947D01*
X0767557Y0271956D01*
X0767473Y0271965D01*
X0767370Y0271993D01*
X0767276Y0272021D01*
X0767267D01*
X0767257Y0272031D01*
X0767201Y0272049D01*
X0767117Y0272087D01*
X0767014Y0272143D01*
X0766883Y0272218D01*
X0766742Y0272303D01*
X0766592Y0272406D01*
X0766442Y0272527D01*
X0766433D01*
X0766424Y0272546D01*
X0766367Y0272593D01*
X0766283Y0272677D01*
X0766171Y0272790D01*
X0766030Y0272930D01*
X0765861Y0273108D01*
X0765683Y0273314D01*
X0765487Y0273549D01*
X0765477Y0273558D01*
X0765449Y0273596D01*
X0765402Y0273642D01*
X0765346Y0273717D01*
X0765280Y0273802D01*
X0765196Y0273895D01*
X0764999Y0274102D01*
X0764793Y0274336D01*
X0764568Y0274561D01*
X0764456Y0274673D01*
X0764353Y0274767D01*
X0764250Y0274861D01*
X0764156Y0274936D01*
X0764147D01*
X0764137Y0274954D01*
X0764109Y0274973D01*
X0764072Y0274992D01*
X0763978Y0275048D01*
X0763856Y0275123D01*
X0763706Y0275188D01*
X0763547Y0275245D01*
X0763388Y0275282D01*
X0763219Y0275301D01*
X0763210D01*
X0763200D01*
X0763144Y0275292D01*
X0763060Y0275282D01*
X0762947Y0275264D01*
X0762825Y0275217D01*
X0762694Y0275160D01*
X0762563Y0275076D01*
X0762441Y0274964D01*
X0762432Y0274945D01*
X0762395Y0274907D01*
X0762338Y0274832D01*
X0762282Y0274739D01*
X0762226Y0274607D01*
X0762170Y0274467D01*
X0762132Y0274298D01*
X0762123Y0274111D01*
Y0274055D01*
X0762132Y0274017D01*
X0762142Y0273914D01*
X0762170Y0273792D01*
X0762207Y0273642D01*
X0762273Y0273493D01*
X0762357Y0273343D01*
X0762469Y0273211D01*
X0762488Y0273202D01*
X0762535Y0273165D01*
X0762610Y0273108D01*
X0762713Y0273052D01*
X0762844Y0272987D01*
X0763003Y0272940D01*
X0763191Y0272902D01*
X0763397Y0272884D01*
X0763313Y0272087D01*
X0763303D01*
X0763275D01*
X0763228Y0272096D01*
X0763163Y0272106D01*
X0763088Y0272125D01*
X0763003Y0272143D01*
X0762807Y0272190D01*
X0762591Y0272265D01*
X0762366Y0272377D01*
X0762254Y0272443D01*
X0762151Y0272518D01*
X0762048Y0272602D01*
X0761954Y0272696D01*
X0761945Y0272705D01*
X0761935Y0272724D01*
X0761907Y0272752D01*
X0761879Y0272790D01*
X0761842Y0272846D01*
X0761804Y0272912D01*
X0761767Y0272987D01*
X0761720Y0273080D01*
X0761673Y0273174D01*
X0761635Y0273277D01*
X0761598Y0273399D01*
X0761560Y0273530D01*
X0761532Y0273661D01*
X0761504Y0273811D01*
X0761495Y0273961D01*
X0761486Y0274130D01*
Y0274214D01*
X0761495Y0274280D01*
X0761504Y0274355D01*
X0761514Y0274448D01*
X0761523Y0274542D01*
X0761551Y0274654D01*
X0761607Y0274879D01*
X0761701Y0275123D01*
X0761757Y0275235D01*
X0761823Y0275348D01*
X0761898Y0275460D01*
X0761992Y0275563D01*
X0762001Y0275573D01*
X0762010Y0275582D01*
X0762038Y0275610D01*
X0762085Y0275648D01*
X0762132Y0275685D01*
X0762188Y0275732D01*
X0762263Y0275779D01*
X0762338Y0275835D01*
X0762516Y0275929D01*
X0762732Y0276013D01*
X0762844Y0276050D01*
X0762975Y0276079D01*
X0763097Y0276088D01*
X0763238Y0276097D01*
X0763257D01*
X0763303D01*
X0763378Y0276088D01*
X0763472Y0276079D01*
X0763594Y0276060D01*
X0763716Y0276032D01*
X0763847Y0275994D01*
X0763987Y0275938D01*
X0764006Y0275929D01*
X0764053Y0275910D01*
X0764118Y0275872D01*
X0764212Y0275816D01*
X0764334Y0275741D01*
X0764465Y0275657D01*
X0764606Y0275545D01*
X0764756Y0275423D01*
X0764774Y0275404D01*
X0764831Y0275357D01*
X0764868Y0275320D01*
X0764924Y0275264D01*
X0764981Y0275207D01*
X0765046Y0275142D01*
X0765121Y0275067D01*
X0765205Y0274973D01*
X0765290Y0274879D01*
X0765393Y0274767D01*
X0765496Y0274654D01*
X0765608Y0274523D01*
X0765730Y0274383D01*
X0765861Y0274233D01*
X0765871Y0274223D01*
X0765890Y0274205D01*
X0765918Y0274167D01*
X0765955Y0274120D01*
X0766058Y0274008D01*
X0766180Y0273858D01*
X0766311Y0273708D01*
X0766442Y0273568D01*
X0766564Y0273436D01*
X0766611Y0273389D01*
X0766658Y0273343D01*
X0766667Y0273333D01*
X0766695Y0273314D01*
X0766733Y0273277D01*
X0766789Y0273230D01*
X0766845Y0273174D01*
X0766920Y0273118D01*
X0767070Y0273015D01*
Y0276107D01*
X0767810D01*
Y0271937D01*
D02*
G37*
G36*
Y0270026D02*
X0766929D01*
Y0270906D01*
X0767810D01*
Y0270026D01*
D02*
G37*
G36*
X0762245Y0265406D02*
X0764203D01*
Y0268367D01*
X0764943D01*
Y0265406D01*
X0767810D01*
Y0264572D01*
X0761504D01*
Y0268826D01*
X0762245D01*
Y0265406D01*
D02*
G37*
G36*
X0767810Y0262202D02*
X0766929D01*
Y0263083D01*
X0767810D01*
Y0262202D01*
D02*
G37*
G36*
Y0259944D02*
X0762535D01*
X0767810Y0258098D01*
Y0257348D01*
X0762441Y0255530D01*
X0767810D01*
Y0254724D01*
X0761504D01*
Y0255980D01*
X0765974Y0257470D01*
X0765983D01*
X0766002Y0257479D01*
X0766030Y0257489D01*
X0766077Y0257507D01*
X0766189Y0257545D01*
X0766321Y0257582D01*
X0766470Y0257639D01*
X0766630Y0257685D01*
X0766780Y0257732D01*
X0766911Y0257770D01*
X0766892Y0257779D01*
X0766845Y0257788D01*
X0766770Y0257817D01*
X0766658Y0257854D01*
X0766508Y0257901D01*
X0766339Y0257957D01*
X0766133Y0258032D01*
X0765899Y0258107D01*
X0761504Y0259625D01*
Y0260749D01*
X0767810D01*
Y0259944D01*
D02*
G37*
G36*
X0763612Y0201554D02*
X0763715D01*
X0763837Y0201545D01*
X0763968Y0201536D01*
X0764249Y0201507D01*
X0764549Y0201461D01*
X0764849Y0201404D01*
X0764989Y0201367D01*
X0765121Y0201329D01*
X0765130D01*
X0765149Y0201320D01*
X0765186Y0201301D01*
X0765233Y0201292D01*
X0765289Y0201264D01*
X0765355Y0201236D01*
X0765505Y0201161D01*
X0765673Y0201067D01*
X0765851Y0200945D01*
X0766020Y0200805D01*
X0766170Y0200645D01*
Y0200636D01*
X0766189Y0200627D01*
X0766208Y0200599D01*
X0766226Y0200561D01*
X0766282Y0200467D01*
X0766348Y0200336D01*
X0766423Y0200168D01*
X0766479Y0199971D01*
X0766517Y0199755D01*
X0766535Y0199502D01*
Y0199418D01*
X0766526Y0199352D01*
X0766517Y0199277D01*
X0766498Y0199184D01*
X0766479Y0199090D01*
X0766451Y0198987D01*
X0766423Y0198874D01*
X0766376Y0198753D01*
X0766329Y0198631D01*
X0766264Y0198519D01*
X0766189Y0198397D01*
X0766104Y0198284D01*
X0766001Y0198172D01*
X0765889Y0198069D01*
X0765879Y0198059D01*
X0765851Y0198041D01*
X0765805Y0198012D01*
X0765739Y0197975D01*
X0765655Y0197928D01*
X0765542Y0197872D01*
X0765420Y0197816D01*
X0765271Y0197759D01*
X0765102Y0197703D01*
X0764914Y0197647D01*
X0764708Y0197591D01*
X0764474Y0197544D01*
X0764221Y0197506D01*
X0763949Y0197478D01*
X0763650Y0197460D01*
X0763331Y0197450D01*
X0763321D01*
X0763284D01*
X0763228D01*
X0763143D01*
X0763050Y0197460D01*
X0762937D01*
X0762816Y0197469D01*
X0762684Y0197478D01*
X0762403Y0197506D01*
X0762103Y0197544D01*
X0761804Y0197600D01*
X0761663Y0197638D01*
X0761532Y0197675D01*
X0761522D01*
X0761504Y0197685D01*
X0761466Y0197703D01*
X0761419Y0197722D01*
X0761363Y0197741D01*
X0761298Y0197769D01*
X0761148Y0197853D01*
X0760979Y0197947D01*
X0760801Y0198059D01*
X0760632Y0198200D01*
X0760482Y0198359D01*
Y0198369D01*
X0760464Y0198378D01*
X0760445Y0198406D01*
X0760426Y0198443D01*
X0760398Y0198490D01*
X0760361Y0198537D01*
X0760295Y0198678D01*
X0760229Y0198837D01*
X0760164Y0199034D01*
X0760126Y0199259D01*
X0760108Y0199502D01*
Y0199587D01*
X0760117Y0199680D01*
X0760136Y0199802D01*
X0760154Y0199943D01*
X0760192Y0200093D01*
X0760248Y0200243D01*
X0760314Y0200393D01*
X0760323Y0200411D01*
X0760351Y0200458D01*
X0760398Y0200524D01*
X0760464Y0200617D01*
X0760548Y0200711D01*
X0760651Y0200823D01*
X0760764Y0200927D01*
X0760904Y0201020D01*
X0760923Y0201030D01*
X0760970Y0201058D01*
X0761054Y0201105D01*
X0761166Y0201161D01*
X0761298Y0201226D01*
X0761457Y0201292D01*
X0761644Y0201358D01*
X0761841Y0201414D01*
X0761850D01*
X0761869Y0201423D01*
X0761897Y0201432D01*
X0761944Y0201442D01*
X0762000Y0201451D01*
X0762066Y0201461D01*
X0762141Y0201479D01*
X0762235Y0201489D01*
X0762338Y0201507D01*
X0762450Y0201517D01*
X0762572Y0201526D01*
X0762703Y0201545D01*
X0762844Y0201554D01*
X0762994D01*
X0763162Y0201564D01*
X0763331D01*
X0763340D01*
X0763378D01*
X0763434D01*
X0763518D01*
X0763612Y0201554D01*
D02*
G37*
G36*
X0766432Y0195436D02*
X0765552D01*
Y0196317D01*
X0766432D01*
Y0195436D01*
D02*
G37*
G36*
Y0190001D02*
X0766423D01*
X0766386D01*
X0766329D01*
X0766264Y0190010D01*
X0766179Y0190020D01*
X0766095Y0190029D01*
X0765992Y0190057D01*
X0765898Y0190085D01*
X0765889D01*
X0765879Y0190095D01*
X0765823Y0190114D01*
X0765739Y0190151D01*
X0765636Y0190207D01*
X0765505Y0190282D01*
X0765364Y0190367D01*
X0765214Y0190470D01*
X0765064Y0190592D01*
X0765055D01*
X0765046Y0190610D01*
X0764989Y0190657D01*
X0764905Y0190741D01*
X0764793Y0190854D01*
X0764652Y0190994D01*
X0764483Y0191172D01*
X0764305Y0191378D01*
X0764109Y0191613D01*
X0764099Y0191622D01*
X0764071Y0191660D01*
X0764024Y0191707D01*
X0763968Y0191781D01*
X0763903Y0191866D01*
X0763818Y0191960D01*
X0763621Y0192166D01*
X0763415Y0192400D01*
X0763190Y0192625D01*
X0763078Y0192737D01*
X0762975Y0192831D01*
X0762872Y0192925D01*
X0762778Y0192999D01*
X0762769D01*
X0762759Y0193018D01*
X0762731Y0193037D01*
X0762694Y0193056D01*
X0762600Y0193112D01*
X0762478Y0193187D01*
X0762328Y0193253D01*
X0762169Y0193309D01*
X0762010Y0193346D01*
X0761841Y0193365D01*
X0761832D01*
X0761822D01*
X0761766Y0193356D01*
X0761682Y0193346D01*
X0761569Y0193327D01*
X0761447Y0193281D01*
X0761316Y0193224D01*
X0761185Y0193140D01*
X0761063Y0193028D01*
X0761054Y0193009D01*
X0761017Y0192971D01*
X0760960Y0192896D01*
X0760904Y0192803D01*
X0760848Y0192672D01*
X0760792Y0192531D01*
X0760754Y0192362D01*
X0760745Y0192175D01*
Y0192119D01*
X0760754Y0192081D01*
X0760764Y0191978D01*
X0760792Y0191856D01*
X0760829Y0191707D01*
X0760895Y0191557D01*
X0760979Y0191407D01*
X0761091Y0191276D01*
X0761110Y0191266D01*
X0761157Y0191229D01*
X0761232Y0191172D01*
X0761335Y0191116D01*
X0761466Y0191051D01*
X0761625Y0191004D01*
X0761813Y0190966D01*
X0762019Y0190947D01*
X0761935Y0190151D01*
X0761925D01*
X0761897D01*
X0761850Y0190160D01*
X0761785Y0190170D01*
X0761710Y0190189D01*
X0761625Y0190207D01*
X0761429Y0190254D01*
X0761213Y0190329D01*
X0760988Y0190442D01*
X0760876Y0190507D01*
X0760773Y0190582D01*
X0760670Y0190666D01*
X0760576Y0190760D01*
X0760567Y0190770D01*
X0760557Y0190788D01*
X0760529Y0190816D01*
X0760501Y0190854D01*
X0760464Y0190910D01*
X0760426Y0190976D01*
X0760389Y0191051D01*
X0760342Y0191144D01*
X0760295Y0191238D01*
X0760257Y0191341D01*
X0760220Y0191463D01*
X0760183Y0191594D01*
X0760154Y0191725D01*
X0760126Y0191875D01*
X0760117Y0192025D01*
X0760108Y0192194D01*
Y0192278D01*
X0760117Y0192344D01*
X0760126Y0192419D01*
X0760136Y0192512D01*
X0760145Y0192606D01*
X0760173Y0192719D01*
X0760229Y0192943D01*
X0760323Y0193187D01*
X0760379Y0193299D01*
X0760445Y0193412D01*
X0760520Y0193524D01*
X0760614Y0193627D01*
X0760623Y0193637D01*
X0760632Y0193646D01*
X0760660Y0193674D01*
X0760707Y0193712D01*
X0760754Y0193749D01*
X0760810Y0193796D01*
X0760885Y0193843D01*
X0760960Y0193899D01*
X0761138Y0193993D01*
X0761354Y0194077D01*
X0761466Y0194115D01*
X0761597Y0194143D01*
X0761719Y0194152D01*
X0761860Y0194161D01*
X0761878D01*
X0761925D01*
X0762000Y0194152D01*
X0762094Y0194143D01*
X0762216Y0194124D01*
X0762338Y0194096D01*
X0762469Y0194058D01*
X0762609Y0194002D01*
X0762628Y0193993D01*
X0762675Y0193974D01*
X0762741Y0193937D01*
X0762834Y0193880D01*
X0762956Y0193805D01*
X0763087Y0193721D01*
X0763228Y0193609D01*
X0763378Y0193487D01*
X0763397Y0193468D01*
X0763453Y0193421D01*
X0763490Y0193384D01*
X0763546Y0193327D01*
X0763603Y0193271D01*
X0763668Y0193206D01*
X0763743Y0193131D01*
X0763828Y0193037D01*
X0763912Y0192943D01*
X0764015Y0192831D01*
X0764118Y0192719D01*
X0764230Y0192587D01*
X0764352Y0192447D01*
X0764483Y0192297D01*
X0764493Y0192287D01*
X0764511Y0192269D01*
X0764540Y0192231D01*
X0764577Y0192184D01*
X0764680Y0192072D01*
X0764802Y0191922D01*
X0764933Y0191772D01*
X0765064Y0191631D01*
X0765186Y0191500D01*
X0765233Y0191454D01*
X0765280Y0191407D01*
X0765289Y0191397D01*
X0765317Y0191378D01*
X0765355Y0191341D01*
X0765411Y0191294D01*
X0765467Y0191238D01*
X0765542Y0191182D01*
X0765692Y0191079D01*
Y0194171D01*
X0766432D01*
Y0190001D01*
D02*
G37*
G36*
Y0187199D02*
Y0186328D01*
X0760126Y0183892D01*
Y0184801D01*
X0764718Y0186441D01*
X0764727D01*
X0764746Y0186450D01*
X0764774Y0186459D01*
X0764811Y0186478D01*
X0764914Y0186506D01*
X0765055Y0186553D01*
X0765214Y0186609D01*
X0765383Y0186665D01*
X0765748Y0186768D01*
X0765739D01*
X0765720Y0186778D01*
X0765701Y0186787D01*
X0765664Y0186797D01*
X0765561Y0186825D01*
X0765430Y0186872D01*
X0765271Y0186918D01*
X0765092Y0186975D01*
X0764905Y0187040D01*
X0764718Y0187106D01*
X0760126Y0188821D01*
Y0189664D01*
X0766432Y0187199D01*
D02*
G37*
G36*
X0764483Y0181062D02*
X0764530Y0181043D01*
X0764605Y0181025D01*
X0764689Y0180987D01*
X0764793Y0180950D01*
X0764896Y0180912D01*
X0765018Y0180856D01*
X0765271Y0180725D01*
X0765523Y0180566D01*
X0765655Y0180463D01*
X0765776Y0180359D01*
X0765898Y0180247D01*
X0766001Y0180125D01*
X0766011Y0180116D01*
X0766020Y0180097D01*
X0766048Y0180060D01*
X0766086Y0180003D01*
X0766123Y0179938D01*
X0766170Y0179853D01*
X0766217Y0179769D01*
X0766264Y0179657D01*
X0766320Y0179544D01*
X0766367Y0179413D01*
X0766414Y0179282D01*
X0766451Y0179132D01*
X0766489Y0178973D01*
X0766517Y0178813D01*
X0766526Y0178635D01*
X0766535Y0178457D01*
Y0178364D01*
X0766526Y0178289D01*
Y0178204D01*
X0766517Y0178101D01*
X0766498Y0177989D01*
X0766479Y0177867D01*
X0766432Y0177605D01*
X0766357Y0177323D01*
X0766254Y0177052D01*
X0766198Y0176921D01*
X0766123Y0176799D01*
X0766114Y0176789D01*
X0766104Y0176771D01*
X0766076Y0176743D01*
X0766048Y0176696D01*
X0766001Y0176639D01*
X0765954Y0176583D01*
X0765814Y0176443D01*
X0765645Y0176284D01*
X0765439Y0176115D01*
X0765205Y0175965D01*
X0764924Y0175824D01*
X0764914D01*
X0764886Y0175815D01*
X0764849Y0175796D01*
X0764783Y0175777D01*
X0764718Y0175749D01*
X0764624Y0175721D01*
X0764530Y0175693D01*
X0764418Y0175665D01*
X0764296Y0175628D01*
X0764165Y0175600D01*
X0763874Y0175553D01*
X0763565Y0175515D01*
X0763228Y0175496D01*
X0763218D01*
X0763181D01*
X0763134D01*
X0763059Y0175506D01*
X0762975D01*
X0762881Y0175515D01*
X0762769Y0175524D01*
X0762647Y0175543D01*
X0762375Y0175590D01*
X0762085Y0175656D01*
X0761794Y0175749D01*
X0761513Y0175871D01*
X0761504D01*
X0761485Y0175890D01*
X0761447Y0175909D01*
X0761391Y0175937D01*
X0761335Y0175984D01*
X0761260Y0176031D01*
X0761101Y0176143D01*
X0760923Y0176293D01*
X0760735Y0176480D01*
X0760557Y0176696D01*
X0760398Y0176939D01*
Y0176949D01*
X0760379Y0176968D01*
X0760361Y0177005D01*
X0760342Y0177061D01*
X0760304Y0177127D01*
X0760276Y0177202D01*
X0760239Y0177295D01*
X0760201Y0177389D01*
X0760173Y0177502D01*
X0760136Y0177614D01*
X0760070Y0177876D01*
X0760033Y0178157D01*
X0760014Y0178467D01*
Y0178560D01*
X0760023Y0178626D01*
X0760033Y0178710D01*
X0760042Y0178804D01*
X0760051Y0178907D01*
X0760070Y0179029D01*
X0760136Y0179272D01*
X0760220Y0179544D01*
X0760276Y0179675D01*
X0760342Y0179807D01*
X0760417Y0179938D01*
X0760501Y0180060D01*
X0760510Y0180069D01*
X0760520Y0180088D01*
X0760548Y0180125D01*
X0760585Y0180163D01*
X0760642Y0180219D01*
X0760698Y0180275D01*
X0760773Y0180341D01*
X0760848Y0180416D01*
X0760942Y0180491D01*
X0761045Y0180566D01*
X0761148Y0180640D01*
X0761270Y0180716D01*
X0761401Y0180790D01*
X0761541Y0180856D01*
X0761691Y0180912D01*
X0761850Y0180968D01*
X0762047Y0180144D01*
X0762038D01*
X0762019Y0180134D01*
X0761982Y0180125D01*
X0761935Y0180106D01*
X0761878Y0180078D01*
X0761813Y0180050D01*
X0761663Y0179975D01*
X0761504Y0179891D01*
X0761335Y0179779D01*
X0761176Y0179647D01*
X0761045Y0179497D01*
X0761035Y0179479D01*
X0760998Y0179422D01*
X0760942Y0179338D01*
X0760885Y0179216D01*
X0760829Y0179066D01*
X0760773Y0178888D01*
X0760735Y0178682D01*
X0760726Y0178457D01*
Y0178382D01*
X0760735Y0178335D01*
Y0178270D01*
X0760745Y0178204D01*
X0760773Y0178036D01*
X0760810Y0177839D01*
X0760876Y0177633D01*
X0760960Y0177436D01*
X0761082Y0177239D01*
Y0177230D01*
X0761101Y0177220D01*
X0761148Y0177164D01*
X0761223Y0177071D01*
X0761326Y0176968D01*
X0761466Y0176855D01*
X0761625Y0176743D01*
X0761813Y0176639D01*
X0762019Y0176555D01*
X0762028D01*
X0762047Y0176546D01*
X0762075Y0176537D01*
X0762122Y0176527D01*
X0762169Y0176508D01*
X0762235Y0176490D01*
X0762385Y0176462D01*
X0762572Y0176424D01*
X0762778Y0176386D01*
X0762994Y0176368D01*
X0763228Y0176358D01*
X0763237D01*
X0763265D01*
X0763303D01*
X0763359D01*
X0763434Y0176368D01*
X0763518D01*
X0763603Y0176377D01*
X0763706Y0176386D01*
X0763921Y0176415D01*
X0764165Y0176462D01*
X0764399Y0176518D01*
X0764633Y0176593D01*
X0764643D01*
X0764661Y0176602D01*
X0764689Y0176621D01*
X0764727Y0176639D01*
X0764840Y0176696D01*
X0764971Y0176771D01*
X0765121Y0176874D01*
X0765261Y0176996D01*
X0765411Y0177146D01*
X0765533Y0177314D01*
Y0177323D01*
X0765542Y0177333D01*
X0765561Y0177361D01*
X0765580Y0177399D01*
X0765626Y0177502D01*
X0765673Y0177633D01*
X0765730Y0177792D01*
X0765776Y0177979D01*
X0765814Y0178176D01*
X0765823Y0178392D01*
Y0178457D01*
X0765814Y0178504D01*
Y0178570D01*
X0765805Y0178635D01*
X0765776Y0178804D01*
X0765720Y0178982D01*
X0765655Y0179179D01*
X0765552Y0179385D01*
X0765495Y0179479D01*
X0765420Y0179572D01*
X0765411Y0179582D01*
X0765402Y0179591D01*
X0765374Y0179619D01*
X0765345Y0179647D01*
X0765299Y0179694D01*
X0765252Y0179732D01*
X0765121Y0179835D01*
X0764952Y0179947D01*
X0764746Y0180060D01*
X0764502Y0180163D01*
X0764221Y0180238D01*
X0764436Y0181071D01*
X0764446D01*
X0764483Y0181062D01*
D02*
G37*
G36*
X0766432Y0174110D02*
X0764521Y0173379D01*
Y0170736D01*
X0766432Y0170052D01*
Y0169172D01*
X0760126Y0171570D01*
Y0172489D01*
X0766432Y0175056D01*
Y0174110D01*
D02*
G37*
G36*
X0766535Y0167354D02*
Y0166735D01*
X0760023Y0168563D01*
Y0169181D01*
X0766535Y0167354D01*
D02*
G37*
G36*
X0764483Y0166379D02*
X0764530Y0166361D01*
X0764605Y0166342D01*
X0764689Y0166304D01*
X0764793Y0166267D01*
X0764896Y0166229D01*
X0765018Y0166173D01*
X0765271Y0166042D01*
X0765523Y0165883D01*
X0765655Y0165780D01*
X0765776Y0165677D01*
X0765898Y0165564D01*
X0766001Y0165442D01*
X0766011Y0165433D01*
X0766020Y0165414D01*
X0766048Y0165377D01*
X0766086Y0165321D01*
X0766123Y0165255D01*
X0766170Y0165171D01*
X0766217Y0165086D01*
X0766264Y0164974D01*
X0766320Y0164861D01*
X0766367Y0164730D01*
X0766414Y0164599D01*
X0766451Y0164449D01*
X0766489Y0164290D01*
X0766517Y0164131D01*
X0766526Y0163953D01*
X0766535Y0163775D01*
Y0163681D01*
X0766526Y0163606D01*
Y0163522D01*
X0766517Y0163418D01*
X0766498Y0163306D01*
X0766479Y0163184D01*
X0766432Y0162922D01*
X0766357Y0162641D01*
X0766254Y0162369D01*
X0766198Y0162238D01*
X0766123Y0162116D01*
X0766114Y0162107D01*
X0766104Y0162088D01*
X0766076Y0162060D01*
X0766048Y0162013D01*
X0766001Y0161957D01*
X0765954Y0161900D01*
X0765814Y0161760D01*
X0765645Y0161601D01*
X0765439Y0161432D01*
X0765205Y0161282D01*
X0764924Y0161142D01*
X0764914D01*
X0764886Y0161132D01*
X0764849Y0161113D01*
X0764783Y0161095D01*
X0764718Y0161067D01*
X0764624Y0161038D01*
X0764530Y0161010D01*
X0764418Y0160982D01*
X0764296Y0160945D01*
X0764165Y0160917D01*
X0763874Y0160870D01*
X0763565Y0160832D01*
X0763228Y0160814D01*
X0763218D01*
X0763181D01*
X0763134D01*
X0763059Y0160823D01*
X0762975D01*
X0762881Y0160832D01*
X0762769Y0160842D01*
X0762647Y0160860D01*
X0762375Y0160907D01*
X0762085Y0160973D01*
X0761794Y0161067D01*
X0761513Y0161188D01*
X0761504D01*
X0761485Y0161207D01*
X0761447Y0161226D01*
X0761391Y0161254D01*
X0761335Y0161301D01*
X0761260Y0161348D01*
X0761101Y0161460D01*
X0760923Y0161610D01*
X0760735Y0161797D01*
X0760557Y0162013D01*
X0760398Y0162257D01*
Y0162266D01*
X0760379Y0162285D01*
X0760361Y0162322D01*
X0760342Y0162378D01*
X0760304Y0162444D01*
X0760276Y0162519D01*
X0760239Y0162613D01*
X0760201Y0162706D01*
X0760173Y0162819D01*
X0760136Y0162931D01*
X0760070Y0163194D01*
X0760033Y0163475D01*
X0760014Y0163784D01*
Y0163878D01*
X0760023Y0163943D01*
X0760033Y0164028D01*
X0760042Y0164121D01*
X0760051Y0164224D01*
X0760070Y0164346D01*
X0760136Y0164590D01*
X0760220Y0164861D01*
X0760276Y0164993D01*
X0760342Y0165124D01*
X0760417Y0165255D01*
X0760501Y0165377D01*
X0760510Y0165386D01*
X0760520Y0165405D01*
X0760548Y0165442D01*
X0760585Y0165480D01*
X0760642Y0165536D01*
X0760698Y0165592D01*
X0760773Y0165658D01*
X0760848Y0165733D01*
X0760942Y0165808D01*
X0761045Y0165883D01*
X0761148Y0165958D01*
X0761270Y0166033D01*
X0761401Y0166108D01*
X0761541Y0166173D01*
X0761691Y0166229D01*
X0761850Y0166286D01*
X0762047Y0165461D01*
X0762038D01*
X0762019Y0165452D01*
X0761982Y0165442D01*
X0761935Y0165424D01*
X0761878Y0165395D01*
X0761813Y0165367D01*
X0761663Y0165293D01*
X0761504Y0165208D01*
X0761335Y0165096D01*
X0761176Y0164964D01*
X0761045Y0164815D01*
X0761035Y0164796D01*
X0760998Y0164740D01*
X0760942Y0164655D01*
X0760885Y0164533D01*
X0760829Y0164384D01*
X0760773Y0164206D01*
X0760735Y0163999D01*
X0760726Y0163775D01*
Y0163700D01*
X0760735Y0163653D01*
Y0163587D01*
X0760745Y0163522D01*
X0760773Y0163353D01*
X0760810Y0163156D01*
X0760876Y0162950D01*
X0760960Y0162753D01*
X0761082Y0162556D01*
Y0162547D01*
X0761101Y0162538D01*
X0761148Y0162481D01*
X0761223Y0162388D01*
X0761326Y0162285D01*
X0761466Y0162172D01*
X0761625Y0162060D01*
X0761813Y0161957D01*
X0762019Y0161872D01*
X0762028D01*
X0762047Y0161863D01*
X0762075Y0161854D01*
X0762122Y0161844D01*
X0762169Y0161826D01*
X0762235Y0161807D01*
X0762385Y0161779D01*
X0762572Y0161741D01*
X0762778Y0161704D01*
X0762994Y0161685D01*
X0763228Y0161676D01*
X0763237D01*
X0763265D01*
X0763303D01*
X0763359D01*
X0763434Y0161685D01*
X0763518D01*
X0763603Y0161694D01*
X0763706Y0161704D01*
X0763921Y0161732D01*
X0764165Y0161779D01*
X0764399Y0161835D01*
X0764633Y0161910D01*
X0764643D01*
X0764661Y0161919D01*
X0764689Y0161938D01*
X0764727Y0161957D01*
X0764840Y0162013D01*
X0764971Y0162088D01*
X0765121Y0162191D01*
X0765261Y0162313D01*
X0765411Y0162463D01*
X0765533Y0162631D01*
Y0162641D01*
X0765542Y0162650D01*
X0765561Y0162678D01*
X0765580Y0162716D01*
X0765626Y0162819D01*
X0765673Y0162950D01*
X0765730Y0163109D01*
X0765776Y0163297D01*
X0765814Y0163493D01*
X0765823Y0163709D01*
Y0163775D01*
X0765814Y0163821D01*
Y0163887D01*
X0765805Y0163953D01*
X0765776Y0164121D01*
X0765720Y0164299D01*
X0765655Y0164496D01*
X0765552Y0164702D01*
X0765495Y0164796D01*
X0765420Y0164890D01*
X0765411Y0164899D01*
X0765402Y0164908D01*
X0765374Y0164936D01*
X0765345Y0164964D01*
X0765299Y0165011D01*
X0765252Y0165049D01*
X0765121Y0165152D01*
X0764952Y0165264D01*
X0764746Y0165377D01*
X0764502Y0165480D01*
X0764221Y0165555D01*
X0764436Y0166389D01*
X0764446D01*
X0764483Y0166379D01*
D02*
G37*
G36*
X0763434Y0159895D02*
X0763499D01*
X0763678Y0159886D01*
X0763874Y0159867D01*
X0764090Y0159830D01*
X0764305Y0159792D01*
X0764521Y0159736D01*
X0764530D01*
X0764549Y0159727D01*
X0764577Y0159717D01*
X0764615Y0159708D01*
X0764718Y0159670D01*
X0764840Y0159624D01*
X0764989Y0159558D01*
X0765139Y0159483D01*
X0765299Y0159399D01*
X0765439Y0159305D01*
X0765458Y0159296D01*
X0765495Y0159258D01*
X0765570Y0159202D01*
X0765645Y0159136D01*
X0765739Y0159052D01*
X0765842Y0158949D01*
X0765936Y0158836D01*
X0766020Y0158724D01*
X0766029Y0158715D01*
X0766057Y0158668D01*
X0766095Y0158602D01*
X0766132Y0158518D01*
X0766189Y0158405D01*
X0766236Y0158274D01*
X0766282Y0158134D01*
X0766329Y0157975D01*
Y0157956D01*
X0766339Y0157928D01*
X0766348Y0157899D01*
X0766357Y0157806D01*
X0766376Y0157684D01*
X0766395Y0157534D01*
X0766414Y0157365D01*
X0766423Y0157169D01*
X0766432Y0156963D01*
Y0154695D01*
X0760126D01*
Y0157112D01*
X0760136Y0157281D01*
X0760145Y0157459D01*
X0760164Y0157647D01*
X0760192Y0157825D01*
X0760220Y0157984D01*
Y0157993D01*
X0760229Y0158012D01*
Y0158040D01*
X0760248Y0158078D01*
X0760276Y0158181D01*
X0760323Y0158302D01*
X0760379Y0158452D01*
X0760464Y0158602D01*
X0760557Y0158762D01*
X0760670Y0158912D01*
Y0158921D01*
X0760688Y0158930D01*
X0760717Y0158958D01*
X0760745Y0158996D01*
X0760839Y0159080D01*
X0760960Y0159193D01*
X0761120Y0159314D01*
X0761298Y0159436D01*
X0761513Y0159549D01*
X0761747Y0159652D01*
X0761757D01*
X0761775Y0159661D01*
X0761813Y0159680D01*
X0761860Y0159689D01*
X0761925Y0159708D01*
X0762000Y0159736D01*
X0762085Y0159755D01*
X0762178Y0159783D01*
X0762291Y0159802D01*
X0762403Y0159820D01*
X0762656Y0159867D01*
X0762937Y0159895D01*
X0763247Y0159905D01*
X0763256D01*
X0763275D01*
X0763312D01*
X0763368D01*
X0763434Y0159895D01*
D02*
G37*
G36*
X0764540Y0148904D02*
X0763762D01*
Y0151294D01*
X0764540D01*
Y0148904D01*
D02*
G37*
G36*
X0763612Y0145756D02*
X0763715D01*
X0763837Y0145747D01*
X0763968Y0145737D01*
X0764249Y0145709D01*
X0764549Y0145662D01*
X0764849Y0145606D01*
X0764989Y0145569D01*
X0765121Y0145531D01*
X0765130D01*
X0765149Y0145522D01*
X0765186Y0145503D01*
X0765233Y0145494D01*
X0765289Y0145466D01*
X0765355Y0145437D01*
X0765505Y0145362D01*
X0765673Y0145269D01*
X0765851Y0145147D01*
X0766020Y0145006D01*
X0766170Y0144847D01*
Y0144838D01*
X0766189Y0144828D01*
X0766208Y0144800D01*
X0766226Y0144763D01*
X0766282Y0144669D01*
X0766348Y0144538D01*
X0766423Y0144369D01*
X0766479Y0144173D01*
X0766517Y0143957D01*
X0766535Y0143704D01*
Y0143620D01*
X0766526Y0143554D01*
X0766517Y0143479D01*
X0766498Y0143385D01*
X0766479Y0143292D01*
X0766451Y0143189D01*
X0766423Y0143076D01*
X0766376Y0142954D01*
X0766329Y0142833D01*
X0766264Y0142720D01*
X0766189Y0142598D01*
X0766104Y0142486D01*
X0766001Y0142373D01*
X0765889Y0142270D01*
X0765879Y0142261D01*
X0765851Y0142242D01*
X0765805Y0142214D01*
X0765739Y0142177D01*
X0765655Y0142130D01*
X0765542Y0142074D01*
X0765420Y0142017D01*
X0765271Y0141961D01*
X0765102Y0141905D01*
X0764914Y0141849D01*
X0764708Y0141793D01*
X0764474Y0141746D01*
X0764221Y0141708D01*
X0763949Y0141680D01*
X0763650Y0141661D01*
X0763331Y0141652D01*
X0763321D01*
X0763284D01*
X0763228D01*
X0763143D01*
X0763050Y0141661D01*
X0762937D01*
X0762816Y0141671D01*
X0762684Y0141680D01*
X0762403Y0141708D01*
X0762103Y0141746D01*
X0761804Y0141802D01*
X0761663Y0141839D01*
X0761532Y0141877D01*
X0761522D01*
X0761504Y0141886D01*
X0761466Y0141905D01*
X0761419Y0141924D01*
X0761363Y0141942D01*
X0761298Y0141971D01*
X0761148Y0142055D01*
X0760979Y0142149D01*
X0760801Y0142261D01*
X0760632Y0142402D01*
X0760482Y0142561D01*
Y0142570D01*
X0760464Y0142580D01*
X0760445Y0142608D01*
X0760426Y0142645D01*
X0760398Y0142692D01*
X0760361Y0142739D01*
X0760295Y0142879D01*
X0760229Y0143039D01*
X0760164Y0143236D01*
X0760126Y0143460D01*
X0760108Y0143704D01*
Y0143788D01*
X0760117Y0143882D01*
X0760136Y0144004D01*
X0760154Y0144144D01*
X0760192Y0144294D01*
X0760248Y0144444D01*
X0760314Y0144594D01*
X0760323Y0144613D01*
X0760351Y0144660D01*
X0760398Y0144725D01*
X0760464Y0144819D01*
X0760548Y0144913D01*
X0760651Y0145025D01*
X0760764Y0145128D01*
X0760904Y0145222D01*
X0760923Y0145231D01*
X0760970Y0145259D01*
X0761054Y0145306D01*
X0761166Y0145362D01*
X0761298Y0145428D01*
X0761457Y0145494D01*
X0761644Y0145559D01*
X0761841Y0145615D01*
X0761850D01*
X0761869Y0145625D01*
X0761897Y0145634D01*
X0761944Y0145644D01*
X0762000Y0145653D01*
X0762066Y0145662D01*
X0762141Y0145681D01*
X0762235Y0145690D01*
X0762338Y0145709D01*
X0762450Y0145719D01*
X0762572Y0145728D01*
X0762703Y0145747D01*
X0762844Y0145756D01*
X0762994D01*
X0763162Y0145765D01*
X0763331D01*
X0763340D01*
X0763378D01*
X0763434D01*
X0763518D01*
X0763612Y0145756D01*
D02*
G37*
G36*
X0764436Y0140921D02*
X0764511Y0140912D01*
X0764596Y0140902D01*
X0764699Y0140893D01*
X0764802Y0140865D01*
X0765036Y0140809D01*
X0765280Y0140715D01*
X0765411Y0140659D01*
X0765533Y0140593D01*
X0765655Y0140518D01*
X0765776Y0140425D01*
X0765786Y0140415D01*
X0765805Y0140396D01*
X0765842Y0140359D01*
X0765898Y0140312D01*
X0765954Y0140256D01*
X0766020Y0140181D01*
X0766086Y0140096D01*
X0766151Y0139994D01*
X0766226Y0139881D01*
X0766292Y0139759D01*
X0766357Y0139619D01*
X0766414Y0139478D01*
X0766461Y0139319D01*
X0766498Y0139150D01*
X0766526Y0138963D01*
X0766535Y0138775D01*
Y0138691D01*
X0766526Y0138635D01*
X0766517Y0138560D01*
X0766507Y0138476D01*
X0766498Y0138382D01*
X0766479Y0138279D01*
X0766423Y0138054D01*
X0766329Y0137820D01*
X0766282Y0137698D01*
X0766217Y0137585D01*
X0766142Y0137473D01*
X0766057Y0137370D01*
X0766048Y0137361D01*
X0766039Y0137351D01*
X0766011Y0137323D01*
X0765973Y0137285D01*
X0765926Y0137239D01*
X0765861Y0137192D01*
X0765795Y0137145D01*
X0765720Y0137089D01*
X0765626Y0137032D01*
X0765533Y0136976D01*
X0765317Y0136883D01*
X0765064Y0136798D01*
X0764924Y0136770D01*
X0764774Y0136751D01*
X0764718Y0137567D01*
X0764727D01*
X0764746D01*
X0764774Y0137576D01*
X0764811Y0137585D01*
X0764924Y0137613D01*
X0765046Y0137651D01*
X0765196Y0137707D01*
X0765345Y0137773D01*
X0765486Y0137866D01*
X0765608Y0137979D01*
X0765617Y0137998D01*
X0765655Y0138035D01*
X0765701Y0138110D01*
X0765748Y0138204D01*
X0765805Y0138316D01*
X0765851Y0138457D01*
X0765889Y0138607D01*
X0765898Y0138775D01*
Y0138832D01*
X0765889Y0138869D01*
X0765879Y0138972D01*
X0765842Y0139103D01*
X0765795Y0139253D01*
X0765720Y0139412D01*
X0765617Y0139572D01*
X0765552Y0139647D01*
X0765477Y0139722D01*
X0765467D01*
X0765458Y0139741D01*
X0765430Y0139759D01*
X0765402Y0139778D01*
X0765308Y0139843D01*
X0765177Y0139918D01*
X0765018Y0139984D01*
X0764830Y0140050D01*
X0764605Y0140087D01*
X0764362Y0140106D01*
X0764352D01*
X0764333D01*
X0764296D01*
X0764249Y0140096D01*
X0764193D01*
X0764127Y0140087D01*
X0763977Y0140059D01*
X0763809Y0140012D01*
X0763640Y0139947D01*
X0763471Y0139853D01*
X0763312Y0139731D01*
X0763293Y0139712D01*
X0763256Y0139665D01*
X0763190Y0139581D01*
X0763115Y0139469D01*
X0763050Y0139338D01*
X0762984Y0139169D01*
X0762947Y0138972D01*
X0762928Y0138757D01*
Y0138691D01*
X0762937Y0138625D01*
X0762947Y0138532D01*
X0762975Y0138429D01*
X0763003Y0138316D01*
X0763050Y0138194D01*
X0763106Y0138082D01*
X0763115Y0138073D01*
X0763134Y0138035D01*
X0763181Y0137979D01*
X0763228Y0137913D01*
X0763293Y0137838D01*
X0763368Y0137763D01*
X0763462Y0137688D01*
X0763556Y0137623D01*
X0763453Y0136892D01*
X0760211Y0137501D01*
Y0140631D01*
X0760951D01*
Y0138119D01*
X0762647Y0137782D01*
X0762638Y0137792D01*
X0762628Y0137810D01*
X0762609Y0137838D01*
X0762581Y0137876D01*
X0762553Y0137932D01*
X0762516Y0137988D01*
X0762441Y0138138D01*
X0762375Y0138316D01*
X0762310Y0138522D01*
X0762263Y0138738D01*
X0762244Y0138850D01*
Y0139047D01*
X0762253Y0139103D01*
X0762263Y0139169D01*
X0762272Y0139253D01*
X0762291Y0139347D01*
X0762319Y0139450D01*
X0762385Y0139665D01*
X0762431Y0139778D01*
X0762488Y0139900D01*
X0762553Y0140022D01*
X0762638Y0140134D01*
X0762722Y0140246D01*
X0762825Y0140359D01*
X0762834Y0140368D01*
X0762853Y0140387D01*
X0762881Y0140415D01*
X0762928Y0140453D01*
X0762984Y0140490D01*
X0763050Y0140537D01*
X0763134Y0140593D01*
X0763218Y0140649D01*
X0763321Y0140696D01*
X0763434Y0140752D01*
X0763556Y0140799D01*
X0763687Y0140846D01*
X0763828Y0140874D01*
X0763977Y0140902D01*
X0764127Y0140921D01*
X0764296Y0140930D01*
X0764305D01*
X0764333D01*
X0764380D01*
X0764436Y0140921D01*
D02*
G37*
G36*
X0764924Y0135112D02*
X0766432D01*
Y0134334D01*
X0764924D01*
Y0131589D01*
X0764212D01*
X0760126Y0134484D01*
Y0135112D01*
X0764212D01*
Y0135964D01*
X0764924D01*
Y0135112D01*
D02*
G37*
G36*
X0764343Y0128665D02*
Y0125254D01*
X0764352D01*
X0764380D01*
X0764418Y0125264D01*
X0764465D01*
X0764530Y0125273D01*
X0764605Y0125283D01*
X0764774Y0125320D01*
X0764961Y0125376D01*
X0765149Y0125451D01*
X0765336Y0125545D01*
X0765505Y0125676D01*
X0765523Y0125695D01*
X0765570Y0125742D01*
X0765626Y0125826D01*
X0765701Y0125938D01*
X0765776Y0126079D01*
X0765833Y0126238D01*
X0765879Y0126426D01*
X0765898Y0126632D01*
Y0126707D01*
X0765889Y0126782D01*
X0765870Y0126885D01*
X0765842Y0126997D01*
X0765805Y0127119D01*
X0765758Y0127241D01*
X0765683Y0127363D01*
X0765673Y0127372D01*
X0765636Y0127410D01*
X0765589Y0127466D01*
X0765505Y0127541D01*
X0765411Y0127616D01*
X0765280Y0127700D01*
X0765130Y0127775D01*
X0764961Y0127850D01*
X0765064Y0128646D01*
X0765074D01*
X0765092Y0128637D01*
X0765130Y0128628D01*
X0765177Y0128609D01*
X0765242Y0128590D01*
X0765308Y0128562D01*
X0765467Y0128487D01*
X0765636Y0128393D01*
X0765823Y0128272D01*
X0765992Y0128122D01*
X0766151Y0127944D01*
Y0127934D01*
X0766170Y0127925D01*
X0766189Y0127887D01*
X0766208Y0127850D01*
X0766236Y0127803D01*
X0766273Y0127737D01*
X0766311Y0127672D01*
X0766339Y0127588D01*
X0766414Y0127400D01*
X0766479Y0127175D01*
X0766517Y0126913D01*
X0766535Y0126632D01*
Y0126538D01*
X0766526Y0126463D01*
X0766517Y0126379D01*
X0766507Y0126285D01*
X0766489Y0126173D01*
X0766461Y0126060D01*
X0766386Y0125807D01*
X0766339Y0125667D01*
X0766282Y0125536D01*
X0766208Y0125404D01*
X0766123Y0125273D01*
X0766029Y0125151D01*
X0765926Y0125039D01*
X0765917Y0125030D01*
X0765898Y0125011D01*
X0765861Y0124983D01*
X0765814Y0124945D01*
X0765748Y0124908D01*
X0765673Y0124852D01*
X0765580Y0124805D01*
X0765477Y0124749D01*
X0765364Y0124692D01*
X0765233Y0124645D01*
X0765092Y0124589D01*
X0764933Y0124552D01*
X0764764Y0124514D01*
X0764586Y0124486D01*
X0764399Y0124467D01*
X0764193Y0124458D01*
X0764184D01*
X0764146D01*
X0764080D01*
X0764006Y0124467D01*
X0763903Y0124477D01*
X0763790Y0124486D01*
X0763668Y0124505D01*
X0763528Y0124533D01*
X0763247Y0124599D01*
X0763097Y0124655D01*
X0762947Y0124711D01*
X0762797Y0124777D01*
X0762656Y0124852D01*
X0762516Y0124945D01*
X0762394Y0125048D01*
X0762385Y0125058D01*
X0762366Y0125076D01*
X0762338Y0125114D01*
X0762291Y0125151D01*
X0762244Y0125217D01*
X0762188Y0125283D01*
X0762132Y0125367D01*
X0762075Y0125461D01*
X0762019Y0125564D01*
X0761953Y0125686D01*
X0761907Y0125807D01*
X0761860Y0125948D01*
X0761813Y0126088D01*
X0761785Y0126248D01*
X0761766Y0126416D01*
X0761757Y0126585D01*
Y0126669D01*
X0761766Y0126735D01*
X0761775Y0126819D01*
X0761794Y0126904D01*
X0761813Y0127007D01*
X0761832Y0127119D01*
X0761907Y0127353D01*
X0761963Y0127475D01*
X0762019Y0127606D01*
X0762094Y0127728D01*
X0762178Y0127850D01*
X0762272Y0127972D01*
X0762385Y0128084D01*
X0762394Y0128094D01*
X0762413Y0128112D01*
X0762450Y0128140D01*
X0762497Y0128178D01*
X0762563Y0128225D01*
X0762638Y0128272D01*
X0762731Y0128328D01*
X0762834Y0128384D01*
X0762956Y0128431D01*
X0763087Y0128487D01*
X0763228Y0128534D01*
X0763387Y0128581D01*
X0763556Y0128618D01*
X0763734Y0128646D01*
X0763931Y0128665D01*
X0764137Y0128674D01*
X0764146D01*
X0764193D01*
X0764258D01*
X0764343Y0128665D01*
D02*
G37*
G36*
X0766423Y0124046D02*
X0766432Y0124008D01*
X0766442Y0123943D01*
X0766451Y0123868D01*
X0766470Y0123774D01*
X0766479Y0123680D01*
X0766489Y0123474D01*
Y0123409D01*
X0766479Y0123324D01*
X0766470Y0123231D01*
X0766461Y0123127D01*
X0766432Y0123024D01*
X0766404Y0122912D01*
X0766357Y0122818D01*
X0766348Y0122809D01*
X0766329Y0122781D01*
X0766301Y0122743D01*
X0766264Y0122696D01*
X0766217Y0122640D01*
X0766151Y0122593D01*
X0766086Y0122537D01*
X0766011Y0122500D01*
X0766001D01*
X0765964Y0122481D01*
X0765908Y0122472D01*
X0765814Y0122453D01*
X0765692Y0122434D01*
X0765617Y0122425D01*
X0765533D01*
X0765439Y0122415D01*
X0765336Y0122406D01*
X0765214D01*
X0765092D01*
X0762460D01*
Y0121834D01*
X0761860D01*
Y0122406D01*
X0760735D01*
X0760267Y0123184D01*
X0761860D01*
Y0123961D01*
X0762460D01*
Y0123184D01*
X0765139D01*
X0765149D01*
X0765196D01*
X0765252D01*
X0765317Y0123193D01*
X0765458Y0123202D01*
X0765523Y0123212D01*
X0765570Y0123221D01*
X0765589Y0123231D01*
X0765626Y0123249D01*
X0765673Y0123296D01*
X0765720Y0123352D01*
X0765730Y0123371D01*
X0765739Y0123418D01*
X0765758Y0123502D01*
X0765767Y0123615D01*
Y0123708D01*
X0765758Y0123755D01*
Y0123821D01*
X0765739Y0123961D01*
X0766423Y0124065D01*
Y0124046D01*
D02*
G37*
G36*
X0766432Y0120513D02*
X0766423Y0120504D01*
X0766386Y0120494D01*
X0766339Y0120476D01*
X0766273Y0120448D01*
X0766189Y0120420D01*
X0766086Y0120401D01*
X0765983Y0120382D01*
X0765861Y0120363D01*
X0765879Y0120345D01*
X0765917Y0120288D01*
X0765983Y0120204D01*
X0766067Y0120101D01*
X0766151Y0119970D01*
X0766236Y0119829D01*
X0766320Y0119679D01*
X0766386Y0119529D01*
X0766395Y0119511D01*
X0766404Y0119464D01*
X0766432Y0119379D01*
X0766461Y0119276D01*
X0766489Y0119145D01*
X0766507Y0119005D01*
X0766526Y0118845D01*
X0766535Y0118677D01*
Y0118602D01*
X0766526Y0118555D01*
Y0118489D01*
X0766517Y0118414D01*
X0766489Y0118246D01*
X0766442Y0118058D01*
X0766386Y0117871D01*
X0766292Y0117683D01*
X0766170Y0117515D01*
X0766151Y0117496D01*
X0766104Y0117449D01*
X0766020Y0117384D01*
X0765917Y0117318D01*
X0765776Y0117243D01*
X0765617Y0117177D01*
X0765439Y0117131D01*
X0765336Y0117121D01*
X0765233Y0117112D01*
X0765214D01*
X0765177D01*
X0765111Y0117121D01*
X0765027Y0117131D01*
X0764933Y0117149D01*
X0764830Y0117177D01*
X0764718Y0117215D01*
X0764615Y0117262D01*
X0764605Y0117271D01*
X0764568Y0117290D01*
X0764521Y0117318D01*
X0764455Y0117365D01*
X0764380Y0117421D01*
X0764305Y0117496D01*
X0764240Y0117571D01*
X0764174Y0117655D01*
X0764165Y0117665D01*
X0764146Y0117702D01*
X0764118Y0117749D01*
X0764080Y0117824D01*
X0764034Y0117908D01*
X0763996Y0118002D01*
X0763949Y0118105D01*
X0763912Y0118218D01*
Y0118227D01*
X0763903Y0118264D01*
X0763893Y0118321D01*
X0763874Y0118396D01*
X0763856Y0118489D01*
X0763837Y0118611D01*
X0763818Y0118752D01*
X0763799Y0118911D01*
Y0118920D01*
X0763790Y0118948D01*
Y0119005D01*
X0763781Y0119070D01*
X0763771Y0119145D01*
X0763753Y0119229D01*
X0763743Y0119333D01*
X0763724Y0119436D01*
X0763687Y0119670D01*
X0763640Y0119895D01*
X0763584Y0120110D01*
X0763556Y0120213D01*
X0763528Y0120298D01*
X0763518D01*
X0763499D01*
X0763443Y0120307D01*
X0763378D01*
X0763350D01*
X0763331D01*
X0763321D01*
X0763312D01*
X0763256D01*
X0763172Y0120298D01*
X0763068Y0120279D01*
X0762956Y0120251D01*
X0762844Y0120213D01*
X0762750Y0120157D01*
X0762666Y0120082D01*
X0762656Y0120073D01*
X0762619Y0120026D01*
X0762581Y0119960D01*
X0762525Y0119857D01*
X0762478Y0119736D01*
X0762431Y0119576D01*
X0762403Y0119398D01*
X0762394Y0119192D01*
Y0119108D01*
X0762403Y0119005D01*
X0762422Y0118892D01*
X0762441Y0118761D01*
X0762478Y0118621D01*
X0762525Y0118499D01*
X0762591Y0118386D01*
X0762600Y0118377D01*
X0762628Y0118339D01*
X0762675Y0118292D01*
X0762741Y0118236D01*
X0762834Y0118180D01*
X0762956Y0118114D01*
X0763097Y0118058D01*
X0763265Y0118002D01*
X0763162Y0117243D01*
X0763153D01*
X0763143Y0117253D01*
X0763078Y0117262D01*
X0762994Y0117290D01*
X0762881Y0117327D01*
X0762759Y0117374D01*
X0762628Y0117430D01*
X0762506Y0117496D01*
X0762385Y0117580D01*
X0762375Y0117590D01*
X0762338Y0117627D01*
X0762281Y0117674D01*
X0762216Y0117758D01*
X0762141Y0117852D01*
X0762066Y0117965D01*
X0761991Y0118105D01*
X0761925Y0118264D01*
Y0118274D01*
X0761916Y0118283D01*
X0761907Y0118311D01*
X0761897Y0118349D01*
X0761869Y0118442D01*
X0761841Y0118564D01*
X0761813Y0118714D01*
X0761785Y0118892D01*
X0761766Y0119089D01*
X0761757Y0119305D01*
Y0119398D01*
X0761766Y0119511D01*
X0761775Y0119642D01*
X0761794Y0119801D01*
X0761813Y0119960D01*
X0761850Y0120110D01*
X0761897Y0120260D01*
X0761907Y0120279D01*
X0761925Y0120317D01*
X0761953Y0120382D01*
X0761991Y0120466D01*
X0762047Y0120551D01*
X0762103Y0120644D01*
X0762169Y0120719D01*
X0762244Y0120794D01*
X0762253Y0120804D01*
X0762281Y0120822D01*
X0762328Y0120851D01*
X0762385Y0120888D01*
X0762460Y0120935D01*
X0762553Y0120972D01*
X0762656Y0121010D01*
X0762769Y0121038D01*
X0762778D01*
X0762806Y0121047D01*
X0762862Y0121057D01*
X0762928Y0121066D01*
X0763031D01*
X0763153Y0121075D01*
X0763303Y0121085D01*
X0763481D01*
X0764521D01*
X0764530D01*
X0764568D01*
X0764624D01*
X0764689D01*
X0764783D01*
X0764877D01*
X0765092Y0121094D01*
X0765327D01*
X0765552Y0121104D01*
X0765655Y0121113D01*
X0765748D01*
X0765823Y0121122D01*
X0765889Y0121132D01*
X0765898D01*
X0765936Y0121141D01*
X0765992Y0121150D01*
X0766057Y0121169D01*
X0766142Y0121197D01*
X0766236Y0121235D01*
X0766432Y0121319D01*
Y0120513D01*
D02*
G37*
G36*
X0765570Y0116231D02*
X0765580Y0116212D01*
X0765608Y0116175D01*
X0765636Y0116137D01*
X0765683Y0116081D01*
X0765730Y0116006D01*
X0765776Y0115931D01*
X0765833Y0115847D01*
X0765954Y0115660D01*
X0766076Y0115444D01*
X0766189Y0115210D01*
X0766292Y0114966D01*
Y0114957D01*
X0766301Y0114938D01*
X0766311Y0114901D01*
X0766329Y0114854D01*
X0766348Y0114797D01*
X0766367Y0114723D01*
X0766395Y0114638D01*
X0766414Y0114554D01*
X0766461Y0114348D01*
X0766498Y0114123D01*
X0766526Y0113879D01*
X0766535Y0113626D01*
Y0113533D01*
X0766526Y0113467D01*
Y0113392D01*
X0766517Y0113289D01*
X0766498Y0113186D01*
X0766489Y0113064D01*
X0766442Y0112811D01*
X0766367Y0112521D01*
X0766273Y0112230D01*
X0766142Y0111940D01*
X0766132Y0111930D01*
X0766123Y0111902D01*
X0766104Y0111865D01*
X0766067Y0111818D01*
X0766029Y0111752D01*
X0765973Y0111677D01*
X0765851Y0111509D01*
X0765692Y0111331D01*
X0765495Y0111134D01*
X0765261Y0110956D01*
X0764999Y0110796D01*
X0764989D01*
X0764961Y0110778D01*
X0764924Y0110759D01*
X0764868Y0110740D01*
X0764793Y0110712D01*
X0764708Y0110675D01*
X0764615Y0110637D01*
X0764502Y0110609D01*
X0764380Y0110572D01*
X0764249Y0110534D01*
X0763968Y0110469D01*
X0763650Y0110431D01*
X0763312Y0110412D01*
X0763303D01*
X0763275D01*
X0763218D01*
X0763153Y0110422D01*
X0763068D01*
X0762975Y0110431D01*
X0762872Y0110441D01*
X0762750Y0110459D01*
X0762488Y0110506D01*
X0762197Y0110572D01*
X0761888Y0110665D01*
X0761588Y0110796D01*
X0761579Y0110806D01*
X0761551Y0110815D01*
X0761513Y0110834D01*
X0761457Y0110872D01*
X0761391Y0110909D01*
X0761316Y0110956D01*
X0761138Y0111078D01*
X0760951Y0111237D01*
X0760754Y0111424D01*
X0760567Y0111649D01*
X0760482Y0111771D01*
X0760407Y0111902D01*
X0760398Y0111912D01*
X0760389Y0111940D01*
X0760370Y0111977D01*
X0760342Y0112033D01*
X0760314Y0112099D01*
X0760286Y0112183D01*
X0760248Y0112277D01*
X0760211Y0112380D01*
X0760173Y0112502D01*
X0760136Y0112624D01*
X0760108Y0112764D01*
X0760079Y0112905D01*
X0760033Y0113223D01*
X0760014Y0113561D01*
Y0113673D01*
X0760023Y0113739D01*
Y0113804D01*
X0760042Y0113973D01*
X0760070Y0114160D01*
X0760108Y0114376D01*
X0760164Y0114582D01*
X0760239Y0114797D01*
Y0114807D01*
X0760248Y0114826D01*
X0760257Y0114854D01*
X0760276Y0114891D01*
X0760332Y0114985D01*
X0760398Y0115116D01*
X0760492Y0115247D01*
X0760595Y0115397D01*
X0760717Y0115538D01*
X0760857Y0115660D01*
X0760876Y0115678D01*
X0760932Y0115716D01*
X0761017Y0115772D01*
X0761138Y0115838D01*
X0761288Y0115913D01*
X0761466Y0115997D01*
X0761663Y0116072D01*
X0761897Y0116137D01*
X0762103Y0115388D01*
X0762094D01*
X0762085Y0115378D01*
X0762019Y0115360D01*
X0761935Y0115332D01*
X0761822Y0115294D01*
X0761700Y0115238D01*
X0761579Y0115182D01*
X0761457Y0115107D01*
X0761344Y0115032D01*
X0761335Y0115022D01*
X0761298Y0114994D01*
X0761251Y0114947D01*
X0761185Y0114882D01*
X0761110Y0114797D01*
X0761035Y0114694D01*
X0760960Y0114573D01*
X0760895Y0114432D01*
X0760885Y0114413D01*
X0760867Y0114366D01*
X0760839Y0114282D01*
X0760810Y0114179D01*
X0760782Y0114057D01*
X0760754Y0113907D01*
X0760735Y0113748D01*
X0760726Y0113570D01*
Y0113476D01*
X0760735Y0113364D01*
X0760745Y0113233D01*
X0760773Y0113074D01*
X0760801Y0112914D01*
X0760848Y0112745D01*
X0760904Y0112577D01*
X0760913Y0112558D01*
X0760932Y0112511D01*
X0760979Y0112436D01*
X0761026Y0112343D01*
X0761101Y0112230D01*
X0761176Y0112118D01*
X0761270Y0112005D01*
X0761373Y0111902D01*
X0761382Y0111893D01*
X0761419Y0111865D01*
X0761476Y0111818D01*
X0761551Y0111762D01*
X0761644Y0111696D01*
X0761747Y0111630D01*
X0761869Y0111565D01*
X0761991Y0111509D01*
X0762000D01*
X0762019Y0111499D01*
X0762047Y0111490D01*
X0762094Y0111471D01*
X0762150Y0111452D01*
X0762216Y0111434D01*
X0762291Y0111415D01*
X0762375Y0111396D01*
X0762563Y0111349D01*
X0762778Y0111312D01*
X0763012Y0111284D01*
X0763265Y0111274D01*
X0763275D01*
X0763303D01*
X0763350D01*
X0763406Y0111284D01*
X0763481D01*
X0763565Y0111293D01*
X0763659Y0111302D01*
X0763762Y0111312D01*
X0763977Y0111340D01*
X0764221Y0111396D01*
X0764455Y0111462D01*
X0764680Y0111556D01*
X0764689D01*
X0764708Y0111565D01*
X0764736Y0111584D01*
X0764774Y0111612D01*
X0764877Y0111677D01*
X0764999Y0111771D01*
X0765139Y0111893D01*
X0765280Y0112033D01*
X0765411Y0112202D01*
X0765523Y0112399D01*
Y0112408D01*
X0765533Y0112427D01*
X0765552Y0112455D01*
X0765561Y0112493D01*
X0765589Y0112549D01*
X0765608Y0112605D01*
X0765655Y0112755D01*
X0765711Y0112933D01*
X0765748Y0113139D01*
X0765786Y0113355D01*
X0765795Y0113579D01*
Y0113673D01*
X0765786Y0113720D01*
Y0113776D01*
X0765767Y0113917D01*
X0765748Y0114076D01*
X0765711Y0114254D01*
X0765655Y0114442D01*
X0765589Y0114638D01*
Y0114648D01*
X0765580Y0114657D01*
X0765570Y0114685D01*
X0765552Y0114723D01*
X0765514Y0114816D01*
X0765458Y0114929D01*
X0765392Y0115060D01*
X0765308Y0115191D01*
X0765224Y0115313D01*
X0765139Y0115425D01*
X0763959D01*
Y0113570D01*
X0763218D01*
Y0116241D01*
X0765561D01*
X0765570Y0116231D01*
D02*
G37*
G36*
X0762722Y0109785D02*
X0762712Y0109775D01*
X0762694Y0109738D01*
X0762666Y0109681D01*
X0762638Y0109607D01*
X0762609Y0109522D01*
X0762581Y0109429D01*
X0762563Y0109326D01*
X0762553Y0109222D01*
Y0109176D01*
X0762563Y0109129D01*
X0762572Y0109072D01*
X0762591Y0108997D01*
X0762619Y0108923D01*
X0762656Y0108838D01*
X0762712Y0108763D01*
X0762722Y0108754D01*
X0762741Y0108735D01*
X0762778Y0108698D01*
X0762825Y0108651D01*
X0762881Y0108604D01*
X0762956Y0108566D01*
X0763040Y0108520D01*
X0763134Y0108482D01*
X0763153Y0108473D01*
X0763209Y0108463D01*
X0763293Y0108445D01*
X0763406Y0108426D01*
X0763537Y0108398D01*
X0763687Y0108379D01*
X0763865Y0108370D01*
X0764043Y0108360D01*
X0766432D01*
Y0107583D01*
X0761860D01*
Y0108285D01*
X0762544D01*
X0762534Y0108295D01*
X0762478Y0108332D01*
X0762394Y0108379D01*
X0762291Y0108445D01*
X0762188Y0108520D01*
X0762075Y0108604D01*
X0761982Y0108688D01*
X0761916Y0108773D01*
X0761907Y0108782D01*
X0761888Y0108810D01*
X0761869Y0108857D01*
X0761832Y0108923D01*
X0761804Y0108997D01*
X0761785Y0109082D01*
X0761766Y0109166D01*
X0761757Y0109269D01*
Y0109335D01*
X0761766Y0109410D01*
X0761785Y0109513D01*
X0761822Y0109635D01*
X0761860Y0109766D01*
X0761925Y0109916D01*
X0762010Y0110066D01*
X0762722Y0109785D01*
D02*
G37*
G36*
X0766432Y0105830D02*
X0766423Y0105821D01*
X0766386Y0105812D01*
X0766339Y0105793D01*
X0766273Y0105765D01*
X0766189Y0105737D01*
X0766086Y0105718D01*
X0765983Y0105699D01*
X0765861Y0105681D01*
X0765879Y0105662D01*
X0765917Y0105606D01*
X0765983Y0105521D01*
X0766067Y0105418D01*
X0766151Y0105287D01*
X0766236Y0105146D01*
X0766320Y0104997D01*
X0766386Y0104847D01*
X0766395Y0104828D01*
X0766404Y0104781D01*
X0766432Y0104697D01*
X0766461Y0104594D01*
X0766489Y0104462D01*
X0766507Y0104322D01*
X0766526Y0104163D01*
X0766535Y0103994D01*
Y0103919D01*
X0766526Y0103872D01*
Y0103806D01*
X0766517Y0103732D01*
X0766489Y0103563D01*
X0766442Y0103375D01*
X0766386Y0103188D01*
X0766292Y0103001D01*
X0766170Y0102832D01*
X0766151Y0102813D01*
X0766104Y0102767D01*
X0766020Y0102701D01*
X0765917Y0102635D01*
X0765776Y0102560D01*
X0765617Y0102495D01*
X0765439Y0102448D01*
X0765336Y0102438D01*
X0765233Y0102429D01*
X0765214D01*
X0765177D01*
X0765111Y0102438D01*
X0765027Y0102448D01*
X0764933Y0102467D01*
X0764830Y0102495D01*
X0764718Y0102532D01*
X0764615Y0102579D01*
X0764605Y0102588D01*
X0764568Y0102607D01*
X0764521Y0102635D01*
X0764455Y0102682D01*
X0764380Y0102738D01*
X0764305Y0102813D01*
X0764240Y0102888D01*
X0764174Y0102973D01*
X0764165Y0102982D01*
X0764146Y0103019D01*
X0764118Y0103066D01*
X0764080Y0103141D01*
X0764034Y0103226D01*
X0763996Y0103319D01*
X0763949Y0103422D01*
X0763912Y0103535D01*
Y0103544D01*
X0763903Y0103582D01*
X0763893Y0103638D01*
X0763874Y0103713D01*
X0763856Y0103806D01*
X0763837Y0103928D01*
X0763818Y0104069D01*
X0763799Y0104228D01*
Y0104237D01*
X0763790Y0104266D01*
Y0104322D01*
X0763781Y0104387D01*
X0763771Y0104462D01*
X0763753Y0104547D01*
X0763743Y0104650D01*
X0763724Y0104753D01*
X0763687Y0104987D01*
X0763640Y0105212D01*
X0763584Y0105428D01*
X0763556Y0105531D01*
X0763528Y0105615D01*
X0763518D01*
X0763499D01*
X0763443Y0105624D01*
X0763378D01*
X0763350D01*
X0763331D01*
X0763321D01*
X0763312D01*
X0763256D01*
X0763172Y0105615D01*
X0763068Y0105596D01*
X0762956Y0105568D01*
X0762844Y0105531D01*
X0762750Y0105474D01*
X0762666Y0105399D01*
X0762656Y0105390D01*
X0762619Y0105343D01*
X0762581Y0105278D01*
X0762525Y0105175D01*
X0762478Y0105053D01*
X0762431Y0104893D01*
X0762403Y0104715D01*
X0762394Y0104509D01*
Y0104425D01*
X0762403Y0104322D01*
X0762422Y0104209D01*
X0762441Y0104078D01*
X0762478Y0103938D01*
X0762525Y0103816D01*
X0762591Y0103703D01*
X0762600Y0103694D01*
X0762628Y0103657D01*
X0762675Y0103610D01*
X0762741Y0103553D01*
X0762834Y0103497D01*
X0762956Y0103432D01*
X0763097Y0103375D01*
X0763265Y0103319D01*
X0763162Y0102560D01*
X0763153D01*
X0763143Y0102570D01*
X0763078Y0102579D01*
X0762994Y0102607D01*
X0762881Y0102645D01*
X0762759Y0102691D01*
X0762628Y0102748D01*
X0762506Y0102813D01*
X0762385Y0102898D01*
X0762375Y0102907D01*
X0762338Y0102945D01*
X0762281Y0102991D01*
X0762216Y0103076D01*
X0762141Y0103169D01*
X0762066Y0103282D01*
X0761991Y0103422D01*
X0761925Y0103582D01*
Y0103591D01*
X0761916Y0103600D01*
X0761907Y0103629D01*
X0761897Y0103666D01*
X0761869Y0103760D01*
X0761841Y0103882D01*
X0761813Y0104031D01*
X0761785Y0104209D01*
X0761766Y0104406D01*
X0761757Y0104622D01*
Y0104715D01*
X0761766Y0104828D01*
X0761775Y0104959D01*
X0761794Y0105118D01*
X0761813Y0105278D01*
X0761850Y0105428D01*
X0761897Y0105577D01*
X0761907Y0105596D01*
X0761925Y0105634D01*
X0761953Y0105699D01*
X0761991Y0105784D01*
X0762047Y0105868D01*
X0762103Y0105962D01*
X0762169Y0106037D01*
X0762244Y0106112D01*
X0762253Y0106121D01*
X0762281Y0106140D01*
X0762328Y0106168D01*
X0762385Y0106205D01*
X0762460Y0106252D01*
X0762553Y0106290D01*
X0762656Y0106327D01*
X0762769Y0106355D01*
X0762778D01*
X0762806Y0106365D01*
X0762862Y0106374D01*
X0762928Y0106383D01*
X0763031D01*
X0763153Y0106393D01*
X0763303Y0106402D01*
X0763481D01*
X0764521D01*
X0764530D01*
X0764568D01*
X0764624D01*
X0764689D01*
X0764783D01*
X0764877D01*
X0765092Y0106411D01*
X0765327D01*
X0765552Y0106421D01*
X0765655Y0106430D01*
X0765748D01*
X0765823Y0106439D01*
X0765889Y0106449D01*
X0765898D01*
X0765936Y0106458D01*
X0765992Y0106468D01*
X0766057Y0106486D01*
X0766142Y0106515D01*
X0766236Y0106552D01*
X0766432Y0106636D01*
Y0105830D01*
D02*
G37*
G36*
X0766423Y0102017D02*
X0766432Y0101979D01*
X0766442Y0101914D01*
X0766451Y0101839D01*
X0766470Y0101745D01*
X0766479Y0101651D01*
X0766489Y0101445D01*
Y0101380D01*
X0766479Y0101295D01*
X0766470Y0101202D01*
X0766461Y0101099D01*
X0766432Y0100996D01*
X0766404Y0100883D01*
X0766357Y0100789D01*
X0766348Y0100780D01*
X0766329Y0100752D01*
X0766301Y0100714D01*
X0766264Y0100668D01*
X0766217Y0100611D01*
X0766151Y0100565D01*
X0766086Y0100508D01*
X0766011Y0100471D01*
X0766001D01*
X0765964Y0100452D01*
X0765908Y0100443D01*
X0765814Y0100424D01*
X0765692Y0100405D01*
X0765617Y0100396D01*
X0765533D01*
X0765439Y0100387D01*
X0765336Y0100377D01*
X0765214D01*
X0765092D01*
X0762460D01*
Y0099805D01*
X0761860D01*
Y0100377D01*
X0760735D01*
X0760267Y0101155D01*
X0761860D01*
Y0101933D01*
X0762460D01*
Y0101155D01*
X0765139D01*
X0765149D01*
X0765196D01*
X0765252D01*
X0765317Y0101164D01*
X0765458Y0101174D01*
X0765523Y0101183D01*
X0765570Y0101192D01*
X0765589Y0101202D01*
X0765626Y0101220D01*
X0765673Y0101267D01*
X0765720Y0101323D01*
X0765730Y0101342D01*
X0765739Y0101389D01*
X0765758Y0101473D01*
X0765767Y0101586D01*
Y0101680D01*
X0765758Y0101726D01*
Y0101792D01*
X0765739Y0101933D01*
X0766423Y0102036D01*
Y0102017D01*
D02*
G37*
G36*
X0764840Y0099187D02*
X0764961Y0099168D01*
X0765111Y0099131D01*
X0765271Y0099084D01*
X0765439Y0099009D01*
X0765608Y0098915D01*
X0765617D01*
X0765626Y0098906D01*
X0765683Y0098859D01*
X0765758Y0098794D01*
X0765861Y0098700D01*
X0765964Y0098587D01*
X0766086Y0098438D01*
X0766189Y0098278D01*
X0766292Y0098081D01*
Y0098072D01*
X0766301Y0098053D01*
X0766311Y0098025D01*
X0766329Y0097988D01*
X0766348Y0097941D01*
X0766367Y0097875D01*
X0766414Y0097735D01*
X0766461Y0097547D01*
X0766498Y0097351D01*
X0766526Y0097116D01*
X0766535Y0096873D01*
Y0096732D01*
X0766526Y0096657D01*
Y0096573D01*
X0766517Y0096479D01*
X0766507Y0096376D01*
X0766479Y0096151D01*
X0766432Y0095908D01*
X0766376Y0095664D01*
X0766292Y0095439D01*
Y0095430D01*
X0766282Y0095411D01*
X0766264Y0095383D01*
X0766245Y0095345D01*
X0766189Y0095242D01*
X0766104Y0095111D01*
X0766001Y0094961D01*
X0765870Y0094811D01*
X0765720Y0094661D01*
X0765542Y0094530D01*
X0765533D01*
X0765523Y0094521D01*
X0765495Y0094502D01*
X0765449Y0094483D01*
X0765402Y0094455D01*
X0765345Y0094427D01*
X0765205Y0094362D01*
X0765036Y0094305D01*
X0764849Y0094249D01*
X0764633Y0094212D01*
X0764399Y0094193D01*
X0764333Y0094980D01*
X0764343D01*
X0764352D01*
X0764408Y0094989D01*
X0764502Y0095008D01*
X0764615Y0095027D01*
X0764736Y0095064D01*
X0764868Y0095111D01*
X0764999Y0095167D01*
X0765121Y0095233D01*
X0765130Y0095242D01*
X0765167Y0095271D01*
X0765224Y0095317D01*
X0765289Y0095392D01*
X0765374Y0095477D01*
X0765449Y0095589D01*
X0765533Y0095720D01*
X0765608Y0095870D01*
Y0095880D01*
X0765617Y0095889D01*
X0765636Y0095945D01*
X0765664Y0096039D01*
X0765701Y0096151D01*
X0765739Y0096292D01*
X0765767Y0096460D01*
X0765786Y0096639D01*
X0765795Y0096835D01*
Y0096920D01*
X0765786Y0097004D01*
X0765776Y0097116D01*
X0765758Y0097247D01*
X0765739Y0097388D01*
X0765701Y0097529D01*
X0765655Y0097669D01*
X0765645Y0097688D01*
X0765626Y0097725D01*
X0765598Y0097791D01*
X0765552Y0097875D01*
X0765495Y0097960D01*
X0765430Y0098053D01*
X0765355Y0098138D01*
X0765271Y0098213D01*
X0765261Y0098222D01*
X0765224Y0098241D01*
X0765177Y0098269D01*
X0765111Y0098306D01*
X0765027Y0098344D01*
X0764933Y0098372D01*
X0764830Y0098391D01*
X0764727Y0098400D01*
X0764718D01*
X0764680D01*
X0764624Y0098391D01*
X0764549Y0098381D01*
X0764465Y0098362D01*
X0764380Y0098325D01*
X0764296Y0098288D01*
X0764212Y0098231D01*
X0764202Y0098222D01*
X0764174Y0098203D01*
X0764137Y0098156D01*
X0764080Y0098100D01*
X0764024Y0098016D01*
X0763959Y0097922D01*
X0763893Y0097800D01*
X0763837Y0097660D01*
X0763828Y0097650D01*
X0763818Y0097604D01*
X0763790Y0097538D01*
X0763781Y0097482D01*
X0763762Y0097426D01*
X0763743Y0097351D01*
X0763715Y0097276D01*
X0763687Y0097182D01*
X0763659Y0097079D01*
X0763631Y0096966D01*
X0763603Y0096835D01*
X0763565Y0096695D01*
X0763528Y0096535D01*
Y0096526D01*
X0763518Y0096498D01*
X0763509Y0096451D01*
X0763490Y0096395D01*
X0763471Y0096320D01*
X0763453Y0096245D01*
X0763397Y0096057D01*
X0763340Y0095851D01*
X0763275Y0095655D01*
X0763209Y0095467D01*
X0763172Y0095392D01*
X0763134Y0095317D01*
Y0095308D01*
X0763125Y0095299D01*
X0763087Y0095242D01*
X0763040Y0095167D01*
X0762975Y0095064D01*
X0762890Y0094952D01*
X0762787Y0094839D01*
X0762675Y0094736D01*
X0762553Y0094643D01*
X0762534Y0094633D01*
X0762488Y0094605D01*
X0762413Y0094577D01*
X0762319Y0094540D01*
X0762207Y0094493D01*
X0762066Y0094465D01*
X0761916Y0094437D01*
X0761757Y0094427D01*
X0761747D01*
X0761738D01*
X0761710D01*
X0761672D01*
X0761588Y0094446D01*
X0761466Y0094465D01*
X0761326Y0094493D01*
X0761176Y0094540D01*
X0761026Y0094605D01*
X0760867Y0094690D01*
X0760857D01*
X0760848Y0094699D01*
X0760801Y0094736D01*
X0760726Y0094802D01*
X0760632Y0094896D01*
X0760529Y0095008D01*
X0760417Y0095139D01*
X0760314Y0095299D01*
X0760229Y0095486D01*
Y0095495D01*
X0760220Y0095514D01*
X0760211Y0095542D01*
X0760192Y0095580D01*
X0760183Y0095626D01*
X0760164Y0095683D01*
X0760117Y0095823D01*
X0760079Y0096001D01*
X0760051Y0096198D01*
X0760023Y0096414D01*
X0760014Y0096639D01*
Y0096760D01*
X0760023Y0096816D01*
Y0096891D01*
X0760042Y0097060D01*
X0760070Y0097247D01*
X0760117Y0097454D01*
X0760173Y0097669D01*
X0760248Y0097875D01*
Y0097885D01*
X0760257Y0097903D01*
X0760267Y0097931D01*
X0760286Y0097969D01*
X0760342Y0098063D01*
X0760417Y0098185D01*
X0760510Y0098316D01*
X0760623Y0098456D01*
X0760754Y0098587D01*
X0760913Y0098700D01*
X0760932Y0098709D01*
X0760988Y0098747D01*
X0761082Y0098794D01*
X0761195Y0098850D01*
X0761344Y0098906D01*
X0761513Y0098953D01*
X0761700Y0099000D01*
X0761897Y0099018D01*
X0761953Y0098222D01*
X0761944D01*
X0761925D01*
X0761897Y0098213D01*
X0761860Y0098203D01*
X0761747Y0098185D01*
X0761616Y0098147D01*
X0761476Y0098081D01*
X0761326Y0098006D01*
X0761185Y0097913D01*
X0761063Y0097782D01*
X0761054Y0097763D01*
X0761017Y0097716D01*
X0760970Y0097622D01*
X0760904Y0097500D01*
X0760848Y0097351D01*
X0760801Y0097154D01*
X0760764Y0096929D01*
X0760754Y0096676D01*
Y0096554D01*
X0760764Y0096488D01*
X0760773Y0096423D01*
X0760792Y0096254D01*
X0760820Y0096076D01*
X0760876Y0095898D01*
X0760942Y0095730D01*
X0760988Y0095645D01*
X0761035Y0095580D01*
X0761045Y0095561D01*
X0761082Y0095523D01*
X0761148Y0095467D01*
X0761223Y0095411D01*
X0761326Y0095345D01*
X0761438Y0095289D01*
X0761569Y0095252D01*
X0761710Y0095233D01*
X0761729D01*
X0761766D01*
X0761832Y0095242D01*
X0761907Y0095261D01*
X0761991Y0095289D01*
X0762085Y0095336D01*
X0762178Y0095392D01*
X0762263Y0095477D01*
X0762272Y0095486D01*
X0762300Y0095533D01*
X0762319Y0095561D01*
X0762347Y0095608D01*
X0762375Y0095655D01*
X0762403Y0095720D01*
X0762441Y0095795D01*
X0762469Y0095889D01*
X0762516Y0095992D01*
X0762553Y0096104D01*
X0762591Y0096236D01*
X0762638Y0096386D01*
X0762675Y0096554D01*
X0762722Y0096732D01*
Y0096741D01*
X0762731Y0096779D01*
X0762741Y0096826D01*
X0762759Y0096901D01*
X0762778Y0096985D01*
X0762806Y0097079D01*
X0762853Y0097294D01*
X0762919Y0097519D01*
X0762984Y0097754D01*
X0763012Y0097857D01*
X0763050Y0097960D01*
X0763087Y0098053D01*
X0763115Y0098128D01*
Y0098138D01*
X0763125Y0098156D01*
X0763143Y0098185D01*
X0763162Y0098222D01*
X0763218Y0098316D01*
X0763293Y0098438D01*
X0763387Y0098569D01*
X0763490Y0098709D01*
X0763621Y0098831D01*
X0763762Y0098944D01*
X0763781Y0098953D01*
X0763828Y0098981D01*
X0763912Y0099028D01*
X0764015Y0099075D01*
X0764146Y0099121D01*
X0764296Y0099168D01*
X0764465Y0099196D01*
X0764652Y0099206D01*
X0764661D01*
X0764671D01*
X0764699D01*
X0764736D01*
X0764840Y0099187D01*
D02*
G37*
%LPC*%
G36*
X0666013Y0072739D02*
X0663855D01*
Y0070031D01*
X0665889D01*
X0665957Y0070042D01*
X0666035D01*
X0666125Y0070053D01*
X0666339Y0070076D01*
X0666564Y0070121D01*
X0666788Y0070188D01*
X0666991Y0070267D01*
X0667092Y0070323D01*
X0667170Y0070390D01*
X0667193Y0070413D01*
X0667238Y0070458D01*
X0667305Y0070537D01*
X0667384Y0070649D01*
X0667451Y0070795D01*
X0667519Y0070975D01*
X0667564Y0071177D01*
X0667586Y0071402D01*
Y0071413D01*
Y0071425D01*
Y0071481D01*
X0667575Y0071571D01*
X0667553Y0071683D01*
X0667530Y0071818D01*
X0667485Y0071953D01*
X0667418Y0072088D01*
X0667339Y0072223D01*
X0667328Y0072234D01*
X0667294Y0072279D01*
X0667249Y0072335D01*
X0667170Y0072402D01*
X0667081Y0072481D01*
X0666979Y0072560D01*
X0666845Y0072616D01*
X0666710Y0072672D01*
X0666698D01*
X0666665Y0072683D01*
X0666597Y0072695D01*
X0666496Y0072706D01*
X0666372Y0072717D01*
X0666215Y0072728D01*
X0666013Y0072739D01*
D02*
G37*
G36*
X0764981Y0280258D02*
X0764700D01*
X0764681D01*
X0764634D01*
X0764550D01*
X0764446Y0280248D01*
X0764325D01*
X0764184Y0280239D01*
X0764025Y0280230D01*
X0763866Y0280211D01*
X0763519Y0280173D01*
X0763181Y0280108D01*
X0763022Y0280061D01*
X0762872Y0280014D01*
X0762750Y0279958D01*
X0762638Y0279892D01*
X0762629D01*
X0762619Y0279873D01*
X0762554Y0279827D01*
X0762479Y0279752D01*
X0762376Y0279639D01*
X0762282Y0279508D01*
X0762207Y0279358D01*
X0762142Y0279180D01*
X0762132Y0279086D01*
X0762123Y0278983D01*
Y0278937D01*
X0762132Y0278899D01*
X0762151Y0278796D01*
X0762179Y0278674D01*
X0762235Y0278543D01*
X0762320Y0278402D01*
X0762366Y0278327D01*
X0762432Y0278262D01*
X0762498Y0278196D01*
X0762582Y0278131D01*
X0762591D01*
X0762610Y0278112D01*
X0762647Y0278093D01*
X0762694Y0278065D01*
X0762760Y0278037D01*
X0762844Y0278009D01*
X0762947Y0277971D01*
X0763060Y0277934D01*
X0763200Y0277896D01*
X0763350Y0277859D01*
X0763519Y0277831D01*
X0763716Y0277803D01*
X0763931Y0277775D01*
X0764165Y0277756D01*
X0764418Y0277747D01*
X0764700Y0277737D01*
X0764718D01*
X0764765D01*
X0764849D01*
X0764953Y0277747D01*
X0765074D01*
X0765215Y0277756D01*
X0765374Y0277765D01*
X0765543Y0277784D01*
X0765890Y0277821D01*
X0766227Y0277887D01*
X0766386Y0277924D01*
X0766536Y0277971D01*
X0766658Y0278028D01*
X0766770Y0278093D01*
X0766780D01*
X0766789Y0278112D01*
X0766845Y0278159D01*
X0766929Y0278234D01*
X0767023Y0278346D01*
X0767117Y0278477D01*
X0767201Y0278627D01*
X0767257Y0278805D01*
X0767267Y0278899D01*
X0767276Y0278993D01*
Y0279049D01*
X0767267Y0279086D01*
X0767248Y0279180D01*
X0767211Y0279302D01*
X0767154Y0279452D01*
X0767061Y0279602D01*
X0767004Y0279677D01*
X0766939Y0279752D01*
X0766855Y0279827D01*
X0766770Y0279892D01*
X0766761D01*
X0766742Y0279911D01*
X0766714Y0279930D01*
X0766667Y0279948D01*
X0766602Y0279977D01*
X0766527Y0280005D01*
X0766433Y0280042D01*
X0766321Y0280080D01*
X0766189Y0280108D01*
X0766039Y0280145D01*
X0765871Y0280173D01*
X0765683Y0280201D01*
X0765468Y0280220D01*
X0765234Y0280239D01*
X0764981Y0280258D01*
D02*
G37*
G36*
X0763603Y0200767D02*
X0763321D01*
X0763303D01*
X0763256D01*
X0763172D01*
X0763068Y0200758D01*
X0762947D01*
X0762806Y0200748D01*
X0762647Y0200739D01*
X0762488Y0200720D01*
X0762141Y0200683D01*
X0761804Y0200617D01*
X0761644Y0200571D01*
X0761494Y0200524D01*
X0761373Y0200467D01*
X0761260Y0200402D01*
X0761251D01*
X0761241Y0200383D01*
X0761176Y0200336D01*
X0761101Y0200261D01*
X0760998Y0200149D01*
X0760904Y0200018D01*
X0760829Y0199868D01*
X0760764Y0199690D01*
X0760754Y0199596D01*
X0760745Y0199493D01*
Y0199446D01*
X0760754Y0199409D01*
X0760773Y0199306D01*
X0760801Y0199184D01*
X0760857Y0199053D01*
X0760942Y0198912D01*
X0760988Y0198837D01*
X0761054Y0198772D01*
X0761120Y0198706D01*
X0761204Y0198640D01*
X0761213D01*
X0761232Y0198622D01*
X0761270Y0198603D01*
X0761316Y0198575D01*
X0761382Y0198547D01*
X0761466Y0198519D01*
X0761569Y0198481D01*
X0761682Y0198443D01*
X0761822Y0198406D01*
X0761972Y0198369D01*
X0762141Y0198340D01*
X0762338Y0198312D01*
X0762553Y0198284D01*
X0762787Y0198266D01*
X0763040Y0198256D01*
X0763321Y0198247D01*
X0763340D01*
X0763387D01*
X0763471D01*
X0763575Y0198256D01*
X0763696D01*
X0763837Y0198266D01*
X0763996Y0198275D01*
X0764165Y0198294D01*
X0764511Y0198331D01*
X0764849Y0198397D01*
X0765008Y0198434D01*
X0765158Y0198481D01*
X0765280Y0198537D01*
X0765392Y0198603D01*
X0765402D01*
X0765411Y0198622D01*
X0765467Y0198668D01*
X0765552Y0198743D01*
X0765645Y0198856D01*
X0765739Y0198987D01*
X0765823Y0199137D01*
X0765879Y0199315D01*
X0765889Y0199409D01*
X0765898Y0199502D01*
Y0199558D01*
X0765889Y0199596D01*
X0765870Y0199690D01*
X0765833Y0199811D01*
X0765776Y0199961D01*
X0765683Y0200111D01*
X0765626Y0200186D01*
X0765561Y0200261D01*
X0765477Y0200336D01*
X0765392Y0200402D01*
X0765383D01*
X0765364Y0200421D01*
X0765336Y0200439D01*
X0765289Y0200458D01*
X0765224Y0200486D01*
X0765149Y0200514D01*
X0765055Y0200552D01*
X0764943Y0200589D01*
X0764811Y0200617D01*
X0764661Y0200655D01*
X0764493Y0200683D01*
X0764305Y0200711D01*
X0764090Y0200730D01*
X0763856Y0200748D01*
X0763603Y0200767D01*
D02*
G37*
G36*
X0763837Y0173116D02*
X0762103Y0172460D01*
X0762094D01*
X0762066Y0172451D01*
X0762028Y0172432D01*
X0761972Y0172414D01*
X0761907Y0172386D01*
X0761822Y0172357D01*
X0761635Y0172292D01*
X0761429Y0172217D01*
X0761213Y0172142D01*
X0760988Y0172076D01*
X0760782Y0172011D01*
X0760792D01*
X0760810Y0172001D01*
X0760839D01*
X0760885Y0171992D01*
X0760942Y0171973D01*
X0761007Y0171964D01*
X0761166Y0171926D01*
X0761344Y0171870D01*
X0761551Y0171814D01*
X0761766Y0171748D01*
X0761991Y0171664D01*
X0763837Y0170980D01*
Y0173116D01*
D02*
G37*
G36*
X0763237Y0159043D02*
X0763228D01*
X0763190D01*
X0763143D01*
X0763078Y0159033D01*
X0762994D01*
X0762890Y0159024D01*
X0762787Y0159015D01*
X0762675Y0159005D01*
X0762431Y0158958D01*
X0762178Y0158902D01*
X0761935Y0158827D01*
X0761822Y0158771D01*
X0761719Y0158715D01*
X0761710D01*
X0761691Y0158696D01*
X0761672Y0158677D01*
X0761635Y0158659D01*
X0761541Y0158583D01*
X0761429Y0158490D01*
X0761307Y0158377D01*
X0761185Y0158246D01*
X0761082Y0158096D01*
X0760998Y0157928D01*
X0760988Y0157909D01*
X0760979Y0157862D01*
X0760960Y0157778D01*
X0760932Y0157665D01*
X0760904Y0157515D01*
X0760885Y0157328D01*
X0760876Y0157112D01*
X0760867Y0156981D01*
Y0155529D01*
X0765692D01*
Y0156972D01*
X0765683Y0157084D01*
X0765673Y0157225D01*
X0765664Y0157375D01*
X0765645Y0157544D01*
X0765617Y0157703D01*
X0765580Y0157843D01*
X0765570Y0157862D01*
X0765561Y0157899D01*
X0765533Y0157965D01*
X0765495Y0158049D01*
X0765449Y0158143D01*
X0765392Y0158237D01*
X0765327Y0158331D01*
X0765252Y0158415D01*
X0765233Y0158424D01*
X0765196Y0158462D01*
X0765130Y0158518D01*
X0765036Y0158583D01*
X0764924Y0158659D01*
X0764793Y0158733D01*
X0764633Y0158808D01*
X0764455Y0158874D01*
X0764446D01*
X0764427Y0158883D01*
X0764399Y0158893D01*
X0764362Y0158902D01*
X0764315Y0158912D01*
X0764258Y0158930D01*
X0764109Y0158958D01*
X0763931Y0158986D01*
X0763724Y0159015D01*
X0763490Y0159033D01*
X0763237Y0159043D01*
D02*
G37*
G36*
X0763603Y0144969D02*
X0763321D01*
X0763303D01*
X0763256D01*
X0763172D01*
X0763068Y0144960D01*
X0762947D01*
X0762806Y0144950D01*
X0762647Y0144941D01*
X0762488Y0144922D01*
X0762141Y0144885D01*
X0761804Y0144819D01*
X0761644Y0144772D01*
X0761494Y0144725D01*
X0761373Y0144669D01*
X0761260Y0144604D01*
X0761251D01*
X0761241Y0144585D01*
X0761176Y0144538D01*
X0761101Y0144463D01*
X0760998Y0144351D01*
X0760904Y0144219D01*
X0760829Y0144069D01*
X0760764Y0143891D01*
X0760754Y0143798D01*
X0760745Y0143695D01*
Y0143648D01*
X0760754Y0143610D01*
X0760773Y0143507D01*
X0760801Y0143385D01*
X0760857Y0143254D01*
X0760942Y0143114D01*
X0760988Y0143039D01*
X0761054Y0142973D01*
X0761120Y0142908D01*
X0761204Y0142842D01*
X0761213D01*
X0761232Y0142823D01*
X0761270Y0142805D01*
X0761316Y0142776D01*
X0761382Y0142748D01*
X0761466Y0142720D01*
X0761569Y0142683D01*
X0761682Y0142645D01*
X0761822Y0142608D01*
X0761972Y0142570D01*
X0762141Y0142542D01*
X0762338Y0142514D01*
X0762553Y0142486D01*
X0762787Y0142467D01*
X0763040Y0142458D01*
X0763321Y0142448D01*
X0763340D01*
X0763387D01*
X0763471D01*
X0763575Y0142458D01*
X0763696D01*
X0763837Y0142467D01*
X0763996Y0142476D01*
X0764165Y0142495D01*
X0764511Y0142533D01*
X0764849Y0142598D01*
X0765008Y0142636D01*
X0765158Y0142683D01*
X0765280Y0142739D01*
X0765392Y0142805D01*
X0765402D01*
X0765411Y0142823D01*
X0765467Y0142870D01*
X0765552Y0142945D01*
X0765645Y0143057D01*
X0765739Y0143189D01*
X0765823Y0143339D01*
X0765879Y0143517D01*
X0765889Y0143610D01*
X0765898Y0143704D01*
Y0143760D01*
X0765889Y0143798D01*
X0765870Y0143891D01*
X0765833Y0144013D01*
X0765776Y0144163D01*
X0765683Y0144313D01*
X0765626Y0144388D01*
X0765561Y0144463D01*
X0765477Y0144538D01*
X0765392Y0144604D01*
X0765383D01*
X0765364Y0144622D01*
X0765336Y0144641D01*
X0765289Y0144660D01*
X0765224Y0144688D01*
X0765149Y0144716D01*
X0765055Y0144753D01*
X0764943Y0144791D01*
X0764811Y0144819D01*
X0764661Y0144857D01*
X0764493Y0144885D01*
X0764305Y0144913D01*
X0764090Y0144931D01*
X0763856Y0144950D01*
X0763603Y0144969D01*
D02*
G37*
G36*
X0764212Y0134334D02*
X0761391D01*
X0764212Y0132348D01*
Y0134334D01*
D02*
G37*
G36*
X0763706Y0127859D02*
X0763696D01*
X0763678D01*
X0763650Y0127850D01*
X0763612D01*
X0763509Y0127831D01*
X0763387Y0127803D01*
X0763247Y0127766D01*
X0763097Y0127709D01*
X0762965Y0127644D01*
X0762844Y0127559D01*
X0762834D01*
X0762825Y0127541D01*
X0762769Y0127494D01*
X0762703Y0127410D01*
X0762619Y0127306D01*
X0762534Y0127166D01*
X0762460Y0127007D01*
X0762413Y0126819D01*
X0762403Y0126716D01*
X0762394Y0126604D01*
Y0126548D01*
X0762403Y0126510D01*
X0762413Y0126416D01*
X0762441Y0126285D01*
X0762478Y0126145D01*
X0762544Y0125995D01*
X0762638Y0125835D01*
X0762759Y0125695D01*
X0762778Y0125676D01*
X0762825Y0125639D01*
X0762900Y0125582D01*
X0763012Y0125517D01*
X0763143Y0125442D01*
X0763312Y0125376D01*
X0763499Y0125329D01*
X0763706Y0125301D01*
Y0127859D01*
D02*
G37*
G36*
X0764427Y0120298D02*
X0764137D01*
Y0120288D01*
X0764146Y0120279D01*
X0764155Y0120251D01*
X0764165Y0120213D01*
X0764184Y0120176D01*
X0764202Y0120120D01*
X0764221Y0120054D01*
X0764240Y0119979D01*
X0764268Y0119895D01*
X0764287Y0119801D01*
X0764315Y0119689D01*
X0764333Y0119576D01*
X0764362Y0119454D01*
X0764390Y0119323D01*
X0764408Y0119173D01*
X0764436Y0119023D01*
Y0119005D01*
X0764446Y0118948D01*
X0764465Y0118864D01*
X0764483Y0118761D01*
X0764530Y0118536D01*
X0764558Y0118433D01*
X0764586Y0118349D01*
Y0118339D01*
X0764605Y0118321D01*
X0764624Y0118283D01*
X0764652Y0118236D01*
X0764727Y0118133D01*
X0764840Y0118040D01*
X0764849D01*
X0764868Y0118021D01*
X0764905Y0118011D01*
X0764952Y0117993D01*
X0765064Y0117955D01*
X0765130Y0117946D01*
X0765205Y0117937D01*
X0765214D01*
X0765252D01*
X0765317Y0117946D01*
X0765383Y0117965D01*
X0765467Y0117993D01*
X0765552Y0118040D01*
X0765636Y0118096D01*
X0765720Y0118171D01*
X0765730Y0118180D01*
X0765748Y0118218D01*
X0765786Y0118264D01*
X0765823Y0118349D01*
X0765861Y0118442D01*
X0765898Y0118555D01*
X0765917Y0118695D01*
X0765926Y0118855D01*
Y0118930D01*
X0765917Y0119014D01*
X0765898Y0119126D01*
X0765879Y0119248D01*
X0765851Y0119379D01*
X0765805Y0119520D01*
X0765739Y0119651D01*
X0765730Y0119670D01*
X0765701Y0119707D01*
X0765655Y0119773D01*
X0765598Y0119848D01*
X0765523Y0119932D01*
X0765430Y0120026D01*
X0765317Y0120101D01*
X0765196Y0120176D01*
X0765186Y0120185D01*
X0765149Y0120195D01*
X0765083Y0120213D01*
X0764999Y0120241D01*
X0764896Y0120260D01*
X0764764Y0120279D01*
X0764605Y0120288D01*
X0764427Y0120298D01*
D02*
G37*
G36*
Y0105615D02*
X0764137D01*
Y0105606D01*
X0764146Y0105596D01*
X0764155Y0105568D01*
X0764165Y0105531D01*
X0764184Y0105493D01*
X0764202Y0105437D01*
X0764221Y0105371D01*
X0764240Y0105296D01*
X0764268Y0105212D01*
X0764287Y0105118D01*
X0764315Y0105006D01*
X0764333Y0104893D01*
X0764362Y0104772D01*
X0764390Y0104640D01*
X0764408Y0104490D01*
X0764436Y0104341D01*
Y0104322D01*
X0764446Y0104266D01*
X0764465Y0104181D01*
X0764483Y0104078D01*
X0764530Y0103853D01*
X0764558Y0103750D01*
X0764586Y0103666D01*
Y0103657D01*
X0764605Y0103638D01*
X0764624Y0103600D01*
X0764652Y0103553D01*
X0764727Y0103451D01*
X0764840Y0103357D01*
X0764849D01*
X0764868Y0103338D01*
X0764905Y0103329D01*
X0764952Y0103310D01*
X0765064Y0103272D01*
X0765130Y0103263D01*
X0765205Y0103254D01*
X0765214D01*
X0765252D01*
X0765317Y0103263D01*
X0765383Y0103282D01*
X0765467Y0103310D01*
X0765552Y0103357D01*
X0765636Y0103413D01*
X0765720Y0103488D01*
X0765730Y0103497D01*
X0765748Y0103535D01*
X0765786Y0103582D01*
X0765823Y0103666D01*
X0765861Y0103760D01*
X0765898Y0103872D01*
X0765917Y0104013D01*
X0765926Y0104172D01*
Y0104247D01*
X0765917Y0104331D01*
X0765898Y0104444D01*
X0765879Y0104566D01*
X0765851Y0104697D01*
X0765805Y0104837D01*
X0765739Y0104968D01*
X0765730Y0104987D01*
X0765701Y0105025D01*
X0765655Y0105090D01*
X0765598Y0105165D01*
X0765523Y0105250D01*
X0765430Y0105343D01*
X0765317Y0105418D01*
X0765196Y0105493D01*
X0765186Y0105502D01*
X0765149Y0105512D01*
X0765083Y0105531D01*
X0764999Y0105559D01*
X0764896Y0105577D01*
X0764764Y0105596D01*
X0764605Y0105606D01*
X0764427Y0105615D01*
D02*
G37*
%LPD*%
D10*
X0463484Y0148130D02*
G03*
X0463484Y0148130I-0041339J0000000D01*
G01*
X0508760D02*
G03*
X0508760Y0148130I-0086614J0000000D01*
G01*
X0245079Y0148425D02*
G03*
X0245079Y0148425I-0041339J0000000D01*
G01*
X0290354D02*
G03*
X0290354Y0148425I-0086614J0000000D01*
G01*
X0653466Y0112795D02*
G03*
X0653466Y0112795I-0011438J0000000D01*
G01*
X0708720Y0193917D02*
X0711988D01*
X0708720Y0225098D02*
X0711988D01*
X0724882Y0079429D02*
Y0082697D01*
X0693701Y0079429D02*
Y0082697D01*
X0681968Y0079508D02*
Y0082776D01*
X0650787Y0079508D02*
Y0082776D01*
D11*
X0142002Y0337185D02*
G03*
X0142002Y0337185I-0003400J0000000D01*
G01*
X0144837Y0314665D02*
G03*
X0144837Y0314665I-0003400J0000000D01*
G01*
X0152809Y0314862D02*
G03*
X0152809Y0314862I-0003400J0000000D01*
G01*
X0368459Y0302559D02*
G03*
X0368459Y0302559I-0003400J0000000D01*
G01*
X0361471D02*
G03*
X0361471Y0302559I-0003400J0000000D01*
G01*
X0350349Y0302854D02*
G03*
X0350349Y0302854I-0003400J0000000D01*
G01*
X0110551Y0253583D02*
Y0266181D01*
X0107402Y0253583D02*
Y0266181D01*
X0110827Y0272224D02*
Y0284823D01*
X0107677Y0272224D02*
Y0284823D01*
X0417587Y0400012D02*
X0421587D01*
X0421587Y0389382D01*
X0417587D02*
X0421587D01*
X0417587D02*
Y0400012D01*
X0372731Y0295668D02*
X0377859D01*
X0372731Y0294490D02*
X0377859D01*
X0145566Y0307085D02*
X0150694D01*
X0145566Y0305907D02*
X0150694D01*
X0636122Y0158071D02*
X0655807D01*
X0636122Y0106890D02*
Y0158071D01*
X0655807D02*
X0655807Y0106890D01*
X0636122Y0106890D02*
X0655807Y0106890D01*
X0645965Y0146260D02*
X0645965Y0133465D01*
Y0118701D02*
Y0131496D01*
X0638091Y0133465D02*
X0653839Y0133465D01*
X0638091Y0131496D02*
X0653839Y0131496D01*
X0692815Y0106791D02*
X0712500Y0106791D01*
X0712500Y0157972D01*
X0692815Y0106791D02*
Y0157973D01*
X0712500Y0157972D01*
X0702658Y0118602D02*
Y0131398D01*
X0702658Y0133366D02*
X0702658Y0146161D01*
X0694783Y0131398D02*
X0710532Y0131398D01*
X0694783Y0133366D02*
X0710532Y0133366D01*
D12*
X0410827Y0290059D02*
G03*
X0410827Y0290059I-0000492J0000000D01*
G01*
X0410925Y0441339D02*
G03*
X0410925Y0441339I-0000492J0000000D01*
G01*
X0423524Y0377854D02*
G03*
X0423524Y0377854I-0000492J0000000D01*
G01*
X0421122Y0414370D02*
G03*
X0421122Y0414370I-0000492J0000000D01*
G01*
X0380413Y0289862D02*
G03*
X0380413Y0289862I-0000492J0000000D01*
G01*
X0152854Y0298819D02*
G03*
X0152854Y0298819I-0000492J0000000D01*
G01*
X0177165Y0298425D02*
G03*
X0177165Y0298425I-0000492J0000000D01*
G01*
X0647264Y0238090D02*
G03*
X0647264Y0238090I-0000492J0000000D01*
G01*
X0647264Y0211319D02*
G03*
X0647264Y0211319I-0000492J0000000D01*
G01*
D13*
X0098110Y0452362D02*
G03*
X0098110Y0452362I-0005000J0000000D01*
G01*
X0097913Y0435138D02*
G03*
X0097913Y0435138I-0005000J0000000D01*
G01*
X0276654Y0526378D02*
G03*
X0276654Y0526378I-0005000J0000000D01*
G01*
X0379724Y0223622D02*
Y0259055D01*
X0328543Y0223622D02*
Y0259055D01*
Y0223622D02*
X0379724D01*
X0328543Y0259055D02*
X0379724D01*
X0248499Y0224582D02*
X0253370Y0229454D01*
X0252535Y0220546D02*
X0257407Y0225418D01*
X0320433Y0261122D02*
X0328504D01*
X0100394Y0349705D02*
Y0515059D01*
X0238189D01*
Y0349705D02*
Y0515059D01*
X0100394Y0349705D02*
X0238189D01*
X0418504Y0402461D02*
X0420866D01*
X0418504Y0407382D02*
X0420866D01*
X0161752Y0322264D02*
X0177697D01*
X0161752D02*
Y0335256D01*
X0177697D01*
Y0322264D02*
Y0335256D01*
X0758543Y0191398D02*
X0758543Y0166791D01*
X0749882Y0191398D02*
X0758543Y0191398D01*
X0749882Y0166791D02*
X0758543D01*
X0729409Y0191398D02*
X0738071Y0191398D01*
X0729410Y0166791D02*
X0738071Y0166791D01*
X0729409Y0191398D02*
X0729410Y0166791D01*
X0758642Y0230669D02*
Y0255276D01*
X0749980Y0255276D02*
X0758642Y0255276D01*
X0749980Y0230669D02*
X0758642Y0230669D01*
X0729508Y0255276D02*
X0738169Y0255276D01*
X0729508Y0230669D02*
X0738169Y0230669D01*
X0729508Y0230669D02*
X0729508Y0255276D01*
X0541535Y0342421D02*
X0551378D01*
X0541535Y0322342D02*
X0551378D01*
X0491929Y0352854D02*
Y0423721D01*
X0491906Y0352832D02*
X0491929Y0352854D01*
X0440889Y0352832D02*
X0491906D01*
X0440748Y0423721D02*
X0491929Y0423721D01*
X0440748Y0423721D02*
X0440748Y0352854D01*
X0239332Y0496161D02*
X0239332Y0516221D01*
Y0516221D02*
X0355020Y0516221D01*
X0239332Y0496161D02*
X0239332Y0348524D01*
X0320669Y0348603D02*
X0410236Y0348603D01*
X0355020Y0516221D02*
X0410236D01*
X0410236Y0505788D02*
X0410236Y0516221D01*
X0410236Y0505788D02*
X0410236Y0348603D01*
X0240748Y0348524D02*
X0320631D01*
X0506299Y0224665D02*
X0586929Y0224665D01*
X0586929Y0183721D02*
X0586929Y0224665D01*
X0506299Y0224665D02*
X0506299Y0183721D01*
X0586929Y0183721D01*
X0425098Y0302854D02*
X0428839D01*
Y0292618D02*
Y0302854D01*
X0410728D02*
X0414468D01*
X0410728Y0292618D02*
Y0302854D01*
X0590453Y0203937D02*
X0592815D01*
X0414862Y0478543D02*
X0414862Y0482480D01*
X0421161Y0478543D02*
Y0482480D01*
X0414862Y0499705D02*
X0414862Y0495768D01*
X0421161Y0499705D02*
X0421161Y0495768D01*
X0414764Y0461417D02*
Y0465354D01*
X0421063Y0461417D02*
Y0465354D01*
X0420472Y0449213D02*
X0423524D01*
X0423524Y0445276D02*
X0423524Y0449213D01*
X0411713Y0449213D02*
X0414764D01*
X0411713Y0445276D02*
X0411713Y0449213D01*
X0416831Y0379626D02*
X0419736Y0379626D01*
X0416831Y0379626D02*
Y0381004D01*
X0416831Y0388287D02*
X0419736D01*
X0416831D02*
X0416831Y0386909D01*
X0414134Y0416102D02*
X0417343Y0416102D01*
X0414134Y0416102D02*
Y0418701D01*
Y0427598D02*
X0417343Y0427598D01*
X0414134Y0425000D02*
Y0427598D01*
X0373425Y0336614D02*
X0373425Y0323622D01*
X0357480Y0336614D02*
X0373425D01*
X0357480Y0323622D02*
X0357480Y0336614D01*
X0357480Y0323622D02*
X0373425D01*
X0394094Y0302658D02*
X0398031D01*
Y0292421D02*
Y0302658D01*
X0379921D02*
X0383858D01*
X0379921Y0292421D02*
Y0302658D01*
X0166535Y0311614D02*
X0170472D01*
Y0301378D02*
Y0311614D01*
X0152362D02*
X0156299D01*
X0152362Y0301378D02*
Y0311614D01*
X0177067Y0300984D02*
Y0311221D01*
X0180807D01*
X0195177Y0300984D02*
X0195177Y0311221D01*
X0191437D02*
X0195177D01*
X0690158Y0140059D02*
X0690158Y0115453D01*
X0658661Y0115390D02*
X0690158Y0115390D01*
X0658661Y0140059D02*
X0658661Y0115390D01*
Y0140122D02*
X0674409D01*
X0674409Y0115354D02*
X0674409Y0109189D01*
X0674409Y0140122D02*
X0690158Y0140122D01*
X0674378Y0146304D02*
X0674378Y0140157D01*
X0628071Y0240650D02*
X0695000Y0240650D01*
X0628071Y0262697D02*
X0695000Y0262697D01*
X0695000Y0240650D02*
X0695000Y0262697D01*
X0628071Y0240650D02*
X0628071Y0262697D01*
X0628071Y0213878D02*
X0628071Y0235925D01*
X0695000Y0213878D02*
X0695000Y0235925D01*
X0628071Y0235925D02*
X0695000Y0235925D01*
X0628071Y0213878D02*
X0695000Y0213878D01*
X0534842Y0456693D02*
Y0467913D01*
X0440650Y0432087D02*
X0440650Y0502953D01*
X0491831Y0502953D01*
X0440790Y0432064D02*
X0491808D01*
X0491831Y0432087D01*
X0491831Y0502953D02*
X0491831Y0432087D01*
X0146260Y0258957D02*
X0150787D01*
X0146260Y0230610D02*
X0150787D01*
X0125984Y0258957D02*
X0130512D01*
X0125984Y0230610D02*
X0130512D01*
X0150787D02*
Y0258957D01*
X0125984Y0230610D02*
Y0258957D01*
X0140650Y0287996D02*
Y0288579D01*
X0137501Y0287996D02*
Y0288579D01*
X0137500Y0298232D02*
Y0298815D01*
X0140649Y0298232D02*
Y0298815D01*
X0210335Y0287996D02*
Y0288579D01*
X0207186Y0287996D02*
Y0288579D01*
X0284744Y0287996D02*
Y0288579D01*
X0281595Y0287996D02*
Y0288579D01*
X0281594Y0298232D02*
Y0298815D01*
X0284743Y0298232D02*
Y0298815D01*
X0207185Y0298232D02*
Y0298815D01*
X0210334Y0298232D02*
Y0298815D01*
X0530315Y0172835D02*
X0530315Y0101969D01*
X0510630Y0172835D02*
X0530315Y0172835D01*
X0510630Y0172835D02*
X0510630Y0101969D01*
X0530315Y0101969D01*
X0608366Y0106398D02*
X0628051Y0106398D01*
X0608366Y0177264D02*
X0608366Y0106398D01*
X0608366Y0177264D02*
X0628051Y0177264D01*
X0628051Y0106398D01*
X0351181Y0298232D02*
Y0298815D01*
X0354330Y0298232D02*
Y0298815D01*
X0354331Y0287996D02*
Y0288579D01*
X0351182Y0287996D02*
Y0288579D01*
D14*
X0136909Y0285531D02*
G03*
X0136909Y0285531I-0000197J0000000D01*
G01*
X0141634Y0301279D02*
G03*
X0141634Y0301279I-0000197J0000000D01*
G01*
X0206594Y0285531D02*
G03*
X0206594Y0285531I-0000197J0000000D01*
G01*
X0281004D02*
G03*
X0281004Y0285531I-0000197J0000000D01*
G01*
X0285728Y0301279D02*
G03*
X0285728Y0301279I-0000197J0000000D01*
G01*
X0211319D02*
G03*
X0211319Y0301279I-0000197J0000000D01*
G01*
X0572383Y0123303D02*
G03*
X0567659Y0123303I-0002362J0000000D01*
G01*
X0567659D02*
G03*
X0562934Y0123303I-0002362J0000000D01*
G01*
X0562934D02*
G03*
X0558210Y0123303I-0002362J0000000D01*
G01*
X0567618Y0151146D02*
G03*
X0572342Y0151146I0002362J0000000D01*
G01*
X0562894D02*
G03*
X0567618Y0151146I0002362J0000000D01*
G01*
X0558169D02*
G03*
X0562894Y0151146I0002362J0000000D01*
G01*
X0355315Y0301279D02*
G03*
X0355315Y0301279I-0000197J0000000D01*
G01*
X0350591Y0285531D02*
G03*
X0350591Y0285531I-0000197J0000000D01*
G01*
X0636831Y0167303D02*
X0696831D01*
X0636831D02*
Y0202736D01*
X0696831D01*
Y0167303D02*
Y0202736D01*
X0553079Y0145303D02*
Y0150606D01*
X0553018Y0123425D02*
Y0129303D01*
X0552160Y0147850D02*
X0553079Y0150606D01*
X0553997Y0147850D01*
X0552100Y0126181D02*
X0553018Y0123425D01*
X0553937Y0126181D01*
X0540453Y0094980D02*
Y0179626D01*
X0558366Y0126354D02*
X0572146Y0126354D01*
X0548327Y0123303D02*
X0558210D01*
X0572383D02*
X0581791D01*
X0548327Y0151146D02*
X0558169D01*
X0572342D02*
X0581791D01*
X0540453Y0179626D02*
X0589665D01*
X0540453Y0094980D02*
X0589665D01*
Y0179626D01*
X0558382Y0126354D02*
Y0148094D01*
X0572146D01*
X0541437Y0162303D02*
X0544193Y0161384D01*
X0541437Y0162303D02*
X0544193Y0163222D01*
X0541437Y0162303D02*
X0553248D01*
X0585925Y0161321D02*
X0588681Y0162240D01*
X0585925Y0163159D02*
X0588681Y0162240D01*
X0576870D02*
X0588681D01*
X0551804Y0130303D02*
Y0132140D01*
X0552263D01*
X0554100Y0130303D01*
X0554559D01*
Y0136732D02*
X0553641Y0135813D01*
X0552722D01*
X0551804Y0136732D01*
X0554559Y0138109D02*
X0552722D01*
Y0138568D01*
X0553182Y0139027D01*
X0554559D01*
X0553182D01*
X0552722Y0139487D01*
X0553182Y0139946D01*
X0554559D01*
Y0140864D02*
X0552722D01*
Y0141323D01*
X0553182Y0141782D01*
X0554559D01*
X0553182D01*
X0552722Y0142242D01*
X0553182Y0142701D01*
X0554559D01*
Y0143619D02*
X0553641Y0144537D01*
X0552722D01*
X0551804Y0143619D01*
X0536559Y0154303D02*
X0537477D01*
X0537018D01*
Y0157058D01*
X0536559Y0156599D01*
X0553183Y0185239D02*
X0550559D01*
Y0183271D01*
X0551871D01*
X0550559D01*
Y0181303D01*
X0557119Y0185239D02*
X0554495D01*
Y0181303D01*
X0557119D01*
X0554495Y0183271D02*
X0555807D01*
X0558430Y0181303D02*
Y0185239D01*
X0560398D01*
X0561054Y0184583D01*
Y0183271D01*
X0560398Y0182615D01*
X0558430D01*
X0559742D02*
X0561054Y0181303D01*
X0562366Y0185239D02*
Y0184583D01*
X0563678Y0183271D01*
X0564990Y0184583D01*
Y0185239D01*
X0563678Y0183271D02*
Y0181303D01*
X0568926Y0184583D02*
X0568270Y0185239D01*
X0566958D01*
X0566302Y0184583D01*
Y0183927D01*
X0566958Y0183271D01*
X0568270D01*
X0568926Y0182615D01*
Y0181959D01*
X0568270Y0181303D01*
X0566958D01*
X0566302Y0181959D01*
X0570238Y0185239D02*
X0572862D01*
X0571550D01*
Y0181303D01*
X0576797Y0185239D02*
X0574173D01*
Y0181303D01*
X0576797D01*
X0574173Y0183271D02*
X0575485D01*
X0578109Y0181303D02*
Y0185239D01*
X0580077D01*
X0580733Y0184583D01*
Y0183271D01*
X0580077Y0182615D01*
X0578109D01*
X0579421D02*
X0580733Y0181303D01*
X0550059Y0093239D02*
Y0089303D01*
X0552027D01*
X0552683Y0089959D01*
Y0092583D01*
X0552027Y0093239D01*
X0550059D01*
X0553995D02*
X0556619D01*
X0555307D01*
Y0089303D01*
X0560554Y0092583D02*
X0559898Y0093239D01*
X0558587D01*
X0557931Y0092583D01*
Y0091927D01*
X0558587Y0091271D01*
X0559898D01*
X0560554Y0090615D01*
Y0089959D01*
X0559898Y0089303D01*
X0558587D01*
X0557931Y0089959D01*
X0561866Y0091271D02*
X0564490D01*
X0568426Y0089303D02*
X0565802D01*
X0568426Y0091927D01*
Y0092583D01*
X0567770Y0093239D01*
X0566458D01*
X0565802Y0092583D01*
X0569738D02*
X0570394Y0093239D01*
X0571706D01*
X0572362Y0092583D01*
Y0089959D01*
X0571706Y0089303D01*
X0570394D01*
X0569738Y0089959D01*
Y0092583D01*
X0573673Y0091271D02*
X0576297D01*
X0577609Y0093239D02*
Y0090615D01*
X0578921Y0089303D01*
X0580233Y0090615D01*
Y0093239D01*
X0556070Y0126354D02*
X0557907Y0124518D01*
Y0126354D02*
X0556070Y0124518D01*
X0556989Y0126354D02*
Y0124518D01*
X0557907Y0125436D02*
X0556070D01*
X0556070Y0148094D02*
X0557907Y0149931D01*
Y0148094D02*
X0556070Y0149931D01*
X0556989Y0148094D02*
Y0149931D01*
X0557907Y0149013D02*
X0556070D01*
X0537896Y0117303D02*
X0536059D01*
X0537896Y0119140D01*
Y0119599D01*
X0537437Y0120058D01*
X0536518D01*
X0536059Y0119599D01*
X0593937Y0154303D02*
Y0157058D01*
X0592559Y0155681D01*
X0594396D01*
X0592559Y0119599D02*
X0593018Y0120058D01*
X0593937D01*
X0594396Y0119599D01*
Y0119140D01*
X0593937Y0118681D01*
X0593477D01*
X0593937D01*
X0594396Y0118221D01*
Y0117762D01*
X0593937Y0117303D01*
X0593018D01*
X0592559Y0117762D01*
X0557559Y0161303D02*
X0558477D01*
X0558018D01*
Y0164058D01*
X0557559Y0163599D01*
X0561692Y0161303D02*
X0559855D01*
X0561692Y0163140D01*
Y0163599D01*
X0561232Y0164058D01*
X0560314D01*
X0559855Y0163599D01*
X0566283Y0161303D02*
X0565365Y0162222D01*
Y0163140D01*
X0566283Y0164058D01*
X0567661Y0161303D02*
Y0163140D01*
X0568120D01*
X0568579Y0162681D01*
Y0161303D01*
Y0162681D01*
X0569038Y0163140D01*
X0569497Y0162681D01*
Y0161303D01*
X0570416D02*
Y0163140D01*
X0570875D01*
X0571334Y0162681D01*
Y0161303D01*
Y0162681D01*
X0571793Y0163140D01*
X0572253Y0162681D01*
Y0161303D01*
X0573171D02*
X0574089Y0162222D01*
Y0163140D01*
X0573171Y0164058D01*
D15*
X0416800Y0145406D02*
X0427937Y0151081D01*
X0419422Y0153476D02*
X0424870Y0142784D01*
X0203740Y0142425D02*
X0203740Y0154925D01*
X0197740Y0148425D02*
X0209740Y0148425D01*
X0550039Y0519969D02*
X0771039Y0519969D01*
X0771039Y0344469D01*
X0550039Y0344469D02*
X0771039Y0344469D01*
X0550039Y0519969D02*
X0550039Y0344469D01*
X0410649Y0398463D02*
X0410630Y0398444D01*
X0410649Y0398425D01*
X0410667Y0398444D01*
X0410649Y0398463D01*
D16*
X0328504Y0216634D02*
Y0261122D01*
X0257638D02*
X0328504Y0261122D01*
X0257638Y0216634D02*
Y0261122D01*
Y0216634D02*
X0328504D01*
D17*
X0126083Y0266043D02*
X0150689D01*
D18*
X0553546Y0151146D02*
X0561748D01*
X0553546Y0123303D02*
X0558210D01*
X0541437Y0151083D02*
Y0162303D01*
X0588681Y0162697D02*
X0588681Y0151083D01*
M02*
