G04*
G04 #@! TF.GenerationSoftware,Altium Limited,Altium Designer,21.7.2 (23)*
G04*
G04 Layer_Color=32896*
%FSAX25Y25*%
%MOIN*%
G70*
G04*
G04 #@! TF.SameCoordinates,25756C21-EA0E-48A6-96D4-99705350E32D*
G04*
G04*
G04 #@! TF.FilePolarity,Positive*
G04*
G01*
G75*
%ADD14C,0.00394*%
D14*
X0333189Y0179547D02*
Y0183484D01*
X0331221Y0181516D02*
X0335157D01*
X0498674Y0165021D02*
X0500932Y0168246D01*
X0498191Y0167763D02*
X0501416Y0165505D01*
X0461811Y0334350D02*
Y0338287D01*
X0459842Y0336319D02*
X0463779D01*
X0527618Y0357874D02*
X0531555D01*
X0529587Y0355906D02*
Y0359842D01*
X0380413Y0289764D02*
Y0293701D01*
X0378445Y0291732D02*
X0382382D01*
X0233268Y0296457D02*
Y0300394D01*
X0231299Y0298425D02*
X0235236D01*
X0279429Y0457382D02*
Y0461319D01*
X0277461Y0459350D02*
X0281398D01*
X0355709Y0396063D02*
X0359646D01*
X0357677Y0394094D02*
Y0398031D01*
X0163878Y0359547D02*
X0167815D01*
X0165847Y0357579D02*
Y0361516D01*
X0309350Y0298622D02*
X0313287D01*
X0311319Y0296654D02*
Y0300590D01*
X0321457Y0288976D02*
X0325394D01*
X0323425Y0287008D02*
Y0290945D01*
X0243008Y0288976D02*
X0246945D01*
X0244977Y0287008D02*
Y0290945D01*
X0193209Y0440551D02*
Y0444488D01*
X0191240Y0442520D02*
X0195177D01*
X0396949Y0350295D02*
X0400886D01*
X0398917Y0348327D02*
Y0352264D01*
X0157382Y0291240D02*
X0161319D01*
X0159350Y0289272D02*
Y0293209D01*
X0128445Y0315748D02*
Y0319685D01*
X0126476Y0317717D02*
X0130413D01*
X0346161Y0313484D02*
Y0317421D01*
X0344193Y0315453D02*
X0348130D01*
M02*
