G04*
G04 #@! TF.GenerationSoftware,Altium Limited,Altium Designer,21.7.2 (23)*
G04*
G04 Layer_Color=32896*
%FSAX25Y25*%
%MOIN*%
G70*
G04*
G04 #@! TF.SameCoordinates,25756C21-EA0E-48A6-96D4-99705350E32D*
G04*
G04*
G04 #@! TF.FilePolarity,Positive*
G04*
G01*
G75*
%ADD10C,0.01000*%
%ADD11C,0.00500*%
%ADD12C,0.00984*%
%ADD13C,0.00787*%
%ADD14C,0.00394*%
%ADD15C,0.01968*%
%ADD17C,0.01575*%
%ADD434R,0.01968X0.03937*%
G36*
X0301508Y0519224D02*
X0299299Y0517016D01*
X0299299Y0519224D01*
X0301508Y0519224D01*
D02*
G37*
G36*
X0227559Y0429429D02*
X0223622D01*
X0227559Y0433366D01*
Y0429429D01*
D02*
G37*
G36*
X0153347Y0403051D02*
Y0406988D01*
X0157283D01*
X0153347Y0403051D01*
D02*
G37*
G36*
X0269390Y0395374D02*
X0272930Y0391833D01*
X0269185Y0391823D01*
X0269185Y0395374D01*
X0269390Y0395374D01*
D02*
G37*
G36*
X0225984Y0391732D02*
X0222047Y0395669D01*
X0225984D01*
Y0391732D01*
D02*
G37*
G36*
X0157776Y0340551D02*
Y0344488D01*
X0161713D01*
X0157776Y0340551D01*
D02*
G37*
G36*
X0281878Y0306780D02*
Y0308988D01*
X0284087Y0308988D01*
X0281878Y0306780D01*
D02*
G37*
G36*
X0132862D02*
Y0308988D01*
X0135071Y0308988D01*
X0132862Y0306780D01*
D02*
G37*
G36*
X0204122Y0306484D02*
Y0308693D01*
X0206331Y0308693D01*
X0204122Y0306484D01*
D02*
G37*
G36*
X0298142Y0230106D02*
X0295933D01*
X0295933Y0232315D01*
X0298142Y0230106D01*
D02*
G37*
G36*
X0295443Y0218716D02*
X0292319D01*
X0293881Y0220278D01*
X0295443Y0218716D01*
D02*
G37*
G36*
X0278003Y0200672D02*
X0276441Y0202233D01*
X0279565D01*
X0278003Y0200672D01*
D02*
G37*
G36*
X0273344Y0177653D02*
X0271135D01*
X0271135Y0179862D01*
X0273344Y0177653D01*
D02*
G37*
G36*
X0265109Y0154940D02*
X0261172Y0154940D01*
X0265109Y0158877D01*
Y0154940D01*
D02*
G37*
G36*
X0281811Y0122078D02*
X0279027Y0119294D01*
X0279027Y0124862D01*
X0281811Y0122078D01*
D02*
G37*
G36*
X0258009Y0098706D02*
X0255800D01*
X0258009Y0100915D01*
Y0098706D01*
D02*
G37*
G36*
X0309802Y0124415D02*
X0305865D01*
X0309802Y0120478D01*
X0309802Y0124415D01*
D02*
G37*
G36*
X0322790Y0151498D02*
X0319345D01*
Y0151597D01*
X0322790Y0155042D01*
Y0151498D01*
D02*
G37*
G36*
X0373484Y0173000D02*
X0376043Y0170441D01*
X0373386Y0170441D01*
X0373484Y0173000D01*
D02*
G37*
G36*
X0362525Y0212676D02*
X0360316D01*
X0362525Y0210467D01*
X0362525Y0212676D01*
D02*
G37*
G36*
X0351563Y0308004D02*
Y0305795D01*
X0353772Y0308004D01*
X0351563Y0308004D01*
D02*
G37*
G36*
X0406102Y0095866D02*
Y0091929D01*
X0410039Y0095866D01*
X0406102D01*
D02*
G37*
G36*
X0415433Y0244823D02*
X0419370D01*
X0415433Y0248760D01*
Y0244823D01*
D02*
G37*
G36*
X0568732Y0276803D02*
X0566524D01*
X0568732Y0274594D01*
Y0276803D01*
D02*
G37*
G36*
X0615531Y0284681D02*
X0612532Y0287681D01*
X0615772D01*
X0615827Y0287736D01*
X0615531Y0284681D01*
D02*
G37*
G36*
X0307941Y0428827D02*
X0310150Y0428827D01*
X0307941Y0431035D01*
Y0428827D01*
D02*
G37*
G36*
X0303610Y0455500D02*
X0305819D01*
X0303610Y0457709D01*
X0303610Y0455500D01*
D02*
G37*
G36*
X0343209Y0432677D02*
X0340650Y0435236D01*
X0343307D01*
X0343209Y0432677D01*
D02*
G37*
G36*
X0379626Y0399606D02*
Y0395669D01*
X0383563Y0399606D01*
X0379626D01*
D02*
G37*
G36*
X0397835Y0332874D02*
Y0328937D01*
X0401772Y0332874D01*
X0397835Y0332874D01*
D02*
G37*
G36*
X0395768Y0460138D02*
X0391831D01*
X0395768Y0456201D01*
Y0460138D01*
D02*
G37*
G36*
X0432677Y0462106D02*
Y0466043D01*
X0428740Y0462106D01*
X0432677D01*
D02*
G37*
G36*
X0558685Y0378248D02*
X0555685Y0375248D01*
Y0378488D01*
X0555630Y0378543D01*
X0558685Y0378248D01*
D02*
G37*
G36*
X0686341Y0202122D02*
X0693017D01*
Y0201122D01*
X0685453D01*
Y0205843D01*
X0686341D01*
Y0202122D01*
D02*
G37*
G36*
X0570752Y0166857D02*
X0570821Y0166766D01*
X0570890Y0166680D01*
X0570958Y0166600D01*
X0571021Y0166532D01*
X0571072Y0166480D01*
X0571112Y0166446D01*
X0571118Y0166440D01*
X0571124Y0166435D01*
X0571238Y0166338D01*
X0571352Y0166252D01*
X0571466Y0166178D01*
X0571575Y0166115D01*
X0571666Y0166063D01*
X0571706Y0166041D01*
X0571740Y0166024D01*
X0571769Y0166006D01*
X0571792Y0165995D01*
X0571803Y0165989D01*
X0571809D01*
Y0165533D01*
X0571723Y0165567D01*
X0571638Y0165607D01*
X0571558Y0165641D01*
X0571483Y0165681D01*
X0571415Y0165715D01*
X0571363Y0165744D01*
X0571329Y0165767D01*
X0571323Y0165772D01*
X0571318D01*
X0571221Y0165835D01*
X0571129Y0165892D01*
X0571049Y0165949D01*
X0570987Y0165995D01*
X0570935Y0166041D01*
X0570895Y0166069D01*
X0570872Y0166092D01*
X0570867Y0166098D01*
Y0163100D01*
X0570393D01*
Y0166954D01*
X0570701D01*
X0570752Y0166857D01*
D02*
G37*
G36*
X0565088Y0166948D02*
X0565180Y0166937D01*
X0565265Y0166920D01*
X0565345Y0166897D01*
X0565494Y0166840D01*
X0565556Y0166806D01*
X0565619Y0166777D01*
X0565671Y0166743D01*
X0565716Y0166709D01*
X0565756Y0166680D01*
X0565791Y0166652D01*
X0565819Y0166629D01*
X0565836Y0166612D01*
X0565848Y0166600D01*
X0565853Y0166595D01*
X0565916Y0166526D01*
X0565968Y0166452D01*
X0566013Y0166377D01*
X0566053Y0166298D01*
X0566082Y0166223D01*
X0566110Y0166143D01*
X0566150Y0165995D01*
X0566167Y0165926D01*
X0566179Y0165864D01*
X0566185Y0165806D01*
X0566190Y0165755D01*
X0566196Y0165715D01*
Y0165687D01*
Y0165664D01*
Y0165658D01*
X0566190Y0165555D01*
X0566185Y0165458D01*
X0566167Y0165367D01*
X0566145Y0165276D01*
X0566122Y0165196D01*
X0566093Y0165121D01*
X0566065Y0165053D01*
X0566030Y0164990D01*
X0566002Y0164933D01*
X0565973Y0164887D01*
X0565945Y0164842D01*
X0565922Y0164807D01*
X0565899Y0164779D01*
X0565882Y0164762D01*
X0565876Y0164750D01*
X0565871Y0164744D01*
X0565808Y0164682D01*
X0565739Y0164630D01*
X0565671Y0164585D01*
X0565602Y0164545D01*
X0565534Y0164516D01*
X0565471Y0164488D01*
X0565339Y0164448D01*
X0565282Y0164430D01*
X0565231Y0164419D01*
X0565180Y0164413D01*
X0565140Y0164408D01*
X0565105Y0164402D01*
X0565060D01*
X0564957Y0164408D01*
X0564854Y0164425D01*
X0564768Y0164448D01*
X0564688Y0164470D01*
X0564620Y0164493D01*
X0564569Y0164516D01*
X0564540Y0164533D01*
X0564529Y0164539D01*
X0564443Y0164596D01*
X0564363Y0164659D01*
X0564300Y0164716D01*
X0564243Y0164773D01*
X0564197Y0164824D01*
X0564169Y0164870D01*
X0564146Y0164893D01*
X0564140Y0164904D01*
Y0164864D01*
Y0164836D01*
Y0164819D01*
Y0164813D01*
X0564146Y0164705D01*
X0564152Y0164596D01*
X0564163Y0164499D01*
X0564175Y0164413D01*
X0564192Y0164339D01*
X0564203Y0164282D01*
X0564209Y0164259D01*
Y0164242D01*
X0564215Y0164236D01*
Y0164231D01*
X0564243Y0164134D01*
X0564272Y0164042D01*
X0564300Y0163968D01*
X0564323Y0163905D01*
X0564352Y0163854D01*
X0564369Y0163814D01*
X0564380Y0163791D01*
X0564386Y0163785D01*
X0564426Y0163728D01*
X0564471Y0163677D01*
X0564517Y0163631D01*
X0564557Y0163591D01*
X0564597Y0163563D01*
X0564626Y0163540D01*
X0564648Y0163528D01*
X0564654Y0163523D01*
X0564717Y0163488D01*
X0564786Y0163465D01*
X0564848Y0163448D01*
X0564911Y0163437D01*
X0564963Y0163431D01*
X0565002Y0163426D01*
X0565042D01*
X0565134Y0163431D01*
X0565214Y0163448D01*
X0565282Y0163471D01*
X0565345Y0163494D01*
X0565391Y0163517D01*
X0565431Y0163540D01*
X0565454Y0163557D01*
X0565459Y0163563D01*
X0565516Y0163625D01*
X0565562Y0163694D01*
X0565596Y0163774D01*
X0565625Y0163848D01*
X0565648Y0163917D01*
X0565665Y0163974D01*
X0565671Y0163997D01*
Y0164014D01*
X0565676Y0164019D01*
Y0164025D01*
X0566127Y0163991D01*
X0566099Y0163831D01*
X0566047Y0163688D01*
X0565996Y0163568D01*
X0565933Y0163465D01*
X0565876Y0163385D01*
X0565831Y0163328D01*
X0565813Y0163311D01*
X0565796Y0163294D01*
X0565791Y0163288D01*
X0565785Y0163283D01*
X0565728Y0163237D01*
X0565671Y0163203D01*
X0565551Y0163140D01*
X0565425Y0163100D01*
X0565311Y0163066D01*
X0565208Y0163049D01*
X0565162Y0163043D01*
X0565123D01*
X0565094Y0163037D01*
X0565048D01*
X0564894Y0163049D01*
X0564751Y0163072D01*
X0564626Y0163106D01*
X0564517Y0163151D01*
X0564426Y0163191D01*
X0564392Y0163208D01*
X0564363Y0163226D01*
X0564340Y0163237D01*
X0564317Y0163249D01*
X0564312Y0163260D01*
X0564306D01*
X0564197Y0163357D01*
X0564100Y0163460D01*
X0564020Y0163568D01*
X0563952Y0163677D01*
X0563901Y0163774D01*
X0563878Y0163814D01*
X0563861Y0163854D01*
X0563849Y0163882D01*
X0563838Y0163905D01*
X0563832Y0163917D01*
Y0163922D01*
X0563803Y0164008D01*
X0563775Y0164099D01*
X0563735Y0164293D01*
X0563706Y0164488D01*
X0563689Y0164676D01*
X0563678Y0164762D01*
X0563672Y0164842D01*
Y0164916D01*
X0563666Y0164979D01*
Y0165030D01*
Y0165064D01*
Y0165093D01*
Y0165099D01*
Y0165224D01*
X0563672Y0165344D01*
X0563684Y0165458D01*
X0563689Y0165561D01*
X0563706Y0165658D01*
X0563718Y0165749D01*
X0563735Y0165829D01*
X0563746Y0165898D01*
X0563764Y0165961D01*
X0563781Y0166018D01*
X0563792Y0166063D01*
X0563803Y0166103D01*
X0563815Y0166132D01*
X0563826Y0166155D01*
X0563832Y0166166D01*
Y0166172D01*
X0563901Y0166303D01*
X0563975Y0166423D01*
X0564055Y0166520D01*
X0564129Y0166600D01*
X0564197Y0166663D01*
X0564255Y0166714D01*
X0564277Y0166726D01*
X0564294Y0166737D01*
X0564300Y0166749D01*
X0564306D01*
X0564426Y0166817D01*
X0564540Y0166869D01*
X0564660Y0166903D01*
X0564763Y0166931D01*
X0564854Y0166943D01*
X0564894Y0166948D01*
X0564928D01*
X0564957Y0166954D01*
X0564991D01*
X0565088Y0166948D01*
D02*
G37*
G36*
X0574378Y0167000D02*
X0574550Y0166977D01*
X0574710Y0166937D01*
X0574778Y0166914D01*
X0574847Y0166897D01*
X0574904Y0166874D01*
X0574961Y0166851D01*
X0575006Y0166834D01*
X0575046Y0166812D01*
X0575081Y0166800D01*
X0575104Y0166789D01*
X0575115Y0166777D01*
X0575121D01*
X0575269Y0166680D01*
X0575400Y0166572D01*
X0575515Y0166457D01*
X0575606Y0166349D01*
X0575674Y0166252D01*
X0575703Y0166206D01*
X0575732Y0166172D01*
X0575749Y0166138D01*
X0575760Y0166115D01*
X0575772Y0166103D01*
Y0166098D01*
X0575846Y0165926D01*
X0575903Y0165749D01*
X0575943Y0165572D01*
X0575972Y0165407D01*
X0575983Y0165333D01*
X0575989Y0165264D01*
X0575994Y0165207D01*
Y0165156D01*
X0576000Y0165110D01*
Y0165081D01*
Y0165059D01*
Y0165053D01*
X0575989Y0164847D01*
X0575966Y0164659D01*
X0575937Y0164482D01*
X0575920Y0164402D01*
X0575897Y0164328D01*
X0575880Y0164259D01*
X0575863Y0164202D01*
X0575846Y0164145D01*
X0575829Y0164105D01*
X0575817Y0164065D01*
X0575806Y0164042D01*
X0575800Y0164025D01*
Y0164019D01*
X0575714Y0163848D01*
X0575623Y0163705D01*
X0575520Y0163580D01*
X0575423Y0163477D01*
X0575338Y0163391D01*
X0575303Y0163363D01*
X0575269Y0163334D01*
X0575241Y0163317D01*
X0575223Y0163300D01*
X0575212Y0163294D01*
X0575206Y0163288D01*
X0575132Y0163243D01*
X0575052Y0163208D01*
X0574887Y0163146D01*
X0574715Y0163100D01*
X0574555Y0163072D01*
X0574481Y0163060D01*
X0574413Y0163049D01*
X0574350Y0163043D01*
X0574298D01*
X0574253Y0163037D01*
X0574196D01*
X0574087Y0163043D01*
X0573979Y0163049D01*
X0573882Y0163066D01*
X0573784Y0163089D01*
X0573693Y0163111D01*
X0573613Y0163140D01*
X0573533Y0163169D01*
X0573465Y0163203D01*
X0573396Y0163231D01*
X0573345Y0163260D01*
X0573293Y0163288D01*
X0573253Y0163311D01*
X0573219Y0163334D01*
X0573196Y0163351D01*
X0573185Y0163357D01*
X0573179Y0163363D01*
X0573105Y0163426D01*
X0573036Y0163500D01*
X0572974Y0163574D01*
X0572911Y0163654D01*
X0572814Y0163808D01*
X0572734Y0163962D01*
X0572700Y0164036D01*
X0572677Y0164099D01*
X0572654Y0164162D01*
X0572631Y0164213D01*
X0572620Y0164259D01*
X0572608Y0164288D01*
X0572603Y0164311D01*
Y0164316D01*
X0573111Y0164448D01*
X0573156Y0164276D01*
X0573219Y0164128D01*
X0573288Y0164002D01*
X0573356Y0163899D01*
X0573419Y0163820D01*
X0573442Y0163791D01*
X0573470Y0163762D01*
X0573488Y0163745D01*
X0573505Y0163728D01*
X0573510Y0163722D01*
X0573516Y0163717D01*
X0573573Y0163671D01*
X0573630Y0163637D01*
X0573756Y0163574D01*
X0573876Y0163534D01*
X0573984Y0163500D01*
X0574087Y0163483D01*
X0574127Y0163477D01*
X0574167D01*
X0574196Y0163471D01*
X0574236D01*
X0574367Y0163477D01*
X0574487Y0163500D01*
X0574601Y0163528D01*
X0574698Y0163563D01*
X0574778Y0163591D01*
X0574841Y0163620D01*
X0574864Y0163631D01*
X0574881Y0163643D01*
X0574887Y0163648D01*
X0574892D01*
X0574995Y0163722D01*
X0575086Y0163814D01*
X0575161Y0163899D01*
X0575223Y0163991D01*
X0575269Y0164071D01*
X0575303Y0164139D01*
X0575315Y0164162D01*
X0575326Y0164179D01*
X0575332Y0164191D01*
Y0164196D01*
X0575378Y0164339D01*
X0575412Y0164482D01*
X0575440Y0164630D01*
X0575457Y0164762D01*
X0575463Y0164824D01*
X0575469Y0164876D01*
Y0164927D01*
X0575475Y0164973D01*
Y0165007D01*
Y0165030D01*
Y0165047D01*
Y0165053D01*
X0575469Y0165196D01*
X0575457Y0165327D01*
X0575435Y0165453D01*
X0575412Y0165567D01*
X0575395Y0165658D01*
X0575383Y0165698D01*
X0575372Y0165727D01*
X0575366Y0165755D01*
X0575360Y0165772D01*
X0575355Y0165784D01*
Y0165789D01*
X0575303Y0165915D01*
X0575241Y0166029D01*
X0575172Y0166126D01*
X0575104Y0166212D01*
X0575041Y0166275D01*
X0574984Y0166320D01*
X0574949Y0166349D01*
X0574944Y0166360D01*
X0574938D01*
X0574818Y0166435D01*
X0574698Y0166486D01*
X0574573Y0166526D01*
X0574453Y0166549D01*
X0574350Y0166566D01*
X0574310Y0166572D01*
X0574270D01*
X0574241Y0166577D01*
X0574196D01*
X0574059Y0166572D01*
X0573933Y0166549D01*
X0573825Y0166515D01*
X0573733Y0166480D01*
X0573659Y0166446D01*
X0573607Y0166412D01*
X0573573Y0166389D01*
X0573562Y0166383D01*
X0573470Y0166303D01*
X0573390Y0166206D01*
X0573322Y0166103D01*
X0573271Y0166006D01*
X0573225Y0165915D01*
X0573208Y0165875D01*
X0573191Y0165841D01*
X0573179Y0165812D01*
X0573174Y0165789D01*
X0573168Y0165778D01*
Y0165772D01*
X0572665Y0165892D01*
X0572700Y0165989D01*
X0572734Y0166081D01*
X0572774Y0166166D01*
X0572820Y0166246D01*
X0572865Y0166320D01*
X0572911Y0166383D01*
X0572957Y0166446D01*
X0573002Y0166503D01*
X0573048Y0166549D01*
X0573088Y0166595D01*
X0573122Y0166629D01*
X0573156Y0166663D01*
X0573179Y0166686D01*
X0573202Y0166703D01*
X0573213Y0166709D01*
X0573219Y0166714D01*
X0573293Y0166766D01*
X0573373Y0166812D01*
X0573453Y0166851D01*
X0573533Y0166886D01*
X0573699Y0166937D01*
X0573847Y0166977D01*
X0573922Y0166989D01*
X0573984Y0166994D01*
X0574042Y0167000D01*
X0574093Y0167006D01*
X0574133Y0167011D01*
X0574190D01*
X0574378Y0167000D01*
D02*
G37*
G36*
X0568023Y0166948D02*
X0568109Y0166943D01*
X0568269Y0166909D01*
X0568406Y0166863D01*
X0568469Y0166840D01*
X0568520Y0166812D01*
X0568571Y0166783D01*
X0568617Y0166760D01*
X0568651Y0166737D01*
X0568680Y0166714D01*
X0568703Y0166697D01*
X0568725Y0166680D01*
X0568731Y0166674D01*
X0568737Y0166669D01*
X0568788Y0166612D01*
X0568834Y0166554D01*
X0568874Y0166498D01*
X0568908Y0166440D01*
X0568960Y0166320D01*
X0568994Y0166206D01*
X0569017Y0166109D01*
X0569022Y0166069D01*
X0569028Y0166029D01*
X0569034Y0166001D01*
Y0165978D01*
Y0165966D01*
Y0165961D01*
X0569028Y0165864D01*
X0569011Y0165772D01*
X0568988Y0165692D01*
X0568965Y0165624D01*
X0568942Y0165567D01*
X0568920Y0165521D01*
X0568902Y0165498D01*
X0568897Y0165487D01*
X0568834Y0165418D01*
X0568765Y0165355D01*
X0568697Y0165304D01*
X0568623Y0165258D01*
X0568560Y0165224D01*
X0568503Y0165201D01*
X0568469Y0165184D01*
X0568463Y0165178D01*
X0568457D01*
X0568583Y0165138D01*
X0568691Y0165087D01*
X0568783Y0165030D01*
X0568862Y0164973D01*
X0568920Y0164921D01*
X0568965Y0164876D01*
X0568988Y0164847D01*
X0568999Y0164842D01*
Y0164836D01*
X0569062Y0164739D01*
X0569108Y0164630D01*
X0569142Y0164527D01*
X0569165Y0164430D01*
X0569177Y0164339D01*
X0569182Y0164305D01*
Y0164271D01*
X0569188Y0164242D01*
Y0164225D01*
Y0164213D01*
Y0164208D01*
X0569182Y0164116D01*
X0569171Y0164025D01*
X0569154Y0163945D01*
X0569131Y0163865D01*
X0569079Y0163722D01*
X0569045Y0163660D01*
X0569011Y0163602D01*
X0568982Y0163545D01*
X0568948Y0163500D01*
X0568920Y0163460D01*
X0568891Y0163431D01*
X0568874Y0163403D01*
X0568857Y0163385D01*
X0568845Y0163374D01*
X0568840Y0163368D01*
X0568771Y0163311D01*
X0568703Y0163260D01*
X0568623Y0163214D01*
X0568548Y0163180D01*
X0568474Y0163146D01*
X0568394Y0163117D01*
X0568252Y0163077D01*
X0568183Y0163066D01*
X0568120Y0163054D01*
X0568063Y0163049D01*
X0568017Y0163043D01*
X0567978Y0163037D01*
X0567920D01*
X0567818Y0163043D01*
X0567721Y0163054D01*
X0567623Y0163066D01*
X0567538Y0163089D01*
X0567458Y0163111D01*
X0567384Y0163140D01*
X0567315Y0163174D01*
X0567252Y0163203D01*
X0567195Y0163231D01*
X0567144Y0163266D01*
X0567104Y0163294D01*
X0567070Y0163317D01*
X0567041Y0163340D01*
X0567024Y0163357D01*
X0567013Y0163363D01*
X0567007Y0163368D01*
X0566944Y0163431D01*
X0566893Y0163500D01*
X0566841Y0163568D01*
X0566801Y0163643D01*
X0566767Y0163711D01*
X0566738Y0163779D01*
X0566698Y0163911D01*
X0566681Y0163968D01*
X0566670Y0164025D01*
X0566664Y0164071D01*
X0566658Y0164116D01*
X0566653Y0164151D01*
Y0164173D01*
Y0164191D01*
Y0164196D01*
X0566658Y0164322D01*
X0566681Y0164442D01*
X0566710Y0164545D01*
X0566744Y0164636D01*
X0566784Y0164710D01*
X0566813Y0164762D01*
X0566835Y0164796D01*
X0566841Y0164807D01*
X0566915Y0164899D01*
X0567001Y0164973D01*
X0567092Y0165036D01*
X0567178Y0165087D01*
X0567258Y0165127D01*
X0567326Y0165156D01*
X0567349Y0165167D01*
X0567367Y0165173D01*
X0567378Y0165178D01*
X0567384D01*
X0567281Y0165224D01*
X0567195Y0165270D01*
X0567121Y0165321D01*
X0567064Y0165373D01*
X0567018Y0165413D01*
X0566984Y0165447D01*
X0566961Y0165475D01*
X0566955Y0165481D01*
X0566910Y0165561D01*
X0566875Y0165641D01*
X0566847Y0165715D01*
X0566830Y0165789D01*
X0566818Y0165852D01*
X0566813Y0165904D01*
Y0165938D01*
Y0165944D01*
Y0165949D01*
X0566818Y0166024D01*
X0566824Y0166098D01*
X0566858Y0166235D01*
X0566910Y0166355D01*
X0566967Y0166457D01*
X0567024Y0166543D01*
X0567047Y0166577D01*
X0567075Y0166606D01*
X0567092Y0166629D01*
X0567109Y0166646D01*
X0567115Y0166652D01*
X0567121Y0166657D01*
X0567178Y0166709D01*
X0567247Y0166754D01*
X0567309Y0166794D01*
X0567378Y0166829D01*
X0567515Y0166880D01*
X0567641Y0166920D01*
X0567755Y0166937D01*
X0567806Y0166943D01*
X0567846Y0166948D01*
X0567880Y0166954D01*
X0567932D01*
X0568023Y0166948D01*
D02*
G37*
G36*
X0570552Y0128957D02*
X0570621Y0128866D01*
X0570689Y0128780D01*
X0570758Y0128700D01*
X0570821Y0128632D01*
X0570872Y0128580D01*
X0570912Y0128546D01*
X0570918Y0128540D01*
X0570924Y0128535D01*
X0571038Y0128438D01*
X0571152Y0128352D01*
X0571266Y0128278D01*
X0571375Y0128215D01*
X0571466Y0128164D01*
X0571506Y0128141D01*
X0571540Y0128123D01*
X0571569Y0128106D01*
X0571592Y0128095D01*
X0571603Y0128089D01*
X0571609D01*
Y0127632D01*
X0571523Y0127667D01*
X0571438Y0127707D01*
X0571358Y0127741D01*
X0571283Y0127781D01*
X0571215Y0127815D01*
X0571164Y0127844D01*
X0571129Y0127867D01*
X0571124Y0127872D01*
X0571118D01*
X0571021Y0127935D01*
X0570929Y0127992D01*
X0570849Y0128049D01*
X0570787Y0128095D01*
X0570735Y0128141D01*
X0570695Y0128169D01*
X0570672Y0128192D01*
X0570667Y0128198D01*
Y0125200D01*
X0570193D01*
Y0129054D01*
X0570501D01*
X0570552Y0128957D01*
D02*
G37*
G36*
X0574178Y0129100D02*
X0574350Y0129077D01*
X0574509Y0129037D01*
X0574578Y0129014D01*
X0574647Y0128997D01*
X0574704Y0128974D01*
X0574761Y0128952D01*
X0574806Y0128934D01*
X0574846Y0128911D01*
X0574881Y0128900D01*
X0574903Y0128889D01*
X0574915Y0128877D01*
X0574921D01*
X0575069Y0128780D01*
X0575201Y0128672D01*
X0575315Y0128558D01*
X0575406Y0128449D01*
X0575475Y0128352D01*
X0575503Y0128306D01*
X0575532Y0128272D01*
X0575549Y0128238D01*
X0575560Y0128215D01*
X0575572Y0128203D01*
Y0128198D01*
X0575646Y0128026D01*
X0575703Y0127849D01*
X0575743Y0127672D01*
X0575772Y0127507D01*
X0575783Y0127433D01*
X0575789Y0127364D01*
X0575794Y0127307D01*
Y0127256D01*
X0575800Y0127210D01*
Y0127181D01*
Y0127158D01*
Y0127153D01*
X0575789Y0126947D01*
X0575766Y0126759D01*
X0575737Y0126582D01*
X0575720Y0126502D01*
X0575697Y0126428D01*
X0575680Y0126359D01*
X0575663Y0126302D01*
X0575646Y0126245D01*
X0575629Y0126205D01*
X0575617Y0126165D01*
X0575606Y0126142D01*
X0575600Y0126125D01*
Y0126119D01*
X0575515Y0125948D01*
X0575423Y0125805D01*
X0575320Y0125680D01*
X0575223Y0125577D01*
X0575138Y0125491D01*
X0575103Y0125463D01*
X0575069Y0125434D01*
X0575041Y0125417D01*
X0575023Y0125400D01*
X0575012Y0125394D01*
X0575006Y0125388D01*
X0574932Y0125343D01*
X0574852Y0125309D01*
X0574686Y0125246D01*
X0574515Y0125200D01*
X0574355Y0125171D01*
X0574281Y0125160D01*
X0574213Y0125149D01*
X0574150Y0125143D01*
X0574098D01*
X0574053Y0125137D01*
X0573996D01*
X0573887Y0125143D01*
X0573779Y0125149D01*
X0573682Y0125166D01*
X0573585Y0125189D01*
X0573493Y0125211D01*
X0573413Y0125240D01*
X0573333Y0125268D01*
X0573265Y0125303D01*
X0573196Y0125331D01*
X0573145Y0125360D01*
X0573094Y0125388D01*
X0573054Y0125411D01*
X0573019Y0125434D01*
X0572996Y0125451D01*
X0572985Y0125457D01*
X0572979Y0125463D01*
X0572905Y0125525D01*
X0572836Y0125600D01*
X0572774Y0125674D01*
X0572711Y0125754D01*
X0572614Y0125908D01*
X0572534Y0126062D01*
X0572500Y0126136D01*
X0572477Y0126199D01*
X0572454Y0126262D01*
X0572431Y0126313D01*
X0572420Y0126359D01*
X0572408Y0126388D01*
X0572402Y0126410D01*
Y0126416D01*
X0572911Y0126548D01*
X0572956Y0126376D01*
X0573019Y0126228D01*
X0573088Y0126102D01*
X0573156Y0125999D01*
X0573219Y0125919D01*
X0573242Y0125891D01*
X0573271Y0125862D01*
X0573288Y0125845D01*
X0573305Y0125828D01*
X0573310Y0125822D01*
X0573316Y0125817D01*
X0573373Y0125771D01*
X0573430Y0125737D01*
X0573556Y0125674D01*
X0573676Y0125634D01*
X0573784Y0125600D01*
X0573887Y0125583D01*
X0573927Y0125577D01*
X0573967D01*
X0573996Y0125571D01*
X0574036D01*
X0574167Y0125577D01*
X0574287Y0125600D01*
X0574401Y0125628D01*
X0574498Y0125663D01*
X0574578Y0125691D01*
X0574641Y0125720D01*
X0574664Y0125731D01*
X0574681Y0125742D01*
X0574686Y0125748D01*
X0574692D01*
X0574795Y0125822D01*
X0574886Y0125914D01*
X0574961Y0125999D01*
X0575023Y0126091D01*
X0575069Y0126171D01*
X0575103Y0126239D01*
X0575115Y0126262D01*
X0575126Y0126279D01*
X0575132Y0126291D01*
Y0126296D01*
X0575178Y0126439D01*
X0575212Y0126582D01*
X0575240Y0126730D01*
X0575257Y0126862D01*
X0575263Y0126924D01*
X0575269Y0126976D01*
Y0127027D01*
X0575275Y0127073D01*
Y0127107D01*
Y0127130D01*
Y0127147D01*
Y0127153D01*
X0575269Y0127296D01*
X0575257Y0127427D01*
X0575235Y0127552D01*
X0575212Y0127667D01*
X0575195Y0127758D01*
X0575183Y0127798D01*
X0575172Y0127827D01*
X0575166Y0127855D01*
X0575161Y0127872D01*
X0575155Y0127884D01*
Y0127889D01*
X0575103Y0128015D01*
X0575041Y0128129D01*
X0574972Y0128226D01*
X0574903Y0128312D01*
X0574841Y0128375D01*
X0574784Y0128420D01*
X0574749Y0128449D01*
X0574744Y0128460D01*
X0574738D01*
X0574618Y0128535D01*
X0574498Y0128586D01*
X0574372Y0128626D01*
X0574253Y0128649D01*
X0574150Y0128666D01*
X0574110Y0128672D01*
X0574070D01*
X0574041Y0128677D01*
X0573996D01*
X0573859Y0128672D01*
X0573733Y0128649D01*
X0573625Y0128615D01*
X0573533Y0128580D01*
X0573459Y0128546D01*
X0573408Y0128512D01*
X0573373Y0128489D01*
X0573362Y0128483D01*
X0573271Y0128403D01*
X0573190Y0128306D01*
X0573122Y0128203D01*
X0573071Y0128106D01*
X0573025Y0128015D01*
X0573008Y0127975D01*
X0572991Y0127941D01*
X0572979Y0127912D01*
X0572973Y0127889D01*
X0572968Y0127878D01*
Y0127872D01*
X0572465Y0127992D01*
X0572500Y0128089D01*
X0572534Y0128181D01*
X0572574Y0128266D01*
X0572619Y0128346D01*
X0572665Y0128420D01*
X0572711Y0128483D01*
X0572757Y0128546D01*
X0572802Y0128603D01*
X0572848Y0128649D01*
X0572888Y0128694D01*
X0572922Y0128729D01*
X0572956Y0128763D01*
X0572979Y0128786D01*
X0573002Y0128803D01*
X0573013Y0128809D01*
X0573019Y0128814D01*
X0573094Y0128866D01*
X0573173Y0128911D01*
X0573253Y0128952D01*
X0573333Y0128986D01*
X0573499Y0129037D01*
X0573647Y0129077D01*
X0573722Y0129088D01*
X0573784Y0129094D01*
X0573841Y0129100D01*
X0573893Y0129106D01*
X0573933Y0129111D01*
X0573990D01*
X0574178Y0129100D01*
D02*
G37*
G36*
X0567823Y0129049D02*
X0567909Y0129043D01*
X0568069Y0129009D01*
X0568206Y0128963D01*
X0568268Y0128940D01*
X0568320Y0128911D01*
X0568371Y0128883D01*
X0568417Y0128860D01*
X0568451Y0128837D01*
X0568480Y0128814D01*
X0568503Y0128797D01*
X0568526Y0128780D01*
X0568531Y0128774D01*
X0568537Y0128769D01*
X0568588Y0128712D01*
X0568634Y0128655D01*
X0568674Y0128597D01*
X0568708Y0128540D01*
X0568760Y0128420D01*
X0568794Y0128306D01*
X0568817Y0128209D01*
X0568822Y0128169D01*
X0568828Y0128129D01*
X0568834Y0128101D01*
Y0128078D01*
Y0128066D01*
Y0128061D01*
X0568828Y0127964D01*
X0568811Y0127872D01*
X0568788Y0127792D01*
X0568765Y0127724D01*
X0568742Y0127667D01*
X0568720Y0127621D01*
X0568703Y0127598D01*
X0568697Y0127587D01*
X0568634Y0127518D01*
X0568565Y0127455D01*
X0568497Y0127404D01*
X0568423Y0127358D01*
X0568360Y0127324D01*
X0568303Y0127301D01*
X0568268Y0127284D01*
X0568263Y0127278D01*
X0568257D01*
X0568383Y0127239D01*
X0568491Y0127187D01*
X0568583Y0127130D01*
X0568663Y0127073D01*
X0568720Y0127022D01*
X0568765Y0126976D01*
X0568788Y0126947D01*
X0568799Y0126942D01*
Y0126936D01*
X0568862Y0126839D01*
X0568908Y0126730D01*
X0568942Y0126628D01*
X0568965Y0126530D01*
X0568977Y0126439D01*
X0568982Y0126405D01*
Y0126371D01*
X0568988Y0126342D01*
Y0126325D01*
Y0126313D01*
Y0126308D01*
X0568982Y0126216D01*
X0568971Y0126125D01*
X0568954Y0126045D01*
X0568931Y0125965D01*
X0568880Y0125822D01*
X0568845Y0125760D01*
X0568811Y0125703D01*
X0568782Y0125645D01*
X0568748Y0125600D01*
X0568720Y0125560D01*
X0568691Y0125531D01*
X0568674Y0125503D01*
X0568657Y0125486D01*
X0568645Y0125474D01*
X0568640Y0125468D01*
X0568571Y0125411D01*
X0568503Y0125360D01*
X0568423Y0125314D01*
X0568348Y0125280D01*
X0568274Y0125246D01*
X0568194Y0125217D01*
X0568051Y0125177D01*
X0567983Y0125166D01*
X0567920Y0125154D01*
X0567863Y0125149D01*
X0567817Y0125143D01*
X0567777Y0125137D01*
X0567720D01*
X0567618Y0125143D01*
X0567521Y0125154D01*
X0567423Y0125166D01*
X0567338Y0125189D01*
X0567258Y0125211D01*
X0567184Y0125240D01*
X0567115Y0125274D01*
X0567052Y0125303D01*
X0566995Y0125331D01*
X0566944Y0125366D01*
X0566904Y0125394D01*
X0566870Y0125417D01*
X0566841Y0125440D01*
X0566824Y0125457D01*
X0566813Y0125463D01*
X0566807Y0125468D01*
X0566744Y0125531D01*
X0566693Y0125600D01*
X0566641Y0125668D01*
X0566601Y0125742D01*
X0566567Y0125811D01*
X0566538Y0125880D01*
X0566498Y0126011D01*
X0566481Y0126068D01*
X0566470Y0126125D01*
X0566464Y0126171D01*
X0566458Y0126216D01*
X0566453Y0126251D01*
Y0126274D01*
Y0126291D01*
Y0126296D01*
X0566458Y0126422D01*
X0566481Y0126542D01*
X0566510Y0126645D01*
X0566544Y0126736D01*
X0566584Y0126810D01*
X0566613Y0126862D01*
X0566636Y0126896D01*
X0566641Y0126907D01*
X0566715Y0126999D01*
X0566801Y0127073D01*
X0566892Y0127136D01*
X0566978Y0127187D01*
X0567058Y0127227D01*
X0567127Y0127256D01*
X0567149Y0127267D01*
X0567167Y0127273D01*
X0567178Y0127278D01*
X0567184D01*
X0567081Y0127324D01*
X0566995Y0127370D01*
X0566921Y0127421D01*
X0566864Y0127473D01*
X0566818Y0127513D01*
X0566784Y0127547D01*
X0566761Y0127575D01*
X0566755Y0127581D01*
X0566710Y0127661D01*
X0566675Y0127741D01*
X0566647Y0127815D01*
X0566630Y0127889D01*
X0566618Y0127952D01*
X0566613Y0128004D01*
Y0128038D01*
Y0128044D01*
Y0128049D01*
X0566618Y0128123D01*
X0566624Y0128198D01*
X0566658Y0128335D01*
X0566710Y0128455D01*
X0566767Y0128558D01*
X0566824Y0128643D01*
X0566847Y0128677D01*
X0566875Y0128706D01*
X0566892Y0128729D01*
X0566910Y0128746D01*
X0566915Y0128752D01*
X0566921Y0128757D01*
X0566978Y0128809D01*
X0567047Y0128854D01*
X0567109Y0128894D01*
X0567178Y0128929D01*
X0567315Y0128980D01*
X0567441Y0129020D01*
X0567555Y0129037D01*
X0567606Y0129043D01*
X0567646Y0129049D01*
X0567680Y0129054D01*
X0567732D01*
X0567823Y0129049D01*
D02*
G37*
G36*
X0564837D02*
X0564923Y0129043D01*
X0565082Y0129009D01*
X0565219Y0128963D01*
X0565282Y0128940D01*
X0565334Y0128911D01*
X0565385Y0128883D01*
X0565431Y0128860D01*
X0565465Y0128837D01*
X0565493Y0128814D01*
X0565516Y0128797D01*
X0565539Y0128780D01*
X0565545Y0128774D01*
X0565551Y0128769D01*
X0565602Y0128712D01*
X0565648Y0128655D01*
X0565688Y0128597D01*
X0565722Y0128540D01*
X0565773Y0128420D01*
X0565807Y0128306D01*
X0565830Y0128209D01*
X0565836Y0128169D01*
X0565842Y0128129D01*
X0565847Y0128101D01*
Y0128078D01*
Y0128066D01*
Y0128061D01*
X0565842Y0127964D01*
X0565825Y0127872D01*
X0565802Y0127792D01*
X0565779Y0127724D01*
X0565756Y0127667D01*
X0565733Y0127621D01*
X0565716Y0127598D01*
X0565710Y0127587D01*
X0565648Y0127518D01*
X0565579Y0127455D01*
X0565511Y0127404D01*
X0565436Y0127358D01*
X0565374Y0127324D01*
X0565316Y0127301D01*
X0565282Y0127284D01*
X0565276Y0127278D01*
X0565271D01*
X0565396Y0127239D01*
X0565505Y0127187D01*
X0565596Y0127130D01*
X0565676Y0127073D01*
X0565733Y0127022D01*
X0565779Y0126976D01*
X0565802Y0126947D01*
X0565813Y0126942D01*
Y0126936D01*
X0565876Y0126839D01*
X0565922Y0126730D01*
X0565956Y0126628D01*
X0565979Y0126530D01*
X0565990Y0126439D01*
X0565996Y0126405D01*
Y0126371D01*
X0566002Y0126342D01*
Y0126325D01*
Y0126313D01*
Y0126308D01*
X0565996Y0126216D01*
X0565984Y0126125D01*
X0565967Y0126045D01*
X0565944Y0125965D01*
X0565893Y0125822D01*
X0565859Y0125760D01*
X0565825Y0125703D01*
X0565796Y0125645D01*
X0565762Y0125600D01*
X0565733Y0125560D01*
X0565705Y0125531D01*
X0565688Y0125503D01*
X0565670Y0125486D01*
X0565659Y0125474D01*
X0565653Y0125468D01*
X0565585Y0125411D01*
X0565516Y0125360D01*
X0565436Y0125314D01*
X0565362Y0125280D01*
X0565288Y0125246D01*
X0565208Y0125217D01*
X0565065Y0125177D01*
X0564997Y0125166D01*
X0564934Y0125154D01*
X0564877Y0125149D01*
X0564831Y0125143D01*
X0564791Y0125137D01*
X0564734D01*
X0564631Y0125143D01*
X0564534Y0125154D01*
X0564437Y0125166D01*
X0564352Y0125189D01*
X0564271Y0125211D01*
X0564197Y0125240D01*
X0564129Y0125274D01*
X0564066Y0125303D01*
X0564009Y0125331D01*
X0563958Y0125366D01*
X0563917Y0125394D01*
X0563883Y0125417D01*
X0563855Y0125440D01*
X0563838Y0125457D01*
X0563826Y0125463D01*
X0563820Y0125468D01*
X0563758Y0125531D01*
X0563706Y0125600D01*
X0563655Y0125668D01*
X0563615Y0125742D01*
X0563581Y0125811D01*
X0563552Y0125880D01*
X0563512Y0126011D01*
X0563495Y0126068D01*
X0563483Y0126125D01*
X0563478Y0126171D01*
X0563472Y0126216D01*
X0563466Y0126251D01*
Y0126274D01*
Y0126291D01*
Y0126296D01*
X0563472Y0126422D01*
X0563495Y0126542D01*
X0563523Y0126645D01*
X0563558Y0126736D01*
X0563598Y0126810D01*
X0563626Y0126862D01*
X0563649Y0126896D01*
X0563655Y0126907D01*
X0563729Y0126999D01*
X0563815Y0127073D01*
X0563906Y0127136D01*
X0563992Y0127187D01*
X0564072Y0127227D01*
X0564140Y0127256D01*
X0564163Y0127267D01*
X0564180Y0127273D01*
X0564192Y0127278D01*
X0564197D01*
X0564094Y0127324D01*
X0564009Y0127370D01*
X0563935Y0127421D01*
X0563877Y0127473D01*
X0563832Y0127513D01*
X0563798Y0127547D01*
X0563775Y0127575D01*
X0563769Y0127581D01*
X0563723Y0127661D01*
X0563689Y0127741D01*
X0563660Y0127815D01*
X0563643Y0127889D01*
X0563632Y0127952D01*
X0563626Y0128004D01*
Y0128038D01*
Y0128044D01*
Y0128049D01*
X0563632Y0128123D01*
X0563638Y0128198D01*
X0563672Y0128335D01*
X0563723Y0128455D01*
X0563780Y0128558D01*
X0563838Y0128643D01*
X0563860Y0128677D01*
X0563889Y0128706D01*
X0563906Y0128729D01*
X0563923Y0128746D01*
X0563929Y0128752D01*
X0563935Y0128757D01*
X0563992Y0128809D01*
X0564060Y0128854D01*
X0564123Y0128894D01*
X0564192Y0128929D01*
X0564329Y0128980D01*
X0564454Y0129020D01*
X0564568Y0129037D01*
X0564620Y0129043D01*
X0564660Y0129049D01*
X0564694Y0129054D01*
X0564745D01*
X0564837Y0129049D01*
D02*
G37*
%LPC*%
G36*
X0564963Y0166566D02*
X0564934D01*
X0564825Y0166554D01*
X0564723Y0166526D01*
X0564631Y0166492D01*
X0564557Y0166446D01*
X0564494Y0166400D01*
X0564449Y0166366D01*
X0564420Y0166338D01*
X0564409Y0166326D01*
X0564334Y0166229D01*
X0564283Y0166126D01*
X0564243Y0166018D01*
X0564220Y0165915D01*
X0564203Y0165824D01*
X0564197Y0165784D01*
Y0165749D01*
X0564192Y0165721D01*
Y0165698D01*
Y0165687D01*
Y0165681D01*
X0564203Y0165538D01*
X0564226Y0165413D01*
X0564260Y0165304D01*
X0564294Y0165213D01*
X0564334Y0165138D01*
X0564369Y0165087D01*
X0564392Y0165059D01*
X0564403Y0165047D01*
X0564489Y0164973D01*
X0564574Y0164916D01*
X0564666Y0164876D01*
X0564751Y0164847D01*
X0564831Y0164830D01*
X0564888Y0164824D01*
X0564911Y0164819D01*
X0564945D01*
X0565060Y0164830D01*
X0565168Y0164853D01*
X0565260Y0164893D01*
X0565339Y0164933D01*
X0565408Y0164973D01*
X0565454Y0165013D01*
X0565482Y0165036D01*
X0565494Y0165047D01*
X0565568Y0165138D01*
X0565619Y0165235D01*
X0565659Y0165338D01*
X0565682Y0165430D01*
X0565699Y0165515D01*
X0565705Y0165578D01*
X0565711Y0165607D01*
Y0165624D01*
Y0165635D01*
Y0165641D01*
X0565699Y0165789D01*
X0565676Y0165921D01*
X0565636Y0166035D01*
X0565596Y0166132D01*
X0565556Y0166206D01*
X0565516Y0166263D01*
X0565505Y0166280D01*
X0565494Y0166298D01*
X0565482Y0166309D01*
X0565437Y0166355D01*
X0565391Y0166395D01*
X0565300Y0166457D01*
X0565208Y0166503D01*
X0565123Y0166532D01*
X0565048Y0166554D01*
X0564985Y0166560D01*
X0564963Y0166566D01*
D02*
G37*
G36*
X0567972D02*
X0567926D01*
X0567829Y0166560D01*
X0567743Y0166537D01*
X0567669Y0166509D01*
X0567601Y0166480D01*
X0567549Y0166446D01*
X0567515Y0166418D01*
X0567486Y0166395D01*
X0567481Y0166389D01*
X0567418Y0166320D01*
X0567372Y0166246D01*
X0567344Y0166172D01*
X0567321Y0166103D01*
X0567309Y0166041D01*
X0567298Y0165995D01*
Y0165961D01*
Y0165955D01*
Y0165949D01*
X0567304Y0165864D01*
X0567326Y0165778D01*
X0567355Y0165709D01*
X0567384Y0165647D01*
X0567418Y0165601D01*
X0567446Y0165561D01*
X0567469Y0165538D01*
X0567475Y0165533D01*
X0567544Y0165475D01*
X0567618Y0165435D01*
X0567692Y0165401D01*
X0567761Y0165384D01*
X0567823Y0165373D01*
X0567875Y0165367D01*
X0567909Y0165361D01*
X0567920D01*
X0568023Y0165367D01*
X0568115Y0165390D01*
X0568189Y0165418D01*
X0568257Y0165447D01*
X0568309Y0165481D01*
X0568343Y0165504D01*
X0568371Y0165527D01*
X0568377Y0165533D01*
X0568434Y0165601D01*
X0568474Y0165675D01*
X0568508Y0165749D01*
X0568526Y0165818D01*
X0568537Y0165881D01*
X0568543Y0165932D01*
X0568548Y0165966D01*
Y0165972D01*
Y0165978D01*
X0568543Y0166063D01*
X0568520Y0166143D01*
X0568491Y0166212D01*
X0568463Y0166275D01*
X0568429Y0166320D01*
X0568406Y0166360D01*
X0568383Y0166383D01*
X0568377Y0166389D01*
X0568309Y0166446D01*
X0568234Y0166492D01*
X0568154Y0166520D01*
X0568086Y0166543D01*
X0568023Y0166554D01*
X0567972Y0166566D01*
D02*
G37*
G36*
Y0164979D02*
X0567938D01*
X0567812Y0164967D01*
X0567703Y0164944D01*
X0567606Y0164910D01*
X0567521Y0164870D01*
X0567458Y0164824D01*
X0567407Y0164790D01*
X0567378Y0164767D01*
X0567367Y0164756D01*
X0567292Y0164670D01*
X0567235Y0164573D01*
X0567195Y0164482D01*
X0567167Y0164391D01*
X0567149Y0164311D01*
X0567144Y0164248D01*
X0567138Y0164225D01*
Y0164208D01*
Y0164196D01*
Y0164191D01*
X0567149Y0164071D01*
X0567172Y0163968D01*
X0567207Y0163871D01*
X0567247Y0163791D01*
X0567292Y0163728D01*
X0567326Y0163682D01*
X0567349Y0163654D01*
X0567361Y0163643D01*
X0567446Y0163568D01*
X0567538Y0163517D01*
X0567635Y0163477D01*
X0567721Y0163454D01*
X0567800Y0163437D01*
X0567863Y0163431D01*
X0567886Y0163426D01*
X0567920D01*
X0568000Y0163431D01*
X0568075Y0163443D01*
X0568143Y0163460D01*
X0568206Y0163477D01*
X0568257Y0163494D01*
X0568292Y0163511D01*
X0568314Y0163523D01*
X0568326Y0163528D01*
X0568394Y0163568D01*
X0568451Y0163620D01*
X0568497Y0163665D01*
X0568537Y0163711D01*
X0568571Y0163757D01*
X0568594Y0163791D01*
X0568606Y0163814D01*
X0568611Y0163820D01*
X0568640Y0163888D01*
X0568663Y0163962D01*
X0568680Y0164025D01*
X0568691Y0164082D01*
X0568697Y0164134D01*
X0568703Y0164173D01*
Y0164196D01*
Y0164208D01*
X0568691Y0164328D01*
X0568668Y0164436D01*
X0568634Y0164527D01*
X0568594Y0164607D01*
X0568554Y0164670D01*
X0568520Y0164716D01*
X0568497Y0164744D01*
X0568486Y0164756D01*
X0568400Y0164830D01*
X0568309Y0164887D01*
X0568217Y0164927D01*
X0568132Y0164950D01*
X0568052Y0164967D01*
X0567995Y0164973D01*
X0567972Y0164979D01*
D02*
G37*
G36*
X0567772Y0128666D02*
X0567726D01*
X0567629Y0128660D01*
X0567543Y0128637D01*
X0567469Y0128609D01*
X0567401Y0128580D01*
X0567349Y0128546D01*
X0567315Y0128517D01*
X0567286Y0128495D01*
X0567281Y0128489D01*
X0567218Y0128420D01*
X0567172Y0128346D01*
X0567144Y0128272D01*
X0567121Y0128203D01*
X0567109Y0128141D01*
X0567098Y0128095D01*
Y0128061D01*
Y0128055D01*
Y0128049D01*
X0567104Y0127964D01*
X0567127Y0127878D01*
X0567155Y0127810D01*
X0567184Y0127747D01*
X0567218Y0127701D01*
X0567246Y0127661D01*
X0567269Y0127638D01*
X0567275Y0127632D01*
X0567344Y0127575D01*
X0567418Y0127535D01*
X0567492Y0127501D01*
X0567560Y0127484D01*
X0567623Y0127473D01*
X0567675Y0127467D01*
X0567709Y0127461D01*
X0567720D01*
X0567823Y0127467D01*
X0567914Y0127490D01*
X0567989Y0127518D01*
X0568057Y0127547D01*
X0568109Y0127581D01*
X0568143Y0127604D01*
X0568171Y0127627D01*
X0568177Y0127632D01*
X0568234Y0127701D01*
X0568274Y0127775D01*
X0568308Y0127849D01*
X0568326Y0127918D01*
X0568337Y0127981D01*
X0568343Y0128032D01*
X0568348Y0128066D01*
Y0128072D01*
Y0128078D01*
X0568343Y0128164D01*
X0568320Y0128243D01*
X0568291Y0128312D01*
X0568263Y0128375D01*
X0568228Y0128420D01*
X0568206Y0128460D01*
X0568183Y0128483D01*
X0568177Y0128489D01*
X0568109Y0128546D01*
X0568034Y0128592D01*
X0567954Y0128620D01*
X0567886Y0128643D01*
X0567823Y0128655D01*
X0567772Y0128666D01*
D02*
G37*
G36*
Y0127079D02*
X0567737D01*
X0567612Y0127067D01*
X0567503Y0127044D01*
X0567406Y0127010D01*
X0567321Y0126970D01*
X0567258Y0126924D01*
X0567206Y0126890D01*
X0567178Y0126867D01*
X0567167Y0126856D01*
X0567092Y0126770D01*
X0567035Y0126673D01*
X0566995Y0126582D01*
X0566967Y0126490D01*
X0566950Y0126410D01*
X0566944Y0126348D01*
X0566938Y0126325D01*
Y0126308D01*
Y0126296D01*
Y0126291D01*
X0566950Y0126171D01*
X0566972Y0126068D01*
X0567007Y0125971D01*
X0567047Y0125891D01*
X0567092Y0125828D01*
X0567127Y0125782D01*
X0567149Y0125754D01*
X0567161Y0125742D01*
X0567246Y0125668D01*
X0567338Y0125617D01*
X0567435Y0125577D01*
X0567521Y0125554D01*
X0567600Y0125537D01*
X0567663Y0125531D01*
X0567686Y0125525D01*
X0567720D01*
X0567800Y0125531D01*
X0567874Y0125543D01*
X0567943Y0125560D01*
X0568006Y0125577D01*
X0568057Y0125594D01*
X0568091Y0125611D01*
X0568114Y0125622D01*
X0568126Y0125628D01*
X0568194Y0125668D01*
X0568251Y0125720D01*
X0568297Y0125765D01*
X0568337Y0125811D01*
X0568371Y0125857D01*
X0568394Y0125891D01*
X0568406Y0125914D01*
X0568411Y0125919D01*
X0568440Y0125988D01*
X0568463Y0126062D01*
X0568480Y0126125D01*
X0568491Y0126182D01*
X0568497Y0126233D01*
X0568503Y0126274D01*
Y0126296D01*
Y0126308D01*
X0568491Y0126428D01*
X0568468Y0126536D01*
X0568434Y0126628D01*
X0568394Y0126707D01*
X0568354Y0126770D01*
X0568320Y0126816D01*
X0568297Y0126845D01*
X0568286Y0126856D01*
X0568200Y0126930D01*
X0568109Y0126987D01*
X0568017Y0127027D01*
X0567932Y0127050D01*
X0567852Y0127067D01*
X0567795Y0127073D01*
X0567772Y0127079D01*
D02*
G37*
G36*
X0564785Y0128666D02*
X0564740D01*
X0564643Y0128660D01*
X0564557Y0128637D01*
X0564483Y0128609D01*
X0564414Y0128580D01*
X0564363Y0128546D01*
X0564329Y0128517D01*
X0564300Y0128495D01*
X0564294Y0128489D01*
X0564231Y0128420D01*
X0564186Y0128346D01*
X0564157Y0128272D01*
X0564135Y0128203D01*
X0564123Y0128141D01*
X0564112Y0128095D01*
Y0128061D01*
Y0128055D01*
Y0128049D01*
X0564117Y0127964D01*
X0564140Y0127878D01*
X0564169Y0127810D01*
X0564197Y0127747D01*
X0564231Y0127701D01*
X0564260Y0127661D01*
X0564283Y0127638D01*
X0564289Y0127632D01*
X0564357Y0127575D01*
X0564431Y0127535D01*
X0564506Y0127501D01*
X0564574Y0127484D01*
X0564637Y0127473D01*
X0564688Y0127467D01*
X0564723Y0127461D01*
X0564734D01*
X0564837Y0127467D01*
X0564928Y0127490D01*
X0565002Y0127518D01*
X0565071Y0127547D01*
X0565122Y0127581D01*
X0565157Y0127604D01*
X0565185Y0127627D01*
X0565191Y0127632D01*
X0565248Y0127701D01*
X0565288Y0127775D01*
X0565322Y0127849D01*
X0565339Y0127918D01*
X0565351Y0127981D01*
X0565356Y0128032D01*
X0565362Y0128066D01*
Y0128072D01*
Y0128078D01*
X0565356Y0128164D01*
X0565334Y0128243D01*
X0565305Y0128312D01*
X0565276Y0128375D01*
X0565242Y0128420D01*
X0565219Y0128460D01*
X0565197Y0128483D01*
X0565191Y0128489D01*
X0565122Y0128546D01*
X0565048Y0128592D01*
X0564968Y0128620D01*
X0564900Y0128643D01*
X0564837Y0128655D01*
X0564785Y0128666D01*
D02*
G37*
G36*
Y0127079D02*
X0564751D01*
X0564626Y0127067D01*
X0564517Y0127044D01*
X0564420Y0127010D01*
X0564334Y0126970D01*
X0564271Y0126924D01*
X0564220Y0126890D01*
X0564192Y0126867D01*
X0564180Y0126856D01*
X0564106Y0126770D01*
X0564049Y0126673D01*
X0564009Y0126582D01*
X0563980Y0126490D01*
X0563963Y0126410D01*
X0563958Y0126348D01*
X0563952Y0126325D01*
Y0126308D01*
Y0126296D01*
Y0126291D01*
X0563963Y0126171D01*
X0563986Y0126068D01*
X0564020Y0125971D01*
X0564060Y0125891D01*
X0564106Y0125828D01*
X0564140Y0125782D01*
X0564163Y0125754D01*
X0564174Y0125742D01*
X0564260Y0125668D01*
X0564352Y0125617D01*
X0564448Y0125577D01*
X0564534Y0125554D01*
X0564614Y0125537D01*
X0564677Y0125531D01*
X0564700Y0125525D01*
X0564734D01*
X0564814Y0125531D01*
X0564888Y0125543D01*
X0564957Y0125560D01*
X0565020Y0125577D01*
X0565071Y0125594D01*
X0565105Y0125611D01*
X0565128Y0125622D01*
X0565139Y0125628D01*
X0565208Y0125668D01*
X0565265Y0125720D01*
X0565311Y0125765D01*
X0565351Y0125811D01*
X0565385Y0125857D01*
X0565408Y0125891D01*
X0565419Y0125914D01*
X0565425Y0125919D01*
X0565453Y0125988D01*
X0565476Y0126062D01*
X0565493Y0126125D01*
X0565505Y0126182D01*
X0565511Y0126233D01*
X0565516Y0126274D01*
Y0126296D01*
Y0126308D01*
X0565505Y0126428D01*
X0565482Y0126536D01*
X0565448Y0126628D01*
X0565408Y0126707D01*
X0565368Y0126770D01*
X0565334Y0126816D01*
X0565311Y0126845D01*
X0565299Y0126856D01*
X0565214Y0126930D01*
X0565122Y0126987D01*
X0565031Y0127027D01*
X0564945Y0127050D01*
X0564865Y0127067D01*
X0564808Y0127073D01*
X0564785Y0127079D01*
D02*
G37*
%LPD*%
D10*
X0511221Y0358858D02*
G03*
X0511221Y0358858I-0011417J0000000D01*
G01*
X0373327Y0241240D02*
G03*
X0373327Y0241240I-0009843J0000000D01*
G01*
X0445177Y0358661D02*
G03*
X0445177Y0358661I-0011417J0000000D01*
G01*
X0220669Y0358465D02*
G03*
X0220669Y0358465I-0011417J0000000D01*
G01*
X0249834Y0530020D02*
G03*
X0249834Y0530020I-0019815J0000000D01*
G01*
X0376378Y0358465D02*
G03*
X0376378Y0358465I-0011417J0000000D01*
G01*
X0140650Y0358563D02*
G03*
X0140650Y0358563I-0011417J0000000D01*
G01*
X0296850Y0358465D02*
G03*
X0296850Y0358465I-0011614J0000000D01*
G01*
X0123653Y0246555D02*
G03*
X0123653Y0246555I-0019815J0000000D01*
G01*
Y0305610D02*
G03*
X0123653Y0305610I-0019815J0000000D01*
G01*
X0728607Y0060562D02*
X0769946D01*
X0728607Y0101901D02*
X0769946D01*
Y0060562D02*
Y0101901D01*
X0728607Y0060562D02*
Y0101901D01*
X0083366Y0511122D02*
X0122736D01*
X0083366Y0550492D02*
X0122736D01*
Y0511122D02*
Y0550492D01*
X0083366Y0511122D02*
Y0550492D01*
X0083169Y0060630D02*
X0124508D01*
X0083169Y0101969D02*
X0124508D01*
Y0060630D02*
Y0101969D01*
X0083169Y0060630D02*
Y0101969D01*
X0728722Y0509395D02*
X0770061D01*
X0728722Y0550734D02*
X0770061D01*
Y0509395D02*
Y0550734D01*
X0728722Y0509395D02*
Y0550734D01*
D11*
X0684935Y0272756D02*
G03*
X0684935Y0272756I-0003400J0000000D01*
G01*
X0710782Y0272992D02*
G03*
X0710782Y0272992I-0003400J0000000D01*
G01*
X0315113Y0227362D02*
G03*
X0315113Y0227362I-0003400J0000000D01*
G01*
X0554679Y0504921D02*
G03*
X0554679Y0504921I-0003400J0000000D01*
G01*
X0193656Y0313189D02*
G03*
X0193656Y0313189I-0003400J0000000D01*
G01*
X0564404Y0289291D02*
G03*
X0564404Y0289291I-0003400J0000000D01*
G01*
X0588498Y0228937D02*
G03*
X0588498Y0228937I-0003400J0000000D01*
G01*
X0588341Y0317913D02*
G03*
X0588341Y0317913I-0003400J0000000D01*
G01*
X0509601Y0459154D02*
G03*
X0509601Y0459154I-0003400J0000000D01*
G01*
X0522593Y0469783D02*
G03*
X0522593Y0469783I-0003400J0000000D01*
G01*
X0584207Y0347539D02*
G03*
X0584207Y0347539I-0003400J0000000D01*
G01*
X0332140Y0406004D02*
G03*
X0332140Y0406004I-0003400J0000000D01*
G01*
X0340310Y0437303D02*
G03*
X0340310Y0437303I-0003400J0000000D01*
G01*
X0267081Y0278248D02*
G03*
X0267081Y0278248I-0003400J0000000D01*
G01*
X0236077Y0307087D02*
G03*
X0236077Y0307087I-0003400J0000000D01*
G01*
X0266884Y0293209D02*
G03*
X0266884Y0293209I-0003400J0000000D01*
G01*
X0339916Y0392421D02*
G03*
X0339916Y0392421I-0003400J0000000D01*
G01*
X0314424Y0416437D02*
G03*
X0314424Y0416437I-0003400J0000000D01*
G01*
X0322790D02*
G03*
X0322790Y0416437I-0003400J0000000D01*
G01*
X0255762Y0421949D02*
G03*
X0255762Y0421949I-0003400J0000000D01*
G01*
X0263833Y0421850D02*
G03*
X0263833Y0421850I-0003400J0000000D01*
G01*
X0302514Y0437303D02*
G03*
X0302514Y0437303I-0003400J0000000D01*
G01*
X0337160Y0312992D02*
G03*
X0337160Y0312992I-0003400J0000000D01*
G01*
X0326825Y0300394D02*
G03*
X0326825Y0300394I-0003400J0000000D01*
G01*
X0237750Y0366043D02*
G03*
X0237750Y0366043I-0003400J0000000D01*
G01*
X0229679Y0359646D02*
G03*
X0229679Y0359646I-0003400J0000000D01*
G01*
X0210487Y0406595D02*
G03*
X0210487Y0406595I-0003400J0000000D01*
G01*
X0417967Y0419193D02*
G03*
X0417967Y0419193I-0003400J0000000D01*
G01*
X0164325Y0433169D02*
G03*
X0164325Y0433169I-0003400J0000000D01*
G01*
X0290802Y0464272D02*
G03*
X0290802Y0464272I-0003400J0000000D01*
G01*
X0317475Y0480610D02*
G03*
X0317475Y0480610I-0003400J0000000D01*
G01*
X0299955Y0480709D02*
G03*
X0299955Y0480709I-0003400J0000000D01*
G01*
X0240802Y0174705D02*
G03*
X0240802Y0174705I-0003400J0000000D01*
G01*
X0334995Y0193012D02*
G03*
X0334995Y0193012I-0003400J0000000D01*
G01*
X0343361Y0205020D02*
G03*
X0343361Y0205020I-0003400J0000000D01*
G01*
X0252120Y0199705D02*
G03*
X0252120Y0199705I-0003400J0000000D01*
G01*
X0342672Y0193012D02*
G03*
X0342672Y0193012I-0003400J0000000D01*
G01*
X0295034Y0131988D02*
G03*
X0295034Y0131988I-0003400J0000000D01*
G01*
X0343656Y0106201D02*
G03*
X0343656Y0106201I-0003400J0000000D01*
G01*
X0405073Y0188779D02*
G03*
X0405073Y0188779I-0003400J0000000D01*
G01*
X0251431Y0191339D02*
G03*
X0251431Y0191339I-0003400J0000000D01*
G01*
X0288144Y0216831D02*
G03*
X0288144Y0216831I-0003400J0000000D01*
G01*
X0311274Y0220276D02*
G03*
X0311274Y0220276I-0003400J0000000D01*
G01*
X0387750Y0203937D02*
G03*
X0387750Y0203937I-0003400J0000000D01*
G01*
X0387947Y0212205D02*
G03*
X0387947Y0212205I-0003400J0000000D01*
G01*
X0285585Y0101181D02*
G03*
X0285585Y0101181I-0003400J0000000D01*
G01*
X0334404Y0118898D02*
G03*
X0334404Y0118898I-0003400J0000000D01*
G01*
X0344837Y0117717D02*
G03*
X0344837Y0117717I-0003400J0000000D01*
G01*
X0259404Y0181201D02*
G03*
X0259404Y0181201I-0003400J0000000D01*
G01*
X0194148Y0305807D02*
G03*
X0194148Y0305807I-0003400J0000000D01*
G01*
X0193558Y0320472D02*
G03*
X0193558Y0320472I-0003400J0000000D01*
G01*
X0113636Y0334646D02*
G03*
X0113636Y0334646I-0003400J0000000D01*
G01*
X0165802Y0311417D02*
G03*
X0165802Y0311417I-0003400J0000000D01*
G01*
X0406845Y0283071D02*
G03*
X0406845Y0283071I-0003400J0000000D01*
G01*
X0352180Y0334744D02*
G03*
X0352180Y0334744I-0003400J0000000D01*
G01*
X0414424Y0274606D02*
G03*
X0414424Y0274606I-0003400J0000000D01*
G01*
X0434601Y0304724D02*
G03*
X0434601Y0304724I-0003400J0000000D01*
G01*
X0430959Y0275787D02*
G03*
X0430959Y0275787I-0003400J0000000D01*
G01*
X0440211Y0242150D02*
X0441411D01*
X0440211Y0238950D02*
X0441411D01*
X0575551Y0103189D02*
Y0122874D01*
X0524370Y0103189D02*
X0575551D01*
X0524370Y0122874D02*
X0575551D01*
X0524370Y0103189D02*
Y0122874D01*
X0550945Y0113031D02*
X0563740D01*
X0536181D02*
X0548976D01*
X0550945Y0105157D02*
Y0120905D01*
X0548976Y0105157D02*
Y0120905D01*
X0524547Y0141063D02*
Y0160748D01*
X0575728D01*
X0524547Y0141063D02*
X0575728D01*
Y0160748D01*
X0536358Y0150906D02*
X0549154D01*
X0551122D02*
X0563917D01*
X0549154Y0143032D02*
Y0158780D01*
X0551122Y0143032D02*
Y0158780D01*
X0400181Y0169567D02*
X0407681D01*
X0408681Y0168567D01*
Y0160567D02*
Y0168567D01*
X0400181Y0159567D02*
X0407681D01*
X0408681Y0160567D01*
X0349681Y0169567D02*
X0357181D01*
X0348681Y0168567D02*
X0349681Y0169567D01*
X0348681Y0160567D02*
Y0168567D01*
X0349681Y0159567D02*
X0357181D01*
X0348681Y0160567D02*
X0349681Y0159567D01*
X0378181Y0160567D02*
X0379181D01*
X0377181Y0159567D02*
X0378181Y0160567D01*
X0368181D02*
X0369181D01*
X0379181D02*
X0380181Y0159567D01*
X0388181Y0160567D02*
X0389181D01*
X0387181Y0159567D02*
X0388181Y0160567D01*
X0380181Y0159567D02*
X0387181D01*
X0389181Y0160567D02*
X0390181Y0159567D01*
X0398181Y0160567D02*
X0399181D01*
X0397181Y0159567D02*
X0398181Y0160567D01*
X0390181Y0159567D02*
X0397181Y0159567D01*
X0399181Y0160567D02*
X0400181Y0159567D01*
X0367181Y0159567D02*
X0368181Y0160567D01*
X0358181D02*
X0359181D01*
X0369181D02*
X0370181Y0159567D01*
X0377181Y0159567D01*
X0357181Y0159567D02*
X0358181Y0160567D01*
X0359181D02*
X0360181Y0159567D01*
X0367181Y0159567D01*
X0378181Y0168567D02*
X0379181D01*
X0380181Y0169567D01*
X0388181Y0168567D02*
X0389181D01*
X0377181Y0169567D02*
X0378181Y0168567D01*
X0368181D02*
X0369181D01*
X0370181Y0169567D01*
X0377181Y0169567D01*
X0367181D02*
X0368181Y0168567D01*
X0358181D02*
X0359181D01*
X0360181Y0169567D01*
X0367181Y0169567D01*
X0357181Y0169567D02*
X0358181Y0168567D01*
X0389181D02*
X0390181Y0169567D01*
X0398181Y0168567D02*
X0399181D01*
X0387181Y0169567D02*
X0388181Y0168567D01*
X0380181Y0169567D02*
X0387181D01*
X0399181Y0168567D02*
X0400181Y0169567D01*
X0397181D02*
X0398181Y0168567D01*
X0390181Y0169567D02*
X0397181Y0169567D01*
X0568732Y0276803D02*
X0568732Y0266173D01*
X0564732D02*
X0568732D01*
X0564732D02*
X0564732Y0276803D01*
X0568732D01*
X0295933Y0230106D02*
X0299933D01*
X0299933Y0240736D01*
X0295933D02*
X0299933D01*
X0295933D02*
X0295933Y0230106D01*
X0415433Y0264508D02*
X0428031D01*
X0415433Y0244823D02*
X0428031D01*
Y0264508D01*
X0415433Y0244823D02*
Y0264508D01*
X0570547Y0242224D02*
Y0253642D01*
X0573547D01*
Y0242224D02*
Y0253642D01*
X0570547Y0242224D02*
X0573547D01*
X0550984Y0244858D02*
Y0247858D01*
Y0244858D02*
X0562402D01*
Y0247858D01*
X0550984D02*
X0562402D01*
X0291052Y0217449D02*
X0293881Y0220278D01*
X0291052Y0217449D02*
X0298569Y0209933D01*
X0301397Y0212761D01*
X0293881Y0220278D02*
X0301397Y0212761D01*
X0362525Y0212676D02*
X0362525Y0202046D01*
X0358525Y0202046D02*
X0362525Y0202046D01*
X0358525Y0202046D02*
X0358525Y0212676D01*
X0362525D01*
X0247379Y0098706D02*
X0258009D01*
X0247379D02*
Y0102706D01*
X0258009Y0102706D01*
X0258009Y0098706D01*
X0272902Y0113170D02*
X0281811Y0122078D01*
X0266221Y0119851D02*
X0275129Y0128759D01*
X0281811Y0122078D01*
X0266221Y0119851D02*
X0272902Y0113170D01*
X0207874Y0429429D02*
Y0442028D01*
X0227559Y0429429D02*
Y0442028D01*
X0207874D02*
X0227559D01*
X0207874Y0429429D02*
X0227559D01*
X0271135Y0188283D02*
X0271135Y0177653D01*
X0271135Y0188283D02*
X0275135D01*
Y0177653D02*
Y0188283D01*
X0271135Y0177653D02*
X0275135D01*
X0252510Y0154940D02*
X0265109D01*
X0252510Y0164389D02*
X0265109Y0164389D01*
Y0154940D02*
Y0164389D01*
X0252510Y0154940D02*
X0252510Y0164389D01*
X0309802Y0111816D02*
Y0124415D01*
X0300353Y0111816D02*
Y0124415D01*
X0309802D01*
X0300353Y0111816D02*
X0309802D01*
X0213386Y0375984D02*
X0225984D01*
X0213386Y0395669D02*
X0225984D01*
X0213386Y0375984D02*
Y0395669D01*
X0225984Y0375984D02*
Y0395669D01*
X0278003Y0200672D02*
X0280831Y0203500D01*
X0273315Y0211017D02*
X0280831Y0203500D01*
X0270486Y0208188D02*
X0273315Y0211017D01*
X0270486Y0208188D02*
X0278003Y0200672D01*
X0250710Y0207233D02*
X0251559Y0206385D01*
X0252973Y0209496D02*
X0253822Y0208647D01*
X0254886Y0211548D02*
X0255735Y0210700D01*
X0257149Y0213811D02*
X0257997Y0212963D01*
X0267933Y0222816D02*
X0268781Y0221968D01*
X0270195Y0225079D02*
X0271044Y0224231D01*
X0272066Y0226950D02*
X0272915Y0226102D01*
X0274329Y0229213D02*
X0275178Y0228365D01*
X0307941Y0428827D02*
X0311941D01*
Y0439457D01*
X0307941D02*
X0311941D01*
X0307941Y0428827D02*
Y0439457D01*
X0303610Y0455500D02*
X0307610D01*
X0307610Y0466130D02*
X0307610Y0455500D01*
X0303610Y0466130D02*
X0307610D01*
X0303610D02*
X0303610Y0455500D01*
X0126176Y0291340D02*
X0131304D01*
X0126176Y0292518D02*
X0131304D01*
X0138327Y0290232D02*
Y0293232D01*
X0133327Y0290232D02*
Y0293232D01*
X0145610Y0290035D02*
Y0293035D01*
X0140610Y0290035D02*
Y0293035D01*
X0147535Y0291005D02*
X0152662D01*
X0147535Y0292183D02*
X0152662D01*
X0221649Y0292738D02*
X0226776D01*
X0221649Y0293916D02*
X0226776D01*
X0232358Y0287992D02*
X0235358D01*
X0232358Y0292992D02*
X0235358D01*
X0406102Y0095866D02*
X0425787D01*
X0406102Y0083268D02*
X0425787D01*
X0406102D02*
Y0095866D01*
X0425787Y0083268D02*
Y0095866D01*
X0351555Y0357071D02*
X0351555Y0364071D01*
X0350555Y0356071D02*
X0351555Y0357071D01*
X0350555Y0355071D02*
X0351555Y0354071D01*
X0351555Y0367071D02*
Y0374071D01*
X0350555Y0366071D02*
X0351555Y0367071D01*
X0350555Y0355071D02*
Y0356071D01*
Y0365071D02*
X0351555Y0364071D01*
X0350555Y0396071D02*
X0351555Y0397071D01*
Y0387071D02*
Y0394071D01*
X0350555Y0395071D02*
X0351555Y0394071D01*
X0350555Y0395071D02*
Y0396071D01*
Y0386071D02*
X0351555Y0387071D01*
Y0377071D02*
Y0384071D01*
X0350555Y0385071D02*
X0351555Y0384071D01*
X0350555Y0385071D02*
Y0386071D01*
Y0376071D02*
X0351555Y0377071D01*
X0350555Y0365071D02*
Y0366071D01*
Y0375071D02*
X0351555Y0374071D01*
X0350555Y0375071D02*
Y0376071D01*
X0341555Y0387071D02*
Y0394071D01*
X0342555Y0395071D01*
X0341555Y0397071D02*
X0342555Y0396071D01*
X0341555Y0377071D02*
Y0384071D01*
X0342555Y0385071D01*
Y0395071D02*
Y0396071D01*
X0341555Y0387071D02*
X0342555Y0386071D01*
X0341555Y0354071D02*
X0342555Y0355071D01*
X0341555Y0364071D02*
X0341555Y0357071D01*
X0342555Y0356071D01*
Y0355071D02*
Y0356071D01*
X0341555Y0364071D02*
X0342555Y0365071D01*
X0341555Y0367071D02*
Y0374071D01*
Y0367071D02*
X0342555Y0366071D01*
Y0365071D02*
Y0366071D01*
X0341555Y0374071D02*
X0342555Y0375071D01*
Y0385071D02*
Y0386071D01*
X0341555Y0377071D02*
X0342555Y0376071D01*
Y0375071D02*
Y0376071D01*
X0341555Y0404571D02*
X0342555Y0405571D01*
X0341555Y0397071D02*
Y0404571D01*
X0342555Y0405571D02*
X0350555D01*
X0351555Y0404571D01*
Y0397071D02*
Y0404571D01*
X0341555Y0346571D02*
X0342555Y0345571D01*
X0341555Y0346571D02*
Y0354071D01*
X0342555Y0345571D02*
X0350555D01*
X0351555Y0346571D01*
Y0354071D01*
X0299299Y0519224D02*
X0309929Y0519224D01*
Y0515224D02*
Y0519224D01*
X0299299Y0515224D02*
X0309929Y0515224D01*
X0299299Y0515224D02*
X0299299Y0519224D01*
X0299306Y0293935D02*
X0304434D01*
X0299306Y0292758D02*
X0304434D01*
X0309917Y0287874D02*
X0312917D01*
X0309917Y0292874D02*
X0312917D01*
X0281878Y0308988D02*
X0292508Y0308988D01*
Y0304988D02*
Y0308988D01*
X0281878Y0304988D02*
X0292508Y0304988D01*
X0281878Y0304988D02*
Y0308988D01*
X0285886Y0290724D02*
Y0293724D01*
X0290886Y0290724D02*
Y0293724D01*
X0279095Y0290724D02*
Y0293724D01*
X0284095Y0290724D02*
Y0293724D01*
X0204122Y0308693D02*
X0214752Y0308693D01*
Y0304693D02*
Y0308693D01*
X0204122Y0304693D02*
X0214752Y0304693D01*
X0204122Y0304693D02*
Y0308693D01*
X0210492Y0290232D02*
Y0293232D01*
X0215492Y0290232D02*
Y0293232D01*
X0203799Y0290232D02*
Y0293232D01*
X0208799Y0290232D02*
Y0293232D01*
X0190157Y0382874D02*
X0192126D01*
X0181102D02*
X0183028D01*
X0190157Y0378937D02*
Y0382874D01*
X0183071Y0378937D02*
Y0382874D01*
X0190157Y0378937D02*
X0192126D01*
X0190157Y0397047D02*
X0192126D01*
X0181102Y0378937D02*
X0183071D01*
X0181102Y0397047D02*
X0183071D01*
X0192126Y0378937D02*
Y0397047D01*
X0181102Y0378937D02*
Y0397047D01*
X0164862Y0365256D02*
Y0371161D01*
Y0365256D02*
X0169823D01*
X0164862Y0371161D02*
X0169823D01*
X0162598Y0370571D02*
Y0371752D01*
X0163779Y0370571D02*
Y0371752D01*
X0162598Y0371161D02*
X0163779Y0371752D01*
X0162598Y0371161D02*
X0163779Y0370571D01*
X0162598Y0371161D02*
X0163779D01*
X0126240Y0303323D02*
Y0306323D01*
X0131240Y0303323D02*
Y0306323D01*
X0132862Y0308988D02*
X0143492Y0308988D01*
Y0304988D02*
Y0308988D01*
X0132862Y0304988D02*
X0143492Y0304988D01*
X0132862Y0304988D02*
Y0308988D01*
X0193799Y0331890D02*
X0195768D01*
X0184744D02*
X0186669D01*
X0193799Y0327953D02*
Y0331890D01*
X0186713Y0327953D02*
Y0331890D01*
X0193799Y0327953D02*
X0195768D01*
X0193799Y0346063D02*
X0195768D01*
X0184744Y0327953D02*
X0186713D01*
X0184744Y0346063D02*
X0186713D01*
X0195768Y0327953D02*
Y0346063D01*
X0184744Y0327953D02*
Y0346063D01*
X0424902Y0312106D02*
Y0330217D01*
X0435925Y0312106D02*
X0435925Y0330217D01*
X0424902D02*
X0426870Y0330217D01*
X0424902Y0312106D02*
X0426870D01*
X0433957Y0330217D02*
X0435925D01*
X0433957Y0312106D02*
X0435925D01*
X0426870D02*
Y0316043D01*
X0433957Y0312106D02*
Y0316043D01*
X0424902Y0316043D02*
X0426827Y0316043D01*
X0433957D02*
X0435925D01*
X0395374Y0361910D02*
X0396555D01*
X0395374D02*
X0396555Y0361319D01*
X0395374Y0361910D02*
X0396555Y0362500D01*
Y0361319D02*
Y0362500D01*
X0395374Y0361319D02*
Y0362500D01*
X0397638Y0361910D02*
X0402598D01*
X0397638Y0356004D02*
X0402598D01*
X0397638D02*
Y0361910D01*
X0417126Y0373819D02*
X0419095D01*
X0408071D02*
X0409996D01*
X0417126Y0369882D02*
Y0373819D01*
X0410039Y0369882D02*
Y0373819D01*
X0417126Y0369882D02*
X0419095D01*
X0417126Y0387992D02*
X0419095D01*
X0408071Y0369882D02*
X0410039D01*
X0408071Y0387992D02*
X0410039D01*
X0419095Y0369882D02*
Y0387992D01*
X0408071Y0369882D02*
Y0387992D01*
X0350256Y0290823D02*
Y0293823D01*
X0355256Y0290823D02*
Y0293823D01*
X0343302Y0292912D02*
X0348430D01*
X0343302Y0291734D02*
X0348430D01*
X0356949Y0290823D02*
Y0293823D01*
X0361949Y0290823D02*
Y0293823D01*
X0370176Y0287948D02*
Y0293076D01*
X0368998Y0287948D02*
Y0293076D01*
X0343661Y0303126D02*
Y0306126D01*
X0348661Y0303126D02*
Y0306126D01*
X0351563Y0308004D02*
X0362193Y0308004D01*
Y0304004D02*
Y0308004D01*
X0351563Y0304004D02*
X0362193Y0304004D01*
X0351563Y0304004D02*
Y0308004D01*
D12*
X0341752Y0184173D02*
G03*
X0341752Y0184173I-0000492J0000000D01*
G01*
X0386456Y0416821D02*
G03*
X0386456Y0416821I-0000492J0000000D01*
G01*
X0344390Y0138091D02*
G03*
X0344390Y0138091I-0000492J0000000D01*
G01*
X0411594Y0244035D02*
G03*
X0411594Y0244035I-0000492J0000000D01*
G01*
X0425531Y0288917D02*
G03*
X0425531Y0288917I-0000492J0000000D01*
G01*
X0182028Y0300945D02*
G03*
X0182028Y0300945I-0000492J0000000D01*
G01*
X0504724Y0520374D02*
G03*
X0504724Y0520374I-0000492J0000000D01*
G01*
X0470472Y0336319D02*
G03*
X0470472Y0336319I-0000492J0000000D01*
G01*
X0530079Y0349705D02*
G03*
X0530079Y0349705I-0000492J0000000D01*
G01*
X0587264Y0200374D02*
G03*
X0587264Y0200374I-0000492J0000000D01*
G01*
X0588465Y0206279D02*
G03*
X0588465Y0206279I-0000492J0000000D01*
G01*
X0247761Y0097163D02*
G03*
X0247761Y0097163I-0000492J0000000D01*
G01*
X0286548Y0118389D02*
G03*
X0286548Y0118389I-0000492J0000000D01*
G01*
X0228839Y0425098D02*
G03*
X0228839Y0425098I-0000492J0000000D01*
G01*
X0294488Y0448327D02*
G03*
X0294488Y0448327I-0000492J0000000D01*
G01*
X0265995Y0149330D02*
G03*
X0265995Y0149330I-0000492J0000000D01*
G01*
X0315904Y0124809D02*
G03*
X0315904Y0124809I-0000492J0000000D01*
G01*
X0444193Y0101279D02*
G03*
X0444193Y0101279I-0000492J0000000D01*
G01*
X0230807Y0396457D02*
G03*
X0230807Y0396457I-0000492J0000000D01*
G01*
X0269816Y0206333D02*
G03*
X0269816Y0206333I-0000492J0000000D01*
G01*
X0233071Y0328346D02*
G03*
X0233071Y0328346I-0000492J0000000D01*
G01*
X0405807Y0100197D02*
G03*
X0405807Y0100197I-0000492J0000000D01*
G01*
X0365453Y0415354D02*
G03*
X0365453Y0415354I-0000492J0000000D01*
G01*
X0156004Y0359547D02*
G03*
X0156004Y0359547I-0000492J0000000D01*
G01*
X0236024Y0343504D02*
G03*
X0236024Y0343504I-0000492J0000000D01*
G01*
X0271220Y0277165D02*
G03*
X0271220Y0277165I-0000492J0000000D01*
G01*
X0313681Y0334646D02*
G03*
X0313681Y0334646I-0000492J0000000D01*
G01*
X0552165Y0419488D02*
G03*
X0552165Y0419488I-0000492J0000000D01*
G01*
X0195811Y0277165D02*
G03*
X0195811Y0277165I-0000500J0000000D01*
G01*
X0207776Y0331890D02*
G03*
X0207776Y0331890I-0000492J0000000D01*
G01*
X0285925Y0333366D02*
G03*
X0285925Y0333366I-0000492J0000000D01*
G01*
X0327559Y0315354D02*
G03*
X0327559Y0315354I-0000492J0000000D01*
G01*
X0181890Y0427461D02*
G03*
X0181890Y0427461I-0000492J0000000D01*
G01*
X0431890Y0078937D02*
G03*
X0431890Y0078937I-0000492J0000000D01*
G01*
X0126815Y0277362D02*
G03*
X0126815Y0277362I-0000500J0000000D01*
G01*
X0389075Y0350295D02*
G03*
X0389075Y0350295I-0000492J0000000D01*
G01*
X0147224Y0336319D02*
G03*
X0147224Y0336319I-0000492J0000000D01*
G01*
X0137106Y0332087D02*
G03*
X0137106Y0332087I-0000492J0000000D01*
G01*
X0405020Y0297342D02*
G03*
X0405020Y0297342I-0000492J0000000D01*
G01*
X0362402Y0331594D02*
G03*
X0362402Y0331594I-0000492J0000000D01*
G01*
X0340354Y0277165D02*
G03*
X0340354Y0277165I-0000492J0000000D01*
G01*
X0506890Y0445571D02*
G03*
X0506890Y0445571I-0000492J0000000D01*
G01*
D13*
X0712776Y0185630D02*
G03*
X0712776Y0185630I-0005000J0000000D01*
G01*
X0748760Y0204429D02*
G03*
X0748760Y0204429I-0005000J0000000D01*
G01*
X0277382Y0324291D02*
G03*
X0277382Y0324291I-0000197J0000000D01*
G01*
X0458996D02*
G03*
X0458996Y0324291I-0000197J0000000D01*
G01*
X0106673Y0336181D02*
G03*
X0106673Y0336181I-0000197J0000000D01*
G01*
X0585118Y0325059D02*
G03*
X0585118Y0325059I-0000197J0000000D01*
G01*
X0393642Y0324291D02*
G03*
X0393642Y0324291I-0000197J0000000D01*
G01*
X0753685Y0276079D02*
X0757622Y0276079D01*
X0753685Y0270370D02*
X0757622Y0270370D01*
X0718154Y0276075D02*
X0722091Y0276075D01*
X0718154Y0270366D02*
X0722091D01*
X0735870Y0276075D02*
X0739807Y0276075D01*
X0735870Y0270366D02*
X0739807Y0270366D01*
X0692579Y0270098D02*
X0696516Y0270098D01*
X0692579Y0275807D02*
X0696516Y0275807D01*
X0443405Y0256201D02*
X0443405Y0253445D01*
X0437106Y0253445D02*
X0437106Y0256201D01*
X0332894Y0177185D02*
X0333484D01*
X0330532Y0181122D02*
Y0181909D01*
X0332894Y0185846D02*
X0333484D01*
X0509706Y0144518D02*
X0512490Y0147301D01*
X0514439Y0139785D02*
X0517223Y0142569D01*
X0518363Y0131953D02*
X0521146Y0134737D01*
X0523095Y0127221D02*
X0525879Y0130005D01*
X0520315Y0085177D02*
X0524252Y0085177D01*
X0520315Y0078484D02*
X0524252Y0078484D01*
X0520315Y0070354D02*
X0524252Y0070354D01*
X0520315Y0063661D02*
X0524252Y0063661D01*
X0392657Y0427451D02*
Y0430207D01*
X0389114D02*
X0392657D01*
Y0418396D02*
Y0421152D01*
X0389114Y0418396D02*
X0392657D01*
X0350590Y0148721D02*
Y0151476D01*
X0347047D02*
X0350590D01*
Y0139665D02*
Y0142421D01*
X0347047Y0139665D02*
X0350590D01*
X0584744Y0202559D02*
Y0205315D01*
X0578445Y0202559D02*
Y0205315D01*
X0218406Y0418996D02*
X0221161D01*
X0218406Y0412697D02*
X0221161D01*
X0174705Y0315551D02*
X0177461D01*
X0174705Y0309252D02*
X0177461D01*
X0418209Y0304823D02*
X0420965D01*
X0418209Y0298524D02*
X0420965D01*
X0166634Y0294783D02*
Y0297539D01*
X0172933Y0294783D02*
Y0297539D01*
X0187205Y0362500D02*
Y0365256D01*
X0180905Y0362500D02*
Y0365256D01*
X0189665Y0408563D02*
Y0411319D01*
X0183366Y0408563D02*
Y0411319D01*
X0407874Y0286122D02*
Y0288878D01*
X0414173Y0286122D02*
Y0288878D01*
X0416043Y0353445D02*
Y0356201D01*
X0409744Y0353445D02*
Y0356201D01*
X0414370Y0400197D02*
Y0402953D01*
X0408071Y0400197D02*
Y0402953D01*
X0553937Y0510728D02*
X0556693Y0510728D01*
X0553937Y0517028D02*
X0556693Y0517028D01*
X0520059Y0363366D02*
Y0367697D01*
X0513760Y0363366D02*
X0513760Y0367697D01*
X0441535Y0352953D02*
Y0423819D01*
Y0352953D02*
X0441558Y0352930D01*
X0492576Y0352930D01*
X0441535Y0423819D02*
X0492717Y0423819D01*
X0492717Y0352953D02*
X0492717Y0423819D01*
X0442421Y0334350D02*
Y0338681D01*
X0448721Y0334350D02*
X0448721Y0338681D01*
X0528917Y0378150D02*
X0533248D01*
X0528917Y0371850D02*
X0533248Y0371850D01*
X0447913Y0280315D02*
X0452244D01*
X0447913Y0274016D02*
X0452244Y0274016D01*
X0570472Y0240059D02*
X0574409Y0240059D01*
X0570472Y0233366D02*
X0574409Y0233366D01*
X0481315Y0164632D02*
X0483765Y0168131D01*
X0492911Y0181192D02*
X0495361Y0184691D01*
X0518291Y0168636D01*
X0504245Y0148576D02*
X0506695Y0152075D01*
X0515841Y0165137D02*
X0518291Y0168636D01*
X0481315Y0164632D02*
X0504245Y0148576D01*
X0431004Y0290059D02*
Y0295374D01*
X0427854Y0290059D02*
Y0295374D01*
X0431004D01*
X0427854Y0290059D02*
X0431004D01*
X0182677Y0294980D02*
X0187992D01*
X0182677Y0298130D02*
X0187992D01*
Y0294980D02*
Y0298130D01*
X0182677Y0294980D02*
Y0298130D01*
X0494980Y0513681D02*
X0494980Y0510925D01*
X0504823Y0513681D02*
X0504823Y0510925D01*
X0483071Y0513779D02*
X0483071Y0511024D01*
X0492913D02*
X0492913Y0513779D01*
X0471063Y0510925D02*
Y0513681D01*
X0480905Y0510925D02*
Y0513681D01*
X0448130Y0513681D02*
X0448130Y0510925D01*
X0457972D02*
Y0513681D01*
X0455512Y0328839D02*
X0468110D01*
X0455512Y0343799D02*
X0468110D01*
X0522106Y0351575D02*
Y0364173D01*
X0537067Y0351575D02*
Y0364173D01*
X0507028Y0299370D02*
Y0309370D01*
X0485532D02*
X0507028D01*
X0485532Y0299370D02*
Y0309370D01*
Y0299370D02*
X0507028D01*
X0536909D02*
Y0309370D01*
X0515413D02*
X0536909D01*
X0515413Y0299370D02*
Y0309370D01*
Y0299370D02*
X0536909D01*
X0588189Y0190866D02*
X0594488D01*
X0594488Y0197008D02*
X0594488Y0190866D01*
X0588189D02*
Y0197008D01*
X0594488Y0197008D01*
X0588169Y0207953D02*
Y0219173D01*
X0594862Y0207953D02*
Y0219173D01*
X0588169Y0207953D02*
X0588563Y0207953D01*
X0588169Y0219173D02*
X0588563D01*
X0594468Y0207953D02*
X0594862D01*
X0594468Y0219173D02*
X0594862Y0219173D01*
X0555630Y0352953D02*
Y0378543D01*
X0573740D01*
X0555630Y0352953D02*
X0573740Y0352953D01*
X0573740Y0378543D01*
X0517421Y0456595D02*
X0521358D01*
X0517421Y0462303D02*
X0521358D01*
X0535138Y0456693D02*
X0539075Y0456693D01*
X0535138Y0462402D02*
X0539075D01*
X0552854Y0456693D02*
X0556791Y0456693D01*
X0552854Y0462402D02*
X0556791Y0462402D01*
X0569882Y0462303D02*
X0573819D01*
X0569882Y0456595D02*
X0573819D01*
X0236910Y0306795D02*
X0236910Y0307378D01*
X0240059Y0307378D02*
X0240059Y0306795D01*
X0208858Y0094784D02*
X0212795D01*
X0208858Y0088484D02*
X0212795D01*
X0208723Y0113789D02*
X0212660Y0113789D01*
X0208723Y0107490D02*
X0212660Y0107490D01*
X0171949Y0113878D02*
X0175886D01*
X0171949Y0107579D02*
X0175886Y0107579D01*
X0190354Y0113878D02*
X0194291D01*
X0190354Y0107579D02*
X0194291Y0107579D01*
X0236835Y0103363D02*
X0238213D01*
X0236835Y0100458D02*
Y0103363D01*
X0244119D02*
X0245497D01*
X0245497Y0100458D01*
X0172146Y0094882D02*
X0176083D01*
X0172146Y0088583D02*
X0176083D01*
X0190453Y0094882D02*
X0194390D01*
X0190453Y0088583D02*
X0194390Y0088583D01*
X0096752Y0188642D02*
X0096752Y0184705D01*
X0091043D02*
X0091043Y0188642D01*
X0287795Y0446555D02*
X0290701D01*
X0287795Y0445177D02*
Y0446555D01*
Y0437894D02*
X0290701D01*
X0287795D02*
Y0439272D01*
X0419095Y0450811D02*
X0420811D01*
X0419882Y0447811D02*
Y0450811D01*
X0419095Y0447811D02*
Y0450811D01*
Y0447811D02*
X0420811D01*
X0406299Y0462106D02*
X0432677D01*
X0406299D02*
Y0476673D01*
X0432677D01*
Y0462106D02*
Y0476673D01*
X0395768Y0433760D02*
Y0460138D01*
X0381201Y0433760D02*
X0395768D01*
X0381201D02*
Y0460138D01*
X0395768D01*
X0389724Y0186779D02*
X0389724Y0170441D01*
X0373386Y0186779D02*
X0389724D01*
X0373386Y0170441D02*
X0373386Y0186779D01*
X0373386Y0170441D02*
X0389724Y0170441D01*
X0492717Y0431890D02*
X0492717Y0502756D01*
X0441535D02*
X0492717D01*
X0441558Y0431867D02*
X0492576D01*
X0441535Y0431890D02*
X0441558Y0431867D01*
X0441535Y0502756D02*
X0441535Y0431890D01*
X0364469Y0146850D02*
X0364469Y0144488D01*
X0290310Y0151498D02*
X0322790D01*
X0290310Y0183979D02*
X0322790D01*
Y0151498D02*
Y0183979D01*
X0290310Y0151498D02*
Y0183979D01*
X0441929Y0104575D02*
Y0107480D01*
X0440551D02*
X0441929D01*
X0433268Y0104575D02*
Y0107480D01*
X0434646D01*
X0483464Y0070079D02*
X0487402Y0070079D01*
X0483464Y0063779D02*
X0487402D01*
X0501279Y0070079D02*
X0505217Y0070079D01*
X0501279Y0063779D02*
X0505217D01*
X0465650Y0070079D02*
X0469587Y0070079D01*
X0465650Y0063779D02*
X0469587D01*
X0483366Y0085039D02*
X0487303Y0085039D01*
X0483366Y0078740D02*
X0487303D01*
X0501181Y0085039D02*
X0505118Y0085039D01*
X0501181Y0078740D02*
X0505118D01*
X0465453Y0085039D02*
X0469390Y0085039D01*
X0465453Y0078740D02*
X0469390D01*
X0465354Y0100197D02*
X0469291Y0100197D01*
X0465354Y0093898D02*
X0469291D01*
X0490377Y0104595D02*
X0493161Y0107379D01*
X0494831Y0100141D02*
X0497615Y0102925D01*
X0504511Y0118414D02*
X0507295Y0121198D01*
X0508965Y0113960D02*
X0511749Y0116744D01*
X0494826Y0130107D02*
X0497610Y0132891D01*
X0499280Y0125653D02*
X0502064Y0128437D01*
X0481932Y0117567D02*
X0484716Y0120351D01*
X0486386Y0113113D02*
X0489170Y0115897D01*
X0465354Y0115157D02*
X0469291Y0115157D01*
X0465354Y0108858D02*
X0469291D01*
X0405807Y0430217D02*
X0408169D01*
X0621161Y0161221D02*
X0621161Y0157283D01*
X0615453D02*
X0615453Y0161221D01*
X0621161Y0143701D02*
X0621161Y0139764D01*
X0615453D02*
X0615453Y0143701D01*
X0621161Y0126279D02*
X0621161Y0122343D01*
X0615453D02*
X0615453Y0126279D01*
X0128445Y0429921D02*
X0128445Y0433858D01*
X0122146Y0429921D02*
Y0433858D01*
X0136662Y0451302D02*
X0139446Y0454086D01*
X0132208Y0455756D02*
X0134992Y0458540D01*
X0261243Y0459500D02*
X0264027Y0456716D01*
X0265697Y0463954D02*
X0268481Y0461170D01*
X0246873Y0455562D02*
X0249657Y0452779D01*
X0251327Y0460017D02*
X0254111Y0457233D01*
X0150737Y0446676D02*
X0153521Y0449460D01*
X0146282Y0451130D02*
X0149066Y0453914D01*
X0143110Y0430315D02*
X0143110Y0434252D01*
X0136811Y0430315D02*
Y0434252D01*
X0128051Y0410138D02*
Y0414075D01*
X0122343Y0410138D02*
Y0414075D01*
X0142717Y0410236D02*
Y0414173D01*
X0137008Y0410236D02*
Y0414173D01*
X0104626Y0191299D02*
X0104626Y0195236D01*
X0110335D02*
X0110335Y0191299D01*
X0270402Y0209915D02*
X0272456Y0211970D01*
X0271482Y0212944D02*
X0272456Y0211970D01*
X0264277Y0216040D02*
X0266332Y0218094D01*
X0267306Y0217120D01*
X0382972Y0291508D02*
Y0291957D01*
X0377854Y0287500D02*
X0380298D01*
X0377854Y0294067D02*
X0377854Y0295965D01*
X0377854Y0289398D02*
X0377854Y0287500D01*
Y0295965D02*
X0380298D01*
X0233957Y0325000D02*
X0233957Y0321850D01*
X0235728D01*
X0242618D02*
Y0325000D01*
X0240846Y0321850D02*
X0242618D01*
X0590236Y0287736D02*
X0615827D01*
Y0269626D02*
Y0287736D01*
X0590236D02*
X0590236Y0269626D01*
X0615827Y0269626D01*
X0153347Y0406988D02*
X0153347Y0392421D01*
X0179724D01*
Y0406988D01*
X0153347D02*
X0179724D01*
X0235827Y0298200D02*
Y0298650D01*
X0230709Y0294193D02*
X0233153Y0294193D01*
X0230709Y0300760D02*
X0230709Y0302658D01*
X0230709Y0296091D02*
X0230709Y0294193D01*
Y0302658D02*
X0233153Y0302658D01*
X0335732Y0373131D02*
X0336315D01*
X0335732Y0376279D02*
X0336315D01*
X0335732Y0378052D02*
X0336315D01*
X0335732Y0381201D02*
X0336315D01*
X0299020Y0378642D02*
X0299602D01*
X0299020Y0375493D02*
X0299602D01*
X0275492Y0451476D02*
Y0467224D01*
X0283071Y0451476D02*
X0283366D01*
X0275492D02*
X0275787D01*
X0283366D02*
Y0467224D01*
X0283071D02*
X0283366D01*
X0275492D02*
X0275787D01*
X0366535Y0410433D02*
X0374410D01*
X0366535Y0412795D02*
X0374410D01*
Y0410433D02*
Y0412795D01*
X0366535Y0410433D02*
Y0412795D01*
X0357531Y0393504D02*
X0357823D01*
X0353445Y0396572D02*
X0353445Y0398622D01*
X0360090D02*
X0361910D01*
X0353445D02*
X0355264Y0398622D01*
X0361910Y0396572D02*
Y0398622D01*
X0379626Y0399606D02*
X0406004D01*
Y0385039D02*
Y0399606D01*
X0379626Y0385039D02*
X0406004D01*
X0379626D02*
Y0399606D01*
X0326969Y0435236D02*
X0343307Y0435236D01*
X0343307Y0418898D02*
X0343307Y0435236D01*
X0326969Y0418898D02*
X0343307D01*
X0326969D02*
Y0435236D01*
X0159941Y0364173D02*
X0171752D01*
X0159941Y0354921D02*
X0171752D01*
X0157776Y0329921D02*
Y0344488D01*
Y0329921D02*
X0184153D01*
Y0344488D01*
X0157776D02*
X0184153D01*
X0229527Y0342224D02*
X0231890D01*
X0229528Y0333563D02*
X0231890D01*
Y0342224D01*
X0229527D02*
X0229528Y0333563D01*
X0273287Y0268465D02*
X0336673D01*
X0273287Y0266496D02*
X0336673D01*
X0273287Y0286968D02*
X0336673Y0286968D01*
X0336673Y0266496D01*
X0273287D02*
Y0286968D01*
X0314469Y0328642D02*
Y0331004D01*
X0323130D02*
X0323130Y0328642D01*
X0314469Y0331004D02*
X0323130D01*
X0314469Y0328642D02*
X0323130Y0328642D01*
X0508957Y0427953D02*
X0549114Y0427953D01*
X0508957Y0429921D02*
X0549114Y0429921D01*
X0508957Y0412205D02*
X0549114Y0412205D01*
X0508957Y0412205D02*
Y0429921D01*
X0549114Y0412205D02*
Y0429921D01*
X0269185Y0391823D02*
Y0416642D01*
X0294004Y0391823D02*
Y0416642D01*
X0269185Y0391823D02*
X0294004D01*
X0269185Y0416642D02*
X0294004D01*
X0197876Y0286339D02*
X0261376D01*
X0197876Y0265827D02*
Y0286339D01*
Y0265827D02*
X0261376D01*
Y0286339D01*
X0208465Y0326673D02*
X0217126Y0326673D01*
X0208465Y0329035D02*
X0217126D01*
Y0326673D02*
Y0329035D01*
X0208465Y0326673D02*
Y0329035D01*
X0286614Y0328150D02*
X0295276Y0328150D01*
X0286614Y0330512D02*
X0295276D01*
Y0328150D02*
Y0330512D01*
X0286614Y0328150D02*
Y0330512D01*
X0308760Y0302854D02*
X0311204D01*
X0308760Y0294390D02*
Y0296288D01*
X0308760Y0300956D02*
X0308760Y0302854D01*
Y0294390D02*
X0311204D01*
X0313878Y0298397D02*
Y0298847D01*
X0311815Y0307775D02*
X0312398D01*
X0311815Y0304626D02*
X0312398D01*
X0320571Y0313976D02*
X0323721D01*
X0320571Y0312205D02*
Y0313976D01*
Y0305315D02*
X0323721D01*
X0320571D02*
Y0307087D01*
X0320866Y0293209D02*
X0323310D01*
X0320866Y0286642D02*
X0320866Y0284744D01*
Y0291311D02*
Y0293209D01*
Y0284744D02*
X0323310D01*
X0325984Y0288752D02*
Y0289201D01*
X0242418Y0293209D02*
X0244862Y0293209D01*
X0242418Y0286642D02*
X0242418Y0284744D01*
X0242418Y0291311D02*
X0242418Y0293209D01*
Y0284744D02*
X0244862D01*
X0247536Y0288752D02*
Y0289201D01*
X0188976Y0439961D02*
X0188976Y0442011D01*
X0195622Y0439961D02*
X0197441Y0439961D01*
X0188976Y0439961D02*
X0190796D01*
X0197441Y0439961D02*
X0197441Y0442011D01*
X0193063Y0445079D02*
X0193355Y0445079D01*
X0179823Y0430020D02*
Y0432382D01*
X0171949Y0430020D02*
Y0432382D01*
Y0430020D02*
X0179823D01*
X0171949Y0432382D02*
X0179823D01*
X0440453Y0072736D02*
X0441831D01*
Y0075642D01*
X0433169Y0072736D02*
X0434547D01*
X0433169D02*
Y0075642D01*
X0192380Y0266024D02*
Y0286536D01*
X0128880Y0266024D02*
X0192380D01*
X0128880D02*
Y0286536D01*
X0192380D01*
X0168799Y0380315D02*
X0171555D01*
X0168799Y0373622D02*
X0171555D01*
X0393012Y0354921D02*
X0404823D01*
X0393012Y0345669D02*
X0404823D01*
X0148110Y0329823D02*
Y0332972D01*
Y0329823D02*
X0149882D01*
X0156772D02*
Y0332972D01*
X0155000Y0329823D02*
X0156772D01*
X0137795Y0326870D02*
X0146457Y0326870D01*
X0137795Y0329232D02*
X0146457D01*
Y0326870D02*
Y0329232D01*
X0137795Y0326870D02*
Y0329232D01*
X0160634Y0300098D02*
X0161216D01*
X0160634Y0296950D02*
X0161216D01*
X0156791Y0295472D02*
X0159235D01*
X0156791Y0288906D02*
X0156791Y0287008D01*
X0156791Y0293575D02*
X0156791Y0295472D01*
Y0287008D02*
X0159235D01*
X0161909Y0291015D02*
Y0291465D01*
X0124213Y0315158D02*
Y0317601D01*
X0130779Y0315158D02*
X0132677Y0315158D01*
X0124213D02*
X0126111Y0315158D01*
X0132677Y0315158D02*
Y0317601D01*
X0128220Y0320276D02*
X0128670D01*
X0174606Y0294882D02*
Y0297638D01*
X0181299Y0294882D02*
Y0297638D01*
X0416240Y0285728D02*
Y0288484D01*
X0422933Y0285728D02*
Y0288484D01*
X0397835Y0332874D02*
X0397835Y0318307D01*
X0424213D01*
Y0332874D01*
X0397835Y0332874D02*
X0424213Y0332874D01*
X0390063Y0290728D02*
X0390646Y0290728D01*
X0390063Y0287579D02*
X0390646D01*
X0398031Y0287303D02*
Y0289075D01*
Y0287303D02*
X0401181Y0287303D01*
X0398031Y0294193D02*
Y0295965D01*
X0401181D01*
X0395374Y0365945D02*
X0398130Y0365945D01*
X0395374Y0372638D02*
X0398130Y0372638D01*
X0341929Y0312894D02*
Y0315338D01*
X0348496Y0312894D02*
X0350394Y0312894D01*
X0341929D02*
X0343827Y0312894D01*
X0350394Y0312894D02*
Y0315338D01*
X0345937Y0318012D02*
X0346386D01*
X0356693Y0330413D02*
X0356693Y0321752D01*
X0359055Y0321752D02*
Y0330413D01*
X0356693Y0321752D02*
X0359055Y0321752D01*
X0356693Y0330413D02*
X0359055D01*
X0342421Y0268465D02*
X0405807D01*
X0342421Y0266496D02*
X0405807D01*
X0342421Y0286968D02*
X0405807Y0286968D01*
X0405807Y0266496D01*
X0342421D02*
Y0286968D01*
X0508957Y0437106D02*
X0549114Y0437106D01*
X0508957Y0435138D02*
X0549114D01*
X0508957Y0452854D02*
X0549114Y0452854D01*
X0549114Y0435138D02*
X0549114Y0452854D01*
X0508957Y0435138D02*
Y0452854D01*
D14*
X0470571Y0326083D02*
G03*
X0470571Y0326476I0000000J0000197D01*
G01*
D02*
G03*
X0470571Y0326083I0000000J-0000197D01*
G01*
X0515846Y0347835D02*
G03*
X0516240Y0347835I0000197J0000000D01*
G01*
D02*
G03*
X0515846Y0347835I-0000197J0000000D01*
G01*
X0236319Y0309842D02*
G03*
X0236319Y0309842I-0000197J0000000D01*
G01*
X0333465Y0372342D02*
G03*
X0333465Y0372342I-0000197J0000000D01*
G01*
Y0377264D02*
G03*
X0333465Y0377264I-0000197J0000000D01*
G01*
X0296752Y0374705D02*
G03*
X0296752Y0374705I-0000197J0000000D01*
G01*
X0315059Y0308563D02*
G03*
X0315059Y0308563I-0000197J0000000D01*
G01*
X0158366Y0296161D02*
G03*
X0158366Y0296161I-0000197J0000000D01*
G01*
X0393307Y0291516D02*
G03*
X0393307Y0291516I-0000197J0000000D01*
G01*
X0280413Y0306988D02*
Y0318996D01*
X0248721Y0306988D02*
Y0318996D01*
X0545669Y0503248D02*
Y0509154D01*
X0522047Y0503248D02*
X0545669Y0503248D01*
X0522047Y0503248D02*
Y0509547D01*
X0545669Y0518602D02*
Y0524508D01*
X0522047D02*
X0545669D01*
X0522047Y0518209D02*
Y0524508D01*
X0462028Y0306988D02*
Y0318996D01*
X0440335Y0306988D02*
Y0318996D01*
X0471850Y0326969D02*
X0496555D01*
X0471850Y0345669D02*
X0495768D01*
X0516732Y0321850D02*
Y0346555D01*
X0535433Y0322638D02*
Y0346555D01*
X0089173Y0332953D02*
X0101181D01*
X0089173Y0354646D02*
X0101181D01*
X0567618Y0343524D02*
X0579626D01*
X0567618Y0321831D02*
X0579626D01*
X0396673Y0306988D02*
Y0318996D01*
X0374980Y0306988D02*
Y0318996D01*
D15*
X0575670Y0275254D02*
X0575689Y0275235D01*
X0575670Y0275217D01*
X0575652Y0275235D01*
X0575670Y0275254D01*
X0288995Y0231655D02*
X0288976Y0231674D01*
X0288995Y0231693D01*
X0289014Y0231674D01*
X0288995Y0231655D01*
X0563700Y0244155D02*
X0563681Y0244174D01*
X0563700Y0244193D01*
X0563719Y0244174D01*
X0563700Y0244155D01*
X0552915Y0254706D02*
X0552934Y0254724D01*
X0552953Y0254706D01*
X0552934Y0254687D01*
X0552915Y0254706D01*
X0299882Y0224088D02*
X0299908Y0224088D01*
Y0224062D01*
X0299882Y0224062D01*
Y0224088D01*
X0369463Y0211127D02*
X0369482Y0211108D01*
X0369463Y0211089D01*
X0369444Y0211108D01*
X0369463Y0211127D01*
X0256459Y0091768D02*
X0256441Y0091749D01*
X0256422Y0091768D01*
X0256441Y0091787D01*
X0256459Y0091768D01*
X0264197Y0179202D02*
X0264179Y0179221D01*
X0264197Y0179240D01*
X0264216Y0179221D01*
X0264197Y0179202D01*
X0272002Y0196861D02*
X0271975Y0196861D01*
Y0196888D01*
X0272002Y0196888D01*
Y0196861D01*
X0301003Y0430376D02*
X0300984Y0430395D01*
X0301003Y0430413D01*
X0301022Y0430395D01*
X0301003Y0430376D01*
X0296672Y0457049D02*
X0296654Y0457068D01*
X0296672Y0457087D01*
X0296691Y0457068D01*
X0296672Y0457049D01*
X0300848Y0526162D02*
X0300867Y0526181D01*
X0300886Y0526162D01*
X0300867Y0526144D01*
X0300848Y0526162D01*
X0283427Y0315926D02*
X0283446Y0315945D01*
X0283465Y0315926D01*
X0283446Y0315907D01*
X0283427Y0315926D01*
X0205671Y0315631D02*
X0205690Y0315650D01*
X0205709Y0315631D01*
X0205690Y0315612D01*
X0205671Y0315631D01*
X0134411Y0315926D02*
X0134430Y0315945D01*
X0134449Y0315926D01*
X0134430Y0315907D01*
X0134411Y0315926D01*
X0353112Y0314942D02*
X0353131Y0314961D01*
X0353150Y0314942D01*
X0353131Y0314923D01*
X0353112Y0314942D01*
D17*
X0511358Y0499311D02*
X0518366D01*
D434*
X0191141Y0380906D02*
D03*
X0182087Y0380905D02*
D03*
X0194782Y0329922D02*
D03*
X0185730Y0329920D02*
D03*
X0425888Y0314073D02*
D03*
X0434945Y0314071D02*
D03*
X0418113Y0371847D02*
D03*
X0409051Y0371853D02*
D03*
M02*
