G04*
G04 #@! TF.GenerationSoftware,Altium Limited,Altium Designer,21.7.2 (23)*
G04*
G04 Layer_Color=32768*
%FSAX25Y25*%
%MOIN*%
G70*
G04*
G04 #@! TF.SameCoordinates,25756C21-EA0E-48A6-96D4-99705350E32D*
G04*
G04*
G04 #@! TF.FilePolarity,Positive*
G04*
G01*
G75*
%ADD13C,0.00787*%
D13*
X0335846Y0177185D02*
Y0185846D01*
X0330532Y0177185D02*
X0335846D01*
X0330532D02*
Y0185846D01*
X0335846D01*
X0481315Y0164632D02*
X0495361Y0184691D01*
X0518291Y0168636D01*
X0504245Y0148576D02*
X0518291Y0168636D01*
X0481315Y0164632D02*
X0504245Y0148576D01*
X0468110Y0330020D02*
Y0342618D01*
X0455512Y0330020D02*
X0468110D01*
X0455512D02*
Y0342618D01*
X0468110D01*
X0523287Y0351575D02*
X0535886D01*
X0523287D02*
Y0364173D01*
X0535886D01*
Y0351575D02*
Y0364173D01*
X0382972Y0287500D02*
Y0295965D01*
X0377854Y0287500D02*
X0382972D01*
X0377854D02*
Y0295965D01*
X0382972D01*
X0235827Y0294193D02*
Y0302658D01*
X0230709Y0294193D02*
X0235827D01*
X0230709D02*
Y0302658D01*
X0235827Y0302658D01*
X0275492Y0451476D02*
Y0467224D01*
Y0451476D02*
X0283366D01*
Y0467224D01*
X0275492D02*
X0283366D01*
X0353445Y0393504D02*
X0361910Y0393504D01*
X0353445Y0393504D02*
Y0398622D01*
X0361910D01*
Y0393504D02*
Y0398622D01*
X0159941Y0363347D02*
X0171752D01*
X0159941Y0355748D02*
Y0363347D01*
Y0355748D02*
X0171752D01*
Y0363347D01*
X0308760Y0302854D02*
X0313878D01*
X0308760Y0294390D02*
Y0302854D01*
Y0294390D02*
X0313878D01*
X0313878Y0302854D02*
X0313878Y0294390D01*
X0320866Y0293209D02*
X0325984D01*
X0320866Y0284744D02*
Y0293209D01*
Y0284744D02*
X0325984D01*
Y0293209D01*
X0242418D02*
X0247536D01*
X0242418Y0284744D02*
Y0293209D01*
Y0284744D02*
X0247536D01*
Y0293209D01*
X0188976Y0439961D02*
X0188976Y0445079D01*
X0188976Y0439961D02*
X0197441Y0439961D01*
X0197441Y0445079D01*
X0188976Y0445079D02*
X0197441Y0445079D01*
X0393012Y0354095D02*
X0404823D01*
X0393012Y0346496D02*
Y0354095D01*
Y0346496D02*
X0404823D01*
Y0354095D01*
X0156791Y0295472D02*
X0161909D01*
X0156791Y0287008D02*
Y0295472D01*
Y0287008D02*
X0161909D01*
Y0295472D01*
X0124213Y0315158D02*
Y0320276D01*
Y0315158D02*
X0132677D01*
Y0320276D01*
X0124213D02*
X0132677D01*
X0341929Y0312894D02*
Y0318012D01*
Y0312894D02*
X0350394D01*
Y0318012D01*
X0341929D02*
X0350394D01*
M02*
