G04*
G04 #@! TF.GenerationSoftware,Altium Limited,Altium Designer,21.7.2 (23)*
G04*
G04 Layer_Color=16711935*
%FSAX25Y25*%
%MOIN*%
G70*
G04*
G04 #@! TF.SameCoordinates,25756C21-EA0E-48A6-96D4-99705350E32D*
G04*
G04*
G04 #@! TF.FilePolarity,Positive*
G04*
G01*
G75*
%ADD10C,0.01000*%
%ADD13C,0.00787*%
%ADD14C,0.00394*%
%ADD436C,0.00197*%
%ADD437C,0.00300*%
%ADD438R,0.06693X0.01509*%
%ADD439R,0.24606X0.03786*%
D10*
X0708720Y0193917D02*
Y0225098D01*
X0711988D01*
Y0193917D02*
Y0225098D01*
X0708720Y0193917D02*
X0711988D01*
X0693701Y0079429D02*
Y0082697D01*
Y0079429D02*
X0724882D01*
Y0082697D01*
X0693701D02*
X0724882D01*
X0650787Y0079508D02*
X0681968D01*
X0650787D02*
Y0082776D01*
X0681968D01*
Y0079508D02*
Y0082776D01*
D13*
X0328839Y0223524D02*
X0379823D01*
X0328839D02*
Y0259055D01*
X0379823D01*
Y0223524D02*
Y0259055D01*
X0636831Y0167303D02*
X0696831D01*
X0636831D02*
Y0202736D01*
X0696831D01*
Y0167303D02*
Y0202736D01*
X0248721Y0306988D02*
X0280413D01*
Y0318996D01*
X0248721D02*
X0280413D01*
X0248721Y0306988D02*
Y0318996D01*
X0522047Y0524508D02*
X0545669D01*
X0522047Y0503248D02*
Y0524508D01*
Y0503248D02*
X0545669Y0503248D01*
Y0524508D01*
X0440335Y0306988D02*
X0462028D01*
Y0318996D01*
X0440335D02*
X0462028D01*
X0440335Y0306988D02*
Y0318996D01*
X0471850Y0345669D02*
X0496063D01*
Y0326969D02*
Y0345669D01*
X0471850Y0326969D02*
X0496063D01*
X0471850D02*
Y0345669D01*
X0535433Y0322342D02*
Y0346555D01*
X0516732Y0322342D02*
X0535433D01*
X0516732D02*
Y0346555D01*
X0535433D01*
X0089173Y0332953D02*
Y0354646D01*
Y0332953D02*
X0101181D01*
Y0354646D01*
X0089173D02*
X0101181D01*
X0567618Y0343524D02*
X0579626D01*
Y0321831D02*
Y0343524D01*
X0567618Y0321831D02*
X0579626D01*
X0567618D02*
Y0343524D01*
X0374980Y0306988D02*
X0396673D01*
Y0318996D01*
X0374980D02*
X0396673D01*
X0374980Y0306988D02*
Y0318996D01*
D14*
X0712776Y0185630D02*
G03*
X0712776Y0185630I-0005000J0000000D01*
G01*
X0748760Y0204429D02*
G03*
X0748760Y0204429I-0005000J0000000D01*
G01*
X0416437Y0296358D02*
G03*
X0416437Y0296358I-0001969J0000000D01*
G01*
X0381161Y0176346D02*
G03*
X0381161Y0176346I-0001969J0000000D01*
G01*
X0182776Y0304724D02*
G03*
X0182776Y0304724I-0001969J0000000D01*
G01*
X0339469Y0429331D02*
G03*
X0339469Y0429331I-0001969J0000000D01*
G01*
X0098110Y0452362D02*
G03*
X0098110Y0452362I-0005000J0000000D01*
G01*
X0097913Y0435138D02*
G03*
X0097913Y0435138I-0005000J0000000D01*
G01*
X0276654Y0526378D02*
G03*
X0276654Y0526378I-0005000J0000000D01*
G01*
X0749256Y0276472D02*
X0762051D01*
X0749256Y0269976D02*
X0762051Y0269976D01*
Y0276472D01*
X0749256Y0269976D02*
Y0276472D01*
X0713724Y0276468D02*
X0726520Y0276468D01*
X0713724Y0269972D02*
X0726520Y0269972D01*
Y0276468D01*
X0713724Y0269972D02*
Y0276468D01*
X0731441D02*
X0744236D01*
X0731441Y0269972D02*
X0744236Y0269972D01*
Y0276468D01*
X0731441Y0269972D02*
Y0276468D01*
X0688150Y0269705D02*
X0700945D01*
X0688150Y0276201D02*
X0700945Y0276201D01*
X0688150Y0269705D02*
Y0276201D01*
X0700945Y0269705D02*
Y0276201D01*
X0697618Y0278465D02*
Y0282008D01*
X0690925Y0278465D02*
Y0282008D01*
X0697618D01*
X0690925Y0278465D02*
X0697618D01*
X0265709Y0392067D02*
X0269252D01*
X0265709Y0385374D02*
X0269252D01*
X0265709D02*
Y0392067D01*
X0269252Y0385374D02*
Y0392067D01*
X0306594Y0238976D02*
X0310138D01*
X0306594Y0232283D02*
X0310138D01*
X0306594D02*
Y0238976D01*
X0310138Y0232283D02*
Y0238976D01*
X0306102Y0242323D02*
Y0245866D01*
X0299410Y0242323D02*
Y0245866D01*
X0306102D01*
X0299410Y0242323D02*
X0306102D01*
X0253745Y0225179D02*
X0258478Y0220446D01*
X0251240Y0222674D02*
X0255972Y0217941D01*
X0258478Y0220446D01*
X0251240Y0222674D02*
X0253745Y0225179D01*
X0443799Y0248130D02*
Y0261516D01*
X0436713Y0248130D02*
X0436713Y0261516D01*
X0436713Y0248130D02*
X0443799D01*
X0436713Y0261516D02*
X0443799D01*
X0258819Y0258563D02*
X0326142Y0258563D01*
X0258819Y0219193D02*
X0326142Y0219193D01*
X0258819Y0219193D02*
Y0258563D01*
X0326142Y0219193D02*
Y0258563D01*
X0202421Y0388110D02*
X0204587D01*
X0202421Y0392244D02*
X0204587D01*
Y0388110D02*
Y0392244D01*
X0202421Y0388110D02*
Y0392244D01*
X0100394Y0349705D02*
Y0515059D01*
X0238189D01*
Y0349705D02*
Y0515059D01*
X0100394Y0349705D02*
X0238189D01*
X0348386Y0176654D02*
Y0178819D01*
X0344252Y0176654D02*
Y0178819D01*
X0348386D01*
X0344252Y0176654D02*
X0348386D01*
X0289952Y0204668D02*
X0292458Y0207174D01*
X0285220Y0209401D02*
X0287725Y0211906D01*
X0292458Y0207174D01*
X0285220Y0209401D02*
X0289952Y0204668D01*
X0414390Y0411339D02*
Y0414882D01*
X0421083Y0411339D02*
Y0414882D01*
X0414390D02*
X0421083D01*
X0414390Y0411339D02*
X0421083D01*
X0451378Y0254823D02*
X0455118D01*
X0451378Y0261713D02*
X0455118D01*
X0455118Y0254823D01*
X0451378D02*
X0451378Y0261713D01*
X0286713Y0242224D02*
Y0245965D01*
X0293602Y0242224D02*
Y0245965D01*
X0286713Y0242224D02*
X0293602D01*
X0286713Y0245965D02*
X0293602D01*
X0293406Y0447342D02*
Y0451083D01*
X0286516Y0447342D02*
Y0451083D01*
X0293406D01*
X0286516Y0447342D02*
X0293406D01*
X0250709Y0145000D02*
X0257402D01*
X0250709Y0141457D02*
X0257402D01*
Y0145000D01*
X0250709Y0141457D02*
Y0145000D01*
X0506226Y0141316D02*
X0515692Y0150781D01*
X0511237Y0136305D02*
X0520703Y0145770D01*
X0515692Y0150781D02*
X0520703Y0145770D01*
X0506226Y0141316D02*
X0511237Y0136305D01*
X0514883Y0128752D02*
X0524348Y0138217D01*
X0519894Y0123741D02*
X0529359Y0133206D01*
X0524348Y0138217D02*
X0529359Y0133206D01*
X0514883Y0128752D02*
X0519894Y0123741D01*
X0515591Y0085374D02*
X0528976Y0085374D01*
X0515591Y0078287D02*
X0528976D01*
X0528976Y0085374D01*
X0515591Y0085374D02*
X0515591Y0078287D01*
X0515591Y0070551D02*
X0528976Y0070551D01*
X0515591Y0063465D02*
X0528976D01*
X0528976Y0070551D01*
X0515591Y0070551D02*
X0515591Y0063465D01*
X0186319Y0431102D02*
Y0434842D01*
X0193209Y0431102D02*
Y0434842D01*
X0186319Y0431102D02*
X0193209D01*
X0186319Y0434842D02*
X0193209D01*
X0360630Y0403839D02*
Y0407579D01*
X0353740Y0403839D02*
Y0407579D01*
X0360630D01*
X0353740Y0403839D02*
X0360630D01*
X0577874Y0260551D02*
Y0264291D01*
X0570984Y0260551D02*
Y0264291D01*
X0577874D01*
X0570984Y0260551D02*
X0577874D01*
X0493701Y0522421D02*
Y0526201D01*
X0500591Y0522421D02*
Y0526201D01*
X0493701Y0522421D02*
X0500591D01*
X0493701Y0526201D02*
X0500591Y0526201D01*
X0379095Y0187764D02*
Y0191307D01*
X0372402Y0187764D02*
Y0191307D01*
X0379095D01*
X0372402Y0187764D02*
X0379095D01*
X0301673Y0450394D02*
Y0453937D01*
X0308366Y0450394D02*
Y0453937D01*
X0301673Y0450394D02*
X0308366D01*
X0301673Y0453937D02*
X0308366D01*
X0299409Y0416043D02*
X0306102D01*
X0299409Y0412500D02*
X0306102D01*
Y0416043D01*
X0299409Y0412500D02*
Y0416043D01*
X0572992Y0286221D02*
X0576535D01*
X0572992Y0279528D02*
X0576535D01*
X0572992D02*
Y0286221D01*
X0576535Y0279528D02*
Y0286221D01*
X0542717Y0275098D02*
X0546260D01*
X0542717Y0281791D02*
X0546260D01*
Y0275098D02*
Y0281791D01*
X0542717Y0275098D02*
Y0281791D01*
X0246555Y0350295D02*
Y0354035D01*
X0239665Y0350295D02*
Y0354035D01*
X0246555D01*
X0239665Y0350295D02*
X0246555D01*
X0378543Y0427756D02*
X0382283D01*
X0378543Y0420866D02*
X0382283D01*
X0378543D02*
Y0427756D01*
X0382283Y0420866D02*
Y0427756D01*
X0334744Y0140748D02*
Y0144488D01*
X0327854Y0140748D02*
Y0144488D01*
X0334744D01*
X0327854Y0140748D02*
X0334744D01*
X0548524Y0275098D02*
X0552067D01*
X0548524Y0281791D02*
X0552067D01*
Y0275098D02*
Y0281791D01*
X0548524Y0275098D02*
Y0281791D01*
X0421260Y0434055D02*
Y0437992D01*
X0414173Y0434055D02*
Y0437992D01*
Y0434055D02*
X0421260D01*
X0414173Y0437992D02*
X0421260D01*
X0554626Y0267835D02*
Y0274724D01*
X0558366Y0267835D02*
Y0274724D01*
X0554626D02*
X0558366D01*
X0554626Y0267835D02*
X0558366D01*
X0317678Y0112124D02*
Y0118817D01*
X0321222Y0112124D02*
Y0118817D01*
X0317678D02*
X0321222D01*
X0317678Y0112124D02*
X0321222D01*
X0387205Y0296457D02*
X0393701D01*
X0387205Y0300197D02*
X0393701D01*
X0387205Y0296457D02*
Y0300197D01*
X0393701Y0296457D02*
Y0300197D01*
X0229823Y0442815D02*
X0236319D01*
X0229823Y0446555D02*
X0236319D01*
X0229823Y0442815D02*
Y0446555D01*
X0236319Y0442815D02*
Y0446555D01*
X0567382Y0260650D02*
Y0264193D01*
X0560689Y0260650D02*
Y0264193D01*
X0567382D01*
X0560689Y0260650D02*
X0567382D01*
X0231988Y0400886D02*
X0238484D01*
X0231988Y0397146D02*
X0238484D01*
Y0400886D01*
X0231988Y0397146D02*
Y0400886D01*
X0231791Y0402362D02*
X0238878Y0402362D01*
X0231791Y0406299D02*
X0238878D01*
X0231791Y0402362D02*
Y0406299D01*
X0238878Y0402362D02*
Y0406299D01*
X0305709Y0448524D02*
X0309449D01*
X0305709Y0441634D02*
X0309449D01*
X0305709D02*
Y0448524D01*
X0309449Y0441634D02*
Y0448524D01*
X0332874Y0356890D02*
Y0360630D01*
X0339764Y0356890D02*
Y0360630D01*
X0332874Y0356890D02*
X0339764D01*
X0332874Y0360630D02*
X0339764D01*
X0332480Y0367717D02*
Y0371457D01*
X0339370Y0367717D02*
Y0371457D01*
X0332480Y0367717D02*
X0339370D01*
X0332480Y0371457D02*
X0339370D01*
X0332677Y0382480D02*
Y0386221D01*
X0339567Y0382480D02*
Y0386221D01*
X0332677Y0382480D02*
X0339567D01*
X0332677Y0386221D02*
X0339567D01*
X0414468Y0428937D02*
Y0432677D01*
X0421358Y0428937D02*
Y0432677D01*
X0414468D02*
X0421358D01*
X0414468Y0428937D02*
X0421358D01*
X0261437Y0141555D02*
Y0145295D01*
X0268327Y0141555D02*
Y0145295D01*
X0261437Y0141555D02*
X0268327D01*
X0261437Y0145295D02*
X0268327D01*
X0233760Y0440748D02*
X0237500D01*
X0233760Y0433858D02*
X0237500D01*
X0233760D02*
Y0440748D01*
X0237500Y0433858D02*
Y0440748D01*
X0276654Y0099035D02*
Y0102776D01*
X0269764Y0099035D02*
Y0102776D01*
X0276654D01*
X0269764Y0099035D02*
X0276654D01*
X0322874Y0118917D02*
X0326614D01*
X0322874Y0112028D02*
X0326614D01*
X0322874D02*
Y0118917D01*
X0326614Y0112028D02*
Y0118917D01*
X0368701Y0173524D02*
X0372441D01*
X0368701Y0180413D02*
X0372441D01*
Y0173524D02*
Y0180413D01*
X0368701Y0173524D02*
Y0180413D01*
X0589764Y0212500D02*
X0593504D01*
X0589764Y0205610D02*
X0593504D01*
Y0212500D01*
X0589764Y0205610D02*
Y0212500D01*
X0387145Y0430207D02*
X0392657D01*
X0387145Y0418396D02*
X0392657D01*
Y0430207D01*
X0387145Y0418396D02*
Y0430207D01*
X0345079Y0151476D02*
X0350590D01*
X0345079Y0139665D02*
X0350590D01*
Y0151476D01*
X0345079Y0139665D02*
Y0151476D01*
X0585138Y0197244D02*
Y0210630D01*
X0578051Y0197244D02*
Y0210630D01*
Y0197244D02*
X0585138D01*
X0578051Y0210630D02*
X0585138D01*
X0269685Y0172146D02*
Y0175689D01*
X0276378Y0172146D02*
Y0175689D01*
X0269685Y0172146D02*
X0276378D01*
X0269685Y0175689D02*
X0276378D01*
X0283268Y0188386D02*
X0286811D01*
X0283268Y0181693D02*
X0286811D01*
X0283268D02*
Y0188386D01*
X0286811Y0181693D02*
Y0188386D01*
X0269558Y0105175D02*
Y0108955D01*
X0276448Y0105175D02*
Y0108955D01*
X0269558Y0105175D02*
X0276448Y0105175D01*
X0269558Y0108955D02*
X0276448Y0108955D01*
X0263439Y0221887D02*
X0266111Y0219215D01*
X0258567Y0217016D02*
X0261239Y0214343D01*
X0258567Y0217016D02*
X0263439Y0221887D01*
X0261239Y0214343D02*
X0266111Y0219215D01*
X0415354Y0402067D02*
X0424016D01*
X0415354Y0407776D02*
X0424016D01*
Y0402067D02*
Y0407776D01*
X0415354Y0402067D02*
Y0407776D01*
X0365020Y0182153D02*
X0372106Y0182153D01*
X0365020Y0186091D02*
X0372106D01*
X0365020Y0182153D02*
Y0186091D01*
X0372106Y0182153D02*
Y0186091D01*
X0308563Y0143307D02*
X0310925D01*
X0308563Y0138976D02*
X0310925D01*
X0308563Y0143307D02*
X0308563Y0138976D01*
X0310925D02*
X0310925Y0143307D01*
X0483110Y0522441D02*
Y0526181D01*
X0490000Y0522441D02*
Y0526181D01*
X0483110Y0522441D02*
X0490000D01*
X0483110Y0526181D02*
X0490000D01*
X0493898Y0530925D02*
X0500591D01*
X0493898Y0527382D02*
X0500591D01*
Y0530925D01*
X0493898Y0527382D02*
Y0530925D01*
X0327795Y0203642D02*
Y0212106D01*
X0333307Y0203642D02*
Y0212106D01*
X0327795D02*
X0333307D01*
X0327795Y0203642D02*
X0333307Y0203642D01*
X0346299Y0204035D02*
Y0212500D01*
X0351811Y0204035D02*
Y0212500D01*
X0346299D02*
X0351811D01*
X0346299Y0204035D02*
X0351811Y0204035D01*
X0398425Y0421063D02*
X0401968D01*
X0398425Y0427756D02*
X0401968D01*
Y0421063D02*
Y0427756D01*
X0398425Y0421063D02*
Y0427756D01*
X0186319Y0426083D02*
Y0429823D01*
X0193209Y0426083D02*
Y0429823D01*
X0186319Y0426083D02*
X0193209D01*
X0186319Y0429823D02*
X0193209D01*
X0167421Y0423425D02*
Y0427165D01*
X0160531Y0423425D02*
Y0427165D01*
X0167421D01*
X0160531Y0423425D02*
X0167421D01*
X0360728Y0409055D02*
Y0412795D01*
X0353839Y0409055D02*
Y0412795D01*
X0360728D01*
X0353839Y0409055D02*
X0360728D01*
X0377461Y0411024D02*
Y0414764D01*
X0384350Y0411024D02*
Y0414764D01*
X0377461Y0411024D02*
X0384350D01*
X0377461Y0414764D02*
X0384350D01*
X0186221Y0420965D02*
Y0424705D01*
X0193110Y0420965D02*
Y0424705D01*
X0186221Y0420965D02*
X0193110D01*
X0186221Y0424705D02*
X0193110D01*
X0360728Y0414272D02*
Y0418012D01*
X0353839Y0414272D02*
Y0418012D01*
X0360728D01*
X0353839Y0414272D02*
X0360728D01*
X0363090Y0143799D02*
Y0147343D01*
X0356398Y0143799D02*
Y0147343D01*
X0363090D01*
X0356398Y0143799D02*
X0363090D01*
X0258532Y0125863D02*
X0263265Y0121131D01*
X0256027Y0123358D02*
X0260759Y0118625D01*
X0263265Y0121131D01*
X0256027Y0123358D02*
X0258532Y0125863D01*
X0289862Y0110236D02*
X0296555D01*
X0289862Y0106693D02*
X0296555D01*
Y0110236D01*
X0289862Y0106693D02*
Y0110236D01*
X0251034Y0166948D02*
Y0173641D01*
X0247491Y0166948D02*
Y0173641D01*
Y0166948D02*
X0251034D01*
X0247491Y0173641D02*
X0251034D01*
X0295866Y0424705D02*
Y0433169D01*
X0290354Y0424705D02*
Y0433169D01*
Y0424705D02*
X0295866D01*
X0290354Y0433169D02*
X0295866Y0433169D01*
X0268307Y0422539D02*
X0270669D01*
X0268307Y0418209D02*
X0270669D01*
X0268307Y0422539D02*
X0268307Y0418209D01*
X0270669D02*
X0270669Y0422539D01*
X0256890Y0399803D02*
Y0402165D01*
X0261221Y0399803D02*
Y0402165D01*
X0256890Y0399803D02*
X0261221Y0399803D01*
X0256890Y0402165D02*
X0261221Y0402165D01*
X0261221Y0403346D02*
Y0405709D01*
X0256890Y0403346D02*
Y0405709D01*
X0261221Y0405709D01*
X0256890Y0403346D02*
X0261221Y0403346D01*
X0288484Y0418996D02*
Y0421358D01*
X0292815Y0418996D02*
Y0421358D01*
X0288484Y0418996D02*
X0292815Y0418996D01*
X0288484Y0421358D02*
X0292815Y0421358D01*
X0157736Y0320748D02*
Y0327441D01*
X0161279Y0320748D02*
Y0327441D01*
X0157736Y0320748D02*
X0161279D01*
X0157736Y0327441D02*
X0161279D01*
X0166575Y0323051D02*
X0172874D01*
X0166575Y0334469D02*
X0166575Y0323051D01*
X0166575Y0334469D02*
X0172874Y0334469D01*
X0172874Y0323051D01*
X0170315D02*
X0172874Y0325610D01*
X0165886Y0335846D02*
Y0339587D01*
X0172776Y0335846D02*
X0172776Y0339587D01*
X0165886Y0339587D02*
X0172776Y0339587D01*
X0165886Y0335846D02*
X0172776Y0335846D01*
X0157441Y0330945D02*
X0161181Y0330945D01*
X0157441Y0337835D02*
X0161181D01*
X0157441Y0330945D02*
X0157441Y0337835D01*
X0161181Y0330945D02*
Y0337835D01*
X0151535Y0326752D02*
X0155276Y0326752D01*
X0151535Y0333642D02*
X0155276Y0333642D01*
X0151535Y0326752D02*
Y0333642D01*
X0155276Y0333642D02*
X0155276Y0326752D01*
X0347264Y0337323D02*
X0351004D01*
X0347264Y0330433D02*
X0351004D01*
Y0337323D01*
X0347264Y0330433D02*
Y0337323D01*
X0352716Y0330512D02*
X0356457D01*
X0352716Y0337402D02*
X0356457D01*
X0352716Y0330512D02*
Y0337402D01*
X0356457Y0330512D02*
Y0337402D01*
X0349744Y0318839D02*
X0353484D01*
X0349744Y0325728D02*
X0353484D01*
X0349744Y0318839D02*
Y0325728D01*
X0353484Y0318839D02*
Y0325728D01*
X0216142Y0396654D02*
Y0400197D01*
X0209449Y0396654D02*
Y0400197D01*
X0216142D01*
X0209449Y0396654D02*
X0216142D01*
X0180256Y0326693D02*
Y0330433D01*
X0187146Y0326693D02*
Y0330433D01*
X0180256D02*
X0187146D01*
X0180256Y0326693D02*
X0187146Y0326693D01*
X0146319Y0326752D02*
X0150059D01*
X0146319Y0333642D02*
X0150059D01*
X0146319Y0326752D02*
Y0333642D01*
X0150059Y0326752D02*
Y0333642D01*
X0375689Y0327658D02*
Y0331398D01*
X0382579Y0327658D02*
Y0331398D01*
X0375689D02*
X0382579D01*
X0375689Y0327658D02*
X0382579D01*
X0369055Y0319587D02*
Y0323327D01*
X0375945Y0319587D02*
Y0323327D01*
X0369055D02*
X0375945D01*
X0369055Y0319587D02*
X0375945D01*
X0372638Y0418012D02*
Y0421752D01*
X0365748Y0418012D02*
Y0421752D01*
X0372638D01*
X0365748Y0418012D02*
X0372638D01*
X0186614Y0284646D02*
Y0288386D01*
X0179724Y0284646D02*
Y0288386D01*
Y0284646D02*
X0186614D01*
X0179724Y0288386D02*
X0186614D01*
X0414370Y0274705D02*
Y0278445D01*
X0407480Y0274705D02*
Y0278445D01*
Y0274705D02*
X0414370D01*
X0407480Y0278445D02*
X0414370D01*
X0348622Y0421161D02*
X0348622Y0428248D01*
X0344685Y0421161D02*
Y0428248D01*
Y0421161D02*
X0348622D01*
X0344685Y0428248D02*
X0348622D01*
X0187067Y0331909D02*
Y0335650D01*
X0180177Y0331909D02*
Y0335650D01*
Y0331909D02*
X0187067D01*
X0180177Y0335650D02*
X0187067Y0335650D01*
X0382638Y0332618D02*
Y0336358D01*
X0375748Y0332618D02*
Y0336358D01*
Y0332618D02*
X0382638D01*
X0375748Y0336358D02*
X0382638D01*
X0349803Y0421457D02*
X0353543D01*
X0349803Y0428346D02*
X0353543D01*
Y0421457D02*
Y0428346D01*
X0349803Y0421457D02*
Y0428346D01*
X0213090Y0419390D02*
X0226476D01*
X0213090Y0412303D02*
X0226476D01*
Y0419390D01*
X0213090Y0412303D02*
Y0419390D01*
X0300689Y0484646D02*
X0309154D01*
X0300689Y0490158D02*
X0309154D01*
X0300689Y0484646D02*
Y0490158D01*
X0309154Y0484646D02*
X0309154Y0490158D01*
X0300590Y0502559D02*
X0309055D01*
X0300590Y0508071D02*
X0309055D01*
X0300590Y0502559D02*
Y0508071D01*
X0309055Y0502559D02*
X0309055Y0508071D01*
X0219291Y0369587D02*
X0227756D01*
X0219291Y0375098D02*
X0227756D01*
X0219291Y0369587D02*
Y0375098D01*
X0227756Y0369587D02*
X0227756Y0375098D01*
X0234744Y0379134D02*
Y0387598D01*
X0240256Y0379134D02*
Y0387598D01*
X0234744D02*
X0240256D01*
X0234744Y0379134D02*
X0240256Y0379134D01*
X0189173Y0285433D02*
Y0293898D01*
X0194685Y0285433D02*
Y0293898D01*
X0189173Y0285433D02*
X0194685D01*
X0189173Y0293898D02*
X0194685Y0293898D01*
X0417815Y0279331D02*
X0426279D01*
X0417815Y0284842D02*
X0426279D01*
Y0279331D02*
Y0284842D01*
X0417815D02*
X0417815Y0279331D01*
X0337008Y0414567D02*
Y0418110D01*
X0343701Y0414567D02*
Y0418110D01*
X0337008Y0414567D02*
X0343701D01*
X0337008Y0418110D02*
X0343701D01*
X0169390Y0315945D02*
X0182776D01*
X0169390Y0308858D02*
X0182776D01*
Y0315945D01*
X0169390Y0308858D02*
Y0315945D01*
X0412894Y0305217D02*
X0426279D01*
X0412894Y0298130D02*
X0426279D01*
Y0305217D01*
X0412894Y0298130D02*
Y0305217D01*
X0166240Y0289469D02*
Y0302854D01*
X0173327Y0289469D02*
Y0302854D01*
X0166240D02*
X0173327D01*
X0166240Y0289469D02*
X0173327D01*
X0187598Y0357185D02*
Y0370571D01*
X0180512Y0357185D02*
Y0370571D01*
Y0357185D02*
X0187598D01*
X0180512Y0370571D02*
X0187598D01*
X0190059Y0403248D02*
Y0416634D01*
X0182972Y0403248D02*
Y0416634D01*
Y0403248D02*
X0190059D01*
X0182972Y0416634D02*
X0190059D01*
X0407480Y0280807D02*
Y0294193D01*
X0414567Y0280807D02*
Y0294193D01*
X0407480D02*
X0414567D01*
X0407480Y0280807D02*
X0414567D01*
X0416437Y0348130D02*
Y0361516D01*
X0409350Y0348130D02*
Y0361516D01*
Y0348130D02*
X0416437D01*
X0409350Y0361516D02*
X0416437D01*
X0414764Y0394882D02*
Y0408268D01*
X0407677Y0394882D02*
Y0408268D01*
Y0394882D02*
X0414764D01*
X0407677Y0408268D02*
X0414764D01*
X0548622Y0510335D02*
X0562008D01*
X0548622Y0517421D02*
X0562008Y0517421D01*
X0548622Y0510335D02*
Y0517421D01*
X0562008Y0510335D02*
Y0517421D01*
X0510138Y0508858D02*
Y0515551D01*
X0506595Y0508858D02*
Y0515551D01*
Y0508858D02*
X0510138D01*
X0506595Y0515551D02*
X0510138D01*
X0301969Y0471161D02*
X0308661D01*
X0301969Y0467618D02*
X0308661D01*
Y0471161D01*
X0301969Y0467618D02*
Y0471161D01*
X0315059Y0513976D02*
Y0520669D01*
X0311516Y0513976D02*
Y0520669D01*
Y0513976D02*
X0315059D01*
X0311516Y0520669D02*
X0315059D01*
X0337205Y0411909D02*
X0343898D01*
X0337205Y0408366D02*
X0343898D01*
Y0411909D01*
X0337205Y0408366D02*
Y0411909D01*
X0563189Y0278366D02*
X0569882D01*
X0563189Y0281909D02*
X0569882D01*
X0563189Y0278366D02*
Y0281909D01*
X0569882Y0278366D02*
Y0281909D01*
X0325590Y0414567D02*
X0332283D01*
X0325590Y0418110D02*
X0332283D01*
X0325590Y0414567D02*
Y0418110D01*
X0332283Y0414567D02*
Y0418110D01*
X0301772Y0479232D02*
X0308465D01*
X0301772Y0482776D02*
X0308465D01*
X0301772Y0479232D02*
Y0482776D01*
X0308465Y0479232D02*
Y0482776D01*
X0183366Y0438779D02*
Y0445472D01*
X0179823Y0438779D02*
Y0445472D01*
Y0438779D02*
X0183366D01*
X0179823Y0445472D02*
X0183366D01*
X0363287Y0393012D02*
Y0399705D01*
X0366831Y0393012D02*
Y0399705D01*
X0363287D02*
X0366831D01*
X0363287Y0393012D02*
X0366831D01*
X0301181Y0527165D02*
X0307874D01*
X0301181Y0530709D02*
X0307874D01*
X0301181Y0527165D02*
Y0530709D01*
X0307874Y0527165D02*
Y0530709D01*
X0309744Y0427362D02*
X0316437D01*
X0309744Y0423819D02*
X0316437D01*
Y0427362D01*
X0309744Y0423819D02*
Y0427362D01*
X0304331Y0441732D02*
Y0448425D01*
X0300787Y0441732D02*
Y0448425D01*
Y0441732D02*
X0304331D01*
X0300787Y0448425D02*
X0304331D01*
X0313189Y0441831D02*
Y0448524D01*
X0316732Y0441831D02*
Y0448524D01*
X0313189D02*
X0316732D01*
X0313189Y0441831D02*
X0316732D01*
X0332874Y0400886D02*
X0339567D01*
X0332874Y0397342D02*
X0339567D01*
Y0400886D01*
X0332874Y0397342D02*
Y0400886D01*
X0363779Y0306299D02*
Y0312992D01*
X0367323Y0306299D02*
Y0312992D01*
X0363779D02*
X0367323D01*
X0363779Y0306299D02*
X0367323D01*
X0363878Y0296811D02*
Y0303504D01*
X0367421Y0296811D02*
Y0303504D01*
X0363878D02*
X0367421D01*
X0363878Y0296811D02*
X0367421D01*
X0145177Y0308563D02*
Y0315256D01*
X0148721Y0308563D02*
Y0315256D01*
X0145177D02*
X0148721D01*
X0145177Y0308563D02*
X0148721D01*
X0294193Y0308366D02*
Y0315059D01*
X0297736Y0308366D02*
Y0315059D01*
X0294193D02*
X0297736D01*
X0294193Y0308366D02*
X0297736D01*
X0294193Y0298721D02*
Y0305413D01*
X0297736Y0298721D02*
Y0305413D01*
X0294193D02*
X0297736D01*
X0294193Y0298721D02*
X0297736D01*
X0216535Y0307579D02*
Y0314272D01*
X0220079Y0307579D02*
Y0314272D01*
X0216535D02*
X0220079D01*
X0216535Y0307579D02*
X0220079D01*
X0216535Y0298130D02*
Y0304823D01*
X0220079Y0298130D02*
Y0304823D01*
X0216535D02*
X0220079D01*
X0216535Y0298130D02*
X0220079D01*
X0145276Y0299095D02*
Y0305787D01*
X0148819Y0299095D02*
Y0305787D01*
X0145276D02*
X0148819D01*
X0145276Y0299095D02*
X0148819D01*
X0205315Y0321535D02*
Y0328228D01*
X0201772Y0321535D02*
Y0328228D01*
Y0321535D02*
X0205315D01*
X0201772Y0328228D02*
X0205315D01*
X0354724Y0331201D02*
X0361417D01*
X0354724Y0334744D02*
X0361417D01*
X0354724Y0331201D02*
Y0334744D01*
X0361417Y0331201D02*
Y0334744D01*
X0171850Y0302854D02*
Y0309547D01*
X0175394Y0302854D02*
Y0309547D01*
X0171850Y0302854D02*
X0175394D01*
X0171850Y0309547D02*
X0175394D01*
X0137008Y0325492D02*
Y0332185D01*
X0133465Y0325492D02*
Y0332185D01*
Y0325492D02*
X0137008D01*
X0133465Y0332185D02*
X0137008D01*
X0358701Y0320571D02*
X0365394D01*
X0358701Y0317028D02*
X0365394D01*
X0358701D02*
Y0320571D01*
X0365394Y0317028D02*
Y0320571D01*
X0399390Y0290945D02*
Y0297638D01*
X0402933Y0290945D02*
Y0297638D01*
X0399390Y0290945D02*
X0402933D01*
X0399390Y0297638D02*
X0402933D01*
X0227461Y0344094D02*
X0234154D01*
X0227461Y0347638D02*
X0234154D01*
X0227461Y0344094D02*
Y0347638D01*
X0234154Y0344094D02*
Y0347638D01*
X0285728Y0325886D02*
Y0332579D01*
X0282185Y0325886D02*
Y0332579D01*
Y0325886D02*
X0285728D01*
X0282185Y0332579D02*
X0285728D01*
X0312992Y0326378D02*
Y0333071D01*
X0309449Y0326378D02*
Y0333071D01*
Y0326378D02*
X0312992D01*
X0309449Y0333071D02*
X0312992D01*
X0306988Y0193996D02*
X0309350D01*
X0306988Y0189665D02*
X0309350D01*
X0306988Y0193996D02*
X0306988Y0189665D01*
X0309350D02*
X0309350Y0193996D01*
X0297736Y0193898D02*
X0300098D01*
X0297736Y0189567D02*
X0300098D01*
X0297736Y0193898D02*
X0297736Y0189567D01*
X0300098D02*
X0300098Y0193898D01*
X0283227Y0169480D02*
Y0171843D01*
X0287558Y0169480D02*
Y0171843D01*
X0283227Y0169480D02*
X0287558Y0169480D01*
X0283227Y0171843D02*
X0287558Y0171843D01*
X0283227Y0174491D02*
Y0176854D01*
X0287558Y0174491D02*
Y0176854D01*
X0283227Y0174491D02*
X0287558Y0174491D01*
X0283227Y0176854D02*
X0287558Y0176854D01*
X0276401Y0128377D02*
X0281133Y0123645D01*
X0278906Y0130883D02*
X0283639Y0126150D01*
X0276401Y0128377D02*
X0278906Y0130883D01*
X0281133Y0123645D02*
X0283639Y0126150D01*
X0328248Y0151181D02*
X0334941D01*
X0328248Y0147638D02*
X0334941D01*
Y0151181D01*
X0328248Y0147638D02*
Y0151181D01*
X0270485Y0189699D02*
X0277178D01*
X0270485Y0193243D02*
X0277178D01*
X0270485Y0189699D02*
Y0193243D01*
X0277178Y0189699D02*
Y0193243D01*
X0357972Y0179134D02*
Y0185827D01*
X0361516Y0179134D02*
Y0185827D01*
X0357972D02*
X0361516D01*
X0357972Y0179134D02*
X0361516D01*
X0325590Y0188287D02*
Y0194980D01*
X0322047Y0188287D02*
Y0194980D01*
Y0188287D02*
X0325590D01*
X0322047Y0194980D02*
X0325590D01*
X0259867Y0101100D02*
Y0107792D01*
X0263410Y0101100D02*
Y0107792D01*
X0259867D02*
X0263410D01*
X0259867Y0101100D02*
X0263410D01*
X0349040Y0200305D02*
X0355733D01*
X0349040Y0196762D02*
X0355733D01*
Y0200305D01*
X0349040Y0196762D02*
Y0200305D01*
X0322579Y0204429D02*
Y0211122D01*
X0326122Y0204429D02*
Y0211122D01*
X0322579D02*
X0326122D01*
X0322579Y0204429D02*
X0326122D01*
X0278504Y0198962D02*
X0283237Y0203695D01*
X0281010Y0196457D02*
X0285742Y0201189D01*
X0283237Y0203695D02*
X0285742Y0201189D01*
X0278504Y0198962D02*
X0281010Y0196457D01*
X0301940Y0125183D02*
X0308633D01*
X0301940Y0128726D02*
X0308633D01*
X0301940Y0125183D02*
Y0128726D01*
X0308633Y0125183D02*
Y0128726D01*
X0449764Y0255020D02*
Y0261713D01*
X0446220Y0261713D02*
X0446220Y0255020D01*
X0449764D01*
X0446220Y0261713D02*
X0449764Y0261713D01*
X0369512Y0205325D02*
Y0212018D01*
X0373056Y0205325D02*
Y0212018D01*
X0369512D02*
X0373056D01*
X0369512Y0205325D02*
X0373056D01*
X0305413Y0209744D02*
X0312106D01*
X0305413Y0213287D02*
X0312106D01*
X0305413Y0209744D02*
Y0213287D01*
X0312106Y0209744D02*
Y0213287D01*
X0328248Y0157185D02*
X0334941D01*
X0328248Y0153642D02*
X0334941D01*
Y0157185D01*
X0328248Y0153642D02*
Y0157185D01*
X0265896Y0156220D02*
Y0162913D01*
X0269440Y0156220D02*
Y0162913D01*
X0265896D02*
X0269440D01*
X0265896Y0156220D02*
X0269440D01*
X0405217Y0086319D02*
Y0093012D01*
X0401673Y0086319D02*
Y0093012D01*
Y0086319D02*
X0405217D01*
X0401673Y0093012D02*
X0405217D01*
X0294685Y0228346D02*
X0301378D01*
X0294685Y0224803D02*
X0301378D01*
Y0228346D01*
X0294685Y0224803D02*
Y0228346D01*
X0383524Y0187646D02*
Y0191425D01*
X0390413Y0187646D02*
Y0191425D01*
X0383524Y0187646D02*
X0390413D01*
X0383524Y0191425D02*
X0390413D01*
X0376299Y0205217D02*
X0380079D01*
X0376299Y0212106D02*
X0380079D01*
Y0205217D02*
Y0212106D01*
X0376299Y0205217D02*
Y0212106D01*
X0520669Y0351949D02*
Y0355492D01*
X0513976Y0351949D02*
Y0355492D01*
X0520669D01*
X0513976Y0351949D02*
X0520669D01*
X0512795Y0374902D02*
X0519882D01*
X0512795Y0378839D02*
X0519882D01*
X0512795Y0374902D02*
Y0378839D01*
X0519882Y0374902D02*
Y0378839D01*
X0513366Y0358839D02*
X0520453D01*
X0513366Y0372224D02*
X0520453D01*
X0520453Y0358839D02*
X0520453Y0372224D01*
X0513366Y0358839D02*
X0513366Y0372224D01*
X0441535Y0352953D02*
X0492717D01*
X0441535Y0423819D02*
X0492717Y0423819D01*
X0492717Y0352953D01*
X0441535D02*
Y0423819D01*
X0455217Y0282382D02*
Y0285925D01*
X0448524Y0282382D02*
Y0285925D01*
X0455217D01*
X0448524Y0282382D02*
X0455217D01*
X0442028Y0343209D02*
X0449114D01*
X0442028Y0329823D02*
X0449114D01*
X0442028D02*
X0442028Y0343209D01*
X0449114Y0329823D02*
X0449114Y0343209D01*
X0537776Y0371457D02*
Y0378543D01*
X0524390Y0371457D02*
Y0378543D01*
X0537776Y0378543D01*
X0524390Y0371457D02*
X0537776Y0371457D01*
X0456772Y0273622D02*
Y0280709D01*
X0443386Y0273622D02*
Y0280709D01*
X0456772Y0280709D01*
X0443386Y0273622D02*
X0456772Y0273622D01*
X0549390Y0386968D02*
X0553169D01*
X0549390Y0380079D02*
X0553169D01*
X0549390D02*
X0549390Y0386968D01*
X0553169D02*
X0553169Y0380079D01*
X0285827Y0232579D02*
Y0239272D01*
X0289370Y0232579D02*
Y0239272D01*
X0285827D02*
X0289370D01*
X0285827Y0232579D02*
X0289370D01*
X0304331Y0206693D02*
X0308071D01*
X0304331Y0199803D02*
X0308071D01*
X0304331D02*
Y0206693D01*
X0308071Y0199803D02*
Y0206693D01*
X0302362Y0193996D02*
X0304724D01*
X0302362Y0189665D02*
X0304724D01*
X0302362Y0193996D02*
X0302362Y0189665D01*
X0304724D02*
X0304724Y0193996D01*
X0287992Y0191535D02*
X0290354D01*
X0287992Y0187205D02*
X0290354D01*
X0287992Y0191535D02*
X0287992Y0187205D01*
X0290354D02*
X0290354Y0191535D01*
X0303937Y0334744D02*
X0306102D01*
X0303937Y0330610D02*
X0306102D01*
X0303937D02*
Y0334744D01*
X0306102Y0330610D02*
Y0334744D01*
X0232972Y0349902D02*
Y0352067D01*
X0228839Y0349902D02*
Y0352067D01*
X0232972D01*
X0228839Y0349902D02*
X0232972D01*
X0210236Y0335236D02*
Y0337402D01*
X0214370Y0335236D02*
Y0337402D01*
X0210236Y0335236D02*
X0214370D01*
X0210236Y0337402D02*
X0214370D01*
X0221358Y0335335D02*
Y0337500D01*
X0217224Y0335335D02*
Y0337500D01*
X0221358D01*
X0217224Y0335335D02*
X0221358D01*
X0300295Y0330512D02*
X0302461D01*
X0300295Y0334646D02*
X0302461D01*
Y0330512D02*
Y0334646D01*
X0300295Y0330512D02*
Y0334646D01*
X0296555Y0330610D02*
X0298721D01*
X0296555Y0334744D02*
X0298721D01*
Y0330610D02*
Y0334744D01*
X0296555Y0330610D02*
Y0334744D01*
X0373524Y0330610D02*
Y0332776D01*
X0369390Y0330610D02*
Y0332776D01*
X0373524D01*
X0369390Y0330610D02*
X0373524D01*
X0369390Y0323524D02*
Y0325689D01*
X0373524Y0323524D02*
Y0325689D01*
X0369390Y0323524D02*
X0373524D01*
X0369390Y0325689D02*
X0373524D01*
X0373622Y0327165D02*
Y0329331D01*
X0369488Y0327165D02*
Y0329331D01*
X0373622D01*
X0369488Y0327165D02*
X0373622D01*
X0139567Y0330610D02*
Y0332776D01*
X0135433Y0330610D02*
Y0332776D01*
Y0330610D02*
X0139567D01*
X0135433Y0332776D02*
X0139567D01*
X0142717Y0324705D02*
Y0326870D01*
X0138583Y0324705D02*
Y0326870D01*
Y0324705D02*
X0142717D01*
X0138583Y0326870D02*
X0142717D01*
X0373622Y0315748D02*
Y0317913D01*
X0369488Y0315748D02*
Y0317913D01*
X0373622D01*
X0369488Y0315748D02*
X0373622D01*
X0130709Y0336614D02*
Y0338779D01*
X0134843Y0336614D02*
Y0338779D01*
X0130709Y0336614D02*
X0134843D01*
X0130709Y0338779D02*
X0134843D01*
X0373622Y0319193D02*
Y0321358D01*
X0369488Y0319193D02*
Y0321358D01*
X0373622D01*
X0369488Y0319193D02*
X0373622D01*
X0144193Y0335630D02*
Y0337795D01*
X0140059Y0335630D02*
Y0337795D01*
X0144193D01*
X0140059Y0335630D02*
X0144193D01*
X0131555Y0326673D02*
Y0328839D01*
X0135689Y0326673D02*
Y0328839D01*
X0131555D02*
X0135689D01*
X0131555Y0326673D02*
X0135689D01*
X0208465Y0458366D02*
X0212008D01*
X0208465Y0451673D02*
X0212008D01*
X0208465D02*
Y0458366D01*
X0212008Y0451673D02*
Y0458366D01*
X0229724Y0427165D02*
X0236417D01*
X0229724Y0430709D02*
X0236417D01*
X0229724Y0427165D02*
Y0430709D01*
X0236417Y0427165D02*
Y0430709D01*
X0534449Y0343012D02*
X0558465D01*
X0534449Y0321752D02*
X0558465D01*
X0534449D02*
Y0343012D01*
X0558465Y0321752D02*
Y0343012D01*
X0440748Y0352854D02*
X0491929Y0352854D01*
X0440748Y0423721D02*
X0491929Y0423721D01*
X0440748Y0423721D02*
X0440748Y0352854D01*
X0491929Y0352854D02*
Y0423721D01*
X0532421Y0365630D02*
Y0369409D01*
X0525531Y0365630D02*
Y0369409D01*
X0532421D01*
X0525531Y0365630D02*
X0532421D01*
X0450669Y0340059D02*
X0454449D01*
X0450669Y0333169D02*
X0454449D01*
X0450669D02*
Y0340059D01*
X0454449D02*
X0454449Y0333169D01*
X0551870Y0262795D02*
Y0269488D01*
X0548327Y0262795D02*
Y0269488D01*
Y0262795D02*
X0551870D01*
X0548327Y0269488D02*
X0551870D01*
X0565748Y0240256D02*
X0579134Y0240256D01*
X0565748Y0233169D02*
X0579134D01*
X0579134Y0240256D01*
X0565748Y0240256D02*
X0565748Y0233169D01*
X0442618Y0293110D02*
X0446555D01*
X0442618Y0286024D02*
X0446555D01*
X0442618D02*
Y0293110D01*
X0446555Y0286024D02*
Y0293110D01*
X0407382Y0280217D02*
X0414272D01*
X0407382Y0283957D02*
X0414272D01*
Y0280217D02*
Y0283957D01*
X0407382Y0280217D02*
X0407382Y0283957D01*
X0426083Y0290256D02*
X0432776D01*
X0426083D02*
Y0295177D01*
X0432776D01*
Y0290256D02*
Y0295177D01*
X0182874Y0293209D02*
Y0299902D01*
X0187795D01*
Y0293209D02*
Y0299902D01*
X0182874Y0293209D02*
X0187795D01*
X0425394Y0280315D02*
X0434055D01*
X0425394Y0286024D02*
X0434055D01*
X0425394Y0280315D02*
Y0286024D01*
X0434055Y0280315D02*
Y0286024D01*
X0194882Y0292421D02*
Y0301083D01*
X0189173Y0292421D02*
Y0301083D01*
Y0292421D02*
X0194882D01*
X0189173Y0301083D02*
X0194882D01*
X0511909Y0540650D02*
Y0547146D01*
X0515650Y0540650D02*
Y0547146D01*
X0511909D02*
X0515650D01*
X0511909Y0540650D02*
X0515650D01*
X0517126Y0547244D02*
X0520669D01*
X0517126Y0540551D02*
X0520669D01*
X0517126D02*
Y0547244D01*
X0520669Y0540551D02*
Y0547244D01*
X0513189Y0534941D02*
Y0538484D01*
X0519882Y0534941D02*
Y0538484D01*
X0513189Y0534941D02*
X0519882D01*
X0513189Y0538484D02*
X0519882D01*
X0508268Y0535630D02*
Y0542520D01*
X0504528Y0535630D02*
Y0542520D01*
Y0535630D02*
X0508268D01*
X0504528Y0542520D02*
X0508268D01*
X0505807Y0522342D02*
X0507776Y0520374D01*
X0505807Y0520374D02*
X0505807Y0532185D01*
X0517618Y0532185D01*
X0517618Y0520374D02*
X0517618Y0532185D01*
X0505807Y0520374D02*
X0517618D01*
X0511358Y0503839D02*
X0518366D01*
X0511358Y0514862D02*
X0518366D01*
X0518366Y0503839D02*
X0518366Y0514862D01*
X0511358D02*
X0511358Y0503839D01*
X0494587Y0518996D02*
X0505217D01*
X0494587Y0505610D02*
X0505217D01*
X0494587D02*
Y0518996D01*
X0505217Y0505610D02*
X0505217Y0518996D01*
X0482677Y0519095D02*
X0493307D01*
X0482677Y0505709D02*
X0493307Y0505709D01*
X0482677Y0505709D02*
Y0519095D01*
X0493307Y0505709D02*
Y0519095D01*
X0470669Y0518996D02*
X0481299D01*
X0470669Y0505610D02*
X0481299D01*
X0470669D02*
X0470669Y0518996D01*
X0481299Y0505610D02*
Y0518996D01*
X0449705Y0521555D02*
X0456398D01*
X0449705Y0525098D02*
X0456398D01*
X0449705Y0521555D02*
Y0525098D01*
X0456398Y0521555D02*
Y0525098D01*
X0447736Y0518996D02*
X0458366D01*
X0447736Y0505610D02*
X0458366Y0505610D01*
X0447736Y0505610D02*
Y0518996D01*
X0458366Y0505610D02*
Y0518996D01*
X0468012Y0505118D02*
Y0509055D01*
X0460925Y0505118D02*
Y0509055D01*
X0468012Y0509055D01*
X0460925Y0505118D02*
X0468012D01*
X0493799Y0534547D02*
X0500689D01*
X0493799Y0538287D02*
X0500689D01*
X0493799Y0534547D02*
Y0538287D01*
X0500689Y0534547D02*
Y0538287D01*
X0524114Y0544882D02*
X0530807D01*
X0524114Y0541339D02*
X0530807D01*
Y0544882D01*
X0524114Y0541339D02*
Y0544882D01*
X0524016Y0536319D02*
X0530905D01*
X0524016Y0540059D02*
X0530905D01*
X0524016Y0536319D02*
Y0540059D01*
X0530905Y0536319D02*
Y0540059D01*
X0530807Y0531496D02*
Y0535039D01*
X0524114Y0531496D02*
Y0535039D01*
X0530807D01*
X0524114Y0531496D02*
X0530807D01*
X0524114Y0526476D02*
X0530807D01*
X0524114Y0530020D02*
X0530807D01*
X0524114Y0526476D02*
Y0530020D01*
X0530807Y0526476D02*
Y0530020D01*
X0507028Y0299370D02*
Y0309370D01*
X0485532D02*
X0507028D01*
X0485532Y0299370D02*
Y0309370D01*
Y0299370D02*
X0507028D01*
X0536909D02*
Y0309370D01*
X0515413D02*
X0536909D01*
X0515413Y0299370D02*
Y0309370D01*
Y0299370D02*
X0536909D01*
X0577756Y0255315D02*
Y0259055D01*
X0570866Y0255315D02*
X0570866Y0259055D01*
X0577756Y0259055D01*
X0570866Y0255315D02*
X0577756Y0255315D01*
X0594488Y0188642D02*
Y0199232D01*
X0588189D02*
X0594488D01*
X0588189Y0188642D02*
X0594488D01*
X0588189D02*
Y0199232D01*
X0588169Y0219173D02*
X0594862Y0219173D01*
X0588169Y0207953D02*
X0594862Y0207953D01*
X0588169Y0207953D02*
Y0219173D01*
X0594862Y0207953D02*
Y0219173D01*
X0506457Y0224665D02*
X0586772Y0224665D01*
X0586772Y0183721D01*
X0506457Y0183721D02*
Y0224665D01*
Y0183721D02*
X0586772Y0183721D01*
X0590748Y0332283D02*
X0590748Y0338779D01*
X0587008D02*
X0587008Y0332283D01*
X0590748D01*
X0587008Y0338779D02*
X0590748D01*
X0587008Y0322539D02*
X0590748D01*
X0587008Y0329035D02*
X0590748D01*
X0590748Y0322539D01*
X0587008D02*
X0587008Y0329035D01*
X0543602Y0269488D02*
X0547146D01*
X0543602Y0262795D02*
X0547146D01*
X0543602D02*
Y0269488D01*
X0547146Y0262795D02*
Y0269488D01*
X0573740Y0352953D02*
X0573740Y0378543D01*
X0555630Y0352953D02*
X0573740Y0352953D01*
X0555630Y0378543D02*
X0573740D01*
X0555630Y0352953D02*
Y0378543D01*
X0512992Y0456201D02*
Y0462697D01*
X0525787D02*
X0525787Y0456201D01*
X0512992Y0456201D02*
X0525787Y0456201D01*
X0512992Y0462697D02*
X0525787D01*
X0530709Y0456299D02*
Y0462795D01*
X0543504Y0462795D02*
X0543504Y0456299D01*
X0530709Y0456299D02*
X0543504Y0456299D01*
X0530709Y0462795D02*
X0543504Y0462795D01*
X0548425Y0462795D02*
X0548425Y0456299D01*
X0561221D02*
Y0462795D01*
X0548425Y0456299D02*
X0561221D01*
X0548425Y0462795D02*
X0561221Y0462795D01*
X0565453Y0462697D02*
X0578248Y0462697D01*
X0565453Y0456201D02*
X0578248Y0456201D01*
Y0462697D01*
X0565453Y0456201D02*
Y0462697D01*
X0236910Y0309449D02*
X0240059D01*
X0240059Y0304724D01*
X0236910D02*
X0240059D01*
X0236910Y0309449D02*
X0236910Y0304724D01*
X0320866Y0189665D02*
Y0193799D01*
X0318701Y0189665D02*
Y0193799D01*
Y0189665D02*
X0320866Y0189665D01*
X0318701Y0193799D02*
X0320866D01*
X0315059Y0189764D02*
X0317224D01*
X0315059Y0193898D02*
X0317224D01*
Y0189764D02*
Y0193898D01*
X0315059Y0189764D02*
Y0193898D01*
X0157874Y0301378D02*
Y0304921D01*
X0164567Y0301378D02*
Y0304921D01*
X0157874Y0301378D02*
X0164567D01*
X0157874Y0304921D02*
X0164567D01*
X0428839Y0292618D02*
Y0302854D01*
X0410728Y0292618D02*
Y0302854D01*
X0428839D01*
X0410728Y0292618D02*
X0428839D01*
X0589862Y0201378D02*
X0589862Y0194685D01*
X0593405Y0194685D02*
X0593405Y0201378D01*
X0589862Y0194685D02*
X0593405Y0194685D01*
X0589862Y0201378D02*
X0593405D01*
X0286811Y0375295D02*
Y0378839D01*
X0293504Y0375295D02*
Y0378839D01*
X0286811Y0375295D02*
X0293504D01*
X0286811Y0378839D02*
X0293504D01*
X0343445Y0208957D02*
Y0212894D01*
X0336358Y0208957D02*
Y0212894D01*
X0343445D01*
X0336358Y0208957D02*
X0343445D01*
X0217421Y0088189D02*
Y0095079D01*
X0204232Y0088189D02*
X0204232Y0095079D01*
X0217421D01*
X0204232Y0088189D02*
X0217421Y0088189D01*
X0221068Y0104249D02*
X0224847D01*
X0221068Y0097359D02*
X0224847D01*
X0221068D02*
Y0104249D01*
X0224847Y0097359D02*
Y0104249D01*
X0227485Y0099033D02*
X0234572D01*
X0227485Y0095096D02*
X0234572D01*
Y0099033D01*
X0227485Y0095096D02*
Y0099033D01*
X0228765Y0091946D02*
X0235851D01*
X0228765Y0088009D02*
X0235851D01*
X0235851Y0091946D02*
X0235851Y0088009D01*
X0228765D02*
Y0091946D01*
X0217286Y0107195D02*
Y0114085D01*
X0204097Y0107195D02*
X0204097Y0114085D01*
X0217286D01*
X0204097Y0107195D02*
X0217286D01*
X0180512Y0114173D02*
X0180512Y0107283D01*
X0167323D02*
X0167323Y0114173D01*
X0180512D01*
X0167323Y0107283D02*
X0180512D01*
X0198917Y0114173D02*
X0198917Y0107283D01*
X0185728D02*
X0185728Y0114173D01*
X0198917D01*
X0185728Y0107283D02*
X0198917D01*
X0227583Y0106513D02*
X0234670D01*
X0227583Y0102576D02*
X0234670D01*
Y0106513D01*
X0227583Y0102576D02*
Y0106513D01*
X0240280Y0088088D02*
Y0091867D01*
X0247170Y0088088D02*
Y0091867D01*
X0240280Y0088088D02*
X0247170Y0088088D01*
X0240280Y0091867D02*
X0247170Y0091867D01*
X0237229Y0098442D02*
Y0103363D01*
X0245103Y0098442D02*
Y0103363D01*
X0237229D02*
X0245103D01*
X0237229Y0098442D02*
X0245103D01*
X0180709Y0095177D02*
X0180709Y0088287D01*
X0167520Y0088287D02*
X0167520Y0095177D01*
X0180709D01*
X0167520Y0088287D02*
X0180709Y0088287D01*
X0199016Y0095177D02*
X0199016Y0088287D01*
X0185827Y0088287D02*
X0185827Y0095177D01*
X0199016D01*
X0185827Y0088287D02*
X0199016Y0088287D01*
X0228666Y0113796D02*
X0235753D01*
X0228666Y0109859D02*
X0235753D01*
Y0113796D01*
X0228666Y0109859D02*
Y0113796D01*
X0240280Y0109840D02*
Y0113619D01*
X0247170D02*
X0247170Y0109840D01*
X0240280Y0109840D02*
X0247170Y0109840D01*
X0240280Y0113619D02*
X0247170D01*
X0097146Y0180276D02*
Y0193071D01*
X0090650Y0180276D02*
Y0193071D01*
Y0180276D02*
X0097146D01*
X0090650Y0193071D02*
X0097146D01*
X0252483Y0120110D02*
X0254989Y0122615D01*
X0257216Y0115377D02*
X0259721Y0117883D01*
X0252483Y0120110D02*
X0257216Y0115377D01*
X0254989Y0122615D02*
X0259721Y0117883D01*
X0259570Y0129398D02*
X0262075Y0126893D01*
X0264302Y0134131D02*
X0266808Y0131625D01*
X0262075Y0126893D02*
X0266808Y0131625D01*
X0259570Y0129398D02*
X0264302Y0134131D01*
X0267944Y0111046D02*
X0270450Y0113552D01*
X0263212Y0115779D02*
X0265717Y0118284D01*
X0270450Y0113552D01*
X0263212Y0115779D02*
X0267944Y0111046D01*
X0282320Y0138871D02*
X0283851Y0137340D01*
X0285243Y0141794D02*
X0286774Y0140263D01*
X0283851Y0137340D02*
X0286774Y0140263D01*
X0282320Y0138871D02*
X0285243Y0141794D01*
X0285568Y0135623D02*
X0287099Y0134092D01*
X0288491Y0138546D02*
X0290022Y0137015D01*
X0287099Y0134092D02*
X0290022Y0137015D01*
X0285568Y0135623D02*
X0288491Y0138546D01*
X0287398Y0143989D02*
X0290460Y0147051D01*
X0289068Y0142319D02*
X0292130Y0145381D01*
X0290460Y0147051D02*
X0292130Y0145381D01*
X0287398Y0143989D02*
X0289068Y0142319D01*
X0292217Y0139268D02*
X0295280Y0142330D01*
X0290547Y0140938D02*
X0293609Y0144000D01*
X0290547Y0140938D02*
X0292217Y0139268D01*
X0293609Y0144000D02*
X0295280Y0142330D01*
X0294383Y0149610D02*
X0297445Y0146548D01*
X0292712Y0147940D02*
X0295775Y0144878D01*
X0297445Y0146548D01*
X0292712Y0147940D02*
X0294383Y0149610D01*
X0218012Y0451673D02*
Y0456988D01*
X0226279Y0451673D02*
Y0456988D01*
X0218012Y0451673D02*
X0226279D01*
X0218012Y0456988D02*
X0226279D01*
X0232382Y0433957D02*
Y0440650D01*
X0228839Y0433957D02*
Y0440650D01*
Y0433957D02*
X0232382D01*
X0228839Y0440650D02*
X0232382D01*
X0216043Y0411024D02*
X0223130D01*
X0216043Y0407087D02*
X0223130D01*
Y0411024D01*
X0216043Y0407087D02*
Y0411024D01*
X0206102Y0419095D02*
X0209646D01*
X0206102Y0412402D02*
X0209646D01*
X0206102D02*
Y0419095D01*
X0209646Y0412402D02*
Y0419095D01*
X0282283Y0423327D02*
X0284646D01*
X0282283Y0418996D02*
X0284646D01*
X0282283Y0423327D02*
X0282283Y0418996D01*
X0284646D02*
X0284646Y0423327D01*
X0271752Y0422539D02*
X0274114D01*
X0271752Y0418209D02*
X0274114D01*
X0271752Y0422539D02*
X0271752Y0418209D01*
X0274114D02*
X0274114Y0422539D01*
X0277461Y0419291D02*
Y0423425D01*
X0275295Y0419291D02*
Y0423425D01*
Y0419291D02*
X0277461D01*
X0275295Y0423425D02*
X0277461D01*
X0279528Y0440158D02*
X0283465D01*
X0279528Y0433071D02*
X0283465D01*
X0279528D02*
Y0440158D01*
X0283465Y0433071D02*
Y0440158D01*
X0258465Y0440453D02*
X0262402D01*
X0258465Y0433366D02*
X0262402D01*
X0258465D02*
Y0440453D01*
X0262402Y0433366D02*
Y0440453D01*
X0292717Y0438287D02*
Y0446161D01*
X0287795Y0438287D02*
Y0446161D01*
X0292717D01*
X0287795Y0438287D02*
X0292717D01*
X0257185Y0392323D02*
X0261319D01*
X0257185Y0390158D02*
X0261319D01*
Y0392323D01*
X0257185Y0390158D02*
Y0392323D01*
X0256988Y0393799D02*
Y0396161D01*
X0261319Y0393799D02*
Y0396161D01*
X0256988Y0393799D02*
X0261319Y0393799D01*
X0256988Y0396161D02*
X0261319Y0396161D01*
X0422244Y0447736D02*
Y0450886D01*
X0417520D02*
X0422244D01*
X0417520Y0447736D02*
X0422244D01*
X0417520D02*
Y0450886D01*
X0414567Y0473917D02*
X0421457D01*
X0414567Y0487106D02*
X0421457D01*
X0414567Y0473917D02*
Y0487106D01*
X0421457D02*
X0421457Y0473917D01*
X0414567Y0491142D02*
X0421457D01*
X0414567Y0504331D02*
X0421457Y0504331D01*
X0414567Y0491142D02*
Y0504331D01*
X0421457Y0491142D02*
X0421457Y0504331D01*
X0414468Y0456791D02*
X0421358Y0456791D01*
X0414468Y0469980D02*
X0421358Y0469980D01*
X0414468Y0456791D02*
Y0469980D01*
X0421358Y0456791D02*
Y0469980D01*
X0423602Y0443701D02*
X0423602Y0449213D01*
X0411634Y0443701D02*
X0411634Y0449213D01*
X0423602D01*
X0411634Y0443701D02*
X0423602D01*
X0286319Y0452953D02*
Y0456890D01*
X0293406Y0452953D02*
Y0456890D01*
X0286319Y0452953D02*
X0293406D01*
X0286319Y0456890D02*
X0293406D01*
X0414665Y0371063D02*
X0418209D01*
X0414665Y0377756D02*
X0418209D01*
X0414665D02*
X0414665Y0371063D01*
X0418209D02*
Y0377756D01*
X0420768Y0371063D02*
X0424311D01*
X0420768Y0377756D02*
X0424311D01*
X0420768D02*
X0420768Y0371063D01*
X0424311D02*
Y0377756D01*
X0416732Y0364862D02*
X0423032D01*
Y0352264D02*
Y0364862D01*
X0416732Y0352264D02*
X0423032D01*
X0416732D02*
Y0364862D01*
X0427362Y0391142D02*
X0427362Y0398228D01*
X0431299D02*
X0431299Y0391142D01*
X0427362Y0391142D02*
X0431299Y0391142D01*
X0427362Y0398228D02*
X0431299D01*
X0421752Y0380020D02*
Y0387894D01*
X0416831Y0380020D02*
Y0387894D01*
Y0380020D02*
X0421752D01*
X0416831Y0387894D02*
X0421752D01*
X0419252Y0427598D02*
X0419252Y0416102D01*
X0414134D02*
Y0427598D01*
Y0416102D02*
X0419252D01*
X0414134Y0427598D02*
X0419252D01*
X0375650Y0172803D02*
X0375650Y0184614D01*
X0387461Y0172803D02*
Y0184614D01*
X0375650Y0172803D02*
X0387461Y0172803D01*
X0375650Y0184614D02*
X0387461D01*
X0368898Y0187795D02*
Y0191732D01*
X0361811Y0187795D02*
Y0191732D01*
X0368898Y0191732D01*
X0361811Y0187795D02*
X0368898Y0187795D01*
X0344409Y0185945D02*
X0348543D01*
X0344409Y0183780D02*
X0348543D01*
Y0185945D01*
X0344409Y0183780D02*
Y0185945D01*
X0344232Y0173248D02*
Y0175413D01*
X0348366Y0173248D02*
Y0175413D01*
X0344232Y0173248D02*
X0348366D01*
X0344232Y0175413D02*
X0348366D01*
X0293209Y0200492D02*
X0295571D01*
X0293209Y0196161D02*
X0295571D01*
X0293209D02*
Y0200492D01*
X0295571Y0196161D02*
X0295571Y0200492D01*
X0293209Y0189173D02*
X0295374D01*
X0293209Y0193307D02*
X0295374D01*
Y0189173D02*
Y0193307D01*
X0293209Y0189173D02*
Y0193307D01*
X0312992Y0138976D02*
Y0143307D01*
X0315354D02*
X0315354Y0138976D01*
X0312992Y0143307D02*
X0315354D01*
X0312992Y0138976D02*
X0315354D01*
X0317028D02*
X0319193D01*
X0317028Y0143110D02*
X0319193D01*
Y0138976D02*
Y0143110D01*
X0317028Y0138976D02*
Y0143110D01*
X0275919Y0169267D02*
X0280250Y0169267D01*
X0275919Y0166905D02*
X0280250D01*
Y0169267D01*
X0275919Y0166905D02*
Y0169267D01*
X0308354Y0106670D02*
Y0110213D01*
X0301661Y0106670D02*
Y0110213D01*
X0308354D01*
X0301661Y0106670D02*
X0308354D01*
X0288484Y0114862D02*
X0292028D01*
X0288484Y0121555D02*
X0292028D01*
Y0114862D02*
Y0121555D01*
X0288484Y0114862D02*
Y0121555D01*
X0289961Y0101378D02*
Y0104921D01*
X0296654Y0101378D02*
Y0104921D01*
X0289961Y0101378D02*
X0296654D01*
X0289961Y0104921D02*
X0296654D01*
X0304331Y0131201D02*
X0306496D01*
X0304331Y0135335D02*
X0306496D01*
Y0131201D02*
Y0135335D01*
X0304331Y0131201D02*
Y0135335D01*
X0298425Y0139075D02*
X0298425Y0143405D01*
X0300787D02*
X0300787Y0139075D01*
X0298425Y0143405D02*
X0300787D01*
X0298425Y0139075D02*
X0300787D01*
X0305906Y0139075D02*
Y0143405D01*
X0303543D02*
X0303543Y0139075D01*
X0305906D01*
X0303543Y0143405D02*
X0305906D01*
X0300492Y0148031D02*
X0304823Y0148031D01*
X0300492Y0145669D02*
X0304823Y0145669D01*
Y0148031D01*
X0300492Y0145669D02*
Y0148031D01*
X0441535Y0431890D02*
Y0502756D01*
X0492717Y0431890D02*
Y0502756D01*
X0441535D02*
X0492717D01*
X0441535Y0431890D02*
X0492717Y0431890D01*
X0434055Y0112795D02*
Y0116732D01*
X0441142Y0112795D02*
Y0116732D01*
X0434055Y0112795D02*
X0441142D01*
X0434055Y0116732D02*
X0441142D01*
X0441535Y0063484D02*
Y0067421D01*
X0434449Y0063484D02*
Y0067421D01*
X0441535D01*
X0434449Y0063484D02*
X0441535D01*
X0441240Y0083071D02*
Y0087008D01*
X0434154Y0083071D02*
Y0087008D01*
X0441240D01*
X0434154Y0083071D02*
X0441240D01*
X0441437Y0092913D02*
Y0096850D01*
X0434350Y0092913D02*
Y0096850D01*
X0441437D01*
X0434350Y0092913D02*
X0441437D01*
X0332933Y0171319D02*
X0337067D01*
X0332933Y0169153D02*
X0337067D01*
Y0171319D01*
X0332933Y0169153D02*
Y0171319D01*
X0332913Y0175374D02*
X0337047D01*
X0332913Y0173209D02*
X0337047D01*
Y0175374D01*
X0332913Y0173209D02*
Y0175374D01*
X0328150Y0160335D02*
Y0164075D01*
X0335039Y0160335D02*
Y0164075D01*
X0328150Y0160335D02*
X0335039D01*
X0328150Y0164075D02*
X0335039D01*
X0367028Y0143898D02*
Y0147441D01*
X0373721Y0143898D02*
Y0147441D01*
X0367028Y0143898D02*
X0373721D01*
X0367028Y0147441D02*
X0373721Y0147441D01*
X0332972Y0167618D02*
X0337106D01*
X0332972Y0165453D02*
X0337106D01*
Y0167618D01*
X0332972Y0165453D02*
Y0167618D01*
X0260630Y0185236D02*
X0262795D01*
X0260630Y0181102D02*
X0262795D01*
X0260630D02*
Y0185236D01*
X0262795Y0181102D02*
Y0185236D01*
X0272146Y0164764D02*
X0276279D01*
X0272146Y0162598D02*
X0276279Y0162598D01*
Y0164764D01*
X0272146Y0162598D02*
X0272146Y0164764D01*
X0285680Y0162617D02*
X0288042D01*
X0285680Y0158287D02*
X0288042D01*
X0285680Y0162617D02*
X0285680Y0158287D01*
X0288042Y0162617D02*
X0288042Y0158287D01*
X0318361Y0153959D02*
X0320329Y0155927D01*
X0292770Y0153959D02*
X0320329Y0153959D01*
X0292770Y0153959D02*
Y0181518D01*
X0320329Y0181518D01*
Y0153959D02*
Y0181518D01*
X0247491Y0156417D02*
X0251034D01*
X0247491Y0163110D02*
X0251034D01*
Y0156417D02*
Y0163110D01*
X0247491D02*
X0247491Y0156417D01*
X0450492Y0105905D02*
Y0109843D01*
X0443405Y0105905D02*
Y0109843D01*
X0450492D01*
X0443405Y0105905D02*
X0450492D01*
X0433661Y0102559D02*
X0441535D01*
X0433661Y0107480D02*
X0441535D01*
Y0102559D02*
Y0107480D01*
X0433661Y0102559D02*
Y0107480D01*
X0457500Y0108465D02*
X0457500Y0101575D01*
X0453720D02*
Y0108465D01*
Y0101575D02*
X0457500D01*
X0453720Y0108465D02*
X0457500D01*
X0453720Y0077854D02*
X0453720Y0070965D01*
X0457500D02*
Y0077854D01*
X0453720D02*
X0457500D01*
X0453720Y0070965D02*
X0457500D01*
X0478839Y0070374D02*
X0492028D01*
X0478839Y0063484D02*
X0492028D01*
X0492028Y0070374D01*
X0478839D02*
X0478839Y0063484D01*
X0496654Y0070374D02*
X0509842D01*
X0496654Y0063484D02*
X0509842D01*
X0509842Y0070374D01*
X0496654D02*
X0496654Y0063484D01*
X0461024Y0070374D02*
X0474213D01*
X0461024Y0063484D02*
X0474213D01*
X0474213Y0070374D01*
X0461024D02*
X0461024Y0063484D01*
X0478740Y0085335D02*
X0491929D01*
X0478740Y0078445D02*
X0491929D01*
X0491929Y0085335D01*
X0478740D02*
X0478740Y0078445D01*
X0496555Y0085335D02*
X0509744D01*
X0496555Y0078445D02*
X0509744D01*
X0509744Y0085335D01*
X0496555D02*
X0496555Y0078445D01*
X0460827Y0085335D02*
X0474016D01*
X0460827Y0078445D02*
X0474016D01*
X0474016Y0085335D01*
X0460827D02*
X0460827Y0078445D01*
X0460728Y0100492D02*
X0473917D01*
X0460728Y0093602D02*
X0473917D01*
X0473917Y0100492D01*
X0460728D02*
X0460728Y0093602D01*
X0486897Y0101533D02*
X0496223Y0110859D01*
X0491769Y0096661D02*
X0501095Y0105987D01*
X0496223Y0110859D02*
X0501095Y0105987D01*
X0486897Y0101533D02*
X0491769Y0096661D01*
X0501031Y0115352D02*
X0510357Y0124678D01*
X0505903Y0110480D02*
X0515229Y0119806D01*
X0510357Y0124678D02*
X0515229Y0119806D01*
X0501031Y0115352D02*
X0505903Y0110480D01*
X0491346Y0127044D02*
X0500672Y0136371D01*
X0496218Y0122173D02*
X0505544Y0131499D01*
X0500672Y0136371D02*
X0505544Y0131499D01*
X0491346Y0127044D02*
X0496218Y0122173D01*
X0478452Y0114505D02*
X0487778Y0123831D01*
X0483324Y0109633D02*
X0492650Y0118959D01*
X0487778Y0123831D02*
X0492650Y0118959D01*
X0478452Y0114505D02*
X0483324Y0109633D01*
X0460728Y0115453D02*
X0473917D01*
X0460728Y0108563D02*
X0473917D01*
X0473917Y0115453D01*
X0460728D02*
X0460728Y0108563D01*
X0427835Y0108169D02*
Y0115059D01*
X0431614Y0108169D02*
Y0115059D01*
X0427835D02*
X0431614D01*
X0427835Y0108169D02*
X0431614D01*
X0365846Y0425492D02*
Y0429035D01*
X0372539Y0425492D02*
Y0429035D01*
X0365846Y0425492D02*
X0372539D01*
X0365846Y0429035D02*
X0372539D01*
X0408760Y0427658D02*
X0408760Y0420965D01*
X0405217D02*
Y0427658D01*
Y0420965D02*
X0408760D01*
X0405217Y0427658D02*
X0408760D01*
X0621555Y0152854D02*
Y0165650D01*
X0615059Y0152854D02*
Y0165650D01*
Y0152854D02*
X0621555D01*
X0615059Y0165650D02*
X0621555D01*
Y0135335D02*
Y0148130D01*
X0615059Y0135335D02*
Y0148130D01*
Y0135335D02*
X0621555D01*
X0615059Y0148130D02*
X0621555D01*
Y0117913D02*
Y0130709D01*
X0615059Y0117913D02*
Y0130709D01*
Y0117913D02*
X0621555D01*
X0615059Y0130709D02*
X0621555D01*
X0275219Y0235759D02*
X0277725Y0238265D01*
X0279952Y0231027D02*
X0282458Y0233532D01*
X0275219Y0235759D02*
X0279952Y0231027D01*
X0277725Y0238265D02*
X0282458Y0233532D01*
X0128740Y0425295D02*
Y0438484D01*
X0121850Y0425295D02*
Y0438484D01*
Y0425295D02*
X0128740Y0425295D01*
X0121850Y0438484D02*
X0128740Y0438484D01*
X0133600Y0447822D02*
X0142926Y0457148D01*
X0128728Y0452694D02*
X0138054Y0462020D01*
X0128728Y0452694D02*
X0133600Y0447822D01*
X0138054Y0462020D02*
X0142926Y0457148D01*
X0257763Y0462562D02*
X0267089Y0453236D01*
X0262635Y0467434D02*
X0271961Y0458108D01*
X0257763Y0462562D02*
X0262635Y0467434D01*
X0267089Y0453236D02*
X0271961Y0458108D01*
X0243393Y0458625D02*
X0252719Y0449299D01*
X0248265Y0463497D02*
X0257591Y0454171D01*
X0243393Y0458625D02*
X0248265Y0463497D01*
X0252719Y0449299D02*
X0257591Y0454171D01*
X0267126Y0442402D02*
X0274016D01*
X0267126Y0446181D02*
X0274016D01*
X0267126Y0442402D02*
Y0446181D01*
X0274016Y0442402D02*
Y0446181D01*
X0264075Y0440256D02*
X0268012D01*
X0264075Y0433169D02*
X0268012D01*
X0264075D02*
Y0440256D01*
X0268012Y0433169D02*
Y0440256D01*
X0275197Y0430138D02*
X0282087Y0430138D01*
X0275197Y0426358D02*
X0282087D01*
Y0430138D01*
X0275197Y0426358D02*
Y0430138D01*
X0259842Y0426752D02*
X0266732Y0426752D01*
X0259842Y0430532D02*
X0266732D01*
X0259842Y0426752D02*
Y0430532D01*
X0266732Y0426752D02*
Y0430532D01*
X0147675Y0443196D02*
X0157001Y0452522D01*
X0142803Y0448068D02*
X0152129Y0457394D01*
X0142803Y0448068D02*
X0147675Y0443196D01*
X0152129Y0457394D02*
X0157001Y0452522D01*
X0143405Y0425689D02*
Y0438878D01*
X0136516Y0425689D02*
Y0438878D01*
Y0425689D02*
X0143405Y0425689D01*
X0136516Y0438878D02*
X0143405Y0438878D01*
X0121949Y0405709D02*
X0128445D01*
X0121949Y0418504D02*
X0128445D01*
Y0405709D02*
Y0418504D01*
X0121949Y0405709D02*
Y0418504D01*
X0136614Y0405807D02*
X0143110D01*
X0136614Y0418602D02*
X0143110D01*
Y0405807D02*
Y0418602D01*
X0136614Y0405807D02*
Y0418602D01*
X0273425Y0439862D02*
X0277362D01*
X0273425Y0432776D02*
X0277362D01*
X0273425D02*
Y0439862D01*
X0277362Y0432776D02*
Y0439862D01*
X0366043Y0324410D02*
X0368602Y0326969D01*
Y0324410D02*
Y0335827D01*
X0362303D02*
X0368602D01*
X0362303Y0324410D02*
X0362303Y0335827D01*
X0362303Y0324410D02*
X0368602D01*
X0398031Y0292421D02*
Y0302658D01*
X0379921Y0292421D02*
Y0302658D01*
X0398031D01*
X0379921Y0292421D02*
X0398031D01*
X0219291Y0405512D02*
X0226378D01*
X0219291Y0401575D02*
X0226378D01*
Y0405512D01*
X0219291Y0401575D02*
Y0405512D01*
X0219193Y0396457D02*
Y0400394D01*
X0226279Y0396457D02*
Y0400394D01*
X0219193Y0396457D02*
X0226279D01*
X0219193Y0400394D02*
X0226279D01*
X0170472Y0301378D02*
Y0311614D01*
X0152362Y0301378D02*
Y0311614D01*
X0170472D01*
X0152362Y0301378D02*
X0170472D01*
X0177067Y0300984D02*
X0195177Y0300984D01*
X0177067Y0311221D02*
X0195177D01*
X0177067Y0300984D02*
Y0311221D01*
X0195177Y0300984D02*
X0195177Y0311221D01*
X0179626Y0290650D02*
X0186516Y0290650D01*
X0179626Y0294390D02*
X0186516Y0294390D01*
Y0290650D02*
Y0294390D01*
X0179626Y0290650D02*
Y0294390D01*
X0104232Y0199665D02*
X0110728D01*
X0104232Y0186870D02*
X0110728D01*
X0104232D02*
Y0199665D01*
X0110728Y0186870D02*
Y0199665D01*
X0298327Y0131201D02*
X0300492D01*
X0298327Y0135335D02*
X0300492D01*
Y0131201D02*
Y0135335D01*
X0298327Y0131201D02*
Y0135335D01*
X0272146Y0158366D02*
X0276279D01*
X0272146Y0156201D02*
X0276279Y0156201D01*
Y0158366D01*
X0272146Y0156201D02*
X0272146Y0158366D01*
X0313386Y0199803D02*
X0313386Y0206693D01*
X0309646Y0199803D02*
X0309646Y0206693D01*
X0309646Y0199803D02*
X0313386Y0199803D01*
X0309646Y0206693D02*
X0313386D01*
X0315158Y0199902D02*
Y0206791D01*
X0318898Y0199902D02*
X0318898Y0206791D01*
X0315158Y0206791D02*
X0318898Y0206791D01*
X0315158Y0199902D02*
X0318898D01*
X0245017Y0239654D02*
X0253925Y0230745D01*
X0240563Y0235199D02*
X0245017Y0239654D01*
X0240563Y0235199D02*
X0249471Y0226291D01*
X0253925Y0230745D01*
X0259379Y0199853D02*
X0264251Y0204725D01*
X0256706Y0202526D02*
X0261578Y0207398D01*
X0256706Y0202526D02*
X0259379Y0199853D01*
X0261578Y0207398D02*
X0264251Y0204725D01*
X0263130Y0214336D02*
X0268698Y0208769D01*
X0266610Y0217816D02*
X0272178Y0212248D01*
X0268698Y0208769D02*
X0272178Y0212248D01*
X0263130Y0214336D02*
X0266610Y0217816D01*
X0274181Y0218684D02*
X0279052Y0223556D01*
X0276853Y0216011D02*
X0281725Y0220883D01*
X0279052Y0223556D02*
X0281725Y0220883D01*
X0274181Y0218684D02*
X0276853Y0216011D01*
X0255955Y0227358D02*
X0258460Y0229864D01*
X0260687Y0222625D02*
X0263193Y0225131D01*
X0255955Y0227358D02*
X0260687Y0222625D01*
X0258460Y0229864D02*
X0263193Y0225131D01*
X0317815Y0441831D02*
X0321752Y0441831D01*
X0317815Y0448917D02*
X0321752Y0448917D01*
Y0441831D02*
Y0448917D01*
X0317815Y0441831D02*
Y0448917D01*
X0323130Y0448917D02*
X0327067Y0448917D01*
X0323130Y0441831D02*
X0327067Y0441831D01*
X0323130Y0441831D02*
Y0448917D01*
X0327067Y0441831D02*
Y0448917D01*
X0297933Y0427264D02*
X0297933Y0423524D01*
X0304823Y0423524D02*
Y0427264D01*
X0297933Y0423524D02*
X0304823Y0423524D01*
X0297933Y0427264D02*
X0304823Y0427264D01*
X0376476Y0301575D02*
X0383563D01*
X0376476Y0297638D02*
X0383563D01*
Y0301575D01*
X0376476Y0297638D02*
Y0301575D01*
X0233957Y0327165D02*
X0242618Y0327165D01*
X0233957Y0321850D02*
X0242618D01*
X0233957Y0327165D02*
X0233957Y0321850D01*
X0242618D02*
Y0327165D01*
X0246654Y0332185D02*
X0246654Y0335728D01*
X0239961Y0332185D02*
Y0335728D01*
X0246654Y0335728D01*
X0239961Y0332185D02*
X0246654D01*
X0315453Y0350591D02*
Y0357283D01*
X0311910D02*
X0311910Y0350591D01*
X0315453Y0350591D01*
X0311910Y0357283D02*
X0315453D01*
X0299311Y0311122D02*
X0304626D01*
X0299311Y0302854D02*
X0304626D01*
X0299311D02*
Y0311122D01*
X0304626Y0302854D02*
Y0311122D01*
X0250886Y0285039D02*
Y0291929D01*
X0254626Y0285039D02*
Y0291929D01*
X0250886D02*
X0254626D01*
X0250886Y0285039D02*
X0254626Y0285039D01*
X0590236Y0269626D02*
X0615827Y0269626D01*
X0590236Y0287736D02*
X0590236Y0269626D01*
X0615827Y0269626D02*
Y0287736D01*
X0590236D02*
X0615827D01*
X0279528Y0449705D02*
X0283268D01*
X0279528Y0442815D02*
X0283268D01*
X0279528D02*
Y0449705D01*
X0283268Y0442815D02*
Y0449705D01*
X0333661Y0373130D02*
Y0376279D01*
X0338386D01*
Y0373130D02*
Y0376279D01*
X0333661Y0373130D02*
X0338386D01*
X0333661Y0378051D02*
Y0381201D01*
X0338386D01*
Y0378051D02*
Y0381201D01*
X0333661Y0378051D02*
X0338386D01*
X0296949Y0375492D02*
X0301673D01*
Y0378642D01*
X0296949D02*
X0301673D01*
X0296949Y0375492D02*
Y0378642D01*
X0374409Y0409154D02*
Y0414075D01*
X0366535Y0409154D02*
Y0414075D01*
Y0409154D02*
X0374409D01*
X0366535Y0414075D02*
X0374409D01*
X0354232Y0385138D02*
Y0388878D01*
X0361122Y0385138D02*
Y0388878D01*
X0354232Y0385138D02*
X0361122D01*
X0354232Y0388878D02*
X0361122D01*
X0354232Y0383858D02*
X0354232Y0380315D01*
X0360925D02*
Y0383858D01*
X0354232Y0380315D02*
X0360925D01*
X0354232Y0383858D02*
X0360925Y0383858D01*
X0376378Y0401476D02*
Y0405217D01*
X0369488Y0401476D02*
Y0405217D01*
X0376378D01*
X0369488Y0401476D02*
X0376378D01*
X0347638Y0416929D02*
X0351575D01*
X0347638Y0409842D02*
X0351575D01*
X0347638D02*
X0347638Y0416929D01*
X0351575D02*
X0351575Y0409842D01*
X0329232Y0421063D02*
X0341043Y0421063D01*
X0329232Y0432874D02*
X0341043Y0432874D01*
X0329232Y0432874D02*
X0329232Y0421063D01*
X0341043Y0421063D02*
X0341043Y0432874D01*
X0233465Y0342126D02*
X0233465Y0333661D01*
X0227953D02*
Y0342126D01*
X0233465D01*
X0227953Y0333661D02*
X0233465D01*
X0336575Y0286968D02*
X0336575Y0266496D01*
X0273386Y0266496D02*
X0273386Y0286968D01*
X0273386Y0266496D02*
X0336575Y0266496D01*
X0273386Y0286968D02*
X0336575Y0286968D01*
X0318504Y0346260D02*
X0322047D01*
X0318504Y0339567D02*
X0322047D01*
X0318504D02*
Y0346260D01*
X0322047Y0339567D02*
Y0346260D01*
X0311910Y0346260D02*
X0315453D01*
X0311910Y0339567D02*
X0315453D01*
X0311910D02*
Y0346260D01*
X0315453Y0339567D02*
Y0346260D01*
X0314567Y0332579D02*
X0323031Y0332579D01*
X0314567Y0327067D02*
X0323031D01*
X0314567D02*
X0314567Y0332579D01*
X0323031Y0327067D02*
Y0332579D01*
X0246358Y0345276D02*
Y0348819D01*
X0239665Y0345276D02*
Y0348819D01*
X0246358D01*
X0239665Y0345276D02*
X0246358D01*
X0246555Y0337697D02*
Y0341240D01*
X0239862Y0337697D02*
Y0341240D01*
X0246555D01*
X0239862Y0337697D02*
X0246555D01*
X0321161Y0350591D02*
Y0357283D01*
X0317618Y0350591D02*
X0317618Y0357283D01*
X0317618Y0350591D02*
X0321161D01*
X0317618Y0357283D02*
X0321161Y0357283D01*
X0303346Y0492717D02*
X0303346Y0499803D01*
X0299409Y0492717D02*
Y0499803D01*
Y0492717D02*
X0303346D01*
X0299409Y0499803D02*
X0303346D01*
X0239862Y0355945D02*
X0246555D01*
X0239862Y0359488D02*
X0246555D01*
X0239862Y0355945D02*
Y0359488D01*
X0246555Y0355945D02*
Y0359488D01*
X0628071Y0240650D02*
X0628071Y0262697D01*
X0695000Y0262697D01*
X0695000Y0240650D02*
X0695000Y0262697D01*
X0628071Y0240650D02*
X0695000Y0240650D01*
X0628071Y0213878D02*
X0695000Y0213878D01*
X0695000Y0235925D01*
X0628071Y0235925D02*
X0695000Y0235925D01*
X0628071Y0213878D02*
X0628071Y0235925D01*
X0508957Y0425000D02*
X0549114D01*
X0508957Y0412205D02*
Y0429921D01*
X0549114Y0412205D02*
Y0429921D01*
X0508957Y0429921D02*
X0549114Y0429921D01*
X0508957Y0412205D02*
X0549114Y0412205D01*
X0515551Y0456299D02*
X0554134D01*
X0515551D02*
Y0468307D01*
X0554134D01*
Y0456299D02*
Y0468307D01*
X0344291Y0180217D02*
Y0182382D01*
X0348425Y0180217D02*
Y0182382D01*
X0344291Y0180217D02*
X0348425D01*
X0344291Y0182382D02*
X0348425D01*
X0238757Y0168814D02*
X0245449D01*
X0238757Y0165271D02*
X0245449Y0165271D01*
Y0168814D01*
X0238757Y0165271D02*
X0238757Y0168814D01*
X0255463Y0176397D02*
X0262156D01*
X0255463Y0172854D02*
X0262156D01*
X0262156Y0176397D02*
X0262156Y0172854D01*
X0255463D02*
Y0176397D01*
X0279184Y0164094D02*
X0283514D01*
X0279184Y0161732D02*
X0283514D01*
Y0164094D01*
X0279184Y0161732D02*
Y0164094D01*
X0279184Y0157204D02*
X0283514D01*
X0279184Y0159566D02*
X0283514Y0159566D01*
X0279184Y0157204D02*
X0279184Y0159566D01*
X0283514Y0157204D02*
Y0159566D01*
X0301969Y0199803D02*
X0301969Y0206693D01*
X0298228D02*
X0298228Y0199803D01*
X0301969D01*
X0298228Y0206693D02*
X0301969D01*
X0311614Y0193898D02*
X0313779D01*
X0311614Y0189764D02*
X0313779D01*
X0311614D02*
Y0193898D01*
X0313779Y0189764D02*
Y0193898D01*
X0271752Y0396358D02*
X0273721Y0394390D01*
X0271752D02*
Y0414075D01*
X0291437D01*
Y0394390D02*
Y0414075D01*
X0271752Y0394390D02*
X0291437D01*
X0197876Y0265827D02*
Y0286339D01*
Y0265827D02*
X0261376D01*
Y0286339D01*
X0197876D02*
X0261376D01*
X0217028Y0325098D02*
Y0330610D01*
X0208563D02*
X0208563Y0325098D01*
X0217028D01*
X0208563Y0330610D02*
X0217028D01*
X0295177Y0326575D02*
Y0332087D01*
X0286713D02*
X0286713Y0326575D01*
X0295177D01*
X0286713Y0332087D02*
X0295177D01*
X0284547Y0316240D02*
Y0320374D01*
X0282382Y0316240D02*
Y0320374D01*
Y0316240D02*
X0284547D01*
X0282382Y0320374D02*
X0284547D01*
X0292028Y0316240D02*
Y0320374D01*
X0289862Y0316240D02*
Y0320374D01*
Y0316240D02*
X0292028D01*
X0289862Y0320374D02*
X0292028D01*
X0327953Y0322146D02*
Y0328839D01*
X0324410Y0322146D02*
Y0328839D01*
Y0322146D02*
X0327953D01*
X0324410Y0328839D02*
X0327953D01*
X0320177Y0319094D02*
X0327067D01*
X0320177Y0315354D02*
X0327067D01*
Y0319094D01*
X0320177Y0315354D02*
Y0319094D01*
X0309252Y0318898D02*
X0316142D01*
X0309252Y0315158D02*
X0316142D01*
Y0318898D01*
X0309252Y0315158D02*
Y0318898D01*
X0224606Y0332579D02*
X0231299D01*
X0224606Y0329035D02*
X0231299D01*
Y0332579D01*
X0224606Y0329035D02*
X0224606Y0332579D01*
X0229134Y0319882D02*
Y0326772D01*
X0232874Y0319882D02*
Y0326772D01*
X0229134D02*
X0232874D01*
X0229134Y0319882D02*
X0232874D01*
X0230610Y0317126D02*
X0237500D01*
X0230610Y0313386D02*
X0237500D01*
Y0317126D01*
X0230610Y0313386D02*
Y0317126D01*
X0314469Y0304626D02*
Y0307776D01*
X0309744Y0304626D02*
X0314469D01*
X0309744D02*
Y0307776D01*
X0314469D01*
X0308858Y0309350D02*
X0315551D01*
X0308858Y0312894D02*
X0315551Y0312894D01*
X0308858Y0309350D02*
Y0312894D01*
X0315551Y0309350D02*
Y0312894D01*
X0325886Y0305315D02*
Y0313976D01*
X0320571Y0305315D02*
Y0313976D01*
X0325886D01*
X0320571Y0305315D02*
X0325886D01*
X0333465Y0297835D02*
Y0304528D01*
X0329921Y0297835D02*
Y0304528D01*
Y0297835D02*
X0333465D01*
X0329921Y0304528D02*
X0333465D01*
X0329626Y0285039D02*
Y0291929D01*
X0333366Y0285039D02*
X0333366Y0291929D01*
X0329626Y0291929D02*
X0333366Y0291929D01*
X0329626Y0285039D02*
X0333366D01*
X0305413Y0317028D02*
Y0320965D01*
X0298327Y0317028D02*
Y0320965D01*
X0305413D01*
X0298327Y0317028D02*
X0305413D01*
X0242815Y0295177D02*
Y0301870D01*
X0239272D02*
X0239272Y0295177D01*
X0242815D01*
X0239272Y0301870D02*
X0242815D01*
X0256004Y0285138D02*
Y0291831D01*
X0259547Y0285138D02*
Y0291831D01*
X0256004D02*
X0259547D01*
X0256004Y0285138D02*
X0259547D01*
X0227067Y0303740D02*
Y0312008D01*
X0221752Y0303740D02*
Y0312008D01*
Y0303740D02*
X0227067D01*
X0221752Y0312008D02*
X0227067D01*
X0209154Y0315846D02*
Y0319980D01*
X0206988Y0315846D02*
Y0319980D01*
Y0315846D02*
X0209154D01*
X0206988Y0319980D02*
X0209154D01*
X0214764Y0315846D02*
Y0319980D01*
X0212598Y0315846D02*
Y0319980D01*
Y0315846D02*
X0214764D01*
X0212598Y0319980D02*
X0214764D01*
X0226378Y0319193D02*
Y0323130D01*
X0219291Y0319193D02*
Y0323130D01*
X0226378D01*
X0219291Y0319193D02*
X0226378D01*
X0388681Y0414665D02*
X0395571D01*
X0388681Y0410925D02*
X0395571D01*
Y0414665D01*
X0388681Y0410925D02*
Y0414665D01*
X0198819Y0438583D02*
X0198819Y0445276D01*
X0202362Y0445276D02*
X0202362Y0438583D01*
X0198819Y0445276D02*
X0202362Y0445276D01*
X0198819Y0438583D02*
X0202362Y0438583D01*
X0189567Y0449508D02*
X0196457Y0449508D01*
X0189567Y0453248D02*
X0196457Y0453248D01*
X0189567Y0449508D02*
X0189567Y0453248D01*
X0196457Y0453248D02*
X0196457Y0449508D01*
X0160433Y0422146D02*
X0167323D01*
X0160433Y0418405D02*
X0167323D01*
Y0422146D01*
X0160433Y0418405D02*
Y0422146D01*
X0173819Y0424705D02*
X0180709D01*
X0173819Y0420965D02*
X0180709D01*
Y0424705D01*
X0173819Y0420965D02*
Y0424705D01*
X0168504Y0441043D02*
X0175394D01*
X0168504Y0437303D02*
X0175394D01*
Y0441043D01*
X0168504Y0437303D02*
Y0441043D01*
X0171949Y0428740D02*
X0179823D01*
X0171949Y0433661D02*
X0179823D01*
Y0428740D02*
Y0433661D01*
X0171949Y0428740D02*
Y0433661D01*
X0195669Y0406201D02*
Y0413287D01*
X0191732Y0406201D02*
Y0413287D01*
Y0406201D02*
X0195669D01*
X0191732Y0413287D02*
X0195669D01*
X0420079Y0398130D02*
Y0405217D01*
X0416142Y0398130D02*
Y0405217D01*
Y0398130D02*
X0420079D01*
X0416142Y0405217D02*
X0420079D01*
X0427835Y0101083D02*
X0431614D01*
X0427835Y0094193D02*
X0431614D01*
X0427835D02*
Y0101083D01*
X0431614D02*
X0431614Y0094193D01*
X0443405Y0100098D02*
X0450492D01*
X0443405Y0104035D02*
X0450492D01*
X0443405Y0100098D02*
Y0104035D01*
X0450492Y0100098D02*
Y0104035D01*
X0441437Y0072736D02*
Y0077658D01*
X0433563Y0072736D02*
Y0077658D01*
Y0072736D02*
X0441437D01*
X0433563Y0077658D02*
X0441437D01*
X0428031Y0071949D02*
X0431811D01*
X0428031Y0065059D02*
X0431811D01*
X0428031D02*
Y0071949D01*
X0431811D02*
X0431811Y0065059D01*
X0427933Y0078445D02*
X0431713D01*
X0427933Y0085335D02*
X0431713D01*
Y0078445D02*
Y0085335D01*
X0427933D02*
X0427933Y0078445D01*
X0443405Y0070374D02*
X0450492D01*
X0443405Y0074311D02*
X0450492D01*
X0443405Y0070374D02*
Y0074311D01*
X0450492Y0070374D02*
Y0074311D01*
X0443405Y0076279D02*
X0450492D01*
X0443405Y0080216D02*
X0450492D01*
X0443405Y0076279D02*
Y0080216D01*
X0450492Y0076279D02*
Y0080216D01*
X0128880Y0286536D02*
X0192380D01*
Y0266024D02*
Y0286536D01*
X0128880Y0266024D02*
X0192380D01*
X0128880D02*
Y0286536D01*
X0163681Y0380512D02*
X0176673Y0380512D01*
X0163681Y0373425D02*
X0176673D01*
Y0380512D01*
X0163681Y0373425D02*
Y0380512D01*
X0148110Y0335138D02*
X0156772D01*
X0148110Y0329823D02*
X0156772D01*
X0148110D02*
Y0335138D01*
X0156772Y0329823D02*
Y0335138D01*
X0129232Y0344390D02*
X0135925D01*
X0129232Y0340846D02*
X0135925D01*
Y0344390D01*
X0129232Y0340846D02*
Y0344390D01*
X0146358Y0325295D02*
Y0330807D01*
X0137894D02*
X0137894Y0325295D01*
X0146358D01*
X0137894Y0330807D02*
X0146358D01*
X0136713Y0316240D02*
Y0320374D01*
X0134547Y0316240D02*
Y0320374D01*
Y0316240D02*
X0136713D01*
X0134547Y0320374D02*
X0136713D01*
X0142520Y0316240D02*
Y0320374D01*
X0140354Y0316240D02*
Y0320374D01*
Y0316240D02*
X0142520D01*
X0140354Y0320374D02*
X0142520D01*
X0138583Y0340748D02*
X0145472D01*
X0138583Y0344488D02*
X0145472D01*
X0138583Y0340748D02*
Y0344488D01*
X0145472Y0340748D02*
Y0344488D01*
X0149114Y0320709D02*
X0156004D01*
X0149114Y0316968D02*
X0156004D01*
X0156004Y0320709D02*
X0156004Y0316968D01*
X0149114D02*
X0149114Y0320709D01*
Y0321949D02*
Y0325886D01*
X0156201Y0321949D02*
Y0325886D01*
X0149114Y0321949D02*
X0156201Y0321949D01*
X0149114Y0325886D02*
X0156201Y0325886D01*
X0158563Y0296949D02*
X0163287D01*
Y0300098D01*
X0158563D02*
X0163287D01*
X0158563Y0296949D02*
Y0300098D01*
X0117587Y0334721D02*
X0122320Y0329989D01*
X0115082Y0332216D02*
X0119814Y0327483D01*
X0122320Y0329989D01*
X0115082Y0332216D02*
X0117587Y0334721D01*
X0122933Y0323721D02*
X0129823D01*
X0122933Y0327461D02*
X0129823D01*
X0122933Y0323721D02*
Y0327461D01*
X0129823Y0323721D02*
Y0327461D01*
X0155413Y0302461D02*
Y0310728D01*
X0150098Y0302461D02*
Y0310728D01*
Y0302461D02*
X0155413D01*
X0150098Y0310728D02*
X0155413D01*
X0174409Y0289764D02*
Y0302756D01*
X0181496Y0289764D02*
Y0302756D01*
X0174409D02*
X0181496D01*
X0174409Y0289764D02*
X0181496D01*
X0416043Y0280610D02*
X0416043Y0293602D01*
X0423130Y0280610D02*
Y0293602D01*
X0416043D02*
X0423130D01*
X0416043Y0280610D02*
X0423130D01*
X0244882Y0291732D02*
X0257480D01*
X0244882Y0285433D02*
Y0291732D01*
Y0285433D02*
X0257480D01*
Y0291732D01*
X0320177D02*
X0332776D01*
X0320177Y0285433D02*
Y0291732D01*
Y0285433D02*
X0332776D01*
Y0291732D01*
X0402264Y0304921D02*
X0406004D01*
X0402264Y0298031D02*
X0406004Y0298031D01*
X0402264Y0304921D02*
X0402264Y0298031D01*
X0406004Y0304921D02*
X0406004Y0298031D01*
X0386910Y0291890D02*
X0393602D01*
X0386910Y0295433D02*
X0393602D01*
X0386910Y0291890D02*
Y0295433D01*
X0393602Y0291890D02*
Y0295433D01*
X0397244Y0304823D02*
X0400787D01*
X0397244Y0298130D02*
X0400787D01*
X0397244D02*
Y0304823D01*
X0400787Y0298130D02*
Y0304823D01*
X0392717Y0287579D02*
X0392717Y0290728D01*
X0387992Y0287579D02*
X0392717D01*
X0387992D02*
Y0290728D01*
X0392717D01*
X0398031Y0287303D02*
X0403346Y0287303D01*
X0398031Y0295965D02*
X0403346D01*
X0398031Y0287303D02*
Y0295965D01*
X0403346Y0287303D02*
X0403346Y0295965D01*
X0491831Y0432087D02*
X0491831Y0502953D01*
X0440650Y0502953D02*
X0440650Y0432087D01*
X0440650Y0502953D02*
X0491831Y0502953D01*
X0440650Y0432087D02*
X0491831Y0432087D01*
X0390256Y0365748D02*
Y0372835D01*
X0403248Y0365748D02*
Y0372835D01*
X0390256Y0365748D02*
X0403248D01*
X0390256Y0372835D02*
X0403248D01*
X0361713Y0315453D02*
Y0319587D01*
X0359547Y0315453D02*
Y0319587D01*
Y0315453D02*
X0361713D01*
X0359547Y0319587D02*
X0361713D01*
X0373917Y0301575D02*
Y0309842D01*
X0368602Y0301575D02*
Y0309842D01*
Y0301575D02*
X0373917D01*
X0368602Y0309842D02*
X0373917D01*
X0354232Y0315453D02*
Y0319587D01*
X0352067Y0315453D02*
Y0319587D01*
Y0315453D02*
X0354232D01*
X0352067Y0319587D02*
X0354232D01*
X0343406Y0321949D02*
X0350295D01*
X0343406Y0325689D02*
X0350295D01*
X0343406Y0321949D02*
Y0325689D01*
X0350295Y0321949D02*
Y0325689D01*
X0355118Y0321850D02*
X0360630Y0321850D01*
X0355118Y0330315D02*
X0360630D01*
X0355118Y0321850D02*
Y0330315D01*
X0360630Y0321850D02*
X0360630Y0330315D01*
X0343504Y0326870D02*
X0350197D01*
X0343504Y0330413D02*
X0350197D01*
X0343504Y0326870D02*
Y0330413D01*
X0350197Y0326870D02*
Y0330413D01*
X0405709Y0286968D02*
X0405709Y0266496D01*
X0342520D02*
Y0286968D01*
Y0266496D02*
X0405709D01*
X0342520Y0286968D02*
X0405709D01*
X0150689Y0230709D02*
Y0258858D01*
X0126083Y0230709D02*
Y0258858D01*
X0150689D01*
X0126083Y0230709D02*
X0150689D01*
X0137500Y0285925D02*
Y0290650D01*
X0140650D01*
Y0285925D02*
Y0290650D01*
X0137500Y0285925D02*
X0140650D01*
Y0296161D02*
Y0300886D01*
X0137500Y0296161D02*
X0140650D01*
X0137500D02*
Y0300886D01*
X0140650D01*
X0207185Y0285925D02*
Y0290650D01*
X0210335D01*
Y0285925D02*
Y0290650D01*
X0207185Y0285925D02*
X0210335D01*
X0281594D02*
Y0290650D01*
X0284744D01*
Y0285925D02*
Y0290650D01*
X0281594Y0285925D02*
X0284744D01*
Y0296161D02*
Y0300886D01*
X0281594Y0296161D02*
X0284744D01*
X0281594D02*
Y0300886D01*
X0284744D01*
X0210335Y0296161D02*
Y0300886D01*
X0207185Y0296161D02*
X0210335D01*
X0207185D02*
Y0300886D01*
X0210335D01*
X0530315Y0172835D02*
X0530315Y0101969D01*
X0510630Y0172835D02*
X0530315Y0172835D01*
X0510630Y0172835D02*
X0510630Y0101969D01*
X0530315Y0101969D01*
X0608366Y0106398D02*
X0628051Y0106398D01*
X0608366Y0177264D02*
X0608366Y0106398D01*
X0608366Y0177264D02*
X0628051Y0177264D01*
X0628051Y0106398D01*
X0508957Y0440059D02*
X0549114Y0440059D01*
X0549114Y0435138D02*
X0549114Y0452854D01*
X0508957Y0435138D02*
Y0452854D01*
Y0435138D02*
X0549114D01*
X0508957Y0452854D02*
X0549114Y0452854D01*
X0354331Y0296161D02*
Y0300886D01*
X0351181Y0296161D02*
X0354331D01*
X0351181D02*
Y0300886D01*
X0354331D01*
X0351181Y0285925D02*
Y0290650D01*
X0354331D01*
Y0285925D02*
Y0290650D01*
X0351181Y0285925D02*
X0354331D01*
D436*
X0568810Y0275295D02*
G03*
X0568810Y0275295I-0000818J0000000D01*
G01*
X0297492Y0231614D02*
G03*
X0297492Y0231614I-0000818J0000000D01*
G01*
X0418456Y0248091D02*
G03*
X0418456Y0248091I-0001330J0000000D01*
G01*
X0571689Y0243760D02*
G03*
X0571689Y0243760I-0000665J0000000D01*
G01*
X0553185Y0247382D02*
G03*
X0553185Y0247382I-0000665J0000000D01*
G01*
X0295242Y0218688D02*
G03*
X0295242Y0218688I-0000818J0000000D01*
G01*
X0362603Y0211168D02*
G03*
X0362603Y0211168I-0000818J0000000D01*
G01*
X0257319Y0099446D02*
G03*
X0257319Y0099446I-0000818J0000000D01*
G01*
X0280050Y0120965D02*
G03*
X0280050Y0120965I-0001023J0000000D01*
G01*
X0225621Y0431122D02*
G03*
X0225621Y0431122I-0001330J0000000D01*
G01*
X0419145Y0398504D02*
G03*
X0419145Y0398504I-0000818J0000000D01*
G01*
X0272694Y0179161D02*
G03*
X0272694Y0179161I-0000818J0000000D01*
G01*
X0263376Y0156121D02*
G03*
X0263376Y0156121I-0001023J0000000D01*
G01*
X0309644Y0121659D02*
G03*
X0309644Y0121659I-0001023J0000000D01*
G01*
X0225621Y0392402D02*
G03*
X0225621Y0392402I-0001330J0000000D01*
G01*
X0278278Y0202261D02*
G03*
X0278278Y0202261I-0000818J0000000D01*
G01*
X0309499Y0430335D02*
G03*
X0309499Y0430335I-0000818J0000000D01*
G01*
X0305169Y0457008D02*
G03*
X0305169Y0457008I-0000818J0000000D01*
G01*
X0410700Y0094173D02*
G03*
X0410700Y0094173I-0001330J0000000D01*
G01*
X0301625Y0518484D02*
G03*
X0301625Y0518484I-0000818J0000000D01*
G01*
X0284204Y0308248D02*
G03*
X0284204Y0308248I-0000818J0000000D01*
G01*
X0206448Y0307953D02*
G03*
X0206448Y0307953I-0000818J0000000D01*
G01*
X0135188Y0308248D02*
G03*
X0135188Y0308248I-0000818J0000000D01*
G01*
X0353889Y0307264D02*
G03*
X0353889Y0307264I-0000818J0000000D01*
G01*
X0437366Y0242420D02*
X0438941D01*
X0437366Y0238680D02*
Y0242420D01*
X0438941Y0238680D02*
Y0242420D01*
X0437366Y0238680D02*
X0438941D01*
X0442681Y0242420D02*
X0444256D01*
X0442681Y0238680D02*
Y0242420D01*
Y0238680D02*
X0444256D01*
Y0242420D01*
X0438941Y0238684D02*
X0442681D01*
X0438941Y0238685D02*
X0442681Y0238684D01*
X0438941Y0242416D02*
X0442681Y0242414D01*
X0438941Y0242416D02*
X0442681Y0242414D01*
X0561221Y0274429D02*
Y0276004D01*
X0572244Y0274429D02*
Y0276004D01*
X0561221Y0266949D02*
Y0268524D01*
X0572244Y0270689D02*
Y0272264D01*
Y0266949D02*
Y0268524D01*
X0571422Y0274429D02*
Y0276004D01*
X0562042Y0274429D02*
Y0276004D01*
X0571422Y0270689D02*
Y0272264D01*
X0562042Y0266949D02*
Y0268524D01*
X0571422Y0266949D02*
Y0268524D01*
X0562402Y0274429D02*
Y0276004D01*
X0571063Y0274429D02*
Y0276004D01*
Y0270689D02*
Y0272264D01*
X0562402Y0266949D02*
Y0268524D01*
X0571063Y0266949D02*
Y0268524D01*
X0571038Y0274429D02*
Y0276004D01*
X0562427Y0274429D02*
Y0276004D01*
X0561221Y0274429D02*
X0563583D01*
X0563411D02*
Y0276004D01*
X0561221D02*
X0563583D01*
X0571038Y0270689D02*
Y0272264D01*
X0569882Y0276004D02*
X0572244D01*
X0570054Y0274429D02*
Y0276004D01*
X0569882Y0274429D02*
X0572244D01*
X0569882Y0272264D02*
X0572244Y0272264D01*
X0570054Y0270689D02*
Y0272264D01*
X0569882Y0270689D02*
X0572244Y0270689D01*
X0571038Y0266949D02*
Y0268524D01*
X0569882D02*
X0572244D01*
X0570054Y0266949D02*
Y0268524D01*
X0569882Y0266949D02*
X0572244D01*
X0562427D02*
Y0268524D01*
X0561221Y0266949D02*
X0563583D01*
X0563411D02*
Y0268524D01*
X0561221D02*
X0563583D01*
X0569882Y0265768D02*
Y0277185D01*
X0569564Y0266086D02*
X0569882Y0265768D01*
X0563583D02*
X0569882D01*
X0563583D02*
X0563901Y0266086D01*
X0563583Y0265768D02*
Y0277185D01*
X0569564Y0276867D02*
X0569882Y0277185D01*
X0563583D02*
X0563901Y0276867D01*
X0563583Y0277185D02*
X0569882D01*
X0563901Y0266086D02*
X0569564D01*
X0563901D02*
Y0276867D01*
X0569564D01*
Y0266086D02*
Y0276867D01*
X0101693Y0266931D02*
X0116260D01*
X0101693Y0252833D02*
X0116260D01*
X0101693Y0252754D02*
Y0267010D01*
X0099331Y0252754D02*
Y0267010D01*
X0101693D01*
X0099331Y0252754D02*
X0101693D01*
X0116260Y0267010D02*
X0118622D01*
X0116260Y0252754D02*
X0118622D01*
X0116260D02*
Y0267010D01*
X0118622Y0252754D02*
Y0267010D01*
X0101969Y0285573D02*
X0116535D01*
X0101969Y0271474D02*
X0116535D01*
X0101969Y0271395D02*
Y0285652D01*
X0099606Y0271395D02*
Y0285652D01*
X0101969D01*
X0099606Y0271395D02*
X0101969D01*
X0116535Y0285652D02*
X0118898D01*
X0116535Y0271395D02*
X0118898D01*
X0116535D02*
Y0285652D01*
X0118898Y0271395D02*
Y0285652D01*
X0295102Y0230043D02*
Y0240824D01*
Y0230043D02*
X0300764D01*
Y0240824D01*
X0295102D02*
X0300764D01*
X0294783Y0229724D02*
X0301083D01*
X0300764Y0230043D02*
X0301083Y0229724D01*
X0294783D02*
X0295102Y0230043D01*
X0301083Y0229724D02*
Y0241142D01*
X0300764Y0240824D02*
X0301083Y0241142D01*
X0294783D02*
X0301083D01*
X0294783D02*
X0295102Y0240824D01*
X0294783Y0229724D02*
Y0241142D01*
X0301083Y0238386D02*
X0303445D01*
X0301255D02*
Y0239961D01*
X0301083D02*
X0303445D01*
X0302239Y0238386D02*
Y0239961D01*
X0292421D02*
X0294783D01*
X0294612Y0238386D02*
Y0239961D01*
X0292421Y0238386D02*
X0294783D01*
X0293627D02*
Y0239961D01*
X0292421Y0236221D02*
X0294783Y0236221D01*
X0294612Y0234646D02*
Y0236221D01*
X0292421Y0234646D02*
X0294783Y0234646D01*
X0292421Y0232480D02*
X0294783D01*
X0294612Y0230906D02*
Y0232480D01*
X0292421Y0230906D02*
X0294783D01*
X0293627Y0234646D02*
Y0236221D01*
X0301083Y0230906D02*
X0303445D01*
X0301255D02*
Y0232480D01*
X0301083D02*
X0303445D01*
X0302239Y0230906D02*
Y0232480D01*
X0293627Y0230906D02*
Y0232480D01*
X0293602Y0238386D02*
Y0239961D01*
X0302264Y0238386D02*
Y0239961D01*
X0293602Y0234646D02*
Y0236221D01*
Y0230906D02*
Y0232480D01*
X0302264Y0230906D02*
Y0232480D01*
X0293243Y0238386D02*
Y0239961D01*
X0302623Y0238386D02*
Y0239961D01*
X0293243Y0234646D02*
Y0236221D01*
X0302623Y0230906D02*
Y0232480D01*
X0293243Y0230906D02*
Y0232480D01*
X0292421Y0238386D02*
Y0239961D01*
Y0234646D02*
Y0236221D01*
X0303445Y0238386D02*
Y0239961D01*
X0292421Y0230906D02*
Y0232480D01*
X0303445Y0230906D02*
Y0232480D01*
X0414641Y0245605D02*
Y0263725D01*
Y0245605D02*
X0428824D01*
Y0263725D01*
X0414641D02*
X0428824D01*
X0414055Y0245020D02*
X0429410D01*
X0428824Y0245605D02*
X0429410Y0245020D01*
X0414055D02*
X0414641Y0245605D01*
X0414055Y0264311D02*
X0414641Y0263725D01*
X0414055Y0245020D02*
Y0264311D01*
X0428824Y0263725D02*
X0429410Y0264311D01*
X0414055D02*
X0429410D01*
Y0245020D02*
Y0264311D01*
Y0246339D02*
X0433543D01*
X0430053D02*
Y0247992D01*
X0429410D02*
X0433543D01*
X0429410Y0251339D02*
X0433543D01*
X0430053D02*
Y0252992D01*
X0429410D02*
X0433543D01*
X0431194Y0261339D02*
Y0262992D01*
X0429410D02*
X0433543D01*
X0430053Y0261339D02*
Y0262992D01*
X0429410Y0261339D02*
X0433543D01*
X0429410Y0256339D02*
X0433543D01*
X0430053D02*
Y0257992D01*
X0429410D02*
X0433543D01*
X0431194Y0246339D02*
Y0247992D01*
X0409921Y0262992D02*
X0414055D01*
X0413412Y0261339D02*
Y0262992D01*
X0409921Y0261339D02*
X0414055D01*
X0409921Y0257992D02*
X0414055D01*
X0413412Y0256339D02*
Y0257992D01*
X0409921Y0256339D02*
X0414055D01*
X0409921Y0247992D02*
X0414055D01*
X0413412Y0246339D02*
Y0247992D01*
X0409921Y0246339D02*
X0414055D01*
X0431194Y0251339D02*
Y0252992D01*
Y0256339D02*
Y0257992D01*
X0409921Y0252992D02*
X0414055D01*
X0413412Y0251339D02*
Y0252992D01*
X0409921Y0251339D02*
X0414055D01*
X0412271D02*
Y0252992D01*
Y0261339D02*
Y0262992D01*
Y0246339D02*
Y0247992D01*
Y0256339D02*
Y0257992D01*
X0411720Y0261339D02*
Y0262992D01*
Y0251339D02*
Y0252992D01*
Y0246339D02*
Y0247992D01*
X0431745Y0246339D02*
Y0247992D01*
Y0256339D02*
Y0257992D01*
Y0251339D02*
Y0252992D01*
Y0261339D02*
Y0262992D01*
X0411720Y0256339D02*
Y0257992D01*
X0411374Y0246339D02*
Y0247992D01*
Y0251339D02*
Y0252992D01*
Y0256339D02*
Y0257992D01*
Y0261339D02*
Y0262992D01*
X0432091Y0256339D02*
Y0257992D01*
Y0251339D02*
Y0252992D01*
Y0261339D02*
Y0262992D01*
Y0246339D02*
Y0247992D01*
X0409921Y0261339D02*
Y0262992D01*
Y0256339D02*
Y0257992D01*
Y0246339D02*
Y0247992D01*
Y0251339D02*
Y0252992D01*
X0433543Y0261339D02*
Y0262992D01*
Y0256339D02*
Y0257992D01*
Y0251339D02*
Y0252992D01*
Y0246339D02*
Y0247992D01*
X0566535Y0243248D02*
Y0245138D01*
Y0250728D02*
Y0252618D01*
X0577559Y0246988D02*
Y0248878D01*
X0576734Y0246988D02*
Y0248878D01*
X0567361Y0250728D02*
Y0252618D01*
Y0243248D02*
Y0245138D01*
X0567719Y0250728D02*
Y0252618D01*
X0576376Y0246988D02*
Y0248878D01*
X0567719Y0243248D02*
Y0245138D01*
X0567818Y0243248D02*
Y0245138D01*
X0574606Y0246988D02*
X0577559D01*
X0575296D02*
Y0248878D01*
X0574606D02*
X0577559D01*
X0576276Y0246988D02*
Y0248878D01*
X0566535Y0250728D02*
X0569488D01*
X0567818D02*
Y0252618D01*
X0566535D02*
X0569488Y0252618D01*
X0568798Y0250728D02*
Y0252618D01*
X0566535Y0245138D02*
X0569488D01*
X0566535Y0243248D02*
X0569488Y0243248D01*
X0568798Y0243248D02*
Y0245138D01*
X0569488Y0253642D02*
X0574606D01*
X0569488Y0242224D02*
Y0253642D01*
X0569779Y0253351D01*
X0574316D02*
X0574606Y0253642D01*
Y0242224D02*
Y0253642D01*
X0569488Y0242224D02*
X0569779Y0242515D01*
X0574316D02*
X0574606Y0242224D01*
X0569488D02*
X0574606D01*
X0569779Y0253351D02*
X0574316D01*
Y0242515D02*
Y0253351D01*
X0569779Y0242515D02*
X0574316D01*
X0569779D02*
Y0253351D01*
X0551275Y0248627D02*
X0562111D01*
X0551275Y0244090D02*
Y0248627D01*
Y0244090D02*
X0562111D01*
Y0248627D01*
X0550984Y0243799D02*
Y0248917D01*
Y0243799D02*
X0551275Y0244090D01*
X0550984Y0248917D02*
X0551275Y0248627D01*
X0550984Y0243799D02*
X0562402D01*
X0562111Y0244090D02*
X0562402Y0243799D01*
X0562111Y0248627D02*
X0562402Y0248917D01*
X0550984D02*
X0562402D01*
Y0243799D02*
Y0248917D01*
X0552008Y0249607D02*
X0553898D01*
X0552008Y0251870D02*
X0552008Y0248917D01*
X0553898D02*
Y0251870D01*
X0559488Y0249607D02*
X0561378D01*
X0561378Y0248917D02*
X0561378Y0251870D01*
X0559488Y0250588D02*
X0561378D01*
X0559488Y0248917D02*
Y0251870D01*
X0555748Y0242129D02*
X0557638D01*
Y0240846D02*
Y0243799D01*
X0555748Y0243109D02*
X0557638D01*
X0555748Y0240846D02*
Y0243799D01*
X0552008Y0250588D02*
X0553898D01*
X0552008Y0250687D02*
X0553898D01*
X0555748Y0242030D02*
X0557638D01*
X0559488Y0250687D02*
X0561378D01*
X0552008Y0251045D02*
X0553898D01*
X0559488D02*
X0561378D01*
X0555748Y0241672D02*
X0557638D01*
X0555748Y0240846D02*
X0557638D01*
X0559488Y0251870D02*
X0561378D01*
X0552008D02*
X0553898D01*
X0294424Y0220911D02*
X0302047Y0213287D01*
X0290419Y0216906D02*
X0294424Y0220911D01*
X0290419Y0216906D02*
X0298043Y0209283D01*
X0302047Y0213287D01*
X0289969Y0216906D02*
X0294424Y0221361D01*
X0289969Y0216906D02*
X0290419Y0216906D01*
X0294424Y0220911D02*
X0294424Y0221361D01*
X0289969Y0216906D02*
X0298043Y0208833D01*
X0298043Y0209283D01*
X0298043Y0208833D02*
X0302497Y0213287D01*
X0302047Y0213287D02*
X0302497Y0213287D01*
X0294424Y0221361D02*
X0302497Y0213287D01*
X0294424Y0209112D02*
X0296094Y0210782D01*
X0295972Y0210660D02*
X0297086Y0209547D01*
X0295537Y0207998D02*
X0297207Y0209668D01*
X0295276Y0209964D02*
X0296390Y0208851D01*
X0301662Y0214123D02*
X0303332Y0215793D01*
X0300670Y0215358D02*
X0301783Y0214244D01*
X0300548Y0215236D02*
X0302218Y0216906D01*
X0301365Y0216054D02*
X0302479Y0214940D01*
X0299017Y0216767D02*
X0300687Y0218438D01*
X0298025Y0218002D02*
X0299138Y0216889D01*
X0297903Y0217881D02*
X0299574Y0219551D01*
X0296372Y0219412D02*
X0298043Y0221082D01*
X0295380Y0220647D02*
X0296494Y0219533D01*
X0295259Y0220526D02*
X0296929Y0222196D01*
X0298721Y0218698D02*
X0299834Y0217585D01*
X0289134Y0214401D02*
X0290805Y0216071D01*
X0290683Y0215950D02*
X0291796Y0214836D01*
X0290248Y0213287D02*
X0291918Y0214958D01*
X0289987Y0215254D02*
X0291101Y0214140D01*
X0296076Y0221343D02*
X0297190Y0220229D01*
X0301383Y0216071D02*
X0302497Y0214958D01*
X0295259Y0209947D02*
X0296372Y0208833D01*
X0298739Y0218716D02*
X0299852Y0217602D01*
X0296094Y0221361D02*
X0297207Y0220247D01*
X0289969Y0215236D02*
X0291083Y0214123D01*
X0301637Y0216325D02*
X0302751Y0215212D01*
X0295005Y0209693D02*
X0296118Y0208579D01*
X0298993Y0218970D02*
X0300106Y0217856D01*
X0289715Y0214982D02*
X0290829Y0213868D01*
X0296348Y0221615D02*
X0297462Y0220501D01*
X0302218Y0216906D02*
X0303332Y0215793D01*
X0299574Y0219551D02*
X0300687Y0218438D01*
X0294424Y0209112D02*
X0295537Y0207998D01*
X0296929Y0222196D02*
X0298043Y0221082D01*
X0289134Y0214401D02*
X0290248Y0213287D01*
X0355013Y0211877D02*
X0355013Y0210302D01*
X0366037Y0210302D02*
X0366037Y0211877D01*
X0355013Y0202821D02*
X0355013Y0204396D01*
X0366037Y0206562D02*
Y0208136D01*
Y0204396D02*
X0366037Y0202821D01*
X0365215Y0211877D02*
X0365215Y0210302D01*
X0355835Y0211877D02*
X0355835Y0210302D01*
X0365215Y0206562D02*
X0365215Y0208136D01*
X0355835Y0204396D02*
X0355835Y0202821D01*
X0365215D02*
X0365215Y0204396D01*
X0356194Y0211877D02*
X0356194Y0210302D01*
X0364856D02*
Y0211877D01*
Y0206562D02*
Y0208136D01*
X0356194Y0204396D02*
X0356194Y0202821D01*
X0364856Y0202821D02*
Y0204396D01*
X0364831Y0211877D02*
X0364831Y0210302D01*
X0356220Y0210302D02*
X0356220Y0211877D01*
X0355013Y0210302D02*
X0357376D01*
X0357204D02*
Y0211877D01*
X0355013D02*
X0357376D01*
X0364831Y0206562D02*
Y0208136D01*
X0363675Y0211877D02*
X0366037D01*
X0363847Y0211877D02*
X0363847Y0210302D01*
X0363675D02*
X0366037Y0210302D01*
X0363675Y0208136D02*
X0366037Y0208136D01*
X0363847Y0206562D02*
X0363847Y0208136D01*
X0363675Y0206562D02*
X0366037Y0206562D01*
X0364831Y0202821D02*
X0364831Y0204396D01*
X0363675Y0204396D02*
X0366037Y0204396D01*
X0363847D02*
X0363847Y0202821D01*
X0363675D02*
X0366037D01*
X0356220Y0204396D02*
X0356220Y0202821D01*
X0355013Y0202821D02*
X0357376Y0202821D01*
X0357204Y0202821D02*
Y0204396D01*
X0355013Y0204396D02*
X0357376D01*
X0363675Y0201640D02*
X0363675Y0213058D01*
X0363357Y0201958D02*
X0363675Y0201640D01*
X0357376D02*
X0363675D01*
X0357376D02*
X0357694Y0201958D01*
X0357376Y0201640D02*
X0357376Y0213058D01*
X0363357Y0212739D02*
X0363675Y0213058D01*
X0357376D02*
X0357694Y0212739D01*
X0357376Y0213058D02*
X0363675D01*
X0357694Y0201958D02*
X0363357Y0201958D01*
X0357694Y0201958D02*
Y0212739D01*
X0363357Y0212739D01*
Y0201958D02*
Y0212739D01*
X0255635Y0106218D02*
X0257209Y0106218D01*
X0255635Y0095194D02*
X0257209D01*
X0248154Y0106218D02*
X0249729Y0106218D01*
X0251894Y0095194D02*
X0253469D01*
X0248154D02*
X0249729D01*
X0255635Y0096016D02*
X0257209D01*
X0255635Y0105396D02*
X0257209Y0105396D01*
X0251894Y0096016D02*
X0253469D01*
X0248154Y0105396D02*
X0249729D01*
X0248154Y0096016D02*
X0249729Y0096016D01*
X0255635Y0105036D02*
X0257209D01*
X0255635Y0096375D02*
X0257209D01*
X0251894D02*
X0253469Y0096375D01*
X0248154Y0105036D02*
X0249729Y0105036D01*
X0248154Y0096375D02*
X0249729Y0096375D01*
X0255635Y0096400D02*
X0257209D01*
X0255635Y0105011D02*
X0257209Y0105011D01*
X0255635Y0103856D02*
Y0106218D01*
X0255635Y0104027D02*
X0257209D01*
Y0103856D02*
Y0106218D01*
X0251894Y0096400D02*
X0253469D01*
X0257209Y0095194D02*
Y0097556D01*
X0255635Y0097384D02*
X0257209D01*
X0255635Y0095194D02*
X0255635Y0097556D01*
X0253469Y0095194D02*
X0253469Y0097556D01*
X0251894Y0097384D02*
X0253469D01*
X0251894Y0095194D02*
Y0097556D01*
X0248154Y0096400D02*
X0249729D01*
Y0095194D02*
Y0097556D01*
X0248154Y0097384D02*
X0249729Y0097384D01*
X0248154Y0095194D02*
X0248154Y0097556D01*
X0248154Y0105011D02*
X0249729Y0105011D01*
X0248154Y0103856D02*
Y0106218D01*
Y0104027D02*
X0249729Y0104027D01*
Y0103856D02*
Y0106218D01*
X0246973Y0097556D02*
X0258390Y0097556D01*
X0246973Y0097556D02*
X0247291Y0097874D01*
X0246973Y0097556D02*
Y0103856D01*
X0247291Y0103537D01*
X0246973Y0103856D02*
X0258390Y0103856D01*
X0258072Y0097874D02*
X0258390Y0097556D01*
X0258072Y0103537D02*
X0258390Y0103856D01*
X0258390Y0097556D01*
X0247291Y0097874D02*
Y0103537D01*
X0258072Y0103537D01*
X0258072Y0097874D02*
X0258072Y0103537D01*
X0247291Y0097874D02*
X0258072D01*
X0279486Y0112794D02*
X0280377Y0113685D01*
X0283105Y0116413D02*
X0283996Y0117304D01*
X0281296Y0114603D02*
X0282187Y0115494D01*
X0277677Y0110984D02*
X0278567Y0111875D01*
X0267655Y0128244D02*
X0268545Y0129135D01*
X0265845Y0126435D02*
X0266736Y0127326D01*
X0269464Y0130054D02*
X0270355Y0130945D01*
X0264036Y0124625D02*
X0264926Y0125516D01*
X0282303Y0117215D02*
X0283193Y0118106D01*
X0280493Y0115406D02*
X0281384Y0116297D01*
X0278684Y0113596D02*
X0279574Y0114487D01*
X0276874Y0111787D02*
X0277765Y0112678D01*
X0270267Y0129252D02*
X0271157Y0130142D01*
X0264838Y0123823D02*
X0265729Y0124714D01*
X0266648Y0125632D02*
X0267538Y0126523D01*
X0268457Y0127442D02*
X0269348Y0128333D01*
X0278439Y0113841D02*
X0279330Y0114732D01*
X0280248Y0115650D02*
X0281139Y0116541D01*
X0276629Y0112031D02*
X0277520Y0112922D01*
X0282058Y0117460D02*
X0282949Y0118351D01*
X0266892Y0125388D02*
X0267783Y0126279D01*
X0265083Y0123578D02*
X0265973Y0124469D01*
X0268702Y0127197D02*
X0269592Y0128088D01*
X0270511Y0129007D02*
X0271402Y0129898D01*
X0278287Y0113993D02*
X0279177Y0114884D01*
X0281906Y0117612D02*
X0282797Y0118503D01*
X0276477Y0112184D02*
X0277368Y0113075D01*
X0280096Y0115803D02*
X0280987Y0116694D01*
X0279542Y0118139D02*
X0282187Y0115494D01*
X0279343Y0116556D02*
X0280234Y0117447D01*
X0278651Y0117248D02*
X0281296Y0114603D01*
X0267044Y0125235D02*
X0267935Y0126126D01*
X0268854Y0127045D02*
X0269745Y0127936D01*
X0281351Y0119948D02*
X0283996Y0117304D01*
X0281153Y0118365D02*
X0282044Y0119256D01*
X0280460Y0119058D02*
X0283105Y0116413D01*
X0277732Y0116329D02*
X0280377Y0113685D01*
X0277534Y0114746D02*
X0278425Y0115637D01*
X0276841Y0115438D02*
X0279486Y0112794D01*
X0275923Y0114520D02*
X0278567Y0111875D01*
X0275724Y0112937D02*
X0276615Y0113828D01*
X0275032Y0113629D02*
X0277677Y0110984D01*
X0270663Y0128855D02*
X0271554Y0129745D01*
X0265845Y0126435D02*
X0268490Y0123790D01*
X0267797Y0124483D02*
X0268688Y0125373D01*
X0266736Y0127326D02*
X0269381Y0124681D01*
X0264926Y0125516D02*
X0267571Y0122871D01*
X0265988Y0122673D02*
X0266879Y0123564D01*
X0264036Y0124625D02*
X0266680Y0121981D01*
X0265235Y0123426D02*
X0266126Y0124317D01*
X0267655Y0128244D02*
X0270299Y0125600D01*
X0269607Y0126292D02*
X0270498Y0127183D01*
X0268545Y0129135D02*
X0271190Y0126491D01*
X0269464Y0130054D02*
X0272109Y0127409D01*
X0271416Y0128102D02*
X0272307Y0128992D01*
X0270355Y0130945D02*
X0273000Y0128300D01*
X0265664Y0120965D02*
X0274016Y0129316D01*
X0265664Y0120965D02*
X0274016Y0112613D01*
X0265664Y0120965D02*
X0266149D01*
X0274016Y0112613D02*
X0282367Y0120965D01*
X0274016Y0112613D02*
Y0113098D01*
X0281882Y0120965D02*
X0282367D01*
X0274016Y0128831D02*
Y0129316D01*
X0282367Y0120965D01*
X0266149D02*
X0274016Y0113098D01*
X0266149Y0120965D02*
X0274016Y0128831D01*
X0281882Y0120965D01*
X0274016Y0113098D02*
X0281882Y0120965D01*
X0208657Y0428637D02*
X0226776D01*
Y0442820D01*
X0208657D02*
X0226776D01*
X0208657Y0428637D02*
Y0442820D01*
X0227362Y0428051D02*
Y0443405D01*
X0226776Y0442820D02*
X0227362Y0443405D01*
X0226776Y0428637D02*
X0227362Y0428051D01*
X0208071D02*
X0208657Y0428637D01*
X0208071Y0428051D02*
X0227362D01*
X0208071Y0443405D02*
X0208657Y0442820D01*
X0208071Y0428051D02*
Y0443405D01*
X0227362D01*
X0226043D02*
Y0447539D01*
X0224390Y0444049D02*
X0226043D01*
X0224390Y0443405D02*
Y0447539D01*
X0221043Y0443405D02*
Y0447539D01*
X0219390Y0444049D02*
X0221043D01*
X0219390Y0443405D02*
Y0447539D01*
X0209390Y0445190D02*
X0211043D01*
X0209390Y0443405D02*
Y0447539D01*
Y0444049D02*
X0211043D01*
Y0443405D02*
Y0447539D01*
X0216043Y0443405D02*
Y0447539D01*
X0214390Y0444049D02*
X0216043D01*
X0214390Y0443405D02*
Y0447539D01*
X0224390Y0445190D02*
X0226043D01*
X0209390Y0423917D02*
Y0428051D01*
Y0427408D02*
X0211043D01*
Y0423917D02*
Y0428051D01*
X0214390Y0423917D02*
Y0428051D01*
Y0427408D02*
X0216043D01*
Y0423917D02*
Y0428051D01*
X0224390Y0423917D02*
Y0428051D01*
Y0427408D02*
X0226043D01*
Y0423917D02*
Y0428051D01*
X0219390Y0445190D02*
X0221043D01*
X0214390D02*
X0216043D01*
X0219390Y0423917D02*
Y0428051D01*
Y0427408D02*
X0221043D01*
Y0423917D02*
Y0428051D01*
X0219390Y0426267D02*
X0221043D01*
X0209390D02*
X0211043D01*
X0224390D02*
X0226043D01*
X0214390D02*
X0216043D01*
X0209390Y0425716D02*
X0211043D01*
X0219390D02*
X0221043D01*
X0224390D02*
X0226043D01*
X0224390Y0445741D02*
X0226043D01*
X0214390D02*
X0216043D01*
X0219390D02*
X0221043D01*
X0209390D02*
X0211043D01*
X0214390Y0425716D02*
X0216043D01*
X0224390Y0425370D02*
X0226043D01*
X0219390D02*
X0221043D01*
X0214390D02*
X0216043D01*
X0209390D02*
X0211043D01*
X0214390Y0446087D02*
X0216043D01*
X0219390D02*
X0221043D01*
X0209390D02*
X0211043D01*
X0224390D02*
X0226043D01*
X0209390Y0423917D02*
X0211043D01*
X0214390D02*
X0216043D01*
X0224390D02*
X0226043D01*
X0219390D02*
X0221043D01*
X0209390Y0447539D02*
X0211043D01*
X0214390D02*
X0216043D01*
X0219390D02*
X0221043D01*
X0224390D02*
X0226043D01*
X0417835Y0455020D02*
X0421142D01*
X0408779D02*
X0412087D01*
X0413386Y0483760D02*
X0425591D01*
X0426890Y0455020D02*
X0430197D01*
X0417835Y0456846D02*
X0421142D01*
X0408779Y0456846D02*
X0412087D01*
X0413386Y0481934D02*
X0425591D01*
X0426890Y0456846D02*
X0430197D01*
X0417835Y0457334D02*
X0421142D01*
X0413386Y0481445D02*
X0425591D01*
X0408779Y0457334D02*
X0412087D01*
X0426890D02*
X0430197D01*
X0413386Y0479255D02*
X0425591D01*
X0408779Y0455020D02*
Y0462189D01*
X0412087Y0455020D02*
Y0462189D01*
X0408779Y0459524D02*
X0412087D01*
X0408779Y0460916D02*
X0412087D01*
X0421142Y0455020D02*
Y0462189D01*
X0417835Y0459524D02*
X0421142D01*
X0417835Y0455020D02*
Y0462189D01*
Y0460916D02*
X0421142D01*
X0425591Y0476590D02*
Y0483760D01*
X0413386Y0476590D02*
Y0483760D01*
Y0477863D02*
X0425591D01*
X0430197Y0455020D02*
Y0462189D01*
X0426890Y0459524D02*
X0430197D01*
X0426890Y0455020D02*
Y0462189D01*
Y0460916D02*
X0430197D01*
X0421142Y0462106D02*
X0426890D01*
X0417835Y0462189D02*
X0421142D01*
X0412087Y0462106D02*
X0417835D01*
X0408779Y0462189D02*
X0412087D01*
X0406299Y0462106D02*
X0408779D01*
X0430197D02*
X0432677D01*
X0426890Y0462189D02*
X0430197D01*
X0432207Y0462577D02*
X0432677Y0462106D01*
Y0476673D01*
X0406299Y0462106D02*
X0406770Y0462577D01*
X0406299Y0462106D02*
Y0476673D01*
X0413386Y0476590D02*
X0425591D01*
Y0476673D02*
X0432677D01*
X0432207Y0476203D02*
X0432677Y0476673D01*
X0406299D02*
X0406770Y0476203D01*
X0406299Y0476673D02*
X0413386D01*
X0406770Y0462577D02*
Y0476203D01*
X0432207D01*
Y0462577D02*
Y0476203D01*
X0406770Y0462577D02*
X0432207D01*
X0402854Y0445295D02*
Y0448602D01*
Y0436240D02*
Y0439547D01*
X0374114Y0440846D02*
Y0453051D01*
X0402854Y0454350D02*
Y0457657D01*
X0401028Y0445295D02*
Y0448602D01*
X0401028Y0436240D02*
Y0439547D01*
X0375940Y0440846D02*
Y0453051D01*
X0401028Y0454350D02*
Y0457657D01*
X0400540Y0445295D02*
Y0448602D01*
X0376429Y0440846D02*
Y0453051D01*
X0400540Y0436240D02*
Y0439547D01*
Y0454350D02*
Y0457657D01*
X0378619Y0440846D02*
Y0453051D01*
X0395685Y0436240D02*
X0402854D01*
X0395685Y0439547D02*
X0402854D01*
X0398350Y0436240D02*
Y0439547D01*
X0396958Y0436240D02*
Y0439547D01*
X0395685Y0448602D02*
X0402854D01*
X0398350Y0445295D02*
Y0448602D01*
X0395685Y0445295D02*
X0402854D01*
X0396958D02*
Y0448602D01*
X0374114Y0453051D02*
X0381284D01*
X0374114Y0440846D02*
X0381284D01*
X0380011D02*
Y0453051D01*
X0395685Y0457657D02*
X0402854D01*
X0398350Y0454350D02*
Y0457657D01*
X0395685Y0454350D02*
X0402854D01*
X0396958D02*
Y0457657D01*
X0395768Y0448602D02*
Y0454350D01*
X0395685Y0445295D02*
Y0448602D01*
X0395768Y0439547D02*
Y0445295D01*
X0395685Y0436240D02*
Y0439547D01*
X0395768Y0433760D02*
Y0436240D01*
Y0457657D02*
Y0460138D01*
X0395685Y0454350D02*
Y0457657D01*
X0395297Y0459667D02*
X0395768Y0460138D01*
X0381201D02*
X0395768D01*
X0395297Y0434230D02*
X0395768Y0433760D01*
X0381201D02*
X0395768D01*
X0381284Y0440846D02*
Y0453051D01*
X0381201D02*
Y0460138D01*
X0381671Y0459667D01*
X0381201Y0433760D02*
X0381671Y0434230D01*
X0381201Y0433760D02*
Y0440846D01*
X0381671Y0434230D02*
X0395297D01*
X0381671D02*
Y0459667D01*
X0395297D01*
Y0434230D02*
Y0459667D01*
X0416755Y0389295D02*
Y0400076D01*
X0422418D01*
Y0389295D02*
Y0400076D01*
X0416755Y0389295D02*
X0422418D01*
X0416437Y0400394D02*
X0422736D01*
X0422418Y0400076D02*
X0422736Y0400394D01*
X0416437D02*
X0416755Y0400076D01*
X0422736Y0388976D02*
Y0400394D01*
X0422418Y0389295D02*
X0422736Y0388976D01*
X0416437Y0388976D02*
X0422736Y0388976D01*
X0416437Y0388976D02*
X0416755Y0389295D01*
X0416437Y0388976D02*
Y0400394D01*
X0422736Y0391732D02*
X0425098Y0391732D01*
X0422908Y0390158D02*
Y0391732D01*
X0422736Y0390158D02*
X0425098D01*
X0423892Y0390158D02*
Y0391732D01*
X0414075Y0390158D02*
X0416437D01*
X0416265Y0391732D02*
X0416265Y0390158D01*
X0414075Y0391732D02*
X0416437D01*
X0415281Y0390158D02*
Y0391732D01*
X0414075Y0393898D02*
X0416437Y0393898D01*
X0416265Y0393898D02*
Y0395472D01*
X0414075Y0395472D02*
X0416437Y0395472D01*
X0414075Y0397638D02*
X0416437Y0397638D01*
X0416265D02*
X0416265Y0399213D01*
X0414075D02*
X0416437Y0399213D01*
X0415281Y0393898D02*
Y0395472D01*
X0422736Y0399213D02*
X0425098D01*
X0422908Y0397638D02*
X0422908Y0399213D01*
X0422736Y0397638D02*
X0425098Y0397638D01*
X0423892Y0399213D02*
X0423892Y0397638D01*
X0415281D02*
Y0399213D01*
X0415256Y0390158D02*
Y0391732D01*
X0423917Y0391732D02*
X0423917Y0390158D01*
X0415256Y0393898D02*
Y0395472D01*
Y0397638D02*
X0415256Y0399213D01*
X0423917Y0397638D02*
X0423917Y0399213D01*
X0414897Y0390158D02*
X0414897Y0391732D01*
X0424277Y0390158D02*
X0424277Y0391732D01*
X0414897Y0393898D02*
Y0395472D01*
X0424277Y0397638D02*
Y0399213D01*
X0414897Y0397638D02*
Y0399213D01*
X0414075Y0390158D02*
Y0391732D01*
Y0393898D02*
Y0395472D01*
X0425098Y0391732D02*
X0425098Y0390158D01*
X0414075Y0397638D02*
Y0399213D01*
X0425098Y0397638D02*
Y0399213D01*
X0270304Y0177590D02*
X0270304Y0188371D01*
X0270304Y0177590D02*
X0275967D01*
X0275967Y0188371D02*
X0275967Y0177590D01*
X0270304Y0188371D02*
X0275967D01*
X0276285Y0188689D01*
X0269986Y0188689D02*
X0276285Y0188689D01*
X0269986Y0188689D02*
X0270304Y0188371D01*
X0269986Y0177271D02*
X0276285D01*
X0275967Y0177590D02*
X0276285Y0177271D01*
X0269986D02*
X0270304Y0177590D01*
X0269986Y0188689D02*
X0269986Y0177271D01*
X0276285D02*
Y0188689D01*
X0267624Y0187508D02*
X0269986D01*
X0269814Y0185933D02*
Y0187508D01*
X0267624Y0185933D02*
X0269986D01*
X0276285D02*
X0278647Y0185933D01*
X0276457Y0185933D02*
X0276457Y0187508D01*
X0276285D02*
X0278647D01*
X0277441D02*
X0277441Y0185933D01*
X0268830Y0185933D02*
Y0187508D01*
X0276285Y0182193D02*
X0278647Y0182193D01*
X0276457Y0182193D02*
Y0183768D01*
X0276285D02*
X0278647Y0183767D01*
X0277441Y0182193D02*
X0277441Y0183768D01*
X0267624Y0183767D02*
X0269986Y0183768D01*
X0269814Y0182193D02*
Y0183768D01*
X0267624Y0182193D02*
X0269986Y0182193D01*
X0267624Y0180027D02*
X0269986D01*
X0269814D02*
X0269814Y0178453D01*
X0267624D02*
X0269986D01*
X0277441D02*
X0277441Y0180027D01*
X0276457Y0178453D02*
X0276457Y0180027D01*
X0276285Y0178453D02*
X0278647Y0178453D01*
X0276285Y0180027D02*
X0278647D01*
X0268830Y0182193D02*
Y0183768D01*
Y0180027D02*
X0268830Y0178453D01*
X0268805Y0185933D02*
X0268805Y0187508D01*
X0277466Y0185933D02*
Y0187508D01*
X0268805Y0182193D02*
Y0183768D01*
X0277466Y0182193D02*
Y0183768D01*
Y0180027D02*
X0277466Y0178453D01*
X0268805D02*
X0268805Y0180027D01*
X0268445Y0185933D02*
X0268446Y0187508D01*
X0277825Y0185933D02*
X0277825Y0187508D01*
X0268445Y0183768D02*
X0268446Y0182193D01*
X0277825D02*
X0277825Y0183768D01*
X0277825Y0178453D02*
Y0180027D01*
X0268446Y0178453D02*
Y0180027D01*
X0267624Y0187508D02*
X0267624Y0185933D01*
X0267624Y0182193D02*
Y0183767D01*
X0278647Y0185933D02*
X0278647Y0187508D01*
X0267624Y0178453D02*
Y0180027D01*
X0278647Y0182193D02*
Y0183767D01*
X0278647Y0180027D02*
X0278647Y0178453D01*
X0256900Y0150019D02*
X0258160Y0150019D01*
X0262018Y0150019D02*
X0263278D01*
X0259459Y0150019D02*
X0260719Y0150019D01*
X0254341D02*
X0255601D01*
X0259459Y0169310D02*
X0260719Y0169310D01*
X0256900D02*
X0258160Y0169310D01*
X0262018Y0169310D02*
X0263278Y0169310D01*
X0254341D02*
X0255601Y0169310D01*
X0262018Y0151154D02*
X0263278Y0151154D01*
X0259459D02*
X0260719Y0151154D01*
X0256900D02*
X0258160Y0151154D01*
X0254341D02*
X0255601Y0151154D01*
X0262018Y0168175D02*
X0263278D01*
X0254341D02*
X0255601D01*
X0256900D02*
X0258160D01*
X0259459D02*
X0260719D01*
X0256900Y0151500D02*
X0258160D01*
X0259459D02*
X0260719D01*
X0254341D02*
X0255601D01*
X0262018D02*
X0263278D01*
X0256900Y0167829D02*
X0258160D01*
X0254341D02*
X0255601D01*
X0259459D02*
X0260719D01*
X0262018D02*
X0263278D01*
X0256900Y0151715D02*
X0258160Y0151715D01*
X0262018Y0151715D02*
X0263278Y0151715D01*
X0254341D02*
X0255601Y0151715D01*
X0259459Y0151715D02*
X0260719Y0151715D01*
Y0150019D02*
Y0153759D01*
X0259459Y0152780D02*
X0260719D01*
X0259459Y0150019D02*
Y0153759D01*
X0256900Y0167614D02*
X0258160Y0167614D01*
X0259459Y0167614D02*
X0260719Y0167614D01*
X0263278Y0153759D02*
X0263278Y0150019D01*
X0262018Y0152780D02*
X0263278D01*
X0262018Y0150019D02*
Y0153759D01*
X0258160D02*
X0258160Y0150019D01*
X0256900Y0152780D02*
X0258160D01*
X0256900Y0153759D02*
X0256900Y0150019D01*
X0255601D02*
Y0153759D01*
X0254341Y0152780D02*
X0255601D01*
X0254341Y0150019D02*
Y0153759D01*
X0262018Y0167614D02*
X0263278Y0167614D01*
X0256900Y0165570D02*
X0256900Y0169310D01*
Y0166549D02*
X0258160Y0166549D01*
Y0169310D02*
X0258160Y0165570D01*
X0255601D02*
Y0169310D01*
X0254341Y0166549D02*
X0255601Y0166549D01*
X0254341Y0165570D02*
Y0169310D01*
X0254341Y0167614D02*
X0255601Y0167614D01*
X0259459Y0165570D02*
Y0169310D01*
Y0166549D02*
X0260719Y0166549D01*
Y0165570D02*
Y0169310D01*
X0262018Y0165570D02*
X0262018Y0169310D01*
Y0166549D02*
X0263278Y0166549D01*
Y0165570D02*
Y0169310D01*
X0252904Y0165570D02*
X0264715D01*
X0252904Y0153759D02*
X0252904Y0165570D01*
X0253247Y0165227D01*
X0252904Y0153759D02*
X0264715D01*
X0252904D02*
X0253247Y0154102D01*
X0264372D02*
X0264715Y0153759D01*
X0264372Y0165227D02*
X0264715Y0165570D01*
X0264715Y0153759D02*
X0264715Y0165570D01*
X0253247Y0154102D02*
Y0165227D01*
X0264372D01*
X0264372Y0154102D02*
X0264372Y0165227D01*
X0253247Y0154102D02*
X0264372D01*
X0314723Y0116206D02*
X0314723Y0117466D01*
X0314723Y0121324D02*
Y0122584D01*
Y0120025D02*
X0314723Y0118765D01*
X0314723Y0113647D02*
Y0114907D01*
X0295432Y0118765D02*
X0295432Y0120025D01*
X0295432Y0117466D02*
X0295432Y0116206D01*
Y0121324D02*
Y0122584D01*
Y0113647D02*
Y0114907D01*
X0313588Y0121324D02*
Y0122584D01*
Y0118765D02*
Y0120025D01*
Y0116206D02*
Y0117466D01*
Y0113647D02*
Y0114907D01*
X0296567Y0121324D02*
Y0122584D01*
Y0113647D02*
Y0114907D01*
Y0116206D02*
Y0117466D01*
Y0118765D02*
Y0120025D01*
X0313242Y0116206D02*
Y0117466D01*
Y0118765D02*
Y0120025D01*
Y0113647D02*
Y0114907D01*
Y0121324D02*
Y0122584D01*
X0296913Y0116206D02*
Y0117466D01*
Y0113647D02*
Y0114907D01*
Y0118765D02*
Y0120025D01*
Y0121324D02*
Y0122584D01*
X0313027Y0116206D02*
X0313027Y0117466D01*
X0313027Y0121324D02*
X0313027Y0122584D01*
X0313027Y0114907D02*
X0313027Y0113647D01*
X0313027Y0120025D02*
X0313027Y0118765D01*
X0310983Y0120025D02*
X0314723D01*
X0311962Y0118765D02*
Y0120025D01*
X0310983Y0118765D02*
X0314723Y0118765D01*
X0297128Y0117466D02*
X0297128Y0116206D01*
X0297128Y0118765D02*
X0297128Y0120025D01*
X0310983Y0122584D02*
X0314723D01*
X0311962Y0121324D02*
Y0122584D01*
X0310983Y0121324D02*
X0314723D01*
X0310983Y0117466D02*
X0314723Y0117466D01*
X0311962Y0116206D02*
Y0117466D01*
X0310983Y0116206D02*
X0314723D01*
X0310983Y0114907D02*
X0314723D01*
X0311962Y0113647D02*
Y0114907D01*
X0310983Y0113647D02*
X0314723D01*
X0297128Y0122584D02*
X0297128Y0121324D01*
X0295432Y0116206D02*
X0299172D01*
X0298193D02*
Y0117466D01*
X0295432Y0117466D02*
X0299172Y0117466D01*
X0295432Y0114907D02*
X0299172D01*
X0298193Y0113647D02*
Y0114907D01*
X0295432Y0113647D02*
X0299172D01*
X0297128D02*
X0297128Y0114907D01*
X0295432Y0118765D02*
X0299172Y0118765D01*
X0298193D02*
Y0120025D01*
X0295432D02*
X0299172D01*
X0295432Y0121324D02*
X0299172D01*
X0298193D02*
Y0122584D01*
X0295432D02*
X0299172D01*
Y0112210D02*
Y0124021D01*
Y0112210D02*
X0310983D01*
X0299172D02*
X0299515Y0112553D01*
X0310983Y0112210D02*
Y0124021D01*
X0310640Y0112553D02*
X0310983Y0112210D01*
X0310640Y0123678D02*
X0310983Y0124021D01*
X0299172D02*
X0299515Y0123678D01*
X0299172Y0124021D02*
X0310983D01*
X0299515Y0112553D02*
X0310640D01*
X0299515D02*
Y0123678D01*
X0310640D01*
Y0112553D02*
Y0123678D01*
X0372441Y0299410D02*
X0378150D01*
X0372441Y0298228D02*
X0378150D01*
X0378150Y0299410D02*
X0378150Y0298228D01*
X0372441D02*
X0372441Y0299410D01*
X0378150Y0290748D02*
X0378150Y0291929D01*
X0372441D02*
X0372441Y0290748D01*
X0378150D01*
X0372441Y0291929D02*
X0378150D01*
X0378071D02*
Y0298228D01*
X0372520Y0291929D02*
Y0298228D01*
X0226776Y0376767D02*
Y0394887D01*
X0212594D02*
X0226776D01*
X0212594Y0376767D02*
Y0394887D01*
Y0376767D02*
X0226776D01*
X0212008Y0395472D02*
X0227362D01*
X0212008D02*
X0212594Y0394887D01*
X0226776D02*
X0227362Y0395472D01*
X0226776Y0376767D02*
X0227362Y0376181D01*
Y0395472D01*
X0212008Y0376181D02*
X0212594Y0376767D01*
X0212008Y0376181D02*
X0227362D01*
X0212008D02*
Y0395472D01*
X0207874Y0394153D02*
X0212008D01*
X0211364Y0392500D02*
Y0394153D01*
X0207874Y0392500D02*
X0212008D01*
X0207874Y0389154D02*
X0212008D01*
X0211364Y0387500D02*
Y0389154D01*
X0207874Y0387500D02*
X0212008D01*
X0210224Y0377500D02*
Y0379153D01*
X0207874Y0377500D02*
X0212008D01*
X0211364D02*
Y0379153D01*
X0207874D02*
X0212008D01*
X0207874Y0384154D02*
X0212008D01*
X0211364Y0382500D02*
Y0384154D01*
X0207874Y0382500D02*
X0212008D01*
X0210224Y0392500D02*
Y0394153D01*
X0227362Y0377500D02*
X0231496D01*
X0228006D02*
Y0379153D01*
X0227362D02*
X0231496D01*
X0227362Y0382500D02*
X0231496D01*
X0228006D02*
Y0384154D01*
X0227362D02*
X0231496D01*
X0227362Y0392500D02*
X0231496D01*
X0228006D02*
Y0394153D01*
X0227362D02*
X0231496D01*
X0210224Y0387500D02*
Y0389154D01*
Y0382500D02*
Y0384154D01*
X0227362Y0387500D02*
X0231496D01*
X0228006D02*
Y0389154D01*
X0227362D02*
X0231496D01*
X0229147Y0387500D02*
Y0389154D01*
Y0377500D02*
Y0379153D01*
Y0392500D02*
Y0394153D01*
Y0382500D02*
Y0384154D01*
X0229698Y0377500D02*
Y0379153D01*
Y0387500D02*
Y0389154D01*
Y0392500D02*
Y0394153D01*
X0209672Y0392500D02*
Y0394153D01*
Y0382500D02*
Y0384154D01*
Y0387500D02*
Y0389154D01*
Y0377500D02*
Y0379153D01*
X0229698Y0382500D02*
Y0384154D01*
X0230044Y0392500D02*
Y0394153D01*
Y0387500D02*
Y0389154D01*
Y0382500D02*
Y0384154D01*
Y0377500D02*
Y0379153D01*
X0209327Y0382500D02*
Y0384154D01*
Y0387500D02*
Y0389154D01*
Y0377500D02*
Y0379153D01*
Y0392500D02*
Y0394153D01*
X0231496Y0377500D02*
Y0379153D01*
Y0382500D02*
Y0384154D01*
Y0392500D02*
Y0394153D01*
Y0387500D02*
Y0389154D01*
X0207874Y0377500D02*
Y0379153D01*
Y0382500D02*
Y0384154D01*
Y0387500D02*
Y0389154D01*
Y0392500D02*
Y0394153D01*
X0145276Y0310827D02*
X0150984D01*
X0145276Y0309646D02*
X0150984D01*
X0150984Y0310827D02*
X0150984Y0309646D01*
X0145276D02*
X0145276Y0310827D01*
X0150984Y0302165D02*
X0150984Y0303346D01*
X0145276D02*
X0145276Y0302165D01*
X0150984D01*
X0145276Y0303346D02*
X0150984D01*
X0150906D02*
Y0309646D01*
X0145354Y0303346D02*
Y0309646D01*
X0269837Y0207662D02*
X0277460Y0200039D01*
X0281464Y0204043D01*
X0273841Y0211666D02*
X0281464Y0204043D01*
X0269837Y0207662D02*
X0273841Y0211666D01*
X0277460Y0199589D02*
X0281914Y0204043D01*
X0281464Y0204043D02*
X0281914Y0204043D01*
X0277460Y0199589D02*
X0277460Y0200039D01*
X0273841Y0212116D02*
X0281914Y0204043D01*
X0273841Y0211666D02*
X0273841Y0212116D01*
X0269387Y0207662D02*
X0273841Y0212116D01*
X0269387Y0207662D02*
X0269837Y0207662D01*
X0269387Y0207662D02*
X0277460Y0199589D01*
X0275790Y0210168D02*
X0277460Y0211838D01*
X0274798Y0211403D02*
X0275911Y0210289D01*
X0274676Y0211281D02*
X0276347Y0212951D01*
X0275494Y0212099D02*
X0276607Y0210985D01*
X0268552Y0205156D02*
X0270222Y0206827D01*
X0270100Y0206705D02*
X0271214Y0205592D01*
X0269665Y0204043D02*
X0271336Y0205713D01*
X0269405Y0206009D02*
X0270518Y0204896D01*
X0271196Y0202512D02*
X0272867Y0204182D01*
X0272745Y0204061D02*
X0273859Y0202947D01*
X0272310Y0201398D02*
X0273980Y0203069D01*
X0273841Y0199867D02*
X0275511Y0201537D01*
X0275390Y0201416D02*
X0276503Y0200302D01*
X0274955Y0198753D02*
X0276625Y0200424D01*
X0272049Y0203365D02*
X0273163Y0202251D01*
X0281079Y0204878D02*
X0282750Y0206548D01*
X0280087Y0206113D02*
X0281201Y0205000D01*
X0279966Y0205992D02*
X0281636Y0207662D01*
X0280783Y0206809D02*
X0281897Y0205696D01*
X0274694Y0200720D02*
X0275808Y0199606D01*
X0269387Y0205992D02*
X0270500Y0204878D01*
X0275511Y0212116D02*
X0276625Y0211003D01*
X0272032Y0203347D02*
X0273145Y0202234D01*
X0274676Y0200702D02*
X0275790Y0199589D01*
X0280801Y0206827D02*
X0281914Y0205713D01*
X0269133Y0205738D02*
X0270246Y0204624D01*
X0275765Y0212370D02*
X0276879Y0211257D01*
X0271778Y0203093D02*
X0272891Y0201979D01*
X0281055Y0207081D02*
X0282168Y0205967D01*
X0274422Y0200448D02*
X0275536Y0199335D01*
X0268552Y0205156D02*
X0269665Y0204043D01*
X0271196Y0202512D02*
X0272310Y0201398D01*
X0276347Y0212951D02*
X0277460Y0211838D01*
X0273841Y0199867D02*
X0274955Y0198753D01*
X0281636Y0207662D02*
X0282750Y0206548D01*
X0252266Y0205296D02*
X0253380Y0204182D01*
X0256024Y0206827D01*
X0252266Y0205296D02*
X0254911Y0207940D01*
X0256024Y0206827D01*
X0248508Y0209054D02*
X0249621Y0207940D01*
X0252266Y0210585D01*
X0251152Y0211699D02*
X0252266Y0210585D01*
X0248508Y0209054D02*
X0251152Y0211699D01*
X0252263Y0210582D02*
X0254908Y0207938D01*
X0252263Y0210582D02*
X0254907Y0207936D01*
X0249625Y0207944D02*
X0252269Y0205298D01*
X0249625Y0207944D02*
X0252269Y0205298D01*
X0256442Y0209611D02*
X0257555Y0208497D01*
X0260200Y0211142D01*
X0256442Y0209611D02*
X0259086Y0212255D01*
X0260200Y0211142D01*
X0252684Y0213369D02*
X0253797Y0212255D01*
X0256442Y0214900D01*
X0255328Y0216014D02*
X0256442Y0214900D01*
X0252684Y0213369D02*
X0255328Y0216014D01*
X0256439Y0214897D02*
X0259084Y0212253D01*
X0256439Y0214897D02*
X0259082Y0212251D01*
X0253801Y0212260D02*
X0256445Y0209613D01*
X0253801Y0212260D02*
X0256445Y0209613D01*
X0269488Y0220879D02*
X0270602Y0219765D01*
X0273246Y0222410D01*
X0269488Y0220879D02*
X0272133Y0223524D01*
X0273246Y0222410D01*
X0265730Y0224637D02*
X0266844Y0223524D01*
X0269488Y0226168D01*
X0268375Y0227282D02*
X0269488Y0226168D01*
X0265730Y0224637D02*
X0268375Y0227282D01*
X0269485Y0226166D02*
X0272130Y0223521D01*
X0269485Y0226166D02*
X0272129Y0223519D01*
X0266848Y0223528D02*
X0269491Y0220882D01*
X0266848Y0223528D02*
X0269491Y0220882D01*
X0273622Y0225013D02*
X0274736Y0223899D01*
X0277380Y0226544D01*
X0273622Y0225013D02*
X0276267Y0227658D01*
X0277380Y0226544D01*
X0269864Y0228771D02*
X0270977Y0227658D01*
X0273622Y0230302D01*
X0272509Y0231416D02*
X0273622Y0230302D01*
X0269864Y0228771D02*
X0272509Y0231416D01*
X0273619Y0230299D02*
X0276264Y0227655D01*
X0273619Y0230299D02*
X0276263Y0227653D01*
X0270982Y0227662D02*
X0273625Y0225016D01*
X0270982Y0227662D02*
X0273625Y0225016D01*
X0307109Y0428763D02*
Y0439544D01*
Y0428763D02*
X0312772D01*
X0312772Y0439544D01*
X0307109Y0439544D02*
X0312772Y0439544D01*
X0306791Y0428445D02*
X0313091Y0428445D01*
X0312772Y0428763D02*
X0313091Y0428445D01*
X0306791Y0428445D02*
X0307109Y0428763D01*
X0313091Y0428445D02*
Y0439862D01*
X0312772Y0439544D02*
X0313091Y0439862D01*
X0306791Y0439862D02*
X0313091Y0439862D01*
X0306791Y0439862D02*
X0307109Y0439544D01*
X0306791Y0428445D02*
Y0439862D01*
X0313091Y0437106D02*
X0315453D01*
X0313263Y0438681D02*
X0313263Y0437106D01*
X0313091Y0438681D02*
X0315453D01*
X0314247D02*
X0314247Y0437106D01*
X0304429Y0438681D02*
X0306791Y0438681D01*
X0306619Y0437106D02*
Y0438681D01*
X0304429Y0437106D02*
X0306791D01*
X0305635D02*
X0305635Y0438681D01*
X0304429Y0434941D02*
X0306791D01*
X0306619Y0433366D02*
X0306619Y0434941D01*
X0304429Y0433366D02*
X0306791Y0433366D01*
X0304429Y0431201D02*
X0306791D01*
X0306619Y0429626D02*
X0306619Y0431201D01*
X0304429Y0429626D02*
X0306791D01*
X0305635Y0433366D02*
X0305635Y0434941D01*
X0313091Y0429626D02*
X0315453D01*
X0313263D02*
X0313263Y0431201D01*
X0313091D02*
X0315453D01*
X0314247Y0429626D02*
X0314247Y0431201D01*
X0305635Y0431201D02*
X0305635Y0429626D01*
X0305610Y0438681D02*
X0305610Y0437106D01*
X0314272D02*
Y0438681D01*
X0305610Y0433366D02*
Y0434941D01*
X0305610Y0429626D02*
X0305610Y0431201D01*
X0314272Y0429626D02*
X0314272Y0431201D01*
X0305251Y0437106D02*
X0305251Y0438681D01*
X0314631Y0437106D02*
X0314631Y0438681D01*
X0305251Y0433366D02*
X0305251Y0434941D01*
X0314631Y0431201D02*
X0314631Y0429626D01*
X0305251Y0431201D02*
X0305251Y0429626D01*
X0304429Y0438681D02*
X0304429Y0437106D01*
X0304429Y0433366D02*
X0304429Y0434941D01*
X0315453Y0437106D02*
X0315453Y0438681D01*
X0304429Y0429626D02*
X0304429Y0431201D01*
X0315453D02*
X0315453Y0429626D01*
X0311122Y0456299D02*
X0311122Y0457874D01*
Y0460039D02*
Y0461614D01*
X0300098Y0456299D02*
X0300098Y0457874D01*
X0311122Y0465354D02*
X0311122Y0463779D01*
X0300098Y0461614D02*
X0300098Y0460039D01*
X0300098Y0463779D02*
Y0465354D01*
X0300920Y0456299D02*
X0300920Y0457874D01*
X0310300Y0456299D02*
X0310300Y0457874D01*
Y0460039D02*
Y0461614D01*
X0300920Y0460039D02*
Y0461614D01*
X0310300Y0465354D02*
X0310300Y0463779D01*
X0300920Y0465354D02*
X0300920Y0463779D01*
X0301280Y0456299D02*
X0301280Y0457874D01*
X0309941Y0457874D02*
X0309941Y0456299D01*
X0309941Y0461614D02*
X0309941Y0460039D01*
X0301280Y0461614D02*
X0301280Y0460039D01*
X0309941Y0463779D02*
Y0465354D01*
X0301280D02*
X0301280Y0463779D01*
X0301305Y0456299D02*
Y0457874D01*
X0301305Y0461614D02*
X0301305Y0460039D01*
X0308760Y0457874D02*
X0311122Y0457874D01*
X0308760Y0456299D02*
X0311122Y0456299D01*
X0308932Y0457874D02*
X0308932Y0456299D01*
X0309916Y0457874D02*
X0309916Y0456299D01*
X0300098D02*
X0302461Y0456299D01*
X0302289Y0457874D02*
X0302289Y0456299D01*
X0300098Y0457874D02*
X0302461D01*
X0300098Y0460039D02*
X0302461D01*
X0302289Y0461614D02*
X0302289Y0460039D01*
X0300098Y0461614D02*
X0302461Y0461614D01*
X0309916Y0460039D02*
Y0461614D01*
X0308760Y0461614D02*
X0311122D01*
X0308932D02*
X0308932Y0460039D01*
X0308760D02*
X0311122Y0460039D01*
X0301305Y0463779D02*
X0301305Y0465354D01*
X0309916Y0463779D02*
X0309916Y0465354D01*
X0308760D02*
X0311122D01*
X0308932Y0463779D02*
Y0465354D01*
X0308760Y0463779D02*
X0311122Y0463779D01*
X0300098Y0463779D02*
X0302461D01*
X0302289D02*
Y0465354D01*
X0300098D02*
X0302461D01*
X0308760Y0455118D02*
X0308760Y0466535D01*
X0302461Y0455118D02*
Y0466535D01*
Y0455118D02*
X0302779Y0455436D01*
X0308442D02*
X0308760Y0455118D01*
X0302461D02*
X0308760D01*
X0302461Y0466535D02*
X0302779Y0466217D01*
X0302461Y0466535D02*
X0308760Y0466535D01*
X0308442Y0466217D02*
X0308760Y0466535D01*
X0302779Y0466217D02*
X0308442D01*
Y0455436D02*
Y0466217D01*
X0302779Y0455436D02*
X0308442D01*
X0302779D02*
Y0466217D01*
X0131516Y0288779D02*
Y0295079D01*
X0125965Y0288779D02*
Y0295079D01*
X0125886Y0288779D02*
X0131595D01*
X0125886Y0287598D02*
X0131595D01*
X0131595Y0288779D01*
X0125886D02*
X0125886Y0287598D01*
X0131595Y0296260D02*
X0131595Y0295079D01*
X0125886D02*
X0125886Y0296260D01*
X0125886Y0295079D02*
X0131595D01*
X0125886Y0296260D02*
X0131595D01*
X0133169Y0287402D02*
Y0289370D01*
Y0287402D02*
X0138484D01*
X0133169Y0289370D02*
X0138484D01*
Y0287402D02*
Y0289370D01*
X0133169Y0294094D02*
Y0296063D01*
Y0294094D02*
X0138484D01*
Y0296063D01*
X0133169D02*
X0138484D01*
X0138480Y0289370D02*
Y0294094D01*
X0138478Y0289370D02*
X0138480Y0294094D01*
X0133173Y0289370D02*
X0133175Y0294094D01*
X0133173Y0289370D02*
X0133175Y0294094D01*
X0140453Y0287205D02*
Y0289173D01*
Y0287205D02*
X0145768D01*
X0140453Y0289173D02*
X0145768D01*
Y0287205D02*
Y0289173D01*
X0140453Y0293898D02*
Y0295866D01*
Y0293898D02*
X0145768D01*
Y0295866D01*
X0140453D02*
X0145768D01*
X0145764Y0289173D02*
Y0293898D01*
X0145762Y0289173D02*
X0145764Y0293898D01*
X0140457Y0289173D02*
X0140459Y0293898D01*
X0140457Y0289173D02*
X0140459Y0293898D01*
X0152874Y0288445D02*
Y0294744D01*
X0147323Y0288445D02*
Y0294744D01*
X0147244Y0288445D02*
X0152953D01*
X0147244Y0287264D02*
X0152953D01*
X0152953Y0288445D01*
X0147244D02*
X0147244Y0287264D01*
X0152953Y0295925D02*
X0152953Y0294744D01*
X0147244D02*
X0147244Y0295925D01*
X0147244Y0294744D02*
X0152953D01*
X0147244Y0295925D02*
X0152953D01*
X0226988Y0290177D02*
Y0296476D01*
X0221437Y0290177D02*
Y0296476D01*
X0221358Y0290177D02*
X0227067D01*
X0221358Y0288996D02*
X0227067D01*
X0227067Y0290177D01*
X0221358D02*
X0221358Y0288996D01*
X0227067Y0297657D02*
X0227067Y0296476D01*
X0221358D02*
X0221358Y0297657D01*
X0221358Y0296476D02*
X0227067D01*
X0221358Y0297657D02*
X0227067D01*
X0229528Y0293150D02*
X0231496D01*
X0229528Y0287835D02*
Y0293150D01*
X0231496Y0287835D02*
Y0293150D01*
X0229528Y0287835D02*
X0231496D01*
X0236221Y0293150D02*
X0238189D01*
X0236221Y0287835D02*
Y0293150D01*
Y0287835D02*
X0238189D01*
Y0293150D01*
X0231496Y0287839D02*
X0236221D01*
X0231496Y0287841D02*
X0236221Y0287839D01*
X0231496Y0293146D02*
X0236221Y0293144D01*
X0231496Y0293146D02*
X0236221Y0293144D01*
X0407618Y0077756D02*
X0409272D01*
X0412618D02*
X0414272D01*
X0417618D02*
X0419272D01*
X0422618D02*
X0424272D01*
X0412618Y0101378D02*
X0414272D01*
X0407618D02*
X0409272D01*
X0417618D02*
X0419272D01*
X0422618D02*
X0424272D01*
X0407618Y0079208D02*
X0409272D01*
X0422618D02*
X0424272D01*
X0412618D02*
X0414272D01*
X0417618D02*
X0419272D01*
X0422618Y0099926D02*
X0424272D01*
X0417618D02*
X0419272D01*
X0412618D02*
X0414272D01*
X0407618D02*
X0409272D01*
X0417618Y0099580D02*
X0419272D01*
X0422618Y0079554D02*
X0424272D01*
X0412618D02*
X0414272D01*
X0417618D02*
X0419272D01*
X0407618D02*
X0409272D01*
X0407618Y0099580D02*
X0409272D01*
X0412618D02*
X0414272D01*
X0422618D02*
X0424272D01*
X0417618Y0099028D02*
X0419272D01*
X0407618D02*
X0409272D01*
X0422618D02*
X0424272D01*
X0412618D02*
X0414272D01*
X0412618Y0097244D02*
Y0101378D01*
Y0097887D02*
X0414272D01*
Y0097244D02*
Y0101378D01*
X0417618Y0080106D02*
X0419272D01*
X0412618D02*
X0414272D01*
X0407618Y0097244D02*
Y0101378D01*
Y0097887D02*
X0409272D01*
Y0097244D02*
Y0101378D01*
X0417618Y0097244D02*
Y0101378D01*
Y0097887D02*
X0419272D01*
Y0097244D02*
Y0101378D01*
X0422618Y0097244D02*
Y0101378D01*
Y0097887D02*
X0424272D01*
Y0097244D02*
Y0101378D01*
X0407618Y0080106D02*
X0409272D01*
X0419272Y0077756D02*
Y0081890D01*
X0417618Y0081246D02*
X0419272D01*
X0417618Y0077756D02*
Y0081890D01*
X0422618Y0077756D02*
Y0081890D01*
Y0081246D02*
X0424272D01*
Y0077756D02*
Y0081890D01*
X0422618Y0080106D02*
X0424272D01*
X0414272Y0077756D02*
Y0081890D01*
X0412618Y0081246D02*
X0414272D01*
X0412618Y0077756D02*
Y0081890D01*
X0409272Y0077756D02*
Y0081890D01*
X0407618Y0081246D02*
X0409272D01*
X0407618Y0077756D02*
Y0081890D01*
X0406299D02*
X0425591D01*
Y0097244D01*
X0425005Y0082476D02*
X0425591Y0081890D01*
X0406299Y0097244D02*
X0425591D01*
X0425005Y0096658D02*
X0425591Y0097244D01*
X0406299D02*
X0406885Y0096658D01*
X0406299Y0081890D02*
X0406885Y0082476D01*
X0406299Y0081890D02*
Y0097244D01*
X0425005Y0082476D02*
Y0096658D01*
X0406885Y0082476D02*
X0425005D01*
X0406885D02*
Y0096658D01*
X0425005D01*
X0153817Y0406518D02*
X0179254D01*
X0153817Y0392892D02*
Y0406518D01*
Y0392892D02*
X0179254Y0392892D01*
Y0406518D01*
X0172638Y0392421D02*
X0179724D01*
X0179254Y0392892D02*
X0179724Y0392421D01*
X0153347D02*
X0153817Y0392892D01*
X0153347Y0392421D02*
X0160433D01*
Y0392504D02*
X0172638D01*
X0179724Y0392421D02*
Y0406988D01*
X0179254Y0406518D02*
X0179724Y0406988D01*
X0153347Y0392421D02*
Y0406988D01*
X0153817Y0406518D01*
X0155827Y0406905D02*
X0159134D01*
X0153347Y0406988D02*
X0155827D01*
X0177244D02*
X0179724Y0406988D01*
X0173937Y0406905D02*
X0177244D01*
X0168189Y0406988D02*
X0173937D01*
X0164882Y0406905D02*
X0168189D01*
X0159134Y0406988D02*
X0164882D01*
X0155827Y0408178D02*
X0159134D01*
Y0406905D02*
Y0414075D01*
X0155827Y0409570D02*
X0159134D01*
X0155827Y0406905D02*
X0155827Y0414075D01*
X0160433Y0391231D02*
X0172638Y0391231D01*
Y0385335D02*
Y0392504D01*
X0160433Y0385335D02*
Y0392504D01*
X0164882Y0408178D02*
X0168189D01*
Y0406905D02*
Y0414075D01*
X0164882Y0409570D02*
X0168189D01*
X0164882Y0406905D02*
Y0414075D01*
X0173937Y0408178D02*
X0177244D01*
X0173937Y0409570D02*
X0177244D01*
X0173937Y0414075D02*
X0173937Y0406905D01*
X0177244D02*
Y0414075D01*
X0160433Y0389839D02*
X0172638Y0389839D01*
X0155827Y0411760D02*
X0159134Y0411760D01*
X0173937Y0411760D02*
X0177244Y0411760D01*
X0160433Y0387649D02*
X0172638Y0387649D01*
X0164882Y0411760D02*
X0168189Y0411760D01*
X0155827Y0412249D02*
X0159134D01*
X0160433Y0387161D02*
X0172638D01*
X0173937Y0412249D02*
X0177244D01*
X0164882Y0412249D02*
X0168189D01*
X0155827Y0414075D02*
X0159134D01*
X0160433Y0385335D02*
X0172638Y0385335D01*
X0173937Y0414075D02*
X0177244D01*
X0164882D02*
X0168189D01*
X0391161Y0406693D02*
X0394468D01*
X0400217D02*
X0403524D01*
X0386713Y0377953D02*
X0398917D01*
X0382106Y0406693D02*
X0385413D01*
X0391161Y0404867D02*
X0394468D01*
X0400216Y0404867D02*
X0403524D01*
X0386713Y0379779D02*
X0398917D01*
X0382106Y0404867D02*
X0385413D01*
X0391161Y0404379D02*
X0394468D01*
X0386713Y0380267D02*
X0398917D01*
X0400216Y0404379D02*
X0403524D01*
X0382106D02*
X0385413D01*
X0386713Y0382457D02*
X0398917D01*
X0403524Y0399523D02*
Y0406693D01*
X0400216Y0399523D02*
X0400217Y0406693D01*
X0400216Y0402188D02*
X0403524D01*
X0400216Y0400796D02*
X0403524D01*
X0391161Y0399523D02*
Y0406693D01*
Y0402188D02*
X0394468D01*
X0394468Y0406693D02*
X0394468Y0399523D01*
X0391161Y0400796D02*
X0394468Y0400796D01*
X0386713Y0377953D02*
Y0385122D01*
X0398917Y0377953D02*
Y0385122D01*
X0386713Y0383849D02*
X0398917D01*
X0382106Y0399523D02*
Y0406693D01*
Y0402188D02*
X0385413D01*
Y0399523D02*
Y0406693D01*
X0382106Y0400796D02*
X0385413D01*
Y0399606D02*
X0391161D01*
Y0399523D02*
X0394468D01*
Y0399606D02*
X0400216D01*
Y0399523D02*
X0403524D01*
Y0399606D02*
X0406004D01*
X0379626D02*
X0382106D01*
Y0399523D02*
X0385413D01*
X0379626Y0399606D02*
X0380096Y0399136D01*
X0379626Y0385039D02*
Y0399606D01*
X0405534Y0399136D02*
X0406004Y0399606D01*
Y0385039D02*
Y0399606D01*
X0386713Y0385122D02*
X0398917D01*
X0379626Y0385039D02*
X0386713D01*
X0379626D02*
X0380096Y0385510D01*
X0405534D02*
X0406004Y0385039D01*
X0398917D02*
X0406004D01*
X0405534Y0385510D02*
Y0399136D01*
X0380096Y0385510D02*
X0405534D01*
X0380096D02*
Y0399136D01*
X0405534D01*
X0300098Y0511713D02*
X0301673Y0511713D01*
X0300098Y0522736D02*
X0301673Y0522736D01*
X0307579Y0511713D02*
X0309154Y0511713D01*
X0303838Y0522736D02*
X0305413Y0522736D01*
X0307579D02*
X0309154D01*
X0300098Y0521914D02*
X0301673Y0521914D01*
X0300098Y0512535D02*
X0301673Y0512535D01*
X0303838Y0521914D02*
X0305413Y0521914D01*
X0307579Y0512535D02*
X0309154Y0512535D01*
X0307579Y0521914D02*
X0309154Y0521914D01*
X0300098Y0512894D02*
X0301673Y0512894D01*
X0300098Y0521555D02*
X0301673Y0521555D01*
X0303838Y0521555D02*
X0305413Y0521555D01*
X0307579Y0512894D02*
X0309154D01*
X0307579Y0521555D02*
X0309154Y0521555D01*
X0300098Y0521530D02*
X0301673D01*
X0300098Y0512919D02*
X0301673Y0512919D01*
X0301673Y0511713D02*
X0301673Y0514075D01*
X0300098Y0513903D02*
X0301673Y0513903D01*
X0300098Y0511713D02*
X0300098Y0514075D01*
X0303839Y0521530D02*
X0305413D01*
X0300098Y0520374D02*
Y0522736D01*
X0300098Y0520546D02*
X0301673D01*
Y0520374D02*
Y0522736D01*
X0303838Y0520374D02*
X0303838Y0522736D01*
Y0520546D02*
X0305413Y0520546D01*
X0305413Y0522736D02*
X0305413Y0520374D01*
X0307579Y0521530D02*
X0309154Y0521530D01*
X0307579Y0520374D02*
Y0522736D01*
Y0520546D02*
X0309154D01*
Y0520374D02*
Y0522736D01*
X0307579Y0512919D02*
X0309154Y0512919D01*
Y0514075D02*
X0309154Y0511713D01*
X0307579Y0513903D02*
X0309154Y0513903D01*
X0307579Y0511713D02*
Y0514075D01*
X0298917Y0520374D02*
X0310335Y0520374D01*
X0310016Y0520056D02*
X0310335Y0520374D01*
X0310335Y0514075D01*
X0310016Y0514393D02*
X0310335Y0514075D01*
X0298917D02*
X0310335D01*
X0298917Y0520374D02*
X0299235Y0520056D01*
X0298917Y0514075D02*
X0299235Y0514393D01*
X0298917Y0514075D02*
Y0520374D01*
X0310016Y0514393D02*
Y0520056D01*
X0299235Y0514393D02*
X0310016D01*
X0299235Y0520056D02*
X0299235Y0514393D01*
X0299235Y0520056D02*
X0310016Y0520056D01*
X0158246Y0344018D02*
X0183683D01*
X0158246Y0330392D02*
Y0344018D01*
Y0330392D02*
X0183683D01*
Y0344018D01*
X0177067Y0329921D02*
X0184153D01*
X0183683Y0330392D02*
X0184153Y0329921D01*
X0157776D02*
X0158246Y0330392D01*
X0157776Y0329921D02*
X0164862D01*
Y0330004D02*
X0177067D01*
X0184153Y0329921D02*
Y0344488D01*
X0183683Y0344018D02*
X0184153Y0344488D01*
X0157776Y0329921D02*
Y0344488D01*
X0158246Y0344018D01*
X0160256Y0344405D02*
X0163563D01*
X0157776Y0344488D02*
X0160256D01*
X0181673D02*
X0184153D01*
X0178366Y0344405D02*
X0181673D01*
X0172618Y0344488D02*
X0178366D01*
X0169311Y0344405D02*
X0172618D01*
X0163563Y0344488D02*
X0169311D01*
X0160256Y0345678D02*
X0163563D01*
Y0344405D02*
Y0351575D01*
X0160256Y0347070D02*
X0163563D01*
X0160256Y0344405D02*
Y0351575D01*
X0164862Y0328731D02*
X0177067D01*
Y0322835D02*
Y0330004D01*
X0164862Y0322835D02*
Y0330004D01*
X0169311Y0345678D02*
X0172618Y0345678D01*
Y0351575D02*
X0172618Y0344405D01*
X0169311Y0347070D02*
X0172618D01*
X0169311Y0344405D02*
Y0351575D01*
X0178366Y0345678D02*
X0181673D01*
X0178366Y0347070D02*
X0181673D01*
X0178366Y0344405D02*
X0178366Y0351575D01*
X0181673Y0344405D02*
Y0351575D01*
X0164862Y0327339D02*
X0177067D01*
X0160256Y0349260D02*
X0163563D01*
X0178366D02*
X0181673D01*
X0164862Y0325149D02*
X0177067D01*
X0169311Y0349260D02*
X0172618D01*
X0160256Y0349748D02*
X0163563D01*
X0164862Y0324661D02*
X0177067D01*
X0178366Y0349748D02*
X0181673D01*
X0169311Y0349748D02*
X0172618D01*
X0160256Y0351575D02*
X0163563D01*
X0164862Y0322835D02*
X0177067D01*
X0178366Y0351575D02*
X0181673D01*
X0169311D02*
X0172618D01*
X0299016Y0297677D02*
X0304724D01*
X0299016Y0296496D02*
X0304724D01*
X0299016D02*
Y0297677D01*
X0304724Y0296496D02*
Y0297677D01*
X0299016Y0290197D02*
X0299016Y0289016D01*
X0304724D02*
X0304724Y0290197D01*
X0299016Y0289016D02*
X0304724D01*
X0299016Y0290197D02*
X0304724D01*
X0299095Y0290197D02*
Y0296496D01*
X0304646Y0290197D02*
Y0296496D01*
X0307087Y0293032D02*
X0309055D01*
X0307087Y0287717D02*
Y0293032D01*
X0309055Y0287717D02*
Y0293032D01*
X0307087Y0287717D02*
X0309055D01*
X0313779Y0293032D02*
X0315748D01*
X0313779Y0287717D02*
Y0293032D01*
Y0287717D02*
X0315748D01*
Y0293032D01*
X0309055Y0287720D02*
X0313779D01*
X0309055Y0287722D02*
X0313779Y0287720D01*
X0309055Y0293028D02*
X0313779Y0293026D01*
X0309055Y0293028D02*
X0313779Y0293026D01*
X0281814Y0309820D02*
X0292595D01*
X0281814Y0304157D02*
Y0309820D01*
Y0304157D02*
X0292595D01*
Y0309820D01*
Y0304157D02*
X0292913Y0303839D01*
Y0310138D01*
X0292595Y0309820D02*
X0292913Y0310138D01*
X0281496Y0303839D02*
Y0310138D01*
Y0303839D02*
X0281814Y0304157D01*
X0281496Y0310138D02*
X0281814Y0309820D01*
X0281496Y0310138D02*
X0292913D01*
X0281496Y0303839D02*
X0292913D01*
X0291732Y0310138D02*
Y0312500D01*
X0290158Y0310310D02*
X0291732D01*
X0290158Y0310138D02*
Y0312500D01*
Y0301476D02*
Y0303839D01*
Y0303667D02*
X0291732D01*
Y0301476D02*
Y0303839D01*
X0290158Y0302683D02*
X0291732D01*
X0290158Y0311294D02*
X0291732D01*
X0286417Y0303839D02*
X0286417Y0301476D01*
X0286417Y0303667D02*
X0287992D01*
X0287992Y0301476D02*
X0287992Y0303839D01*
X0286417Y0302683D02*
X0287992D01*
Y0312500D02*
X0287992Y0310138D01*
X0286417Y0310310D02*
X0287992D01*
X0286417Y0310138D02*
X0286417Y0312500D01*
X0284252Y0310138D02*
Y0312500D01*
X0282677Y0310310D02*
X0284252D01*
X0282677Y0310138D02*
Y0312500D01*
Y0302683D02*
X0284252D01*
X0282677Y0303667D02*
X0284252D01*
X0282677Y0301476D02*
Y0303839D01*
X0284252Y0301476D02*
Y0303839D01*
X0286417Y0311294D02*
X0287992D01*
X0282677D02*
X0284252D01*
X0290158Y0311319D02*
X0291732D01*
X0290158Y0302658D02*
X0291732D01*
X0286417Y0311319D02*
X0287992D01*
X0286417Y0302658D02*
X0287992D01*
X0282677D02*
X0284252D01*
X0282677Y0311319D02*
X0284252D01*
X0290158Y0311678D02*
X0291732D01*
X0290158Y0302298D02*
X0291732D01*
X0286417Y0311678D02*
X0287992D01*
X0286417Y0302298D02*
X0287992D01*
X0282677D02*
X0284252D01*
X0282677Y0311678D02*
X0284252D01*
X0290158Y0312500D02*
X0291732D01*
X0286417D02*
X0287992D01*
X0290158Y0301476D02*
X0291732D01*
X0282677Y0312500D02*
X0284252D01*
X0286417Y0301476D02*
X0287992D01*
X0282677D02*
X0284252D01*
X0285732Y0289862D02*
X0285734Y0294587D01*
X0285732Y0289862D02*
X0285734Y0294587D01*
X0291037Y0289862D02*
X0291039Y0294587D01*
Y0289862D02*
Y0294587D01*
X0285728Y0296555D02*
X0291043D01*
Y0294587D02*
Y0296555D01*
X0285728Y0294587D02*
X0291043D01*
X0285728D02*
Y0296555D01*
X0291043Y0287894D02*
Y0289862D01*
X0285728D02*
X0291043D01*
X0285728Y0287894D02*
X0291043D01*
X0285728D02*
Y0289862D01*
X0278941D02*
X0278943Y0294587D01*
X0278941Y0289862D02*
X0278943Y0294587D01*
X0284246Y0289862D02*
X0284248Y0294587D01*
Y0289862D02*
Y0294587D01*
X0278937Y0296555D02*
X0284252D01*
Y0294587D02*
Y0296555D01*
X0278937Y0294587D02*
X0284252D01*
X0278937D02*
Y0296555D01*
X0284252Y0287894D02*
Y0289862D01*
X0278937D02*
X0284252D01*
X0278937Y0287894D02*
X0284252D01*
X0278937D02*
Y0289862D01*
X0204058Y0309524D02*
X0214839D01*
X0204058Y0303861D02*
Y0309524D01*
Y0303861D02*
X0214839D01*
Y0309524D01*
Y0303861D02*
X0215158Y0303543D01*
Y0309842D01*
X0214839Y0309524D02*
X0215158Y0309842D01*
X0203740Y0303543D02*
Y0309842D01*
Y0303543D02*
X0204058Y0303861D01*
X0203740Y0309842D02*
X0204058Y0309524D01*
X0203740Y0309842D02*
X0215158D01*
X0203740Y0303543D02*
X0215158D01*
X0213976Y0309842D02*
Y0312205D01*
X0212402Y0310014D02*
X0213976D01*
X0212402Y0309842D02*
Y0312205D01*
Y0301181D02*
Y0303543D01*
Y0303371D02*
X0213976D01*
Y0301181D02*
Y0303543D01*
X0212402Y0302387D02*
X0213976D01*
X0212402Y0310999D02*
X0213976D01*
X0208661Y0303543D02*
X0208661Y0301181D01*
X0208661Y0303371D02*
X0210236D01*
X0210236Y0301181D02*
X0210236Y0303543D01*
X0208661Y0302387D02*
X0210236D01*
Y0312205D02*
X0210236Y0309842D01*
X0208661Y0310014D02*
X0210236D01*
X0208661Y0309842D02*
X0208661Y0312205D01*
X0206496Y0309842D02*
Y0312205D01*
X0204921Y0310014D02*
X0206496D01*
X0204921Y0309842D02*
Y0312205D01*
Y0302387D02*
X0206496D01*
X0204921Y0303371D02*
X0206496D01*
X0204921Y0301181D02*
Y0303543D01*
X0206496Y0301181D02*
Y0303543D01*
X0208661Y0310999D02*
X0210236D01*
X0204921D02*
X0206496D01*
X0212402Y0311023D02*
X0213976D01*
X0212402Y0302362D02*
X0213976D01*
X0208661Y0311023D02*
X0210236D01*
X0208661Y0302362D02*
X0210236D01*
X0204921D02*
X0206496D01*
X0204921Y0311023D02*
X0206496D01*
X0212402Y0311383D02*
X0213976D01*
X0212402Y0302003D02*
X0213976D01*
X0208661Y0311383D02*
X0210236D01*
X0208661Y0302003D02*
X0210236D01*
X0204921D02*
X0206496D01*
X0204921Y0311383D02*
X0206496D01*
X0212402Y0312205D02*
X0213976D01*
X0208661D02*
X0210236D01*
X0212402Y0301181D02*
X0213976D01*
X0204921Y0312205D02*
X0206496D01*
X0208661Y0301181D02*
X0210236D01*
X0204921D02*
X0206496D01*
X0210339Y0289370D02*
X0210340Y0294094D01*
X0210339Y0289370D02*
X0210340Y0294094D01*
X0215644Y0289370D02*
X0215646Y0294094D01*
Y0289370D02*
Y0294094D01*
X0210335Y0296063D02*
X0215650D01*
Y0294094D02*
Y0296063D01*
X0210335Y0294094D02*
X0215650D01*
X0210335D02*
Y0296063D01*
X0215650Y0287402D02*
Y0289370D01*
X0210335D02*
X0215650D01*
X0210335Y0287402D02*
X0215650D01*
X0210335D02*
Y0289370D01*
X0203646D02*
X0203648Y0294094D01*
X0203646Y0289370D02*
X0203648Y0294094D01*
X0208951Y0289370D02*
X0208953Y0294094D01*
Y0289370D02*
Y0294094D01*
X0203642Y0296063D02*
X0208957D01*
Y0294094D02*
Y0296063D01*
X0203642Y0294094D02*
X0208957D01*
X0203642D02*
Y0296063D01*
X0208957Y0287402D02*
Y0289370D01*
X0203642D02*
X0208957D01*
X0203642Y0287402D02*
X0208957D01*
X0203642D02*
Y0289370D01*
X0162205Y0367421D02*
Y0368996D01*
X0172441Y0367421D02*
Y0368996D01*
X0162770Y0367421D02*
Y0368996D01*
X0171876Y0367421D02*
Y0368996D01*
X0170783Y0367421D02*
X0172441Y0367421D01*
X0170783Y0368996D02*
X0172441Y0368996D01*
X0171693Y0367421D02*
Y0368996D01*
X0170905Y0367421D02*
Y0368996D01*
X0162953Y0367421D02*
Y0368996D01*
X0162205Y0367421D02*
X0163863Y0367421D01*
X0162205Y0368996D02*
X0163863Y0368996D01*
X0163740Y0367421D02*
Y0368996D01*
X0164022Y0365794D02*
Y0370623D01*
X0163779Y0365551D02*
Y0367421D01*
X0163863D02*
Y0368996D01*
X0163779D02*
Y0370866D01*
X0164022Y0370623D02*
X0166142D01*
X0163779Y0370866D02*
X0164022Y0370623D01*
X0163779Y0370866D02*
X0170866D01*
X0163779Y0365551D02*
X0170866D01*
X0163779D02*
X0164022Y0365794D01*
X0166142D01*
Y0370623D01*
Y0365794D02*
X0170623Y0365795D01*
X0166142Y0370623D02*
X0170623Y0370623D01*
X0170866Y0365551D02*
Y0367421D01*
X0170623Y0365795D02*
X0170866Y0365551D01*
X0170623Y0365795D02*
Y0370623D01*
X0170866Y0370866D01*
Y0368996D02*
Y0370866D01*
X0170783Y0367421D02*
Y0368996D01*
X0126087Y0302461D02*
X0126089Y0307185D01*
X0126087Y0302461D02*
X0126089Y0307185D01*
X0131392Y0302461D02*
X0131394Y0307185D01*
Y0302461D02*
Y0307185D01*
X0126083Y0309154D02*
X0131398D01*
Y0307185D02*
Y0309154D01*
X0126083Y0307185D02*
X0131398D01*
X0126083D02*
Y0309154D01*
X0131398Y0300492D02*
Y0302461D01*
X0126083D02*
X0131398D01*
X0126083Y0300492D02*
X0131398D01*
X0126083D02*
Y0302461D01*
X0132799Y0309820D02*
X0143579D01*
X0132799Y0304157D02*
Y0309820D01*
Y0304157D02*
X0143579D01*
Y0309820D01*
Y0304157D02*
X0143898Y0303839D01*
Y0310138D01*
X0143579Y0309820D02*
X0143898Y0310138D01*
X0132480Y0303839D02*
Y0310138D01*
Y0303839D02*
X0132799Y0304157D01*
X0132480Y0310138D02*
X0132799Y0309820D01*
X0132480Y0310138D02*
X0143898D01*
X0132480Y0303839D02*
X0143898D01*
X0142717Y0310138D02*
Y0312500D01*
X0141142Y0310310D02*
X0142717D01*
X0141142Y0310138D02*
Y0312500D01*
Y0301476D02*
Y0303839D01*
Y0303667D02*
X0142717D01*
Y0301476D02*
Y0303839D01*
X0141142Y0302683D02*
X0142717D01*
X0141142Y0311294D02*
X0142717D01*
X0137402Y0303839D02*
X0137402Y0301476D01*
X0137402Y0303667D02*
X0138976D01*
X0138976Y0301476D02*
X0138976Y0303839D01*
X0137402Y0302683D02*
X0138976D01*
Y0312500D02*
X0138976Y0310138D01*
X0137402Y0310310D02*
X0138976D01*
X0137402Y0310138D02*
X0137402Y0312500D01*
X0135236Y0310138D02*
Y0312500D01*
X0133661Y0310310D02*
X0135236D01*
X0133661Y0310138D02*
Y0312500D01*
Y0302683D02*
X0135236D01*
X0133661Y0303667D02*
X0135236D01*
X0133661Y0301476D02*
Y0303839D01*
X0135236Y0301476D02*
Y0303839D01*
X0137402Y0311294D02*
X0138976D01*
X0133661D02*
X0135236D01*
X0141142Y0311319D02*
X0142717D01*
X0141142Y0302658D02*
X0142717D01*
X0137402Y0311319D02*
X0138976D01*
X0137402Y0302658D02*
X0138976D01*
X0133661D02*
X0135236D01*
X0133661Y0311319D02*
X0135236D01*
X0141142Y0311678D02*
X0142717D01*
X0141142Y0302298D02*
X0142717D01*
X0137402Y0311678D02*
X0138976D01*
X0137402Y0302298D02*
X0138976D01*
X0133661D02*
X0135236D01*
X0133661Y0311678D02*
X0135236D01*
X0141142Y0312500D02*
X0142717D01*
X0137402D02*
X0138976D01*
X0141142Y0301476D02*
X0142717D01*
X0133661Y0312500D02*
X0135236D01*
X0137402Y0301476D02*
X0138976D01*
X0133661D02*
X0135236D01*
X0398305Y0332404D02*
X0423742D01*
X0398305Y0318777D02*
Y0332404D01*
Y0318777D02*
X0423742D01*
Y0332404D01*
X0417126Y0318307D02*
X0424213D01*
X0423742Y0318777D02*
X0424213Y0318307D01*
X0397835Y0318307D02*
X0398305Y0318777D01*
X0397835Y0318307D02*
X0404921D01*
Y0318390D02*
X0417126Y0318390D01*
X0424213Y0318307D02*
Y0332874D01*
X0423742Y0332404D02*
X0424213Y0332874D01*
X0397835Y0318307D02*
Y0332874D01*
X0398305Y0332404D01*
X0400315Y0332791D02*
X0403622D01*
X0397835Y0332874D02*
X0400315D01*
X0421732D02*
X0424213D01*
X0418425Y0332791D02*
X0421732D01*
X0412677Y0332874D02*
X0418425D01*
X0409370Y0332791D02*
X0412677D01*
X0403622Y0332874D02*
X0409370D01*
X0400315Y0334064D02*
X0403622Y0334064D01*
Y0332791D02*
X0403622Y0339961D01*
X0400315Y0335456D02*
X0403622Y0335456D01*
X0400315Y0332791D02*
X0400315Y0339961D01*
X0404921Y0317117D02*
X0417126Y0317117D01*
Y0311221D02*
Y0318390D01*
X0404921Y0311221D02*
Y0318390D01*
X0409370Y0334064D02*
X0412677Y0334064D01*
Y0332791D02*
Y0339961D01*
X0409370Y0335456D02*
X0412677D01*
X0409370Y0332791D02*
Y0339961D01*
X0418425Y0334064D02*
X0421732Y0334064D01*
X0418425Y0335456D02*
X0421732Y0335456D01*
X0418425Y0339961D02*
X0418425Y0332791D01*
X0421732D02*
X0421732Y0339961D01*
X0404921Y0315725D02*
X0417126D01*
X0400315Y0337646D02*
X0403622Y0337646D01*
X0418425Y0337646D02*
X0421732Y0337646D01*
X0404921Y0313535D02*
X0417126Y0313535D01*
X0409370Y0337646D02*
X0412677Y0337646D01*
X0400315Y0338134D02*
X0403622D01*
X0404921Y0313047D02*
X0417126Y0313047D01*
X0418425Y0338134D02*
X0421732D01*
X0409370Y0338134D02*
X0412677D01*
X0400315Y0339961D02*
X0403622D01*
X0404921Y0311221D02*
X0417126Y0311221D01*
X0418425Y0339961D02*
X0421732D01*
X0409370Y0339961D02*
X0412677Y0339961D01*
X0403559Y0358169D02*
Y0359744D01*
X0403642D02*
Y0361614D01*
X0403398Y0361371D02*
X0403642Y0361614D01*
X0403398Y0356543D02*
Y0361371D01*
Y0356543D02*
X0403642Y0356299D01*
Y0358169D01*
X0398917Y0361371D02*
X0403398Y0361371D01*
X0398917Y0356542D02*
X0403398Y0356543D01*
X0398917Y0356542D02*
Y0361371D01*
X0396798Y0356542D02*
X0398917D01*
X0396555Y0356299D02*
X0396798Y0356542D01*
X0396555Y0356299D02*
X0403642D01*
X0396555Y0361614D02*
X0403642D01*
X0396555D02*
X0396798Y0361371D01*
X0398917D01*
X0396555Y0359744D02*
Y0361614D01*
X0396638Y0358169D02*
Y0359744D01*
X0396555Y0356299D02*
Y0358169D01*
X0396798Y0356542D02*
Y0361371D01*
X0396516Y0358169D02*
Y0359744D01*
X0394980Y0359744D02*
X0396638Y0359744D01*
X0394980Y0358169D02*
X0396638Y0358169D01*
X0395728D02*
Y0359744D01*
X0403681Y0358169D02*
Y0359744D01*
X0404468Y0358169D02*
Y0359744D01*
X0403559D02*
X0405217Y0359744D01*
X0403559Y0358169D02*
X0405217Y0358169D01*
X0404652Y0358169D02*
Y0359744D01*
X0395545Y0358169D02*
Y0359744D01*
X0405217Y0358169D02*
Y0359744D01*
X0394980Y0358169D02*
Y0359744D01*
X0350102Y0289961D02*
X0350104Y0294685D01*
X0350102Y0289961D02*
X0350104Y0294685D01*
X0355408Y0289961D02*
X0355410Y0294685D01*
Y0289961D02*
Y0294685D01*
X0350098Y0296654D02*
X0355413D01*
Y0294685D02*
Y0296654D01*
X0350098Y0294685D02*
X0355413D01*
X0350098D02*
Y0296654D01*
X0355413Y0287992D02*
Y0289961D01*
X0350098D02*
X0355413D01*
X0350098Y0287992D02*
X0355413D01*
X0350098D02*
Y0289961D01*
X0343012Y0296654D02*
X0348721D01*
X0343012Y0295472D02*
X0348721D01*
X0343012D02*
Y0296654D01*
X0348721Y0295472D02*
Y0296654D01*
X0343012Y0287992D02*
Y0289173D01*
X0348721Y0287992D02*
Y0289173D01*
X0343012Y0287992D02*
X0348721D01*
X0343012Y0289173D02*
X0348721D01*
X0343091D02*
Y0295472D01*
X0348642Y0289173D02*
Y0295472D01*
X0356795Y0289961D02*
X0356797Y0294685D01*
X0356795Y0289961D02*
X0356797Y0294685D01*
X0362100Y0289961D02*
X0362102Y0294685D01*
Y0289961D02*
Y0294685D01*
X0356791Y0296654D02*
X0362106D01*
Y0294685D02*
Y0296654D01*
X0356791Y0294685D02*
X0362106D01*
X0356791D02*
Y0296654D01*
X0362106Y0287992D02*
Y0289961D01*
X0356791D02*
X0362106D01*
X0356791Y0287992D02*
X0362106D01*
X0356791D02*
Y0289961D01*
X0373917Y0287657D02*
Y0293366D01*
X0372736Y0287657D02*
Y0293366D01*
X0373917Y0293366D01*
X0372736Y0287657D02*
X0373917Y0287657D01*
X0365256Y0293366D02*
X0366437Y0293366D01*
X0365256Y0287657D02*
X0366437Y0287657D01*
X0365256Y0287657D02*
Y0293366D01*
X0366437Y0287657D02*
Y0293366D01*
Y0293287D02*
X0372736D01*
X0366437Y0287736D02*
X0372736D01*
X0343508Y0302264D02*
X0343510Y0306988D01*
X0343508Y0302264D02*
X0343510Y0306988D01*
X0348813Y0302264D02*
X0348815Y0306988D01*
Y0302264D02*
Y0306988D01*
X0343504Y0308957D02*
X0348819D01*
Y0306988D02*
Y0308957D01*
X0343504Y0306988D02*
X0348819D01*
X0343504D02*
Y0308957D01*
X0348819Y0300295D02*
Y0302264D01*
X0343504D02*
X0348819D01*
X0343504Y0300295D02*
X0348819D01*
X0343504D02*
Y0302264D01*
X0351499Y0308835D02*
X0362280D01*
X0351499Y0303172D02*
Y0308835D01*
Y0303172D02*
X0362280D01*
Y0308835D01*
Y0303172D02*
X0362598Y0302854D01*
Y0309154D01*
X0362280Y0308835D02*
X0362598Y0309154D01*
X0351181Y0302854D02*
Y0309154D01*
Y0302854D02*
X0351499Y0303172D01*
X0351181Y0309154D02*
X0351499Y0308835D01*
X0351181Y0309154D02*
X0362598D01*
X0351181Y0302854D02*
X0362598D01*
X0361417Y0309154D02*
Y0311516D01*
X0359842Y0309326D02*
X0361417D01*
X0359842Y0309154D02*
Y0311516D01*
Y0300492D02*
Y0302854D01*
Y0302682D02*
X0361417D01*
Y0300492D02*
Y0302854D01*
X0359842Y0301698D02*
X0361417D01*
X0359842Y0310310D02*
X0361417D01*
X0356102Y0302854D02*
X0356102Y0300492D01*
X0356102Y0302682D02*
X0357677D01*
X0357677Y0300492D02*
X0357677Y0302854D01*
X0356102Y0301698D02*
X0357677D01*
Y0311516D02*
X0357677Y0309154D01*
X0356102Y0309326D02*
X0357677D01*
X0356102Y0309154D02*
X0356102Y0311516D01*
X0353937Y0309154D02*
Y0311516D01*
X0352362Y0309326D02*
X0353937D01*
X0352362Y0309154D02*
Y0311516D01*
Y0301698D02*
X0353937D01*
X0352362Y0302682D02*
X0353937D01*
X0352362Y0300492D02*
Y0302854D01*
X0353937Y0300492D02*
Y0302854D01*
X0356102Y0310310D02*
X0357677D01*
X0352362D02*
X0353937D01*
X0359842Y0310335D02*
X0361417D01*
X0359842Y0301673D02*
X0361417D01*
X0356102Y0310335D02*
X0357677D01*
X0356102Y0301673D02*
X0357677D01*
X0352362D02*
X0353937D01*
X0352362Y0310335D02*
X0353937D01*
X0359842Y0310694D02*
X0361417D01*
X0359842Y0301314D02*
X0361417D01*
X0356102Y0310694D02*
X0357677D01*
X0356102Y0301314D02*
X0357677D01*
X0352362D02*
X0353937D01*
X0352362Y0310694D02*
X0353937D01*
X0359842Y0311516D02*
X0361417D01*
X0356102D02*
X0357677D01*
X0359842Y0300492D02*
X0361417D01*
X0352362Y0311516D02*
X0353937D01*
X0356102Y0300492D02*
X0357677D01*
X0352362D02*
X0353937D01*
D437*
X0684035Y0272756D02*
G03*
X0684035Y0272756I-0002500J0000000D01*
G01*
X0709882Y0272992D02*
G03*
X0709882Y0272992I-0002500J0000000D01*
G01*
X0314213Y0227362D02*
G03*
X0314213Y0227362I-0002500J0000000D01*
G01*
X0553780Y0504921D02*
G03*
X0553780Y0504921I-0002500J0000000D01*
G01*
X0192756Y0313189D02*
G03*
X0192756Y0313189I-0002500J0000000D01*
G01*
X0563504Y0289291D02*
G03*
X0563504Y0289291I-0002500J0000000D01*
G01*
X0587598Y0228937D02*
G03*
X0587598Y0228937I-0002500J0000000D01*
G01*
X0587441Y0317913D02*
G03*
X0587441Y0317913I-0002500J0000000D01*
G01*
X0508701Y0459154D02*
G03*
X0508701Y0459154I-0002500J0000000D01*
G01*
X0521693Y0469783D02*
G03*
X0521693Y0469783I-0002500J0000000D01*
G01*
X0583307Y0347539D02*
G03*
X0583307Y0347539I-0002500J0000000D01*
G01*
X0331240Y0406004D02*
G03*
X0331240Y0406004I-0002500J0000000D01*
G01*
X0339409Y0437303D02*
G03*
X0339409Y0437303I-0002500J0000000D01*
G01*
X0266181Y0278248D02*
G03*
X0266181Y0278248I-0002500J0000000D01*
G01*
X0235177Y0307087D02*
G03*
X0235177Y0307087I-0002500J0000000D01*
G01*
X0265984Y0293209D02*
G03*
X0265984Y0293209I-0002500J0000000D01*
G01*
X0339016Y0392421D02*
G03*
X0339016Y0392421I-0002500J0000000D01*
G01*
X0313524Y0416437D02*
G03*
X0313524Y0416437I-0002500J0000000D01*
G01*
X0321890D02*
G03*
X0321890Y0416437I-0002500J0000000D01*
G01*
X0254862Y0421949D02*
G03*
X0254862Y0421949I-0002500J0000000D01*
G01*
X0262933Y0421850D02*
G03*
X0262933Y0421850I-0002500J0000000D01*
G01*
X0301614Y0437303D02*
G03*
X0301614Y0437303I-0002500J0000000D01*
G01*
X0336260Y0312992D02*
G03*
X0336260Y0312992I-0002500J0000000D01*
G01*
X0325925Y0300394D02*
G03*
X0325925Y0300394I-0002500J0000000D01*
G01*
X0236850Y0366043D02*
G03*
X0236850Y0366043I-0002500J0000000D01*
G01*
X0228780Y0359646D02*
G03*
X0228780Y0359646I-0002500J0000000D01*
G01*
X0209587Y0406595D02*
G03*
X0209587Y0406595I-0002500J0000000D01*
G01*
X0417067Y0419193D02*
G03*
X0417067Y0419193I-0002500J0000000D01*
G01*
X0163425Y0433169D02*
G03*
X0163425Y0433169I-0002500J0000000D01*
G01*
X0289902Y0464272D02*
G03*
X0289902Y0464272I-0002500J0000000D01*
G01*
X0316575Y0480610D02*
G03*
X0316575Y0480610I-0002500J0000000D01*
G01*
X0299055Y0480709D02*
G03*
X0299055Y0480709I-0002500J0000000D01*
G01*
X0239902Y0174705D02*
G03*
X0239902Y0174705I-0002500J0000000D01*
G01*
X0334095Y0193012D02*
G03*
X0334095Y0193012I-0002500J0000000D01*
G01*
X0342461Y0205020D02*
G03*
X0342461Y0205020I-0002500J0000000D01*
G01*
X0251220Y0199705D02*
G03*
X0251220Y0199705I-0002500J0000000D01*
G01*
X0341772Y0193012D02*
G03*
X0341772Y0193012I-0002500J0000000D01*
G01*
X0294134Y0131988D02*
G03*
X0294134Y0131988I-0002500J0000000D01*
G01*
X0342756Y0106201D02*
G03*
X0342756Y0106201I-0002500J0000000D01*
G01*
X0404173Y0188779D02*
G03*
X0404173Y0188779I-0002500J0000000D01*
G01*
X0250532Y0191339D02*
G03*
X0250532Y0191339I-0002500J0000000D01*
G01*
X0287244Y0216831D02*
G03*
X0287244Y0216831I-0002500J0000000D01*
G01*
X0310374Y0220276D02*
G03*
X0310374Y0220276I-0002500J0000000D01*
G01*
X0386850Y0203937D02*
G03*
X0386850Y0203937I-0002500J0000000D01*
G01*
X0387047Y0212205D02*
G03*
X0387047Y0212205I-0002500J0000000D01*
G01*
X0284685Y0101181D02*
G03*
X0284685Y0101181I-0002500J0000000D01*
G01*
X0333504Y0118898D02*
G03*
X0333504Y0118898I-0002500J0000000D01*
G01*
X0343937Y0117717D02*
G03*
X0343937Y0117717I-0002500J0000000D01*
G01*
X0258504Y0181201D02*
G03*
X0258504Y0181201I-0002500J0000000D01*
G01*
X0193248Y0305807D02*
G03*
X0193248Y0305807I-0002500J0000000D01*
G01*
X0192657Y0320472D02*
G03*
X0192657Y0320472I-0002500J0000000D01*
G01*
X0112736Y0334646D02*
G03*
X0112736Y0334646I-0002500J0000000D01*
G01*
X0164902Y0311417D02*
G03*
X0164902Y0311417I-0002500J0000000D01*
G01*
X0141102Y0337185D02*
G03*
X0141102Y0337185I-0002500J0000000D01*
G01*
X0143937Y0314665D02*
G03*
X0143937Y0314665I-0002500J0000000D01*
G01*
X0151909Y0314862D02*
G03*
X0151909Y0314862I-0002500J0000000D01*
G01*
X0367559Y0302559D02*
G03*
X0367559Y0302559I-0002500J0000000D01*
G01*
X0405945Y0283071D02*
G03*
X0405945Y0283071I-0002500J0000000D01*
G01*
X0360571Y0302559D02*
G03*
X0360571Y0302559I-0002500J0000000D01*
G01*
X0351279Y0334744D02*
G03*
X0351279Y0334744I-0002500J0000000D01*
G01*
X0413524Y0274606D02*
G03*
X0413524Y0274606I-0002500J0000000D01*
G01*
X0433701Y0304724D02*
G03*
X0433701Y0304724I-0002500J0000000D01*
G01*
X0430059Y0275787D02*
G03*
X0430059Y0275787I-0002500J0000000D01*
G01*
X0349449Y0302854D02*
G03*
X0349449Y0302854I-0002500J0000000D01*
G01*
X0349681Y0169567D02*
X0407681D01*
X0349681Y0159567D02*
X0407681D01*
X0408681Y0160567D01*
X0407681Y0169567D02*
X0408681Y0168567D01*
Y0160567D02*
Y0168567D01*
X0348681Y0160567D02*
X0349681Y0159567D01*
X0348681Y0160567D02*
Y0168567D01*
X0349681Y0169567D01*
X0350555Y0405571D02*
X0351555Y0404571D01*
X0342555Y0405571D02*
X0350555D01*
X0341555Y0404571D02*
X0342555Y0405571D01*
Y0345571D02*
X0350555D01*
X0351555Y0346571D01*
X0341555D02*
X0342555Y0345571D01*
X0341555Y0404571D02*
X0341555Y0346571D01*
X0351555D02*
X0351555Y0404571D01*
D438*
X0591516Y0208708D02*
D03*
D439*
X0138386Y0256965D02*
D03*
M02*
