G04*
G04 #@! TF.GenerationSoftware,Altium Limited,Altium Designer,21.7.2 (23)*
G04*
G04 Layer_Color=16711935*
%FSAX25Y25*%
%MOIN*%
G70*
G04*
G04 #@! TF.SameCoordinates,25756C21-EA0E-48A6-96D4-99705350E32D*
G04*
G04*
G04 #@! TF.FilePolarity,Negative*
G04*
G01*
G75*
G04:AMPARAMS|DCode=59|XSize=40.16mil|YSize=32.28mil|CornerRadius=4.43mil|HoleSize=0mil|Usage=FLASHONLY|Rotation=90.000|XOffset=0mil|YOffset=0mil|HoleType=Round|Shape=RoundedRectangle|*
%AMROUNDEDRECTD59*
21,1,0.04016,0.02343,0,0,90.0*
21,1,0.03130,0.03228,0,0,90.0*
1,1,0.00886,0.01171,0.01565*
1,1,0.00886,0.01171,-0.01565*
1,1,0.00886,-0.01171,-0.01565*
1,1,0.00886,-0.01171,0.01565*
%
%ADD59ROUNDEDRECTD59*%
G04:AMPARAMS|DCode=61|XSize=42.13mil|YSize=36.22mil|CornerRadius=4.72mil|HoleSize=0mil|Usage=FLASHONLY|Rotation=90.000|XOffset=0mil|YOffset=0mil|HoleType=Round|Shape=RoundedRectangle|*
%AMROUNDEDRECTD61*
21,1,0.04213,0.02677,0,0,90.0*
21,1,0.03268,0.03622,0,0,90.0*
1,1,0.00945,0.01339,0.01634*
1,1,0.00945,0.01339,-0.01634*
1,1,0.00945,-0.01339,-0.01634*
1,1,0.00945,-0.01339,0.01634*
%
%ADD61ROUNDEDRECTD61*%
G04:AMPARAMS|DCode=62|XSize=42.13mil|YSize=36.22mil|CornerRadius=4.72mil|HoleSize=0mil|Usage=FLASHONLY|Rotation=0.000|XOffset=0mil|YOffset=0mil|HoleType=Round|Shape=RoundedRectangle|*
%AMROUNDEDRECTD62*
21,1,0.04213,0.02677,0,0,0.0*
21,1,0.03268,0.03622,0,0,0.0*
1,1,0.00945,0.01634,-0.01339*
1,1,0.00945,-0.01634,-0.01339*
1,1,0.00945,-0.01634,0.01339*
1,1,0.00945,0.01634,0.01339*
%
%ADD62ROUNDEDRECTD62*%
G04:AMPARAMS|DCode=65|XSize=42.13mil|YSize=38.19mil|CornerRadius=4.87mil|HoleSize=0mil|Usage=FLASHONLY|Rotation=0.000|XOffset=0mil|YOffset=0mil|HoleType=Round|Shape=RoundedRectangle|*
%AMROUNDEDRECTD65*
21,1,0.04213,0.02845,0,0,0.0*
21,1,0.03238,0.03819,0,0,0.0*
1,1,0.00974,0.01619,-0.01422*
1,1,0.00974,-0.01619,-0.01422*
1,1,0.00974,-0.01619,0.01422*
1,1,0.00974,0.01619,0.01422*
%
%ADD65ROUNDEDRECTD65*%
G04:AMPARAMS|DCode=67|XSize=42.13mil|YSize=42.13mil|CornerRadius=5.17mil|HoleSize=0mil|Usage=FLASHONLY|Rotation=90.000|XOffset=0mil|YOffset=0mil|HoleType=Round|Shape=RoundedRectangle|*
%AMROUNDEDRECTD67*
21,1,0.04213,0.03179,0,0,90.0*
21,1,0.03179,0.04213,0,0,90.0*
1,1,0.01034,0.01590,0.01590*
1,1,0.01034,0.01590,-0.01590*
1,1,0.01034,-0.01590,-0.01590*
1,1,0.01034,-0.01590,0.01590*
%
%ADD67ROUNDEDRECTD67*%
G04:AMPARAMS|DCode=68|XSize=42.13mil|YSize=42.13mil|CornerRadius=5.17mil|HoleSize=0mil|Usage=FLASHONLY|Rotation=180.000|XOffset=0mil|YOffset=0mil|HoleType=Round|Shape=RoundedRectangle|*
%AMROUNDEDRECTD68*
21,1,0.04213,0.03179,0,0,180.0*
21,1,0.03179,0.04213,0,0,180.0*
1,1,0.01034,-0.01590,0.01590*
1,1,0.01034,0.01590,0.01590*
1,1,0.01034,0.01590,-0.01590*
1,1,0.01034,-0.01590,-0.01590*
%
%ADD68ROUNDEDRECTD68*%
G04:AMPARAMS|DCode=69|XSize=61.81mil|YSize=53.94mil|CornerRadius=6.05mil|HoleSize=0mil|Usage=FLASHONLY|Rotation=0.000|XOffset=0mil|YOffset=0mil|HoleType=Round|Shape=RoundedRectangle|*
%AMROUNDEDRECTD69*
21,1,0.06181,0.04183,0,0,0.0*
21,1,0.04970,0.05394,0,0,0.0*
1,1,0.01211,0.02485,-0.02092*
1,1,0.01211,-0.02485,-0.02092*
1,1,0.01211,-0.02485,0.02092*
1,1,0.01211,0.02485,0.02092*
%
%ADD69ROUNDEDRECTD69*%
G04:AMPARAMS|DCode=70|XSize=61.81mil|YSize=53.94mil|CornerRadius=6.05mil|HoleSize=0mil|Usage=FLASHONLY|Rotation=90.000|XOffset=0mil|YOffset=0mil|HoleType=Round|Shape=RoundedRectangle|*
%AMROUNDEDRECTD70*
21,1,0.06181,0.04183,0,0,90.0*
21,1,0.04970,0.05394,0,0,90.0*
1,1,0.01211,0.02092,0.02485*
1,1,0.01211,0.02092,-0.02485*
1,1,0.01211,-0.02092,-0.02485*
1,1,0.01211,-0.02092,0.02485*
%
%ADD70ROUNDEDRECTD70*%
G04:AMPARAMS|DCode=71|XSize=42.13mil|YSize=38.19mil|CornerRadius=4.87mil|HoleSize=0mil|Usage=FLASHONLY|Rotation=270.000|XOffset=0mil|YOffset=0mil|HoleType=Round|Shape=RoundedRectangle|*
%AMROUNDEDRECTD71*
21,1,0.04213,0.02845,0,0,270.0*
21,1,0.03238,0.03819,0,0,270.0*
1,1,0.00974,-0.01422,-0.01619*
1,1,0.00974,-0.01422,0.01619*
1,1,0.00974,0.01422,0.01619*
1,1,0.00974,0.01422,-0.01619*
%
%ADD71ROUNDEDRECTD71*%
G04:AMPARAMS|DCode=72|XSize=30.32mil|YSize=30.32mil|CornerRadius=4.28mil|HoleSize=0mil|Usage=FLASHONLY|Rotation=270.000|XOffset=0mil|YOffset=0mil|HoleType=Round|Shape=RoundedRectangle|*
%AMROUNDEDRECTD72*
21,1,0.03032,0.02175,0,0,270.0*
21,1,0.02175,0.03032,0,0,270.0*
1,1,0.00856,-0.01088,-0.01088*
1,1,0.00856,-0.01088,0.01088*
1,1,0.00856,0.01088,0.01088*
1,1,0.00856,0.01088,-0.01088*
%
%ADD72ROUNDEDRECTD72*%
G04:AMPARAMS|DCode=73|XSize=26.38mil|YSize=28.35mil|CornerRadius=3.99mil|HoleSize=0mil|Usage=FLASHONLY|Rotation=270.000|XOffset=0mil|YOffset=0mil|HoleType=Round|Shape=RoundedRectangle|*
%AMROUNDEDRECTD73*
21,1,0.02638,0.02037,0,0,270.0*
21,1,0.01841,0.02835,0,0,270.0*
1,1,0.00797,-0.01019,-0.00920*
1,1,0.00797,-0.01019,0.00920*
1,1,0.00797,0.01019,0.00920*
1,1,0.00797,0.01019,-0.00920*
%
%ADD73ROUNDEDRECTD73*%
G04:AMPARAMS|DCode=74|XSize=29.13mil|YSize=30.71mil|CornerRadius=4.19mil|HoleSize=0mil|Usage=FLASHONLY|Rotation=90.000|XOffset=0mil|YOffset=0mil|HoleType=Round|Shape=RoundedRectangle|*
%AMROUNDEDRECTD74*
21,1,0.02913,0.02232,0,0,90.0*
21,1,0.02075,0.03071,0,0,90.0*
1,1,0.00839,0.01116,0.01037*
1,1,0.00839,0.01116,-0.01037*
1,1,0.00839,-0.01116,-0.01037*
1,1,0.00839,-0.01116,0.01037*
%
%ADD74ROUNDEDRECTD74*%
G04:AMPARAMS|DCode=76|XSize=42.13mil|YSize=42.13mil|CornerRadius=6.1mil|HoleSize=0mil|Usage=FLASHONLY|Rotation=90.000|XOffset=0mil|YOffset=0mil|HoleType=Round|Shape=RoundedRectangle|*
%AMROUNDEDRECTD76*
21,1,0.04213,0.02992,0,0,90.0*
21,1,0.02992,0.04213,0,0,90.0*
1,1,0.01221,0.01496,0.01496*
1,1,0.01221,0.01496,-0.01496*
1,1,0.01221,-0.01496,-0.01496*
1,1,0.01221,-0.01496,0.01496*
%
%ADD76ROUNDEDRECTD76*%
%ADD78C,0.05472*%
G04:AMPARAMS|DCode=81|XSize=36.22mil|YSize=36.22mil|CornerRadius=5.51mil|HoleSize=0mil|Usage=FLASHONLY|Rotation=0.000|XOffset=0mil|YOffset=0mil|HoleType=Round|Shape=RoundedRectangle|*
%AMROUNDEDRECTD81*
21,1,0.03622,0.02520,0,0,0.0*
21,1,0.02520,0.03622,0,0,0.0*
1,1,0.01102,0.01260,-0.01260*
1,1,0.01102,-0.01260,-0.01260*
1,1,0.01102,-0.01260,0.01260*
1,1,0.01102,0.01260,0.01260*
%
%ADD81ROUNDEDRECTD81*%
G04:AMPARAMS|DCode=82|XSize=75.59mil|YSize=50mil|CornerRadius=6.89mil|HoleSize=0mil|Usage=FLASHONLY|Rotation=180.000|XOffset=0mil|YOffset=0mil|HoleType=Round|Shape=RoundedRectangle|*
%AMROUNDEDRECTD82*
21,1,0.07559,0.03622,0,0,180.0*
21,1,0.06181,0.05000,0,0,180.0*
1,1,0.01378,-0.03091,0.01811*
1,1,0.01378,0.03091,0.01811*
1,1,0.01378,0.03091,-0.01811*
1,1,0.01378,-0.03091,-0.01811*
%
%ADD82ROUNDEDRECTD82*%
G04:AMPARAMS|DCode=84|XSize=44.09mil|YSize=36.22mil|CornerRadius=5.51mil|HoleSize=0mil|Usage=FLASHONLY|Rotation=180.000|XOffset=0mil|YOffset=0mil|HoleType=Round|Shape=RoundedRectangle|*
%AMROUNDEDRECTD84*
21,1,0.04409,0.02520,0,0,180.0*
21,1,0.03307,0.03622,0,0,180.0*
1,1,0.01102,-0.01654,0.01260*
1,1,0.01102,0.01654,0.01260*
1,1,0.01102,0.01654,-0.01260*
1,1,0.01102,-0.01654,-0.01260*
%
%ADD84ROUNDEDRECTD84*%
G04:AMPARAMS|DCode=86|XSize=32.28mil|YSize=38.19mil|CornerRadius=5.12mil|HoleSize=0mil|Usage=FLASHONLY|Rotation=0.000|XOffset=0mil|YOffset=0mil|HoleType=Round|Shape=RoundedRectangle|*
%AMROUNDEDRECTD86*
21,1,0.03228,0.02795,0,0,0.0*
21,1,0.02205,0.03819,0,0,0.0*
1,1,0.01024,0.01102,-0.01398*
1,1,0.01024,-0.01102,-0.01398*
1,1,0.01024,-0.01102,0.01398*
1,1,0.01024,0.01102,0.01398*
%
%ADD86ROUNDEDRECTD86*%
G04:AMPARAMS|DCode=87|XSize=28.35mil|YSize=44.09mil|CornerRadius=5.32mil|HoleSize=0mil|Usage=FLASHONLY|Rotation=270.000|XOffset=0mil|YOffset=0mil|HoleType=Round|Shape=RoundedRectangle|*
%AMROUNDEDRECTD87*
21,1,0.02835,0.03347,0,0,270.0*
21,1,0.01772,0.04409,0,0,270.0*
1,1,0.01063,-0.01673,-0.00886*
1,1,0.01063,-0.01673,0.00886*
1,1,0.01063,0.01673,0.00886*
1,1,0.01063,0.01673,-0.00886*
%
%ADD87ROUNDEDRECTD87*%
G04:AMPARAMS|DCode=88|XSize=32.28mil|YSize=40.16mil|CornerRadius=5.12mil|HoleSize=0mil|Usage=FLASHONLY|Rotation=270.000|XOffset=0mil|YOffset=0mil|HoleType=Round|Shape=RoundedRectangle|*
%AMROUNDEDRECTD88*
21,1,0.03228,0.02992,0,0,270.0*
21,1,0.02205,0.04016,0,0,270.0*
1,1,0.01024,-0.01496,-0.01102*
1,1,0.01024,-0.01496,0.01102*
1,1,0.01024,0.01496,0.01102*
1,1,0.01024,0.01496,-0.01102*
%
%ADD88ROUNDEDRECTD88*%
G04:AMPARAMS|DCode=90|XSize=59.84mil|YSize=44.09mil|CornerRadius=7.28mil|HoleSize=0mil|Usage=FLASHONLY|Rotation=180.000|XOffset=0mil|YOffset=0mil|HoleType=Round|Shape=RoundedRectangle|*
%AMROUNDEDRECTD90*
21,1,0.05984,0.02953,0,0,180.0*
21,1,0.04528,0.04409,0,0,180.0*
1,1,0.01457,-0.02264,0.01476*
1,1,0.01457,0.02264,0.01476*
1,1,0.01457,0.02264,-0.01476*
1,1,0.01457,-0.02264,-0.01476*
%
%ADD90ROUNDEDRECTD90*%
G04:AMPARAMS|DCode=98|XSize=23.62mil|YSize=20.47mil|CornerRadius=3.94mil|HoleSize=0mil|Usage=FLASHONLY|Rotation=270.000|XOffset=0mil|YOffset=0mil|HoleType=Round|Shape=RoundedRectangle|*
%AMROUNDEDRECTD98*
21,1,0.02362,0.01260,0,0,270.0*
21,1,0.01575,0.02047,0,0,270.0*
1,1,0.00787,-0.00630,-0.00787*
1,1,0.00787,-0.00630,0.00787*
1,1,0.00787,0.00630,0.00787*
1,1,0.00787,0.00630,-0.00787*
%
%ADD98ROUNDEDRECTD98*%
%ADD99C,0.08346*%
%ADD100C,0.10315*%
%ADD101C,0.08740*%
%ADD102C,0.08150*%
%ADD103C,0.09134*%
%ADD104C,0.06575*%
%ADD105C,0.24095*%
%ADD106C,0.01929*%
%ADD107R,0.06575X0.06575*%
G04:AMPARAMS|DCode=108|XSize=79.53mil|YSize=79.53mil|CornerRadius=9.84mil|HoleSize=0mil|Usage=FLASHONLY|Rotation=0.000|XOffset=0mil|YOffset=0mil|HoleType=Round|Shape=RoundedRectangle|*
%AMROUNDEDRECTD108*
21,1,0.07953,0.05984,0,0,0.0*
21,1,0.05984,0.07953,0,0,0.0*
1,1,0.01968,0.02992,-0.02992*
1,1,0.01968,-0.02992,-0.02992*
1,1,0.01968,-0.02992,0.02992*
1,1,0.01968,0.02992,0.02992*
%
%ADD108ROUNDEDRECTD108*%
%ADD109C,0.07953*%
%ADD110R,0.04331X0.04331*%
%ADD111C,0.04331*%
G04:AMPARAMS|DCode=112|XSize=103.15mil|YSize=103.15mil|CornerRadius=12.21mil|HoleSize=0mil|Usage=FLASHONLY|Rotation=270.000|XOffset=0mil|YOffset=0mil|HoleType=Round|Shape=RoundedRectangle|*
%AMROUNDEDRECTD112*
21,1,0.10315,0.07874,0,0,270.0*
21,1,0.07874,0.10315,0,0,270.0*
1,1,0.02441,-0.03937,-0.03937*
1,1,0.02441,-0.03937,0.03937*
1,1,0.02441,0.03937,0.03937*
1,1,0.02441,0.03937,-0.03937*
%
%ADD112ROUNDEDRECTD112*%
G04:AMPARAMS|DCode=113|XSize=69.69mil|YSize=69.69mil|CornerRadius=8.86mil|HoleSize=0mil|Usage=FLASHONLY|Rotation=0.000|XOffset=0mil|YOffset=0mil|HoleType=Round|Shape=RoundedRectangle|*
%AMROUNDEDRECTD113*
21,1,0.06969,0.05197,0,0,0.0*
21,1,0.05197,0.06969,0,0,0.0*
1,1,0.01772,0.02598,-0.02598*
1,1,0.01772,-0.02598,-0.02598*
1,1,0.01772,-0.02598,0.02598*
1,1,0.01772,0.02598,0.02598*
%
%ADD113ROUNDEDRECTD113*%
%ADD114C,0.06969*%
%ADD115C,0.06772*%
G04:AMPARAMS|DCode=116|XSize=67.72mil|YSize=67.72mil|CornerRadius=8.66mil|HoleSize=0mil|Usage=FLASHONLY|Rotation=270.000|XOffset=0mil|YOffset=0mil|HoleType=Round|Shape=RoundedRectangle|*
%AMROUNDEDRECTD116*
21,1,0.06772,0.05039,0,0,270.0*
21,1,0.05039,0.06772,0,0,270.0*
1,1,0.01732,-0.02520,-0.02520*
1,1,0.01732,-0.02520,0.02520*
1,1,0.01732,0.02520,0.02520*
1,1,0.01732,0.02520,-0.02520*
%
%ADD116ROUNDEDRECTD116*%
%ADD117C,0.09921*%
%ADD118C,0.02835*%
G04:AMPARAMS|DCode=159|XSize=39.37mil|YSize=13.78mil|CornerRadius=1.03mil|HoleSize=0mil|Usage=FLASHONLY|Rotation=180.000|XOffset=0mil|YOffset=0mil|HoleType=Round|Shape=RoundedRectangle|*
%AMROUNDEDRECTD159*
21,1,0.03937,0.01171,0,0,180.0*
21,1,0.03730,0.01378,0,0,180.0*
1,1,0.00207,-0.01865,0.00586*
1,1,0.00207,0.01865,0.00586*
1,1,0.00207,0.01865,-0.00586*
1,1,0.00207,-0.01865,-0.00586*
%
%ADD159ROUNDEDRECTD159*%
G04:AMPARAMS|DCode=184|XSize=94.49mil|YSize=129.92mil|CornerRadius=9.45mil|HoleSize=0mil|Usage=FLASHONLY|Rotation=325.000|XOffset=0mil|YOffset=0mil|HoleType=Round|Shape=RoundedRectangle|*
%AMROUNDEDRECTD184*
21,1,0.09449,0.11102,0,0,325.0*
21,1,0.07559,0.12992,0,0,325.0*
1,1,0.01890,-0.00088,-0.06715*
1,1,0.01890,-0.06280,-0.02379*
1,1,0.01890,0.00088,0.06715*
1,1,0.01890,0.06280,0.02379*
%
%ADD184ROUNDEDRECTD184*%
%ADD205R,0.03937X0.11811*%
%ADD208R,0.11811X0.03937*%
G04:AMPARAMS|DCode=263|XSize=35.84mil|YSize=17.16mil|CornerRadius=8.58mil|HoleSize=0mil|Usage=FLASHONLY|Rotation=180.000|XOffset=0mil|YOffset=0mil|HoleType=Round|Shape=RoundedRectangle|*
%AMROUNDEDRECTD263*
21,1,0.03584,0.00000,0,0,180.0*
21,1,0.01868,0.01716,0,0,180.0*
1,1,0.01716,-0.00934,0.00000*
1,1,0.01716,0.00934,0.00000*
1,1,0.01716,0.00934,0.00000*
1,1,0.01716,-0.00934,0.00000*
%
%ADD263ROUNDEDRECTD263*%
G04:AMPARAMS|DCode=264|XSize=35.84mil|YSize=17.16mil|CornerRadius=1.72mil|HoleSize=0mil|Usage=FLASHONLY|Rotation=180.000|XOffset=0mil|YOffset=0mil|HoleType=Round|Shape=RoundedRectangle|*
%AMROUNDEDRECTD264*
21,1,0.03584,0.01373,0,0,180.0*
21,1,0.03241,0.01716,0,0,180.0*
1,1,0.00343,-0.01620,0.00686*
1,1,0.00343,0.01620,0.00686*
1,1,0.00343,0.01620,-0.00686*
1,1,0.00343,-0.01620,-0.00686*
%
%ADD264ROUNDEDRECTD264*%
G04:AMPARAMS|DCode=272|XSize=47.65mil|YSize=18.73mil|CornerRadius=9.37mil|HoleSize=0mil|Usage=FLASHONLY|Rotation=90.000|XOffset=0mil|YOffset=0mil|HoleType=Round|Shape=RoundedRectangle|*
%AMROUNDEDRECTD272*
21,1,0.04765,0.00000,0,0,90.0*
21,1,0.02892,0.01873,0,0,90.0*
1,1,0.01873,0.00000,0.01446*
1,1,0.01873,0.00000,-0.01446*
1,1,0.01873,0.00000,-0.01446*
1,1,0.01873,0.00000,0.01446*
%
%ADD272ROUNDEDRECTD272*%
G04:AMPARAMS|DCode=273|XSize=47.65mil|YSize=18.73mil|CornerRadius=1.87mil|HoleSize=0mil|Usage=FLASHONLY|Rotation=90.000|XOffset=0mil|YOffset=0mil|HoleType=Round|Shape=RoundedRectangle|*
%AMROUNDEDRECTD273*
21,1,0.04765,0.01499,0,0,90.0*
21,1,0.04390,0.01873,0,0,90.0*
1,1,0.00375,0.00749,0.02195*
1,1,0.00375,0.00749,-0.02195*
1,1,0.00375,-0.00749,-0.02195*
1,1,0.00375,-0.00749,0.02195*
%
%ADD273ROUNDEDRECTD273*%
G04:AMPARAMS|DCode=274|XSize=41.34mil|YSize=59.06mil|CornerRadius=4.13mil|HoleSize=0mil|Usage=FLASHONLY|Rotation=180.000|XOffset=0mil|YOffset=0mil|HoleType=Round|Shape=RoundedRectangle|*
%AMROUNDEDRECTD274*
21,1,0.04134,0.05079,0,0,180.0*
21,1,0.03307,0.05906,0,0,180.0*
1,1,0.00827,-0.01654,0.02539*
1,1,0.00827,0.01654,0.02539*
1,1,0.00827,0.01654,-0.02539*
1,1,0.00827,-0.01654,-0.02539*
%
%ADD274ROUNDEDRECTD274*%
G04:AMPARAMS|DCode=275|XSize=94.49mil|YSize=59.06mil|CornerRadius=5.91mil|HoleSize=0mil|Usage=FLASHONLY|Rotation=180.000|XOffset=0mil|YOffset=0mil|HoleType=Round|Shape=RoundedRectangle|*
%AMROUNDEDRECTD275*
21,1,0.09449,0.04724,0,0,180.0*
21,1,0.08268,0.05906,0,0,180.0*
1,1,0.01181,-0.04134,0.02362*
1,1,0.01181,0.04134,0.02362*
1,1,0.01181,0.04134,-0.02362*
1,1,0.01181,-0.04134,-0.02362*
%
%ADD275ROUNDEDRECTD275*%
G04:AMPARAMS|DCode=289|XSize=35.84mil|YSize=17.16mil|CornerRadius=1.72mil|HoleSize=0mil|Usage=FLASHONLY|Rotation=270.000|XOffset=0mil|YOffset=0mil|HoleType=Round|Shape=RoundedRectangle|*
%AMROUNDEDRECTD289*
21,1,0.03584,0.01373,0,0,270.0*
21,1,0.03241,0.01716,0,0,270.0*
1,1,0.00343,-0.00686,-0.01620*
1,1,0.00343,-0.00686,0.01620*
1,1,0.00343,0.00686,0.01620*
1,1,0.00343,0.00686,-0.01620*
%
%ADD289ROUNDEDRECTD289*%
G04:AMPARAMS|DCode=290|XSize=35.84mil|YSize=17.16mil|CornerRadius=8.58mil|HoleSize=0mil|Usage=FLASHONLY|Rotation=270.000|XOffset=0mil|YOffset=0mil|HoleType=Round|Shape=RoundedRectangle|*
%AMROUNDEDRECTD290*
21,1,0.03584,0.00000,0,0,270.0*
21,1,0.01868,0.01716,0,0,270.0*
1,1,0.01716,0.00000,-0.00934*
1,1,0.01716,0.00000,0.00934*
1,1,0.01716,0.00000,0.00934*
1,1,0.01716,0.00000,-0.00934*
%
%ADD290ROUNDEDRECTD290*%
%ADD300R,0.03051X0.00886*%
G04:AMPARAMS|DCode=301|XSize=69.69mil|YSize=48.03mil|CornerRadius=4.53mil|HoleSize=0mil|Usage=FLASHONLY|Rotation=270.000|XOffset=0mil|YOffset=0mil|HoleType=Round|Shape=RoundedRectangle|*
%AMROUNDEDRECTD301*
21,1,0.06969,0.03898,0,0,270.0*
21,1,0.06063,0.04803,0,0,270.0*
1,1,0.00906,-0.01949,-0.03032*
1,1,0.00906,-0.01949,0.03032*
1,1,0.00906,0.01949,0.03032*
1,1,0.00906,0.01949,-0.03032*
%
%ADD301ROUNDEDRECTD301*%
G04:AMPARAMS|DCode=302|XSize=69.69mil|YSize=48.03mil|CornerRadius=6.69mil|HoleSize=0mil|Usage=FLASHONLY|Rotation=90.000|XOffset=0mil|YOffset=0mil|HoleType=Round|Shape=RoundedRectangle|*
%AMROUNDEDRECTD302*
21,1,0.06969,0.03465,0,0,90.0*
21,1,0.05630,0.04803,0,0,90.0*
1,1,0.01339,0.01732,0.02815*
1,1,0.01339,0.01732,-0.02815*
1,1,0.01339,-0.01732,-0.02815*
1,1,0.01339,-0.01732,0.02815*
%
%ADD302ROUNDEDRECTD302*%
G04:AMPARAMS|DCode=303|XSize=44.09mil|YSize=40.16mil|CornerRadius=6.79mil|HoleSize=0mil|Usage=FLASHONLY|Rotation=90.000|XOffset=0mil|YOffset=0mil|HoleType=Round|Shape=RoundedRectangle|*
%AMROUNDEDRECTD303*
21,1,0.04409,0.02657,0,0,90.0*
21,1,0.03051,0.04016,0,0,90.0*
1,1,0.01358,0.01329,0.01526*
1,1,0.01358,0.01329,-0.01526*
1,1,0.01358,-0.01329,-0.01526*
1,1,0.01358,-0.01329,0.01526*
%
%ADD303ROUNDEDRECTD303*%
G04:AMPARAMS|DCode=304|XSize=40.16mil|YSize=32.28mil|CornerRadius=4.43mil|HoleSize=0mil|Usage=FLASHONLY|Rotation=180.000|XOffset=0mil|YOffset=0mil|HoleType=Round|Shape=RoundedRectangle|*
%AMROUNDEDRECTD304*
21,1,0.04016,0.02343,0,0,180.0*
21,1,0.03130,0.03228,0,0,180.0*
1,1,0.00886,-0.01565,0.01171*
1,1,0.00886,0.01565,0.01171*
1,1,0.00886,0.01565,-0.01171*
1,1,0.00886,-0.01565,-0.01171*
%
%ADD304ROUNDEDRECTD304*%
G04:AMPARAMS|DCode=305|XSize=40.16mil|YSize=32.28mil|CornerRadius=5.12mil|HoleSize=0mil|Usage=FLASHONLY|Rotation=225.000|XOffset=0mil|YOffset=0mil|HoleType=Round|Shape=RoundedRectangle|*
%AMROUNDEDRECTD305*
21,1,0.04016,0.02205,0,0,225.0*
21,1,0.02992,0.03228,0,0,225.0*
1,1,0.01024,-0.01837,-0.00278*
1,1,0.01024,0.00278,0.01837*
1,1,0.01024,0.01837,0.00278*
1,1,0.01024,-0.00278,-0.01837*
%
%ADD305ROUNDEDRECTD305*%
G04:AMPARAMS|DCode=306|XSize=75.59mil|YSize=55.91mil|CornerRadius=6.2mil|HoleSize=0mil|Usage=FLASHONLY|Rotation=180.000|XOffset=0mil|YOffset=0mil|HoleType=Round|Shape=RoundedRectangle|*
%AMROUNDEDRECTD306*
21,1,0.07559,0.04350,0,0,180.0*
21,1,0.06319,0.05591,0,0,180.0*
1,1,0.01240,-0.03159,0.02175*
1,1,0.01240,0.03159,0.02175*
1,1,0.01240,0.03159,-0.02175*
1,1,0.01240,-0.03159,-0.02175*
%
%ADD306ROUNDEDRECTD306*%
G04:AMPARAMS|DCode=307|XSize=44.09mil|YSize=63.78mil|CornerRadius=6.3mil|HoleSize=0mil|Usage=FLASHONLY|Rotation=0.000|XOffset=0mil|YOffset=0mil|HoleType=Round|Shape=RoundedRectangle|*
%AMROUNDEDRECTD307*
21,1,0.04409,0.05118,0,0,0.0*
21,1,0.03150,0.06378,0,0,0.0*
1,1,0.01260,0.01575,-0.02559*
1,1,0.01260,-0.01575,-0.02559*
1,1,0.01260,-0.01575,0.02559*
1,1,0.01260,0.01575,0.02559*
%
%ADD307ROUNDEDRECTD307*%
G04:AMPARAMS|DCode=308|XSize=26.38mil|YSize=28.35mil|CornerRadius=3.99mil|HoleSize=0mil|Usage=FLASHONLY|Rotation=0.000|XOffset=0mil|YOffset=0mil|HoleType=Round|Shape=RoundedRectangle|*
%AMROUNDEDRECTD308*
21,1,0.02638,0.02037,0,0,0.0*
21,1,0.01841,0.02835,0,0,0.0*
1,1,0.00797,0.00920,-0.01019*
1,1,0.00797,-0.00920,-0.01019*
1,1,0.00797,-0.00920,0.01019*
1,1,0.00797,0.00920,0.01019*
%
%ADD308ROUNDEDRECTD308*%
G04:AMPARAMS|DCode=309|XSize=26.38mil|YSize=26.38mil|CornerRadius=3.99mil|HoleSize=0mil|Usage=FLASHONLY|Rotation=90.000|XOffset=0mil|YOffset=0mil|HoleType=Round|Shape=RoundedRectangle|*
%AMROUNDEDRECTD309*
21,1,0.02638,0.01841,0,0,90.0*
21,1,0.01841,0.02638,0,0,90.0*
1,1,0.00797,0.00920,0.00920*
1,1,0.00797,0.00920,-0.00920*
1,1,0.00797,-0.00920,-0.00920*
1,1,0.00797,-0.00920,0.00920*
%
%ADD309ROUNDEDRECTD309*%
G04:AMPARAMS|DCode=310|XSize=42.13mil|YSize=42.13mil|CornerRadius=5.17mil|HoleSize=0mil|Usage=FLASHONLY|Rotation=45.000|XOffset=0mil|YOffset=0mil|HoleType=Round|Shape=RoundedRectangle|*
%AMROUNDEDRECTD310*
21,1,0.04213,0.03179,0,0,45.0*
21,1,0.03179,0.04213,0,0,45.0*
1,1,0.01034,0.02248,0.00000*
1,1,0.01034,0.00000,-0.02248*
1,1,0.01034,-0.02248,0.00000*
1,1,0.01034,0.00000,0.02248*
%
%ADD310ROUNDEDRECTD310*%
G04:AMPARAMS|DCode=311|XSize=79.53mil|YSize=57.87mil|CornerRadius=6.35mil|HoleSize=0mil|Usage=FLASHONLY|Rotation=315.000|XOffset=0mil|YOffset=0mil|HoleType=Round|Shape=RoundedRectangle|*
%AMROUNDEDRECTD311*
21,1,0.07953,0.04518,0,0,315.0*
21,1,0.06683,0.05787,0,0,315.0*
1,1,0.01270,0.00766,-0.03960*
1,1,0.01270,-0.03960,0.00766*
1,1,0.01270,-0.00766,0.03960*
1,1,0.01270,0.03960,-0.00766*
%
%ADD311ROUNDEDRECTD311*%
G04:AMPARAMS|DCode=312|XSize=79.53mil|YSize=57.87mil|CornerRadius=6.35mil|HoleSize=0mil|Usage=FLASHONLY|Rotation=270.000|XOffset=0mil|YOffset=0mil|HoleType=Round|Shape=RoundedRectangle|*
%AMROUNDEDRECTD312*
21,1,0.07953,0.04518,0,0,270.0*
21,1,0.06683,0.05787,0,0,270.0*
1,1,0.01270,-0.02259,-0.03342*
1,1,0.01270,-0.02259,0.03342*
1,1,0.01270,0.02259,0.03342*
1,1,0.01270,0.02259,-0.03342*
%
%ADD312ROUNDEDRECTD312*%
G04:AMPARAMS|DCode=313|XSize=44.09mil|YSize=46.06mil|CornerRadius=5.32mil|HoleSize=0mil|Usage=FLASHONLY|Rotation=270.000|XOffset=0mil|YOffset=0mil|HoleType=Round|Shape=RoundedRectangle|*
%AMROUNDEDRECTD313*
21,1,0.04409,0.03543,0,0,270.0*
21,1,0.03347,0.04606,0,0,270.0*
1,1,0.01063,-0.01772,-0.01673*
1,1,0.01063,-0.01772,0.01673*
1,1,0.01063,0.01772,0.01673*
1,1,0.01063,0.01772,-0.01673*
%
%ADD313ROUNDEDRECTD313*%
G04:AMPARAMS|DCode=314|XSize=44.09mil|YSize=40.16mil|CornerRadius=5.02mil|HoleSize=0mil|Usage=FLASHONLY|Rotation=90.000|XOffset=0mil|YOffset=0mil|HoleType=Round|Shape=RoundedRectangle|*
%AMROUNDEDRECTD314*
21,1,0.04409,0.03012,0,0,90.0*
21,1,0.03406,0.04016,0,0,90.0*
1,1,0.01004,0.01506,0.01703*
1,1,0.01004,0.01506,-0.01703*
1,1,0.01004,-0.01506,-0.01703*
1,1,0.01004,-0.01506,0.01703*
%
%ADD314ROUNDEDRECTD314*%
G04:AMPARAMS|DCode=315|XSize=36.22mil|YSize=40.16mil|CornerRadius=4.72mil|HoleSize=0mil|Usage=FLASHONLY|Rotation=270.000|XOffset=0mil|YOffset=0mil|HoleType=Round|Shape=RoundedRectangle|*
%AMROUNDEDRECTD315*
21,1,0.03622,0.03071,0,0,270.0*
21,1,0.02677,0.04016,0,0,270.0*
1,1,0.00945,-0.01535,-0.01339*
1,1,0.00945,-0.01535,0.01339*
1,1,0.00945,0.01535,0.01339*
1,1,0.00945,0.01535,-0.01339*
%
%ADD315ROUNDEDRECTD315*%
G04:AMPARAMS|DCode=316|XSize=44.09mil|YSize=46.06mil|CornerRadius=5.32mil|HoleSize=0mil|Usage=FLASHONLY|Rotation=135.000|XOffset=0mil|YOffset=0mil|HoleType=Round|Shape=RoundedRectangle|*
%AMROUNDEDRECTD316*
21,1,0.04409,0.03543,0,0,135.0*
21,1,0.03347,0.04606,0,0,135.0*
1,1,0.01063,0.00070,0.02436*
1,1,0.01063,0.02436,0.00070*
1,1,0.01063,-0.00070,-0.02436*
1,1,0.01063,-0.02436,-0.00070*
%
%ADD316ROUNDEDRECTD316*%
G04:AMPARAMS|DCode=317|XSize=29.92mil|YSize=31.5mil|CornerRadius=4.25mil|HoleSize=0mil|Usage=FLASHONLY|Rotation=180.000|XOffset=0mil|YOffset=0mil|HoleType=Round|Shape=RoundedRectangle|*
%AMROUNDEDRECTD317*
21,1,0.02992,0.02299,0,0,180.0*
21,1,0.02142,0.03150,0,0,180.0*
1,1,0.00850,-0.01071,0.01150*
1,1,0.00850,0.01071,0.01150*
1,1,0.00850,0.01071,-0.01150*
1,1,0.00850,-0.01071,-0.01150*
%
%ADD317ROUNDEDRECTD317*%
G04:AMPARAMS|DCode=318|XSize=42.13mil|YSize=38.19mil|CornerRadius=4.87mil|HoleSize=0mil|Usage=FLASHONLY|Rotation=225.000|XOffset=0mil|YOffset=0mil|HoleType=Round|Shape=RoundedRectangle|*
%AMROUNDEDRECTD318*
21,1,0.04213,0.02845,0,0,225.0*
21,1,0.03238,0.03819,0,0,225.0*
1,1,0.00974,-0.02151,-0.00139*
1,1,0.00974,0.00139,0.02151*
1,1,0.00974,0.02151,0.00139*
1,1,0.00974,-0.00139,-0.02151*
%
%ADD318ROUNDEDRECTD318*%
G04:AMPARAMS|DCode=319|XSize=29.92mil|YSize=31.5mil|CornerRadius=4.25mil|HoleSize=0mil|Usage=FLASHONLY|Rotation=270.000|XOffset=0mil|YOffset=0mil|HoleType=Round|Shape=RoundedRectangle|*
%AMROUNDEDRECTD319*
21,1,0.02992,0.02299,0,0,270.0*
21,1,0.02142,0.03150,0,0,270.0*
1,1,0.00850,-0.01150,-0.01071*
1,1,0.00850,-0.01150,0.01071*
1,1,0.00850,0.01150,0.01071*
1,1,0.00850,0.01150,-0.01071*
%
%ADD319ROUNDEDRECTD319*%
G04:AMPARAMS|DCode=320|XSize=44.09mil|YSize=40.16mil|CornerRadius=5.02mil|HoleSize=0mil|Usage=FLASHONLY|Rotation=180.000|XOffset=0mil|YOffset=0mil|HoleType=Round|Shape=RoundedRectangle|*
%AMROUNDEDRECTD320*
21,1,0.04409,0.03012,0,0,180.0*
21,1,0.03406,0.04016,0,0,180.0*
1,1,0.01004,-0.01703,0.01506*
1,1,0.01004,0.01703,0.01506*
1,1,0.01004,0.01703,-0.01506*
1,1,0.01004,-0.01703,-0.01506*
%
%ADD320ROUNDEDRECTD320*%
G04:AMPARAMS|DCode=321|XSize=75.59mil|YSize=55.91mil|CornerRadius=6.2mil|HoleSize=0mil|Usage=FLASHONLY|Rotation=270.000|XOffset=0mil|YOffset=0mil|HoleType=Round|Shape=RoundedRectangle|*
%AMROUNDEDRECTD321*
21,1,0.07559,0.04350,0,0,270.0*
21,1,0.06319,0.05591,0,0,270.0*
1,1,0.01240,-0.02175,-0.03159*
1,1,0.01240,-0.02175,0.03159*
1,1,0.01240,0.02175,0.03159*
1,1,0.01240,0.02175,-0.03159*
%
%ADD321ROUNDEDRECTD321*%
G04:AMPARAMS|DCode=322|XSize=42.13mil|YSize=38.19mil|CornerRadius=4.87mil|HoleSize=0mil|Usage=FLASHONLY|Rotation=315.000|XOffset=0mil|YOffset=0mil|HoleType=Round|Shape=RoundedRectangle|*
%AMROUNDEDRECTD322*
21,1,0.04213,0.02845,0,0,315.0*
21,1,0.03238,0.03819,0,0,315.0*
1,1,0.00974,0.00139,-0.02151*
1,1,0.00974,-0.02151,0.00139*
1,1,0.00974,-0.00139,0.02151*
1,1,0.00974,0.02151,-0.00139*
%
%ADD322ROUNDEDRECTD322*%
G04:AMPARAMS|DCode=323|XSize=44.09mil|YSize=46.06mil|CornerRadius=5.32mil|HoleSize=0mil|Usage=FLASHONLY|Rotation=0.000|XOffset=0mil|YOffset=0mil|HoleType=Round|Shape=RoundedRectangle|*
%AMROUNDEDRECTD323*
21,1,0.04409,0.03543,0,0,0.0*
21,1,0.03347,0.04606,0,0,0.0*
1,1,0.01063,0.01673,-0.01772*
1,1,0.01063,-0.01673,-0.01772*
1,1,0.01063,-0.01673,0.01772*
1,1,0.01063,0.01673,0.01772*
%
%ADD323ROUNDEDRECTD323*%
G04:AMPARAMS|DCode=324|XSize=32.28mil|YSize=38.19mil|CornerRadius=4.43mil|HoleSize=0mil|Usage=FLASHONLY|Rotation=90.000|XOffset=0mil|YOffset=0mil|HoleType=Round|Shape=RoundedRectangle|*
%AMROUNDEDRECTD324*
21,1,0.03228,0.02933,0,0,90.0*
21,1,0.02343,0.03819,0,0,90.0*
1,1,0.00886,0.01467,0.01171*
1,1,0.00886,0.01467,-0.01171*
1,1,0.00886,-0.01467,-0.01171*
1,1,0.00886,-0.01467,0.01171*
%
%ADD324ROUNDEDRECTD324*%
G04:AMPARAMS|DCode=325|XSize=75.59mil|YSize=50mil|CornerRadius=5.76mil|HoleSize=0mil|Usage=FLASHONLY|Rotation=0.000|XOffset=0mil|YOffset=0mil|HoleType=Round|Shape=RoundedRectangle|*
%AMROUNDEDRECTD325*
21,1,0.07559,0.03848,0,0,0.0*
21,1,0.06408,0.05000,0,0,0.0*
1,1,0.01152,0.03204,-0.01924*
1,1,0.01152,-0.03204,-0.01924*
1,1,0.01152,-0.03204,0.01924*
1,1,0.01152,0.03204,0.01924*
%
%ADD325ROUNDEDRECTD325*%
G04:AMPARAMS|DCode=326|XSize=75.59mil|YSize=50mil|CornerRadius=5.76mil|HoleSize=0mil|Usage=FLASHONLY|Rotation=90.000|XOffset=0mil|YOffset=0mil|HoleType=Round|Shape=RoundedRectangle|*
%AMROUNDEDRECTD326*
21,1,0.07559,0.03848,0,0,90.0*
21,1,0.06408,0.05000,0,0,90.0*
1,1,0.01152,0.01924,0.03204*
1,1,0.01152,0.01924,-0.03204*
1,1,0.01152,-0.01924,-0.03204*
1,1,0.01152,-0.01924,0.03204*
%
%ADD326ROUNDEDRECTD326*%
%ADD327O,0.06772X0.02835*%
G04:AMPARAMS|DCode=328|XSize=30.32mil|YSize=30.32mil|CornerRadius=4.28mil|HoleSize=0mil|Usage=FLASHONLY|Rotation=180.000|XOffset=0mil|YOffset=0mil|HoleType=Round|Shape=RoundedRectangle|*
%AMROUNDEDRECTD328*
21,1,0.03032,0.02175,0,0,180.0*
21,1,0.02175,0.03032,0,0,180.0*
1,1,0.00856,-0.01088,0.01088*
1,1,0.00856,0.01088,0.01088*
1,1,0.00856,0.01088,-0.01088*
1,1,0.00856,-0.01088,-0.01088*
%
%ADD328ROUNDEDRECTD328*%
G04:AMPARAMS|DCode=329|XSize=29.13mil|YSize=30.71mil|CornerRadius=4.19mil|HoleSize=0mil|Usage=FLASHONLY|Rotation=0.000|XOffset=0mil|YOffset=0mil|HoleType=Round|Shape=RoundedRectangle|*
%AMROUNDEDRECTD329*
21,1,0.02913,0.02232,0,0,0.0*
21,1,0.02075,0.03071,0,0,0.0*
1,1,0.00839,0.01037,-0.01116*
1,1,0.00839,-0.01037,-0.01116*
1,1,0.00839,-0.01037,0.01116*
1,1,0.00839,0.01037,0.01116*
%
%ADD329ROUNDEDRECTD329*%
G04:AMPARAMS|DCode=330|XSize=40.16mil|YSize=32.28mil|CornerRadius=5.12mil|HoleSize=0mil|Usage=FLASHONLY|Rotation=90.000|XOffset=0mil|YOffset=0mil|HoleType=Round|Shape=RoundedRectangle|*
%AMROUNDEDRECTD330*
21,1,0.04016,0.02205,0,0,90.0*
21,1,0.02992,0.03228,0,0,90.0*
1,1,0.01024,0.01102,0.01496*
1,1,0.01024,0.01102,-0.01496*
1,1,0.01024,-0.01102,-0.01496*
1,1,0.01024,-0.01102,0.01496*
%
%ADD330ROUNDEDRECTD330*%
G04:AMPARAMS|DCode=331|XSize=62.6mil|YSize=33.86mil|CornerRadius=5.28mil|HoleSize=0mil|Usage=FLASHONLY|Rotation=180.000|XOffset=0mil|YOffset=0mil|HoleType=Round|Shape=RoundedRectangle|*
%AMROUNDEDRECTD331*
21,1,0.06260,0.02331,0,0,180.0*
21,1,0.05205,0.03386,0,0,180.0*
1,1,0.01055,-0.02602,0.01165*
1,1,0.01055,0.02602,0.01165*
1,1,0.01055,0.02602,-0.01165*
1,1,0.01055,-0.02602,-0.01165*
%
%ADD331ROUNDEDRECTD331*%
G04:AMPARAMS|DCode=332|XSize=28.35mil|YSize=44.09mil|CornerRadius=5.32mil|HoleSize=0mil|Usage=FLASHONLY|Rotation=0.000|XOffset=0mil|YOffset=0mil|HoleType=Round|Shape=RoundedRectangle|*
%AMROUNDEDRECTD332*
21,1,0.02835,0.03347,0,0,0.0*
21,1,0.01772,0.04409,0,0,0.0*
1,1,0.01063,0.00886,-0.01673*
1,1,0.01063,-0.00886,-0.01673*
1,1,0.01063,-0.00886,0.01673*
1,1,0.01063,0.00886,0.01673*
%
%ADD332ROUNDEDRECTD332*%
%ADD333R,0.03386X0.06260*%
%ADD334R,0.02953X0.03740*%
%ADD335R,0.03740X0.02953*%
%ADD336R,0.04213X0.05787*%
%ADD337R,0.05787X0.04213*%
%ADD338R,0.04606X0.04016*%
%ADD339R,0.04213X0.03819*%
%ADD340R,0.03819X0.04213*%
%ADD341R,0.03819X0.03228*%
%ADD342R,0.07402X0.07402*%
%ADD343R,0.01654X0.03622*%
%ADD344R,0.03622X0.01654*%
%ADD345R,0.08346X0.07559*%
%ADD346R,0.05984X0.09134*%
%ADD347R,0.05984X0.04016*%
%ADD348R,0.11102X0.05591*%
%ADD349R,0.03228X0.04016*%
%ADD350R,0.03819X0.03228*%
%ADD351R,0.03622X0.04213*%
%ADD352R,0.02835X0.03622*%
%ADD353R,0.03228X0.03819*%
%ADD354R,0.04409X0.05984*%
%ADD355R,0.05984X0.04409*%
G04:AMPARAMS|DCode=356|XSize=42.13mil|YSize=36.22mil|CornerRadius=3.94mil|HoleSize=0mil|Usage=FLASHONLY|Rotation=90.000|XOffset=0mil|YOffset=0mil|HoleType=Round|Shape=RoundedRectangle|*
%AMROUNDEDRECTD356*
21,1,0.04213,0.02835,0,0,90.0*
21,1,0.03425,0.03622,0,0,90.0*
1,1,0.00787,0.01417,0.01713*
1,1,0.00787,0.01417,-0.01713*
1,1,0.00787,-0.01417,-0.01713*
1,1,0.00787,-0.01417,0.01713*
%
%ADD356ROUNDEDRECTD356*%
G04:AMPARAMS|DCode=357|XSize=40.55mil|YSize=52.76mil|CornerRadius=4.15mil|HoleSize=0mil|Usage=FLASHONLY|Rotation=90.000|XOffset=0mil|YOffset=0mil|HoleType=Round|Shape=RoundedRectangle|*
%AMROUNDEDRECTD357*
21,1,0.04055,0.04445,0,0,90.0*
21,1,0.03224,0.05276,0,0,90.0*
1,1,0.00831,0.02222,0.01612*
1,1,0.00831,0.02222,-0.01612*
1,1,0.00831,-0.02222,-0.01612*
1,1,0.00831,-0.02222,0.01612*
%
%ADD357ROUNDEDRECTD357*%
G04:AMPARAMS|DCode=358|XSize=32.28mil|YSize=51.97mil|CornerRadius=3.74mil|HoleSize=0mil|Usage=FLASHONLY|Rotation=180.000|XOffset=0mil|YOffset=0mil|HoleType=Round|Shape=RoundedRectangle|*
%AMROUNDEDRECTD358*
21,1,0.03228,0.04449,0,0,180.0*
21,1,0.02480,0.05197,0,0,180.0*
1,1,0.00748,-0.01240,0.02224*
1,1,0.00748,0.01240,0.02224*
1,1,0.00748,0.01240,-0.02224*
1,1,0.00748,-0.01240,-0.02224*
%
%ADD358ROUNDEDRECTD358*%
G04:AMPARAMS|DCode=359|XSize=42.13mil|YSize=36.22mil|CornerRadius=3.94mil|HoleSize=0mil|Usage=FLASHONLY|Rotation=180.000|XOffset=0mil|YOffset=0mil|HoleType=Round|Shape=RoundedRectangle|*
%AMROUNDEDRECTD359*
21,1,0.04213,0.02835,0,0,180.0*
21,1,0.03425,0.03622,0,0,180.0*
1,1,0.00787,-0.01713,0.01417*
1,1,0.00787,0.01713,0.01417*
1,1,0.00787,0.01713,-0.01417*
1,1,0.00787,-0.01713,-0.01417*
%
%ADD359ROUNDEDRECTD359*%
G04:AMPARAMS|DCode=360|XSize=55.91mil|YSize=63.78mil|CornerRadius=15.16mil|HoleSize=0mil|Usage=FLASHONLY|Rotation=270.000|XOffset=0mil|YOffset=0mil|HoleType=Round|Shape=RoundedRectangle|*
%AMROUNDEDRECTD360*
21,1,0.05591,0.03347,0,0,270.0*
21,1,0.02559,0.06378,0,0,270.0*
1,1,0.03032,-0.01673,-0.01280*
1,1,0.03032,-0.01673,0.01280*
1,1,0.03032,0.01673,0.01280*
1,1,0.03032,0.01673,-0.01280*
%
%ADD360ROUNDEDRECTD360*%
G04:AMPARAMS|DCode=361|XSize=26.38mil|YSize=26.38mil|CornerRadius=4.53mil|HoleSize=0mil|Usage=FLASHONLY|Rotation=180.000|XOffset=0mil|YOffset=0mil|HoleType=Round|Shape=RoundedRectangle|*
%AMROUNDEDRECTD361*
21,1,0.02638,0.01732,0,0,180.0*
21,1,0.01732,0.02638,0,0,180.0*
1,1,0.00906,-0.00866,0.00866*
1,1,0.00906,0.00866,0.00866*
1,1,0.00906,0.00866,-0.00866*
1,1,0.00906,-0.00866,-0.00866*
%
%ADD361ROUNDEDRECTD361*%
G04:AMPARAMS|DCode=362|XSize=28.35mil|YSize=44.09mil|CornerRadius=5.32mil|HoleSize=0mil|Usage=FLASHONLY|Rotation=315.000|XOffset=0mil|YOffset=0mil|HoleType=Round|Shape=RoundedRectangle|*
%AMROUNDEDRECTD362*
21,1,0.02835,0.03347,0,0,315.0*
21,1,0.01772,0.04409,0,0,315.0*
1,1,0.01063,-0.00557,-0.01810*
1,1,0.01063,-0.01810,-0.00557*
1,1,0.01063,0.00557,0.01810*
1,1,0.01063,0.01810,0.00557*
%
%ADD362ROUNDEDRECTD362*%
G04:AMPARAMS|DCode=363|XSize=32.28mil|YSize=38.19mil|CornerRadius=5.12mil|HoleSize=0mil|Usage=FLASHONLY|Rotation=90.000|XOffset=0mil|YOffset=0mil|HoleType=Round|Shape=RoundedRectangle|*
%AMROUNDEDRECTD363*
21,1,0.03228,0.02795,0,0,90.0*
21,1,0.02205,0.03819,0,0,90.0*
1,1,0.01024,0.01398,0.01102*
1,1,0.01024,0.01398,-0.01102*
1,1,0.01024,-0.01398,-0.01102*
1,1,0.01024,-0.01398,0.01102*
%
%ADD363ROUNDEDRECTD363*%
G04:AMPARAMS|DCode=364|XSize=75.59mil|YSize=50mil|CornerRadius=6.89mil|HoleSize=0mil|Usage=FLASHONLY|Rotation=90.000|XOffset=0mil|YOffset=0mil|HoleType=Round|Shape=RoundedRectangle|*
%AMROUNDEDRECTD364*
21,1,0.07559,0.03622,0,0,90.0*
21,1,0.06181,0.05000,0,0,90.0*
1,1,0.01378,0.01811,0.03091*
1,1,0.01378,0.01811,-0.03091*
1,1,0.01378,-0.01811,-0.03091*
1,1,0.01378,-0.01811,0.03091*
%
%ADD364ROUNDEDRECTD364*%
G04:AMPARAMS|DCode=365|XSize=44.09mil|YSize=46.06mil|CornerRadius=6.3mil|HoleSize=0mil|Usage=FLASHONLY|Rotation=180.000|XOffset=0mil|YOffset=0mil|HoleType=Round|Shape=RoundedRectangle|*
%AMROUNDEDRECTD365*
21,1,0.04409,0.03347,0,0,180.0*
21,1,0.03150,0.04606,0,0,180.0*
1,1,0.01260,-0.01575,0.01673*
1,1,0.01260,0.01575,0.01673*
1,1,0.01260,0.01575,-0.01673*
1,1,0.01260,-0.01575,-0.01673*
%
%ADD365ROUNDEDRECTD365*%
G04:AMPARAMS|DCode=366|XSize=40.16mil|YSize=36.22mil|CornerRadius=5.51mil|HoleSize=0mil|Usage=FLASHONLY|Rotation=270.000|XOffset=0mil|YOffset=0mil|HoleType=Round|Shape=RoundedRectangle|*
%AMROUNDEDRECTD366*
21,1,0.04016,0.02520,0,0,270.0*
21,1,0.02913,0.03622,0,0,270.0*
1,1,0.01102,-0.01260,-0.01457*
1,1,0.01102,-0.01260,0.01457*
1,1,0.01102,0.01260,0.01457*
1,1,0.01102,0.01260,-0.01457*
%
%ADD366ROUNDEDRECTD366*%
G04:AMPARAMS|DCode=367|XSize=44.09mil|YSize=40.16mil|CornerRadius=5.91mil|HoleSize=0mil|Usage=FLASHONLY|Rotation=270.000|XOffset=0mil|YOffset=0mil|HoleType=Round|Shape=RoundedRectangle|*
%AMROUNDEDRECTD367*
21,1,0.04409,0.02835,0,0,270.0*
21,1,0.03228,0.04016,0,0,270.0*
1,1,0.01181,-0.01417,-0.01614*
1,1,0.01181,-0.01417,0.01614*
1,1,0.01181,0.01417,0.01614*
1,1,0.01181,0.01417,-0.01614*
%
%ADD367ROUNDEDRECTD367*%
G04:AMPARAMS|DCode=368|XSize=44.09mil|YSize=46.06mil|CornerRadius=6.3mil|HoleSize=0mil|Usage=FLASHONLY|Rotation=270.000|XOffset=0mil|YOffset=0mil|HoleType=Round|Shape=RoundedRectangle|*
%AMROUNDEDRECTD368*
21,1,0.04409,0.03347,0,0,270.0*
21,1,0.03150,0.04606,0,0,270.0*
1,1,0.01260,-0.01673,-0.01575*
1,1,0.01260,-0.01673,0.01575*
1,1,0.01260,0.01673,0.01575*
1,1,0.01260,0.01673,-0.01575*
%
%ADD368ROUNDEDRECTD368*%
G04:AMPARAMS|DCode=369|XSize=32.28mil|YSize=40.16mil|CornerRadius=5.12mil|HoleSize=0mil|Usage=FLASHONLY|Rotation=0.000|XOffset=0mil|YOffset=0mil|HoleType=Round|Shape=RoundedRectangle|*
%AMROUNDEDRECTD369*
21,1,0.03228,0.02992,0,0,0.0*
21,1,0.02205,0.04016,0,0,0.0*
1,1,0.01024,0.01102,-0.01496*
1,1,0.01024,-0.01102,-0.01496*
1,1,0.01024,-0.01102,0.01496*
1,1,0.01024,0.01102,0.01496*
%
%ADD369ROUNDEDRECTD369*%
G04:AMPARAMS|DCode=370|XSize=69.69mil|YSize=48.03mil|CornerRadius=6.69mil|HoleSize=0mil|Usage=FLASHONLY|Rotation=180.000|XOffset=0mil|YOffset=0mil|HoleType=Round|Shape=RoundedRectangle|*
%AMROUNDEDRECTD370*
21,1,0.06969,0.03465,0,0,180.0*
21,1,0.05630,0.04803,0,0,180.0*
1,1,0.01339,-0.02815,0.01732*
1,1,0.01339,0.02815,0.01732*
1,1,0.01339,0.02815,-0.01732*
1,1,0.01339,-0.02815,-0.01732*
%
%ADD370ROUNDEDRECTD370*%
G04:AMPARAMS|DCode=371|XSize=40.16mil|YSize=32.28mil|CornerRadius=5.12mil|HoleSize=0mil|Usage=FLASHONLY|Rotation=315.000|XOffset=0mil|YOffset=0mil|HoleType=Round|Shape=RoundedRectangle|*
%AMROUNDEDRECTD371*
21,1,0.04016,0.02205,0,0,315.0*
21,1,0.02992,0.03228,0,0,315.0*
1,1,0.01024,0.00278,-0.01837*
1,1,0.01024,-0.01837,0.00278*
1,1,0.01024,-0.00278,0.01837*
1,1,0.01024,0.01837,-0.00278*
%
%ADD371ROUNDEDRECTD371*%
G04:AMPARAMS|DCode=372|XSize=20.47mil|YSize=63.78mil|CornerRadius=0mil|HoleSize=0mil|Usage=FLASHONLY|Rotation=45.000|XOffset=0mil|YOffset=0mil|HoleType=Round|Shape=Round|*
%AMOVALD372*
21,1,0.04331,0.02047,0.00000,0.00000,135.0*
1,1,0.02047,0.01531,-0.01531*
1,1,0.02047,-0.01531,0.01531*
%
%ADD372OVALD372*%

G04:AMPARAMS|DCode=373|XSize=26.38mil|YSize=26.38mil|CornerRadius=4.53mil|HoleSize=0mil|Usage=FLASHONLY|Rotation=315.000|XOffset=0mil|YOffset=0mil|HoleType=Round|Shape=RoundedRectangle|*
%AMROUNDEDRECTD373*
21,1,0.02638,0.01732,0,0,315.0*
21,1,0.01732,0.02638,0,0,315.0*
1,1,0.00906,0.00000,-0.01225*
1,1,0.00906,-0.01225,0.00000*
1,1,0.00906,0.00000,0.01225*
1,1,0.00906,0.01225,0.00000*
%
%ADD373ROUNDEDRECTD373*%
G04:AMPARAMS|DCode=374|XSize=29.92mil|YSize=31.5mil|CornerRadius=4.88mil|HoleSize=0mil|Usage=FLASHONLY|Rotation=315.000|XOffset=0mil|YOffset=0mil|HoleType=Round|Shape=RoundedRectangle|*
%AMROUNDEDRECTD374*
21,1,0.02992,0.02173,0,0,315.0*
21,1,0.02016,0.03150,0,0,315.0*
1,1,0.00976,-0.00056,-0.01481*
1,1,0.00976,-0.01481,-0.00056*
1,1,0.00976,0.00056,0.01481*
1,1,0.00976,0.01481,0.00056*
%
%ADD374ROUNDEDRECTD374*%
G04:AMPARAMS|DCode=375|XSize=29.92mil|YSize=31.5mil|CornerRadius=4.88mil|HoleSize=0mil|Usage=FLASHONLY|Rotation=225.000|XOffset=0mil|YOffset=0mil|HoleType=Round|Shape=RoundedRectangle|*
%AMROUNDEDRECTD375*
21,1,0.02992,0.02173,0,0,225.0*
21,1,0.02016,0.03150,0,0,225.0*
1,1,0.00976,-0.01481,0.00056*
1,1,0.00976,-0.00056,0.01481*
1,1,0.00976,0.01481,-0.00056*
1,1,0.00976,0.00056,-0.01481*
%
%ADD375ROUNDEDRECTD375*%
%ADD376O,0.02835X0.06772*%
G04:AMPARAMS|DCode=377|XSize=59.84mil|YSize=51.97mil|CornerRadius=7.09mil|HoleSize=0mil|Usage=FLASHONLY|Rotation=270.000|XOffset=0mil|YOffset=0mil|HoleType=Round|Shape=RoundedRectangle|*
%AMROUNDEDRECTD377*
21,1,0.05984,0.03780,0,0,270.0*
21,1,0.04567,0.05197,0,0,270.0*
1,1,0.01417,-0.01890,-0.02284*
1,1,0.01417,-0.01890,0.02284*
1,1,0.01417,0.01890,0.02284*
1,1,0.01417,0.01890,-0.02284*
%
%ADD377ROUNDEDRECTD377*%
G04:AMPARAMS|DCode=378|XSize=42.13mil|YSize=38.19mil|CornerRadius=5.71mil|HoleSize=0mil|Usage=FLASHONLY|Rotation=180.000|XOffset=0mil|YOffset=0mil|HoleType=Round|Shape=RoundedRectangle|*
%AMROUNDEDRECTD378*
21,1,0.04213,0.02677,0,0,180.0*
21,1,0.03071,0.03819,0,0,180.0*
1,1,0.01142,-0.01535,0.01339*
1,1,0.01142,0.01535,0.01339*
1,1,0.01142,0.01535,-0.01339*
1,1,0.01142,-0.01535,-0.01339*
%
%ADD378ROUNDEDRECTD378*%
G04:AMPARAMS|DCode=379|XSize=29.92mil|YSize=31.5mil|CornerRadius=4.88mil|HoleSize=0mil|Usage=FLASHONLY|Rotation=180.000|XOffset=0mil|YOffset=0mil|HoleType=Round|Shape=RoundedRectangle|*
%AMROUNDEDRECTD379*
21,1,0.02992,0.02173,0,0,180.0*
21,1,0.02016,0.03150,0,0,180.0*
1,1,0.00976,-0.01008,0.01087*
1,1,0.00976,0.01008,0.01087*
1,1,0.00976,0.01008,-0.01087*
1,1,0.00976,-0.01008,-0.01087*
%
%ADD379ROUNDEDRECTD379*%
G04:AMPARAMS|DCode=380|XSize=44.09mil|YSize=40.16mil|CornerRadius=5.91mil|HoleSize=0mil|Usage=FLASHONLY|Rotation=180.000|XOffset=0mil|YOffset=0mil|HoleType=Round|Shape=RoundedRectangle|*
%AMROUNDEDRECTD380*
21,1,0.04409,0.02835,0,0,180.0*
21,1,0.03228,0.04016,0,0,180.0*
1,1,0.01181,-0.01614,0.01417*
1,1,0.01181,0.01614,0.01417*
1,1,0.01181,0.01614,-0.01417*
1,1,0.01181,-0.01614,-0.01417*
%
%ADD380ROUNDEDRECTD380*%
G04:AMPARAMS|DCode=381|XSize=26.38mil|YSize=26.38mil|CornerRadius=4.53mil|HoleSize=0mil|Usage=FLASHONLY|Rotation=270.000|XOffset=0mil|YOffset=0mil|HoleType=Round|Shape=RoundedRectangle|*
%AMROUNDEDRECTD381*
21,1,0.02638,0.01732,0,0,270.0*
21,1,0.01732,0.02638,0,0,270.0*
1,1,0.00906,-0.00866,-0.00866*
1,1,0.00906,-0.00866,0.00866*
1,1,0.00906,0.00866,0.00866*
1,1,0.00906,0.00866,-0.00866*
%
%ADD381ROUNDEDRECTD381*%
G04:AMPARAMS|DCode=382|XSize=29.92mil|YSize=31.5mil|CornerRadius=4.88mil|HoleSize=0mil|Usage=FLASHONLY|Rotation=270.000|XOffset=0mil|YOffset=0mil|HoleType=Round|Shape=RoundedRectangle|*
%AMROUNDEDRECTD382*
21,1,0.02992,0.02173,0,0,270.0*
21,1,0.02016,0.03150,0,0,270.0*
1,1,0.00976,-0.01087,-0.01008*
1,1,0.00976,-0.01087,0.01008*
1,1,0.00976,0.01087,0.01008*
1,1,0.00976,0.01087,-0.01008*
%
%ADD382ROUNDEDRECTD382*%
G04:AMPARAMS|DCode=383|XSize=24.41mil|YSize=36.22mil|CornerRadius=4.33mil|HoleSize=0mil|Usage=FLASHONLY|Rotation=90.000|XOffset=0mil|YOffset=0mil|HoleType=Round|Shape=RoundedRectangle|*
%AMROUNDEDRECTD383*
21,1,0.02441,0.02756,0,0,90.0*
21,1,0.01575,0.03622,0,0,90.0*
1,1,0.00866,0.01378,0.00787*
1,1,0.00866,0.01378,-0.00787*
1,1,0.00866,-0.01378,-0.00787*
1,1,0.00866,-0.01378,0.00787*
%
%ADD383ROUNDEDRECTD383*%
G04:AMPARAMS|DCode=384|XSize=142.52mil|YSize=73.62mil|CornerRadius=10.97mil|HoleSize=0mil|Usage=FLASHONLY|Rotation=180.000|XOffset=0mil|YOffset=0mil|HoleType=Round|Shape=RoundedRectangle|*
%AMROUNDEDRECTD384*
21,1,0.14252,0.05167,0,0,180.0*
21,1,0.12057,0.07362,0,0,180.0*
1,1,0.02195,-0.06029,0.02584*
1,1,0.02195,0.06029,0.02584*
1,1,0.02195,0.06029,-0.02584*
1,1,0.02195,-0.06029,-0.02584*
%
%ADD384ROUNDEDRECTD384*%
G04:AMPARAMS|DCode=385|XSize=48.03mil|YSize=73.62mil|CornerRadius=7.78mil|HoleSize=0mil|Usage=FLASHONLY|Rotation=180.000|XOffset=0mil|YOffset=0mil|HoleType=Round|Shape=RoundedRectangle|*
%AMROUNDEDRECTD385*
21,1,0.04803,0.05807,0,0,180.0*
21,1,0.03248,0.07362,0,0,180.0*
1,1,0.01555,-0.01624,0.02904*
1,1,0.01555,0.01624,0.02904*
1,1,0.01555,0.01624,-0.02904*
1,1,0.01555,-0.01624,-0.02904*
%
%ADD385ROUNDEDRECTD385*%
G04:AMPARAMS|DCode=386|XSize=48.03mil|YSize=73.62mil|CornerRadius=7.78mil|HoleSize=0mil|Usage=FLASHONLY|Rotation=180.000|XOffset=0mil|YOffset=0mil|HoleType=Round|Shape=RoundedRectangle|*
%AMROUNDEDRECTD386*
21,1,0.04803,0.05807,0,0,180.0*
21,1,0.03248,0.07362,0,0,180.0*
1,1,0.01555,-0.01624,0.02904*
1,1,0.01555,0.01624,0.02904*
1,1,0.01555,0.01624,-0.02904*
1,1,0.01555,-0.01624,-0.02904*
%
%ADD386ROUNDEDRECTD386*%
G04:AMPARAMS|DCode=387|XSize=142.52mil|YSize=73.62mil|CornerRadius=10.97mil|HoleSize=0mil|Usage=FLASHONLY|Rotation=270.000|XOffset=0mil|YOffset=0mil|HoleType=Round|Shape=RoundedRectangle|*
%AMROUNDEDRECTD387*
21,1,0.14252,0.05167,0,0,270.0*
21,1,0.12057,0.07362,0,0,270.0*
1,1,0.02195,-0.02584,-0.06029*
1,1,0.02195,-0.02584,0.06029*
1,1,0.02195,0.02584,0.06029*
1,1,0.02195,0.02584,-0.06029*
%
%ADD387ROUNDEDRECTD387*%
G04:AMPARAMS|DCode=388|XSize=48.03mil|YSize=73.62mil|CornerRadius=7.78mil|HoleSize=0mil|Usage=FLASHONLY|Rotation=270.000|XOffset=0mil|YOffset=0mil|HoleType=Round|Shape=RoundedRectangle|*
%AMROUNDEDRECTD388*
21,1,0.04803,0.05807,0,0,270.0*
21,1,0.03248,0.07362,0,0,270.0*
1,1,0.01555,-0.02904,-0.01624*
1,1,0.01555,-0.02904,0.01624*
1,1,0.01555,0.02904,0.01624*
1,1,0.01555,0.02904,-0.01624*
%
%ADD388ROUNDEDRECTD388*%
G04:AMPARAMS|DCode=389|XSize=48.03mil|YSize=73.62mil|CornerRadius=7.78mil|HoleSize=0mil|Usage=FLASHONLY|Rotation=270.000|XOffset=0mil|YOffset=0mil|HoleType=Round|Shape=RoundedRectangle|*
%AMROUNDEDRECTD389*
21,1,0.04803,0.05807,0,0,270.0*
21,1,0.03248,0.07362,0,0,270.0*
1,1,0.01555,-0.02904,-0.01624*
1,1,0.01555,-0.02904,0.01624*
1,1,0.01555,0.02904,0.01624*
1,1,0.01555,0.02904,-0.01624*
%
%ADD389ROUNDEDRECTD389*%
G04:AMPARAMS|DCode=390|XSize=48.03mil|YSize=44.09mil|CornerRadius=6.3mil|HoleSize=0mil|Usage=FLASHONLY|Rotation=270.000|XOffset=0mil|YOffset=0mil|HoleType=Round|Shape=RoundedRectangle|*
%AMROUNDEDRECTD390*
21,1,0.04803,0.03150,0,0,270.0*
21,1,0.03543,0.04409,0,0,270.0*
1,1,0.01260,-0.01575,-0.01772*
1,1,0.01260,-0.01575,0.01772*
1,1,0.01260,0.01575,0.01772*
1,1,0.01260,0.01575,-0.01772*
%
%ADD390ROUNDEDRECTD390*%
G04:AMPARAMS|DCode=391|XSize=22.44mil|YSize=28.35mil|CornerRadius=4.13mil|HoleSize=0mil|Usage=FLASHONLY|Rotation=270.000|XOffset=0mil|YOffset=0mil|HoleType=Round|Shape=RoundedRectangle|*
%AMROUNDEDRECTD391*
21,1,0.02244,0.02008,0,0,270.0*
21,1,0.01417,0.02835,0,0,270.0*
1,1,0.00827,-0.01004,-0.00709*
1,1,0.00827,-0.01004,0.00709*
1,1,0.00827,0.01004,0.00709*
1,1,0.00827,0.01004,-0.00709*
%
%ADD391ROUNDEDRECTD391*%
G04:AMPARAMS|DCode=392|XSize=73.62mil|YSize=103.15mil|CornerRadius=4.09mil|HoleSize=0mil|Usage=FLASHONLY|Rotation=0.000|XOffset=0mil|YOffset=0mil|HoleType=Round|Shape=RoundedRectangle|*
%AMROUNDEDRECTD392*
21,1,0.07362,0.09498,0,0,0.0*
21,1,0.06545,0.10315,0,0,0.0*
1,1,0.00817,0.03273,-0.04749*
1,1,0.00817,-0.03273,-0.04749*
1,1,0.00817,-0.03273,0.04749*
1,1,0.00817,0.03273,0.04749*
%
%ADD392ROUNDEDRECTD392*%
G04:AMPARAMS|DCode=393|XSize=40.16mil|YSize=32.28mil|CornerRadius=5.12mil|HoleSize=0mil|Usage=FLASHONLY|Rotation=0.000|XOffset=0mil|YOffset=0mil|HoleType=Round|Shape=RoundedRectangle|*
%AMROUNDEDRECTD393*
21,1,0.04016,0.02205,0,0,0.0*
21,1,0.02992,0.03228,0,0,0.0*
1,1,0.01024,0.01496,-0.01102*
1,1,0.01024,-0.01496,-0.01102*
1,1,0.01024,-0.01496,0.01102*
1,1,0.01024,0.01496,0.01102*
%
%ADD393ROUNDEDRECTD393*%
G04:AMPARAMS|DCode=394|XSize=42.13mil|YSize=36.22mil|CornerRadius=5.51mil|HoleSize=0mil|Usage=FLASHONLY|Rotation=270.000|XOffset=0mil|YOffset=0mil|HoleType=Round|Shape=RoundedRectangle|*
%AMROUNDEDRECTD394*
21,1,0.04213,0.02520,0,0,270.0*
21,1,0.03110,0.03622,0,0,270.0*
1,1,0.01102,-0.01260,-0.01555*
1,1,0.01102,-0.01260,0.01555*
1,1,0.01102,0.01260,0.01555*
1,1,0.01102,0.01260,-0.01555*
%
%ADD394ROUNDEDRECTD394*%
G04:AMPARAMS|DCode=395|XSize=36.22mil|YSize=36.22mil|CornerRadius=5.51mil|HoleSize=0mil|Usage=FLASHONLY|Rotation=270.000|XOffset=0mil|YOffset=0mil|HoleType=Round|Shape=RoundedRectangle|*
%AMROUNDEDRECTD395*
21,1,0.03622,0.02520,0,0,270.0*
21,1,0.02520,0.03622,0,0,270.0*
1,1,0.01102,-0.01260,-0.01260*
1,1,0.01102,-0.01260,0.01260*
1,1,0.01102,0.01260,0.01260*
1,1,0.01102,0.01260,-0.01260*
%
%ADD395ROUNDEDRECTD395*%
G04:AMPARAMS|DCode=396|XSize=225.2mil|YSize=225.2mil|CornerRadius=7.87mil|HoleSize=0mil|Usage=FLASHONLY|Rotation=0.000|XOffset=0mil|YOffset=0mil|HoleType=Round|Shape=RoundedRectangle|*
%AMROUNDEDRECTD396*
21,1,0.22520,0.20945,0,0,0.0*
21,1,0.20945,0.22520,0,0,0.0*
1,1,0.01575,0.10472,-0.10472*
1,1,0.01575,-0.10472,-0.10472*
1,1,0.01575,-0.10472,0.10472*
1,1,0.01575,0.10472,0.10472*
%
%ADD396ROUNDEDRECTD396*%
G04:AMPARAMS|DCode=397|XSize=38.19mil|YSize=16.54mil|CornerRadius=3.54mil|HoleSize=0mil|Usage=FLASHONLY|Rotation=0.000|XOffset=0mil|YOffset=0mil|HoleType=Round|Shape=RoundedRectangle|*
%AMROUNDEDRECTD397*
21,1,0.03819,0.00945,0,0,0.0*
21,1,0.03110,0.01654,0,0,0.0*
1,1,0.00709,0.01555,-0.00472*
1,1,0.00709,-0.01555,-0.00472*
1,1,0.00709,-0.01555,0.00472*
1,1,0.00709,0.01555,0.00472*
%
%ADD397ROUNDEDRECTD397*%
G04:AMPARAMS|DCode=398|XSize=38.19mil|YSize=16.54mil|CornerRadius=3.54mil|HoleSize=0mil|Usage=FLASHONLY|Rotation=90.000|XOffset=0mil|YOffset=0mil|HoleType=Round|Shape=RoundedRectangle|*
%AMROUNDEDRECTD398*
21,1,0.03819,0.00945,0,0,90.0*
21,1,0.03110,0.01654,0,0,90.0*
1,1,0.00709,0.00472,0.01555*
1,1,0.00709,0.00472,-0.01555*
1,1,0.00709,-0.00472,-0.01555*
1,1,0.00709,-0.00472,0.01555*
%
%ADD398ROUNDEDRECTD398*%
%ADD399O,0.02047X0.06378*%
%ADD400O,0.06378X0.02047*%
G04:AMPARAMS|DCode=401|XSize=75.59mil|YSize=50mil|CornerRadius=6.89mil|HoleSize=0mil|Usage=FLASHONLY|Rotation=315.000|XOffset=0mil|YOffset=0mil|HoleType=Round|Shape=RoundedRectangle|*
%AMROUNDEDRECTD401*
21,1,0.07559,0.03622,0,0,315.0*
21,1,0.06181,0.05000,0,0,315.0*
1,1,0.01378,0.00905,-0.03466*
1,1,0.01378,-0.03466,0.00905*
1,1,0.01378,-0.00905,0.03466*
1,1,0.01378,0.03466,-0.00905*
%
%ADD401ROUNDEDRECTD401*%
G04:AMPARAMS|DCode=402|XSize=44.09mil|YSize=36.22mil|CornerRadius=5.51mil|HoleSize=0mil|Usage=FLASHONLY|Rotation=225.000|XOffset=0mil|YOffset=0mil|HoleType=Round|Shape=RoundedRectangle|*
%AMROUNDEDRECTD402*
21,1,0.04409,0.02520,0,0,225.0*
21,1,0.03307,0.03622,0,0,225.0*
1,1,0.01102,-0.02060,-0.00278*
1,1,0.01102,0.00278,0.02060*
1,1,0.01102,0.02060,0.00278*
1,1,0.01102,-0.00278,-0.02060*
%
%ADD402ROUNDEDRECTD402*%
G04:AMPARAMS|DCode=403|XSize=75.59mil|YSize=50mil|CornerRadius=6.89mil|HoleSize=0mil|Usage=FLASHONLY|Rotation=45.000|XOffset=0mil|YOffset=0mil|HoleType=Round|Shape=RoundedRectangle|*
%AMROUNDEDRECTD403*
21,1,0.07559,0.03622,0,0,45.0*
21,1,0.06181,0.05000,0,0,45.0*
1,1,0.01378,0.03466,0.00905*
1,1,0.01378,-0.00905,-0.03466*
1,1,0.01378,-0.03466,-0.00905*
1,1,0.01378,0.00905,0.03466*
%
%ADD403ROUNDEDRECTD403*%
G04:AMPARAMS|DCode=404|XSize=40.16mil|YSize=36.22mil|CornerRadius=5.51mil|HoleSize=0mil|Usage=FLASHONLY|Rotation=180.000|XOffset=0mil|YOffset=0mil|HoleType=Round|Shape=RoundedRectangle|*
%AMROUNDEDRECTD404*
21,1,0.04016,0.02520,0,0,180.0*
21,1,0.02913,0.03622,0,0,180.0*
1,1,0.01102,-0.01457,0.01260*
1,1,0.01102,0.01457,0.01260*
1,1,0.01102,0.01457,-0.01260*
1,1,0.01102,-0.01457,-0.01260*
%
%ADD404ROUNDEDRECTD404*%
G04:AMPARAMS|DCode=405|XSize=42.13mil|YSize=36.22mil|CornerRadius=5.51mil|HoleSize=0mil|Usage=FLASHONLY|Rotation=180.000|XOffset=0mil|YOffset=0mil|HoleType=Round|Shape=RoundedRectangle|*
%AMROUNDEDRECTD405*
21,1,0.04213,0.02520,0,0,180.0*
21,1,0.03110,0.03622,0,0,180.0*
1,1,0.01102,-0.01555,0.01260*
1,1,0.01102,0.01555,0.01260*
1,1,0.01102,0.01555,-0.01260*
1,1,0.01102,-0.01555,-0.01260*
%
%ADD405ROUNDEDRECTD405*%
G04:AMPARAMS|DCode=406|XSize=44.09mil|YSize=46.06mil|CornerRadius=6.3mil|HoleSize=0mil|Usage=FLASHONLY|Rotation=135.000|XOffset=0mil|YOffset=0mil|HoleType=Round|Shape=RoundedRectangle|*
%AMROUNDEDRECTD406*
21,1,0.04409,0.03347,0,0,135.0*
21,1,0.03150,0.04606,0,0,135.0*
1,1,0.01260,0.00070,0.02297*
1,1,0.01260,0.02297,0.00070*
1,1,0.01260,-0.00070,-0.02297*
1,1,0.01260,-0.02297,-0.00070*
%
%ADD406ROUNDEDRECTD406*%
G04:AMPARAMS|DCode=407|XSize=44.09mil|YSize=40.16mil|CornerRadius=6.79mil|HoleSize=0mil|Usage=FLASHONLY|Rotation=225.000|XOffset=0mil|YOffset=0mil|HoleType=Round|Shape=RoundedRectangle|*
%AMROUNDEDRECTD407*
21,1,0.04409,0.02657,0,0,225.0*
21,1,0.03051,0.04016,0,0,225.0*
1,1,0.01358,-0.02018,-0.00139*
1,1,0.01358,0.00139,0.02018*
1,1,0.01358,0.02018,0.00139*
1,1,0.01358,-0.00139,-0.02018*
%
%ADD407ROUNDEDRECTD407*%
G04:AMPARAMS|DCode=408|XSize=32.28mil|YSize=40.16mil|CornerRadius=5.12mil|HoleSize=0mil|Usage=FLASHONLY|Rotation=315.000|XOffset=0mil|YOffset=0mil|HoleType=Round|Shape=RoundedRectangle|*
%AMROUNDEDRECTD408*
21,1,0.03228,0.02992,0,0,315.0*
21,1,0.02205,0.04016,0,0,315.0*
1,1,0.01024,-0.00278,-0.01837*
1,1,0.01024,-0.01837,-0.00278*
1,1,0.01024,0.00278,0.01837*
1,1,0.01024,0.01837,0.00278*
%
%ADD408ROUNDEDRECTD408*%
G04:AMPARAMS|DCode=409|XSize=55.91mil|YSize=36.22mil|CornerRadius=6.3mil|HoleSize=0mil|Usage=FLASHONLY|Rotation=180.000|XOffset=0mil|YOffset=0mil|HoleType=Round|Shape=RoundedRectangle|*
%AMROUNDEDRECTD409*
21,1,0.05591,0.02362,0,0,180.0*
21,1,0.04331,0.03622,0,0,180.0*
1,1,0.01260,-0.02165,0.01181*
1,1,0.01260,0.02165,0.01181*
1,1,0.01260,0.02165,-0.01181*
1,1,0.01260,-0.02165,-0.01181*
%
%ADD409ROUNDEDRECTD409*%
G04:AMPARAMS|DCode=410|XSize=24.41mil|YSize=38.19mil|CornerRadius=4.33mil|HoleSize=0mil|Usage=FLASHONLY|Rotation=180.000|XOffset=0mil|YOffset=0mil|HoleType=Round|Shape=RoundedRectangle|*
%AMROUNDEDRECTD410*
21,1,0.02441,0.02953,0,0,180.0*
21,1,0.01575,0.03819,0,0,180.0*
1,1,0.00866,-0.00787,0.01476*
1,1,0.00866,0.00787,0.01476*
1,1,0.00866,0.00787,-0.01476*
1,1,0.00866,-0.00787,-0.01476*
%
%ADD410ROUNDEDRECTD410*%
G04:AMPARAMS|DCode=411|XSize=59.84mil|YSize=51.97mil|CornerRadius=7.09mil|HoleSize=0mil|Usage=FLASHONLY|Rotation=180.000|XOffset=0mil|YOffset=0mil|HoleType=Round|Shape=RoundedRectangle|*
%AMROUNDEDRECTD411*
21,1,0.05984,0.03780,0,0,180.0*
21,1,0.04567,0.05197,0,0,180.0*
1,1,0.01417,-0.02284,0.01890*
1,1,0.01417,0.02284,0.01890*
1,1,0.01417,0.02284,-0.01890*
1,1,0.01417,-0.02284,-0.01890*
%
%ADD411ROUNDEDRECTD411*%
G04:AMPARAMS|DCode=412|XSize=55.91mil|YSize=36.22mil|CornerRadius=6.3mil|HoleSize=0mil|Usage=FLASHONLY|Rotation=90.000|XOffset=0mil|YOffset=0mil|HoleType=Round|Shape=RoundedRectangle|*
%AMROUNDEDRECTD412*
21,1,0.05591,0.02362,0,0,90.0*
21,1,0.04331,0.03622,0,0,90.0*
1,1,0.01260,0.01181,0.02165*
1,1,0.01260,0.01181,-0.02165*
1,1,0.01260,-0.01181,-0.02165*
1,1,0.01260,-0.01181,0.02165*
%
%ADD412ROUNDEDRECTD412*%
G04:AMPARAMS|DCode=413|XSize=55.91mil|YSize=63.78mil|CornerRadius=15.16mil|HoleSize=0mil|Usage=FLASHONLY|Rotation=180.000|XOffset=0mil|YOffset=0mil|HoleType=Round|Shape=RoundedRectangle|*
%AMROUNDEDRECTD413*
21,1,0.05591,0.03347,0,0,180.0*
21,1,0.02559,0.06378,0,0,180.0*
1,1,0.03032,-0.01280,0.01673*
1,1,0.03032,0.01280,0.01673*
1,1,0.03032,0.01280,-0.01673*
1,1,0.03032,-0.01280,-0.01673*
%
%ADD413ROUNDEDRECTD413*%
G04:AMPARAMS|DCode=414|XSize=44.09mil|YSize=63.78mil|CornerRadius=6.3mil|HoleSize=0mil|Usage=FLASHONLY|Rotation=270.000|XOffset=0mil|YOffset=0mil|HoleType=Round|Shape=RoundedRectangle|*
%AMROUNDEDRECTD414*
21,1,0.04409,0.05118,0,0,270.0*
21,1,0.03150,0.06378,0,0,270.0*
1,1,0.01260,-0.02559,-0.01575*
1,1,0.01260,-0.02559,0.01575*
1,1,0.01260,0.02559,0.01575*
1,1,0.01260,0.02559,-0.01575*
%
%ADD414ROUNDEDRECTD414*%
G04:AMPARAMS|DCode=415|XSize=23.62mil|YSize=20.47mil|CornerRadius=3.94mil|HoleSize=0mil|Usage=FLASHONLY|Rotation=180.000|XOffset=0mil|YOffset=0mil|HoleType=Round|Shape=RoundedRectangle|*
%AMROUNDEDRECTD415*
21,1,0.02362,0.01260,0,0,180.0*
21,1,0.01575,0.02047,0,0,180.0*
1,1,0.00787,-0.00787,0.00630*
1,1,0.00787,0.00787,0.00630*
1,1,0.00787,0.00787,-0.00630*
1,1,0.00787,-0.00787,-0.00630*
%
%ADD415ROUNDEDRECTD415*%
G04:AMPARAMS|DCode=416|XSize=20.47mil|YSize=24.41mil|CornerRadius=3.94mil|HoleSize=0mil|Usage=FLASHONLY|Rotation=180.000|XOffset=0mil|YOffset=0mil|HoleType=Round|Shape=RoundedRectangle|*
%AMROUNDEDRECTD416*
21,1,0.02047,0.01654,0,0,180.0*
21,1,0.01260,0.02441,0,0,180.0*
1,1,0.00787,-0.00630,0.00827*
1,1,0.00787,0.00630,0.00827*
1,1,0.00787,0.00630,-0.00827*
1,1,0.00787,-0.00630,-0.00827*
%
%ADD416ROUNDEDRECTD416*%
G04:AMPARAMS|DCode=417|XSize=22.44mil|YSize=46.06mil|CornerRadius=4.31mil|HoleSize=0mil|Usage=FLASHONLY|Rotation=90.000|XOffset=0mil|YOffset=0mil|HoleType=Round|Shape=RoundedRectangle|*
%AMROUNDEDRECTD417*
21,1,0.02244,0.03744,0,0,90.0*
21,1,0.01382,0.04606,0,0,90.0*
1,1,0.00862,0.01872,0.00691*
1,1,0.00862,0.01872,-0.00691*
1,1,0.00862,-0.01872,-0.00691*
1,1,0.00862,-0.01872,0.00691*
%
%ADD417ROUNDEDRECTD417*%
G04:AMPARAMS|DCode=418|XSize=22.44mil|YSize=46.06mil|CornerRadius=4.31mil|HoleSize=0mil|Usage=FLASHONLY|Rotation=180.000|XOffset=0mil|YOffset=0mil|HoleType=Round|Shape=RoundedRectangle|*
%AMROUNDEDRECTD418*
21,1,0.02244,0.03744,0,0,180.0*
21,1,0.01382,0.04606,0,0,180.0*
1,1,0.00862,-0.00691,0.01872*
1,1,0.00862,0.00691,0.01872*
1,1,0.00862,0.00691,-0.01872*
1,1,0.00862,-0.00691,-0.01872*
%
%ADD418ROUNDEDRECTD418*%
G04:AMPARAMS|DCode=419|XSize=42.13mil|YSize=38.19mil|CornerRadius=5.71mil|HoleSize=0mil|Usage=FLASHONLY|Rotation=90.000|XOffset=0mil|YOffset=0mil|HoleType=Round|Shape=RoundedRectangle|*
%AMROUNDEDRECTD419*
21,1,0.04213,0.02677,0,0,90.0*
21,1,0.03071,0.03819,0,0,90.0*
1,1,0.01142,0.01339,0.01535*
1,1,0.01142,0.01339,-0.01535*
1,1,0.01142,-0.01339,-0.01535*
1,1,0.01142,-0.01339,0.01535*
%
%ADD419ROUNDEDRECTD419*%
G04:AMPARAMS|DCode=420|XSize=62.6mil|YSize=33.86mil|CornerRadius=5.28mil|HoleSize=0mil|Usage=FLASHONLY|Rotation=270.000|XOffset=0mil|YOffset=0mil|HoleType=Round|Shape=RoundedRectangle|*
%AMROUNDEDRECTD420*
21,1,0.06260,0.02331,0,0,270.0*
21,1,0.05205,0.03386,0,0,270.0*
1,1,0.01055,-0.01165,-0.02602*
1,1,0.01055,-0.01165,0.02602*
1,1,0.01055,0.01165,0.02602*
1,1,0.01055,0.01165,-0.02602*
%
%ADD420ROUNDEDRECTD420*%
G04:AMPARAMS|DCode=421|XSize=38.19mil|YSize=14.57mil|CornerRadius=3.35mil|HoleSize=0mil|Usage=FLASHONLY|Rotation=270.000|XOffset=0mil|YOffset=0mil|HoleType=Round|Shape=RoundedRectangle|*
%AMROUNDEDRECTD421*
21,1,0.03819,0.00787,0,0,270.0*
21,1,0.03150,0.01457,0,0,270.0*
1,1,0.00669,-0.00394,-0.01575*
1,1,0.00669,-0.00394,0.01575*
1,1,0.00669,0.00394,0.01575*
1,1,0.00669,0.00394,-0.01575*
%
%ADD421ROUNDEDRECTD421*%
G04:AMPARAMS|DCode=422|XSize=38.19mil|YSize=14.57mil|CornerRadius=3.35mil|HoleSize=0mil|Usage=FLASHONLY|Rotation=0.000|XOffset=0mil|YOffset=0mil|HoleType=Round|Shape=RoundedRectangle|*
%AMROUNDEDRECTD422*
21,1,0.03819,0.00787,0,0,0.0*
21,1,0.03150,0.01457,0,0,0.0*
1,1,0.00669,0.01575,-0.00394*
1,1,0.00669,-0.01575,-0.00394*
1,1,0.00669,-0.01575,0.00394*
1,1,0.00669,0.01575,0.00394*
%
%ADD422ROUNDEDRECTD422*%
G04:AMPARAMS|DCode=423|XSize=146.46mil|YSize=146.46mil|CornerRadius=5.91mil|HoleSize=0mil|Usage=FLASHONLY|Rotation=270.000|XOffset=0mil|YOffset=0mil|HoleType=Round|Shape=RoundedRectangle|*
%AMROUNDEDRECTD423*
21,1,0.14646,0.13465,0,0,270.0*
21,1,0.13465,0.14646,0,0,270.0*
1,1,0.01181,-0.06732,-0.06732*
1,1,0.01181,-0.06732,0.06732*
1,1,0.01181,0.06732,0.06732*
1,1,0.01181,0.06732,-0.06732*
%
%ADD423ROUNDEDRECTD423*%
G04:AMPARAMS|DCode=424|XSize=20.47mil|YSize=30.32mil|CornerRadius=4.33mil|HoleSize=0mil|Usage=FLASHONLY|Rotation=180.000|XOffset=0mil|YOffset=0mil|HoleType=Round|Shape=RoundedRectangle|*
%AMROUNDEDRECTD424*
21,1,0.02047,0.02165,0,0,180.0*
21,1,0.01181,0.03032,0,0,180.0*
1,1,0.00866,-0.00591,0.01083*
1,1,0.00866,0.00591,0.01083*
1,1,0.00866,0.00591,-0.01083*
1,1,0.00866,-0.00591,-0.01083*
%
%ADD424ROUNDEDRECTD424*%
G04:AMPARAMS|DCode=425|XSize=30.32mil|YSize=30.32mil|CornerRadius=4.92mil|HoleSize=0mil|Usage=FLASHONLY|Rotation=180.000|XOffset=0mil|YOffset=0mil|HoleType=Round|Shape=RoundedRectangle|*
%AMROUNDEDRECTD425*
21,1,0.03032,0.02047,0,0,180.0*
21,1,0.02047,0.03032,0,0,180.0*
1,1,0.00984,-0.01024,0.01024*
1,1,0.00984,0.01024,0.01024*
1,1,0.00984,0.01024,-0.01024*
1,1,0.00984,-0.01024,-0.01024*
%
%ADD425ROUNDEDRECTD425*%
G04:AMPARAMS|DCode=426|XSize=24.41mil|YSize=38.19mil|CornerRadius=4.33mil|HoleSize=0mil|Usage=FLASHONLY|Rotation=90.000|XOffset=0mil|YOffset=0mil|HoleType=Round|Shape=RoundedRectangle|*
%AMROUNDEDRECTD426*
21,1,0.02441,0.02953,0,0,90.0*
21,1,0.01575,0.03819,0,0,90.0*
1,1,0.00866,0.01476,0.00787*
1,1,0.00866,0.01476,-0.00787*
1,1,0.00866,-0.01476,-0.00787*
1,1,0.00866,-0.01476,0.00787*
%
%ADD426ROUNDEDRECTD426*%
G04:AMPARAMS|DCode=427|XSize=91.34mil|YSize=63.78mil|CornerRadius=9.74mil|HoleSize=0mil|Usage=FLASHONLY|Rotation=270.000|XOffset=0mil|YOffset=0mil|HoleType=Round|Shape=RoundedRectangle|*
%AMROUNDEDRECTD427*
21,1,0.09134,0.04429,0,0,270.0*
21,1,0.07185,0.06378,0,0,270.0*
1,1,0.01949,-0.02215,-0.03593*
1,1,0.01949,-0.02215,0.03593*
1,1,0.01949,0.02215,0.03593*
1,1,0.01949,0.02215,-0.03593*
%
%ADD427ROUNDEDRECTD427*%
G04:AMPARAMS|DCode=428|XSize=79.53mil|YSize=61.81mil|CornerRadius=8.07mil|HoleSize=0mil|Usage=FLASHONLY|Rotation=270.000|XOffset=0mil|YOffset=0mil|HoleType=Round|Shape=RoundedRectangle|*
%AMROUNDEDRECTD428*
21,1,0.07953,0.04567,0,0,270.0*
21,1,0.06339,0.06181,0,0,270.0*
1,1,0.01614,-0.02284,-0.03169*
1,1,0.01614,-0.02284,0.03169*
1,1,0.01614,0.02284,0.03169*
1,1,0.01614,0.02284,-0.03169*
%
%ADD428ROUNDEDRECTD428*%
G04:AMPARAMS|DCode=429|XSize=28.35mil|YSize=32.28mil|CornerRadius=5.32mil|HoleSize=0mil|Usage=FLASHONLY|Rotation=180.000|XOffset=0mil|YOffset=0mil|HoleType=Round|Shape=RoundedRectangle|*
%AMROUNDEDRECTD429*
21,1,0.02835,0.02165,0,0,180.0*
21,1,0.01772,0.03228,0,0,180.0*
1,1,0.01063,-0.00886,0.01083*
1,1,0.01063,0.00886,0.01083*
1,1,0.01063,0.00886,-0.01083*
1,1,0.01063,-0.00886,-0.01083*
%
%ADD429ROUNDEDRECTD429*%
G04:AMPARAMS|DCode=430|XSize=79.53mil|YSize=61.81mil|CornerRadius=8.07mil|HoleSize=0mil|Usage=FLASHONLY|Rotation=0.000|XOffset=0mil|YOffset=0mil|HoleType=Round|Shape=RoundedRectangle|*
%AMROUNDEDRECTD430*
21,1,0.07953,0.04567,0,0,0.0*
21,1,0.06339,0.06181,0,0,0.0*
1,1,0.01614,0.03169,-0.02284*
1,1,0.01614,-0.03169,-0.02284*
1,1,0.01614,-0.03169,0.02284*
1,1,0.01614,0.03169,0.02284*
%
%ADD430ROUNDEDRECTD430*%
G04:AMPARAMS|DCode=431|XSize=36.22mil|YSize=28.35mil|CornerRadius=4.72mil|HoleSize=0mil|Usage=FLASHONLY|Rotation=90.000|XOffset=0mil|YOffset=0mil|HoleType=Round|Shape=RoundedRectangle|*
%AMROUNDEDRECTD431*
21,1,0.03622,0.01890,0,0,90.0*
21,1,0.02677,0.02835,0,0,90.0*
1,1,0.00945,0.00945,0.01339*
1,1,0.00945,0.00945,-0.01339*
1,1,0.00945,-0.00945,-0.01339*
1,1,0.00945,-0.00945,0.01339*
%
%ADD431ROUNDEDRECTD431*%
G04:AMPARAMS|DCode=432|XSize=59.84mil|YSize=44.09mil|CornerRadius=7.28mil|HoleSize=0mil|Usage=FLASHONLY|Rotation=270.000|XOffset=0mil|YOffset=0mil|HoleType=Round|Shape=RoundedRectangle|*
%AMROUNDEDRECTD432*
21,1,0.05984,0.02953,0,0,270.0*
21,1,0.04528,0.04409,0,0,270.0*
1,1,0.01457,-0.01476,-0.02264*
1,1,0.01457,-0.01476,0.02264*
1,1,0.01457,0.01476,0.02264*
1,1,0.01457,0.01476,-0.02264*
%
%ADD432ROUNDEDRECTD432*%
G04:AMPARAMS|DCode=433|XSize=20.47mil|YSize=30.32mil|CornerRadius=4.33mil|HoleSize=0mil|Usage=FLASHONLY|Rotation=90.000|XOffset=0mil|YOffset=0mil|HoleType=Round|Shape=RoundedRectangle|*
%AMROUNDEDRECTD433*
21,1,0.02047,0.02165,0,0,90.0*
21,1,0.01181,0.03032,0,0,90.0*
1,1,0.00866,0.01083,0.00591*
1,1,0.00866,0.01083,-0.00591*
1,1,0.00866,-0.01083,-0.00591*
1,1,0.00866,-0.01083,0.00591*
%
%ADD433ROUNDEDRECTD433*%
D59*
X0305512Y0244094D02*
D03*
X0300000D02*
D03*
X0566791Y0262421D02*
D03*
X0561279D02*
D03*
X0362500Y0145571D02*
D03*
X0356988D02*
D03*
X0520079Y0353720D02*
D03*
X0514567D02*
D03*
X0454626Y0284154D02*
D03*
X0449114D02*
D03*
D61*
X0293110Y0244094D02*
D03*
X0287362D02*
D03*
X0292618Y0449213D02*
D03*
X0287303D02*
D03*
X0577087Y0262421D02*
D03*
X0571772D02*
D03*
X0245768Y0352165D02*
D03*
X0240453D02*
D03*
X0333957Y0142618D02*
D03*
X0328642D02*
D03*
X0387992Y0298327D02*
D03*
X0392913D02*
D03*
X0230610Y0444685D02*
D03*
X0235531D02*
D03*
X0237697Y0399016D02*
D03*
X0232776D02*
D03*
X0333661Y0358760D02*
D03*
X0338976D02*
D03*
X0333268Y0369587D02*
D03*
X0338583D02*
D03*
X0333465Y0384350D02*
D03*
X0338779D02*
D03*
X0262224Y0143425D02*
D03*
X0267539D02*
D03*
X0275866Y0100906D02*
D03*
X0270551D02*
D03*
X0483898Y0524311D02*
D03*
X0489213D02*
D03*
X0187106Y0427953D02*
D03*
X0192421D02*
D03*
X0166634Y0425295D02*
D03*
X0161319D02*
D03*
X0359941Y0410925D02*
D03*
X0354626D02*
D03*
X0378248Y0412894D02*
D03*
X0383563D02*
D03*
X0187008Y0422835D02*
D03*
X0192323D02*
D03*
X0359941Y0416142D02*
D03*
X0354626D02*
D03*
D62*
X0453248Y0255610D02*
D03*
X0453248Y0260925D02*
D03*
X0380413Y0426968D02*
D03*
Y0421654D02*
D03*
X0556496Y0273937D02*
D03*
Y0268622D02*
D03*
X0307579Y0447736D02*
D03*
Y0442421D02*
D03*
X0235630Y0439961D02*
D03*
Y0434646D02*
D03*
X0324744Y0118130D02*
D03*
Y0112815D02*
D03*
X0370571Y0174311D02*
D03*
Y0179626D02*
D03*
X0351673Y0422244D02*
D03*
Y0427559D02*
D03*
X0306201Y0205906D02*
D03*
Y0200591D02*
D03*
D65*
X0267480Y0391378D02*
D03*
Y0386063D02*
D03*
X0319450Y0118128D02*
D03*
Y0112813D02*
D03*
X0249262Y0167637D02*
D03*
Y0172952D02*
D03*
X0508366Y0509547D02*
D03*
Y0514862D02*
D03*
X0313287Y0514665D02*
D03*
Y0519980D02*
D03*
X0181595Y0439468D02*
D03*
Y0444783D02*
D03*
X0365059Y0399016D02*
D03*
Y0393701D02*
D03*
X0302559Y0442421D02*
D03*
Y0447736D02*
D03*
X0314961Y0447835D02*
D03*
Y0442520D02*
D03*
X0365551Y0312303D02*
D03*
Y0306988D02*
D03*
X0365650Y0302815D02*
D03*
Y0297500D02*
D03*
X0146949Y0314567D02*
D03*
Y0309252D02*
D03*
X0295965Y0314370D02*
D03*
Y0309055D02*
D03*
Y0304724D02*
D03*
Y0299410D02*
D03*
X0218307Y0313583D02*
D03*
Y0308268D02*
D03*
Y0304134D02*
D03*
Y0298819D02*
D03*
X0147047Y0305098D02*
D03*
Y0299783D02*
D03*
X0203543Y0322224D02*
D03*
Y0327539D02*
D03*
X0135236Y0326181D02*
D03*
Y0331496D02*
D03*
X0283957Y0326575D02*
D03*
Y0331890D02*
D03*
X0311221Y0327067D02*
D03*
Y0332382D02*
D03*
X0359744Y0185138D02*
D03*
Y0179823D02*
D03*
X0323819Y0188976D02*
D03*
Y0194291D02*
D03*
X0261638Y0107104D02*
D03*
Y0101788D02*
D03*
X0324350Y0210433D02*
D03*
Y0205118D02*
D03*
X0447992Y0255709D02*
D03*
Y0261024D02*
D03*
X0371284Y0211329D02*
D03*
Y0206014D02*
D03*
X0267668Y0162224D02*
D03*
Y0156909D02*
D03*
X0403445Y0087008D02*
D03*
Y0092323D02*
D03*
X0287598Y0238583D02*
D03*
Y0233268D02*
D03*
X0550098Y0263484D02*
D03*
Y0268799D02*
D03*
D67*
X0186811Y0432972D02*
D03*
X0192717D02*
D03*
X0360138Y0405709D02*
D03*
X0354232D02*
D03*
X0378209Y0189535D02*
D03*
X0373287Y0189535D02*
D03*
X0302559Y0452165D02*
D03*
X0307480Y0452165D02*
D03*
X0270571Y0173917D02*
D03*
X0275492Y0173917D02*
D03*
X0215256Y0398425D02*
D03*
X0210335Y0398425D02*
D03*
X0372146Y0419882D02*
D03*
X0366240D02*
D03*
X0337894Y0416339D02*
D03*
X0342815Y0416339D02*
D03*
D68*
X0285039Y0187500D02*
D03*
X0285039Y0182579D02*
D03*
D69*
X0330551Y0211221D02*
D03*
X0330551Y0204528D02*
D03*
X0349055Y0211614D02*
D03*
X0349055Y0204921D02*
D03*
X0293110Y0425591D02*
D03*
X0293110Y0432283D02*
D03*
X0237500Y0386713D02*
D03*
X0237500Y0380020D02*
D03*
D70*
X0301575Y0487402D02*
D03*
X0308268Y0487402D02*
D03*
X0301476Y0505315D02*
D03*
X0308169Y0505315D02*
D03*
X0220177Y0372342D02*
D03*
X0226870Y0372342D02*
D03*
D71*
X0696929Y0280236D02*
D03*
X0691614D02*
D03*
X0256713Y0143228D02*
D03*
X0251398D02*
D03*
X0305413Y0414272D02*
D03*
X0300098D02*
D03*
X0499902Y0529153D02*
D03*
X0494587D02*
D03*
X0295866Y0108465D02*
D03*
X0290551D02*
D03*
X0307972Y0469390D02*
D03*
X0302658D02*
D03*
X0343209Y0410138D02*
D03*
X0337894D02*
D03*
X0563878Y0280138D02*
D03*
X0569193D02*
D03*
X0326279Y0416339D02*
D03*
X0331594D02*
D03*
X0302461Y0481004D02*
D03*
X0307776D02*
D03*
X0301870Y0528937D02*
D03*
X0307185D02*
D03*
X0315748Y0425591D02*
D03*
X0310433D02*
D03*
X0338878Y0399114D02*
D03*
X0333563D02*
D03*
X0355413Y0332972D02*
D03*
X0360728D02*
D03*
X0228150Y0345866D02*
D03*
X0233465D02*
D03*
X0334252Y0149409D02*
D03*
X0328937D02*
D03*
X0271174Y0191471D02*
D03*
X0276489D02*
D03*
X0355044Y0198533D02*
D03*
X0349729D02*
D03*
X0302629Y0126954D02*
D03*
X0307944D02*
D03*
X0306102Y0211516D02*
D03*
X0311417D02*
D03*
X0334252Y0155413D02*
D03*
X0328937D02*
D03*
X0300689Y0226575D02*
D03*
X0295374D02*
D03*
D72*
X0232874Y0350984D02*
D03*
X0228937D02*
D03*
X0369488Y0324606D02*
D03*
X0373425D02*
D03*
D73*
X0220965Y0336417D02*
D03*
X0217618D02*
D03*
X0373130Y0331693D02*
D03*
X0369783D02*
D03*
X0373228Y0316831D02*
D03*
X0369882D02*
D03*
X0131102Y0337697D02*
D03*
X0134449D02*
D03*
D74*
X0210571Y0336319D02*
D03*
X0214035D02*
D03*
X0373287Y0328248D02*
D03*
X0369823D02*
D03*
X0373287Y0320276D02*
D03*
X0369823D02*
D03*
X0143858Y0336713D02*
D03*
X0140394D02*
D03*
D76*
X0375886Y0403346D02*
D03*
X0369980D02*
D03*
X0315650Y0317028D02*
D03*
X0309744D02*
D03*
X0237008Y0315256D02*
D03*
X0231102D02*
D03*
X0395079Y0412795D02*
D03*
X0389173D02*
D03*
X0166831Y0420276D02*
D03*
X0160925D02*
D03*
X0180217Y0422835D02*
D03*
X0174311D02*
D03*
X0174902Y0439173D02*
D03*
X0168996D02*
D03*
X0155512Y0318839D02*
D03*
X0149606D02*
D03*
D78*
X0681535Y0272756D02*
D03*
X0707382Y0272992D02*
D03*
X0311713Y0227362D02*
D03*
X0551279Y0504921D02*
D03*
X0190256Y0313189D02*
D03*
X0561004Y0289291D02*
D03*
X0585098Y0228937D02*
D03*
X0584941Y0317913D02*
D03*
X0506201Y0459154D02*
D03*
X0519193Y0469783D02*
D03*
X0580807Y0347539D02*
D03*
X0328740Y0406004D02*
D03*
X0336910Y0437303D02*
D03*
X0263681Y0278248D02*
D03*
X0232677Y0307087D02*
D03*
X0263484Y0293209D02*
D03*
X0336516Y0392421D02*
D03*
X0311024Y0416437D02*
D03*
X0319390D02*
D03*
X0252362Y0421949D02*
D03*
X0260433Y0421850D02*
D03*
X0299114Y0437303D02*
D03*
X0333760Y0312992D02*
D03*
X0323425Y0300394D02*
D03*
X0234350Y0366043D02*
D03*
X0226279Y0359646D02*
D03*
X0207087Y0406595D02*
D03*
X0414567Y0419193D02*
D03*
X0160925Y0433169D02*
D03*
X0287402Y0464272D02*
D03*
X0314075Y0480610D02*
D03*
X0296555Y0480709D02*
D03*
X0237402Y0174705D02*
D03*
X0331594Y0193012D02*
D03*
X0339961Y0205020D02*
D03*
X0248721Y0199705D02*
D03*
X0339272Y0193012D02*
D03*
X0291634Y0131988D02*
D03*
X0340256Y0106201D02*
D03*
X0401673Y0188779D02*
D03*
X0248031Y0191339D02*
D03*
X0284744Y0216831D02*
D03*
X0307874Y0220276D02*
D03*
X0384350Y0203937D02*
D03*
X0384547Y0212205D02*
D03*
X0282185Y0101181D02*
D03*
X0331004Y0118898D02*
D03*
X0341437Y0117717D02*
D03*
X0256004Y0181201D02*
D03*
X0190748Y0305807D02*
D03*
X0190157Y0320472D02*
D03*
X0110236Y0334646D02*
D03*
X0162402Y0311417D02*
D03*
X0403445Y0283071D02*
D03*
X0348780Y0334744D02*
D03*
X0411024Y0274606D02*
D03*
X0431201Y0304724D02*
D03*
X0427559Y0275787D02*
D03*
D81*
X0406988Y0421161D02*
D03*
Y0427461D02*
D03*
D82*
X0125295Y0426181D02*
D03*
Y0437598D02*
D03*
X0139961Y0426575D02*
D03*
Y0437992D02*
D03*
D84*
X0207874Y0418701D02*
D03*
Y0412795D02*
D03*
D86*
X0444587Y0292618D02*
D03*
Y0286516D02*
D03*
X0349606Y0416437D02*
D03*
Y0410335D02*
D03*
X0301378Y0493209D02*
D03*
Y0499311D02*
D03*
X0193701Y0406693D02*
D03*
Y0412795D02*
D03*
X0418110Y0398622D02*
D03*
Y0404724D02*
D03*
D87*
X0292815Y0231693D02*
D03*
X0561614Y0267736D02*
D03*
X0571850Y0275217D02*
D03*
Y0271476D02*
D03*
Y0267736D02*
D03*
X0561614Y0275217D02*
D03*
X0303051Y0231693D02*
D03*
X0292815Y0239173D02*
D03*
Y0235433D02*
D03*
X0303051Y0239173D02*
D03*
X0567520Y0244193D02*
D03*
Y0251673D02*
D03*
X0576575Y0247933D02*
D03*
X0355407Y0203609D02*
D03*
X0365643Y0211089D02*
D03*
Y0207349D02*
D03*
X0365643Y0203609D02*
D03*
X0355407Y0211089D02*
D03*
X0278254Y0179240D02*
D03*
X0268017Y0186720D02*
D03*
Y0182980D02*
D03*
Y0179240D02*
D03*
X0278254Y0186720D02*
D03*
Y0182980D02*
D03*
X0315059Y0430413D02*
D03*
X0304823Y0437894D02*
D03*
X0304823Y0434154D02*
D03*
X0304823Y0430413D02*
D03*
X0315059Y0437894D02*
D03*
X0310728Y0460827D02*
D03*
X0310728Y0464567D02*
D03*
X0300492Y0457087D02*
D03*
X0300492Y0460827D02*
D03*
Y0464567D02*
D03*
X0310728Y0457087D02*
D03*
D88*
X0293996Y0444783D02*
D03*
Y0439665D02*
D03*
X0286516Y0442224D02*
D03*
D90*
X0128740Y0288386D02*
D03*
Y0295472D02*
D03*
X0150098Y0288051D02*
D03*
Y0295138D02*
D03*
X0224213Y0289784D02*
D03*
Y0296870D02*
D03*
X0301870Y0296890D02*
D03*
X0301870Y0289803D02*
D03*
X0345866Y0295866D02*
D03*
Y0288779D02*
D03*
D98*
X0238484Y0309685D02*
D03*
X0238484Y0304488D02*
D03*
D99*
X0344291Y0241339D02*
D03*
X0363976D02*
D03*
X0569646Y0113031D02*
D03*
X0530276D02*
D03*
X0530453Y0150906D02*
D03*
X0569823D02*
D03*
X0263051Y0238878D02*
D03*
X0322106D02*
D03*
X0645965Y0112795D02*
D03*
Y0152165D02*
D03*
X0702658Y0152067D02*
D03*
Y0112697D02*
D03*
D100*
X0458677Y0166744D02*
D03*
X0498772Y0187173D02*
D03*
X0433661Y0358858D02*
D03*
Y0417913D02*
D03*
X0499803Y0417815D02*
D03*
Y0358760D02*
D03*
X0365059Y0506182D02*
D03*
X0285138Y0506102D02*
D03*
X0511614Y0219193D02*
D03*
X0541614D02*
D03*
X0203740Y0189425D02*
D03*
Y0234425D02*
D03*
X0386621Y0134771D02*
D03*
X0325007Y0132999D02*
D03*
X0224803Y0125000D02*
D03*
X0261122Y0073819D02*
D03*
X0433661Y0496850D02*
D03*
X0433661Y0437795D02*
D03*
X0674409Y0152559D02*
D03*
Y0102953D02*
D03*
X0326398Y0277165D02*
D03*
X0304980D02*
D03*
X0251043Y0277165D02*
D03*
X0229626D02*
D03*
X0160630Y0277362D02*
D03*
X0182047D02*
D03*
X0499705Y0437992D02*
D03*
Y0497047D02*
D03*
X0374114Y0277165D02*
D03*
X0395532D02*
D03*
D101*
X0209252Y0358563D02*
D03*
X0129331D02*
D03*
X0209252Y0506201D02*
D03*
X0129331D02*
D03*
X0365059Y0358544D02*
D03*
X0285138D02*
D03*
D102*
X0686516Y0185020D02*
D03*
X0647146D02*
D03*
D103*
X0710354Y0199508D02*
D03*
Y0219508D02*
D03*
X0719291Y0081063D02*
D03*
X0699291D02*
D03*
X0743976Y0165787D02*
D03*
Y0192402D02*
D03*
X0744075Y0229665D02*
D03*
Y0256279D02*
D03*
X0676378Y0081142D02*
D03*
X0656378D02*
D03*
D104*
X0707776Y0185630D02*
D03*
X0743760Y0204429D02*
D03*
X0501279Y0315354D02*
D03*
X0531161D02*
D03*
X0093110Y0452362D02*
D03*
X0271654Y0526378D02*
D03*
X0092913Y0435138D02*
D03*
D105*
X0567323Y0530020D02*
D03*
Y0305610D02*
D03*
X0103839D02*
D03*
X0623721Y0081201D02*
D03*
X0103839Y0399311D02*
D03*
X0749508Y0305610D02*
D03*
X0230020Y0530020D02*
D03*
D106*
X0277067Y0315492D02*
D03*
Y0310492D02*
D03*
X0272067Y0315492D02*
D03*
Y0310492D02*
D03*
X0267067Y0315492D02*
D03*
Y0310492D02*
D03*
X0262067Y0315492D02*
D03*
Y0310492D02*
D03*
X0257067Y0315492D02*
D03*
Y0310492D02*
D03*
X0252067Y0315492D02*
D03*
Y0310492D02*
D03*
X0458681Y0315492D02*
D03*
Y0310492D02*
D03*
X0453681Y0315492D02*
D03*
Y0310492D02*
D03*
X0448681Y0315492D02*
D03*
Y0310492D02*
D03*
X0443681Y0315492D02*
D03*
Y0310492D02*
D03*
X0097677Y0336299D02*
D03*
X0092677D02*
D03*
X0097677Y0341299D02*
D03*
X0092677D02*
D03*
X0097677Y0346299D02*
D03*
X0092677D02*
D03*
X0097677Y0351299D02*
D03*
X0092677D02*
D03*
X0571122Y0340177D02*
D03*
X0576122D02*
D03*
X0571122Y0335177D02*
D03*
X0576122D02*
D03*
X0571122Y0330177D02*
D03*
X0576122D02*
D03*
X0571122Y0325177D02*
D03*
X0576122D02*
D03*
X0393327Y0315492D02*
D03*
Y0310492D02*
D03*
X0388327Y0315492D02*
D03*
Y0310492D02*
D03*
X0383327Y0315492D02*
D03*
Y0310492D02*
D03*
X0378327Y0315492D02*
D03*
Y0310492D02*
D03*
D107*
X0491280Y0315354D02*
D03*
X0521161D02*
D03*
D108*
X0581614Y0189193D02*
D03*
D109*
X0581614Y0219193D02*
D03*
D110*
X0279429Y0464272D02*
D03*
D111*
Y0454429D02*
D03*
D112*
X0283563Y0277165D02*
D03*
X0208209Y0277165D02*
D03*
X0139213Y0277362D02*
D03*
X0352697Y0277165D02*
D03*
D113*
X0646772Y0246752D02*
D03*
X0646772Y0219980D02*
D03*
D114*
X0676299Y0256594D02*
D03*
Y0229823D02*
D03*
D115*
X0539035Y0419488D02*
D03*
X0519035D02*
D03*
X0520472Y0166929D02*
D03*
X0618209Y0112303D02*
D03*
X0539035Y0445571D02*
D03*
X0520472Y0107874D02*
D03*
X0519035Y0445571D02*
D03*
D116*
X0618209Y0171358D02*
D03*
D117*
X0541437Y0123524D02*
D03*
X0588681D02*
D03*
Y0151083D02*
D03*
X0541437D02*
D03*
D118*
X0379390Y0176543D02*
D03*
X0383720D02*
D03*
X0379390Y0180874D02*
D03*
X0383720D02*
D03*
X0332973Y0424803D02*
D03*
X0337303Y0424803D02*
D03*
X0332972Y0429134D02*
D03*
X0337303Y0429134D02*
D03*
D159*
X0329449Y0184075D02*
D03*
Y0178957D02*
D03*
X0336929D02*
D03*
Y0181516D02*
D03*
Y0184075D02*
D03*
D184*
X0510446Y0159182D02*
D03*
X0489161Y0174086D02*
D03*
D205*
X0457874Y0336319D02*
D03*
X0465748D02*
D03*
D208*
X0529587Y0361811D02*
D03*
Y0353937D02*
D03*
D263*
X0377260Y0291732D02*
D03*
X0383567Y0289173D02*
D03*
X0230115Y0298425D02*
D03*
X0236421Y0295866D02*
D03*
X0314472Y0296063D02*
D03*
X0308166Y0298622D02*
D03*
X0326578Y0286417D02*
D03*
X0320272Y0288976D02*
D03*
X0248130Y0286417D02*
D03*
X0241824Y0288976D02*
D03*
X0162504Y0288681D02*
D03*
X0156197Y0291240D02*
D03*
D264*
X0383567Y0294291D02*
D03*
X0236421Y0300984D02*
D03*
X0314472Y0301181D02*
D03*
X0326578Y0291535D02*
D03*
X0248130D02*
D03*
X0162504Y0293799D02*
D03*
D272*
X0357677Y0399413D02*
D03*
X0355118Y0392713D02*
D03*
X0195768Y0445870D02*
D03*
X0193209Y0439170D02*
D03*
D273*
X0360236Y0392713D02*
D03*
X0190650Y0445870D02*
D03*
D274*
X0171850Y0359547D02*
D03*
X0404921Y0350295D02*
D03*
D275*
X0162500Y0359547D02*
D03*
X0395571Y0350295D02*
D03*
D289*
X0125886Y0320870D02*
D03*
X0343602Y0318606D02*
D03*
D290*
X0131004Y0320870D02*
D03*
X0128445Y0314563D02*
D03*
X0348721Y0318606D02*
D03*
X0346161Y0312299D02*
D03*
D300*
X0517766Y0521506D02*
D03*
D301*
X0761264Y0273224D02*
D03*
X0750043D02*
D03*
X0714512Y0273220D02*
D03*
X0725732D02*
D03*
X0732228D02*
D03*
X0743449D02*
D03*
X0531496Y0459547D02*
D03*
X0542717Y0459547D02*
D03*
X0549213Y0459547D02*
D03*
X0560433D02*
D03*
X0577461Y0459449D02*
D03*
X0566240D02*
D03*
D302*
X0688937Y0272953D02*
D03*
X0700157D02*
D03*
X0525000Y0459449D02*
D03*
X0513779D02*
D03*
D303*
X0444157Y0240550D02*
D03*
X0437464D02*
D03*
D304*
X0308366Y0238386D02*
D03*
Y0232874D02*
D03*
X0574764Y0285630D02*
D03*
Y0280118D02*
D03*
X0544488Y0275689D02*
D03*
Y0281201D02*
D03*
X0550295Y0275689D02*
D03*
Y0281201D02*
D03*
X0400197Y0421654D02*
D03*
Y0427165D02*
D03*
X0210236Y0457776D02*
D03*
Y0452264D02*
D03*
D305*
X0256807Y0219611D02*
D03*
X0252910Y0223509D02*
D03*
X0254154Y0120945D02*
D03*
X0258051Y0117047D02*
D03*
X0268779Y0112717D02*
D03*
X0264882Y0116614D02*
D03*
X0257625Y0228193D02*
D03*
X0261522Y0224296D02*
D03*
X0120650Y0329154D02*
D03*
X0116752Y0333051D02*
D03*
D306*
X0440256Y0249311D02*
D03*
Y0260335D02*
D03*
X0581595Y0198425D02*
D03*
Y0209449D02*
D03*
X0169783Y0301673D02*
D03*
Y0290650D02*
D03*
X0184055Y0358366D02*
D03*
Y0369390D02*
D03*
X0186516Y0404429D02*
D03*
Y0415453D02*
D03*
X0411024Y0293012D02*
D03*
Y0281988D02*
D03*
X0412894Y0349311D02*
D03*
Y0360335D02*
D03*
X0411221Y0396063D02*
D03*
Y0407087D02*
D03*
D307*
X0373681Y0164567D02*
D03*
X0353681D02*
D03*
X0363681D02*
D03*
X0383681D02*
D03*
X0393681D02*
D03*
X0403681D02*
D03*
D308*
X0203504Y0388504D02*
D03*
Y0391850D02*
D03*
X0301378Y0330906D02*
D03*
Y0334252D02*
D03*
D309*
X0348091Y0177736D02*
D03*
X0344547D02*
D03*
D310*
X0290579Y0206547D02*
D03*
X0287099Y0210027D02*
D03*
D311*
X0517849Y0147928D02*
D03*
X0509080Y0139159D02*
D03*
X0526506Y0135364D02*
D03*
X0517736Y0126594D02*
D03*
D312*
X0528484Y0081831D02*
D03*
X0516083Y0081831D02*
D03*
X0528484Y0067008D02*
D03*
X0516083Y0067008D02*
D03*
X0578642Y0236713D02*
D03*
X0566240Y0236713D02*
D03*
D313*
X0494193Y0524311D02*
D03*
X0500098D02*
D03*
X0270050Y0107065D02*
D03*
X0275955D02*
D03*
X0384016Y0189535D02*
D03*
X0389921D02*
D03*
X0531929Y0367520D02*
D03*
X0526024D02*
D03*
D314*
X0232776Y0404331D02*
D03*
X0237894D02*
D03*
X0366004Y0184122D02*
D03*
X0371122D02*
D03*
D315*
X0393838Y0424302D02*
D03*
X0385964Y0428042D02*
D03*
Y0420562D02*
D03*
X0351772Y0145571D02*
D03*
X0343898Y0149311D02*
D03*
Y0141831D02*
D03*
D316*
X0264427Y0220203D02*
D03*
X0260251Y0216027D02*
D03*
D317*
X0309744Y0142874D02*
D03*
Y0139409D02*
D03*
X0269488Y0422106D02*
D03*
Y0418642D02*
D03*
X0308169Y0193563D02*
D03*
Y0190098D02*
D03*
X0298917Y0193465D02*
D03*
Y0190000D02*
D03*
X0303543Y0193563D02*
D03*
Y0190098D02*
D03*
X0289173Y0191102D02*
D03*
Y0187638D02*
D03*
D318*
X0261525Y0120365D02*
D03*
X0257767Y0124123D02*
D03*
X0278141Y0129143D02*
D03*
X0281899Y0125385D02*
D03*
D319*
X0257323Y0400984D02*
D03*
X0260787D02*
D03*
Y0404528D02*
D03*
X0257323D02*
D03*
X0288917Y0420177D02*
D03*
X0292382D02*
D03*
X0283660Y0170661D02*
D03*
X0287125D02*
D03*
X0283660Y0175672D02*
D03*
X0287125D02*
D03*
D320*
X0346654Y0422146D02*
D03*
Y0427264D02*
D03*
D321*
X0225295Y0415846D02*
D03*
X0214272D02*
D03*
X0181595Y0312402D02*
D03*
X0170571D02*
D03*
X0425098Y0301673D02*
D03*
X0414075D02*
D03*
X0549803Y0513878D02*
D03*
X0560827D02*
D03*
D322*
X0284002Y0201955D02*
D03*
X0280244Y0198197D02*
D03*
D323*
X0378189Y0205709D02*
D03*
Y0211614D02*
D03*
X0551279Y0386476D02*
D03*
Y0380571D02*
D03*
X0452559Y0339567D02*
D03*
Y0333661D02*
D03*
D324*
X0513287Y0376870D02*
D03*
X0519390D02*
D03*
D325*
X0516910Y0359626D02*
D03*
Y0371437D02*
D03*
X0445571Y0342421D02*
D03*
Y0330610D02*
D03*
D326*
X0536988Y0375000D02*
D03*
X0525177D02*
D03*
X0455984Y0277165D02*
D03*
X0444173D02*
D03*
D327*
X0432362Y0262165D02*
D03*
Y0257165D02*
D03*
Y0252165D02*
D03*
Y0247165D02*
D03*
X0411102Y0262165D02*
D03*
Y0257165D02*
D03*
Y0252165D02*
D03*
Y0247165D02*
D03*
X0209055Y0378327D02*
D03*
Y0383327D02*
D03*
Y0388327D02*
D03*
Y0393327D02*
D03*
X0230315Y0378327D02*
D03*
Y0383327D02*
D03*
Y0388327D02*
D03*
Y0393327D02*
D03*
D328*
X0305020Y0334646D02*
D03*
Y0330709D02*
D03*
D329*
X0297638Y0330945D02*
D03*
Y0334409D02*
D03*
D330*
X0230315Y0428937D02*
D03*
X0235827D02*
D03*
X0158465Y0303150D02*
D03*
X0163976D02*
D03*
X0287402Y0377067D02*
D03*
X0292913D02*
D03*
X0307764Y0108442D02*
D03*
X0302252D02*
D03*
X0290551Y0103150D02*
D03*
X0296063D02*
D03*
X0366437Y0427264D02*
D03*
X0371949D02*
D03*
X0246063Y0333957D02*
D03*
X0240551D02*
D03*
X0354823Y0382087D02*
D03*
X0360335D02*
D03*
X0240453Y0357716D02*
D03*
X0245965D02*
D03*
X0244859Y0167042D02*
D03*
X0239347Y0167042D02*
D03*
X0261566Y0174625D02*
D03*
X0256054D02*
D03*
X0230709Y0330807D02*
D03*
X0225197D02*
D03*
X0309449Y0311122D02*
D03*
X0314961D02*
D03*
X0135335Y0342618D02*
D03*
X0129823D02*
D03*
X0344094Y0328642D02*
D03*
X0349606D02*
D03*
D331*
X0566260Y0325177D02*
D03*
Y0330177D02*
D03*
X0102539Y0336299D02*
D03*
X0087815D02*
D03*
X0102539Y0341299D02*
D03*
X0087815D02*
D03*
X0102539Y0346299D02*
D03*
X0087815D02*
D03*
X0102539Y0351299D02*
D03*
X0087815D02*
D03*
X0566260Y0340177D02*
D03*
X0580984D02*
D03*
X0566260Y0335177D02*
D03*
X0580984D02*
D03*
Y0330177D02*
D03*
Y0325177D02*
D03*
D332*
X0556693Y0241831D02*
D03*
X0560433Y0250886D02*
D03*
X0552953D02*
D03*
X0248942Y0105824D02*
D03*
X0256422Y0095588D02*
D03*
X0252682Y0095588D02*
D03*
X0248942D02*
D03*
X0256422Y0105824D02*
D03*
X0308366Y0512106D02*
D03*
X0300886Y0522342D02*
D03*
X0304626D02*
D03*
X0308366D02*
D03*
X0300886Y0512106D02*
D03*
X0283465Y0301870D02*
D03*
X0290945Y0312106D02*
D03*
X0287205D02*
D03*
X0283465D02*
D03*
X0290945Y0301870D02*
D03*
X0287205D02*
D03*
X0205709Y0301575D02*
D03*
X0213189Y0311811D02*
D03*
X0209449D02*
D03*
X0205709D02*
D03*
X0213189Y0301575D02*
D03*
X0209449D02*
D03*
X0134449Y0301870D02*
D03*
X0141929Y0312106D02*
D03*
X0138189D02*
D03*
X0134449D02*
D03*
X0141929Y0301870D02*
D03*
X0138189D02*
D03*
X0353150Y0300886D02*
D03*
X0360630Y0311122D02*
D03*
X0356890D02*
D03*
X0353150D02*
D03*
X0360630Y0300886D02*
D03*
X0356890D02*
D03*
D333*
X0277067Y0320354D02*
D03*
Y0305630D02*
D03*
X0272067Y0320354D02*
D03*
Y0305630D02*
D03*
X0267067Y0320354D02*
D03*
Y0305630D02*
D03*
X0262067Y0320354D02*
D03*
Y0305630D02*
D03*
X0257067Y0320354D02*
D03*
Y0305630D02*
D03*
X0252067Y0320354D02*
D03*
Y0305630D02*
D03*
X0458681Y0320354D02*
D03*
Y0305630D02*
D03*
X0453681Y0320354D02*
D03*
Y0305630D02*
D03*
X0448681Y0320354D02*
D03*
Y0305630D02*
D03*
X0443681Y0320354D02*
D03*
Y0305630D02*
D03*
D334*
X0433819Y0292717D02*
D03*
X0425039D02*
D03*
D335*
X0185335Y0292165D02*
D03*
Y0300945D02*
D03*
D336*
X0426673Y0283169D02*
D03*
X0432776D02*
D03*
D337*
X0192028Y0293701D02*
D03*
Y0299803D02*
D03*
D338*
X0513779Y0546555D02*
D03*
Y0541240D02*
D03*
D339*
X0518898Y0546555D02*
D03*
Y0541240D02*
D03*
X0545374Y0268799D02*
D03*
Y0263484D02*
D03*
D340*
X0513878Y0536713D02*
D03*
X0519193D02*
D03*
X0530118Y0533268D02*
D03*
X0524803D02*
D03*
D341*
X0506398Y0536614D02*
D03*
Y0541535D02*
D03*
D342*
X0511713Y0526279D02*
D03*
D343*
X0508760Y0520374D02*
D03*
X0510728Y0520374D02*
D03*
X0512697D02*
D03*
X0514665Y0520374D02*
D03*
Y0532185D02*
D03*
X0512697Y0532185D02*
D03*
X0510728D02*
D03*
X0508760D02*
D03*
D344*
X0517618Y0523327D02*
D03*
X0517618Y0525295D02*
D03*
Y0527264D02*
D03*
Y0529232D02*
D03*
X0505807D02*
D03*
X0505807Y0527264D02*
D03*
Y0525295D02*
D03*
X0505807Y0523327D02*
D03*
D345*
X0542717Y0513878D02*
D03*
X0525000D02*
D03*
D346*
X0514862Y0505610D02*
D03*
D347*
Y0515650D02*
D03*
D348*
X0499902Y0517815D02*
D03*
X0499902Y0506791D02*
D03*
X0487992Y0517913D02*
D03*
Y0506890D02*
D03*
X0475984Y0517815D02*
D03*
X0475984Y0506791D02*
D03*
X0453051Y0517815D02*
D03*
X0453051Y0506791D02*
D03*
D349*
X0450295Y0523327D02*
D03*
X0455807D02*
D03*
X0524705Y0528248D02*
D03*
X0530217D02*
D03*
D350*
X0467520Y0507087D02*
D03*
X0461417D02*
D03*
D351*
X0494587Y0536417D02*
D03*
X0499902D02*
D03*
D352*
X0530020Y0543110D02*
D03*
X0524902D02*
D03*
D353*
X0525000Y0538189D02*
D03*
X0529921D02*
D03*
D354*
X0471850Y0341319D02*
D03*
X0496063D02*
D03*
Y0331319D02*
D03*
X0471850D02*
D03*
D355*
X0531083Y0346555D02*
D03*
Y0322342D02*
D03*
X0521083D02*
D03*
Y0346555D02*
D03*
D356*
X0571654Y0257185D02*
D03*
X0576968D02*
D03*
D357*
X0591339Y0200374D02*
D03*
X0591339Y0187500D02*
D03*
D358*
X0591516Y0206279D02*
D03*
Y0220846D02*
D03*
D359*
X0588878Y0338091D02*
D03*
Y0332972D02*
D03*
Y0323228D02*
D03*
Y0328346D02*
D03*
D360*
X0569685Y0347638D02*
D03*
X0559685Y0383858D02*
D03*
Y0347638D02*
D03*
X0569685Y0383858D02*
D03*
D361*
X0319783Y0189961D02*
D03*
X0319783Y0193504D02*
D03*
X0316142Y0190059D02*
D03*
Y0193602D02*
D03*
X0318110Y0139272D02*
D03*
X0276378Y0419587D02*
D03*
Y0423130D02*
D03*
X0294291Y0189469D02*
D03*
Y0193012D02*
D03*
X0318110Y0142815D02*
D03*
X0305413Y0131496D02*
D03*
Y0135039D02*
D03*
X0261713Y0184941D02*
D03*
Y0181398D02*
D03*
X0299410Y0131496D02*
D03*
Y0135039D02*
D03*
X0312697Y0193602D02*
D03*
X0312697Y0190059D02*
D03*
D362*
X0289969Y0214123D02*
D03*
X0302497Y0216071D02*
D03*
X0299852Y0218716D02*
D03*
X0297207Y0221361D02*
D03*
X0295259Y0208833D02*
D03*
X0281914Y0206827D02*
D03*
X0269387Y0204878D02*
D03*
X0272032Y0202233D02*
D03*
X0274676Y0199589D02*
D03*
X0276625Y0212116D02*
D03*
D363*
X0342953Y0210925D02*
D03*
X0336850D02*
D03*
X0222638Y0409055D02*
D03*
X0216535D02*
D03*
X0368406Y0189764D02*
D03*
X0362303D02*
D03*
X0225886Y0403543D02*
D03*
X0219783D02*
D03*
X0219685Y0398425D02*
D03*
X0225787D02*
D03*
X0383071Y0299606D02*
D03*
X0376969D02*
D03*
X0304921Y0318996D02*
D03*
X0298819D02*
D03*
X0225886Y0321161D02*
D03*
X0219783D02*
D03*
X0149606Y0323917D02*
D03*
X0155709D02*
D03*
D364*
X0216535Y0091634D02*
D03*
X0205118D02*
D03*
X0216400Y0110640D02*
D03*
X0204983D02*
D03*
X0179626Y0110728D02*
D03*
X0168209D02*
D03*
X0198031D02*
D03*
X0186614D02*
D03*
X0179823Y0091732D02*
D03*
X0168405D02*
D03*
X0198130Y0091732D02*
D03*
X0186713D02*
D03*
X0491142Y0066929D02*
D03*
X0479724D02*
D03*
X0508957D02*
D03*
X0497539D02*
D03*
X0473327D02*
D03*
X0461909D02*
D03*
X0491043Y0081890D02*
D03*
X0479626D02*
D03*
X0508858D02*
D03*
X0497441D02*
D03*
X0473130D02*
D03*
X0461713D02*
D03*
X0473032Y0097047D02*
D03*
X0461614D02*
D03*
X0473032Y0112008D02*
D03*
X0461614D02*
D03*
D365*
X0222957Y0103757D02*
D03*
X0222957Y0097852D02*
D03*
X0429921Y0065551D02*
D03*
X0455610Y0102067D02*
D03*
Y0107973D02*
D03*
Y0077362D02*
D03*
Y0071457D02*
D03*
X0429724Y0114567D02*
D03*
Y0108661D02*
D03*
Y0100591D02*
D03*
Y0094685D02*
D03*
X0429921Y0071457D02*
D03*
X0429823Y0078937D02*
D03*
Y0084842D02*
D03*
D366*
X0233390Y0097064D02*
D03*
X0228666D02*
D03*
X0233489Y0104544D02*
D03*
X0228765D02*
D03*
X0449311Y0107874D02*
D03*
X0444587D02*
D03*
X0444587Y0102067D02*
D03*
X0449311D02*
D03*
X0444587Y0072342D02*
D03*
X0449311D02*
D03*
X0444587Y0078248D02*
D03*
X0449311D02*
D03*
D367*
X0234867Y0089978D02*
D03*
X0229749D02*
D03*
X0234769Y0111828D02*
D03*
X0229650D02*
D03*
X0435433Y0065453D02*
D03*
X0435039Y0114764D02*
D03*
X0440158D02*
D03*
X0440551Y0065453D02*
D03*
X0440256Y0085039D02*
D03*
X0435138D02*
D03*
X0440453Y0094882D02*
D03*
X0435335D02*
D03*
D368*
X0240772Y0089978D02*
D03*
X0246678Y0089978D02*
D03*
X0240772Y0111730D02*
D03*
X0246678D02*
D03*
X0267559Y0444291D02*
D03*
X0274016D02*
D03*
X0281594Y0428248D02*
D03*
X0275689D02*
D03*
X0260335Y0428642D02*
D03*
X0266240D02*
D03*
D369*
X0241166Y0104643D02*
D03*
X0238607Y0097163D02*
D03*
X0243725D02*
D03*
X0440158Y0101279D02*
D03*
X0435039D02*
D03*
X0437598Y0108760D02*
D03*
X0437500Y0071457D02*
D03*
X0440059Y0078937D02*
D03*
X0434941D02*
D03*
D370*
X0093898Y0181063D02*
D03*
Y0192283D02*
D03*
X0618307Y0153642D02*
D03*
Y0164862D02*
D03*
Y0147343D02*
D03*
Y0136122D02*
D03*
Y0129921D02*
D03*
Y0118701D02*
D03*
X0125197Y0406496D02*
D03*
Y0417717D02*
D03*
X0139862Y0406595D02*
D03*
Y0417815D02*
D03*
X0107480Y0198878D02*
D03*
Y0187657D02*
D03*
D371*
X0261240Y0128563D02*
D03*
X0265138Y0132460D02*
D03*
D372*
X0282855Y0117554D02*
D03*
X0281045Y0115745D02*
D03*
X0279236Y0113935D02*
D03*
X0277426Y0112126D02*
D03*
X0265177Y0124375D02*
D03*
X0266986Y0126184D02*
D03*
X0268796Y0127994D02*
D03*
X0270605Y0129803D02*
D03*
D373*
X0283295Y0138314D02*
D03*
X0285800Y0140820D02*
D03*
X0286543Y0135066D02*
D03*
X0289048Y0137572D02*
D03*
D374*
X0290989Y0145910D02*
D03*
X0288539Y0143460D02*
D03*
X0291688Y0140409D02*
D03*
X0294138Y0142859D02*
D03*
D375*
X0296304Y0146019D02*
D03*
X0293854Y0148469D02*
D03*
D376*
X0413445Y0078937D02*
D03*
X0210216Y0446358D02*
D03*
X0215216D02*
D03*
X0220216D02*
D03*
X0225217D02*
D03*
X0210216Y0425098D02*
D03*
X0215216D02*
D03*
X0220216D02*
D03*
X0225217D02*
D03*
X0408445Y0100197D02*
D03*
X0413445D02*
D03*
X0418445D02*
D03*
X0423445D02*
D03*
X0408445Y0078937D02*
D03*
X0418445D02*
D03*
X0423445D02*
D03*
D377*
X0218799Y0454331D02*
D03*
X0225492D02*
D03*
D378*
X0230610Y0434646D02*
D03*
Y0439961D02*
D03*
X0320276Y0345571D02*
D03*
Y0340256D02*
D03*
X0313681Y0345571D02*
D03*
Y0340256D02*
D03*
D379*
X0283465Y0422894D02*
D03*
Y0419429D02*
D03*
X0272933Y0422106D02*
D03*
Y0418642D02*
D03*
X0294390Y0200059D02*
D03*
Y0196595D02*
D03*
X0314173Y0142874D02*
D03*
Y0139409D02*
D03*
X0299606Y0142973D02*
D03*
Y0139508D02*
D03*
X0304724Y0139508D02*
D03*
Y0142972D02*
D03*
X0286861Y0162184D02*
D03*
X0286861Y0158720D02*
D03*
D380*
X0281496Y0439173D02*
D03*
Y0434055D02*
D03*
X0260433Y0439468D02*
D03*
Y0434350D02*
D03*
D381*
X0261024Y0391240D02*
D03*
X0257480D02*
D03*
X0348248Y0184862D02*
D03*
X0344705D02*
D03*
X0344528Y0174331D02*
D03*
X0348071D02*
D03*
X0336772Y0170236D02*
D03*
X0333228D02*
D03*
X0336752Y0174291D02*
D03*
X0333209D02*
D03*
X0336811Y0166535D02*
D03*
X0333268D02*
D03*
X0275984Y0163681D02*
D03*
X0272441D02*
D03*
X0275984Y0157283D02*
D03*
X0272441D02*
D03*
X0344587Y0181299D02*
D03*
X0348130D02*
D03*
D382*
X0257421Y0394980D02*
D03*
X0260886D02*
D03*
X0279817Y0168086D02*
D03*
X0276353D02*
D03*
X0304390Y0146850D02*
D03*
X0300925D02*
D03*
X0283081Y0162913D02*
D03*
X0279617D02*
D03*
X0279617Y0158385D02*
D03*
X0283081D02*
D03*
D383*
X0423819Y0449311D02*
D03*
X0415945D02*
D03*
D384*
X0419488Y0482382D02*
D03*
X0166535Y0386713D02*
D03*
X0392815Y0379331D02*
D03*
X0170965Y0324213D02*
D03*
X0411024Y0312598D02*
D03*
D385*
X0410433Y0456398D02*
D03*
X0175591Y0412697D02*
D03*
X0401870Y0405315D02*
D03*
X0180020Y0350197D02*
D03*
X0420079Y0338583D02*
D03*
D386*
X0428543Y0456398D02*
D03*
X0157480Y0412697D02*
D03*
X0383760Y0405315D02*
D03*
X0161909Y0350197D02*
D03*
X0401968Y0338583D02*
D03*
D387*
X0375492Y0446949D02*
D03*
D388*
X0401476Y0437894D02*
D03*
D389*
Y0456004D02*
D03*
D390*
X0287106Y0454921D02*
D03*
X0292618D02*
D03*
D391*
X0375847Y0174969D02*
D03*
X0375847Y0178709D02*
D03*
X0375847Y0182449D02*
D03*
X0387264D02*
D03*
Y0178709D02*
D03*
X0387264Y0174969D02*
D03*
X0329429Y0430709D02*
D03*
Y0426968D02*
D03*
Y0423228D02*
D03*
X0340846D02*
D03*
X0340846Y0426968D02*
D03*
X0340846Y0430709D02*
D03*
D392*
X0381555Y0178709D02*
D03*
X0335138Y0426968D02*
D03*
D393*
X0290256Y0115453D02*
D03*
Y0120965D02*
D03*
X0249262Y0157007D02*
D03*
Y0162519D02*
D03*
X0313681Y0351181D02*
D03*
X0313681Y0356693D02*
D03*
X0319390Y0351181D02*
D03*
X0319390Y0356693D02*
D03*
X0326181Y0322736D02*
D03*
Y0328248D02*
D03*
X0331693Y0298425D02*
D03*
X0331693Y0303937D02*
D03*
X0241043Y0295768D02*
D03*
Y0301279D02*
D03*
X0257776Y0291240D02*
D03*
Y0285728D02*
D03*
X0200590Y0444685D02*
D03*
X0200591Y0439173D02*
D03*
X0399016Y0304232D02*
D03*
Y0298721D02*
D03*
D394*
X0328937Y0162205D02*
D03*
X0334252D02*
D03*
X0298721Y0425394D02*
D03*
X0304035D02*
D03*
X0355020Y0387008D02*
D03*
X0360335D02*
D03*
X0326279Y0317224D02*
D03*
X0320965D02*
D03*
X0190354Y0451378D02*
D03*
X0195669D02*
D03*
X0139370Y0342618D02*
D03*
X0144685D02*
D03*
X0123721Y0325590D02*
D03*
X0129035D02*
D03*
X0344193Y0323819D02*
D03*
X0349508D02*
D03*
D395*
X0367224Y0145669D02*
D03*
X0373524D02*
D03*
D396*
X0306550Y0167738D02*
D03*
D397*
X0320329Y0156912D02*
D03*
Y0158880D02*
D03*
Y0160849D02*
D03*
Y0162817D02*
D03*
Y0164786D02*
D03*
Y0166754D02*
D03*
Y0168723D02*
D03*
Y0170691D02*
D03*
Y0172660D02*
D03*
Y0174628D02*
D03*
Y0176597D02*
D03*
Y0178565D02*
D03*
X0292770Y0178565D02*
D03*
Y0176597D02*
D03*
X0292770Y0174628D02*
D03*
Y0172660D02*
D03*
Y0170691D02*
D03*
X0292770Y0168723D02*
D03*
X0292770Y0166754D02*
D03*
X0292770Y0164786D02*
D03*
Y0162817D02*
D03*
Y0160849D02*
D03*
X0292770Y0158880D02*
D03*
Y0156912D02*
D03*
D398*
X0317377Y0181518D02*
D03*
X0315408D02*
D03*
X0313440D02*
D03*
X0311471D02*
D03*
X0309503D02*
D03*
X0307534D02*
D03*
X0305566D02*
D03*
X0303597D02*
D03*
X0301629D02*
D03*
X0299660D02*
D03*
X0297692D02*
D03*
X0295723D02*
D03*
Y0153959D02*
D03*
X0297692D02*
D03*
X0299660D02*
D03*
X0301629D02*
D03*
X0303597D02*
D03*
X0305566D02*
D03*
X0307534Y0153959D02*
D03*
X0309503D02*
D03*
X0311471D02*
D03*
X0313440D02*
D03*
X0315408Y0153959D02*
D03*
X0317377D02*
D03*
D399*
X0262648Y0151003D02*
D03*
X0260089D02*
D03*
X0257530D02*
D03*
X0254971D02*
D03*
X0254971Y0168326D02*
D03*
X0257530D02*
D03*
X0260089D02*
D03*
X0262648D02*
D03*
D400*
X0313739Y0121954D02*
D03*
X0313739Y0119395D02*
D03*
X0313739Y0116836D02*
D03*
X0313739Y0114277D02*
D03*
X0296416Y0114277D02*
D03*
Y0116836D02*
D03*
Y0119395D02*
D03*
Y0121954D02*
D03*
D401*
X0498033Y0107797D02*
D03*
X0489959Y0099723D02*
D03*
X0512167Y0121615D02*
D03*
X0504093Y0113542D02*
D03*
X0502482Y0133308D02*
D03*
X0494408Y0125235D02*
D03*
X0489588Y0120769D02*
D03*
X0481515Y0112696D02*
D03*
X0131790Y0450885D02*
D03*
X0139863Y0458958D02*
D03*
X0145865Y0446259D02*
D03*
X0153938Y0454332D02*
D03*
D402*
X0276751Y0236734D02*
D03*
X0280926Y0232558D02*
D03*
D403*
X0260826Y0464371D02*
D03*
X0268899Y0456298D02*
D03*
X0246456Y0460434D02*
D03*
X0254529Y0452361D02*
D03*
D404*
X0266043Y0439075D02*
D03*
Y0434350D02*
D03*
X0275394Y0438681D02*
D03*
Y0433957D02*
D03*
X0319783Y0443012D02*
D03*
Y0447736D02*
D03*
X0325098D02*
D03*
Y0443012D02*
D03*
D405*
X0311516Y0200591D02*
D03*
Y0205906D02*
D03*
X0317028Y0206004D02*
D03*
X0317028Y0200689D02*
D03*
X0252756Y0291142D02*
D03*
Y0285827D02*
D03*
X0281398Y0448917D02*
D03*
Y0443602D02*
D03*
X0300098Y0200591D02*
D03*
Y0205906D02*
D03*
X0231004Y0325984D02*
D03*
Y0320669D02*
D03*
X0331496Y0291142D02*
D03*
Y0285827D02*
D03*
X0404134Y0304331D02*
D03*
X0404134Y0298622D02*
D03*
D406*
X0258390Y0201537D02*
D03*
X0262566Y0205713D02*
D03*
X0280041Y0221871D02*
D03*
X0275865Y0217695D02*
D03*
D407*
X0249900Y0210307D02*
D03*
X0254632Y0205574D02*
D03*
X0254076Y0214622D02*
D03*
X0258808Y0209889D02*
D03*
X0267122Y0225890D02*
D03*
X0271854Y0221157D02*
D03*
X0271256Y0230024D02*
D03*
X0275988Y0225291D02*
D03*
D408*
X0266819Y0208838D02*
D03*
X0263200Y0212457D02*
D03*
X0270299Y0215937D02*
D03*
D409*
X0135827Y0287795D02*
D03*
Y0295669D02*
D03*
X0143110Y0287598D02*
D03*
Y0295472D02*
D03*
X0288386Y0296161D02*
D03*
Y0288287D02*
D03*
X0281594Y0296161D02*
D03*
Y0288287D02*
D03*
X0212992Y0295669D02*
D03*
Y0287795D02*
D03*
X0206299Y0295669D02*
D03*
Y0287795D02*
D03*
X0128740Y0308760D02*
D03*
Y0300886D02*
D03*
X0352756Y0296260D02*
D03*
Y0288386D02*
D03*
X0359449Y0296260D02*
D03*
Y0288386D02*
D03*
X0346161Y0308563D02*
D03*
Y0300689D02*
D03*
D410*
X0235728Y0328346D02*
D03*
X0240846D02*
D03*
X0238287Y0320669D02*
D03*
X0149882Y0336319D02*
D03*
X0155000D02*
D03*
X0152441Y0328642D02*
D03*
D411*
X0301969Y0310335D02*
D03*
Y0303642D02*
D03*
X0224410Y0304528D02*
D03*
Y0311221D02*
D03*
X0152756Y0303248D02*
D03*
Y0309941D02*
D03*
X0371260Y0302362D02*
D03*
Y0309055D02*
D03*
D412*
X0229921Y0290492D02*
D03*
X0237795D02*
D03*
X0307480Y0290374D02*
D03*
X0315354D02*
D03*
D413*
X0620866Y0283681D02*
D03*
X0585157D02*
D03*
X0620866Y0273681D02*
D03*
X0585157D02*
D03*
D414*
X0346555Y0350571D02*
D03*
Y0360571D02*
D03*
Y0370571D02*
D03*
Y0390571D02*
D03*
Y0400571D02*
D03*
Y0380571D02*
D03*
D415*
X0333425Y0374705D02*
D03*
X0338622D02*
D03*
X0333425Y0379626D02*
D03*
X0338622D02*
D03*
X0301909Y0377067D02*
D03*
X0296713D02*
D03*
X0314705Y0306201D02*
D03*
X0309508D02*
D03*
X0163524Y0298524D02*
D03*
X0158327D02*
D03*
X0392953Y0289154D02*
D03*
X0387756Y0289154D02*
D03*
D416*
X0367913Y0407874D02*
D03*
X0370472Y0407874D02*
D03*
X0373031Y0407874D02*
D03*
Y0415354D02*
D03*
X0370472D02*
D03*
X0367913D02*
D03*
X0178445Y0427461D02*
D03*
X0175886D02*
D03*
X0173327D02*
D03*
Y0434941D02*
D03*
X0175886Y0434941D02*
D03*
X0178445Y0434941D02*
D03*
D417*
X0235531Y0340453D02*
D03*
X0235531Y0337894D02*
D03*
X0235531Y0335335D02*
D03*
X0225886D02*
D03*
Y0340453D02*
D03*
D418*
X0316240Y0334646D02*
D03*
X0318799Y0334646D02*
D03*
X0321358Y0334646D02*
D03*
Y0325000D02*
D03*
X0316240D02*
D03*
D419*
X0245669Y0347047D02*
D03*
X0240354D02*
D03*
X0245866Y0339469D02*
D03*
X0240551D02*
D03*
D420*
X0393327Y0320354D02*
D03*
Y0305630D02*
D03*
X0388327Y0320354D02*
D03*
Y0305630D02*
D03*
X0383327Y0320354D02*
D03*
Y0305630D02*
D03*
X0378327Y0320354D02*
D03*
Y0305630D02*
D03*
D421*
X0282579Y0413878D02*
D03*
X0280610D02*
D03*
X0278642D02*
D03*
X0276673Y0413878D02*
D03*
X0274705Y0394587D02*
D03*
X0276673D02*
D03*
X0278642Y0394587D02*
D03*
X0280610D02*
D03*
X0282579D02*
D03*
X0284547D02*
D03*
X0286516Y0394587D02*
D03*
X0288484D02*
D03*
Y0413878D02*
D03*
X0286516D02*
D03*
X0284547Y0413878D02*
D03*
X0274705Y0413878D02*
D03*
D422*
X0271949Y0405217D02*
D03*
Y0407185D02*
D03*
X0271949Y0409154D02*
D03*
X0291240Y0397342D02*
D03*
Y0399311D02*
D03*
X0291240Y0401279D02*
D03*
Y0403248D02*
D03*
Y0405217D02*
D03*
Y0407185D02*
D03*
X0291240Y0409154D02*
D03*
Y0411122D02*
D03*
X0271949D02*
D03*
X0271949Y0403248D02*
D03*
Y0401279D02*
D03*
X0271949Y0399311D02*
D03*
Y0397342D02*
D03*
D423*
X0281594Y0404232D02*
D03*
D424*
X0210236Y0323819D02*
D03*
X0215354D02*
D03*
Y0331890D02*
D03*
X0212795D02*
D03*
X0210236D02*
D03*
X0288386Y0325295D02*
D03*
X0293504D02*
D03*
Y0333366D02*
D03*
X0290945D02*
D03*
X0288386D02*
D03*
X0139567Y0324016D02*
D03*
X0144685D02*
D03*
Y0332087D02*
D03*
X0142126D02*
D03*
X0139567D02*
D03*
D425*
X0283465Y0316339D02*
D03*
Y0320276D02*
D03*
X0290945Y0316339D02*
D03*
Y0320276D02*
D03*
X0208071Y0315945D02*
D03*
Y0319882D02*
D03*
X0213681Y0315945D02*
D03*
Y0319882D02*
D03*
X0135630Y0316339D02*
D03*
Y0320276D02*
D03*
X0141437Y0316339D02*
D03*
Y0320276D02*
D03*
X0360630Y0315551D02*
D03*
Y0319488D02*
D03*
X0353150Y0315551D02*
D03*
Y0319488D02*
D03*
D426*
X0327067Y0312205D02*
D03*
Y0307087D02*
D03*
X0319390Y0309646D02*
D03*
X0396850Y0291634D02*
D03*
X0404528Y0289075D02*
D03*
Y0294193D02*
D03*
D427*
X0186614Y0396260D02*
D03*
Y0379724D02*
D03*
X0190256Y0345276D02*
D03*
Y0328740D02*
D03*
X0430413Y0312894D02*
D03*
Y0329429D02*
D03*
X0413583Y0387205D02*
D03*
Y0370669D02*
D03*
D428*
X0175984Y0376969D02*
D03*
X0164370D02*
D03*
X0390945Y0369291D02*
D03*
X0402559D02*
D03*
D429*
X0162402Y0368209D02*
D03*
X0172244D02*
D03*
X0405020Y0358957D02*
D03*
X0395177D02*
D03*
D430*
X0177953Y0302067D02*
D03*
Y0290453D02*
D03*
X0419587Y0292913D02*
D03*
Y0281299D02*
D03*
D431*
X0387697Y0293661D02*
D03*
X0392815D02*
D03*
D432*
X0373130Y0290512D02*
D03*
X0366043D02*
D03*
D433*
X0353839Y0328642D02*
D03*
Y0323524D02*
D03*
X0361910D02*
D03*
Y0326083D02*
D03*
Y0328642D02*
D03*
M02*
