G04*
G04 #@! TF.GenerationSoftware,Altium Limited,Altium Designer,21.7.2 (23)*
G04*
G04 Layer_Color=8388736*
%FSAX25Y25*%
%MOIN*%
G70*
G04*
G04 #@! TF.SameCoordinates,25756C21-EA0E-48A6-96D4-99705350E32D*
G04*
G04*
G04 #@! TF.FilePolarity,Negative*
G04*
G01*
G75*
G04:AMPARAMS|DCode=19|XSize=25.59mil|YSize=27.56mil|CornerRadius=2.56mil|HoleSize=0mil|Usage=FLASHONLY|Rotation=225.000|XOffset=0mil|YOffset=0mil|HoleType=Round|Shape=RoundedRectangle|*
%AMROUNDEDRECTD19*
21,1,0.02559,0.02244,0,0,225.0*
21,1,0.02047,0.02756,0,0,225.0*
1,1,0.00512,-0.01517,0.00070*
1,1,0.00512,-0.00070,0.01517*
1,1,0.00512,0.01517,-0.00070*
1,1,0.00512,0.00070,-0.01517*
%
%ADD19ROUNDEDRECTD19*%
G04:AMPARAMS|DCode=59|XSize=40.16mil|YSize=32.28mil|CornerRadius=4.43mil|HoleSize=0mil|Usage=FLASHONLY|Rotation=90.000|XOffset=0mil|YOffset=0mil|HoleType=Round|Shape=RoundedRectangle|*
%AMROUNDEDRECTD59*
21,1,0.04016,0.02343,0,0,90.0*
21,1,0.03130,0.03228,0,0,90.0*
1,1,0.00886,0.01171,0.01565*
1,1,0.00886,0.01171,-0.01565*
1,1,0.00886,-0.01171,-0.01565*
1,1,0.00886,-0.01171,0.01565*
%
%ADD59ROUNDEDRECTD59*%
G04:AMPARAMS|DCode=60|XSize=44.09mil|YSize=36.22mil|CornerRadius=4.72mil|HoleSize=0mil|Usage=FLASHONLY|Rotation=270.000|XOffset=0mil|YOffset=0mil|HoleType=Round|Shape=RoundedRectangle|*
%AMROUNDEDRECTD60*
21,1,0.04409,0.02677,0,0,270.0*
21,1,0.03465,0.03622,0,0,270.0*
1,1,0.00945,-0.01339,-0.01732*
1,1,0.00945,-0.01339,0.01732*
1,1,0.00945,0.01339,0.01732*
1,1,0.00945,0.01339,-0.01732*
%
%ADD60ROUNDEDRECTD60*%
G04:AMPARAMS|DCode=61|XSize=42.13mil|YSize=36.22mil|CornerRadius=4.72mil|HoleSize=0mil|Usage=FLASHONLY|Rotation=90.000|XOffset=0mil|YOffset=0mil|HoleType=Round|Shape=RoundedRectangle|*
%AMROUNDEDRECTD61*
21,1,0.04213,0.02677,0,0,90.0*
21,1,0.03268,0.03622,0,0,90.0*
1,1,0.00945,0.01339,0.01634*
1,1,0.00945,0.01339,-0.01634*
1,1,0.00945,-0.01339,-0.01634*
1,1,0.00945,-0.01339,0.01634*
%
%ADD61ROUNDEDRECTD61*%
G04:AMPARAMS|DCode=62|XSize=42.13mil|YSize=36.22mil|CornerRadius=4.72mil|HoleSize=0mil|Usage=FLASHONLY|Rotation=0.000|XOffset=0mil|YOffset=0mil|HoleType=Round|Shape=RoundedRectangle|*
%AMROUNDEDRECTD62*
21,1,0.04213,0.02677,0,0,0.0*
21,1,0.03268,0.03622,0,0,0.0*
1,1,0.00945,0.01634,-0.01339*
1,1,0.00945,-0.01634,-0.01339*
1,1,0.00945,-0.01634,0.01339*
1,1,0.00945,0.01634,0.01339*
%
%ADD62ROUNDEDRECTD62*%
G04:AMPARAMS|DCode=63|XSize=61.81mil|YSize=34.25mil|CornerRadius=4.58mil|HoleSize=0mil|Usage=FLASHONLY|Rotation=90.000|XOffset=0mil|YOffset=0mil|HoleType=Round|Shape=RoundedRectangle|*
%AMROUNDEDRECTD63*
21,1,0.06181,0.02510,0,0,90.0*
21,1,0.05266,0.03425,0,0,90.0*
1,1,0.00915,0.01255,0.02633*
1,1,0.00915,0.01255,-0.02633*
1,1,0.00915,-0.01255,-0.02633*
1,1,0.00915,-0.01255,0.02633*
%
%ADD63ROUNDEDRECTD63*%
G04:AMPARAMS|DCode=64|XSize=142.52mil|YSize=59.84mil|CornerRadius=9.25mil|HoleSize=0mil|Usage=FLASHONLY|Rotation=90.000|XOffset=0mil|YOffset=0mil|HoleType=Round|Shape=RoundedRectangle|*
%AMROUNDEDRECTD64*
21,1,0.14252,0.04134,0,0,90.0*
21,1,0.12402,0.05984,0,0,90.0*
1,1,0.01850,0.02067,0.06201*
1,1,0.01850,0.02067,-0.06201*
1,1,0.01850,-0.02067,-0.06201*
1,1,0.01850,-0.02067,0.06201*
%
%ADD64ROUNDEDRECTD64*%
G04:AMPARAMS|DCode=65|XSize=42.13mil|YSize=38.19mil|CornerRadius=4.87mil|HoleSize=0mil|Usage=FLASHONLY|Rotation=0.000|XOffset=0mil|YOffset=0mil|HoleType=Round|Shape=RoundedRectangle|*
%AMROUNDEDRECTD65*
21,1,0.04213,0.02845,0,0,0.0*
21,1,0.03238,0.03819,0,0,0.0*
1,1,0.00974,0.01619,-0.01422*
1,1,0.00974,-0.01619,-0.01422*
1,1,0.00974,-0.01619,0.01422*
1,1,0.00974,0.01619,0.01422*
%
%ADD65ROUNDEDRECTD65*%
G04:AMPARAMS|DCode=66|XSize=48.03mil|YSize=20.47mil|CornerRadius=3.94mil|HoleSize=0mil|Usage=FLASHONLY|Rotation=180.000|XOffset=0mil|YOffset=0mil|HoleType=Round|Shape=RoundedRectangle|*
%AMROUNDEDRECTD66*
21,1,0.04803,0.01260,0,0,180.0*
21,1,0.04016,0.02047,0,0,180.0*
1,1,0.00787,-0.02008,0.00630*
1,1,0.00787,0.02008,0.00630*
1,1,0.00787,0.02008,-0.00630*
1,1,0.00787,-0.02008,-0.00630*
%
%ADD66ROUNDEDRECTD66*%
G04:AMPARAMS|DCode=67|XSize=42.13mil|YSize=42.13mil|CornerRadius=5.17mil|HoleSize=0mil|Usage=FLASHONLY|Rotation=90.000|XOffset=0mil|YOffset=0mil|HoleType=Round|Shape=RoundedRectangle|*
%AMROUNDEDRECTD67*
21,1,0.04213,0.03179,0,0,90.0*
21,1,0.03179,0.04213,0,0,90.0*
1,1,0.01034,0.01590,0.01590*
1,1,0.01034,0.01590,-0.01590*
1,1,0.01034,-0.01590,-0.01590*
1,1,0.01034,-0.01590,0.01590*
%
%ADD67ROUNDEDRECTD67*%
G04:AMPARAMS|DCode=68|XSize=42.13mil|YSize=42.13mil|CornerRadius=5.17mil|HoleSize=0mil|Usage=FLASHONLY|Rotation=180.000|XOffset=0mil|YOffset=0mil|HoleType=Round|Shape=RoundedRectangle|*
%AMROUNDEDRECTD68*
21,1,0.04213,0.03179,0,0,180.0*
21,1,0.03179,0.04213,0,0,180.0*
1,1,0.01034,-0.01590,0.01590*
1,1,0.01034,0.01590,0.01590*
1,1,0.01034,0.01590,-0.01590*
1,1,0.01034,-0.01590,-0.01590*
%
%ADD68ROUNDEDRECTD68*%
G04:AMPARAMS|DCode=69|XSize=61.81mil|YSize=53.94mil|CornerRadius=6.05mil|HoleSize=0mil|Usage=FLASHONLY|Rotation=0.000|XOffset=0mil|YOffset=0mil|HoleType=Round|Shape=RoundedRectangle|*
%AMROUNDEDRECTD69*
21,1,0.06181,0.04183,0,0,0.0*
21,1,0.04970,0.05394,0,0,0.0*
1,1,0.01211,0.02485,-0.02092*
1,1,0.01211,-0.02485,-0.02092*
1,1,0.01211,-0.02485,0.02092*
1,1,0.01211,0.02485,0.02092*
%
%ADD69ROUNDEDRECTD69*%
G04:AMPARAMS|DCode=70|XSize=61.81mil|YSize=53.94mil|CornerRadius=6.05mil|HoleSize=0mil|Usage=FLASHONLY|Rotation=90.000|XOffset=0mil|YOffset=0mil|HoleType=Round|Shape=RoundedRectangle|*
%AMROUNDEDRECTD70*
21,1,0.06181,0.04183,0,0,90.0*
21,1,0.04970,0.05394,0,0,90.0*
1,1,0.01211,0.02092,0.02485*
1,1,0.01211,0.02092,-0.02485*
1,1,0.01211,-0.02092,-0.02485*
1,1,0.01211,-0.02092,0.02485*
%
%ADD70ROUNDEDRECTD70*%
G04:AMPARAMS|DCode=71|XSize=42.13mil|YSize=38.19mil|CornerRadius=4.87mil|HoleSize=0mil|Usage=FLASHONLY|Rotation=270.000|XOffset=0mil|YOffset=0mil|HoleType=Round|Shape=RoundedRectangle|*
%AMROUNDEDRECTD71*
21,1,0.04213,0.02845,0,0,270.0*
21,1,0.03238,0.03819,0,0,270.0*
1,1,0.00974,-0.01422,-0.01619*
1,1,0.00974,-0.01422,0.01619*
1,1,0.00974,0.01422,0.01619*
1,1,0.00974,0.01422,-0.01619*
%
%ADD71ROUNDEDRECTD71*%
G04:AMPARAMS|DCode=72|XSize=30.32mil|YSize=30.32mil|CornerRadius=4.28mil|HoleSize=0mil|Usage=FLASHONLY|Rotation=270.000|XOffset=0mil|YOffset=0mil|HoleType=Round|Shape=RoundedRectangle|*
%AMROUNDEDRECTD72*
21,1,0.03032,0.02175,0,0,270.0*
21,1,0.02175,0.03032,0,0,270.0*
1,1,0.00856,-0.01088,-0.01088*
1,1,0.00856,-0.01088,0.01088*
1,1,0.00856,0.01088,0.01088*
1,1,0.00856,0.01088,-0.01088*
%
%ADD72ROUNDEDRECTD72*%
G04:AMPARAMS|DCode=73|XSize=26.38mil|YSize=28.35mil|CornerRadius=3.99mil|HoleSize=0mil|Usage=FLASHONLY|Rotation=270.000|XOffset=0mil|YOffset=0mil|HoleType=Round|Shape=RoundedRectangle|*
%AMROUNDEDRECTD73*
21,1,0.02638,0.02037,0,0,270.0*
21,1,0.01841,0.02835,0,0,270.0*
1,1,0.00797,-0.01019,-0.00920*
1,1,0.00797,-0.01019,0.00920*
1,1,0.00797,0.01019,0.00920*
1,1,0.00797,0.01019,-0.00920*
%
%ADD73ROUNDEDRECTD73*%
G04:AMPARAMS|DCode=74|XSize=29.13mil|YSize=30.71mil|CornerRadius=4.19mil|HoleSize=0mil|Usage=FLASHONLY|Rotation=90.000|XOffset=0mil|YOffset=0mil|HoleType=Round|Shape=RoundedRectangle|*
%AMROUNDEDRECTD74*
21,1,0.02913,0.02232,0,0,90.0*
21,1,0.02075,0.03071,0,0,90.0*
1,1,0.00839,0.01116,0.01037*
1,1,0.00839,0.01116,-0.01037*
1,1,0.00839,-0.01116,-0.01037*
1,1,0.00839,-0.01116,0.01037*
%
%ADD74ROUNDEDRECTD74*%
G04:AMPARAMS|DCode=75|XSize=213.39mil|YSize=67.72mil|CornerRadius=7.09mil|HoleSize=0mil|Usage=FLASHONLY|Rotation=270.000|XOffset=0mil|YOffset=0mil|HoleType=Round|Shape=RoundedRectangle|*
%AMROUNDEDRECTD75*
21,1,0.21339,0.05354,0,0,270.0*
21,1,0.19921,0.06772,0,0,270.0*
1,1,0.01417,-0.02677,-0.09961*
1,1,0.01417,-0.02677,0.09961*
1,1,0.01417,0.02677,0.09961*
1,1,0.01417,0.02677,-0.09961*
%
%ADD75ROUNDEDRECTD75*%
G04:AMPARAMS|DCode=76|XSize=42.13mil|YSize=42.13mil|CornerRadius=6.1mil|HoleSize=0mil|Usage=FLASHONLY|Rotation=90.000|XOffset=0mil|YOffset=0mil|HoleType=Round|Shape=RoundedRectangle|*
%AMROUNDEDRECTD76*
21,1,0.04213,0.02992,0,0,90.0*
21,1,0.02992,0.04213,0,0,90.0*
1,1,0.01221,0.01496,0.01496*
1,1,0.01221,0.01496,-0.01496*
1,1,0.01221,-0.01496,-0.01496*
1,1,0.01221,-0.01496,0.01496*
%
%ADD76ROUNDEDRECTD76*%
G04:AMPARAMS|DCode=77|XSize=103.15mil|YSize=280.31mil|CornerRadius=31.89mil|HoleSize=0mil|Usage=FLASHONLY|Rotation=90.000|XOffset=0mil|YOffset=0mil|HoleType=Round|Shape=RoundedRectangle|*
%AMROUNDEDRECTD77*
21,1,0.10315,0.21654,0,0,90.0*
21,1,0.03937,0.28031,0,0,90.0*
1,1,0.06378,0.10827,0.01968*
1,1,0.06378,0.10827,-0.01968*
1,1,0.06378,-0.10827,-0.01968*
1,1,0.06378,-0.10827,0.01968*
%
%ADD77ROUNDEDRECTD77*%
%ADD78C,0.05472*%
G04:AMPARAMS|DCode=79|XSize=32.28mil|YSize=59.84mil|CornerRadius=4.29mil|HoleSize=0mil|Usage=FLASHONLY|Rotation=180.000|XOffset=0mil|YOffset=0mil|HoleType=Round|Shape=RoundedRectangle|*
%AMROUNDEDRECTD79*
21,1,0.03228,0.05126,0,0,180.0*
21,1,0.02370,0.05984,0,0,180.0*
1,1,0.00858,-0.01185,0.02563*
1,1,0.00858,0.01185,0.02563*
1,1,0.00858,0.01185,-0.02563*
1,1,0.00858,-0.01185,-0.02563*
%
%ADD79ROUNDEDRECTD79*%
G04:AMPARAMS|DCode=80|XSize=32.28mil|YSize=63.78mil|CornerRadius=4.71mil|HoleSize=0mil|Usage=FLASHONLY|Rotation=180.000|XOffset=0mil|YOffset=0mil|HoleType=Round|Shape=RoundedRectangle|*
%AMROUNDEDRECTD80*
21,1,0.03228,0.05437,0,0,180.0*
21,1,0.02287,0.06378,0,0,180.0*
1,1,0.00941,-0.01144,0.02718*
1,1,0.00941,0.01144,0.02718*
1,1,0.00941,0.01144,-0.02718*
1,1,0.00941,-0.01144,-0.02718*
%
%ADD80ROUNDEDRECTD80*%
G04:AMPARAMS|DCode=81|XSize=36.22mil|YSize=36.22mil|CornerRadius=5.51mil|HoleSize=0mil|Usage=FLASHONLY|Rotation=0.000|XOffset=0mil|YOffset=0mil|HoleType=Round|Shape=RoundedRectangle|*
%AMROUNDEDRECTD81*
21,1,0.03622,0.02520,0,0,0.0*
21,1,0.02520,0.03622,0,0,0.0*
1,1,0.01102,0.01260,-0.01260*
1,1,0.01102,-0.01260,-0.01260*
1,1,0.01102,-0.01260,0.01260*
1,1,0.01102,0.01260,0.01260*
%
%ADD81ROUNDEDRECTD81*%
G04:AMPARAMS|DCode=82|XSize=75.59mil|YSize=50mil|CornerRadius=6.89mil|HoleSize=0mil|Usage=FLASHONLY|Rotation=180.000|XOffset=0mil|YOffset=0mil|HoleType=Round|Shape=RoundedRectangle|*
%AMROUNDEDRECTD82*
21,1,0.07559,0.03622,0,0,180.0*
21,1,0.06181,0.05000,0,0,180.0*
1,1,0.01378,-0.03091,0.01811*
1,1,0.01378,0.03091,0.01811*
1,1,0.01378,0.03091,-0.01811*
1,1,0.01378,-0.03091,-0.01811*
%
%ADD82ROUNDEDRECTD82*%
G04:AMPARAMS|DCode=83|XSize=30.32mil|YSize=51.97mil|CornerRadius=4.28mil|HoleSize=0mil|Usage=FLASHONLY|Rotation=180.000|XOffset=0mil|YOffset=0mil|HoleType=Round|Shape=RoundedRectangle|*
%AMROUNDEDRECTD83*
21,1,0.03032,0.04341,0,0,180.0*
21,1,0.02175,0.05197,0,0,180.0*
1,1,0.00856,-0.01088,0.02170*
1,1,0.00856,0.01088,0.02170*
1,1,0.00856,0.01088,-0.02170*
1,1,0.00856,-0.01088,-0.02170*
%
%ADD83ROUNDEDRECTD83*%
G04:AMPARAMS|DCode=84|XSize=44.09mil|YSize=36.22mil|CornerRadius=5.51mil|HoleSize=0mil|Usage=FLASHONLY|Rotation=180.000|XOffset=0mil|YOffset=0mil|HoleType=Round|Shape=RoundedRectangle|*
%AMROUNDEDRECTD84*
21,1,0.04409,0.02520,0,0,180.0*
21,1,0.03307,0.03622,0,0,180.0*
1,1,0.01102,-0.01654,0.01260*
1,1,0.01102,0.01654,0.01260*
1,1,0.01102,0.01654,-0.01260*
1,1,0.01102,-0.01654,-0.01260*
%
%ADD84ROUNDEDRECTD84*%
G04:AMPARAMS|DCode=85|XSize=138.58mil|YSize=46.06mil|CornerRadius=6.5mil|HoleSize=0mil|Usage=FLASHONLY|Rotation=90.000|XOffset=0mil|YOffset=0mil|HoleType=Round|Shape=RoundedRectangle|*
%AMROUNDEDRECTD85*
21,1,0.13858,0.03307,0,0,90.0*
21,1,0.12559,0.04606,0,0,90.0*
1,1,0.01299,0.01654,0.06280*
1,1,0.01299,0.01654,-0.06280*
1,1,0.01299,-0.01654,-0.06280*
1,1,0.01299,-0.01654,0.06280*
%
%ADD85ROUNDEDRECTD85*%
G04:AMPARAMS|DCode=86|XSize=32.28mil|YSize=38.19mil|CornerRadius=5.12mil|HoleSize=0mil|Usage=FLASHONLY|Rotation=0.000|XOffset=0mil|YOffset=0mil|HoleType=Round|Shape=RoundedRectangle|*
%AMROUNDEDRECTD86*
21,1,0.03228,0.02795,0,0,0.0*
21,1,0.02205,0.03819,0,0,0.0*
1,1,0.01024,0.01102,-0.01398*
1,1,0.01024,-0.01102,-0.01398*
1,1,0.01024,-0.01102,0.01398*
1,1,0.01024,0.01102,0.01398*
%
%ADD86ROUNDEDRECTD86*%
G04:AMPARAMS|DCode=87|XSize=28.35mil|YSize=44.09mil|CornerRadius=5.32mil|HoleSize=0mil|Usage=FLASHONLY|Rotation=270.000|XOffset=0mil|YOffset=0mil|HoleType=Round|Shape=RoundedRectangle|*
%AMROUNDEDRECTD87*
21,1,0.02835,0.03347,0,0,270.0*
21,1,0.01772,0.04409,0,0,270.0*
1,1,0.01063,-0.01673,-0.00886*
1,1,0.01063,-0.01673,0.00886*
1,1,0.01063,0.01673,0.00886*
1,1,0.01063,0.01673,-0.00886*
%
%ADD87ROUNDEDRECTD87*%
G04:AMPARAMS|DCode=88|XSize=32.28mil|YSize=40.16mil|CornerRadius=5.12mil|HoleSize=0mil|Usage=FLASHONLY|Rotation=270.000|XOffset=0mil|YOffset=0mil|HoleType=Round|Shape=RoundedRectangle|*
%AMROUNDEDRECTD88*
21,1,0.03228,0.02992,0,0,270.0*
21,1,0.02205,0.04016,0,0,270.0*
1,1,0.01024,-0.01496,-0.01102*
1,1,0.01024,-0.01496,0.01102*
1,1,0.01024,0.01496,0.01102*
1,1,0.01024,0.01496,-0.01102*
%
%ADD88ROUNDEDRECTD88*%
G04:AMPARAMS|DCode=89|XSize=36.22mil|YSize=40.16mil|CornerRadius=5.51mil|HoleSize=0mil|Usage=FLASHONLY|Rotation=270.000|XOffset=0mil|YOffset=0mil|HoleType=Round|Shape=RoundedRectangle|*
%AMROUNDEDRECTD89*
21,1,0.03622,0.02913,0,0,270.0*
21,1,0.02520,0.04016,0,0,270.0*
1,1,0.01102,-0.01457,-0.01260*
1,1,0.01102,-0.01457,0.01260*
1,1,0.01102,0.01457,0.01260*
1,1,0.01102,0.01457,-0.01260*
%
%ADD89ROUNDEDRECTD89*%
G04:AMPARAMS|DCode=90|XSize=59.84mil|YSize=44.09mil|CornerRadius=7.28mil|HoleSize=0mil|Usage=FLASHONLY|Rotation=180.000|XOffset=0mil|YOffset=0mil|HoleType=Round|Shape=RoundedRectangle|*
%AMROUNDEDRECTD90*
21,1,0.05984,0.02953,0,0,180.0*
21,1,0.04528,0.04409,0,0,180.0*
1,1,0.01457,-0.02264,0.01476*
1,1,0.01457,0.02264,0.01476*
1,1,0.01457,0.02264,-0.01476*
1,1,0.01457,-0.02264,-0.01476*
%
%ADD90ROUNDEDRECTD90*%
G04:AMPARAMS|DCode=91|XSize=75.59mil|YSize=122.84mil|CornerRadius=0mil|HoleSize=0mil|Usage=FLASHONLY|Rotation=180.000|XOffset=0mil|YOffset=0mil|HoleType=Round|Shape=Octagon|*
%AMOCTAGOND91*
4,1,8,0.01890,-0.06142,-0.01890,-0.06142,-0.03780,-0.04252,-0.03780,0.04252,-0.01890,0.06142,0.01890,0.06142,0.03780,0.04252,0.03780,-0.04252,0.01890,-0.06142,0.0*
%
%ADD91OCTAGOND91*%

G04:AMPARAMS|DCode=92|XSize=24.41mil|YSize=51.97mil|CornerRadius=4.33mil|HoleSize=0mil|Usage=FLASHONLY|Rotation=180.000|XOffset=0mil|YOffset=0mil|HoleType=Round|Shape=RoundedRectangle|*
%AMROUNDEDRECTD92*
21,1,0.02441,0.04331,0,0,180.0*
21,1,0.01575,0.05197,0,0,180.0*
1,1,0.00866,-0.00787,0.02165*
1,1,0.00866,0.00787,0.02165*
1,1,0.00866,0.00787,-0.02165*
1,1,0.00866,-0.00787,-0.02165*
%
%ADD92ROUNDEDRECTD92*%
G04:AMPARAMS|DCode=93|XSize=24.41mil|YSize=67.72mil|CornerRadius=4.33mil|HoleSize=0mil|Usage=FLASHONLY|Rotation=180.000|XOffset=0mil|YOffset=0mil|HoleType=Round|Shape=RoundedRectangle|*
%AMROUNDEDRECTD93*
21,1,0.02441,0.05906,0,0,180.0*
21,1,0.01575,0.06772,0,0,180.0*
1,1,0.00866,-0.00787,0.02953*
1,1,0.00866,0.00787,0.02953*
1,1,0.00866,0.00787,-0.02953*
1,1,0.00866,-0.00787,-0.02953*
%
%ADD93ROUNDEDRECTD93*%
G04:AMPARAMS|DCode=94|XSize=138.58mil|YSize=46.06mil|CornerRadius=6.5mil|HoleSize=0mil|Usage=FLASHONLY|Rotation=315.000|XOffset=0mil|YOffset=0mil|HoleType=Round|Shape=RoundedRectangle|*
%AMROUNDEDRECTD94*
21,1,0.13858,0.03307,0,0,315.0*
21,1,0.12559,0.04606,0,0,315.0*
1,1,0.01299,0.03271,-0.05610*
1,1,0.01299,-0.05610,0.03271*
1,1,0.01299,-0.03271,0.05610*
1,1,0.01299,0.05610,-0.03271*
%
%ADD94ROUNDEDRECTD94*%
G04:AMPARAMS|DCode=95|XSize=130.71mil|YSize=107.87mil|CornerRadius=12.68mil|HoleSize=0mil|Usage=FLASHONLY|Rotation=270.000|XOffset=0mil|YOffset=0mil|HoleType=Round|Shape=RoundedRectangle|*
%AMROUNDEDRECTD95*
21,1,0.13071,0.08252,0,0,270.0*
21,1,0.10535,0.10787,0,0,270.0*
1,1,0.02535,-0.04126,-0.05268*
1,1,0.02535,-0.04126,0.05268*
1,1,0.02535,0.04126,0.05268*
1,1,0.02535,0.04126,-0.05268*
%
%ADD95ROUNDEDRECTD95*%
G04:AMPARAMS|DCode=96|XSize=138.58mil|YSize=46.06mil|CornerRadius=6.5mil|HoleSize=0mil|Usage=FLASHONLY|Rotation=0.000|XOffset=0mil|YOffset=0mil|HoleType=Round|Shape=RoundedRectangle|*
%AMROUNDEDRECTD96*
21,1,0.13858,0.03307,0,0,0.0*
21,1,0.12559,0.04606,0,0,0.0*
1,1,0.01299,0.06280,-0.01654*
1,1,0.01299,-0.06280,-0.01654*
1,1,0.01299,-0.06280,0.01654*
1,1,0.01299,0.06280,0.01654*
%
%ADD96ROUNDEDRECTD96*%
G04:AMPARAMS|DCode=97|XSize=130.71mil|YSize=107.09mil|CornerRadius=12.6mil|HoleSize=0mil|Usage=FLASHONLY|Rotation=180.000|XOffset=0mil|YOffset=0mil|HoleType=Round|Shape=RoundedRectangle|*
%AMROUNDEDRECTD97*
21,1,0.13071,0.08189,0,0,180.0*
21,1,0.10551,0.10709,0,0,180.0*
1,1,0.02520,-0.05276,0.04095*
1,1,0.02520,0.05276,0.04095*
1,1,0.02520,0.05276,-0.04095*
1,1,0.02520,-0.05276,-0.04095*
%
%ADD97ROUNDEDRECTD97*%
G04:AMPARAMS|DCode=98|XSize=23.62mil|YSize=20.47mil|CornerRadius=3.94mil|HoleSize=0mil|Usage=FLASHONLY|Rotation=270.000|XOffset=0mil|YOffset=0mil|HoleType=Round|Shape=RoundedRectangle|*
%AMROUNDEDRECTD98*
21,1,0.02362,0.01260,0,0,270.0*
21,1,0.01575,0.02047,0,0,270.0*
1,1,0.00787,-0.00630,-0.00787*
1,1,0.00787,-0.00630,0.00787*
1,1,0.00787,0.00630,0.00787*
1,1,0.00787,0.00630,-0.00787*
%
%ADD98ROUNDEDRECTD98*%
%ADD99C,0.08346*%
%ADD100C,0.10315*%
%ADD101C,0.08740*%
%ADD102C,0.08150*%
%ADD103C,0.09134*%
%ADD104C,0.06575*%
%ADD105C,0.24095*%
%ADD106C,0.01929*%
%ADD107R,0.06575X0.06575*%
G04:AMPARAMS|DCode=108|XSize=79.53mil|YSize=79.53mil|CornerRadius=9.84mil|HoleSize=0mil|Usage=FLASHONLY|Rotation=0.000|XOffset=0mil|YOffset=0mil|HoleType=Round|Shape=RoundedRectangle|*
%AMROUNDEDRECTD108*
21,1,0.07953,0.05984,0,0,0.0*
21,1,0.05984,0.07953,0,0,0.0*
1,1,0.01968,0.02992,-0.02992*
1,1,0.01968,-0.02992,-0.02992*
1,1,0.01968,-0.02992,0.02992*
1,1,0.01968,0.02992,0.02992*
%
%ADD108ROUNDEDRECTD108*%
%ADD109C,0.07953*%
%ADD110R,0.04331X0.04331*%
%ADD111C,0.04331*%
G04:AMPARAMS|DCode=112|XSize=103.15mil|YSize=103.15mil|CornerRadius=12.21mil|HoleSize=0mil|Usage=FLASHONLY|Rotation=270.000|XOffset=0mil|YOffset=0mil|HoleType=Round|Shape=RoundedRectangle|*
%AMROUNDEDRECTD112*
21,1,0.10315,0.07874,0,0,270.0*
21,1,0.07874,0.10315,0,0,270.0*
1,1,0.02441,-0.03937,-0.03937*
1,1,0.02441,-0.03937,0.03937*
1,1,0.02441,0.03937,0.03937*
1,1,0.02441,0.03937,-0.03937*
%
%ADD112ROUNDEDRECTD112*%
G04:AMPARAMS|DCode=113|XSize=69.69mil|YSize=69.69mil|CornerRadius=8.86mil|HoleSize=0mil|Usage=FLASHONLY|Rotation=0.000|XOffset=0mil|YOffset=0mil|HoleType=Round|Shape=RoundedRectangle|*
%AMROUNDEDRECTD113*
21,1,0.06969,0.05197,0,0,0.0*
21,1,0.05197,0.06969,0,0,0.0*
1,1,0.01772,0.02598,-0.02598*
1,1,0.01772,-0.02598,-0.02598*
1,1,0.01772,-0.02598,0.02598*
1,1,0.01772,0.02598,0.02598*
%
%ADD113ROUNDEDRECTD113*%
%ADD114C,0.06969*%
%ADD115C,0.06772*%
G04:AMPARAMS|DCode=116|XSize=67.72mil|YSize=67.72mil|CornerRadius=8.66mil|HoleSize=0mil|Usage=FLASHONLY|Rotation=270.000|XOffset=0mil|YOffset=0mil|HoleType=Round|Shape=RoundedRectangle|*
%AMROUNDEDRECTD116*
21,1,0.06772,0.05039,0,0,270.0*
21,1,0.05039,0.06772,0,0,270.0*
1,1,0.01732,-0.02520,-0.02520*
1,1,0.01732,-0.02520,0.02520*
1,1,0.01732,0.02520,0.02520*
1,1,0.01732,0.02520,-0.02520*
%
%ADD116ROUNDEDRECTD116*%
%ADD117C,0.09921*%
%ADD118C,0.02835*%
G36*
X0187537Y0316966D02*
X0187573Y0316958D01*
X0187608Y0316943D01*
X0187639Y0316924D01*
X0187668Y0316900D01*
X0190227Y0314341D01*
X0190251Y0314313D01*
X0190270Y0314281D01*
X0190284Y0314247D01*
X0190293Y0314210D01*
X0190296Y0314173D01*
Y0304724D01*
X0190293Y0304687D01*
X0190284Y0304651D01*
X0190270Y0304617D01*
X0190251Y0304585D01*
X0190227Y0304557D01*
X0187737Y0302067D01*
Y0301378D01*
X0187734Y0301341D01*
X0187725Y0301305D01*
X0187711Y0301270D01*
X0187692Y0301239D01*
X0187668Y0301210D01*
X0187639Y0301186D01*
X0187608Y0301167D01*
X0187573Y0301153D01*
X0187537Y0301144D01*
X0187500Y0301141D01*
X0184744Y0301141D01*
X0184744D01*
D01*
X0184707Y0301144D01*
X0184671Y0301153D01*
X0184636Y0301167D01*
X0184605Y0301186D01*
X0184576Y0301210D01*
X0184552Y0301239D01*
X0184533Y0301270D01*
X0184519Y0301305D01*
X0184510Y0301341D01*
X0184507Y0301378D01*
Y0301378D01*
D01*
X0184507Y0302067D01*
X0182018Y0304557D01*
X0181993Y0304585D01*
X0181974Y0304617D01*
X0181960Y0304651D01*
X0181951Y0304687D01*
X0181948Y0304724D01*
Y0314173D01*
X0181951Y0314210D01*
X0181960Y0314247D01*
X0181974Y0314281D01*
X0181993Y0314313D01*
X0182018Y0314341D01*
X0184576Y0316900D01*
X0184605Y0316924D01*
X0184636Y0316943D01*
X0184671Y0316958D01*
X0184707Y0316966D01*
X0184744Y0316969D01*
X0187500D01*
X0187537Y0316966D01*
D02*
G37*
G36*
X0421199Y0308600D02*
X0421235Y0308592D01*
X0421269Y0308577D01*
X0421301Y0308558D01*
X0421329Y0308534D01*
X0423888Y0305975D01*
X0423912Y0305946D01*
X0423932Y0305915D01*
X0423946Y0305880D01*
X0423954Y0305844D01*
X0423957Y0305807D01*
Y0296358D01*
X0423954Y0296321D01*
X0423946Y0296285D01*
X0423932Y0296251D01*
X0423912Y0296219D01*
X0423888Y0296191D01*
X0421398Y0293701D01*
X0421398Y0293012D01*
X0421395Y0292975D01*
X0421387Y0292939D01*
X0421373Y0292904D01*
X0421353Y0292873D01*
X0421329Y0292844D01*
X0421301Y0292820D01*
X0421269Y0292801D01*
X0421235Y0292787D01*
X0421199Y0292778D01*
X0421161Y0292775D01*
X0418405D01*
X0418368Y0292778D01*
X0418332Y0292787D01*
X0418298Y0292801D01*
X0418266Y0292820D01*
X0418238Y0292844D01*
X0418214Y0292873D01*
X0418194Y0292904D01*
X0418180Y0292939D01*
X0418172Y0292975D01*
X0418169Y0293012D01*
Y0293701D01*
X0415679Y0296191D01*
X0415655Y0296219D01*
X0415635Y0296251D01*
X0415621Y0296285D01*
X0415612Y0296321D01*
X0415610Y0296358D01*
Y0305807D01*
X0415612Y0305844D01*
X0415621Y0305880D01*
X0415635Y0305915D01*
X0415655Y0305946D01*
X0415679Y0305975D01*
X0418238Y0308534D01*
X0418266Y0308558D01*
X0418298Y0308577D01*
X0418332Y0308592D01*
X0418368Y0308600D01*
X0418405Y0308603D01*
X0421161D01*
X0421199Y0308600D01*
D02*
G37*
D19*
X0250795Y0222843D02*
D03*
X0255110Y0227157D02*
D03*
D59*
X0414980Y0413110D02*
D03*
X0420492D02*
D03*
D60*
X0420472Y0436024D02*
D03*
X0414961D02*
D03*
D61*
X0415256Y0430807D02*
D03*
X0420571D02*
D03*
D62*
X0591634Y0211713D02*
D03*
Y0206398D02*
D03*
D63*
X0423917Y0404921D02*
D03*
X0415453D02*
D03*
D64*
X0100906Y0259882D02*
D03*
X0117047D02*
D03*
X0101181Y0278524D02*
D03*
X0117323D02*
D03*
D65*
X0159508Y0321437D02*
D03*
Y0326752D02*
D03*
X0173622Y0303543D02*
D03*
Y0308858D02*
D03*
X0401161Y0291634D02*
D03*
Y0296949D02*
D03*
D66*
X0174646Y0324921D02*
D03*
Y0327480D02*
D03*
Y0330039D02*
D03*
Y0332598D02*
D03*
X0164803Y0332598D02*
D03*
X0164803Y0330039D02*
D03*
X0164803Y0327480D02*
D03*
X0164803Y0324921D02*
D03*
X0360531Y0326279D02*
D03*
X0360531Y0328839D02*
D03*
X0360531Y0331398D02*
D03*
X0360531Y0333957D02*
D03*
X0370374D02*
D03*
Y0331398D02*
D03*
Y0328839D02*
D03*
Y0326279D02*
D03*
D67*
X0166378Y0337717D02*
D03*
X0172283D02*
D03*
X0180748Y0328563D02*
D03*
X0186653D02*
D03*
X0376181Y0329528D02*
D03*
X0382087D02*
D03*
X0369547Y0321457D02*
D03*
X0375453D02*
D03*
X0186122Y0286516D02*
D03*
X0180217D02*
D03*
X0413878Y0276575D02*
D03*
X0407972D02*
D03*
X0186575Y0333780D02*
D03*
X0180669D02*
D03*
X0382146Y0334488D02*
D03*
X0376240D02*
D03*
D68*
X0159311Y0331437D02*
D03*
Y0337343D02*
D03*
X0153405Y0327244D02*
D03*
Y0333150D02*
D03*
X0349134Y0336831D02*
D03*
Y0330925D02*
D03*
X0354587Y0331004D02*
D03*
Y0336909D02*
D03*
X0351614Y0319331D02*
D03*
Y0325236D02*
D03*
X0148189Y0327244D02*
D03*
Y0333150D02*
D03*
D69*
X0191929Y0286319D02*
D03*
X0191929Y0293012D02*
D03*
D70*
X0425394Y0282087D02*
D03*
X0418701Y0282087D02*
D03*
D71*
X0359390Y0318799D02*
D03*
X0364705D02*
D03*
D72*
X0139469Y0331693D02*
D03*
X0135531D02*
D03*
D73*
X0142323Y0325787D02*
D03*
X0138976D02*
D03*
D74*
X0131890Y0327756D02*
D03*
X0135354D02*
D03*
D75*
X0536909Y0332382D02*
D03*
X0556004D02*
D03*
D76*
X0413779Y0282087D02*
D03*
X0407874Y0282087D02*
D03*
X0186024Y0292520D02*
D03*
X0180118Y0292520D02*
D03*
D77*
X0570866Y0382469D02*
D03*
Y0362481D02*
D03*
Y0402469D02*
D03*
Y0422469D02*
D03*
Y0442469D02*
D03*
Y0462284D02*
D03*
Y0482469D02*
D03*
Y0502469D02*
D03*
D78*
X0138602Y0337185D02*
D03*
X0141437Y0314665D02*
D03*
X0149409Y0314862D02*
D03*
X0365059Y0302559D02*
D03*
X0358071D02*
D03*
X0346949Y0302854D02*
D03*
D79*
X0425689Y0290650D02*
D03*
X0413878D02*
D03*
X0180217Y0299016D02*
D03*
X0192027Y0299016D02*
D03*
D80*
X0419783Y0290846D02*
D03*
X0186122Y0299213D02*
D03*
D81*
X0591634Y0201181D02*
D03*
Y0194882D02*
D03*
D82*
X0418012Y0474803D02*
D03*
X0418012Y0486221D02*
D03*
X0418012Y0492028D02*
D03*
X0418012Y0503445D02*
D03*
X0417913Y0457677D02*
D03*
X0417913Y0469095D02*
D03*
D83*
X0417618Y0451575D02*
D03*
X0421358Y0441339D02*
D03*
X0413878D02*
D03*
D84*
X0416437Y0371457D02*
D03*
Y0377362D02*
D03*
X0422539Y0371457D02*
D03*
Y0377362D02*
D03*
D85*
X0416929Y0358563D02*
D03*
X0422835D02*
D03*
D86*
X0429331Y0391634D02*
D03*
Y0397736D02*
D03*
D87*
X0424705Y0398425D02*
D03*
X0414468Y0390945D02*
D03*
Y0394685D02*
D03*
X0414468Y0398425D02*
D03*
X0424705Y0390945D02*
D03*
D88*
X0423032Y0381398D02*
D03*
Y0386516D02*
D03*
X0415551Y0383957D02*
D03*
D89*
X0420630Y0418110D02*
D03*
Y0425591D02*
D03*
X0412756Y0421850D02*
D03*
D90*
X0375295Y0298622D02*
D03*
Y0291535D02*
D03*
X0148130Y0310039D02*
D03*
Y0302953D02*
D03*
D91*
X0388976Y0300295D02*
D03*
X0161417Y0309252D02*
D03*
D92*
X0394882Y0290453D02*
D03*
X0383071D02*
D03*
X0167323Y0299409D02*
D03*
X0155512D02*
D03*
D93*
X0388976Y0291240D02*
D03*
X0161417Y0300197D02*
D03*
D94*
X0245156Y0230885D02*
D03*
X0249332Y0235060D02*
D03*
D95*
X0550787Y0462303D02*
D03*
X0518898D02*
D03*
D96*
X0251181Y0285630D02*
D03*
Y0291535D02*
D03*
X0326476Y0285630D02*
D03*
Y0291535D02*
D03*
D97*
X0138386Y0258957D02*
D03*
Y0230610D02*
D03*
D98*
X0139075Y0290886D02*
D03*
Y0285689D02*
D03*
Y0295925D02*
D03*
Y0301122D02*
D03*
X0208760Y0290886D02*
D03*
Y0285689D02*
D03*
X0283169Y0290886D02*
D03*
Y0285689D02*
D03*
Y0295925D02*
D03*
Y0301122D02*
D03*
X0208760Y0295925D02*
D03*
Y0301122D02*
D03*
X0352756Y0290886D02*
D03*
Y0295925D02*
D03*
Y0301122D02*
D03*
Y0285689D02*
D03*
D99*
X0344291Y0241339D02*
D03*
X0363976D02*
D03*
X0569646Y0113031D02*
D03*
X0530276D02*
D03*
X0530453Y0150906D02*
D03*
X0569823D02*
D03*
X0263051Y0238878D02*
D03*
X0322106D02*
D03*
X0645965Y0112795D02*
D03*
Y0152165D02*
D03*
X0702658Y0152067D02*
D03*
Y0112697D02*
D03*
D100*
X0458677Y0166744D02*
D03*
X0498772Y0187173D02*
D03*
X0433661Y0358858D02*
D03*
Y0417913D02*
D03*
X0499803Y0417815D02*
D03*
Y0358760D02*
D03*
X0365059Y0506182D02*
D03*
X0285138Y0506102D02*
D03*
X0511614Y0219193D02*
D03*
X0541614D02*
D03*
X0203740Y0189425D02*
D03*
Y0234425D02*
D03*
X0386621Y0134771D02*
D03*
X0325007Y0132999D02*
D03*
X0224803Y0125000D02*
D03*
X0261122Y0073819D02*
D03*
X0433661Y0496850D02*
D03*
X0433661Y0437795D02*
D03*
X0674409Y0152559D02*
D03*
Y0102953D02*
D03*
X0326398Y0277165D02*
D03*
X0304980D02*
D03*
X0251043Y0277165D02*
D03*
X0229626D02*
D03*
X0160630Y0277362D02*
D03*
X0182047D02*
D03*
X0499705Y0437992D02*
D03*
Y0497047D02*
D03*
X0374114Y0277165D02*
D03*
X0395532D02*
D03*
D101*
X0209252Y0358563D02*
D03*
X0129331D02*
D03*
X0209252Y0506201D02*
D03*
X0129331D02*
D03*
X0365059Y0358544D02*
D03*
X0285138D02*
D03*
D102*
X0686516Y0185020D02*
D03*
X0647146D02*
D03*
D103*
X0710354Y0199508D02*
D03*
Y0219508D02*
D03*
X0719291Y0081063D02*
D03*
X0699291D02*
D03*
X0743976Y0165787D02*
D03*
Y0192402D02*
D03*
X0744075Y0229665D02*
D03*
Y0256279D02*
D03*
X0676378Y0081142D02*
D03*
X0656378D02*
D03*
D104*
X0707776Y0185630D02*
D03*
X0743760Y0204429D02*
D03*
X0501279Y0315354D02*
D03*
X0531161D02*
D03*
X0093110Y0452362D02*
D03*
X0271654Y0526378D02*
D03*
X0092913Y0435138D02*
D03*
D105*
X0567323Y0530020D02*
D03*
Y0305610D02*
D03*
X0103839D02*
D03*
X0623721Y0081201D02*
D03*
X0103839Y0399311D02*
D03*
X0749508Y0305610D02*
D03*
X0230020Y0530020D02*
D03*
D106*
X0277067Y0315492D02*
D03*
Y0310492D02*
D03*
X0272067Y0315492D02*
D03*
Y0310492D02*
D03*
X0267067Y0315492D02*
D03*
Y0310492D02*
D03*
X0262067Y0315492D02*
D03*
Y0310492D02*
D03*
X0257067Y0315492D02*
D03*
Y0310492D02*
D03*
X0252067Y0315492D02*
D03*
Y0310492D02*
D03*
X0458681Y0315492D02*
D03*
Y0310492D02*
D03*
X0453681Y0315492D02*
D03*
Y0310492D02*
D03*
X0448681Y0315492D02*
D03*
Y0310492D02*
D03*
X0443681Y0315492D02*
D03*
Y0310492D02*
D03*
X0097677Y0336299D02*
D03*
X0092677D02*
D03*
X0097677Y0341299D02*
D03*
X0092677D02*
D03*
X0097677Y0346299D02*
D03*
X0092677D02*
D03*
X0097677Y0351299D02*
D03*
X0092677D02*
D03*
X0571122Y0340177D02*
D03*
X0576122D02*
D03*
X0571122Y0335177D02*
D03*
X0576122D02*
D03*
X0571122Y0330177D02*
D03*
X0576122D02*
D03*
X0571122Y0325177D02*
D03*
X0576122D02*
D03*
X0393327Y0315492D02*
D03*
Y0310492D02*
D03*
X0388327Y0315492D02*
D03*
Y0310492D02*
D03*
X0383327Y0315492D02*
D03*
Y0310492D02*
D03*
X0378327Y0315492D02*
D03*
Y0310492D02*
D03*
D107*
X0491280Y0315354D02*
D03*
X0521161D02*
D03*
D108*
X0581614Y0189193D02*
D03*
D109*
X0581614Y0219193D02*
D03*
D110*
X0279429Y0464272D02*
D03*
D111*
Y0454429D02*
D03*
D112*
X0283563Y0277165D02*
D03*
X0208209Y0277165D02*
D03*
X0139213Y0277362D02*
D03*
X0352697Y0277165D02*
D03*
D113*
X0646772Y0246752D02*
D03*
X0646772Y0219980D02*
D03*
D114*
X0676299Y0256594D02*
D03*
Y0229823D02*
D03*
D115*
X0539035Y0419488D02*
D03*
X0519035D02*
D03*
X0520472Y0166929D02*
D03*
X0618209Y0112303D02*
D03*
X0539035Y0445571D02*
D03*
X0520472Y0107874D02*
D03*
X0519035Y0445571D02*
D03*
D116*
X0618209Y0171358D02*
D03*
D117*
X0541437Y0123524D02*
D03*
X0588681D02*
D03*
Y0151083D02*
D03*
X0541437D02*
D03*
D118*
X0379390Y0176543D02*
D03*
X0383720D02*
D03*
X0379390Y0180874D02*
D03*
X0383720D02*
D03*
X0332973Y0424803D02*
D03*
X0337303Y0424803D02*
D03*
X0332972Y0429134D02*
D03*
X0337303Y0429134D02*
D03*
M02*
