G04*
G04 #@! TF.GenerationSoftware,Altium Limited,Altium Designer,21.7.2 (23)*
G04*
G04 Layer_Color=16711935*
%FSAX25Y25*%
%MOIN*%
G70*
G04*
G04 #@! TF.SameCoordinates,25756C21-EA0E-48A6-96D4-99705350E32D*
G04*
G04*
G04 #@! TF.FilePolarity,Positive*
G04*
G01*
G75*
%ADD13C,0.00787*%
%ADD14C,0.00394*%
%ADD15C,0.01968*%
%ADD435C,0.00236*%
%ADD436C,0.00197*%
D13*
X0539976Y0290142D02*
G03*
X0538976Y0291142I-0001000J0000000D01*
G01*
Y0247835D02*
G03*
X0539976Y0248835I0000000J0001000D01*
G01*
X0483890Y0291142D02*
G03*
X0482890Y0290142I0000000J-0001000D01*
G01*
Y0248835D02*
G03*
X0483890Y0247835I0001000J0000000D01*
G01*
X0152108Y0271602D02*
G03*
X0152963Y0271956I0000000J0001210D01*
G01*
X0153183Y0272176D02*
G03*
X0153810Y0273688I-0001512J0001512D01*
G01*
X0155463Y0281661D02*
G03*
X0153810Y0277669I0003992J-0003992D01*
G01*
X0158593Y0282999D02*
G03*
X0155535Y0281733I0000000J-0004325D01*
G01*
X0162030Y0282999D02*
G03*
X0162078Y0283019I0000000J0000067D01*
G01*
X0165877Y0281484D02*
G03*
X0162170Y0283019I-0003707J-0003707D01*
G01*
X0167589Y0277428D02*
G03*
X0165933Y0281427I-0005655J0000000D01*
G01*
X0167589Y0273649D02*
G03*
X0169637Y0271602I0002047J0000000D01*
G01*
D02*
G03*
X0171526Y0273491I0000000J0001890D01*
G01*
Y0279101D02*
G03*
X0169243Y0284613I-0007796J0000000D01*
G01*
D02*
G03*
X0163588Y0286956I-0005655J-0005655D01*
G01*
X0157645D02*
G03*
X0152274Y0284732I0000000J-0007595D01*
G01*
X0152092Y0284549D02*
G03*
X0149892Y0279239I0005310J-0005310D01*
G01*
Y0273649D02*
G03*
X0151940Y0271602I0002047J0000000D01*
G01*
X0220986D02*
G03*
X0221841Y0271956I0000000J0001210D01*
G01*
X0222061Y0272176D02*
G03*
X0222688Y0273688I-0001512J0001512D01*
G01*
X0224341Y0281661D02*
G03*
X0222688Y0277669I0003992J-0003992D01*
G01*
X0227471Y0282999D02*
G03*
X0224413Y0281733I0000000J-0004325D01*
G01*
X0230908Y0282999D02*
G03*
X0230956Y0283019I0000000J0000067D01*
G01*
X0234755Y0281484D02*
G03*
X0231048Y0283019I-0003707J-0003707D01*
G01*
X0236467Y0277428D02*
G03*
X0234811Y0281427I-0005655J0000000D01*
G01*
X0236467Y0273649D02*
G03*
X0238515Y0271602I0002047J0000000D01*
G01*
D02*
G03*
X0240404Y0273491I0000000J0001890D01*
G01*
Y0279101D02*
G03*
X0238121Y0284613I-0007796J0000000D01*
G01*
D02*
G03*
X0232466Y0286956I-0005655J-0005655D01*
G01*
X0226523D02*
G03*
X0221152Y0284732I0000000J-0007595D01*
G01*
X0220970Y0284549D02*
G03*
X0218771Y0279239I0005310J-0005310D01*
G01*
Y0273649D02*
G03*
X0220818Y0271602I0002047J0000000D01*
G01*
X0296301D02*
G03*
X0297156Y0271956I0000000J0001210D01*
G01*
X0297376Y0272176D02*
G03*
X0298003Y0273688I-0001512J0001512D01*
G01*
X0299656Y0281661D02*
G03*
X0298003Y0277669I0003992J-0003992D01*
G01*
X0302786Y0282999D02*
G03*
X0299728Y0281733I0000000J-0004325D01*
G01*
X0306223Y0282999D02*
G03*
X0306271Y0283019I0000000J0000067D01*
G01*
X0310070Y0281484D02*
G03*
X0306363Y0283019I-0003707J-0003707D01*
G01*
X0311782Y0277428D02*
G03*
X0310126Y0281427I-0005655J0000000D01*
G01*
X0311782Y0273649D02*
G03*
X0313830Y0271602I0002047J0000000D01*
G01*
D02*
G03*
X0315719Y0273491I0000000J0001890D01*
G01*
Y0279101D02*
G03*
X0313436Y0284613I-0007796J0000000D01*
G01*
D02*
G03*
X0307781Y0286956I-0005655J-0005655D01*
G01*
X0301837D02*
G03*
X0296467Y0284732I0000000J-0007595D01*
G01*
X0296285Y0284549D02*
G03*
X0294085Y0279239I0005310J-0005310D01*
G01*
Y0273649D02*
G03*
X0296133Y0271602I0002047J0000000D01*
G01*
X0363405Y0273642D02*
G03*
X0365453Y0271595I0002047J0000000D01*
G01*
X0365605Y0284542D02*
G03*
X0363405Y0279232I0005310J-0005310D01*
G01*
X0371158Y0286949D02*
G03*
X0365787Y0284724I0000000J-0007595D01*
G01*
X0382756Y0284606D02*
G03*
X0377101Y0286949I-0005655J-0005655D01*
G01*
X0385039Y0279094D02*
G03*
X0382756Y0284606I-0007796J0000000D01*
G01*
X0383150Y0271595D02*
G03*
X0385039Y0273484I0000000J0001890D01*
G01*
X0381102Y0273642D02*
G03*
X0383150Y0271595I0002047J0000000D01*
G01*
X0381102Y0277421D02*
G03*
X0379446Y0281420I-0005655J0000000D01*
G01*
X0379390Y0281476D02*
G03*
X0375683Y0283012I-0003707J-0003707D01*
G01*
X0375543Y0282992D02*
G03*
X0375590Y0283012I0000000J0000067D01*
G01*
X0372106Y0282992D02*
G03*
X0369048Y0281726I0000000J-0004325D01*
G01*
X0368976Y0281653D02*
G03*
X0367323Y0277661I0003992J-0003992D01*
G01*
X0366697Y0272169D02*
G03*
X0367323Y0273681I-0001512J0001512D01*
G01*
X0365621Y0271595D02*
G03*
X0366476Y0271949I0000000J0001210D01*
G01*
X0579471Y0130236D02*
G03*
X0577502Y0128268I0000000J-0001969D01*
G01*
X0581439D02*
G03*
X0579471Y0130236I-0001969J0000000D01*
G01*
Y0108976D02*
G03*
X0581439Y0110945I0000000J0001969D01*
G01*
X0577502Y0110748D02*
G03*
X0579274Y0108976I0001772J0000000D01*
G01*
X0579471Y0161732D02*
G03*
X0577502Y0159764I0000000J-0001969D01*
G01*
X0581439D02*
G03*
X0579471Y0161732I-0001969J0000000D01*
G01*
Y0140472D02*
G03*
X0581439Y0142441I0000000J0001969D01*
G01*
X0577502Y0142244D02*
G03*
X0579274Y0140472I0001772J0000000D01*
G01*
X0709077Y0090330D02*
G03*
X0707108Y0092299I-0001969J0000000D01*
G01*
Y0088362D02*
G03*
X0709077Y0090330I0000000J0001969D01*
G01*
X0689633Y0092303D02*
G03*
X0687664Y0090334I0000000J-0001969D01*
G01*
X0687664Y0073011D02*
G03*
X0689633Y0071043I0001969J0000000D01*
G01*
D02*
G03*
X0691601Y0073011I0000000J0001969D01*
G01*
X0599284Y0182009D02*
G03*
X0600906Y0183630I0000000J0001622D01*
G01*
X0734027Y0265705D02*
G03*
X0735995Y0263737I0001969J0000000D01*
G01*
Y0267674D02*
G03*
X0734027Y0265705I0000000J-0001969D01*
G01*
X0755287D02*
G03*
X0753318Y0267674I-0001969J0000000D01*
G01*
X0753515Y0263737D02*
G03*
X0755287Y0265509I0000000J0001772D01*
G01*
X0664154Y0241063D02*
G03*
X0664154Y0243846I-0001392J0001392D01*
G01*
X0658165Y0234941D02*
G03*
X0658165Y0232158I0001392J-0001392D01*
G01*
X0663785Y0234942D02*
G03*
X0663785Y0232158I0001392J-0001392D01*
G01*
X0677573Y0215571D02*
G03*
X0677573Y0218355I-0001392J0001392D01*
G01*
X0674789Y0215571D02*
G03*
X0677573Y0215571I0001392J0001392D01*
G01*
X0636693Y0211299D02*
G03*
X0638661Y0209331I0001969J0000000D01*
G01*
Y0213268D02*
G03*
X0636693Y0211299I0000000J-0001969D01*
G01*
X0657953D02*
G03*
X0655984Y0213268I-0001969J0000000D01*
G01*
X0656181Y0209331D02*
G03*
X0657953Y0211102I0000000J0001772D01*
G01*
X0337148Y0274268D02*
G03*
X0339116Y0272300I0001969J0000000D01*
G01*
X0339096Y0272296D02*
G03*
X0341064Y0274264I0000000J0001969D01*
G01*
X0196144Y0277772D02*
G03*
X0198112Y0275803I0001969J0000000D01*
G01*
X0198092Y0275800D02*
G03*
X0200060Y0277768I0000000J0001969D01*
G01*
X0339079Y0342808D02*
G03*
X0337110Y0340840I0000000J-0001969D01*
G01*
X0341047Y0341037D02*
G03*
X0339276Y0342808I-0001772J0000000D01*
G01*
X0200051Y0341128D02*
G03*
X0198279Y0342900I-0001772J0000000D01*
G01*
X0198082D02*
G03*
X0196114Y0340931I0000000J-0001969D01*
G01*
X0546153Y0372797D02*
G03*
X0544382Y0371025I0000000J-0001772D01*
G01*
X0544416Y0308267D02*
G03*
X0546385Y0306299I0001969J0000000D01*
G01*
D02*
G03*
X0548353Y0308267I0000000J0001969D01*
G01*
X0570768Y0229921D02*
G03*
X0568701Y0227854I0000000J-0002067D01*
G01*
X0576575Y0227953D02*
G03*
X0574606Y0229921I-0001969J0000000D01*
G01*
X0568701Y0179921D02*
G03*
X0569049Y0179081I0001188J0000000D01*
G01*
X0572021Y0176109D02*
G03*
X0575886Y0174508I0003864J0003864D01*
G01*
X0603268D02*
G03*
X0604843Y0176083I0000000J0001575D01*
G01*
X0576572Y0183264D02*
G03*
X0577848Y0181988I0001276J0000000D01*
G01*
X0576575Y0185531D02*
G03*
X0576572Y0185529I0000000J-0000003D01*
G01*
X0547441Y0222441D02*
G03*
X0547444Y0222444I0000000J0000003D01*
G01*
Y0224708D02*
G03*
X0546168Y0225984I-0001276J0000000D01*
G01*
X0533169Y0227165D02*
G03*
X0534350Y0225984I0001181J0000000D01*
G01*
X0534744Y0233465D02*
G03*
X0533169Y0231890I0000000J-0001575D01*
G01*
X0551994Y0231864D02*
G03*
X0548130Y0233465I-0003864J-0003864D01*
G01*
X0555315Y0228051D02*
G03*
X0554967Y0228891I-0001188J0000000D01*
G01*
X0573622Y0368871D02*
G03*
X0575393Y0370643I0000000J0001772D01*
G01*
Y0370840D02*
G03*
X0573425Y0372808I-0001969J0000000D01*
G01*
X0602871Y0313982D02*
G03*
X0600902Y0312013I0000000J-0001969D01*
G01*
X0604843Y0312008D02*
G03*
X0602874Y0313976I-0001969J0000000D01*
G01*
X0634547Y0120374D02*
G03*
X0631496Y0113008I0007366J-0007366D01*
G01*
X0641438Y0123228D02*
G03*
X0634547Y0120374I0000000J-0009745D01*
G01*
X0705020Y0123228D02*
G03*
X0705188Y0123298I0000000J0000238D01*
G01*
X0715748Y0133858D02*
G03*
X0716142Y0134809I-0000950J0000950D01*
G01*
X0718209Y0185335D02*
G03*
X0716142Y0183268I0000000J-0002067D01*
G01*
X0720079Y0183465D02*
G03*
X0718209Y0185335I-0001870J0000000D01*
G01*
X0719104Y0131703D02*
G03*
X0720079Y0134055I-0002352J0002352D01*
G01*
X0708661Y0121260D02*
G03*
X0708731Y0121092I0000238J0000000D01*
G01*
X0720079Y0108491D02*
G03*
X0719193Y0110630I-0003024J0000000D01*
G01*
X0718012Y0089665D02*
G03*
X0720079Y0091732I0000000J0002067D01*
G01*
X0716142Y0091535D02*
G03*
X0718012Y0089665I0001870J0000000D01*
G01*
X0716142Y0107283D02*
G03*
X0715515Y0108796I-0002139J0000000D01*
G01*
X0705709Y0118602D02*
G03*
X0704045Y0119291I-0001663J-0001663D01*
G01*
X0641437D02*
G03*
X0637572Y0117691I0000000J-0005465D01*
G01*
X0637303Y0117421D02*
G03*
X0635433Y0112907I0004515J-0004515D01*
G01*
X0633458Y0110552D02*
G03*
X0635426Y0112520I0000000J0001969D01*
G01*
X0631489Y0112323D02*
G03*
X0633261Y0110552I0001772J0000000D01*
G01*
X0683071Y0141464D02*
G03*
X0685040Y0143432I0000000J0001969D01*
G01*
X0663780D02*
G03*
X0665749Y0141464I0001969J0000000D01*
G01*
X0683097Y0141437D02*
G03*
X0685066Y0143405I0000000J0001969D01*
G01*
X0683097Y0162696D02*
G03*
X0681129Y0160728I0000000J-0001969D01*
G01*
X0685066Y0160925D02*
G03*
X0683294Y0162696I-0001772J0000000D01*
G01*
X0663806Y0143405D02*
G03*
X0665775Y0141437I0001969J0000000D01*
G01*
Y0162696D02*
G03*
X0663806Y0160728I0000000J-0001969D01*
G01*
X0667743Y0160925D02*
G03*
X0665972Y0162696I-0001772J0000000D01*
G01*
X0632657Y0142178D02*
G03*
X0634625Y0140210I0001969J0000000D01*
G01*
Y0144147D02*
G03*
X0632657Y0142178I0000000J-0001969D01*
G01*
X0653917D02*
G03*
X0651948Y0144147I-0001969J0000000D01*
G01*
X0652145Y0140210D02*
G03*
X0653917Y0141981I0000000J0001772D01*
G01*
X0677749Y0195552D02*
G03*
X0675780Y0193583I0000000J-0001969D01*
G01*
X0679717D02*
G03*
X0677749Y0195552I-0001969J0000000D01*
G01*
Y0174292D02*
G03*
X0679717Y0176260I0000000J0001969D01*
G01*
X0675780Y0176063D02*
G03*
X0677552Y0174292I0001772J0000000D01*
G01*
X0654035Y0176063D02*
G03*
X0655807Y0174291I0001772J0000000D01*
G01*
X0656004D02*
G03*
X0657972Y0176260I0000000J0001969D01*
G01*
Y0193583D02*
G03*
X0656004Y0195551I-0001969J0000000D01*
G01*
D02*
G03*
X0654035Y0193583I0000000J-0001969D01*
G01*
X0636732Y0254626D02*
G03*
X0638602Y0252756I0001870J0000000D01*
G01*
X0638799Y0256693D02*
G03*
X0636732Y0254626I0000000J-0002067D01*
G01*
X0657437Y0256067D02*
G03*
X0655925Y0256693I-0001512J-0001512D01*
G01*
X0668425Y0245079D02*
G03*
X0670326Y0244291I0001901J0001901D01*
G01*
X0686535Y0242224D02*
G03*
X0684469Y0244291I-0002067J0000000D01*
G01*
X0684665Y0240354D02*
G03*
X0686535Y0242224I0000000J0001870D01*
G01*
X0681811Y0240354D02*
G03*
X0681783Y0240366I-0000028J-0000028D01*
G01*
X0670807Y0240366D02*
G03*
X0667937Y0239177I0000000J-0004059D01*
G01*
X0655863Y0252130D02*
G03*
X0654350Y0252756I-0001512J-0001512D01*
G01*
X0547441Y0180020D02*
G03*
X0549409Y0178051I0001969J0000000D01*
G01*
X0553248D02*
G03*
X0555315Y0180118I0000000J0002067D01*
G01*
X0483890Y0247835D02*
X0538976D01*
X0483890Y0291142D02*
X0538976D01*
X0539976Y0248835D02*
Y0290142D01*
X0482890Y0248835D02*
Y0290142D01*
X0151802Y0271602D02*
X0152108D01*
X0152963Y0271956D02*
X0153183Y0272176D01*
X0153810Y0273688D02*
Y0275204D01*
Y0277669D01*
X0155463Y0281661D02*
X0155535Y0281733D01*
X0158593Y0282999D02*
X0162030D01*
X0162078Y0283019D02*
X0162170D01*
X0165877Y0281484D02*
X0165933Y0281427D01*
X0167589Y0275145D02*
Y0277428D01*
Y0273649D02*
Y0275145D01*
X0171526Y0273491D02*
Y0278413D01*
Y0279101D01*
X0159144Y0286956D02*
X0163588D01*
X0157645D02*
X0159144D01*
X0152092Y0284549D02*
X0152274Y0284732D01*
X0149892Y0274712D02*
Y0279239D01*
Y0273649D02*
Y0274712D01*
X0220680Y0271602D02*
X0220986D01*
X0221841Y0271956D02*
X0222061Y0272176D01*
X0222688Y0273688D02*
Y0275204D01*
Y0277669D01*
X0224341Y0281661D02*
X0224413Y0281733D01*
X0227471Y0282999D02*
X0230908D01*
X0230956Y0283019D02*
X0231048D01*
X0234755Y0281484D02*
X0234811Y0281427D01*
X0236467Y0275145D02*
Y0277428D01*
Y0273649D02*
Y0275145D01*
X0240404Y0273491D02*
Y0278413D01*
Y0279101D01*
X0228023Y0286956D02*
X0232466D01*
X0226523D02*
X0228023D01*
X0220970Y0284549D02*
X0221152Y0284732D01*
X0218771Y0274712D02*
Y0279239D01*
Y0273649D02*
Y0274712D01*
X0295995Y0271602D02*
X0296301D01*
X0297156Y0271956D02*
X0297376Y0272176D01*
X0298003Y0273688D02*
Y0275204D01*
Y0277669D01*
X0299656Y0281661D02*
X0299728Y0281733D01*
X0302786Y0282999D02*
X0306223D01*
X0306271Y0283019D02*
X0306363D01*
X0310070Y0281484D02*
X0310126Y0281427D01*
X0311782Y0275145D02*
Y0277428D01*
Y0273649D02*
Y0275145D01*
X0315719Y0273491D02*
Y0278413D01*
Y0279101D01*
X0303337Y0286956D02*
X0307781D01*
X0301837D02*
X0303337D01*
X0296285Y0284549D02*
X0296467Y0284732D01*
X0294085Y0274712D02*
Y0279239D01*
Y0273649D02*
Y0274712D01*
X0363405Y0273642D02*
Y0274705D01*
Y0279232D01*
X0365605Y0284542D02*
X0365787Y0284724D01*
X0371158Y0286949D02*
X0372657D01*
X0377101D01*
X0385039Y0278405D02*
Y0279094D01*
Y0273484D02*
Y0278405D01*
X0381102Y0273642D02*
Y0275138D01*
Y0277421D01*
X0379390Y0281476D02*
X0379446Y0281420D01*
X0375590Y0283012D02*
X0375683D01*
X0372106Y0282992D02*
X0375543D01*
X0368976Y0281653D02*
X0369048Y0281726D01*
X0367323Y0275197D02*
Y0277661D01*
Y0273681D02*
Y0275197D01*
X0366476Y0271949D02*
X0366697Y0272169D01*
X0365315Y0271595D02*
X0365621D01*
X0577502Y0119508D02*
Y0128268D01*
X0581439Y0111732D02*
Y0128268D01*
Y0110945D02*
Y0111732D01*
X0579274Y0108976D02*
X0579471D01*
X0577502Y0110748D02*
Y0119606D01*
Y0151004D02*
Y0159764D01*
X0581439Y0143228D02*
Y0159764D01*
Y0142441D02*
Y0143228D01*
X0579274Y0140472D02*
X0579471D01*
X0577502Y0142244D02*
Y0151102D01*
X0635433Y0112480D02*
Y0112907D01*
X0698348Y0092299D02*
X0707108D01*
X0691595Y0088362D02*
X0707108Y0088362D01*
X0689588Y0092299D02*
X0698447Y0092299D01*
X0691601Y0088366D02*
X0691601Y0081673D01*
X0687664Y0090334D02*
X0687664Y0089547D01*
X0687664Y0073011D02*
X0687664Y0089547D01*
X0691601Y0073011D02*
Y0081771D01*
X0735995Y0263737D02*
X0744755D01*
X0735995Y0267674D02*
X0752531Y0267674D01*
X0753318Y0267674D01*
X0744657Y0263737D02*
X0753515D01*
X0658165Y0234941D02*
X0664167Y0241072D01*
X0663726Y0234883D02*
X0663865Y0235022D01*
X0663791Y0232137D02*
X0671448Y0224480D01*
X0663898Y0235059D02*
X0668021Y0239254D01*
X0671379Y0224550D02*
X0677573Y0218355D01*
X0658113Y0232247D02*
X0674789Y0215571D01*
X0638661Y0209331D02*
X0647421D01*
X0638661Y0213268D02*
X0655197D01*
X0655984D01*
X0657953Y0211102D02*
Y0211299D01*
X0647323Y0209331D02*
X0656181D01*
X0341065Y0282929D02*
X0341065Y0291788D01*
X0337148Y0291591D02*
X0337148Y0290804D01*
X0337148Y0274268D02*
X0337148Y0290804D01*
X0341065Y0274268D02*
Y0283028D01*
X0200061Y0282929D02*
X0200061Y0291788D01*
X0196144Y0291591D02*
X0196144Y0290804D01*
X0196144Y0277598D02*
X0196144Y0290804D01*
X0200061Y0277697D02*
Y0283028D01*
X0341047Y0323517D02*
Y0332277D01*
X0337110Y0323517D02*
X0337110Y0340052D01*
X0337110Y0340840D02*
X0337110Y0340052D01*
X0339079Y0342808D02*
X0339276D01*
X0341047Y0332178D02*
X0341047Y0341037D01*
X0341057Y0315830D02*
X0341057Y0324689D01*
X0337121Y0307169D02*
X0337121Y0323704D01*
X0341057Y0307169D02*
Y0315929D01*
X0341057Y0299098D02*
X0341058Y0307956D01*
X0337140Y0307759D02*
X0337140Y0306972D01*
X0337140Y0290437D02*
X0337140Y0306972D01*
X0341057Y0290437D02*
Y0299196D01*
X0200061Y0290528D02*
Y0299288D01*
X0196144Y0290528D02*
X0196144Y0307063D01*
X0196144Y0307851D02*
X0196144Y0307063D01*
X0200061Y0299189D02*
X0200061Y0308048D01*
X0200061Y0307260D02*
Y0316020D01*
X0196124Y0307260D02*
X0196124Y0323796D01*
X0200061Y0315922D02*
X0200061Y0324780D01*
X0200051Y0332270D02*
X0200051Y0341128D01*
X0198082Y0342900D02*
X0198279D01*
X0196114Y0340931D02*
X0196114Y0340144D01*
X0196114Y0323608D02*
X0196114Y0340144D01*
X0200051Y0323608D02*
Y0332368D01*
X0554725Y0372763D02*
X0563485D01*
X0548353Y0368898D02*
X0563413Y0368898D01*
X0545965Y0372763D02*
X0554823D01*
X0544389Y0371063D02*
X0544416Y0336220D01*
X0548353D02*
Y0344980D01*
Y0308267D02*
Y0317027D01*
X0544416Y0308267D02*
X0544416Y0324803D01*
X0544416Y0325590D02*
X0544416Y0324803D01*
X0544416Y0343307D02*
X0544416Y0342519D01*
X0548353Y0316929D02*
Y0325787D01*
Y0325984D02*
Y0334744D01*
Y0334645D02*
Y0343503D01*
X0544416Y0325984D02*
X0544416Y0342519D01*
X0548353Y0344881D02*
Y0368898D01*
X0576575Y0185531D02*
Y0219291D01*
X0568701Y0179921D02*
Y0224803D01*
Y0227854D01*
X0570768Y0229921D02*
X0574606D01*
X0576575Y0219193D02*
Y0227953D01*
X0569049Y0179081D02*
X0572021Y0176109D01*
X0575886Y0174508D02*
X0603307D01*
X0604843Y0176083D02*
Y0180807D01*
X0577848Y0181988D02*
X0599284Y0182009D01*
X0576572Y0185529D02*
X0576572Y0183264D01*
X0547444Y0222444D02*
Y0224708D01*
X0534350Y0225984D02*
X0546168D01*
X0533169Y0227165D02*
Y0231890D01*
X0534744Y0233465D02*
X0548130D01*
X0551994Y0231864D02*
X0554967Y0228891D01*
X0564763Y0368871D02*
X0573622D01*
X0575393Y0370643D02*
Y0370840D01*
X0572637Y0372808D02*
X0573425Y0372808D01*
X0556102D02*
X0572637Y0372808D01*
X0556102Y0368871D02*
X0564862D01*
X0604843Y0312028D02*
X0604843Y0180905D01*
X0631496Y0112244D02*
Y0125862D01*
X0641398Y0123228D02*
X0703839Y0123228D01*
X0705020D01*
X0705188Y0123298D02*
X0715748Y0133858D01*
X0716142Y0134809D02*
Y0136122D01*
Y0183268D01*
X0720079Y0182972D02*
Y0183465D01*
Y0134055D02*
Y0182972D01*
X0708661Y0121260D02*
X0719104Y0131703D01*
X0708731Y0121092D02*
X0719193Y0110630D01*
X0720079Y0108071D02*
Y0108491D01*
Y0091732D02*
Y0108071D01*
X0716142Y0091535D02*
Y0091831D01*
Y0107283D01*
X0705709Y0118602D02*
X0715515Y0108796D01*
X0699862Y0119272D02*
X0704045Y0119291D01*
X0641299Y0119272D02*
X0699862D01*
X0637303Y0117421D02*
X0637572Y0117691D01*
X0633261Y0110552D02*
X0633458D01*
X0681102Y0159914D02*
X0681129Y0159941D01*
X0672343Y0145401D02*
X0681102D01*
X0666536Y0141464D02*
X0683071Y0141464D01*
X0665749D02*
X0666536Y0141464D01*
X0663780Y0143432D02*
Y0143629D01*
X0667717Y0145401D02*
X0674410D01*
X0685066Y0143405D02*
Y0152165D01*
X0681102Y0145401D02*
X0681102Y0159914D01*
X0681129Y0160728D02*
X0681129Y0159941D01*
X0683097Y0162696D02*
X0683294D01*
X0685066Y0152067D02*
Y0160925D01*
X0667743Y0145374D02*
Y0152165D01*
X0663806Y0143405D02*
X0663806Y0159941D01*
X0663806Y0160728D02*
X0663806Y0159941D01*
X0665775Y0162696D02*
X0665971D01*
X0667743Y0152067D02*
Y0160925D01*
X0634625Y0140210D02*
X0643385D01*
X0634625Y0144147D02*
X0651161Y0144147D01*
X0651948Y0144147D01*
X0653917Y0141981D02*
Y0142178D01*
X0643287Y0140210D02*
X0652145D01*
X0675780Y0184823D02*
Y0193583D01*
X0679717Y0177048D02*
Y0193583D01*
Y0176260D02*
Y0177048D01*
X0677552Y0174292D02*
X0677749D01*
X0675780Y0176063D02*
Y0184922D01*
X0654035Y0176063D02*
Y0184921D01*
X0655807Y0174291D02*
X0656004D01*
X0657972Y0176260D02*
Y0177047D01*
Y0193583D01*
X0654035Y0184823D02*
Y0193583D01*
X0638799Y0256693D02*
X0640079D01*
X0655925D01*
X0657437Y0256067D02*
X0668425Y0245079D01*
X0670326Y0244291D02*
X0671279D01*
X0684469D01*
X0681811Y0240354D02*
X0684665D01*
X0670807Y0240366D02*
X0681783D01*
X0655863Y0252130D02*
X0664390Y0243602D01*
X0638406Y0252756D02*
X0654350D01*
X0604843Y0179724D02*
Y0180905D01*
X0600906Y0312106D02*
X0600906Y0183630D01*
X0547441Y0180020D02*
Y0188779D01*
X0549409Y0178051D02*
X0553248D01*
X0555315Y0180118D02*
Y0183169D01*
Y0228051D01*
X0547441Y0188681D02*
Y0222441D01*
D14*
X0416284Y0298885D02*
Y0296261D01*
X0416808Y0295736D01*
X0417858D01*
X0418383Y0296261D01*
Y0298885D01*
X0421531D02*
X0420482Y0298360D01*
X0419432Y0297310D01*
Y0296261D01*
X0419957Y0295736D01*
X0421006D01*
X0421531Y0296261D01*
Y0296786D01*
X0421006Y0297310D01*
X0419432D01*
X0182622Y0307251D02*
Y0304627D01*
X0183147Y0304102D01*
X0184196D01*
X0184721Y0304627D01*
Y0307251D01*
X0185771D02*
X0187870D01*
Y0306726D01*
X0185771Y0304627D01*
Y0304102D01*
D15*
X0750310Y0060613D02*
G03*
X0769995Y0080298I0000000J0019685D01*
G01*
X0769980Y0530807D02*
G03*
X0750295Y0550492I-0019685J0000000D01*
G01*
X0083366Y0080315D02*
G03*
X0103051Y0060630I0019685J0000000D01*
G01*
Y0550492D02*
G03*
X0083366Y0530807I0000000J-0019685D01*
G01*
X0727067Y0344390D02*
Y0519980D01*
X0769980Y0530807D02*
X0769980Y0080413D01*
X0586024Y0519980D02*
X0727067D01*
X0103051Y0060630D02*
X0750591Y0060630D01*
X0586024Y0519980D02*
X0586024Y0344390D01*
X0727067D01*
X0083366Y0080413D02*
X0083366Y0530905D01*
X0103051Y0550492D02*
X0750295Y0550492D01*
D435*
X0416741Y0444457D02*
X0417888D01*
X0418118Y0444686D01*
Y0445145D01*
X0417888Y0445375D01*
X0416741D01*
X0416970Y0445834D02*
X0416741Y0446064D01*
Y0446523D01*
X0416970Y0446753D01*
X0417200D01*
X0417429Y0446523D01*
Y0446293D01*
Y0446523D01*
X0417659Y0446753D01*
X0417888D01*
X0418118Y0446523D01*
Y0446064D01*
X0417888Y0445834D01*
X0416741Y0447212D02*
Y0448130D01*
X0416970D01*
X0417888Y0447212D01*
X0418118D01*
D436*
X0232709Y0338574D02*
Y0337591D01*
X0232512Y0337394D01*
X0232118D01*
X0231922Y0337591D01*
Y0338574D01*
X0231528Y0337394D02*
X0231134D01*
X0231331D01*
Y0338574D01*
X0231528Y0338378D01*
X0229757Y0338574D02*
X0230544D01*
Y0337984D01*
X0230150Y0338181D01*
X0229954D01*
X0229757Y0337984D01*
Y0337591D01*
X0229954Y0337394D01*
X0230347D01*
X0230544Y0337591D01*
X0318119Y0331823D02*
X0319102D01*
X0319299Y0331626D01*
Y0331233D01*
X0319102Y0331036D01*
X0318119D01*
X0319299Y0330642D02*
Y0330248D01*
Y0330445D01*
X0318119D01*
X0318315Y0330642D01*
Y0329658D02*
X0318119Y0329461D01*
Y0329068D01*
X0318315Y0328871D01*
X0319102D01*
X0319299Y0329068D01*
Y0329461D01*
X0319102Y0329658D01*
X0318315D01*
X0212115Y0330354D02*
X0213099D01*
X0213295Y0330157D01*
Y0329764D01*
X0213099Y0329567D01*
X0212115D01*
X0213295Y0329174D02*
Y0328780D01*
Y0328977D01*
X0212115D01*
X0212311Y0329174D01*
X0212115Y0327402D02*
X0212311Y0327796D01*
X0212705Y0328190D01*
X0213099D01*
X0213295Y0327993D01*
Y0327599D01*
X0213099Y0327402D01*
X0212902D01*
X0212705Y0327599D01*
Y0328190D01*
X0290264Y0331831D02*
X0291248D01*
X0291445Y0331634D01*
Y0331240D01*
X0291248Y0331044D01*
X0290264D01*
X0291445Y0330650D02*
Y0330256D01*
Y0330453D01*
X0290264D01*
X0290461Y0330650D01*
X0291445Y0329666D02*
Y0329273D01*
Y0329469D01*
X0290264D01*
X0290461Y0329666D01*
X0141445Y0330551D02*
X0142429D01*
X0142626Y0330354D01*
Y0329961D01*
X0142429Y0329764D01*
X0141445D01*
X0142626Y0329370D02*
Y0328977D01*
Y0329174D01*
X0141445D01*
X0141642Y0329370D01*
X0141445Y0328386D02*
Y0327599D01*
X0141642D01*
X0142429Y0328386D01*
X0142626D01*
X0360374Y0326763D02*
Y0325780D01*
X0360177Y0325583D01*
X0359784D01*
X0359587Y0325780D01*
Y0326763D01*
X0359193Y0326567D02*
X0358997Y0326763D01*
X0358603D01*
X0358406Y0326567D01*
Y0326370D01*
X0358603Y0326173D01*
X0358800D01*
X0358603D01*
X0358406Y0325976D01*
Y0325780D01*
X0358603Y0325583D01*
X0358997D01*
X0359193Y0325780D01*
X0358013Y0325583D02*
X0357619D01*
X0357816D01*
Y0326763D01*
X0358013Y0326567D01*
M02*
