G04*
G04 #@! TF.GenerationSoftware,Altium Limited,Altium Designer,21.7.2 (23)*
G04*
G04 Layer_Color=16711935*
%FSAX25Y25*%
%MOIN*%
G70*
G04*
G04 #@! TF.SameCoordinates,25756C21-EA0E-48A6-96D4-99705350E32D*
G04*
G04*
G04 #@! TF.FilePolarity,Positive*
G04*
G01*
G75*
%ADD13C,0.00787*%
G36*
X0254762Y0223191D02*
X0254524Y0222953D01*
X0252186Y0223413D01*
X0253585Y0222014D01*
X0253360Y0221790D01*
X0251580Y0223569D01*
X0251821Y0223810D01*
X0254153Y0223350D01*
X0252757Y0224746D01*
X0252982Y0224971D01*
X0254762Y0223191D01*
D02*
G37*
G36*
X0249642Y0221282D02*
X0249734Y0221279D01*
X0249840Y0221269D01*
X0249949Y0221245D01*
X0250067Y0221205D01*
X0250070Y0221202D01*
X0250081Y0221197D01*
X0250097Y0221192D01*
X0250120Y0221179D01*
X0250147Y0221168D01*
X0250181Y0221149D01*
X0250216Y0221131D01*
X0250255Y0221107D01*
X0250300Y0221083D01*
X0250345Y0221054D01*
X0250440Y0220986D01*
X0250538Y0220909D01*
X0250639Y0220819D01*
X0250641Y0220816D01*
X0250652Y0220806D01*
X0250665Y0220793D01*
X0250684Y0220769D01*
X0250708Y0220745D01*
X0250731Y0220716D01*
X0250760Y0220682D01*
X0250789Y0220642D01*
X0250853Y0220552D01*
X0250916Y0220451D01*
X0250972Y0220343D01*
X0251017Y0220229D01*
X0251020Y0220227D01*
Y0220216D01*
X0251025Y0220200D01*
X0251033Y0220176D01*
X0251035Y0220147D01*
X0251043Y0220113D01*
X0251057Y0220036D01*
X0251064Y0219944D01*
Y0219838D01*
X0251054Y0219727D01*
X0251030Y0219613D01*
X0251027Y0219610D01*
Y0219600D01*
X0251022Y0219584D01*
X0251012Y0219563D01*
X0251004Y0219534D01*
X0250991Y0219505D01*
X0250975Y0219468D01*
X0250959Y0219431D01*
X0250935Y0219391D01*
X0250914Y0219349D01*
X0250858Y0219256D01*
X0250789Y0219166D01*
X0250708Y0219074D01*
X0250681Y0219047D01*
X0250660Y0219031D01*
X0250633Y0219010D01*
X0250604Y0218986D01*
X0250573Y0218960D01*
X0250533Y0218931D01*
X0250446Y0218881D01*
X0250345Y0218828D01*
X0250292Y0218807D01*
X0250237Y0218788D01*
X0250179Y0218772D01*
X0250120Y0218761D01*
X0250115D01*
X0250107Y0218759D01*
X0250089Y0218756D01*
X0250067D01*
X0250036D01*
X0250004D01*
X0249964Y0218759D01*
X0249922D01*
X0249874Y0218764D01*
X0249824Y0218772D01*
X0249774Y0218780D01*
X0249718Y0218793D01*
X0249660Y0218809D01*
X0249602Y0218830D01*
X0249544Y0218857D01*
X0249483Y0218886D01*
X0249660Y0219174D01*
X0249663Y0219171D01*
X0249671Y0219169D01*
X0249684Y0219161D01*
X0249703Y0219153D01*
X0249726Y0219145D01*
X0249753Y0219134D01*
X0249816Y0219113D01*
X0249885Y0219092D01*
X0249964Y0219076D01*
X0250046Y0219068D01*
X0250126Y0219074D01*
X0250134Y0219076D01*
X0250160Y0219081D01*
X0250200Y0219089D01*
X0250250Y0219108D01*
X0250308Y0219134D01*
X0250374Y0219169D01*
X0250443Y0219216D01*
X0250509Y0219277D01*
X0250530Y0219298D01*
X0250541Y0219314D01*
X0250559Y0219333D01*
X0250575Y0219354D01*
X0250615Y0219409D01*
X0250660Y0219476D01*
X0250700Y0219552D01*
X0250731Y0219632D01*
X0250752Y0219722D01*
X0250755Y0219724D01*
X0250752Y0219732D01*
X0250755Y0219761D01*
X0250760Y0219809D01*
Y0219867D01*
X0250752Y0219938D01*
X0250739Y0220015D01*
X0250715Y0220097D01*
X0250681Y0220179D01*
X0250678Y0220182D01*
X0250676Y0220190D01*
X0250671Y0220200D01*
X0250660Y0220216D01*
X0250652Y0220234D01*
X0250639Y0220258D01*
X0250604Y0220309D01*
X0250562Y0220372D01*
X0250514Y0220441D01*
X0250459Y0220507D01*
X0250395Y0220576D01*
X0250393Y0220578D01*
X0250385Y0220586D01*
X0250374Y0220597D01*
X0250358Y0220613D01*
X0250335Y0220631D01*
X0250311Y0220655D01*
X0250284Y0220676D01*
X0250253Y0220703D01*
X0250184Y0220756D01*
X0250102Y0220811D01*
X0250020Y0220861D01*
X0249933Y0220906D01*
X0249930Y0220909D01*
X0249922Y0220912D01*
X0249909Y0220914D01*
X0249893Y0220919D01*
X0249845Y0220935D01*
X0249787Y0220951D01*
X0249716Y0220964D01*
X0249642Y0220970D01*
X0249557D01*
X0249475Y0220956D01*
X0249472Y0220954D01*
X0249467D01*
X0249454Y0220951D01*
X0249438Y0220946D01*
X0249396Y0220930D01*
X0249345Y0220906D01*
X0249285Y0220877D01*
X0249219Y0220837D01*
X0249152Y0220793D01*
X0249089Y0220734D01*
X0249071Y0220716D01*
X0249060Y0220700D01*
X0249041Y0220682D01*
X0249026Y0220660D01*
X0248986Y0220605D01*
X0248952Y0220539D01*
X0248915Y0220465D01*
X0248885Y0220377D01*
X0248875Y0220335D01*
X0248869Y0220287D01*
Y0220282D01*
Y0220277D01*
Y0220261D01*
Y0220245D01*
Y0220219D01*
X0248872Y0220195D01*
X0248880Y0220129D01*
X0248896Y0220049D01*
X0248922Y0219959D01*
X0248962Y0219862D01*
X0249020Y0219761D01*
X0248724Y0219587D01*
X0248721Y0219589D01*
X0248713Y0219602D01*
X0248706Y0219621D01*
X0248690Y0219647D01*
X0248676Y0219682D01*
X0248658Y0219722D01*
X0248639Y0219761D01*
X0248621Y0219811D01*
X0248587Y0219920D01*
X0248560Y0220036D01*
X0248552Y0220102D01*
X0248547Y0220166D01*
X0248544Y0220232D01*
X0248550Y0220295D01*
Y0220301D01*
X0248552Y0220309D01*
X0248555Y0220327D01*
X0248560Y0220354D01*
X0248568Y0220383D01*
X0248579Y0220420D01*
X0248589Y0220457D01*
X0248608Y0220502D01*
X0248624Y0220549D01*
X0248647Y0220600D01*
X0248671Y0220650D01*
X0248703Y0220703D01*
X0248737Y0220758D01*
X0248774Y0220811D01*
X0248822Y0220864D01*
X0248869Y0220917D01*
X0248896Y0220943D01*
X0248920Y0220962D01*
X0248944Y0220986D01*
X0248975Y0221012D01*
X0249012Y0221039D01*
X0249052Y0221068D01*
X0249139Y0221128D01*
X0249240Y0221187D01*
X0249345Y0221234D01*
X0249398Y0221255D01*
X0249454Y0221269D01*
X0249459D01*
X0249467Y0221271D01*
X0249483D01*
X0249504Y0221276D01*
X0249533Y0221279D01*
X0249562Y0221282D01*
X0249642D01*
D02*
G37*
G36*
X0252302Y0221149D02*
X0252889Y0221737D01*
X0253098Y0221528D01*
X0251689Y0220118D01*
X0251480Y0220327D01*
X0252067Y0220914D01*
X0250496Y0222485D01*
X0250731Y0222720D01*
X0252302Y0221149D01*
D02*
G37*
G36*
X0247896Y0219669D02*
X0247902D01*
X0247918D01*
X0247939D01*
X0247965D01*
X0247997Y0219663D01*
X0248028Y0219658D01*
X0248066Y0219653D01*
X0248108Y0219642D01*
X0248150Y0219632D01*
X0248237Y0219597D01*
X0248333Y0219550D01*
X0248380Y0219518D01*
X0248428Y0219481D01*
X0248214Y0219235D01*
X0248211Y0219237D01*
X0248206Y0219243D01*
X0248195Y0219248D01*
X0248182Y0219256D01*
X0248142Y0219280D01*
X0248097Y0219304D01*
X0248039Y0219330D01*
X0247978Y0219354D01*
X0247912Y0219367D01*
X0247846Y0219370D01*
X0247838Y0219367D01*
X0247817D01*
X0247783Y0219359D01*
X0247743Y0219346D01*
X0247695Y0219330D01*
X0247642Y0219304D01*
X0247589Y0219272D01*
X0247539Y0219227D01*
X0247523Y0219211D01*
X0247516Y0219198D01*
X0247489Y0219166D01*
X0247463Y0219118D01*
X0247433Y0219063D01*
X0247410Y0218997D01*
X0247394Y0218923D01*
X0247391Y0218883D01*
Y0218841D01*
X0247394Y0218838D01*
X0247391Y0218830D01*
X0247394Y0218817D01*
X0247396Y0218804D01*
X0247404Y0218759D01*
X0247420Y0218701D01*
X0247447Y0218637D01*
X0247481Y0218566D01*
X0247534Y0218492D01*
X0247598Y0218418D01*
X0247600Y0218415D01*
X0247605Y0218410D01*
X0247616Y0218399D01*
X0247632Y0218389D01*
X0247648Y0218373D01*
X0247669Y0218357D01*
X0247719Y0218322D01*
X0247780Y0218288D01*
X0247846Y0218259D01*
X0247920Y0218238D01*
X0247999Y0218227D01*
X0248010D01*
X0248034Y0218230D01*
X0248076Y0218235D01*
X0248129Y0218246D01*
X0248185Y0218264D01*
X0248251Y0218293D01*
X0248317Y0218338D01*
X0248383Y0218394D01*
X0248401Y0218412D01*
X0248417Y0218434D01*
X0248441Y0218463D01*
X0248462Y0218500D01*
X0248486Y0218539D01*
X0248507Y0218587D01*
X0248523Y0218635D01*
Y0218640D01*
X0248528Y0218656D01*
X0248531Y0218685D01*
X0248536Y0218717D01*
X0248539Y0218756D01*
Y0218798D01*
X0248534Y0218846D01*
X0248526Y0218891D01*
X0248761Y0219068D01*
X0249504Y0217981D01*
X0248621Y0217098D01*
X0248412Y0217307D01*
X0249121Y0218016D01*
X0248737Y0218590D01*
Y0218584D01*
X0248735Y0218576D01*
X0248732Y0218563D01*
X0248729Y0218545D01*
X0248721Y0218521D01*
X0248716Y0218494D01*
X0248695Y0218431D01*
X0248663Y0218362D01*
X0248624Y0218285D01*
X0248576Y0218211D01*
X0248550Y0218174D01*
X0248494Y0218119D01*
X0248476Y0218106D01*
X0248454Y0218090D01*
X0248428Y0218069D01*
X0248396Y0218047D01*
X0248359Y0218026D01*
X0248280Y0217984D01*
X0248235Y0217966D01*
X0248185Y0217947D01*
X0248132Y0217931D01*
X0248076Y0217923D01*
X0248021Y0217915D01*
X0247960Y0217913D01*
X0247955D01*
X0247944D01*
X0247928D01*
X0247904Y0217915D01*
X0247878Y0217920D01*
X0247846Y0217926D01*
X0247806Y0217934D01*
X0247767Y0217942D01*
X0247724Y0217957D01*
X0247677Y0217973D01*
X0247629Y0217995D01*
X0247579Y0218018D01*
X0247531Y0218050D01*
X0247481Y0218085D01*
X0247433Y0218122D01*
X0247383Y0218166D01*
X0247381Y0218169D01*
X0247373Y0218177D01*
X0247359Y0218190D01*
X0247346Y0218209D01*
X0247328Y0218233D01*
X0247307Y0218259D01*
X0247280Y0218291D01*
X0247259Y0218328D01*
X0247209Y0218410D01*
X0247166Y0218505D01*
X0247145Y0218558D01*
X0247129Y0218611D01*
X0247116Y0218666D01*
X0247108Y0218727D01*
Y0218732D01*
Y0218743D01*
Y0218764D01*
X0247106Y0218793D01*
Y0218825D01*
X0247108Y0218865D01*
X0247113Y0218907D01*
X0247124Y0218955D01*
X0247135Y0219007D01*
X0247150Y0219060D01*
X0247172Y0219118D01*
X0247196Y0219174D01*
X0247227Y0219232D01*
X0247264Y0219290D01*
X0247309Y0219351D01*
X0247359Y0219407D01*
X0247383Y0219431D01*
X0247402Y0219444D01*
X0247426Y0219462D01*
X0247452Y0219483D01*
X0247481Y0219507D01*
X0247516Y0219531D01*
X0247595Y0219579D01*
X0247687Y0219618D01*
X0247735Y0219639D01*
X0247785Y0219653D01*
X0247838Y0219663D01*
X0247891Y0219669D01*
X0247896D01*
D02*
G37*
D13*
X0254693Y0229941D02*
X0257894Y0226740D01*
X0248011Y0223260D02*
X0254693Y0229941D01*
X0248011Y0223260D02*
X0251213Y0220059D01*
X0257894Y0226740D01*
M02*
