M48
;Layer_Color=9474304
;FILE_FORMAT=2:5
INCH
;TYPE=PLATED
T1F00S00C0.01181
T2F00S00C0.02362
T3F00S00C0.03800
T4F00S00C0.03937
T5F00S00C0.04000
T6F00S00C0.04016
T7F00S00C0.04331
T8F00S00C0.04528
T9F00S00C0.04724
T10F00S00C0.05118
T11F00S00C0.05512
T12F00S00C0.05709
T13F00S00C0.05906
T14F00S00C0.06299
T15F00S00C0.06693
T16F00S00C0.11811
T17F00S00C0.13780
;TYPE=NON_PLATED
T18F00S00C0.02913
%
T01
X0235925Y0093209
X0250197Y0089862
X0252658Y0099213
X0260335Y0098524
X0262205Y0092126
X0269291
X0276378
X0283464
X0290551
X0297638
X0304724
X0308267Y0085039
X0301181
X0294094
X0287008
X0279921
X0272834
X0267421Y0085728
X0276378Y0077953
X0283464
X0290551
X0297638
X0304724
X0311811
X0301181Y0099212
X0294094
X0287697Y0103347
X0287502Y0108604
X0275295Y0111221
X0274449Y0115019
X0268110Y0104429
X0265158Y0102184
X0265256Y0107087
X0255610Y0126378
X0251870Y0123228
X0248031Y0120472
X0244488Y0127559
X0248031Y0148819
X0251742Y0146457
X0252756Y0151083
X0255020Y0155217
X0244488Y0155905
X0267784Y0153749
X0291497Y0152401
X0290256Y0141831
X0291043Y0131791
X0281004Y0131496
X0275689Y0131004
X0284350Y0128051
X0284055Y0123130
X0299814Y0126969
X0302460Y0130217
X0302165Y0139469
X0309823Y0136535
X0309803Y0146574
X0311122Y0127067
X0307382Y0123819
X0309449Y0114272
X0313976Y0112106
X0318963Y0109415
X0336614Y0113386
X0340157Y0106299
X0347244
X0350787Y0113386
X0357874
X0364960
X0372047
X0379134
X0386220
X0393307
X0400393
X0407480
X0414567
X0411023Y0120472
X0418110
X0425197
X0432283
X0439370
X0446456
X0455098Y0118976
X0460630Y0120472
X0467716
Y0106299
Y0092126
Y0077953
X0457086Y0085039
X0450000
X0446456Y0092126
X0453543
X0432913Y0089882
X0429547
X0425197Y0092126
X0418110
X0411023
X0404429Y0095472
X0400000Y0091929
X0399468Y0087008
X0396850Y0077953
X0403937
X0389763
X0382677
X0375590
X0368504
X0354330
X0347244
X0340157
X0333071
X0325984
X0318897
X0315354Y0085039
X0350787Y0099212
X0361417Y0106299
X0368504
X0375590
X0382677
X0389763
X0396850
X0403937
Y0120472
X0396850
X0389763
X0382677
X0375590
X0368504
X0361417
X0354330
X0348130Y0119095
X0347539Y0149409
X0337500Y0149606
X0337402Y0155610
X0328937Y0152362
X0337500Y0142224
X0314075Y0136614
X0373622Y0149213
X0382677Y0148819
X0389763
X0421457Y0103623
Y0096457
X0414567Y0085039
X0450000Y0113386
X0457086
X0530886Y0137028
X0761319Y0268406
X0581122Y0273622
X0575394Y0271476
X0566437Y0276594
X0556575Y0277205
X0549705Y0271949
X0545571
X0561102Y0289094
X0585374Y0278307
X0580020Y0257146
X0586614Y0210925
X0591634Y0215453
X0581791Y0205512
X0445079Y0260531
X0440354Y0264213
X0432579Y0264961
X0432677Y0286910
X0427854
X0423377Y0286775
X0419783Y0286614
X0414272Y0285925
X0417717Y0276575
X0419587Y0299508
X0419488Y0303740
X0413484Y0307677
X0404134Y0307185
X0407972Y0299016
X0405020Y0291328
X0398228Y0295461
X0388386Y0305413
X0383366Y0305512
X0371654Y0308760
X0368701Y0298031
X0365965Y0295149
X0378150Y0295374
X0385569Y0286973
X0355118Y0307382
X0347146Y0304145
X0328445Y0303642
X0326870Y0309339
X0324114Y0306890
X0318297Y0301761
X0314862Y0298425
X0320193Y0294699
X0323253Y0294652
X0326403Y0294689
X0329553Y0294652
X0332702
X0334055Y0273917
X0318602Y0273819
X0317902Y0285926
X0321004Y0210236
X0321102Y0206594
X0314910Y0209386
X0335177Y0205610
X0344921Y0206299
X0349547Y0201476
X0369685Y0202756
X0374016Y0203937
X0375984Y0201575
X0372342Y0199606
X0378839Y0186181
X0384291Y0186279
X0383720Y0180874
Y0176543
X0379390
Y0180874
X0393701Y0181398
Y0184744
X0400393Y0184252
X0396850Y0177165
X0403937
X0400393Y0170079
X0393307
X0386220
X0377067Y0166476
X0370276
X0349902Y0164961
X0337106Y0162106
X0329035Y0158454
X0329626Y0169095
X0326496Y0169173
X0324764Y0177618
X0329350Y0177100
X0327165Y0188878
X0327067Y0193012
X0340236Y0182087
X0356496Y0180807
X0356299Y0184252
X0315211Y0176400
X0315211Y0172069
X0315211Y0167738
X0315211Y0163408
X0315211Y0159077
X0431398Y0292717
X0447972Y0293071
X0449429Y0296161
X0444783Y0296358
X0443701Y0300886
X0454153Y0294370
X0458760Y0293012
X0457087Y0283169
X0452362Y0287303
X0463412Y0309744
X0311122Y0295768
X0295965Y0296260
X0292829Y0298046
X0287205Y0308366
X0271949Y0299939
X0269193Y0297539
X0262106Y0300590
X0257480Y0294685
X0254331
X0251181Y0294722
X0248031Y0294685
X0244882
X0242607Y0286237
X0243898Y0273031
X0263681Y0278150
X0268032Y0278189
X0273268Y0278268
Y0274134
X0252067Y0301378
X0248917Y0305906
X0233957Y0295571
X0218602
X0221052Y0300544
X0215158Y0291437
X0209547Y0307972
X0192028Y0303554
X0186122Y0305512
Y0308661
Y0311811
Y0295374
X0188583Y0286516
X0174803Y0294488
X0168996Y0294390
X0173622Y0299705
X0170601Y0306721
X0161732Y0306591
X0196555Y0272598
X0200020Y0272657
X0192953Y0240256
X0193209Y0236535
X0193681Y0232736
X0195039Y0229272
X0197441Y0226732
X0200728Y0225157
X0204291Y0224744
X0207835Y0225256
X0211122Y0227776
X0213425Y0231004
X0214665Y0235216
Y0239154
X0218169Y0240709
X0222559Y0242224
X0226496Y0243347
X0230512Y0243209
X0246063Y0231890
X0248917Y0234350
X0261573Y0230947
X0264173Y0229331
X0283636Y0227258
X0287008Y0226771
X0285354Y0230217
X0294813Y0223297
X0303258Y0220048
X0306398Y0209449
X0311516Y0208465
X0308268Y0196260
X0303543Y0195965
X0298622Y0196161
X0292173Y0199439
X0285295Y0198638
X0283011Y0196221
X0276894Y0194533
X0273425Y0195177
X0274311Y0204724
X0286164Y0206210
X0286811Y0203051
X0291634Y0210039
X0291437Y0191240
X0291423Y0187978
X0288184Y0183633
X0285295Y0190677
X0279538Y0190357
X0281102Y0175502
X0269447Y0176786
X0273425Y0168270
X0267520Y0165157
X0270866Y0160630
X0279616Y0160709
X0286136Y0167520
X0297889Y0167738
Y0172069
X0302219
X0302219Y0176400
X0306550Y0176400
X0310881Y0176400
X0310881Y0172069
X0306550Y0172069
X0306550Y0167738
X0302219
Y0163408
X0306550
X0310881Y0163408
X0310881Y0159077
X0306550
X0302219
X0297889
Y0163408
X0297790Y0176400
X0310881Y0167738
X0264444Y0157508
X0245866Y0172835
X0248031Y0177165
X0251575Y0184252
X0244488
X0248031Y0191339
X0256004Y0188484
X0308366Y0243209
X0190177Y0241811
X0186476Y0243071
X0182500Y0243701
X0178347Y0244094
X0174409
X0170472
X0141339Y0237205
X0138189
X0135039
Y0224016
X0138189
X0141339
X0128012Y0224153
X0122972Y0224095
X0118287
X0107480Y0202992
X0093937Y0199173
X0088996Y0219528
X0100847Y0251496
X0096732Y0259882
X0096850Y0265177
X0096811Y0273012
X0096988Y0278720
X0101260Y0286850
X0101299Y0269665
X0112697Y0268898
X0144583Y0298928
X0150030Y0298992
X0141240Y0308169
X0138189
X0138091Y0320374
X0135531Y0323436
X0131614Y0324016
X0132192Y0331217
X0132008Y0334488
X0138660Y0328739
X0142126Y0328926
X0149576Y0329398
X0152697Y0338740
X0144882Y0339370
X0145855Y0317520
X0150204Y0314385
X0154134Y0313348
X0139567Y0377658
X0100886Y0351279
X0089626Y0355373
X0086417Y0354724
X0087334Y0346260
Y0341240
X0088583Y0333071
X0091934Y0332890
X0157157Y0327761
X0169063Y0318571
X0174409Y0313287
X0173189Y0334685
X0189862Y0333917
X0185422Y0325295
X0206398Y0325590
X0204615Y0319499
X0210535Y0318606
X0218110Y0316634
X0221271Y0315567
X0219772Y0333355
X0211221Y0339469
X0206091Y0337697
X0203346Y0334755
X0230020Y0338779
X0234744Y0343220
X0242516Y0343294
X0247736Y0343504
X0251321Y0336832
X0254528Y0333858
X0248721Y0325098
X0241437
X0238681Y0328445
X0235827Y0333121
X0235422Y0320866
X0277165Y0320276
X0277756Y0325000
X0274803Y0327854
X0280730Y0328663
X0287106Y0330020
X0293917Y0329938
X0296949Y0326181
X0299606Y0322047
X0299410Y0314578
X0303051Y0314567
X0294587Y0317618
X0287008Y0320177
X0305118Y0327854
X0301457Y0338392
X0303642Y0341339
X0311122Y0336713
X0311671Y0377496
X0302854Y0381844
X0299705Y0381004
X0296616Y0380461
X0293701Y0381398
X0297787Y0383544
X0300295Y0388583
X0303543Y0389862
X0307923Y0388316
X0308455Y0395184
X0304724Y0395079
X0301645Y0395184
X0305020Y0411024
X0311122Y0410728
X0311316Y0428854
X0308159Y0435148
X0293044Y0436120
X0290945Y0439665
X0290846Y0444685
X0284528Y0445471
X0287292Y0458523
X0304199Y0455101
X0299245Y0447635
X0288812Y0431100
X0281824Y0431297
X0283497Y0425293
X0288375Y0423425
X0290650Y0414075
X0286221Y0408957
Y0404232
Y0399508
X0281496
X0276772
Y0404232
Y0408957
X0281496
Y0404232
X0263702Y0403881
X0263209Y0409390
X0259842Y0412480
X0256358Y0409173
X0254350Y0405035
X0255650Y0398386
X0254804Y0394961
X0260885Y0398268
X0264232Y0392997
X0264016Y0386535
X0263189Y0382579
X0268071Y0382283
X0272539Y0384135
X0272933Y0379035
X0278150
X0280198Y0381414
X0275394Y0388235
X0247933Y0390059
X0244507Y0386516
X0242815Y0379724
X0246817Y0379876
X0245866Y0400197
X0237992Y0395276
X0229429Y0398316
X0229546Y0402090
X0223622Y0395866
X0215059Y0395276
X0214370Y0405905
X0213189Y0409055
X0207382Y0421752
X0207579Y0425984
X0200295Y0433071
X0200394Y0436319
X0196358Y0442028
X0178248Y0443110
X0171063Y0426378
X0169980Y0421063
X0171752Y0414370
X0180118
X0184153Y0411614
X0189173
X0193602Y0416240
X0195866Y0419153
X0204429Y0398307
X0203661Y0395079
X0213976Y0383366
X0225590Y0383071
X0224213Y0376772
X0168799Y0378740
X0166634Y0386516
X0171949
X0161221
X0217717Y0450095
X0214764Y0454921
X0234252Y0447933
X0252420Y0421994
X0272316Y0425162
X0316043Y0410827
X0314665Y0407579
X0314862Y0397565
X0317913Y0396752
X0320866Y0391990
X0329724Y0387106
X0329862Y0377007
X0326575Y0376870
X0333425Y0376958
X0335728Y0379823
X0338484Y0377165
X0341732Y0379724
X0346358Y0382776
X0346457Y0394488
X0351969Y0392126
X0357382Y0390846
X0365354Y0389173
X0368012Y0386221
X0368406Y0393602
X0368701Y0398819
X0374902Y0416240
X0376564Y0419783
X0389173Y0426181
X0394783Y0409252
X0398130Y0406791
X0399508Y0412303
X0405315Y0406693
X0405413Y0402854
X0398327Y0379331
X0392815
X0387303
X0358071Y0378543
X0354842Y0378722
X0343220Y0406871
X0339469Y0406988
X0328740Y0406004
X0330315Y0400689
X0330315Y0412894
X0327067Y0412697
X0334350Y0419095
X0332973Y0424803
X0337303Y0424803
X0337303Y0429134
X0332972Y0429134
X0336910Y0437205
X0343602Y0430709
X0354862Y0422402
X0361319Y0424213
X0363484Y0427067
X0417715Y0426573
X0411319Y0451279
X0423032Y0456988
X0463189Y0463484
X0466437Y0460236
X0449891Y0338287
X0443405Y0338090
X0442728Y0325295
X0446161Y0324705
X0450886
X0456004
X0459547Y0324902
X0461122Y0312992
X0419980Y0312697
X0405610Y0338583
X0385236Y0330295
X0383366Y0324803
X0388484
X0378150Y0325039
X0364487Y0321949
X0363790Y0315354
X0368898Y0313298
X0355628Y0318421
X0357749Y0323764
X0362655Y0336622
X0368332Y0334916
X0344783Y0332658
X0331063Y0336181
X0327933Y0335354
X0332007Y0340943
X0316811Y0343150
X0314665Y0330512
X0321358Y0330413
X0320472Y0313681
X0333465Y0318130
X0346555Y0316732
X0314862Y0377461
X0319914Y0450686
X0469685Y0458366
X0581299Y0459744
X0567421Y0405512
X0567421Y0402362
X0567421Y0399213
X0563480Y0399193
X0563480Y0402343
Y0405492
X0559547Y0405512
Y0402362
Y0399213
X0533032Y0376476
X0532835Y0370945
X0535039Y0365886
X0531128Y0350017
X0526772Y0346654
X0519882Y0350413
X0522657Y0357756
X0536909Y0336417
Y0332480
Y0328543
X0556102
Y0332480
Y0336417
X0565354Y0348130
X0573917Y0348031
X0581102Y0325197
Y0321063
X0564567Y0320571
X0566240Y0325295
X0471850Y0336910
X0475098Y0340945
X0475886Y0510827
X0478267Y0514468
X0482776
X0488091
X0493405
X0498524
X0504035
X0505807Y0520571
X0510039Y0524606
Y0527854
X0513386
Y0524606
X0510324Y0535728
X0510433Y0538789
X0500984Y0540945
X0502756Y0543602
X0498622Y0532480
X0494783
X0491240Y0528937
X0480807Y0524409
X0473130Y0514468
X0533297Y0528295
X0533395Y0533315
X0532903Y0538138
X0530020Y0546161
X0553642Y0513681
X0556791Y0513878
X0560433Y0509271
X0458661Y0523032
X0455807Y0526870
X0436811Y0519783
X0434055Y0516831
X0409449Y0501968
X0404757Y0482084
X0312106Y0487697
X0306496Y0491831
X0306594Y0500787
X0312402Y0505610
X0309941Y0518405
X0305118Y0525787
X0306693Y0532185
X0301870Y0531988
X0303150Y0477756
X0307972Y0477658
X0307972Y0472835
X0303248
T02
X0279429Y0454429
Y0464272
T03
X0530276Y0113031
X0530453Y0150906
X0569823
X0569646Y0113031
X0645965Y0112795
Y0152165
X0702658Y0152067
Y0112697
T04
X0519035Y0419488
X0539035
X0539035Y0445571
X0519035Y0445571
T05
X0707776Y0185630
X0743760Y0204429
X0092913Y0435138
X0093110Y0452362
X0271654Y0526378
T06
X0491280Y0315354
X0501279
X0521161
X0531161
T07
X0520472Y0107874
X0618209Y0112303
Y0171358
X0520472Y0166929
X0363976Y0241339
X0344291
X0322106Y0238878
X0263051
T08
X0646772Y0219980
X0646772Y0246752
X0676299Y0256594
Y0229823
T09
X0541437Y0123524
Y0151083
X0588681
Y0123524
X0674409Y0102953
Y0152559
T10
X0647146Y0185020
X0686516
T11
X0511614Y0219193
X0541614
X0581614
X0581614Y0189193
X0129331Y0358563
X0209252
Y0506201
X0129331
T12
X0656378Y0081142
X0676378
X0699291Y0081063
X0719291
X0710354Y0199508
Y0219508
T13
X0498772Y0187173
X0458677Y0166744
X0203740Y0189425
Y0234425
X0285138Y0358544
X0365059
T14
X0326398Y0277165
X0352697Y0277165
X0374114
X0395532
X0304980Y0277165
X0283563
X0251043Y0277165
X0229626
X0208209
X0182047Y0277362
X0160630
X0139213
X0433661Y0358858
Y0417913
Y0437795
X0499705Y0437992
X0499803Y0417815
Y0358760
X0499705Y0497047
X0433661Y0496850
X0365059Y0506182
X0285138Y0506102
T15
X0743976Y0165787
Y0192402
X0744075Y0229665
Y0256279
T16
X0261122Y0073819
X0224803Y0125000
X0325007Y0132999
X0386621Y0134771
T17
X0623721Y0081201
X0749508Y0305610
X0567323
X0103839
Y0399311
X0567323Y0530020
X0230020
T18
X0378327Y0310492
X0383327
X0388327
X0393327
X0443681
X0448681
X0453681
X0458681
X0277067
X0272067
X0267067
X0262067
X0257067
X0252067
X0097677Y0336299
X0092677
Y0341299
X0097677
Y0346299
X0092677
Y0351299
X0097677
X0252067Y0315492
X0257067
X0262067
X0267067
X0272067
X0277067
X0378327
X0383327
X0388327
X0393327
X0443681
X0448681
X0453681
X0458681
X0571122Y0325177
Y0330177
Y0335177
Y0340177
X0576122
Y0335177
Y0330177
Y0325177
M30
