G04*
G04 #@! TF.GenerationSoftware,Altium Limited,Altium Designer,21.7.2 (23)*
G04*
G04 Layer_Color=16711935*
%FSAX25Y25*%
%MOIN*%
G70*
G04*
G04 #@! TF.SameCoordinates,7BBA0914-394B-4DB2-939C-07DA4AAD527A*
G04*
G04*
G04 #@! TF.FilePolarity,Positive*
G04*
G01*
G75*
%ADD11C,0.00394*%
%ADD14C,0.00787*%
%ADD367C,0.00394*%
%ADD368C,0.00787*%
%ADD369C,0.00197*%
G36*
X0406370Y0498326D02*
X0406388Y0498324D01*
X0406406Y0498320D01*
X0406423Y0498317D01*
X0406438Y0498312D01*
X0406453Y0498306D01*
X0406466Y0498299D01*
X0406479Y0498294D01*
X0406489Y0498287D01*
X0406499Y0498280D01*
X0406507Y0498275D01*
X0406513Y0498270D01*
X0406519Y0498266D01*
X0406522Y0498262D01*
X0406525Y0498260D01*
X0406526Y0498259D01*
X0406538Y0498245D01*
X0406548Y0498232D01*
X0406558Y0498218D01*
X0406566Y0498204D01*
X0406573Y0498189D01*
X0406578Y0498176D01*
X0406586Y0498150D01*
X0406590Y0498138D01*
X0406592Y0498127D01*
X0406593Y0498117D01*
X0406594Y0498109D01*
X0406595Y0498102D01*
Y0498078D01*
X0406593Y0498065D01*
X0406587Y0498039D01*
X0406579Y0498015D01*
X0406572Y0497993D01*
X0406563Y0497975D01*
X0406558Y0497969D01*
X0406555Y0497962D01*
X0406551Y0497958D01*
X0406549Y0497954D01*
X0406548Y0497952D01*
X0406547Y0497951D01*
X0406750Y0497991D01*
Y0498291D01*
X0406838D01*
Y0497917D01*
X0406451Y0497844D01*
X0406438Y0497932D01*
X0406450Y0497940D01*
X0406461Y0497949D01*
X0406470Y0497958D01*
X0406477Y0497966D01*
X0406483Y0497974D01*
X0406489Y0497981D01*
X0406491Y0497986D01*
X0406492Y0497987D01*
X0406499Y0498000D01*
X0406504Y0498015D01*
X0406508Y0498028D01*
X0406511Y0498040D01*
X0406512Y0498052D01*
X0406513Y0498060D01*
Y0498067D01*
X0406511Y0498093D01*
X0406507Y0498117D01*
X0406499Y0498137D01*
X0406491Y0498152D01*
X0406482Y0498166D01*
X0406474Y0498176D01*
X0406470Y0498182D01*
X0406467Y0498184D01*
X0406448Y0498198D01*
X0406428Y0498210D01*
X0406408Y0498217D01*
X0406388Y0498223D01*
X0406370Y0498226D01*
X0406362Y0498228D01*
X0406355D01*
X0406350Y0498229D01*
X0406345D01*
X0406343D01*
X0406342D01*
X0406313Y0498226D01*
X0406286Y0498222D01*
X0406264Y0498214D01*
X0406245Y0498206D01*
X0406229Y0498197D01*
X0406218Y0498189D01*
X0406214Y0498187D01*
X0406211Y0498185D01*
X0406210Y0498183D01*
X0406209D01*
X0406200Y0498174D01*
X0406192Y0498165D01*
X0406180Y0498146D01*
X0406171Y0498127D01*
X0406165Y0498109D01*
X0406161Y0498093D01*
X0406159Y0498081D01*
X0406158Y0498076D01*
Y0498070D01*
X0406159Y0498049D01*
X0406164Y0498032D01*
X0406170Y0498015D01*
X0406176Y0498001D01*
X0406182Y0497990D01*
X0406187Y0497981D01*
X0406192Y0497977D01*
X0406193Y0497974D01*
X0406208Y0497961D01*
X0406224Y0497950D01*
X0406242Y0497942D01*
X0406260Y0497935D01*
X0406275Y0497931D01*
X0406288Y0497927D01*
X0406293Y0497926D01*
X0406296Y0497925D01*
X0406298D01*
X0406299D01*
X0406293Y0497828D01*
X0406275Y0497830D01*
X0406258Y0497833D01*
X0406228Y0497843D01*
X0406202Y0497855D01*
X0406191Y0497861D01*
X0406180Y0497868D01*
X0406171Y0497875D01*
X0406163Y0497880D01*
X0406155Y0497886D01*
X0406149Y0497892D01*
X0406145Y0497896D01*
X0406142Y0497899D01*
X0406140Y0497900D01*
X0406139Y0497902D01*
X0406129Y0497914D01*
X0406120Y0497927D01*
X0406112Y0497941D01*
X0406107Y0497955D01*
X0406096Y0497983D01*
X0406089Y0498010D01*
X0406087Y0498023D01*
X0406085Y0498034D01*
X0406084Y0498044D01*
X0406083Y0498053D01*
X0406082Y0498060D01*
Y0498070D01*
X0406083Y0498092D01*
X0406087Y0498114D01*
X0406091Y0498135D01*
X0406097Y0498154D01*
X0406103Y0498170D01*
X0406111Y0498187D01*
X0406119Y0498202D01*
X0406128Y0498215D01*
X0406136Y0498228D01*
X0406144Y0498238D01*
X0406152Y0498246D01*
X0406158Y0498253D01*
X0406165Y0498259D01*
X0406170Y0498263D01*
X0406172Y0498266D01*
X0406173Y0498267D01*
X0406187Y0498278D01*
X0406202Y0498287D01*
X0406217Y0498295D01*
X0406232Y0498301D01*
X0406261Y0498313D01*
X0406289Y0498319D01*
X0406302Y0498323D01*
X0406314Y0498324D01*
X0406324Y0498325D01*
X0406333Y0498326D01*
X0406340Y0498327D01*
X0406345D01*
X0406349D01*
X0406350D01*
X0406370Y0498326D01*
D02*
G37*
G36*
X0406848Y0497599D02*
X0406413D01*
X0406387D01*
X0406364Y0497597D01*
X0406342Y0497595D01*
X0406323Y0497591D01*
X0406306Y0497588D01*
X0406290Y0497585D01*
X0406276Y0497580D01*
X0406264Y0497576D01*
X0406253Y0497571D01*
X0406245Y0497567D01*
X0406237Y0497563D01*
X0406231Y0497560D01*
X0406227Y0497557D01*
X0406223Y0497554D01*
X0406222Y0497553D01*
X0406221Y0497552D01*
X0406212Y0497543D01*
X0406205Y0497532D01*
X0406193Y0497507D01*
X0406184Y0497482D01*
X0406179Y0497456D01*
X0406174Y0497432D01*
X0406173Y0497422D01*
Y0497413D01*
X0406172Y0497405D01*
Y0497395D01*
X0406173Y0497372D01*
X0406175Y0497351D01*
X0406180Y0497333D01*
X0406184Y0497316D01*
X0406189Y0497303D01*
X0406193Y0497293D01*
X0406195Y0497288D01*
X0406196Y0497286D01*
X0406207Y0497270D01*
X0406218Y0497258D01*
X0406230Y0497246D01*
X0406241Y0497238D01*
X0406252Y0497232D01*
X0406260Y0497227D01*
X0406266Y0497225D01*
X0406268Y0497224D01*
X0406277Y0497221D01*
X0406288Y0497218D01*
X0406311Y0497214D01*
X0406334Y0497211D01*
X0406358Y0497208D01*
X0406379Y0497207D01*
X0406389D01*
X0406397Y0497206D01*
X0406404D01*
X0406408D01*
X0406411D01*
X0406413D01*
X0406848D01*
Y0497106D01*
X0406413D01*
X0406391D01*
X0406370Y0497108D01*
X0406351Y0497109D01*
X0406332Y0497111D01*
X0406315Y0497113D01*
X0406301Y0497115D01*
X0406286Y0497118D01*
X0406273Y0497121D01*
X0406261Y0497123D01*
X0406251Y0497125D01*
X0406243Y0497128D01*
X0406236Y0497130D01*
X0406230Y0497132D01*
X0406227Y0497133D01*
X0406224Y0497134D01*
X0406223D01*
X0406199Y0497147D01*
X0406179Y0497161D01*
X0406159Y0497178D01*
X0406145Y0497194D01*
X0406134Y0497208D01*
X0406125Y0497220D01*
X0406121Y0497224D01*
X0406120Y0497227D01*
X0406118Y0497230D01*
Y0497231D01*
X0406106Y0497258D01*
X0406098Y0497287D01*
X0406091Y0497315D01*
X0406087Y0497343D01*
X0406085Y0497355D01*
X0406084Y0497367D01*
X0406083Y0497377D01*
Y0497386D01*
X0406082Y0497394D01*
Y0497404D01*
X0406084Y0497443D01*
X0406085Y0497461D01*
X0406089Y0497477D01*
X0406092Y0497493D01*
X0406096Y0497507D01*
X0406099Y0497521D01*
X0406103Y0497533D01*
X0406107Y0497544D01*
X0406110Y0497553D01*
X0406113Y0497561D01*
X0406117Y0497568D01*
X0406120Y0497573D01*
X0406121Y0497577D01*
X0406124Y0497579D01*
Y0497580D01*
X0406140Y0497604D01*
X0406158Y0497623D01*
X0406176Y0497640D01*
X0406193Y0497652D01*
X0406209Y0497662D01*
X0406221Y0497669D01*
X0406225Y0497671D01*
X0406229Y0497672D01*
X0406231Y0497673D01*
X0406232D01*
X0406259Y0497682D01*
X0406289Y0497688D01*
X0406319Y0497692D01*
X0406348Y0497695D01*
X0406361Y0497697D01*
X0406373Y0497698D01*
X0406385D01*
X0406393Y0497699D01*
X0406401D01*
X0406408D01*
X0406411D01*
X0406413D01*
X0406848D01*
Y0497599D01*
D02*
G37*
D11*
X0415099Y0327681D02*
G03*
X0415099Y0327681I0000000J0000000D01*
G01*
X0415105Y0533235D02*
G03*
X0415105Y0533235I0000000J0000000D01*
G01*
X0415099Y0332406D02*
X0434784D01*
X0415099Y0327681D02*
Y0332406D01*
X0415099Y0327681D02*
X0434784D01*
X0434784Y0327681D02*
Y0332406D01*
X0434790Y0533235D02*
Y0537959D01*
X0415105Y0533235D02*
X0434790D01*
X0415105Y0533235D02*
Y0537959D01*
X0415105Y0537959D02*
X0434790D01*
D14*
X0103843Y0549693D02*
G03*
X0084158Y0530008I0000000J-0019685D01*
G01*
X0103845Y0549678D02*
G03*
X0084160Y0529993I0000000J-0019685D01*
G01*
X0084158Y0304497D02*
G03*
X0117760Y0290579I0019683J0000000D01*
G01*
X0553206Y0290608D02*
G03*
X0586811Y0304528I0013919J0013919D01*
G01*
X0586817Y0529993D02*
G03*
X0567133Y0549678I-0019685J0000000D01*
G01*
X0103843Y0549694D02*
X0103886Y0549694D01*
X0103845Y0549678D02*
X0567224Y0549689D01*
X0084158Y0304497D02*
X0084160Y0529993D01*
X0117815Y0290610D02*
X0553150Y0290610D01*
X0586812Y0304429D02*
X0586812Y0529993D01*
D367*
X0415099Y0332406D02*
D03*
D03*
X0415105Y0537959D02*
D03*
X0416483Y0526345D02*
D03*
X0415105Y0537959D02*
D03*
D368*
X0084158Y0530009D02*
D03*
D369*
X0346622Y0314559D02*
Y0313575D01*
X0346819Y0313378D01*
X0347212D01*
X0347409Y0313575D01*
Y0314559D01*
X0347803Y0313378D02*
X0348196D01*
X0348000D01*
Y0314559D01*
X0347803Y0314362D01*
X0348787D02*
X0348984Y0314559D01*
X0349377D01*
X0349574Y0314362D01*
Y0314165D01*
X0349377Y0313968D01*
X0349574Y0313772D01*
Y0313575D01*
X0349377Y0313378D01*
X0348984D01*
X0348787Y0313575D01*
Y0313772D01*
X0348984Y0313968D01*
X0348787Y0314165D01*
Y0314362D01*
X0348984Y0313968D02*
X0349377D01*
X0115189Y0360933D02*
Y0361917D01*
X0114992Y0362114D01*
X0114599D01*
X0114402Y0361917D01*
Y0360933D01*
X0114008Y0362114D02*
X0113615D01*
X0113812D01*
Y0360933D01*
X0114008Y0361130D01*
X0113024Y0360933D02*
X0112237D01*
Y0361130D01*
X0113024Y0361917D01*
Y0362114D01*
M02*
