G04*
G04 #@! TF.GenerationSoftware,Altium Limited,Altium Designer,21.7.2 (23)*
G04*
G04 Layer_Color=32768*
%FSAX25Y25*%
%MOIN*%
G70*
G04*
G04 #@! TF.SameCoordinates,7BBA0914-394B-4DB2-939C-07DA4AAD527A*
G04*
G04*
G04 #@! TF.FilePolarity,Positive*
G04*
G01*
G75*
%ADD14C,0.00787*%
D14*
X0497047Y0471850D02*
Y0476378D01*
X0487598D02*
X0497047D01*
X0487598Y0471850D02*
Y0476378D01*
Y0471850D02*
X0497047D01*
X0408268Y0487303D02*
Y0491831D01*
X0398819D02*
X0408268D01*
X0398819Y0487303D02*
Y0491831D01*
Y0487303D02*
X0408268D01*
X0351858Y0375800D02*
X0361922D01*
X0351858Y0358846D02*
Y0375800D01*
Y0358846D02*
X0361922D01*
X0361922Y0375800D02*
X0361922Y0358846D01*
X0123228Y0304823D02*
X0139764D01*
X0139764Y0290551D02*
X0139764Y0304823D01*
X0123228Y0290551D02*
X0139764D01*
X0123228Y0304823D02*
X0123228Y0290551D01*
X0150197Y0300295D02*
Y0303248D01*
X0144685D02*
X0150197D01*
X0144685Y0300295D02*
Y0303248D01*
Y0300295D02*
X0150197D01*
X0160586Y0301924D02*
X0164021D01*
Y0308903D01*
X0160586D02*
X0164021D01*
X0160586Y0301924D02*
Y0308903D01*
X0228248Y0381988D02*
Y0394193D01*
X0237697D01*
Y0381988D02*
Y0394193D01*
X0228248Y0381988D02*
X0237697D01*
M02*
