G04*
G04 #@! TF.GenerationSoftware,Altium Limited,Altium Designer,21.7.2 (23)*
G04*
G04 Layer_Color=8388736*
%FSAX25Y25*%
%MOIN*%
G70*
G04*
G04 #@! TF.SameCoordinates,7BBA0914-394B-4DB2-939C-07DA4AAD527A*
G04*
G04*
G04 #@! TF.FilePolarity,Negative*
G04*
G01*
G75*
G04:AMPARAMS|DCode=62|XSize=25.59mil|YSize=27.56mil|CornerRadius=1.92mil|HoleSize=0mil|Usage=FLASHONLY|Rotation=180.000|XOffset=0mil|YOffset=0mil|HoleType=Round|Shape=RoundedRectangle|*
%AMROUNDEDRECTD62*
21,1,0.02559,0.02372,0,0,180.0*
21,1,0.02175,0.02756,0,0,180.0*
1,1,0.00384,-0.01088,0.01186*
1,1,0.00384,0.01088,0.01186*
1,1,0.00384,0.01088,-0.01186*
1,1,0.00384,-0.01088,-0.01186*
%
%ADD62ROUNDEDRECTD62*%
G04:AMPARAMS|DCode=101|XSize=61.2mil|YSize=61.27mil|CornerRadius=4.59mil|HoleSize=0mil|Usage=FLASHONLY|Rotation=270.000|XOffset=0mil|YOffset=0mil|HoleType=Round|Shape=RoundedRectangle|*
%AMROUNDEDRECTD101*
21,1,0.06120,0.05209,0,0,270.0*
21,1,0.05202,0.06127,0,0,270.0*
1,1,0.00918,-0.02604,-0.02601*
1,1,0.00918,-0.02604,0.02601*
1,1,0.00918,0.02604,0.02601*
1,1,0.00918,0.02604,-0.02601*
%
%ADD101ROUNDEDRECTD101*%
G04:AMPARAMS|DCode=110|XSize=15.75mil|YSize=19.68mil|CornerRadius=1.18mil|HoleSize=0mil|Usage=FLASHONLY|Rotation=180.000|XOffset=0mil|YOffset=0mil|HoleType=Round|Shape=RoundedRectangle|*
%AMROUNDEDRECTD110*
21,1,0.01575,0.01732,0,0,180.0*
21,1,0.01339,0.01968,0,0,180.0*
1,1,0.00236,-0.00669,0.00866*
1,1,0.00236,0.00669,0.00866*
1,1,0.00236,0.00669,-0.00866*
1,1,0.00236,-0.00669,-0.00866*
%
%ADD110ROUNDEDRECTD110*%
G04:AMPARAMS|DCode=114|XSize=24.23mil|YSize=22.54mil|CornerRadius=1.69mil|HoleSize=0mil|Usage=FLASHONLY|Rotation=90.000|XOffset=0mil|YOffset=0mil|HoleType=Round|Shape=RoundedRectangle|*
%AMROUNDEDRECTD114*
21,1,0.02423,0.01916,0,0,90.0*
21,1,0.02085,0.02254,0,0,90.0*
1,1,0.00338,0.00958,0.01042*
1,1,0.00338,0.00958,-0.01042*
1,1,0.00338,-0.00958,-0.01042*
1,1,0.00338,-0.00958,0.01042*
%
%ADD114ROUNDEDRECTD114*%
G04:AMPARAMS|DCode=117|XSize=39.37mil|YSize=13.78mil|CornerRadius=1.03mil|HoleSize=0mil|Usage=FLASHONLY|Rotation=90.000|XOffset=0mil|YOffset=0mil|HoleType=Round|Shape=RoundedRectangle|*
%AMROUNDEDRECTD117*
21,1,0.03937,0.01171,0,0,90.0*
21,1,0.03730,0.01378,0,0,90.0*
1,1,0.00207,0.00586,0.01865*
1,1,0.00207,0.00586,-0.01865*
1,1,0.00207,-0.00586,-0.01865*
1,1,0.00207,-0.00586,0.01865*
%
%ADD117ROUNDEDRECTD117*%
%ADD133R,0.08268X0.14075*%
G04:AMPARAMS|DCode=134|XSize=40.16mil|YSize=32.28mil|CornerRadius=4.43mil|HoleSize=0mil|Usage=FLASHONLY|Rotation=180.000|XOffset=0mil|YOffset=0mil|HoleType=Round|Shape=RoundedRectangle|*
%AMROUNDEDRECTD134*
21,1,0.04016,0.02343,0,0,180.0*
21,1,0.03130,0.03228,0,0,180.0*
1,1,0.00886,-0.01565,0.01171*
1,1,0.00886,0.01565,0.01171*
1,1,0.00886,0.01565,-0.01171*
1,1,0.00886,-0.01565,-0.01171*
%
%ADD134ROUNDEDRECTD134*%
G04:AMPARAMS|DCode=135|XSize=213.39mil|YSize=91.34mil|CornerRadius=8.86mil|HoleSize=0mil|Usage=FLASHONLY|Rotation=0.000|XOffset=0mil|YOffset=0mil|HoleType=Round|Shape=RoundedRectangle|*
%AMROUNDEDRECTD135*
21,1,0.21339,0.07362,0,0,0.0*
21,1,0.19567,0.09134,0,0,0.0*
1,1,0.01772,0.09783,-0.03681*
1,1,0.01772,-0.09783,-0.03681*
1,1,0.01772,-0.09783,0.03681*
1,1,0.01772,0.09783,0.03681*
%
%ADD135ROUNDEDRECTD135*%
%ADD136C,0.05472*%
G04:AMPARAMS|DCode=137|XSize=48.03mil|YSize=28.35mil|CornerRadius=2.48mil|HoleSize=0mil|Usage=FLASHONLY|Rotation=270.000|XOffset=0mil|YOffset=0mil|HoleType=Round|Shape=RoundedRectangle|*
%AMROUNDEDRECTD137*
21,1,0.04803,0.02339,0,0,270.0*
21,1,0.04307,0.02835,0,0,270.0*
1,1,0.00496,-0.01169,-0.02153*
1,1,0.00496,-0.01169,0.02153*
1,1,0.00496,0.01169,0.02153*
1,1,0.00496,0.01169,-0.02153*
%
%ADD137ROUNDEDRECTD137*%
G04:AMPARAMS|DCode=138|XSize=40.16mil|YSize=32.28mil|CornerRadius=4.43mil|HoleSize=0mil|Usage=FLASHONLY|Rotation=135.000|XOffset=0mil|YOffset=0mil|HoleType=Round|Shape=RoundedRectangle|*
%AMROUNDEDRECTD138*
21,1,0.04016,0.02343,0,0,135.0*
21,1,0.03130,0.03228,0,0,135.0*
1,1,0.00886,-0.00278,0.01935*
1,1,0.00886,0.01935,-0.00278*
1,1,0.00886,0.00278,-0.01935*
1,1,0.00886,-0.01935,0.00278*
%
%ADD138ROUNDEDRECTD138*%
G04:AMPARAMS|DCode=139|XSize=42.13mil|YSize=38.19mil|CornerRadius=4.87mil|HoleSize=0mil|Usage=FLASHONLY|Rotation=270.000|XOffset=0mil|YOffset=0mil|HoleType=Round|Shape=RoundedRectangle|*
%AMROUNDEDRECTD139*
21,1,0.04213,0.02845,0,0,270.0*
21,1,0.03238,0.03819,0,0,270.0*
1,1,0.00974,-0.01422,-0.01619*
1,1,0.00974,-0.01422,0.01619*
1,1,0.00974,0.01422,0.01619*
1,1,0.00974,0.01422,-0.01619*
%
%ADD139ROUNDEDRECTD139*%
G04:AMPARAMS|DCode=140|XSize=40.16mil|YSize=32.28mil|CornerRadius=4.43mil|HoleSize=0mil|Usage=FLASHONLY|Rotation=90.000|XOffset=0mil|YOffset=0mil|HoleType=Round|Shape=RoundedRectangle|*
%AMROUNDEDRECTD140*
21,1,0.04016,0.02343,0,0,90.0*
21,1,0.03130,0.03228,0,0,90.0*
1,1,0.00886,0.01171,0.01565*
1,1,0.00886,0.01171,-0.01565*
1,1,0.00886,-0.01171,-0.01565*
1,1,0.00886,-0.01171,0.01565*
%
%ADD140ROUNDEDRECTD140*%
G04:AMPARAMS|DCode=141|XSize=42.13mil|YSize=36.22mil|CornerRadius=4.72mil|HoleSize=0mil|Usage=FLASHONLY|Rotation=45.000|XOffset=0mil|YOffset=0mil|HoleType=Round|Shape=RoundedRectangle|*
%AMROUNDEDRECTD141*
21,1,0.04213,0.02677,0,0,45.0*
21,1,0.03268,0.03622,0,0,45.0*
1,1,0.00945,0.02102,0.00209*
1,1,0.00945,-0.00209,-0.02102*
1,1,0.00945,-0.02102,-0.00209*
1,1,0.00945,0.00209,0.02102*
%
%ADD141ROUNDEDRECTD141*%
G04:AMPARAMS|DCode=142|XSize=42.13mil|YSize=36.22mil|CornerRadius=4.72mil|HoleSize=0mil|Usage=FLASHONLY|Rotation=180.000|XOffset=0mil|YOffset=0mil|HoleType=Round|Shape=RoundedRectangle|*
%AMROUNDEDRECTD142*
21,1,0.04213,0.02677,0,0,180.0*
21,1,0.03268,0.03622,0,0,180.0*
1,1,0.00945,-0.01634,0.01339*
1,1,0.00945,0.01634,0.01339*
1,1,0.00945,0.01634,-0.01339*
1,1,0.00945,-0.01634,-0.01339*
%
%ADD142ROUNDEDRECTD142*%
G04:AMPARAMS|DCode=143|XSize=44.09mil|YSize=46.06mil|CornerRadius=5.32mil|HoleSize=0mil|Usage=FLASHONLY|Rotation=135.000|XOffset=0mil|YOffset=0mil|HoleType=Round|Shape=RoundedRectangle|*
%AMROUNDEDRECTD143*
21,1,0.04409,0.03543,0,0,135.0*
21,1,0.03347,0.04606,0,0,135.0*
1,1,0.01063,0.00070,0.02436*
1,1,0.01063,0.02436,0.00070*
1,1,0.01063,-0.00070,-0.02436*
1,1,0.01063,-0.02436,-0.00070*
%
%ADD143ROUNDEDRECTD143*%
G04:AMPARAMS|DCode=144|XSize=46.06mil|YSize=40.16mil|CornerRadius=5.02mil|HoleSize=0mil|Usage=FLASHONLY|Rotation=135.000|XOffset=0mil|YOffset=0mil|HoleType=Round|Shape=RoundedRectangle|*
%AMROUNDEDRECTD144*
21,1,0.04606,0.03012,0,0,135.0*
21,1,0.03602,0.04016,0,0,135.0*
1,1,0.01004,-0.00209,0.02339*
1,1,0.01004,0.02339,-0.00209*
1,1,0.01004,0.00209,-0.02339*
1,1,0.01004,-0.02339,0.00209*
%
%ADD144ROUNDEDRECTD144*%
G04:AMPARAMS|DCode=145|XSize=42.13mil|YSize=42.13mil|CornerRadius=5.17mil|HoleSize=0mil|Usage=FLASHONLY|Rotation=45.000|XOffset=0mil|YOffset=0mil|HoleType=Round|Shape=RoundedRectangle|*
%AMROUNDEDRECTD145*
21,1,0.04213,0.03179,0,0,45.0*
21,1,0.03179,0.04213,0,0,45.0*
1,1,0.01034,0.02248,0.00000*
1,1,0.01034,0.00000,-0.02248*
1,1,0.01034,-0.02248,0.00000*
1,1,0.01034,0.00000,0.02248*
%
%ADD145ROUNDEDRECTD145*%
G04:AMPARAMS|DCode=146|XSize=29.92mil|YSize=31.5mil|CornerRadius=4.25mil|HoleSize=0mil|Usage=FLASHONLY|Rotation=0.000|XOffset=0mil|YOffset=0mil|HoleType=Round|Shape=RoundedRectangle|*
%AMROUNDEDRECTD146*
21,1,0.02992,0.02299,0,0,0.0*
21,1,0.02142,0.03150,0,0,0.0*
1,1,0.00850,0.01071,-0.01150*
1,1,0.00850,-0.01071,-0.01150*
1,1,0.00850,-0.01071,0.01150*
1,1,0.00850,0.01071,0.01150*
%
%ADD146ROUNDEDRECTD146*%
G04:AMPARAMS|DCode=147|XSize=40.16mil|YSize=32.28mil|CornerRadius=4.43mil|HoleSize=0mil|Usage=FLASHONLY|Rotation=225.000|XOffset=0mil|YOffset=0mil|HoleType=Round|Shape=RoundedRectangle|*
%AMROUNDEDRECTD147*
21,1,0.04016,0.02343,0,0,225.0*
21,1,0.03130,0.03228,0,0,225.0*
1,1,0.00886,-0.01935,-0.00278*
1,1,0.00886,0.00278,0.01935*
1,1,0.00886,0.01935,0.00278*
1,1,0.00886,-0.00278,-0.01935*
%
%ADD147ROUNDEDRECTD147*%
G04:AMPARAMS|DCode=148|XSize=42.13mil|YSize=36.22mil|CornerRadius=4.72mil|HoleSize=0mil|Usage=FLASHONLY|Rotation=315.000|XOffset=0mil|YOffset=0mil|HoleType=Round|Shape=RoundedRectangle|*
%AMROUNDEDRECTD148*
21,1,0.04213,0.02677,0,0,315.0*
21,1,0.03268,0.03622,0,0,315.0*
1,1,0.00945,0.00209,-0.02102*
1,1,0.00945,-0.02102,0.00209*
1,1,0.00945,-0.00209,0.02102*
1,1,0.00945,0.02102,-0.00209*
%
%ADD148ROUNDEDRECTD148*%
G04:AMPARAMS|DCode=149|XSize=55.91mil|YSize=44.09mil|CornerRadius=5.32mil|HoleSize=0mil|Usage=FLASHONLY|Rotation=180.000|XOffset=0mil|YOffset=0mil|HoleType=Round|Shape=RoundedRectangle|*
%AMROUNDEDRECTD149*
21,1,0.05591,0.03347,0,0,180.0*
21,1,0.04528,0.04409,0,0,180.0*
1,1,0.01063,-0.02264,0.01673*
1,1,0.01063,0.02264,0.01673*
1,1,0.01063,0.02264,-0.01673*
1,1,0.01063,-0.02264,-0.01673*
%
%ADD149ROUNDEDRECTD149*%
G04:AMPARAMS|DCode=150|XSize=61.81mil|YSize=53.94mil|CornerRadius=6.05mil|HoleSize=0mil|Usage=FLASHONLY|Rotation=180.000|XOffset=0mil|YOffset=0mil|HoleType=Round|Shape=RoundedRectangle|*
%AMROUNDEDRECTD150*
21,1,0.06181,0.04183,0,0,180.0*
21,1,0.04970,0.05394,0,0,180.0*
1,1,0.01211,-0.02485,0.02092*
1,1,0.01211,0.02485,0.02092*
1,1,0.01211,0.02485,-0.02092*
1,1,0.01211,-0.02485,-0.02092*
%
%ADD150ROUNDEDRECTD150*%
G04:AMPARAMS|DCode=151|XSize=42.13mil|YSize=38.19mil|CornerRadius=4.87mil|HoleSize=0mil|Usage=FLASHONLY|Rotation=180.000|XOffset=0mil|YOffset=0mil|HoleType=Round|Shape=RoundedRectangle|*
%AMROUNDEDRECTD151*
21,1,0.04213,0.02845,0,0,180.0*
21,1,0.03238,0.03819,0,0,180.0*
1,1,0.00974,-0.01619,0.01422*
1,1,0.00974,0.01619,0.01422*
1,1,0.00974,0.01619,-0.01422*
1,1,0.00974,-0.01619,-0.01422*
%
%ADD151ROUNDEDRECTD151*%
G04:AMPARAMS|DCode=152|XSize=42.13mil|YSize=38.19mil|CornerRadius=4.87mil|HoleSize=0mil|Usage=FLASHONLY|Rotation=135.000|XOffset=0mil|YOffset=0mil|HoleType=Round|Shape=RoundedRectangle|*
%AMROUNDEDRECTD152*
21,1,0.04213,0.02845,0,0,135.0*
21,1,0.03238,0.03819,0,0,135.0*
1,1,0.00974,-0.00139,0.02151*
1,1,0.00974,0.02151,-0.00139*
1,1,0.00974,0.00139,-0.02151*
1,1,0.00974,-0.02151,0.00139*
%
%ADD152ROUNDEDRECTD152*%
G04:AMPARAMS|DCode=153|XSize=42.13mil|YSize=38.19mil|CornerRadius=4.87mil|HoleSize=0mil|Usage=FLASHONLY|Rotation=45.000|XOffset=0mil|YOffset=0mil|HoleType=Round|Shape=RoundedRectangle|*
%AMROUNDEDRECTD153*
21,1,0.04213,0.02845,0,0,45.0*
21,1,0.03238,0.03819,0,0,45.0*
1,1,0.00974,0.02151,0.00139*
1,1,0.00974,-0.00139,-0.02151*
1,1,0.00974,-0.02151,-0.00139*
1,1,0.00974,0.00139,0.02151*
%
%ADD153ROUNDEDRECTD153*%
G04:AMPARAMS|DCode=154|XSize=29.92mil|YSize=31.5mil|CornerRadius=4.25mil|HoleSize=0mil|Usage=FLASHONLY|Rotation=45.000|XOffset=0mil|YOffset=0mil|HoleType=Round|Shape=RoundedRectangle|*
%AMROUNDEDRECTD154*
21,1,0.02992,0.02299,0,0,45.0*
21,1,0.02142,0.03150,0,0,45.0*
1,1,0.00850,0.01570,-0.00056*
1,1,0.00850,0.00056,-0.01570*
1,1,0.00850,-0.01570,0.00056*
1,1,0.00850,-0.00056,0.01570*
%
%ADD154ROUNDEDRECTD154*%
G04:AMPARAMS|DCode=155|XSize=44.09mil|YSize=46.06mil|CornerRadius=5.32mil|HoleSize=0mil|Usage=FLASHONLY|Rotation=45.000|XOffset=0mil|YOffset=0mil|HoleType=Round|Shape=RoundedRectangle|*
%AMROUNDEDRECTD155*
21,1,0.04409,0.03543,0,0,45.0*
21,1,0.03347,0.04606,0,0,45.0*
1,1,0.01063,0.02436,-0.00070*
1,1,0.01063,0.00070,-0.02436*
1,1,0.01063,-0.02436,0.00070*
1,1,0.01063,-0.00070,0.02436*
%
%ADD155ROUNDEDRECTD155*%
G04:AMPARAMS|DCode=156|XSize=44.09mil|YSize=46.06mil|CornerRadius=5.32mil|HoleSize=0mil|Usage=FLASHONLY|Rotation=90.000|XOffset=0mil|YOffset=0mil|HoleType=Round|Shape=RoundedRectangle|*
%AMROUNDEDRECTD156*
21,1,0.04409,0.03543,0,0,90.0*
21,1,0.03347,0.04606,0,0,90.0*
1,1,0.01063,0.01772,0.01673*
1,1,0.01063,0.01772,-0.01673*
1,1,0.01063,-0.01772,-0.01673*
1,1,0.01063,-0.01772,0.01673*
%
%ADD156ROUNDEDRECTD156*%
G04:AMPARAMS|DCode=157|XSize=29.92mil|YSize=31.5mil|CornerRadius=4.25mil|HoleSize=0mil|Usage=FLASHONLY|Rotation=270.000|XOffset=0mil|YOffset=0mil|HoleType=Round|Shape=RoundedRectangle|*
%AMROUNDEDRECTD157*
21,1,0.02992,0.02299,0,0,270.0*
21,1,0.02142,0.03150,0,0,270.0*
1,1,0.00850,-0.01150,-0.01071*
1,1,0.00850,-0.01150,0.01071*
1,1,0.00850,0.01150,0.01071*
1,1,0.00850,0.01150,-0.01071*
%
%ADD157ROUNDEDRECTD157*%
G04:AMPARAMS|DCode=158|XSize=61.81mil|YSize=57.87mil|CornerRadius=6.35mil|HoleSize=0mil|Usage=FLASHONLY|Rotation=180.000|XOffset=0mil|YOffset=0mil|HoleType=Round|Shape=RoundedRectangle|*
%AMROUNDEDRECTD158*
21,1,0.06181,0.04518,0,0,180.0*
21,1,0.04911,0.05787,0,0,180.0*
1,1,0.01270,-0.02456,0.02259*
1,1,0.01270,0.02456,0.02259*
1,1,0.01270,0.02456,-0.02259*
1,1,0.01270,-0.02456,-0.02259*
%
%ADD158ROUNDEDRECTD158*%
G04:AMPARAMS|DCode=159|XSize=26.38mil|YSize=28.35mil|CornerRadius=3.99mil|HoleSize=0mil|Usage=FLASHONLY|Rotation=270.000|XOffset=0mil|YOffset=0mil|HoleType=Round|Shape=RoundedRectangle|*
%AMROUNDEDRECTD159*
21,1,0.02638,0.02037,0,0,270.0*
21,1,0.01841,0.02835,0,0,270.0*
1,1,0.00797,-0.01019,-0.00920*
1,1,0.00797,-0.01019,0.00920*
1,1,0.00797,0.01019,0.00920*
1,1,0.00797,0.01019,-0.00920*
%
%ADD159ROUNDEDRECTD159*%
G04:AMPARAMS|DCode=160|XSize=111.02mil|YSize=55.91mil|CornerRadius=6.2mil|HoleSize=0mil|Usage=FLASHONLY|Rotation=270.000|XOffset=0mil|YOffset=0mil|HoleType=Round|Shape=RoundedRectangle|*
%AMROUNDEDRECTD160*
21,1,0.11102,0.04350,0,0,270.0*
21,1,0.09862,0.05591,0,0,270.0*
1,1,0.01240,-0.02175,-0.04931*
1,1,0.01240,-0.02175,0.04931*
1,1,0.01240,0.02175,0.04931*
1,1,0.01240,0.02175,-0.04931*
%
%ADD160ROUNDEDRECTD160*%
G04:AMPARAMS|DCode=161|XSize=213.39mil|YSize=67.72mil|CornerRadius=7.09mil|HoleSize=0mil|Usage=FLASHONLY|Rotation=90.000|XOffset=0mil|YOffset=0mil|HoleType=Round|Shape=RoundedRectangle|*
%AMROUNDEDRECTD161*
21,1,0.21339,0.05354,0,0,90.0*
21,1,0.19921,0.06772,0,0,90.0*
1,1,0.01417,0.02677,0.09961*
1,1,0.01417,0.02677,-0.09961*
1,1,0.01417,-0.02677,-0.09961*
1,1,0.01417,-0.02677,0.09961*
%
%ADD161ROUNDEDRECTD161*%
G04:AMPARAMS|DCode=162|XSize=22.44mil|YSize=28.35mil|CornerRadius=3.69mil|HoleSize=0mil|Usage=FLASHONLY|Rotation=90.000|XOffset=0mil|YOffset=0mil|HoleType=Round|Shape=RoundedRectangle|*
%AMROUNDEDRECTD162*
21,1,0.02244,0.02097,0,0,90.0*
21,1,0.01506,0.02835,0,0,90.0*
1,1,0.00738,0.01048,0.00753*
1,1,0.00738,0.01048,-0.00753*
1,1,0.00738,-0.01048,-0.00753*
1,1,0.00738,-0.01048,0.00753*
%
%ADD162ROUNDEDRECTD162*%
G04:AMPARAMS|DCode=163|XSize=73.62mil|YSize=103.15mil|CornerRadius=7.53mil|HoleSize=0mil|Usage=FLASHONLY|Rotation=0.000|XOffset=0mil|YOffset=0mil|HoleType=Round|Shape=RoundedRectangle|*
%AMROUNDEDRECTD163*
21,1,0.07362,0.08809,0,0,0.0*
21,1,0.05856,0.10315,0,0,0.0*
1,1,0.01506,0.02928,-0.04405*
1,1,0.01506,-0.02928,-0.04405*
1,1,0.01506,-0.02928,0.04405*
1,1,0.01506,0.02928,0.04405*
%
%ADD163ROUNDEDRECTD163*%
G04:AMPARAMS|DCode=164|XSize=61.81mil|YSize=53.94mil|CornerRadius=6.05mil|HoleSize=0mil|Usage=FLASHONLY|Rotation=270.000|XOffset=0mil|YOffset=0mil|HoleType=Round|Shape=RoundedRectangle|*
%AMROUNDEDRECTD164*
21,1,0.06181,0.04183,0,0,270.0*
21,1,0.04970,0.05394,0,0,270.0*
1,1,0.01211,-0.02092,-0.02485*
1,1,0.01211,-0.02092,0.02485*
1,1,0.01211,0.02092,0.02485*
1,1,0.01211,0.02092,-0.02485*
%
%ADD164ROUNDEDRECTD164*%
G04:AMPARAMS|DCode=165|XSize=32.28mil|YSize=38.19mil|CornerRadius=4.43mil|HoleSize=0mil|Usage=FLASHONLY|Rotation=270.000|XOffset=0mil|YOffset=0mil|HoleType=Round|Shape=RoundedRectangle|*
%AMROUNDEDRECTD165*
21,1,0.03228,0.02933,0,0,270.0*
21,1,0.02343,0.03819,0,0,270.0*
1,1,0.00886,-0.01467,-0.01171*
1,1,0.00886,-0.01467,0.01171*
1,1,0.00886,0.01467,0.01171*
1,1,0.00886,0.01467,-0.01171*
%
%ADD165ROUNDEDRECTD165*%
G04:AMPARAMS|DCode=166|XSize=44.09mil|YSize=40.16mil|CornerRadius=5.02mil|HoleSize=0mil|Usage=FLASHONLY|Rotation=0.000|XOffset=0mil|YOffset=0mil|HoleType=Round|Shape=RoundedRectangle|*
%AMROUNDEDRECTD166*
21,1,0.04409,0.03012,0,0,0.0*
21,1,0.03406,0.04016,0,0,0.0*
1,1,0.01004,0.01703,-0.01506*
1,1,0.01004,-0.01703,-0.01506*
1,1,0.01004,-0.01703,0.01506*
1,1,0.01004,0.01703,0.01506*
%
%ADD166ROUNDEDRECTD166*%
G04:AMPARAMS|DCode=167|XSize=114.96mil|YSize=57.87mil|CornerRadius=6.35mil|HoleSize=0mil|Usage=FLASHONLY|Rotation=270.000|XOffset=0mil|YOffset=0mil|HoleType=Round|Shape=RoundedRectangle|*
%AMROUNDEDRECTD167*
21,1,0.11496,0.04518,0,0,270.0*
21,1,0.10226,0.05787,0,0,270.0*
1,1,0.01270,-0.02259,-0.05113*
1,1,0.01270,-0.02259,0.05113*
1,1,0.01270,0.02259,0.05113*
1,1,0.01270,0.02259,-0.05113*
%
%ADD167ROUNDEDRECTD167*%
G04:AMPARAMS|DCode=168|XSize=44.09mil|YSize=36.22mil|CornerRadius=4.72mil|HoleSize=0mil|Usage=FLASHONLY|Rotation=90.000|XOffset=0mil|YOffset=0mil|HoleType=Round|Shape=RoundedRectangle|*
%AMROUNDEDRECTD168*
21,1,0.04409,0.02677,0,0,90.0*
21,1,0.03465,0.03622,0,0,90.0*
1,1,0.00945,0.01339,0.01732*
1,1,0.00945,0.01339,-0.01732*
1,1,0.00945,-0.01339,-0.01732*
1,1,0.00945,-0.01339,0.01732*
%
%ADD168ROUNDEDRECTD168*%
%ADD169C,0.06378*%
G04:AMPARAMS|DCode=170|XSize=29.53mil|YSize=37.4mil|CornerRadius=4.22mil|HoleSize=0mil|Usage=FLASHONLY|Rotation=0.000|XOffset=0mil|YOffset=0mil|HoleType=Round|Shape=RoundedRectangle|*
%AMROUNDEDRECTD170*
21,1,0.02953,0.02896,0,0,0.0*
21,1,0.02108,0.03740,0,0,0.0*
1,1,0.00845,0.01054,-0.01448*
1,1,0.00845,-0.01054,-0.01448*
1,1,0.00845,-0.01054,0.01448*
1,1,0.00845,0.01054,0.01448*
%
%ADD170ROUNDEDRECTD170*%
G04:AMPARAMS|DCode=171|XSize=130.71mil|YSize=107.09mil|CornerRadius=10.04mil|HoleSize=0mil|Usage=FLASHONLY|Rotation=90.000|XOffset=0mil|YOffset=0mil|HoleType=Round|Shape=RoundedRectangle|*
%AMROUNDEDRECTD171*
21,1,0.13071,0.08701,0,0,90.0*
21,1,0.11063,0.10709,0,0,90.0*
1,1,0.02008,0.04350,0.05531*
1,1,0.02008,0.04350,-0.05531*
1,1,0.02008,-0.04350,-0.05531*
1,1,0.02008,-0.04350,0.05531*
%
%ADD171ROUNDEDRECTD171*%
G04:AMPARAMS|DCode=172|XSize=264.57mil|YSize=51.97mil|CornerRadius=5.91mil|HoleSize=0mil|Usage=FLASHONLY|Rotation=90.000|XOffset=0mil|YOffset=0mil|HoleType=Round|Shape=RoundedRectangle|*
%AMROUNDEDRECTD172*
21,1,0.26457,0.04016,0,0,90.0*
21,1,0.25276,0.05197,0,0,90.0*
1,1,0.01181,0.02008,0.12638*
1,1,0.01181,0.02008,-0.12638*
1,1,0.01181,-0.02008,-0.12638*
1,1,0.01181,-0.02008,0.12638*
%
%ADD172ROUNDEDRECTD172*%
G04:AMPARAMS|DCode=173|XSize=59.84mil|YSize=33.86mil|CornerRadius=4.55mil|HoleSize=0mil|Usage=FLASHONLY|Rotation=0.000|XOffset=0mil|YOffset=0mil|HoleType=Round|Shape=RoundedRectangle|*
%AMROUNDEDRECTD173*
21,1,0.05984,0.02476,0,0,0.0*
21,1,0.05075,0.03386,0,0,0.0*
1,1,0.00909,0.02537,-0.01238*
1,1,0.00909,-0.02537,-0.01238*
1,1,0.00909,-0.02537,0.01238*
1,1,0.00909,0.02537,0.01238*
%
%ADD173ROUNDEDRECTD173*%
G04:AMPARAMS|DCode=174|XSize=13.72mil|YSize=59.84mil|CornerRadius=0mil|HoleSize=0mil|Usage=FLASHONLY|Rotation=225.000|XOffset=0mil|YOffset=0mil|HoleType=Round|Shape=Round|*
%AMOVALD174*
21,1,0.04612,0.01372,0.00000,0.00000,315.0*
1,1,0.01372,-0.01631,0.01631*
1,1,0.01372,0.01631,-0.01631*
%
%ADD174OVALD174*%

G04:AMPARAMS|DCode=175|XSize=13.72mil|YSize=59.84mil|CornerRadius=0mil|HoleSize=0mil|Usage=FLASHONLY|Rotation=315.000|XOffset=0mil|YOffset=0mil|HoleType=Round|Shape=Round|*
%AMOVALD175*
21,1,0.04612,0.01372,0.00000,0.00000,45.0*
1,1,0.01372,-0.01631,-0.01631*
1,1,0.01372,0.01631,0.01631*
%
%ADD175OVALD175*%

G04:AMPARAMS|DCode=176|XSize=142.52mil|YSize=67.72mil|CornerRadius=7.09mil|HoleSize=0mil|Usage=FLASHONLY|Rotation=0.000|XOffset=0mil|YOffset=0mil|HoleType=Round|Shape=RoundedRectangle|*
%AMROUNDEDRECTD176*
21,1,0.14252,0.05354,0,0,0.0*
21,1,0.12835,0.06772,0,0,0.0*
1,1,0.01417,0.06417,-0.02677*
1,1,0.01417,-0.06417,-0.02677*
1,1,0.01417,-0.06417,0.02677*
1,1,0.01417,0.06417,0.02677*
%
%ADD176ROUNDEDRECTD176*%
G04:AMPARAMS|DCode=177|XSize=28.35mil|YSize=46.06mil|CornerRadius=4.13mil|HoleSize=0mil|Usage=FLASHONLY|Rotation=180.000|XOffset=0mil|YOffset=0mil|HoleType=Round|Shape=RoundedRectangle|*
%AMROUNDEDRECTD177*
21,1,0.02835,0.03780,0,0,180.0*
21,1,0.02008,0.04606,0,0,180.0*
1,1,0.00827,-0.01004,0.01890*
1,1,0.00827,0.01004,0.01890*
1,1,0.00827,0.01004,-0.01890*
1,1,0.00827,-0.01004,-0.01890*
%
%ADD177ROUNDEDRECTD177*%
G04:AMPARAMS|DCode=178|XSize=32.28mil|YSize=51.97mil|CornerRadius=4.43mil|HoleSize=0mil|Usage=FLASHONLY|Rotation=180.000|XOffset=0mil|YOffset=0mil|HoleType=Round|Shape=RoundedRectangle|*
%AMROUNDEDRECTD178*
21,1,0.03228,0.04311,0,0,180.0*
21,1,0.02343,0.05197,0,0,180.0*
1,1,0.00886,-0.01171,0.02156*
1,1,0.00886,0.01171,0.02156*
1,1,0.00886,0.01171,-0.02156*
1,1,0.00886,-0.01171,-0.02156*
%
%ADD178ROUNDEDRECTD178*%
G04:AMPARAMS|DCode=179|XSize=46.06mil|YSize=40.16mil|CornerRadius=5.02mil|HoleSize=0mil|Usage=FLASHONLY|Rotation=0.000|XOffset=0mil|YOffset=0mil|HoleType=Round|Shape=RoundedRectangle|*
%AMROUNDEDRECTD179*
21,1,0.04606,0.03012,0,0,0.0*
21,1,0.03602,0.04016,0,0,0.0*
1,1,0.01004,0.01801,-0.01506*
1,1,0.01004,-0.01801,-0.01506*
1,1,0.01004,-0.01801,0.01506*
1,1,0.01004,0.01801,0.01506*
%
%ADD179ROUNDEDRECTD179*%
G04:AMPARAMS|DCode=180|XSize=40.16mil|YSize=38.19mil|CornerRadius=4.87mil|HoleSize=0mil|Usage=FLASHONLY|Rotation=270.000|XOffset=0mil|YOffset=0mil|HoleType=Round|Shape=RoundedRectangle|*
%AMROUNDEDRECTD180*
21,1,0.04016,0.02845,0,0,270.0*
21,1,0.03041,0.03819,0,0,270.0*
1,1,0.00974,-0.01422,-0.01521*
1,1,0.00974,-0.01422,0.01521*
1,1,0.00974,0.01422,0.01521*
1,1,0.00974,0.01422,-0.01521*
%
%ADD180ROUNDEDRECTD180*%
G04:AMPARAMS|DCode=181|XSize=34.25mil|YSize=16.54mil|CornerRadius=3.25mil|HoleSize=0mil|Usage=FLASHONLY|Rotation=0.000|XOffset=0mil|YOffset=0mil|HoleType=Round|Shape=RoundedRectangle|*
%AMROUNDEDRECTD181*
21,1,0.03425,0.01004,0,0,0.0*
21,1,0.02776,0.01654,0,0,0.0*
1,1,0.00650,0.01388,-0.00502*
1,1,0.00650,-0.01388,-0.00502*
1,1,0.00650,-0.01388,0.00502*
1,1,0.00650,0.01388,0.00502*
%
%ADD181ROUNDEDRECTD181*%
%ADD182R,0.04016X0.05591*%
G04:AMPARAMS|DCode=183|XSize=32.28mil|YSize=38.19mil|CornerRadius=4.43mil|HoleSize=0mil|Usage=FLASHONLY|Rotation=0.000|XOffset=0mil|YOffset=0mil|HoleType=Round|Shape=RoundedRectangle|*
%AMROUNDEDRECTD183*
21,1,0.03228,0.02933,0,0,0.0*
21,1,0.02343,0.03819,0,0,0.0*
1,1,0.00886,0.01171,-0.01467*
1,1,0.00886,-0.01171,-0.01467*
1,1,0.00886,-0.01171,0.01467*
1,1,0.00886,0.01171,0.01467*
%
%ADD183ROUNDEDRECTD183*%
G04:AMPARAMS|DCode=184|XSize=36.22mil|YSize=40.16mil|CornerRadius=4.72mil|HoleSize=0mil|Usage=FLASHONLY|Rotation=270.000|XOffset=0mil|YOffset=0mil|HoleType=Round|Shape=RoundedRectangle|*
%AMROUNDEDRECTD184*
21,1,0.03622,0.03071,0,0,270.0*
21,1,0.02677,0.04016,0,0,270.0*
1,1,0.00945,-0.01535,-0.01339*
1,1,0.00945,-0.01535,0.01339*
1,1,0.00945,0.01535,0.01339*
1,1,0.00945,0.01535,-0.01339*
%
%ADD184ROUNDEDRECTD184*%
G04:AMPARAMS|DCode=185|XSize=22.44mil|YSize=46.06mil|CornerRadius=4.31mil|HoleSize=0mil|Usage=FLASHONLY|Rotation=270.000|XOffset=0mil|YOffset=0mil|HoleType=Round|Shape=RoundedRectangle|*
%AMROUNDEDRECTD185*
21,1,0.02244,0.03744,0,0,270.0*
21,1,0.01382,0.04606,0,0,270.0*
1,1,0.00862,-0.01872,-0.00691*
1,1,0.00862,-0.01872,0.00691*
1,1,0.00862,0.01872,0.00691*
1,1,0.00862,0.01872,-0.00691*
%
%ADD185ROUNDEDRECTD185*%
G04:AMPARAMS|DCode=186|XSize=62.6mil|YSize=33.86mil|CornerRadius=4.55mil|HoleSize=0mil|Usage=FLASHONLY|Rotation=0.000|XOffset=0mil|YOffset=0mil|HoleType=Round|Shape=RoundedRectangle|*
%AMROUNDEDRECTD186*
21,1,0.06260,0.02476,0,0,0.0*
21,1,0.05350,0.03386,0,0,0.0*
1,1,0.00909,0.02675,-0.01238*
1,1,0.00909,-0.02675,-0.01238*
1,1,0.00909,-0.02675,0.01238*
1,1,0.00909,0.02675,0.01238*
%
%ADD186ROUNDEDRECTD186*%
G04:AMPARAMS|DCode=187|XSize=36.22mil|YSize=36.22mil|CornerRadius=4.72mil|HoleSize=0mil|Usage=FLASHONLY|Rotation=270.000|XOffset=0mil|YOffset=0mil|HoleType=Round|Shape=RoundedRectangle|*
%AMROUNDEDRECTD187*
21,1,0.03622,0.02677,0,0,270.0*
21,1,0.02677,0.03622,0,0,270.0*
1,1,0.00945,-0.01339,-0.01339*
1,1,0.00945,-0.01339,0.01339*
1,1,0.00945,0.01339,0.01339*
1,1,0.00945,0.01339,-0.01339*
%
%ADD187ROUNDEDRECTD187*%
G04:AMPARAMS|DCode=188|XSize=201.57mil|YSize=319.69mil|CornerRadius=61.42mil|HoleSize=0mil|Usage=FLASHONLY|Rotation=90.000|XOffset=0mil|YOffset=0mil|HoleType=Round|Shape=RoundedRectangle|*
%AMROUNDEDRECTD188*
21,1,0.20157,0.19685,0,0,90.0*
21,1,0.07874,0.31969,0,0,90.0*
1,1,0.12284,0.09843,0.03937*
1,1,0.12284,0.09843,-0.03937*
1,1,0.12284,-0.09843,-0.03937*
1,1,0.12284,-0.09843,0.03937*
%
%ADD188ROUNDEDRECTD188*%
G04:AMPARAMS|DCode=189|XSize=33.86mil|YSize=114.57mil|CornerRadius=4.55mil|HoleSize=0mil|Usage=FLASHONLY|Rotation=270.000|XOffset=0mil|YOffset=0mil|HoleType=Round|Shape=RoundedRectangle|*
%AMROUNDEDRECTD189*
21,1,0.03386,0.10547,0,0,270.0*
21,1,0.02476,0.11457,0,0,270.0*
1,1,0.00909,-0.05274,-0.01238*
1,1,0.00909,-0.05274,0.01238*
1,1,0.00909,0.05274,0.01238*
1,1,0.00909,0.05274,-0.01238*
%
%ADD189ROUNDEDRECTD189*%
G04:AMPARAMS|DCode=190|XSize=25.98mil|YSize=27.56mil|CornerRadius=3.96mil|HoleSize=0mil|Usage=FLASHONLY|Rotation=315.000|XOffset=0mil|YOffset=0mil|HoleType=Round|Shape=RoundedRectangle|*
%AMROUNDEDRECTD190*
21,1,0.02598,0.01965,0,0,315.0*
21,1,0.01807,0.02756,0,0,315.0*
1,1,0.00791,-0.00056,-0.01334*
1,1,0.00791,-0.01334,-0.00056*
1,1,0.00791,0.00056,0.01334*
1,1,0.00791,0.01334,0.00056*
%
%ADD190ROUNDEDRECTD190*%
G04:AMPARAMS|DCode=191|XSize=33.07mil|YSize=34.65mil|CornerRadius=4.49mil|HoleSize=0mil|Usage=FLASHONLY|Rotation=315.000|XOffset=0mil|YOffset=0mil|HoleType=Round|Shape=RoundedRectangle|*
%AMROUNDEDRECTD191*
21,1,0.03307,0.02567,0,0,315.0*
21,1,0.02410,0.03465,0,0,315.0*
1,1,0.00898,-0.00056,-0.01759*
1,1,0.00898,-0.01759,-0.00056*
1,1,0.00898,0.00056,0.01759*
1,1,0.00898,0.01759,0.00056*
%
%ADD191ROUNDEDRECTD191*%
G04:AMPARAMS|DCode=192|XSize=30.32mil|YSize=34.25mil|CornerRadius=4.28mil|HoleSize=0mil|Usage=FLASHONLY|Rotation=225.000|XOffset=0mil|YOffset=0mil|HoleType=Round|Shape=RoundedRectangle|*
%AMROUNDEDRECTD192*
21,1,0.03032,0.02569,0,0,225.0*
21,1,0.02175,0.03425,0,0,225.0*
1,1,0.00856,-0.01677,0.00139*
1,1,0.00856,-0.00139,0.01677*
1,1,0.00856,0.01677,-0.00139*
1,1,0.00856,0.00139,-0.01677*
%
%ADD192ROUNDEDRECTD192*%
G04:AMPARAMS|DCode=193|XSize=44.09mil|YSize=75.59mil|CornerRadius=5.32mil|HoleSize=0mil|Usage=FLASHONLY|Rotation=135.000|XOffset=0mil|YOffset=0mil|HoleType=Round|Shape=RoundedRectangle|*
%AMROUNDEDRECTD193*
21,1,0.04409,0.06496,0,0,135.0*
21,1,0.03347,0.07559,0,0,135.0*
1,1,0.01063,0.01114,0.03480*
1,1,0.01063,0.03480,0.01114*
1,1,0.01063,-0.01114,-0.03480*
1,1,0.01063,-0.03480,-0.01114*
%
%ADD193ROUNDEDRECTD193*%
G04:AMPARAMS|DCode=194|XSize=30.32mil|YSize=51.97mil|CornerRadius=4.28mil|HoleSize=0mil|Usage=FLASHONLY|Rotation=270.000|XOffset=0mil|YOffset=0mil|HoleType=Round|Shape=RoundedRectangle|*
%AMROUNDEDRECTD194*
21,1,0.03032,0.04341,0,0,270.0*
21,1,0.02175,0.05197,0,0,270.0*
1,1,0.00856,-0.02170,-0.01088*
1,1,0.00856,-0.02170,0.01088*
1,1,0.00856,0.02170,0.01088*
1,1,0.00856,0.02170,-0.01088*
%
%ADD194ROUNDEDRECTD194*%
G04:AMPARAMS|DCode=195|XSize=62.6mil|YSize=33.86mil|CornerRadius=4.55mil|HoleSize=0mil|Usage=FLASHONLY|Rotation=90.000|XOffset=0mil|YOffset=0mil|HoleType=Round|Shape=RoundedRectangle|*
%AMROUNDEDRECTD195*
21,1,0.06260,0.02476,0,0,90.0*
21,1,0.05350,0.03386,0,0,90.0*
1,1,0.00909,0.01238,0.02675*
1,1,0.00909,0.01238,-0.02675*
1,1,0.00909,-0.01238,-0.02675*
1,1,0.00909,-0.01238,0.02675*
%
%ADD195ROUNDEDRECTD195*%
G04:AMPARAMS|DCode=196|XSize=55.91mil|YSize=36.22mil|CornerRadius=6.3mil|HoleSize=0mil|Usage=FLASHONLY|Rotation=180.000|XOffset=0mil|YOffset=0mil|HoleType=Round|Shape=RoundedRectangle|*
%AMROUNDEDRECTD196*
21,1,0.05591,0.02362,0,0,180.0*
21,1,0.04331,0.03622,0,0,180.0*
1,1,0.01260,-0.02165,0.01181*
1,1,0.01260,0.02165,0.01181*
1,1,0.01260,0.02165,-0.01181*
1,1,0.01260,-0.02165,-0.01181*
%
%ADD196ROUNDEDRECTD196*%
%ADD197R,0.07362X0.07362*%
G04:AMPARAMS|DCode=198|XSize=34.25mil|YSize=16.54mil|CornerRadius=3.25mil|HoleSize=0mil|Usage=FLASHONLY|Rotation=270.000|XOffset=0mil|YOffset=0mil|HoleType=Round|Shape=RoundedRectangle|*
%AMROUNDEDRECTD198*
21,1,0.03425,0.01004,0,0,270.0*
21,1,0.02776,0.01654,0,0,270.0*
1,1,0.00650,-0.00502,-0.01388*
1,1,0.00650,-0.00502,0.01388*
1,1,0.00650,0.00502,0.01388*
1,1,0.00650,0.00502,-0.01388*
%
%ADD198ROUNDEDRECTD198*%
G04:AMPARAMS|DCode=199|XSize=36.22mil|YSize=18.11mil|CornerRadius=3.37mil|HoleSize=0mil|Usage=FLASHONLY|Rotation=180.000|XOffset=0mil|YOffset=0mil|HoleType=Round|Shape=RoundedRectangle|*
%AMROUNDEDRECTD199*
21,1,0.03622,0.01138,0,0,180.0*
21,1,0.02949,0.01811,0,0,180.0*
1,1,0.00673,-0.01474,0.00569*
1,1,0.00673,0.01474,0.00569*
1,1,0.00673,0.01474,-0.00569*
1,1,0.00673,-0.01474,-0.00569*
%
%ADD199ROUNDEDRECTD199*%
G04:AMPARAMS|DCode=200|XSize=30.32mil|YSize=18.11mil|CornerRadius=3.37mil|HoleSize=0mil|Usage=FLASHONLY|Rotation=180.000|XOffset=0mil|YOffset=0mil|HoleType=Round|Shape=RoundedRectangle|*
%AMROUNDEDRECTD200*
21,1,0.03032,0.01138,0,0,180.0*
21,1,0.02358,0.01811,0,0,180.0*
1,1,0.00673,-0.01179,0.00569*
1,1,0.00673,0.01179,0.00569*
1,1,0.00673,0.01179,-0.00569*
1,1,0.00673,-0.01179,-0.00569*
%
%ADD200ROUNDEDRECTD200*%
G04:AMPARAMS|DCode=201|XSize=132.72mil|YSize=127.72mil|CornerRadius=11.59mil|HoleSize=0mil|Usage=FLASHONLY|Rotation=270.000|XOffset=0mil|YOffset=0mil|HoleType=Round|Shape=RoundedRectangle|*
%AMROUNDEDRECTD201*
21,1,0.13272,0.10454,0,0,270.0*
21,1,0.10954,0.12772,0,0,270.0*
1,1,0.02317,-0.05227,-0.05477*
1,1,0.02317,-0.05227,0.05477*
1,1,0.02317,0.05227,0.05477*
1,1,0.02317,0.05227,-0.05477*
%
%ADD201ROUNDEDRECTD201*%
G04:AMPARAMS|DCode=202|XSize=111.02mil|YSize=50mil|CornerRadius=5.76mil|HoleSize=0mil|Usage=FLASHONLY|Rotation=0.000|XOffset=0mil|YOffset=0mil|HoleType=Round|Shape=RoundedRectangle|*
%AMROUNDEDRECTD202*
21,1,0.11102,0.03848,0,0,0.0*
21,1,0.09951,0.05000,0,0,0.0*
1,1,0.01152,0.04975,-0.01924*
1,1,0.01152,-0.04975,-0.01924*
1,1,0.01152,-0.04975,0.01924*
1,1,0.01152,0.04975,0.01924*
%
%ADD202ROUNDEDRECTD202*%
G04:AMPARAMS|DCode=203|XSize=63.78mil|YSize=36.22mil|CornerRadius=4.72mil|HoleSize=0mil|Usage=FLASHONLY|Rotation=0.000|XOffset=0mil|YOffset=0mil|HoleType=Round|Shape=RoundedRectangle|*
%AMROUNDEDRECTD203*
21,1,0.06378,0.02677,0,0,0.0*
21,1,0.05433,0.03622,0,0,0.0*
1,1,0.00945,0.02717,-0.01339*
1,1,0.00945,-0.02717,-0.01339*
1,1,0.00945,-0.02717,0.01339*
1,1,0.00945,0.02717,0.01339*
%
%ADD203ROUNDEDRECTD203*%
G04:AMPARAMS|DCode=204|XSize=28.35mil|YSize=16.14mil|CornerRadius=3.22mil|HoleSize=0mil|Usage=FLASHONLY|Rotation=270.000|XOffset=0mil|YOffset=0mil|HoleType=Round|Shape=RoundedRectangle|*
%AMROUNDEDRECTD204*
21,1,0.02835,0.00971,0,0,270.0*
21,1,0.02191,0.01614,0,0,270.0*
1,1,0.00644,-0.00485,-0.01096*
1,1,0.00644,-0.00485,0.01096*
1,1,0.00644,0.00485,0.01096*
1,1,0.00644,0.00485,-0.01096*
%
%ADD204ROUNDEDRECTD204*%
G04:AMPARAMS|DCode=205|XSize=72.84mil|YSize=20.08mil|CornerRadius=3.51mil|HoleSize=0mil|Usage=FLASHONLY|Rotation=0.000|XOffset=0mil|YOffset=0mil|HoleType=Round|Shape=RoundedRectangle|*
%AMROUNDEDRECTD205*
21,1,0.07284,0.01305,0,0,0.0*
21,1,0.06581,0.02008,0,0,0.0*
1,1,0.00703,0.03290,-0.00653*
1,1,0.00703,-0.03290,-0.00653*
1,1,0.00703,-0.03290,0.00653*
1,1,0.00703,0.03290,0.00653*
%
%ADD205ROUNDEDRECTD205*%
G04:AMPARAMS|DCode=206|XSize=75.59mil|YSize=50mil|CornerRadius=5.76mil|HoleSize=0mil|Usage=FLASHONLY|Rotation=270.000|XOffset=0mil|YOffset=0mil|HoleType=Round|Shape=RoundedRectangle|*
%AMROUNDEDRECTD206*
21,1,0.07559,0.03848,0,0,270.0*
21,1,0.06408,0.05000,0,0,270.0*
1,1,0.01152,-0.01924,-0.03204*
1,1,0.01152,-0.01924,0.03204*
1,1,0.01152,0.01924,0.03204*
1,1,0.01152,0.01924,-0.03204*
%
%ADD206ROUNDEDRECTD206*%
G04:AMPARAMS|DCode=207|XSize=75.59mil|YSize=55.91mil|CornerRadius=6.2mil|HoleSize=0mil|Usage=FLASHONLY|Rotation=180.000|XOffset=0mil|YOffset=0mil|HoleType=Round|Shape=RoundedRectangle|*
%AMROUNDEDRECTD207*
21,1,0.07559,0.04350,0,0,180.0*
21,1,0.06319,0.05591,0,0,180.0*
1,1,0.01240,-0.03159,0.02175*
1,1,0.01240,0.03159,0.02175*
1,1,0.01240,0.03159,-0.02175*
1,1,0.01240,-0.03159,-0.02175*
%
%ADD207ROUNDEDRECTD207*%
G04:AMPARAMS|DCode=208|XSize=28.35mil|YSize=44.09mil|CornerRadius=5.32mil|HoleSize=0mil|Usage=FLASHONLY|Rotation=90.000|XOffset=0mil|YOffset=0mil|HoleType=Round|Shape=RoundedRectangle|*
%AMROUNDEDRECTD208*
21,1,0.02835,0.03347,0,0,90.0*
21,1,0.01772,0.04409,0,0,90.0*
1,1,0.01063,0.01673,0.00886*
1,1,0.01063,0.01673,-0.00886*
1,1,0.01063,-0.01673,-0.00886*
1,1,0.01063,-0.01673,0.00886*
%
%ADD208ROUNDEDRECTD208*%
G04:AMPARAMS|DCode=209|XSize=57.87mil|YSize=40.16mil|CornerRadius=5.02mil|HoleSize=0mil|Usage=FLASHONLY|Rotation=180.000|XOffset=0mil|YOffset=0mil|HoleType=Round|Shape=RoundedRectangle|*
%AMROUNDEDRECTD209*
21,1,0.05787,0.03012,0,0,180.0*
21,1,0.04784,0.04016,0,0,180.0*
1,1,0.01004,-0.02392,0.01506*
1,1,0.01004,0.02392,0.01506*
1,1,0.01004,0.02392,-0.01506*
1,1,0.01004,-0.02392,-0.01506*
%
%ADD209ROUNDEDRECTD209*%
G04:AMPARAMS|DCode=210|XSize=67.72mil|YSize=30.32mil|CornerRadius=4.28mil|HoleSize=0mil|Usage=FLASHONLY|Rotation=180.000|XOffset=0mil|YOffset=0mil|HoleType=Round|Shape=RoundedRectangle|*
%AMROUNDEDRECTD210*
21,1,0.06772,0.02175,0,0,180.0*
21,1,0.05915,0.03032,0,0,180.0*
1,1,0.00856,-0.02958,0.01088*
1,1,0.00856,0.02958,0.01088*
1,1,0.00856,0.02958,-0.01088*
1,1,0.00856,-0.02958,-0.01088*
%
%ADD210ROUNDEDRECTD210*%
G04:AMPARAMS|DCode=211|XSize=44.09mil|YSize=40.16mil|CornerRadius=5.02mil|HoleSize=0mil|Usage=FLASHONLY|Rotation=315.000|XOffset=0mil|YOffset=0mil|HoleType=Round|Shape=RoundedRectangle|*
%AMROUNDEDRECTD211*
21,1,0.04409,0.03012,0,0,315.0*
21,1,0.03406,0.04016,0,0,315.0*
1,1,0.01004,0.00139,-0.02269*
1,1,0.01004,-0.02269,0.00139*
1,1,0.01004,-0.00139,0.02269*
1,1,0.01004,0.02269,-0.00139*
%
%ADD211ROUNDEDRECTD211*%
G04:AMPARAMS|DCode=212|XSize=44.09mil|YSize=40.16mil|CornerRadius=6.79mil|HoleSize=0mil|Usage=FLASHONLY|Rotation=45.000|XOffset=0mil|YOffset=0mil|HoleType=Round|Shape=RoundedRectangle|*
%AMROUNDEDRECTD212*
21,1,0.04409,0.02657,0,0,45.0*
21,1,0.03051,0.04016,0,0,45.0*
1,1,0.01358,0.02018,0.00139*
1,1,0.01358,-0.00139,-0.02018*
1,1,0.01358,-0.02018,-0.00139*
1,1,0.01358,0.00139,0.02018*
%
%ADD212ROUNDEDRECTD212*%
G04:AMPARAMS|DCode=213|XSize=48.03mil|YSize=44.09mil|CornerRadius=5.32mil|HoleSize=0mil|Usage=FLASHONLY|Rotation=135.000|XOffset=0mil|YOffset=0mil|HoleType=Round|Shape=RoundedRectangle|*
%AMROUNDEDRECTD213*
21,1,0.04803,0.03347,0,0,135.0*
21,1,0.03740,0.04409,0,0,135.0*
1,1,0.01063,-0.00139,0.02506*
1,1,0.01063,0.02506,-0.00139*
1,1,0.01063,0.00139,-0.02506*
1,1,0.01063,-0.02506,0.00139*
%
%ADD213ROUNDEDRECTD213*%
G04:AMPARAMS|DCode=214|XSize=24.41mil|YSize=51.97mil|CornerRadius=3.84mil|HoleSize=0mil|Usage=FLASHONLY|Rotation=0.000|XOffset=0mil|YOffset=0mil|HoleType=Round|Shape=RoundedRectangle|*
%AMROUNDEDRECTD214*
21,1,0.02441,0.04429,0,0,0.0*
21,1,0.01673,0.05197,0,0,0.0*
1,1,0.00768,0.00837,-0.02215*
1,1,0.00768,-0.00837,-0.02215*
1,1,0.00768,-0.00837,0.02215*
1,1,0.00768,0.00837,0.02215*
%
%ADD214ROUNDEDRECTD214*%
G04:AMPARAMS|DCode=215|XSize=24.41mil|YSize=67.72mil|CornerRadius=3.84mil|HoleSize=0mil|Usage=FLASHONLY|Rotation=0.000|XOffset=0mil|YOffset=0mil|HoleType=Round|Shape=RoundedRectangle|*
%AMROUNDEDRECTD215*
21,1,0.02441,0.06004,0,0,0.0*
21,1,0.01673,0.06772,0,0,0.0*
1,1,0.00768,0.00837,-0.03002*
1,1,0.00768,-0.00837,-0.03002*
1,1,0.00768,-0.00837,0.03002*
1,1,0.00768,0.00837,0.03002*
%
%ADD215ROUNDEDRECTD215*%
G04:AMPARAMS|DCode=216|XSize=75.59mil|YSize=122.84mil|CornerRadius=0mil|HoleSize=0mil|Usage=FLASHONLY|Rotation=0.000|XOffset=0mil|YOffset=0mil|HoleType=Round|Shape=Octagon|*
%AMOCTAGOND216*
4,1,8,-0.01890,0.06142,0.01890,0.06142,0.03780,0.04252,0.03780,-0.04252,0.01890,-0.06142,-0.01890,-0.06142,-0.03780,-0.04252,-0.03780,0.04252,-0.01890,0.06142,0.0*
%
%ADD216OCTAGOND216*%

G04:AMPARAMS|DCode=217|XSize=28.35mil|YSize=44.09mil|CornerRadius=5.32mil|HoleSize=0mil|Usage=FLASHONLY|Rotation=135.000|XOffset=0mil|YOffset=0mil|HoleType=Round|Shape=RoundedRectangle|*
%AMROUNDEDRECTD217*
21,1,0.02835,0.03347,0,0,135.0*
21,1,0.01772,0.04409,0,0,135.0*
1,1,0.01063,0.00557,0.01810*
1,1,0.01063,0.01810,0.00557*
1,1,0.01063,-0.00557,-0.01810*
1,1,0.01063,-0.01810,-0.00557*
%
%ADD217ROUNDEDRECTD217*%
G04:AMPARAMS|DCode=218|XSize=32.28mil|YSize=40.16mil|CornerRadius=4.43mil|HoleSize=0mil|Usage=FLASHONLY|Rotation=315.000|XOffset=0mil|YOffset=0mil|HoleType=Round|Shape=RoundedRectangle|*
%AMROUNDEDRECTD218*
21,1,0.03228,0.03130,0,0,315.0*
21,1,0.02343,0.04016,0,0,315.0*
1,1,0.00886,-0.00278,-0.01935*
1,1,0.00886,-0.01935,-0.00278*
1,1,0.00886,0.00278,0.01935*
1,1,0.00886,0.01935,0.00278*
%
%ADD218ROUNDEDRECTD218*%
%ADD219O,0.01457X0.03189*%
%ADD220O,0.03189X0.01457*%
%ADD221R,0.15039X0.15039*%
G04:AMPARAMS|DCode=222|XSize=41.34mil|YSize=86.61mil|CornerRadius=3.1mil|HoleSize=0mil|Usage=FLASHONLY|Rotation=0.000|XOffset=0mil|YOffset=0mil|HoleType=Round|Shape=RoundedRectangle|*
%AMROUNDEDRECTD222*
21,1,0.04134,0.08041,0,0,0.0*
21,1,0.03514,0.08661,0,0,0.0*
1,1,0.00620,0.01757,-0.04021*
1,1,0.00620,-0.01757,-0.04021*
1,1,0.00620,-0.01757,0.04021*
1,1,0.00620,0.01757,0.04021*
%
%ADD222ROUNDEDRECTD222*%
G04:AMPARAMS|DCode=223|XSize=39.37mil|YSize=41.34mil|CornerRadius=2.95mil|HoleSize=0mil|Usage=FLASHONLY|Rotation=0.000|XOffset=0mil|YOffset=0mil|HoleType=Round|Shape=RoundedRectangle|*
%AMROUNDEDRECTD223*
21,1,0.03937,0.03543,0,0,0.0*
21,1,0.03347,0.04134,0,0,0.0*
1,1,0.00591,0.01673,-0.01772*
1,1,0.00591,-0.01673,-0.01772*
1,1,0.00591,-0.01673,0.01772*
1,1,0.00591,0.01673,0.01772*
%
%ADD223ROUNDEDRECTD223*%
G04:AMPARAMS|DCode=224|XSize=55.91mil|YSize=46.06mil|CornerRadius=5.46mil|HoleSize=0mil|Usage=FLASHONLY|Rotation=90.000|XOffset=0mil|YOffset=0mil|HoleType=Round|Shape=RoundedRectangle|*
%AMROUNDEDRECTD224*
21,1,0.05591,0.03514,0,0,90.0*
21,1,0.04498,0.04606,0,0,90.0*
1,1,0.01093,0.01757,0.02249*
1,1,0.01093,0.01757,-0.02249*
1,1,0.01093,-0.01757,-0.02249*
1,1,0.01093,-0.01757,0.02249*
%
%ADD224ROUNDEDRECTD224*%
G04:AMPARAMS|DCode=225|XSize=26.38mil|YSize=28.35mil|CornerRadius=3.99mil|HoleSize=0mil|Usage=FLASHONLY|Rotation=0.000|XOffset=0mil|YOffset=0mil|HoleType=Round|Shape=RoundedRectangle|*
%AMROUNDEDRECTD225*
21,1,0.02638,0.02037,0,0,0.0*
21,1,0.01841,0.02835,0,0,0.0*
1,1,0.00797,0.00920,-0.01019*
1,1,0.00797,-0.00920,-0.01019*
1,1,0.00797,-0.00920,0.01019*
1,1,0.00797,0.00920,0.01019*
%
%ADD225ROUNDEDRECTD225*%
G04:AMPARAMS|DCode=226|XSize=30.32mil|YSize=30.32mil|CornerRadius=4.28mil|HoleSize=0mil|Usage=FLASHONLY|Rotation=90.000|XOffset=0mil|YOffset=0mil|HoleType=Round|Shape=RoundedRectangle|*
%AMROUNDEDRECTD226*
21,1,0.03032,0.02175,0,0,90.0*
21,1,0.02175,0.03032,0,0,90.0*
1,1,0.00856,0.01088,0.01088*
1,1,0.00856,0.01088,-0.01088*
1,1,0.00856,-0.01088,-0.01088*
1,1,0.00856,-0.01088,0.01088*
%
%ADD226ROUNDEDRECTD226*%
G04:AMPARAMS|DCode=227|XSize=29.13mil|YSize=30.71mil|CornerRadius=4.19mil|HoleSize=0mil|Usage=FLASHONLY|Rotation=180.000|XOffset=0mil|YOffset=0mil|HoleType=Round|Shape=RoundedRectangle|*
%AMROUNDEDRECTD227*
21,1,0.02913,0.02232,0,0,180.0*
21,1,0.02075,0.03071,0,0,180.0*
1,1,0.00839,-0.01037,0.01116*
1,1,0.00839,0.01037,0.01116*
1,1,0.00839,0.01037,-0.01116*
1,1,0.00839,-0.01037,-0.01116*
%
%ADD227ROUNDEDRECTD227*%
G04:AMPARAMS|DCode=228|XSize=111.02mil|YSize=55.91mil|CornerRadius=6.2mil|HoleSize=0mil|Usage=FLASHONLY|Rotation=0.000|XOffset=0mil|YOffset=0mil|HoleType=Round|Shape=RoundedRectangle|*
%AMROUNDEDRECTD228*
21,1,0.11102,0.04350,0,0,0.0*
21,1,0.09862,0.05591,0,0,0.0*
1,1,0.01240,0.04931,-0.02175*
1,1,0.01240,-0.04931,-0.02175*
1,1,0.01240,-0.04931,0.02175*
1,1,0.01240,0.04931,0.02175*
%
%ADD228ROUNDEDRECTD228*%
G04:AMPARAMS|DCode=229|XSize=44.09mil|YSize=36.22mil|CornerRadius=4.72mil|HoleSize=0mil|Usage=FLASHONLY|Rotation=0.000|XOffset=0mil|YOffset=0mil|HoleType=Round|Shape=RoundedRectangle|*
%AMROUNDEDRECTD229*
21,1,0.04409,0.02677,0,0,0.0*
21,1,0.03465,0.03622,0,0,0.0*
1,1,0.00945,0.01732,-0.01339*
1,1,0.00945,-0.01732,-0.01339*
1,1,0.00945,-0.01732,0.01339*
1,1,0.00945,0.01732,0.01339*
%
%ADD229ROUNDEDRECTD229*%
G04:AMPARAMS|DCode=230|XSize=40.16mil|YSize=38.19mil|CornerRadius=4.87mil|HoleSize=0mil|Usage=FLASHONLY|Rotation=0.000|XOffset=0mil|YOffset=0mil|HoleType=Round|Shape=RoundedRectangle|*
%AMROUNDEDRECTD230*
21,1,0.04016,0.02845,0,0,0.0*
21,1,0.03041,0.03819,0,0,0.0*
1,1,0.00974,0.01521,-0.01422*
1,1,0.00974,-0.01521,-0.01422*
1,1,0.00974,-0.01521,0.01422*
1,1,0.00974,0.01521,0.01422*
%
%ADD230ROUNDEDRECTD230*%
G04:AMPARAMS|DCode=231|XSize=29.13mil|YSize=30.71mil|CornerRadius=4.19mil|HoleSize=0mil|Usage=FLASHONLY|Rotation=90.000|XOffset=0mil|YOffset=0mil|HoleType=Round|Shape=RoundedRectangle|*
%AMROUNDEDRECTD231*
21,1,0.02913,0.02232,0,0,90.0*
21,1,0.02075,0.03071,0,0,90.0*
1,1,0.00839,0.01116,0.01037*
1,1,0.00839,0.01116,-0.01037*
1,1,0.00839,-0.01116,-0.01037*
1,1,0.00839,-0.01116,0.01037*
%
%ADD231ROUNDEDRECTD231*%
G04:AMPARAMS|DCode=232|XSize=29.92mil|YSize=31.5mil|CornerRadius=4.25mil|HoleSize=0mil|Usage=FLASHONLY|Rotation=315.000|XOffset=0mil|YOffset=0mil|HoleType=Round|Shape=RoundedRectangle|*
%AMROUNDEDRECTD232*
21,1,0.02992,0.02299,0,0,315.0*
21,1,0.02142,0.03150,0,0,315.0*
1,1,0.00850,-0.00056,-0.01570*
1,1,0.00850,-0.01570,-0.00056*
1,1,0.00850,0.00056,0.01570*
1,1,0.00850,0.01570,0.00056*
%
%ADD232ROUNDEDRECTD232*%
G04:AMPARAMS|DCode=233|XSize=26.38mil|YSize=26.38mil|CornerRadius=3.99mil|HoleSize=0mil|Usage=FLASHONLY|Rotation=45.000|XOffset=0mil|YOffset=0mil|HoleType=Round|Shape=RoundedRectangle|*
%AMROUNDEDRECTD233*
21,1,0.02638,0.01841,0,0,45.0*
21,1,0.01841,0.02638,0,0,45.0*
1,1,0.00797,0.01302,0.00000*
1,1,0.00797,0.00000,-0.01302*
1,1,0.00797,-0.01302,0.00000*
1,1,0.00797,0.00000,0.01302*
%
%ADD233ROUNDEDRECTD233*%
G04:AMPARAMS|DCode=234|XSize=30.32mil|YSize=18.11mil|CornerRadius=3.37mil|HoleSize=0mil|Usage=FLASHONLY|Rotation=90.000|XOffset=0mil|YOffset=0mil|HoleType=Round|Shape=RoundedRectangle|*
%AMROUNDEDRECTD234*
21,1,0.03032,0.01138,0,0,90.0*
21,1,0.02358,0.01811,0,0,90.0*
1,1,0.00673,0.00569,0.01179*
1,1,0.00673,0.00569,-0.01179*
1,1,0.00673,-0.00569,-0.01179*
1,1,0.00673,-0.00569,0.01179*
%
%ADD234ROUNDEDRECTD234*%
G04:AMPARAMS|DCode=235|XSize=36.22mil|YSize=18.11mil|CornerRadius=3.37mil|HoleSize=0mil|Usage=FLASHONLY|Rotation=90.000|XOffset=0mil|YOffset=0mil|HoleType=Round|Shape=RoundedRectangle|*
%AMROUNDEDRECTD235*
21,1,0.03622,0.01138,0,0,90.0*
21,1,0.02949,0.01811,0,0,90.0*
1,1,0.00673,0.00569,0.01474*
1,1,0.00673,0.00569,-0.01474*
1,1,0.00673,-0.00569,-0.01474*
1,1,0.00673,-0.00569,0.01474*
%
%ADD235ROUNDEDRECTD235*%
G04:AMPARAMS|DCode=236|XSize=42.13mil|YSize=36.22mil|CornerRadius=4.72mil|HoleSize=0mil|Usage=FLASHONLY|Rotation=270.000|XOffset=0mil|YOffset=0mil|HoleType=Round|Shape=RoundedRectangle|*
%AMROUNDEDRECTD236*
21,1,0.04213,0.02677,0,0,270.0*
21,1,0.03268,0.03622,0,0,270.0*
1,1,0.00945,-0.01339,-0.01634*
1,1,0.00945,-0.01339,0.01634*
1,1,0.00945,0.01339,0.01634*
1,1,0.00945,0.01339,-0.01634*
%
%ADD236ROUNDEDRECTD236*%
G04:AMPARAMS|DCode=237|XSize=44.09mil|YSize=40.16mil|CornerRadius=5.02mil|HoleSize=0mil|Usage=FLASHONLY|Rotation=45.000|XOffset=0mil|YOffset=0mil|HoleType=Round|Shape=RoundedRectangle|*
%AMROUNDEDRECTD237*
21,1,0.04409,0.03012,0,0,45.0*
21,1,0.03406,0.04016,0,0,45.0*
1,1,0.01004,0.02269,0.00139*
1,1,0.01004,-0.00139,-0.02269*
1,1,0.01004,-0.02269,-0.00139*
1,1,0.01004,0.00139,0.02269*
%
%ADD237ROUNDEDRECTD237*%
G04:AMPARAMS|DCode=238|XSize=44.09mil|YSize=36.22mil|CornerRadius=4.72mil|HoleSize=0mil|Usage=FLASHONLY|Rotation=135.000|XOffset=0mil|YOffset=0mil|HoleType=Round|Shape=RoundedRectangle|*
%AMROUNDEDRECTD238*
21,1,0.04409,0.02677,0,0,135.0*
21,1,0.03465,0.03622,0,0,135.0*
1,1,0.00945,-0.00278,0.02171*
1,1,0.00945,0.02171,-0.00278*
1,1,0.00945,0.00278,-0.02171*
1,1,0.00945,-0.02171,0.00278*
%
%ADD238ROUNDEDRECTD238*%
G04:AMPARAMS|DCode=239|XSize=61.81mil|YSize=53.94mil|CornerRadius=6.05mil|HoleSize=0mil|Usage=FLASHONLY|Rotation=45.000|XOffset=0mil|YOffset=0mil|HoleType=Round|Shape=RoundedRectangle|*
%AMROUNDEDRECTD239*
21,1,0.06181,0.04183,0,0,45.0*
21,1,0.04970,0.05394,0,0,45.0*
1,1,0.01211,0.03236,0.00278*
1,1,0.01211,-0.00278,-0.03236*
1,1,0.01211,-0.03236,-0.00278*
1,1,0.01211,0.00278,0.03236*
%
%ADD239ROUNDEDRECTD239*%
G04:AMPARAMS|DCode=240|XSize=26.38mil|YSize=26.38mil|CornerRadius=3.99mil|HoleSize=0mil|Usage=FLASHONLY|Rotation=270.000|XOffset=0mil|YOffset=0mil|HoleType=Round|Shape=RoundedRectangle|*
%AMROUNDEDRECTD240*
21,1,0.02638,0.01841,0,0,270.0*
21,1,0.01841,0.02638,0,0,270.0*
1,1,0.00797,-0.00920,-0.00920*
1,1,0.00797,-0.00920,0.00920*
1,1,0.00797,0.00920,0.00920*
1,1,0.00797,0.00920,-0.00920*
%
%ADD240ROUNDEDRECTD240*%
G04:AMPARAMS|DCode=241|XSize=26.38mil|YSize=26.38mil|CornerRadius=3.99mil|HoleSize=0mil|Usage=FLASHONLY|Rotation=0.000|XOffset=0mil|YOffset=0mil|HoleType=Round|Shape=RoundedRectangle|*
%AMROUNDEDRECTD241*
21,1,0.02638,0.01841,0,0,0.0*
21,1,0.01841,0.02638,0,0,0.0*
1,1,0.00797,0.00920,-0.00920*
1,1,0.00797,-0.00920,-0.00920*
1,1,0.00797,-0.00920,0.00920*
1,1,0.00797,0.00920,0.00920*
%
%ADD241ROUNDEDRECTD241*%
G04:AMPARAMS|DCode=242|XSize=213.39mil|YSize=67.72mil|CornerRadius=7.09mil|HoleSize=0mil|Usage=FLASHONLY|Rotation=180.000|XOffset=0mil|YOffset=0mil|HoleType=Round|Shape=RoundedRectangle|*
%AMROUNDEDRECTD242*
21,1,0.21339,0.05354,0,0,180.0*
21,1,0.19921,0.06772,0,0,180.0*
1,1,0.01417,-0.09961,0.02677*
1,1,0.01417,0.09961,0.02677*
1,1,0.01417,0.09961,-0.02677*
1,1,0.01417,-0.09961,-0.02677*
%
%ADD242ROUNDEDRECTD242*%
G04:AMPARAMS|DCode=243|XSize=48.03mil|YSize=44.09mil|CornerRadius=5.32mil|HoleSize=0mil|Usage=FLASHONLY|Rotation=0.000|XOffset=0mil|YOffset=0mil|HoleType=Round|Shape=RoundedRectangle|*
%AMROUNDEDRECTD243*
21,1,0.04803,0.03347,0,0,0.0*
21,1,0.03740,0.04409,0,0,0.0*
1,1,0.01063,0.01870,-0.01673*
1,1,0.01063,-0.01870,-0.01673*
1,1,0.01063,-0.01870,0.01673*
1,1,0.01063,0.01870,0.01673*
%
%ADD243ROUNDEDRECTD243*%
%ADD244R,0.07535X0.09819*%
%ADD245R,0.09819X0.07535*%
%ADD246R,0.06378X0.06378*%
%ADD247C,0.06969*%
G04:AMPARAMS|DCode=248|XSize=69.69mil|YSize=69.69mil|CornerRadius=7.23mil|HoleSize=0mil|Usage=FLASHONLY|Rotation=0.000|XOffset=0mil|YOffset=0mil|HoleType=Round|Shape=RoundedRectangle|*
%AMROUNDEDRECTD248*
21,1,0.06969,0.05522,0,0,0.0*
21,1,0.05522,0.06969,0,0,0.0*
1,1,0.01447,0.02761,-0.02761*
1,1,0.01447,-0.02761,-0.02761*
1,1,0.01447,-0.02761,0.02761*
1,1,0.01447,0.02761,0.02761*
%
%ADD248ROUNDEDRECTD248*%
%ADD249C,0.20157*%
%ADD250C,0.05591*%
G04:AMPARAMS|DCode=251|XSize=55.91mil|YSize=55.91mil|CornerRadius=6.2mil|HoleSize=0mil|Usage=FLASHONLY|Rotation=270.000|XOffset=0mil|YOffset=0mil|HoleType=Round|Shape=RoundedRectangle|*
%AMROUNDEDRECTD251*
21,1,0.05591,0.04350,0,0,270.0*
21,1,0.04350,0.05591,0,0,270.0*
1,1,0.01240,-0.02175,-0.02175*
1,1,0.01240,-0.02175,0.02175*
1,1,0.01240,0.02175,0.02175*
1,1,0.01240,0.02175,-0.02175*
%
%ADD251ROUNDEDRECTD251*%
%ADD252R,0.06378X0.06378*%
%ADD253C,0.05984*%
G04:AMPARAMS|DCode=254|XSize=59.84mil|YSize=59.84mil|CornerRadius=6.5mil|HoleSize=0mil|Usage=FLASHONLY|Rotation=270.000|XOffset=0mil|YOffset=0mil|HoleType=Round|Shape=RoundedRectangle|*
%AMROUNDEDRECTD254*
21,1,0.05984,0.04685,0,0,270.0*
21,1,0.04685,0.05984,0,0,270.0*
1,1,0.01299,-0.02343,-0.02343*
1,1,0.01299,-0.02343,0.02343*
1,1,0.01299,0.02343,0.02343*
1,1,0.01299,0.02343,-0.02343*
%
%ADD254ROUNDEDRECTD254*%
%ADD255C,0.06575*%
%ADD256C,0.01929*%
%ADD257C,0.04803*%
G04:AMPARAMS|DCode=258|XSize=48.03mil|YSize=48.03mil|CornerRadius=5.61mil|HoleSize=0mil|Usage=FLASHONLY|Rotation=90.000|XOffset=0mil|YOffset=0mil|HoleType=Round|Shape=RoundedRectangle|*
%AMROUNDEDRECTD258*
21,1,0.04803,0.03681,0,0,90.0*
21,1,0.03681,0.04803,0,0,90.0*
1,1,0.01122,0.01841,0.01841*
1,1,0.01122,0.01841,-0.01841*
1,1,0.01122,-0.01841,-0.01841*
1,1,0.01122,-0.01841,0.01841*
%
%ADD258ROUNDEDRECTD258*%
%ADD259C,0.24095*%
%ADD260C,0.02835*%
%ADD261C,0.03162*%
G36*
X0484879Y0529466D02*
X0484916Y0529458D01*
X0484950Y0529444D01*
X0484982Y0529424D01*
X0485010Y0529400D01*
X0485034Y0529372D01*
X0485054Y0529340D01*
X0485068Y0529306D01*
X0485077Y0529269D01*
X0485079Y0529232D01*
X0485079Y0510728D01*
X0485076Y0510691D01*
X0485068Y0510655D01*
X0485053Y0510621D01*
X0485034Y0510589D01*
X0485010Y0510561D01*
X0484982Y0510537D01*
X0484950Y0510517D01*
X0484916Y0510503D01*
X0484879Y0510494D01*
X0484842Y0510491D01*
X0467126Y0510491D01*
X0465158Y0510491D01*
X0465158D01*
X0465158D01*
X0465120Y0510494D01*
X0465084Y0510503D01*
X0465070Y0510509D01*
X0465050Y0510517D01*
X0465018Y0510537D01*
X0464990Y0510561D01*
Y0510561D01*
X0464990D01*
X0464966Y0510589D01*
X0464946Y0510621D01*
X0464938Y0510641D01*
X0464932Y0510655D01*
X0464923Y0510691D01*
X0464921Y0510728D01*
Y0510728D01*
Y0510728D01*
X0464921Y0513484D01*
Y0513484D01*
D01*
X0464923Y0513521D01*
X0464932Y0513557D01*
X0464938Y0513572D01*
X0464946Y0513592D01*
X0464966Y0513624D01*
X0464990Y0513652D01*
X0464990D01*
Y0513652D01*
X0465018Y0513676D01*
X0465050Y0513695D01*
X0465070Y0513704D01*
X0465084Y0513710D01*
X0465120Y0513718D01*
X0465157Y0513721D01*
X0465157D01*
D01*
X0466889Y0513721D01*
Y0515747D01*
X0465157Y0515747D01*
X0465120Y0515750D01*
X0465084Y0515759D01*
X0465050Y0515773D01*
X0465018Y0515793D01*
X0464990Y0515817D01*
X0464966Y0515845D01*
X0464946Y0515877D01*
X0464932Y0515911D01*
X0464923Y0515947D01*
X0464921Y0515984D01*
X0464920Y0518740D01*
X0464923Y0518777D01*
X0464932Y0518813D01*
X0464946Y0518848D01*
X0464966Y0518879D01*
X0464990Y0518908D01*
X0465018Y0518932D01*
X0465050Y0518951D01*
X0465084Y0518965D01*
X0465120Y0518974D01*
X0465157Y0518977D01*
X0466889Y0518977D01*
Y0520984D01*
X0465157Y0520984D01*
X0465157D01*
X0465157D01*
X0465120Y0520987D01*
X0465103Y0520991D01*
X0465084Y0520995D01*
X0465050Y0521009D01*
X0465018Y0521029D01*
X0464990Y0521053D01*
Y0521053D01*
X0464990D01*
X0464966Y0521081D01*
X0464946Y0521113D01*
X0464932Y0521147D01*
X0464927Y0521166D01*
X0464923Y0521183D01*
X0464920Y0521220D01*
Y0521220D01*
Y0521220D01*
X0464921Y0523976D01*
X0464923Y0524014D01*
X0464930Y0524040D01*
X0464932Y0524050D01*
X0464932Y0524050D01*
Y0524050D01*
X0464941Y0524070D01*
X0464946Y0524084D01*
X0464947Y0524084D01*
Y0524084D01*
X0464954Y0524096D01*
X0464966Y0524116D01*
X0464990Y0524144D01*
X0464990D01*
Y0524144D01*
X0465018Y0524168D01*
X0465038Y0524180D01*
X0465050Y0524188D01*
X0465050D01*
X0465050Y0524188D01*
X0465064Y0524193D01*
X0465084Y0524202D01*
X0465084D01*
X0465084Y0524202D01*
X0465095Y0524204D01*
X0465121Y0524210D01*
X0465158Y0524213D01*
X0466889Y0524213D01*
Y0526239D01*
X0465157Y0526239D01*
X0465120Y0526242D01*
X0465084Y0526251D01*
X0465050Y0526265D01*
X0465018Y0526285D01*
X0464990Y0526309D01*
X0464966Y0526337D01*
X0464946Y0526369D01*
X0464932Y0526403D01*
X0464923Y0526439D01*
X0464920Y0526476D01*
X0464920Y0529232D01*
X0464923Y0529269D01*
X0464932Y0529306D01*
X0464946Y0529340D01*
X0464966Y0529372D01*
X0464990Y0529400D01*
X0465018Y0529424D01*
X0465050Y0529443D01*
X0465084Y0529458D01*
X0465120Y0529466D01*
X0465157Y0529469D01*
X0467126Y0529469D01*
X0484842Y0529469D01*
X0484879Y0529466D01*
D02*
G37*
G36*
X0505315Y0500335D02*
D01*
X0505315D01*
X0507283Y0500335D01*
X0507320Y0500332D01*
X0507357Y0500324D01*
X0507391Y0500310D01*
X0507423Y0500290D01*
X0507443Y0500273D01*
X0507451Y0500266D01*
X0507451Y0500266D01*
X0507451Y0500266D01*
X0507458Y0500258D01*
X0507475Y0500238D01*
X0507495Y0500206D01*
X0507509Y0500172D01*
X0507517Y0500135D01*
X0507520Y0500098D01*
X0507520Y0497342D01*
Y0497342D01*
Y0497342D01*
X0507518Y0497305D01*
X0507509Y0497269D01*
X0507495Y0497235D01*
X0507475Y0497203D01*
X0507458Y0497183D01*
X0507451Y0497175D01*
X0507451Y0497175D01*
X0507451Y0497175D01*
X0507443Y0497168D01*
X0507423Y0497151D01*
X0507391Y0497131D01*
X0507357Y0497117D01*
X0507321Y0497109D01*
X0507284Y0497106D01*
X0507283D01*
X0507283D01*
X0505552Y0497106D01*
Y0495079D01*
X0507283Y0495080D01*
X0507320Y0495077D01*
X0507357Y0495068D01*
X0507391Y0495054D01*
X0507423Y0495034D01*
X0507451Y0495010D01*
X0507475Y0494982D01*
X0507495Y0494950D01*
X0507509Y0494916D01*
X0507517Y0494880D01*
X0507520Y0494843D01*
X0507520Y0492087D01*
Y0492087D01*
Y0492087D01*
X0507518Y0492049D01*
X0507509Y0492013D01*
X0507497Y0491985D01*
X0507495Y0491979D01*
X0507495Y0491979D01*
Y0491979D01*
X0507488Y0491967D01*
X0507475Y0491947D01*
X0507451Y0491919D01*
X0507451D01*
Y0491919D01*
X0507423Y0491895D01*
X0507403Y0491883D01*
X0507391Y0491875D01*
X0507391D01*
X0507391Y0491875D01*
X0507385Y0491873D01*
X0507357Y0491861D01*
X0507321Y0491853D01*
X0507284Y0491850D01*
X0507284D01*
X0507284D01*
X0505552Y0491850D01*
Y0489843D01*
X0507283Y0489843D01*
X0507321Y0489840D01*
X0507357Y0489832D01*
X0507391Y0489817D01*
X0507423Y0489798D01*
X0507451Y0489774D01*
Y0489774D01*
X0507451D01*
X0507475Y0489746D01*
X0507495Y0489714D01*
X0507509Y0489679D01*
X0507517Y0489643D01*
X0507520Y0489606D01*
X0507520Y0486850D01*
X0507517Y0486813D01*
X0507509Y0486777D01*
X0507494Y0486743D01*
X0507475Y0486711D01*
X0507451Y0486683D01*
X0507451D01*
Y0486683D01*
X0507423Y0486659D01*
X0507391Y0486639D01*
X0507357Y0486625D01*
X0507320Y0486616D01*
X0507283Y0486613D01*
X0505552Y0486613D01*
Y0484587D01*
X0507284Y0484587D01*
X0507284D01*
D01*
X0507321Y0484584D01*
X0507357Y0484576D01*
X0507391Y0484561D01*
X0507423Y0484542D01*
X0507451Y0484518D01*
X0507475Y0484490D01*
X0507495Y0484458D01*
X0507509Y0484423D01*
X0507518Y0484387D01*
X0507520Y0484350D01*
Y0484350D01*
D01*
X0507520Y0481594D01*
X0507517Y0481557D01*
X0507509Y0481521D01*
X0507495Y0481487D01*
X0507475Y0481455D01*
X0507455Y0481431D01*
X0507451Y0481427D01*
X0507451D01*
Y0481427D01*
X0507447Y0481423D01*
X0507423Y0481403D01*
X0507391Y0481383D01*
X0507357Y0481369D01*
X0507321Y0481360D01*
X0507283Y0481357D01*
X0505315Y0481357D01*
X0505315D01*
D01*
X0487599Y0481357D01*
X0487561Y0481360D01*
X0487525Y0481369D01*
X0487491Y0481383D01*
X0487459Y0481403D01*
X0487431Y0481427D01*
X0487407Y0481455D01*
X0487387Y0481487D01*
X0487373Y0481521D01*
X0487364Y0481557D01*
X0487361Y0481594D01*
X0487361Y0500098D01*
X0487364Y0500136D01*
X0487373Y0500172D01*
X0487387Y0500206D01*
X0487407Y0500238D01*
X0487431Y0500266D01*
X0487459Y0500290D01*
X0487491Y0500310D01*
X0487525Y0500324D01*
X0487561Y0500332D01*
X0487598Y0500335D01*
X0505315Y0500335D01*
D02*
G37*
G36*
X0516043Y0506595D02*
X0529429D01*
Y0490551D01*
X0527165D01*
Y0483268D01*
X0509842D01*
Y0501968D01*
X0501476Y0510335D01*
X0493602D01*
Y0525394D01*
X0497244D01*
X0516043Y0506595D01*
D02*
G37*
G36*
X0507222Y0464309D02*
X0507258Y0464300D01*
X0507293Y0464286D01*
X0507324Y0464266D01*
X0507353Y0464242D01*
X0507377Y0464214D01*
X0507396Y0464182D01*
X0507410Y0464148D01*
X0507419Y0464112D01*
X0507422Y0464075D01*
X0507422Y0461319D01*
X0507419Y0461282D01*
X0507410Y0461246D01*
X0507396Y0461211D01*
X0507377Y0461180D01*
X0507353Y0461151D01*
X0507324Y0461127D01*
X0507293Y0461108D01*
X0507258Y0461094D01*
X0507222Y0461085D01*
X0507185Y0461082D01*
X0505453Y0461082D01*
X0505453Y0459056D01*
X0507185Y0459056D01*
X0507222Y0459053D01*
X0507258Y0459044D01*
X0507293Y0459030D01*
X0507324Y0459011D01*
X0507352Y0458987D01*
Y0458987D01*
X0507352D01*
X0507377Y0458958D01*
X0507396Y0458926D01*
X0507410Y0458892D01*
X0507419Y0458856D01*
X0507422Y0458819D01*
X0507422Y0456063D01*
X0507419Y0456026D01*
X0507410Y0455990D01*
X0507396Y0455955D01*
X0507377Y0455924D01*
X0507353Y0455895D01*
X0507324Y0455871D01*
X0507293Y0455852D01*
X0507258Y0455838D01*
X0507222Y0455829D01*
X0507185Y0455826D01*
X0505453Y0455826D01*
X0505453Y0453820D01*
X0507185D01*
X0507222Y0453817D01*
X0507258Y0453808D01*
X0507293Y0453794D01*
X0507324Y0453774D01*
X0507353Y0453750D01*
X0507377Y0453722D01*
X0507396Y0453690D01*
X0507410Y0453656D01*
X0507419Y0453620D01*
X0507422Y0453583D01*
X0507422Y0450827D01*
X0507419Y0450790D01*
X0507410Y0450754D01*
X0507405Y0450739D01*
X0507396Y0450719D01*
X0507377Y0450688D01*
X0507353Y0450659D01*
X0507353D01*
Y0450659D01*
X0507324Y0450635D01*
X0507293Y0450616D01*
X0507272Y0450607D01*
X0507258Y0450601D01*
X0507222Y0450593D01*
X0507185Y0450590D01*
X0505453Y0450590D01*
X0505453Y0448564D01*
X0507185Y0448564D01*
X0507185D01*
X0507185D01*
X0507222Y0448561D01*
X0507258Y0448552D01*
X0507293Y0448538D01*
X0507324Y0448519D01*
X0507353Y0448494D01*
X0507377Y0448466D01*
X0507396Y0448434D01*
X0507410Y0448400D01*
X0507419Y0448364D01*
X0507422Y0448327D01*
Y0448327D01*
Y0448327D01*
X0507422Y0445571D01*
X0507419Y0445534D01*
X0507410Y0445498D01*
X0507396Y0445463D01*
X0507377Y0445432D01*
X0507352Y0445403D01*
X0507352D01*
Y0445403D01*
X0507324Y0445379D01*
X0507293Y0445360D01*
X0507258Y0445345D01*
X0507222Y0445337D01*
X0507185Y0445334D01*
X0505216Y0445334D01*
X0487500Y0445334D01*
X0487463Y0445337D01*
X0487427Y0445345D01*
X0487392Y0445360D01*
X0487361Y0445379D01*
X0487332Y0445403D01*
X0487308Y0445432D01*
X0487289Y0445463D01*
X0487275Y0445498D01*
X0487266Y0445534D01*
X0487263Y0445571D01*
X0487263Y0464075D01*
X0487266Y0464112D01*
X0487275Y0464148D01*
X0487289Y0464182D01*
X0487308Y0464214D01*
X0487332Y0464242D01*
X0487361Y0464266D01*
X0487392Y0464286D01*
X0487427Y0464300D01*
X0487463Y0464309D01*
X0487500Y0464312D01*
X0505217Y0464312D01*
X0507185Y0464312D01*
X0507222Y0464309D01*
D02*
G37*
G36*
X0475295Y0452264D02*
X0466634D01*
X0452165Y0466732D01*
Y0479724D01*
X0467520Y0495079D01*
X0475295D01*
Y0452264D01*
D02*
G37*
G36*
X0485077Y0435175D02*
X0485113Y0435166D01*
X0485147Y0435152D01*
X0485179Y0435133D01*
X0485207Y0435109D01*
X0485231Y0435080D01*
X0485251Y0435048D01*
X0485265Y0435014D01*
X0485273Y0434978D01*
X0485276Y0434941D01*
X0485276Y0416437D01*
X0485273Y0416400D01*
X0485265Y0416364D01*
X0485250Y0416329D01*
X0485231Y0416298D01*
X0485207Y0416269D01*
X0485179Y0416245D01*
X0485147Y0416226D01*
X0485112Y0416212D01*
X0485076Y0416203D01*
X0485039Y0416200D01*
X0467323Y0416200D01*
X0465354Y0416200D01*
D01*
X0465354D01*
X0465317Y0416203D01*
X0465309Y0416205D01*
X0465281Y0416212D01*
X0465247Y0416226D01*
X0465215Y0416245D01*
X0465187Y0416269D01*
X0465163Y0416298D01*
X0465143Y0416329D01*
X0465129Y0416364D01*
X0465122Y0416391D01*
X0465120Y0416400D01*
X0465117Y0416437D01*
Y0416437D01*
D01*
X0465117Y0419193D01*
D01*
Y0419193D01*
X0465120Y0419230D01*
X0465129Y0419266D01*
X0465143Y0419300D01*
X0465155Y0419320D01*
X0465163Y0419332D01*
X0465187Y0419360D01*
X0465187D01*
Y0419360D01*
X0465215Y0419385D01*
X0465227Y0419392D01*
X0465247Y0419404D01*
X0465281Y0419418D01*
X0465317Y0419427D01*
X0465354Y0419430D01*
X0465354D01*
D01*
X0467086D01*
X0467086Y0421456D01*
X0465354Y0421456D01*
X0465317Y0421459D01*
X0465281Y0421468D01*
X0465253Y0421479D01*
X0465247Y0421482D01*
X0465247Y0421482D01*
X0465247D01*
X0465215Y0421501D01*
X0465195Y0421518D01*
X0465187Y0421525D01*
X0465187Y0421525D01*
X0465187Y0421525D01*
X0465180Y0421534D01*
X0465163Y0421554D01*
X0465143Y0421585D01*
Y0421585D01*
X0465143Y0421585D01*
X0465141Y0421591D01*
X0465129Y0421620D01*
X0465120Y0421656D01*
X0465117Y0421693D01*
X0465117Y0424449D01*
Y0424449D01*
Y0424449D01*
X0465120Y0424486D01*
X0465129Y0424522D01*
X0465143Y0424556D01*
X0465163Y0424588D01*
X0465183Y0424612D01*
X0465187Y0424616D01*
X0465187Y0424616D01*
X0465187Y0424616D01*
X0465191Y0424620D01*
X0465215Y0424641D01*
X0465247Y0424660D01*
X0465281Y0424674D01*
X0465317Y0424683D01*
X0465354Y0424686D01*
X0465354D01*
X0465354D01*
X0467086Y0424686D01*
X0467086Y0426692D01*
X0465354Y0426692D01*
X0465354D01*
D01*
X0465317Y0426695D01*
X0465281Y0426704D01*
X0465247Y0426718D01*
X0465215Y0426737D01*
X0465187Y0426761D01*
X0465163Y0426790D01*
X0465143Y0426822D01*
X0465129Y0426856D01*
X0465120Y0426892D01*
X0465117Y0426929D01*
Y0426929D01*
D01*
X0465117Y0429685D01*
X0465120Y0429722D01*
X0465129Y0429758D01*
X0465143Y0429793D01*
X0465163Y0429824D01*
X0465187Y0429853D01*
X0465215Y0429877D01*
X0465247Y0429896D01*
X0465281Y0429910D01*
X0465317Y0429919D01*
X0465354Y0429922D01*
X0467086Y0429922D01*
X0467086Y0431948D01*
X0465354Y0431948D01*
X0465354D01*
X0465354D01*
X0465317Y0431951D01*
X0465281Y0431960D01*
X0465267Y0431965D01*
X0465247Y0431974D01*
X0465215Y0431993D01*
X0465187Y0432017D01*
Y0432017D01*
X0465187D01*
X0465163Y0432046D01*
X0465143Y0432077D01*
X0465135Y0432097D01*
X0465129Y0432112D01*
X0465120Y0432148D01*
X0465117Y0432185D01*
Y0432185D01*
Y0432185D01*
Y0434941D01*
D01*
Y0434941D01*
X0465120Y0434978D01*
X0465129Y0435014D01*
X0465143Y0435048D01*
X0465155Y0435068D01*
X0465163Y0435080D01*
X0465187Y0435109D01*
X0465187D01*
Y0435109D01*
X0465215Y0435133D01*
X0465227Y0435140D01*
X0465247Y0435152D01*
X0465281Y0435166D01*
X0465317Y0435175D01*
X0465354Y0435178D01*
X0465354D01*
D01*
X0467323Y0435178D01*
X0485039Y0435178D01*
X0485077Y0435175D01*
D02*
G37*
G36*
X0530479Y0437267D02*
X0530356Y0436783D01*
X0515746Y0432187D01*
X0525049Y0422884D01*
X0518898Y0416732D01*
X0494390D01*
Y0434744D01*
X0508760D01*
Y0445177D01*
Y0459047D01*
X0509223Y0459235D01*
X0530479Y0437267D01*
D02*
G37*
G36*
X0463091Y0519587D02*
X0433661D01*
X0430413Y0516339D01*
Y0429724D01*
X0433268Y0426870D01*
X0463091D01*
Y0415748D01*
X0434547D01*
X0421850Y0428445D01*
Y0519095D01*
X0432283Y0529528D01*
X0463091D01*
Y0519587D01*
D02*
G37*
D62*
X0489272Y0474114D02*
D03*
X0495374D02*
D03*
X0400492Y0489567D02*
D03*
X0406595D02*
D03*
D101*
X0356890Y0363875D02*
D03*
X0356890Y0370771D02*
D03*
D110*
X0145866Y0301772D02*
D03*
X0149016D02*
D03*
D114*
X0162303Y0307101D02*
D03*
Y0303726D02*
D03*
D117*
X0230413Y0384350D02*
D03*
X0232972D02*
D03*
X0235531D02*
D03*
Y0391831D02*
D03*
X0230413D02*
D03*
D133*
X0569095Y0417077D02*
D03*
D134*
X0161909Y0355512D02*
D03*
Y0350000D02*
D03*
X0283858Y0401575D02*
D03*
Y0407087D02*
D03*
X0167323Y0350000D02*
D03*
Y0355512D02*
D03*
X0448917Y0326673D02*
D03*
Y0332185D02*
D03*
X0443405Y0326673D02*
D03*
Y0332185D02*
D03*
X0221457Y0401083D02*
D03*
Y0395571D02*
D03*
X0215846Y0401083D02*
D03*
Y0395571D02*
D03*
X0262008Y0300000D02*
D03*
Y0294488D02*
D03*
X0257480Y0393209D02*
D03*
Y0387697D02*
D03*
X0251969Y0393209D02*
D03*
Y0387697D02*
D03*
X0116240Y0341732D02*
D03*
Y0336221D02*
D03*
X0399410Y0371358D02*
D03*
Y0365846D02*
D03*
X0539764Y0348524D02*
D03*
Y0343012D02*
D03*
X0181595Y0346358D02*
D03*
Y0340846D02*
D03*
X0539787Y0330351D02*
D03*
Y0335863D02*
D03*
X0534078Y0330351D02*
D03*
Y0335863D02*
D03*
X0496972Y0344229D02*
D03*
Y0349741D02*
D03*
X0491558Y0344229D02*
D03*
Y0349741D02*
D03*
D135*
X0347638Y0418996D02*
D03*
Y0388681D02*
D03*
D136*
X0230906Y0507579D02*
D03*
X0294488Y0532283D02*
D03*
D137*
X0381201Y0504035D02*
D03*
X0377264D02*
D03*
Y0493799D02*
D03*
X0381201D02*
D03*
D138*
X0297067Y0505138D02*
D03*
X0300964Y0509035D02*
D03*
X0291654Y0510354D02*
D03*
X0295551Y0514252D02*
D03*
X0200413Y0413406D02*
D03*
X0204311Y0417303D02*
D03*
X0196575Y0417343D02*
D03*
X0200472Y0421240D02*
D03*
D139*
X0347933Y0521654D02*
D03*
X0353248D02*
D03*
X0100266Y0398805D02*
D03*
X0105581D02*
D03*
X0116900D02*
D03*
X0111585D02*
D03*
X0309449Y0379724D02*
D03*
X0314764D02*
D03*
X0510925Y0322342D02*
D03*
X0516240D02*
D03*
X0351181Y0323327D02*
D03*
X0345866D02*
D03*
X0110630Y0352559D02*
D03*
X0115945D02*
D03*
X0252165Y0398622D02*
D03*
X0257480D02*
D03*
X0097638Y0358465D02*
D03*
X0092323D02*
D03*
D140*
X0181890Y0307972D02*
D03*
X0187402D02*
D03*
X0181791Y0336221D02*
D03*
X0187303D02*
D03*
X0554626Y0334744D02*
D03*
X0560138D02*
D03*
Y0340256D02*
D03*
X0554626D02*
D03*
X0181791Y0313386D02*
D03*
X0187303D02*
D03*
X0382283Y0335039D02*
D03*
X0387795D02*
D03*
X0360138Y0310236D02*
D03*
X0365650D02*
D03*
X0097736Y0364173D02*
D03*
X0092224D02*
D03*
X0107776Y0482185D02*
D03*
X0113287D02*
D03*
X0107768Y0473024D02*
D03*
X0113280D02*
D03*
X0107669Y0464657D02*
D03*
X0113181D02*
D03*
X0103445Y0325197D02*
D03*
X0108957D02*
D03*
X0338779Y0365551D02*
D03*
X0333268D02*
D03*
X0349114D02*
D03*
X0343602D02*
D03*
X0485236Y0302559D02*
D03*
X0479724D02*
D03*
X0363878Y0527165D02*
D03*
X0358366D02*
D03*
X0358465Y0521752D02*
D03*
X0363976D02*
D03*
X0133169Y0491142D02*
D03*
X0127657D02*
D03*
X0181890Y0318602D02*
D03*
X0187402D02*
D03*
X0181890Y0324902D02*
D03*
X0187402D02*
D03*
X0187205Y0330413D02*
D03*
X0181693D02*
D03*
X0487402Y0318898D02*
D03*
X0481890D02*
D03*
D141*
X0267806Y0502174D02*
D03*
X0271569Y0498416D02*
D03*
D142*
X0234842Y0372047D02*
D03*
Y0377362D02*
D03*
X0241043Y0372047D02*
D03*
Y0377362D02*
D03*
X0228839Y0371949D02*
D03*
Y0377264D02*
D03*
X0223228Y0372047D02*
D03*
Y0377362D02*
D03*
X0475295Y0297146D02*
D03*
Y0302461D02*
D03*
X0475886Y0320079D02*
D03*
Y0325394D02*
D03*
X0479859Y0349091D02*
D03*
Y0343776D02*
D03*
X0473721Y0349114D02*
D03*
Y0343799D02*
D03*
X0519390Y0328642D02*
D03*
Y0333957D02*
D03*
X0324016Y0361122D02*
D03*
Y0366437D02*
D03*
D143*
X0196534Y0436495D02*
D03*
X0200710Y0440671D02*
D03*
X0190178Y0488997D02*
D03*
X0186003Y0484822D02*
D03*
D144*
X0187253Y0427509D02*
D03*
X0191290Y0431546D02*
D03*
X0244135Y0509284D02*
D03*
X0248172Y0513321D02*
D03*
D145*
X0214348Y0496270D02*
D03*
X0217828Y0492790D02*
D03*
D146*
X0521283Y0347044D02*
D03*
Y0343580D02*
D03*
X0158465Y0303484D02*
D03*
Y0306949D02*
D03*
X0525295Y0355079D02*
D03*
Y0351614D02*
D03*
X0501968Y0333425D02*
D03*
Y0329961D02*
D03*
X0333107Y0438816D02*
D03*
X0333107Y0435351D02*
D03*
X0331533Y0447182D02*
D03*
Y0443717D02*
D03*
D147*
X0292303Y0430433D02*
D03*
X0288406Y0434331D02*
D03*
X0288071Y0426102D02*
D03*
X0284173Y0430000D02*
D03*
D148*
X0273366Y0514922D02*
D03*
X0269608Y0511164D02*
D03*
D149*
X0512598Y0333957D02*
D03*
Y0328051D02*
D03*
X0504035Y0356890D02*
D03*
Y0362795D02*
D03*
X0497146Y0361221D02*
D03*
Y0355315D02*
D03*
D150*
X0468898Y0332283D02*
D03*
X0468898Y0325591D02*
D03*
X0167717Y0298917D02*
D03*
X0167717Y0305610D02*
D03*
X0337795Y0507185D02*
D03*
Y0513878D02*
D03*
X0363878Y0507185D02*
D03*
Y0513878D02*
D03*
D151*
X0090424Y0398509D02*
D03*
Y0393194D02*
D03*
X0309547Y0343307D02*
D03*
Y0337992D02*
D03*
X0317913Y0506496D02*
D03*
Y0511811D02*
D03*
X0486811Y0309154D02*
D03*
Y0314469D02*
D03*
X0468405Y0307382D02*
D03*
Y0302067D02*
D03*
X0460728Y0331890D02*
D03*
Y0326575D02*
D03*
X0122018Y0398706D02*
D03*
Y0393391D02*
D03*
X0168012Y0407283D02*
D03*
Y0401968D02*
D03*
X0292421Y0447342D02*
D03*
Y0442028D02*
D03*
X0354035Y0438189D02*
D03*
Y0432874D02*
D03*
X0485925Y0349016D02*
D03*
Y0343701D02*
D03*
X0393406Y0335138D02*
D03*
Y0329823D02*
D03*
X0371161Y0315551D02*
D03*
Y0310236D02*
D03*
X0110827Y0341437D02*
D03*
Y0336122D02*
D03*
D152*
X0204045Y0517824D02*
D03*
X0200286Y0514066D02*
D03*
X0217922Y0420974D02*
D03*
X0214164Y0417215D02*
D03*
X0296546Y0466329D02*
D03*
X0300304Y0470088D02*
D03*
X0239478Y0406111D02*
D03*
X0235719Y0402353D02*
D03*
X0257471Y0496743D02*
D03*
X0261229Y0500501D02*
D03*
X0285818Y0495759D02*
D03*
X0289576Y0499517D02*
D03*
X0281389Y0500582D02*
D03*
X0285147Y0504340D02*
D03*
X0213296Y0425698D02*
D03*
X0209538Y0421940D02*
D03*
X0205306Y0425975D02*
D03*
X0209064Y0429733D02*
D03*
D153*
X0212608Y0479497D02*
D03*
X0208850Y0483255D02*
D03*
X0217410Y0484160D02*
D03*
X0213652Y0487918D02*
D03*
X0273801Y0421672D02*
D03*
X0277559Y0417913D02*
D03*
X0275877Y0476190D02*
D03*
X0279635Y0472432D02*
D03*
D154*
X0226625Y0495894D02*
D03*
X0229074Y0493444D02*
D03*
X0221822Y0487960D02*
D03*
X0224272Y0485510D02*
D03*
X0230452Y0499722D02*
D03*
X0232902Y0497272D02*
D03*
D155*
X0199732Y0471215D02*
D03*
X0203908Y0467039D02*
D03*
X0260769Y0519167D02*
D03*
X0264945Y0514991D02*
D03*
X0185921Y0466933D02*
D03*
X0190654Y0462201D02*
D03*
D156*
X0139764Y0308563D02*
D03*
X0145669D02*
D03*
D157*
X0360197Y0356398D02*
D03*
X0356732D02*
D03*
X0175945Y0334646D02*
D03*
X0172480D02*
D03*
X0174350Y0318110D02*
D03*
X0177815D02*
D03*
X0139705Y0318307D02*
D03*
X0143169D02*
D03*
X0494232Y0339370D02*
D03*
X0497697D02*
D03*
X0339348Y0427438D02*
D03*
X0342812D02*
D03*
X0325568Y0435213D02*
D03*
X0329032Y0435213D02*
D03*
D158*
X0525394Y0336811D02*
D03*
Y0330315D02*
D03*
X0461024Y0438583D02*
D03*
Y0445079D02*
D03*
Y0504823D02*
D03*
Y0498327D02*
D03*
D159*
X0174409Y0314075D02*
D03*
X0177756D02*
D03*
X0328875Y0431178D02*
D03*
X0325529D02*
D03*
D160*
X0439862Y0472933D02*
D03*
X0428839D02*
D03*
D161*
X0393898Y0503150D02*
D03*
X0412992D02*
D03*
X0394488Y0446063D02*
D03*
X0413583D02*
D03*
D162*
X0334547Y0360039D02*
D03*
X0334547Y0356299D02*
D03*
Y0352559D02*
D03*
X0345965D02*
D03*
X0345965Y0356299D02*
D03*
X0345965Y0360039D02*
D03*
D163*
X0340256Y0356299D02*
D03*
D164*
X0336910Y0343799D02*
D03*
X0330217D02*
D03*
X0343602Y0343799D02*
D03*
X0350295Y0343799D02*
D03*
D165*
X0322539Y0343701D02*
D03*
X0316437D02*
D03*
X0502953Y0324705D02*
D03*
X0496850D02*
D03*
X0407972Y0380906D02*
D03*
X0414075D02*
D03*
X0324311Y0506791D02*
D03*
X0330413D02*
D03*
D166*
X0324016Y0355610D02*
D03*
Y0350492D02*
D03*
X0393602Y0366043D02*
D03*
Y0371161D02*
D03*
D167*
X0357185Y0347441D02*
D03*
X0369783Y0347441D02*
D03*
D168*
X0371161Y0356693D02*
D03*
X0365256Y0356693D02*
D03*
D169*
X0309547Y0352953D02*
D03*
X0228543Y0399902D02*
D03*
X0395866Y0418602D02*
D03*
X0319390Y0522146D02*
D03*
X0324508Y0381496D02*
D03*
X0162008Y0384449D02*
D03*
X0254724Y0298327D02*
D03*
X0554823Y0347736D02*
D03*
X0554626Y0327461D02*
D03*
X0269193Y0297933D02*
D03*
X0406988Y0333071D02*
D03*
X0257579Y0405709D02*
D03*
X0223425Y0389567D02*
D03*
X0376378Y0334646D02*
D03*
X0188681Y0442520D02*
D03*
X0285335Y0525787D02*
D03*
X0434154Y0321850D02*
D03*
X0188287Y0299213D02*
D03*
X0183858Y0518110D02*
D03*
X0094390Y0494370D02*
D03*
Y0504370D02*
D03*
Y0514370D02*
D03*
X0114429Y0453504D02*
D03*
Y0443504D02*
D03*
X0104429Y0453504D02*
D03*
Y0443504D02*
D03*
X0094429Y0453504D02*
D03*
X0212441Y0324665D02*
D03*
X0222441Y0314665D02*
D03*
Y0324665D02*
D03*
X0232441Y0314665D02*
D03*
Y0324665D02*
D03*
D170*
X0480354Y0324508D02*
D03*
X0489134D02*
D03*
X0480059Y0297244D02*
D03*
X0488839D02*
D03*
X0097471Y0387978D02*
D03*
X0088691Y0387978D02*
D03*
D171*
X0354331Y0472736D02*
D03*
X0325984D02*
D03*
D172*
X0526673Y0496654D02*
D03*
X0537894D02*
D03*
X0400818Y0472835D02*
D03*
X0412039D02*
D03*
D173*
X0087913Y0336299D02*
D03*
Y0341299D02*
D03*
Y0346299D02*
D03*
Y0351299D02*
D03*
D174*
X0285894Y0447969D02*
D03*
X0284780Y0446856D02*
D03*
X0283666Y0445742D02*
D03*
X0282553Y0444629D02*
D03*
X0281439Y0443515D02*
D03*
X0280326Y0442402D02*
D03*
X0279212Y0441288D02*
D03*
X0278099Y0440174D02*
D03*
X0276985Y0439061D02*
D03*
X0275871Y0437947D02*
D03*
X0274758Y0436834D02*
D03*
X0273644Y0435720D02*
D03*
X0272531Y0434607D02*
D03*
X0271417Y0433493D02*
D03*
X0270304Y0432380D02*
D03*
X0269190Y0431266D02*
D03*
X0268077Y0430153D02*
D03*
X0266963Y0429039D02*
D03*
X0265849Y0427925D02*
D03*
X0264736Y0426812D02*
D03*
X0263622Y0425698D02*
D03*
X0262509Y0424585D02*
D03*
X0261395Y0423471D02*
D03*
X0260282Y0422358D02*
D03*
X0259168Y0421244D02*
D03*
X0258055Y0420130D02*
D03*
X0256941Y0419017D02*
D03*
X0255828Y0417903D02*
D03*
X0254714Y0416790D02*
D03*
X0253601Y0415676D02*
D03*
X0252487Y0414563D02*
D03*
X0251373Y0413449D02*
D03*
X0208502Y0456321D02*
D03*
X0209615Y0457435D02*
D03*
X0210729Y0458548D02*
D03*
X0211842Y0459662D02*
D03*
X0212956Y0460775D02*
D03*
X0214069Y0461889D02*
D03*
X0216296Y0464116D02*
D03*
X0217410Y0465229D02*
D03*
X0218524Y0466343D02*
D03*
X0219637Y0467456D02*
D03*
X0220751Y0468570D02*
D03*
X0221864Y0469684D02*
D03*
X0222978Y0470797D02*
D03*
X0224091Y0471911D02*
D03*
X0225205Y0473024D02*
D03*
X0226318Y0474138D02*
D03*
X0227432Y0475251D02*
D03*
X0228545Y0476365D02*
D03*
X0229659Y0477479D02*
D03*
X0230773Y0478592D02*
D03*
X0231886Y0479706D02*
D03*
X0233000Y0480819D02*
D03*
X0234113Y0481933D02*
D03*
X0235227Y0483046D02*
D03*
X0236340Y0484160D02*
D03*
X0237454Y0485273D02*
D03*
X0238567Y0486387D02*
D03*
X0239681Y0487500D02*
D03*
X0240795Y0488614D02*
D03*
X0241908Y0489728D02*
D03*
X0243022Y0490841D02*
D03*
X0215183Y0463002D02*
D03*
D175*
X0243022Y0413449D02*
D03*
X0241908Y0414563D02*
D03*
X0240795Y0415676D02*
D03*
X0239681Y0416790D02*
D03*
X0238567Y0417903D02*
D03*
X0237454Y0419017D02*
D03*
X0236340Y0420130D02*
D03*
X0235227Y0421244D02*
D03*
X0234113Y0422358D02*
D03*
X0233000Y0423471D02*
D03*
X0231886Y0424585D02*
D03*
X0230773Y0425698D02*
D03*
X0229659Y0426812D02*
D03*
X0228545Y0427925D02*
D03*
X0227432Y0429039D02*
D03*
X0226318Y0430153D02*
D03*
X0225205Y0431266D02*
D03*
X0224091Y0432380D02*
D03*
X0222978Y0433493D02*
D03*
X0221864Y0434607D02*
D03*
X0220751Y0435720D02*
D03*
X0219637Y0436834D02*
D03*
X0218524Y0437947D02*
D03*
X0217410Y0439061D02*
D03*
X0216296Y0440174D02*
D03*
X0215183Y0441288D02*
D03*
X0214069Y0442402D02*
D03*
X0212956Y0443515D02*
D03*
X0211842Y0444629D02*
D03*
X0210729Y0445742D02*
D03*
X0209615Y0446856D02*
D03*
X0251373Y0490841D02*
D03*
X0252487Y0489728D02*
D03*
X0253601Y0488614D02*
D03*
X0254714Y0487500D02*
D03*
X0255828Y0486387D02*
D03*
X0256941Y0485273D02*
D03*
X0258055Y0484160D02*
D03*
X0259168Y0483046D02*
D03*
X0260282Y0481933D02*
D03*
X0261395Y0480819D02*
D03*
X0262509Y0479706D02*
D03*
X0263622Y0478592D02*
D03*
X0264736Y0477479D02*
D03*
X0265849Y0476365D02*
D03*
X0266963Y0475251D02*
D03*
X0268077Y0474138D02*
D03*
X0269190Y0473024D02*
D03*
X0270304Y0471911D02*
D03*
X0271417Y0470797D02*
D03*
X0272531Y0469684D02*
D03*
X0273644Y0468570D02*
D03*
X0274758Y0467456D02*
D03*
X0275871Y0466343D02*
D03*
X0276985Y0465229D02*
D03*
X0278099Y0464116D02*
D03*
X0279212Y0463002D02*
D03*
X0280326Y0461889D02*
D03*
X0281439Y0460775D02*
D03*
X0282553Y0459662D02*
D03*
X0283666Y0458548D02*
D03*
X0284780Y0457435D02*
D03*
X0285894Y0456321D02*
D03*
X0208502Y0447969D02*
D03*
D176*
X0576968Y0492717D02*
D03*
X0576968Y0475787D02*
D03*
X0547835Y0492717D02*
D03*
X0547835Y0475787D02*
D03*
X0562402Y0492717D02*
D03*
X0562401Y0475787D02*
D03*
D177*
X0145669Y0506890D02*
D03*
X0149409Y0497835D02*
D03*
X0141929D02*
D03*
X0126772Y0497933D02*
D03*
X0134252D02*
D03*
X0130512Y0506988D02*
D03*
D178*
X0118701Y0495472D02*
D03*
X0118701Y0510039D02*
D03*
X0174803Y0360630D02*
D03*
X0174803Y0346063D02*
D03*
D179*
X0115059Y0523917D02*
D03*
Y0518209D02*
D03*
D180*
X0567323Y0386910D02*
D03*
X0572441D02*
D03*
D181*
X0474409Y0314370D02*
D03*
Y0312402D02*
D03*
Y0310433D02*
D03*
Y0308465D02*
D03*
X0482283D02*
D03*
X0482283Y0310433D02*
D03*
Y0312402D02*
D03*
X0482283Y0314370D02*
D03*
X0503664Y0342359D02*
D03*
Y0344328D02*
D03*
Y0346296D02*
D03*
Y0348265D02*
D03*
X0515476D02*
D03*
Y0346296D02*
D03*
Y0344328D02*
D03*
Y0342359D02*
D03*
D182*
X0478346Y0311417D02*
D03*
D183*
X0467717Y0312598D02*
D03*
Y0318701D02*
D03*
X0095640Y0398903D02*
D03*
Y0392801D02*
D03*
D184*
X0114370Y0325295D02*
D03*
X0122244Y0329035D02*
D03*
Y0321555D02*
D03*
X0132866Y0471646D02*
D03*
Y0479126D02*
D03*
X0124992Y0475386D02*
D03*
X0124992Y0462000D02*
D03*
X0132866Y0465740D02*
D03*
X0132866Y0458260D02*
D03*
D185*
X0118012Y0359055D02*
D03*
X0343799Y0316437D02*
D03*
Y0313878D02*
D03*
Y0311319D02*
D03*
X0353445D02*
D03*
Y0316437D02*
D03*
X0108366Y0359055D02*
D03*
Y0364173D02*
D03*
X0118012D02*
D03*
X0118012Y0361614D02*
D03*
D186*
X0566260Y0330177D02*
D03*
X0102539Y0336299D02*
D03*
Y0341299D02*
D03*
Y0346299D02*
D03*
Y0351299D02*
D03*
X0566260Y0325177D02*
D03*
X0580984D02*
D03*
Y0330177D02*
D03*
X0566260Y0335177D02*
D03*
X0580984D02*
D03*
X0566260Y0340177D02*
D03*
X0580984Y0340177D02*
D03*
D187*
X0100827Y0482480D02*
D03*
X0094528D02*
D03*
X0097638Y0325295D02*
D03*
X0091339D02*
D03*
X0100681Y0473093D02*
D03*
X0094382D02*
D03*
X0100780Y0464825D02*
D03*
X0094480Y0464825D02*
D03*
D188*
X0568012Y0402488D02*
D03*
X0568012Y0462303D02*
D03*
D189*
X0215177Y0365315D02*
D03*
X0215177Y0360315D02*
D03*
X0215177Y0355315D02*
D03*
X0215177Y0350315D02*
D03*
Y0345315D02*
D03*
X0231201D02*
D03*
Y0350315D02*
D03*
X0231201Y0355315D02*
D03*
Y0360315D02*
D03*
X0231201Y0365315D02*
D03*
D190*
X0274176Y0490545D02*
D03*
X0276348Y0492716D02*
D03*
X0282946Y0481497D02*
D03*
X0285117Y0483669D02*
D03*
D191*
X0291559Y0483144D02*
D03*
X0294287Y0485872D02*
D03*
X0300412Y0479608D02*
D03*
X0297683Y0476880D02*
D03*
D192*
X0282848Y0486689D02*
D03*
X0279229Y0490308D02*
D03*
X0280064Y0483905D02*
D03*
X0276445Y0487524D02*
D03*
D193*
X0293619Y0472120D02*
D03*
X0286659Y0479079D02*
D03*
D194*
X0482677Y0498346D02*
D03*
X0482677Y0493347D02*
D03*
X0482677Y0488346D02*
D03*
X0504799Y0498746D02*
D03*
X0504799Y0493446D02*
D03*
X0504799Y0488246D02*
D03*
X0504799Y0482946D02*
D03*
X0482677Y0483346D02*
D03*
X0489764Y0512480D02*
D03*
X0489764Y0517480D02*
D03*
X0489764Y0522480D02*
D03*
X0489764Y0527481D02*
D03*
X0467642Y0527880D02*
D03*
X0467642Y0522580D02*
D03*
X0467642Y0517380D02*
D03*
X0467642Y0512080D02*
D03*
X0489961Y0418189D02*
D03*
X0489961Y0423189D02*
D03*
Y0428189D02*
D03*
X0489960Y0433189D02*
D03*
X0467839Y0433589D02*
D03*
X0467839Y0428289D02*
D03*
X0467838Y0423089D02*
D03*
X0467838Y0417789D02*
D03*
X0482579Y0462323D02*
D03*
X0482579Y0457323D02*
D03*
X0482579Y0452323D02*
D03*
X0504701Y0462723D02*
D03*
X0504701Y0457423D02*
D03*
X0504701Y0452223D02*
D03*
X0504701Y0446923D02*
D03*
X0482579Y0447323D02*
D03*
D195*
X0378327Y0320354D02*
D03*
Y0305630D02*
D03*
X0383327Y0320354D02*
D03*
Y0305630D02*
D03*
X0388327Y0320354D02*
D03*
Y0305630D02*
D03*
X0393327Y0320354D02*
D03*
Y0305630D02*
D03*
X0252067Y0320354D02*
D03*
Y0305630D02*
D03*
X0257067Y0320354D02*
D03*
Y0305630D02*
D03*
X0262067Y0320354D02*
D03*
Y0305630D02*
D03*
X0267067Y0320354D02*
D03*
Y0305630D02*
D03*
X0272067Y0320354D02*
D03*
Y0305630D02*
D03*
X0277067Y0320354D02*
D03*
Y0305630D02*
D03*
X0458681D02*
D03*
Y0320354D02*
D03*
X0453681Y0305630D02*
D03*
Y0320354D02*
D03*
X0448681Y0305630D02*
D03*
Y0320354D02*
D03*
X0443681Y0305630D02*
D03*
Y0320354D02*
D03*
D196*
X0566339Y0374508D02*
D03*
Y0382382D02*
D03*
D197*
X0509570Y0345312D02*
D03*
D198*
X0512523Y0339407D02*
D03*
X0510554D02*
D03*
X0508586D02*
D03*
X0506617D02*
D03*
Y0351218D02*
D03*
X0508586D02*
D03*
X0510554D02*
D03*
X0512523D02*
D03*
D199*
X0512031Y0368344D02*
D03*
Y0370903D02*
D03*
Y0373462D02*
D03*
Y0376021D02*
D03*
D200*
X0524137Y0368344D02*
D03*
Y0370903D02*
D03*
Y0373462D02*
D03*
Y0376021D02*
D03*
D201*
X0487604Y0377103D02*
D03*
X0452403D02*
D03*
D202*
X0538287Y0371949D02*
D03*
Y0383760D02*
D03*
X0551279Y0371850D02*
D03*
Y0383661D02*
D03*
D203*
X0346296Y0438363D02*
D03*
Y0432457D02*
D03*
D204*
X0341989Y0438757D02*
D03*
X0340218D02*
D03*
X0338446D02*
D03*
Y0432064D02*
D03*
X0340218D02*
D03*
X0341989Y0432064D02*
D03*
D205*
X0346744Y0435410D02*
D03*
D206*
X0352658Y0378937D02*
D03*
X0364469D02*
D03*
D207*
X0361516Y0428642D02*
D03*
Y0439665D02*
D03*
D208*
X0345571Y0515945D02*
D03*
X0355807Y0508465D02*
D03*
Y0512205D02*
D03*
Y0515945D02*
D03*
X0345571Y0508464D02*
D03*
D209*
X0114439Y0408352D02*
D03*
X0114439Y0418194D02*
D03*
X0096526D02*
D03*
Y0408352D02*
D03*
D210*
X0121821Y0406022D02*
D03*
X0121821Y0411022D02*
D03*
Y0416022D02*
D03*
X0121821Y0421022D02*
D03*
X0160010D02*
D03*
Y0416022D02*
D03*
Y0411022D02*
D03*
Y0406022D02*
D03*
D211*
X0194723Y0483994D02*
D03*
X0191104Y0480375D02*
D03*
X0181714Y0480139D02*
D03*
X0177538Y0475963D02*
D03*
D212*
X0203560Y0475739D02*
D03*
X0208293Y0471006D02*
D03*
X0190744Y0471166D02*
D03*
X0195476Y0466433D02*
D03*
D213*
X0195209Y0475739D02*
D03*
X0199106Y0479636D02*
D03*
X0182008Y0471673D02*
D03*
X0185905Y0475571D02*
D03*
D214*
X0114486Y0393293D02*
D03*
X0102675Y0393293D02*
D03*
D215*
X0108581Y0392505D02*
D03*
D216*
X0108581Y0383450D02*
D03*
D217*
X0208362Y0503230D02*
D03*
X0210311Y0515757D02*
D03*
X0212956Y0513112D02*
D03*
X0215600Y0510468D02*
D03*
X0203073Y0508519D02*
D03*
X0205718Y0505874D02*
D03*
D218*
X0274480Y0505039D02*
D03*
X0277959Y0512138D02*
D03*
X0281578Y0508519D02*
D03*
X0201611Y0461750D02*
D03*
X0198132Y0454651D02*
D03*
X0194512Y0458270D02*
D03*
D219*
X0152756Y0312992D02*
D03*
X0154724D02*
D03*
X0156693Y0312992D02*
D03*
X0158661D02*
D03*
X0160630D02*
D03*
X0162598D02*
D03*
X0164567D02*
D03*
X0166535Y0312992D02*
D03*
X0166535Y0331693D02*
D03*
X0164567D02*
D03*
X0162598D02*
D03*
X0160630D02*
D03*
X0158661Y0331693D02*
D03*
X0156693D02*
D03*
X0154724Y0331693D02*
D03*
X0152756D02*
D03*
D220*
X0168996Y0315453D02*
D03*
Y0317421D02*
D03*
X0168996Y0319390D02*
D03*
Y0321358D02*
D03*
X0168996Y0323327D02*
D03*
Y0325295D02*
D03*
Y0327264D02*
D03*
Y0329232D02*
D03*
X0150295D02*
D03*
X0150295Y0327264D02*
D03*
Y0325295D02*
D03*
X0150295Y0323327D02*
D03*
Y0321358D02*
D03*
Y0319390D02*
D03*
X0150295Y0317421D02*
D03*
Y0315453D02*
D03*
D221*
X0159646Y0322342D02*
D03*
D222*
X0125689Y0296358D02*
D03*
X0137303D02*
D03*
D223*
X0131496Y0302362D02*
D03*
D224*
X0135039Y0328445D02*
D03*
X0142323D02*
D03*
Y0337500D02*
D03*
X0135039D02*
D03*
D225*
X0158563Y0338583D02*
D03*
Y0341929D02*
D03*
X0525295Y0346949D02*
D03*
Y0343602D02*
D03*
X0505610Y0333268D02*
D03*
Y0329921D02*
D03*
X0521184Y0355056D02*
D03*
Y0351710D02*
D03*
X0497933Y0330020D02*
D03*
Y0333366D02*
D03*
D226*
X0143405Y0314370D02*
D03*
X0139469D02*
D03*
D227*
X0152165Y0301831D02*
D03*
Y0298366D02*
D03*
X0143012Y0301535D02*
D03*
Y0298071D02*
D03*
D228*
X0398228Y0381102D02*
D03*
Y0392126D02*
D03*
X0437303Y0380906D02*
D03*
Y0391929D02*
D03*
X0424016Y0380906D02*
D03*
Y0391929D02*
D03*
D229*
X0127657Y0322441D02*
D03*
Y0328346D02*
D03*
X0407972Y0391339D02*
D03*
Y0385433D02*
D03*
X0138779Y0464862D02*
D03*
Y0458957D02*
D03*
X0138976Y0478150D02*
D03*
X0138976Y0472244D02*
D03*
D230*
X0528445Y0380118D02*
D03*
Y0375000D02*
D03*
X0559941Y0380709D02*
D03*
Y0375591D02*
D03*
D231*
X0136161Y0342913D02*
D03*
X0139626D02*
D03*
X0143268Y0323327D02*
D03*
X0139803D02*
D03*
D232*
X0267687Y0483770D02*
D03*
X0270137Y0486220D02*
D03*
X0262189Y0489268D02*
D03*
X0264639Y0491718D02*
D03*
D233*
X0235644Y0499958D02*
D03*
X0233139Y0502464D02*
D03*
D234*
X0506420Y0371493D02*
D03*
X0503861D02*
D03*
X0501302D02*
D03*
X0498743D02*
D03*
D235*
X0506420Y0383599D02*
D03*
X0503861D02*
D03*
X0501302D02*
D03*
X0498743D02*
D03*
D236*
X0484449Y0338090D02*
D03*
X0489764D02*
D03*
D237*
X0268842Y0519724D02*
D03*
X0265223Y0523343D02*
D03*
D238*
X0253461Y0508589D02*
D03*
X0249285Y0504413D02*
D03*
X0253326Y0500274D02*
D03*
X0257501Y0504450D02*
D03*
X0181419Y0435356D02*
D03*
X0177243Y0431180D02*
D03*
X0178564Y0440868D02*
D03*
X0174389Y0436692D02*
D03*
D239*
X0208173Y0493303D02*
D03*
X0203441Y0498036D02*
D03*
D240*
X0348031Y0447736D02*
D03*
X0344488D02*
D03*
Y0444291D02*
D03*
X0348031D02*
D03*
X0325529Y0439150D02*
D03*
X0329072Y0439150D02*
D03*
D241*
X0338619Y0447221D02*
D03*
Y0443678D02*
D03*
X0335174D02*
D03*
Y0447221D02*
D03*
D242*
X0445284Y0512716D02*
D03*
X0445283Y0493622D02*
D03*
X0445283Y0432992D02*
D03*
X0445284Y0452087D02*
D03*
D243*
X0168701Y0523110D02*
D03*
Y0517598D02*
D03*
X0152264Y0523110D02*
D03*
Y0517598D02*
D03*
X0134941Y0523130D02*
D03*
X0134941Y0517618D02*
D03*
D244*
X0519491Y0372182D02*
D03*
D245*
X0502583Y0376137D02*
D03*
D246*
X0094390Y0524370D02*
D03*
D247*
X0516260Y0315453D02*
D03*
X0506260D02*
D03*
X0496260D02*
D03*
D248*
X0526260D02*
D03*
D249*
X0455118Y0473327D02*
D03*
X0528150Y0431791D02*
D03*
X0573150Y0431791D02*
D03*
X0383169Y0472638D02*
D03*
D250*
X0115157Y0541437D02*
D03*
D251*
Y0531595D02*
D03*
D252*
X0094429Y0443504D02*
D03*
X0212441Y0314665D02*
D03*
D253*
X0134941Y0532205D02*
D03*
X0168701Y0532008D02*
D03*
X0152264Y0532106D02*
D03*
D254*
X0134941Y0542205D02*
D03*
X0168701Y0542008D02*
D03*
X0152264Y0542106D02*
D03*
D255*
X0417815Y0313189D02*
D03*
X0094587Y0535728D02*
D03*
X0140059Y0351083D02*
D03*
D256*
X0378327Y0315492D02*
D03*
Y0310492D02*
D03*
X0383327Y0315492D02*
D03*
Y0310492D02*
D03*
X0388327Y0315492D02*
D03*
Y0310492D02*
D03*
X0393327Y0315492D02*
D03*
Y0310492D02*
D03*
X0252067Y0315492D02*
D03*
Y0310492D02*
D03*
X0257067Y0315492D02*
D03*
Y0310492D02*
D03*
X0262067Y0315492D02*
D03*
Y0310492D02*
D03*
X0267067Y0315492D02*
D03*
Y0310492D02*
D03*
X0272067Y0315492D02*
D03*
Y0310492D02*
D03*
X0277067Y0315492D02*
D03*
Y0310492D02*
D03*
X0458681D02*
D03*
Y0315492D02*
D03*
X0453681Y0310492D02*
D03*
Y0315492D02*
D03*
X0448681Y0310492D02*
D03*
Y0315492D02*
D03*
X0443681Y0310492D02*
D03*
Y0315492D02*
D03*
X0092677Y0336299D02*
D03*
X0097677D02*
D03*
X0092677Y0341299D02*
D03*
X0097677D02*
D03*
X0092677Y0346299D02*
D03*
X0097677D02*
D03*
X0092677Y0351299D02*
D03*
X0097677D02*
D03*
X0571122Y0325177D02*
D03*
X0576122D02*
D03*
X0571122Y0330177D02*
D03*
X0576122D02*
D03*
X0571122Y0335177D02*
D03*
X0576122D02*
D03*
X0571122Y0340177D02*
D03*
X0576122D02*
D03*
D257*
X0090522Y0421836D02*
D03*
Y0415931D02*
D03*
Y0410025D02*
D03*
D258*
Y0404120D02*
D03*
D259*
X0567323Y0305610D02*
D03*
Y0530020D02*
D03*
X0230020D02*
D03*
X0103839Y0305610D02*
D03*
D260*
X0338090Y0358465D02*
D03*
X0342421Y0358465D02*
D03*
X0338091Y0354134D02*
D03*
X0342421Y0354134D02*
D03*
X0155315Y0318012D02*
D03*
Y0322342D02*
D03*
Y0326673D02*
D03*
X0159646Y0318012D02*
D03*
X0159646Y0322342D02*
D03*
X0159646Y0326673D02*
D03*
X0163976Y0318012D02*
D03*
X0163976Y0322342D02*
D03*
X0163976Y0326673D02*
D03*
D261*
X0231594Y0408661D02*
D03*
X0236221Y0409744D02*
D03*
X0218307Y0404429D02*
D03*
X0226870Y0406693D02*
D03*
X0222736Y0405315D02*
D03*
X0176134Y0385630D02*
D03*
M02*
