G04*
G04 #@! TF.GenerationSoftware,Altium Limited,Altium Designer,21.7.2 (23)*
G04*
G04 Layer_Color=32768*
%FSAX25Y25*%
%MOIN*%
G70*
G04*
G04 #@! TF.SameCoordinates,7BBA0914-394B-4DB2-939C-07DA4AAD527A*
G04*
G04*
G04 #@! TF.FilePolarity,Positive*
G04*
G01*
G75*
%ADD10C,0.00500*%
%ADD11C,0.00394*%
%ADD369C,0.00197*%
%ADD370C,0.00300*%
%ADD375C,0.01968*%
%ADD376C,0.03937*%
%ADD377C,0.01000*%
D10*
X0374902Y0490650D02*
Y0507185D01*
X0383563D01*
Y0490650D02*
Y0507185D01*
X0374902Y0490650D02*
X0383563D01*
D11*
X0160138Y0352756D02*
X0163681D01*
X0161909Y0350984D02*
Y0354528D01*
X0297763Y0505834D02*
X0300269Y0508339D01*
X0297763D02*
X0300269Y0505834D01*
X0292350Y0511050D02*
X0294855Y0513556D01*
X0292350D02*
X0294855Y0511050D01*
X0283858Y0402559D02*
Y0406102D01*
X0282087Y0404331D02*
X0285630D01*
X0196779Y0445696D02*
X0199284Y0448202D01*
X0196779D02*
X0199284Y0445696D01*
X0350590Y0519882D02*
Y0523425D01*
X0348819Y0521654D02*
X0352362D01*
X0182874Y0307972D02*
X0186417D01*
X0184646Y0306201D02*
Y0309744D01*
X0167323Y0350984D02*
Y0354528D01*
X0165551Y0352756D02*
X0169095D01*
X0182776Y0336221D02*
X0186319D01*
X0184547Y0334449D02*
Y0337992D01*
X0268363Y0501618D02*
X0271007Y0498973D01*
X0268363D02*
X0271007Y0501618D01*
X0234842Y0372835D02*
Y0376575D01*
X0232972Y0374705D02*
X0236713D01*
X0241043Y0372835D02*
Y0376575D01*
X0239173Y0374705D02*
X0242913D01*
X0228839Y0372736D02*
Y0376476D01*
X0226969Y0374606D02*
X0230709D01*
X0223228Y0372835D02*
Y0376575D01*
X0221358Y0374705D02*
X0225098D01*
X0197286Y0437246D02*
X0199958Y0439919D01*
X0197286D02*
X0199958Y0437246D01*
X0187949Y0428205D02*
X0190594Y0430850D01*
X0187949D02*
X0190594Y0428205D01*
X0214835Y0495783D02*
X0217340Y0493277D01*
X0214835Y0493277D02*
X0217340Y0495783D01*
X0532776Y0532382D02*
Y0535925D01*
X0531004Y0534154D02*
X0534547D01*
X0424902Y0527264D02*
Y0531201D01*
X0422933Y0529232D02*
X0426870D01*
X0521283Y0344131D02*
Y0346493D01*
X0520102Y0345312D02*
X0522464D01*
X0475295Y0297933D02*
Y0301673D01*
X0473425Y0299803D02*
X0477165D01*
X0475886Y0320866D02*
Y0324606D01*
X0474016Y0322736D02*
X0477756D01*
X0289102Y0433635D02*
X0291607Y0431129D01*
X0289102D02*
X0291607Y0433635D01*
X0233196Y0444417D02*
X0235702Y0446922D01*
X0233196D02*
X0235702Y0444417D01*
X0237330Y0440480D02*
X0239835Y0442985D01*
X0237330D02*
X0239835Y0440480D01*
X0245302Y0432409D02*
X0247808Y0434914D01*
X0245302D02*
X0247808Y0432409D01*
X0241267Y0436444D02*
X0243772Y0438950D01*
X0241267D02*
X0243772Y0436444D01*
X0555610Y0334744D02*
X0559154D01*
X0557382Y0332972D02*
Y0336516D01*
X0448917Y0327658D02*
Y0331201D01*
X0447146Y0329429D02*
X0450689D01*
X0443405Y0327658D02*
Y0331201D01*
X0441634Y0329429D02*
X0445177D01*
X0210361Y0424141D02*
X0212867Y0426647D01*
X0210361D02*
X0212867Y0424141D01*
X0555610Y0340256D02*
X0559154D01*
X0557382Y0338484D02*
Y0342028D01*
X0206228Y0428275D02*
X0208733Y0430780D01*
X0206228D02*
X0208733Y0428275D01*
X0201109Y0414102D02*
X0203615Y0416607D01*
X0201109D02*
X0203615Y0414102D01*
X0197271Y0418039D02*
X0199776Y0420544D01*
X0197271D02*
X0199776Y0418039D01*
X0221457Y0396555D02*
Y0400098D01*
X0219685Y0398327D02*
X0223228D01*
X0182776Y0313386D02*
X0186319D01*
X0184547Y0311614D02*
Y0315158D01*
X0215846Y0396555D02*
Y0400098D01*
X0214075Y0398327D02*
X0217618D01*
X0262500Y0303346D02*
X0266043D01*
X0264272Y0301575D02*
Y0305118D01*
X0262008Y0295472D02*
Y0299016D01*
X0260236Y0297244D02*
X0263779D01*
X0257480Y0388681D02*
Y0392224D01*
X0255709Y0390453D02*
X0259252D01*
X0251969Y0388681D02*
Y0392224D01*
X0250197Y0390453D02*
X0253740D01*
X0383268Y0335039D02*
X0386811D01*
X0385039Y0333268D02*
Y0336811D01*
X0116240Y0337205D02*
Y0340748D01*
X0114469Y0338976D02*
X0118012D01*
X0361122Y0310236D02*
X0364665D01*
X0362894Y0308465D02*
Y0312008D01*
X0093209Y0364173D02*
X0096752D01*
X0094980Y0362402D02*
Y0365945D01*
X0108760Y0482185D02*
X0112303D01*
X0110531Y0480413D02*
Y0483957D01*
X0108752Y0473024D02*
X0112295D01*
X0110524Y0471252D02*
Y0474795D01*
X0108654Y0464657D02*
X0112197D01*
X0110425Y0462886D02*
Y0466429D01*
X0104429Y0325197D02*
X0107973D01*
X0106201Y0323425D02*
Y0326969D01*
X0399410Y0366831D02*
Y0370374D01*
X0397638Y0368602D02*
X0401181D01*
X0284869Y0429304D02*
X0287375Y0426798D01*
X0284869D02*
X0287375Y0429304D01*
X0270165Y0511720D02*
X0272809Y0514365D01*
X0270165D02*
X0272809Y0511720D01*
X0479859Y0344564D02*
Y0348304D01*
X0477989Y0346434D02*
X0481729D01*
X0473721Y0344587D02*
Y0348327D01*
X0471850Y0346457D02*
X0475591D01*
X0519390Y0329429D02*
Y0333169D01*
X0517520Y0331299D02*
X0521260D01*
X0510630Y0331004D02*
X0514567D01*
X0512598Y0329035D02*
Y0332972D01*
X0502067Y0359842D02*
X0506004D01*
X0504035Y0357874D02*
Y0361811D01*
X0466929Y0328937D02*
X0470866D01*
X0468898Y0326969D02*
Y0330906D01*
X0406693Y0507972D02*
Y0511909D01*
X0404724Y0509941D02*
X0408661D01*
X0551968Y0516437D02*
Y0519980D01*
X0550197Y0518209D02*
X0553740D01*
X0102924Y0397033D02*
Y0400576D01*
X0101152Y0398805D02*
X0104695D01*
X0088652Y0395852D02*
X0092195D01*
X0090424Y0394080D02*
Y0397623D01*
X0114243Y0397033D02*
Y0400576D01*
X0112471Y0398805D02*
X0116014D01*
X0307776Y0340650D02*
X0311319D01*
X0309547Y0338878D02*
Y0342421D01*
X0316142Y0509154D02*
X0319685D01*
X0317913Y0507382D02*
Y0510925D01*
X0200913Y0517198D02*
X0203418Y0514692D01*
X0200913D02*
X0203418Y0517198D01*
X0136614Y0340748D02*
X0140157D01*
X0138386Y0338976D02*
Y0342520D01*
X0485039Y0311811D02*
X0488583D01*
X0486811Y0310039D02*
Y0313583D01*
X0312106Y0377953D02*
Y0381496D01*
X0310335Y0379724D02*
X0313878D01*
X0466634Y0304724D02*
X0470177D01*
X0468405Y0302953D02*
Y0306496D01*
X0458957Y0329232D02*
X0462500D01*
X0460728Y0327461D02*
Y0331004D01*
X0205637Y0456961D02*
X0208142Y0454456D01*
X0205637D02*
X0208142Y0456961D01*
X0209476Y0480123D02*
X0211981Y0482629D01*
X0209476D02*
X0211981Y0480123D01*
X0214278Y0484786D02*
X0216784Y0487292D01*
X0214278D02*
X0216784Y0484786D01*
X0214791Y0420347D02*
X0217296Y0417842D01*
X0214791D02*
X0217296Y0420347D01*
X0297172Y0469461D02*
X0299678Y0466956D01*
X0297172D02*
X0299678Y0469461D01*
X0120247Y0396049D02*
X0123790D01*
X0122018Y0394277D02*
Y0397820D01*
X0166240Y0404626D02*
X0169783D01*
X0168012Y0402854D02*
Y0406398D01*
X0274427Y0418540D02*
X0276933Y0421045D01*
X0274427D02*
X0276933Y0418540D01*
X0236346Y0405485D02*
X0238851Y0402980D01*
X0236346D02*
X0238851Y0405485D01*
X0276503Y0473058D02*
X0279009Y0475564D01*
X0276503D02*
X0279009Y0473058D01*
X0513583Y0320571D02*
Y0324114D01*
X0511811Y0322342D02*
X0515354D01*
X0290650Y0444685D02*
X0294193D01*
X0292421Y0442913D02*
Y0446457D01*
X0258098Y0499875D02*
X0260603Y0497369D01*
X0258098D02*
X0260603Y0499875D01*
X0286444Y0498890D02*
X0288950Y0496385D01*
X0286444D02*
X0288950Y0498890D01*
X0218039Y0469712D02*
X0220544Y0472217D01*
X0218039D02*
X0220544Y0469712D01*
X0213905Y0465873D02*
X0216410Y0468379D01*
X0213905D02*
X0216410Y0465873D01*
X0210066Y0462035D02*
X0212572Y0464540D01*
X0210066D02*
X0212572Y0462035D01*
X0282015Y0503713D02*
X0284521Y0501208D01*
X0282015D02*
X0284521Y0503713D01*
X0348524Y0321555D02*
Y0325098D01*
X0346752Y0323327D02*
X0350295D01*
X0113287Y0350787D02*
Y0354331D01*
X0111516Y0352559D02*
X0115059D01*
X0352264Y0435532D02*
X0355807D01*
X0354035Y0433760D02*
Y0437303D01*
X0484154Y0346358D02*
X0487697D01*
X0485925Y0344587D02*
Y0348130D01*
X0227014Y0495504D02*
X0228685Y0493834D01*
X0227014Y0493834D02*
X0228685Y0495504D01*
X0233900Y0469924D02*
X0236573Y0472596D01*
X0233900Y0472596D02*
X0236573Y0469924D01*
X0200484Y0470463D02*
X0203156Y0467791D01*
X0200484Y0467791D02*
X0203156Y0470463D01*
X0261521Y0518416D02*
X0264193Y0515743D01*
X0261521Y0515743D02*
X0264193Y0518416D01*
X0186754Y0485573D02*
X0189427Y0488246D01*
X0186754D02*
X0189427Y0485573D01*
X0140827Y0308563D02*
X0144606D01*
X0142717Y0306673D02*
Y0310453D01*
X0222212Y0487570D02*
X0223883Y0485900D01*
X0222212Y0485900D02*
X0223883Y0487570D01*
X0357283Y0356398D02*
X0359646D01*
X0358465Y0355217D02*
Y0357579D01*
X0523425Y0333563D02*
X0527362D01*
X0525394Y0331594D02*
Y0335531D01*
X0176083Y0312992D02*
Y0315158D01*
X0175000Y0314075D02*
X0177165D01*
X0449508Y0500689D02*
Y0506595D01*
X0437106Y0500689D02*
Y0506595D01*
X0449508D01*
X0437106Y0500689D02*
X0449508D01*
X0441339Y0503642D02*
X0445276D01*
X0443307Y0501673D02*
Y0505610D01*
X0103347Y0467224D02*
X0105512D01*
X0104429Y0466142D02*
Y0468307D01*
X0093307Y0467126D02*
X0095472D01*
X0094390Y0466043D02*
Y0468209D01*
X0432382Y0472933D02*
X0436319D01*
X0434350Y0470965D02*
Y0474902D01*
X0401476Y0503150D02*
X0405413D01*
X0403445Y0501181D02*
Y0505118D01*
X0338287Y0356299D02*
X0342224Y0356299D01*
X0340256Y0354331D02*
Y0358268D01*
X0336024Y0363779D02*
Y0367323D01*
X0334252Y0365551D02*
X0337795D01*
X0346358Y0363779D02*
Y0367323D01*
X0344587Y0365551D02*
X0348130D01*
X0331594Y0343799D02*
X0335531Y0343799D01*
X0333563Y0341831D02*
X0333563Y0345768D01*
X0344980Y0343799D02*
X0348917D01*
X0346949Y0341831D02*
Y0345768D01*
X0325689Y0340748D02*
Y0346654D01*
X0313287Y0340748D02*
Y0346654D01*
Y0340748D02*
X0325689D01*
X0313287Y0346654D02*
X0325689D01*
X0317520Y0343701D02*
X0321457D01*
X0319488Y0341732D02*
Y0345669D01*
X0322146Y0363779D02*
X0325886D01*
X0324016Y0361909D02*
Y0365650D01*
Y0351083D02*
Y0355020D01*
X0322047Y0353051D02*
X0325984Y0353051D01*
X0363484Y0345473D02*
Y0349410D01*
X0361516Y0347441D02*
X0365453D01*
X0368209Y0354921D02*
Y0358465D01*
X0366437Y0356693D02*
X0369980Y0356693D01*
X0492181Y0431791D02*
X0496118Y0431791D01*
X0494150Y0429823D02*
X0494150Y0433760D01*
X0549902Y0528346D02*
X0549902Y0524803D01*
X0548130Y0526575D02*
X0551673D01*
X0484744Y0322539D02*
Y0326476D01*
X0482776Y0324508D02*
X0486713D01*
X0512106Y0308071D02*
X0516043D01*
X0514075Y0306102D02*
Y0310039D01*
X0525000Y0308071D02*
X0528937D01*
X0526968Y0306102D02*
Y0310039D01*
X0525030Y0300970D02*
X0528967D01*
X0526999Y0299001D02*
Y0302938D01*
X0512106Y0300984D02*
X0516043D01*
X0514075Y0299016D02*
Y0302953D01*
X0506102Y0321752D02*
Y0327658D01*
X0493701Y0321752D02*
Y0327658D01*
Y0321752D02*
X0506102D01*
X0493701Y0327658D02*
X0506102D01*
X0497933Y0324705D02*
X0501870D01*
X0499902Y0322736D02*
Y0326673D01*
X0489567Y0299114D02*
Y0303051D01*
X0487598Y0301083D02*
X0491535D01*
X0489532Y0306215D02*
Y0310152D01*
X0487564Y0308184D02*
X0491501D01*
X0537992Y0345768D02*
X0541535D01*
X0539764Y0343996D02*
Y0347539D01*
X0484449Y0295276D02*
Y0299213D01*
X0482480Y0297244D02*
X0486417D01*
X0482480Y0300787D02*
Y0304331D01*
X0480709Y0302559D02*
X0484252D01*
X0113189Y0536516D02*
X0117126D01*
X0115157Y0534547D02*
Y0538484D01*
X0338189Y0472736D02*
X0342126Y0472736D01*
X0340158Y0470768D02*
X0340158Y0474705D01*
X0530315Y0496654D02*
X0534252D01*
X0532283Y0494685D02*
Y0498622D01*
X0459055Y0441831D02*
X0462992D01*
X0461024Y0439862D02*
Y0443799D01*
X0245806Y0453537D02*
X0248589Y0450753D01*
X0245806D02*
X0248589Y0453537D01*
X0406595Y0486516D02*
Y0490453D01*
X0404626Y0488484D02*
X0408563D01*
X0359350Y0527165D02*
X0362894D01*
X0361122Y0525394D02*
Y0528937D01*
X0359449Y0521752D02*
X0362992D01*
X0361221Y0519980D02*
Y0523524D01*
X0576968Y0486221D02*
X0576968Y0482283D01*
X0575000Y0484252D02*
X0578937Y0484252D01*
X0489764Y0503839D02*
X0495669D01*
X0489764Y0491437D02*
X0495669D01*
X0489764D02*
Y0503839D01*
X0495669Y0491437D02*
Y0503839D01*
X0492717Y0495669D02*
Y0499606D01*
X0490748Y0497638D02*
X0494685D01*
X0451279Y0453445D02*
Y0459350D01*
X0438878Y0453445D02*
Y0459350D01*
X0451279D01*
X0438878Y0453445D02*
X0451279D01*
X0443110Y0456398D02*
X0447047D01*
X0445079Y0454429D02*
Y0458366D01*
X0489468Y0408366D02*
X0495374D01*
X0489468Y0395965D02*
X0495374D01*
X0489468D02*
Y0408366D01*
X0495374Y0395965D02*
Y0408366D01*
X0492421Y0400197D02*
Y0404134D01*
X0490453Y0402165D02*
X0494390D01*
X0501279Y0304331D02*
Y0308268D01*
X0499311Y0306299D02*
X0503248D01*
X0483465Y0316142D02*
X0487205D01*
X0485335Y0314272D02*
Y0318012D01*
X0192842Y0449830D02*
X0195347Y0452335D01*
X0192842D02*
X0195347Y0449830D01*
X0220007Y0436390D02*
X0222513Y0433885D01*
X0220007D02*
X0222513Y0436390D01*
X0130413Y0489370D02*
Y0492913D01*
X0128642Y0491142D02*
X0132185D01*
X0143701Y0502362D02*
X0147638D01*
X0145669Y0500394D02*
Y0504331D01*
X0130512Y0500492D02*
Y0504429D01*
X0128543Y0502461D02*
X0132480D01*
X0118701Y0504724D02*
X0118701Y0500787D01*
X0116732Y0502756D02*
X0120669D01*
X0115059Y0519193D02*
Y0522933D01*
X0113189Y0521063D02*
X0116929D01*
X0174803Y0355315D02*
X0174803Y0351378D01*
X0172835Y0353346D02*
X0176772D01*
X0569882Y0385020D02*
Y0388799D01*
X0567992Y0386910D02*
X0571772D01*
X0465748Y0315650D02*
X0469685D01*
X0467717Y0313681D02*
Y0317618D01*
X0464764Y0309449D02*
Y0321850D01*
X0470669Y0309449D02*
Y0321850D01*
X0464764Y0309449D02*
X0470669D01*
X0464764Y0321850D02*
X0470669D01*
X0118307Y0323327D02*
Y0327264D01*
X0116339Y0325295D02*
X0120276D01*
X0173031Y0334646D02*
X0175394D01*
X0174213Y0333465D02*
Y0335827D01*
X0184646Y0316831D02*
Y0320374D01*
X0182874Y0318602D02*
X0186417D01*
X0184646Y0323130D02*
Y0326673D01*
X0182874Y0324902D02*
X0186417D01*
X0184449Y0328642D02*
Y0332185D01*
X0182677Y0330413D02*
X0186221D01*
X0179823Y0343602D02*
X0183366D01*
X0181595Y0341831D02*
Y0345374D01*
X0210165Y0425072D02*
X0212670Y0422566D01*
X0210165D02*
X0212670Y0425072D01*
X0126961Y0475386D02*
X0130898D01*
X0128929Y0477354D02*
X0128929Y0473417D01*
X0103681Y0479921D02*
Y0485039D01*
X0091673Y0479921D02*
Y0485039D01*
Y0479921D02*
X0103681D01*
X0091673Y0485039D02*
X0103681Y0485039D01*
X0095906Y0482480D02*
X0099449D01*
X0097677Y0480709D02*
Y0484252D01*
X0393504Y0524508D02*
X0393504Y0528445D01*
X0391535Y0526476D02*
X0395473Y0526476D01*
X0406594Y0514567D02*
X0406594Y0516535D01*
X0405610Y0515551D02*
X0407579Y0515551D01*
X0390354Y0506299D02*
X0394094Y0506299D01*
X0392224Y0504429D02*
X0392224Y0508169D01*
X0404626Y0499606D02*
X0408563Y0499606D01*
X0406595Y0497638D02*
X0406595Y0501575D01*
X0475591Y0399114D02*
X0479528Y0399114D01*
X0477559Y0397146D02*
Y0401083D01*
X0474606Y0438681D02*
X0478543Y0438681D01*
X0476575Y0436713D02*
X0476575Y0440650D01*
X0492421Y0416831D02*
X0492421Y0412894D01*
X0490453Y0414862D02*
X0494390D01*
X0223189Y0353346D02*
Y0357283D01*
X0221220Y0355315D02*
X0225157D01*
X0132972Y0537205D02*
X0136909D01*
X0134941Y0535236D02*
Y0539173D01*
X0241070Y0482158D02*
X0243576Y0479653D01*
X0241070Y0479653D02*
X0243576Y0482158D01*
X0274427Y0492466D02*
X0276097Y0490796D01*
X0274427Y0490796D02*
X0276097Y0492466D01*
X0292157Y0485273D02*
X0293688Y0483742D01*
X0292157D02*
X0293688Y0485273D01*
X0415846Y0313189D02*
X0419783D01*
X0417815Y0311221D02*
Y0315158D01*
X0415846Y0313189D02*
X0419783D01*
X0417815Y0311221D02*
Y0315158D01*
X0278255Y0485715D02*
X0281039Y0488499D01*
X0278255D02*
X0281039Y0485715D01*
X0288747Y0474207D02*
X0291531Y0476991D01*
X0288747D02*
X0291531Y0474207D01*
X0402067Y0446063D02*
X0406004D01*
X0404035Y0444095D02*
Y0448032D01*
X0493799Y0488878D02*
X0493799Y0492815D01*
X0491831Y0490846D02*
X0495768Y0490846D01*
X0562992Y0372146D02*
X0569685D01*
X0562992Y0384744D02*
X0569685D01*
X0562992Y0372146D02*
Y0384744D01*
X0569685Y0372146D02*
Y0384744D01*
X0539787Y0331336D02*
Y0334879D01*
X0538015Y0333107D02*
X0541558D01*
X0517936Y0370214D02*
Y0374151D01*
X0515968Y0372182D02*
X0519905D01*
X0468035Y0377103D02*
X0471972D01*
X0470003Y0375135D02*
Y0379072D01*
X0497146Y0356299D02*
Y0360236D01*
X0495177Y0358268D02*
X0499114D01*
X0536319Y0377854D02*
X0540256D01*
X0538287Y0375886D02*
Y0379823D01*
X0353997Y0443520D02*
X0353997Y0426946D01*
X0333501D02*
X0353997D01*
X0333501D02*
Y0443520D01*
X0353997D01*
X0358563Y0376969D02*
Y0380906D01*
X0356594Y0378937D02*
X0360531D01*
X0361516Y0432185D02*
Y0436122D01*
X0359547Y0434154D02*
X0363484D01*
X0118770Y0411206D02*
Y0414749D01*
X0116999Y0412978D02*
X0120542D01*
X0089931Y0402643D02*
X0124774D01*
X0089931D02*
Y0423903D01*
X0124774D01*
Y0402643D02*
Y0423903D01*
X0167717Y0300295D02*
Y0304232D01*
X0165748Y0302264D02*
X0169685D01*
X0346654Y0313878D02*
X0350591D01*
X0348622Y0311910D02*
Y0315846D01*
X0191522Y0480793D02*
X0194305Y0483577D01*
X0191522Y0483577D02*
X0194305Y0480793D01*
X0199802Y0475599D02*
X0203699Y0479497D01*
X0208154Y0467248D02*
X0212051Y0471145D01*
X0203699Y0479497D02*
X0212051Y0471145D01*
X0199802Y0475599D02*
X0208154Y0467248D01*
X0195765Y0476295D02*
X0198549Y0479079D01*
X0195765D02*
X0198549Y0476295D01*
X0108581Y0384238D02*
Y0388175D01*
X0106612Y0386206D02*
X0110549D01*
X0093081Y0386009D02*
Y0389946D01*
X0091113Y0387978D02*
X0095050D01*
X0275732Y0509076D02*
X0278516Y0506292D01*
X0275732D02*
X0278516Y0509076D01*
X0159646Y0320374D02*
X0159646Y0324311D01*
X0157677Y0322342D02*
X0161614D01*
X0138681Y0331004D02*
Y0334941D01*
X0136713Y0332972D02*
X0140650D01*
X0157480Y0340256D02*
X0159646D01*
X0158563Y0339173D02*
Y0341338D01*
X0141437Y0313287D02*
Y0315453D01*
X0140354Y0314370D02*
X0142520D01*
X0176083Y0316929D02*
Y0319291D01*
X0174902Y0318110D02*
X0177264D01*
X0151083Y0300098D02*
X0153248D01*
X0152165Y0299016D02*
Y0301181D01*
X0396260Y0386614D02*
X0400197D01*
X0398228Y0384646D02*
Y0388583D01*
X0125886Y0325394D02*
X0129429D01*
X0127657Y0323622D02*
Y0327165D01*
X0100492Y0322736D02*
Y0327854D01*
X0088484Y0322736D02*
Y0327854D01*
Y0322736D02*
X0100492D01*
X0088484Y0327854D02*
X0100492Y0327854D01*
X0092716Y0325295D02*
X0096260D01*
X0094488Y0323524D02*
Y0327067D01*
X0166732Y0537008D02*
X0170669D01*
X0168701Y0535039D02*
Y0538976D01*
X0528445Y0375669D02*
Y0379449D01*
X0526555Y0377559D02*
X0530335D01*
X0393406Y0330709D02*
Y0334252D01*
X0391634Y0332480D02*
X0395177D01*
X0406201Y0388386D02*
X0409744D01*
X0407972Y0386614D02*
Y0390158D01*
X0138779Y0460138D02*
Y0463681D01*
X0137008Y0461909D02*
X0140551Y0461909D01*
X0138976Y0476968D02*
X0138976Y0473425D01*
X0137205Y0475197D02*
X0140748D01*
X0128929Y0460032D02*
Y0463969D01*
X0126961Y0462000D02*
X0130898Y0462000D01*
X0484646Y0317126D02*
Y0320669D01*
X0482874Y0318898D02*
X0486417D01*
X0158465Y0304035D02*
Y0306398D01*
X0157283Y0305217D02*
X0159646D01*
X0136811Y0342913D02*
X0138976D01*
X0137894Y0341831D02*
Y0343996D01*
X0140453Y0323327D02*
X0142618D01*
X0141535Y0322244D02*
Y0324409D01*
X0140256Y0318307D02*
X0142618D01*
X0141437Y0317126D02*
Y0319488D01*
X0268077Y0485830D02*
X0269747Y0484160D01*
X0268077Y0484160D02*
X0269747Y0485830D01*
X0262579Y0491328D02*
X0264249Y0489658D01*
X0262579Y0489658D02*
X0264249Y0491328D01*
X0244831Y0512625D02*
X0247476Y0509980D01*
X0244831Y0509980D02*
X0247476Y0512625D01*
X0233626Y0500446D02*
X0235157Y0501977D01*
X0233626Y0501977D02*
X0235157Y0500446D01*
X0230842Y0499332D02*
X0232513Y0497662D01*
X0230842Y0497662D02*
X0232512Y0499332D01*
X0186951Y0463231D02*
X0189624Y0465903D01*
X0186951D02*
X0189624Y0463231D01*
X0197575Y0460497D02*
X0200359Y0457713D01*
X0197575D02*
X0200359Y0460497D01*
X0186986Y0471026D02*
X0190883Y0474924D01*
X0195337Y0462675D02*
X0199235Y0466572D01*
X0190883Y0474924D02*
X0199235Y0466572D01*
X0186986Y0471026D02*
X0195337Y0462675D01*
X0182565Y0472230D02*
X0185349Y0475014D01*
X0182565D02*
X0185349Y0472230D01*
X0178234Y0476659D02*
X0181018Y0479443D01*
X0178234D02*
X0181018Y0476659D01*
X0205932Y0426602D02*
X0208438Y0429107D01*
X0205932D02*
X0208438Y0426602D01*
X0216070Y0440032D02*
X0218576Y0437527D01*
X0216070D02*
X0218576Y0440032D01*
X0371161Y0311122D02*
Y0314665D01*
X0369390Y0312894D02*
X0372933D01*
X0113189Y0359646D02*
Y0363583D01*
X0111221Y0361614D02*
X0115157D01*
X0253051Y0398622D02*
X0256594D01*
X0254823Y0396850D02*
Y0400394D01*
X0110827Y0337008D02*
Y0340551D01*
X0109055Y0338779D02*
X0112598D01*
X0093209Y0358465D02*
X0096752D01*
X0094980Y0356693D02*
Y0360236D01*
X0525295Y0344193D02*
Y0346358D01*
X0524213Y0345276D02*
X0526378D01*
X0504528Y0331594D02*
X0506693D01*
X0505610Y0330512D02*
Y0332677D01*
X0521184Y0352300D02*
Y0354466D01*
X0520101Y0353383D02*
X0522267D01*
X0524114Y0353346D02*
X0526476D01*
X0525295Y0352165D02*
Y0354528D01*
X0532306Y0333107D02*
X0535850D01*
X0534078Y0331336D02*
Y0334879D01*
X0502582Y0375726D02*
Y0379662D01*
X0500613Y0377694D02*
X0504550D01*
X0487106Y0336221D02*
Y0339961D01*
X0485236Y0338090D02*
X0488976D01*
X0501968Y0330512D02*
Y0332874D01*
X0500787Y0331693D02*
X0503150D01*
X0496850D02*
X0499016D01*
X0497933Y0330610D02*
Y0332776D01*
X0494783Y0339370D02*
X0497146D01*
X0495965Y0338189D02*
Y0340551D01*
X0495200Y0346985D02*
X0498743D01*
X0496972Y0345214D02*
Y0348757D01*
X0489787Y0346985D02*
X0493330D01*
X0491558Y0345214D02*
Y0348757D01*
X0549311Y0377756D02*
X0553248D01*
X0551279Y0375787D02*
Y0379724D01*
X0559941Y0376260D02*
Y0380039D01*
X0558051Y0378150D02*
X0561831D01*
X0411024Y0378937D02*
Y0382874D01*
X0409055Y0380906D02*
X0412992D01*
X0404823Y0383858D02*
X0417224D01*
X0404823Y0377953D02*
X0417224D01*
X0404823D02*
Y0383858D01*
X0417224Y0377953D02*
Y0383858D01*
X0435335Y0386417D02*
X0439272D01*
X0437303Y0384449D02*
Y0388386D01*
X0422047Y0386417D02*
X0425984D01*
X0424016Y0384449D02*
Y0388386D01*
X0141929Y0299803D02*
X0144095D01*
X0143012Y0298721D02*
Y0300886D01*
X0092687Y0402053D02*
X0098593Y0402053D01*
X0092687Y0389651D02*
X0098593Y0389651D01*
Y0402053D01*
X0092687Y0389651D02*
Y0402053D01*
X0095640Y0393883D02*
Y0397820D01*
X0093672Y0395852D02*
X0097609Y0395852D01*
X0116900Y0407466D02*
X0120640D01*
X0118770Y0405596D02*
Y0409336D01*
Y0416718D02*
X0118770Y0420458D01*
X0116900Y0418588D02*
X0120640Y0418588D01*
X0265641Y0520142D02*
X0268425Y0522926D01*
X0265641Y0522926D02*
X0268425Y0520142D01*
X0250121Y0507753D02*
X0252626Y0505248D01*
X0250121Y0505248D02*
X0252626Y0507753D01*
X0204415Y0494277D02*
X0207199Y0497061D01*
X0204415Y0497061D02*
X0207199Y0494277D01*
X0283196Y0481748D02*
X0284866Y0483418D01*
X0283196Y0483418D02*
X0284866Y0481748D01*
X0298282Y0477479D02*
X0299813Y0479010D01*
X0298282Y0479010D02*
X0299813Y0477479D01*
X0254161Y0503615D02*
X0256666Y0501110D01*
X0254161D02*
X0256666Y0503615D01*
X0327362Y0504823D02*
Y0508760D01*
X0325394Y0506791D02*
X0329331Y0506791D01*
X0321161Y0509744D02*
X0333563D01*
X0321161Y0503839D02*
X0333563Y0503839D01*
X0321161Y0503839D02*
X0321161Y0509744D01*
X0333563Y0503839D02*
X0333563Y0509744D01*
X0335827Y0510532D02*
X0339764D01*
X0337795Y0512500D02*
X0337795Y0508563D01*
X0361909Y0510532D02*
X0365846D01*
X0363878Y0512500D02*
X0363878Y0508563D01*
X0425197Y0521555D02*
Y0525295D01*
X0423327Y0523425D02*
X0427067Y0523425D01*
X0414075Y0522736D02*
X0417815Y0522736D01*
X0415945Y0520866D02*
X0415945Y0524606D01*
X0404528Y0524606D02*
X0408465Y0524606D01*
X0406496Y0522638D02*
X0406496Y0526575D01*
X0392224Y0498819D02*
X0392224Y0494882D01*
X0390256Y0496850D02*
X0394193Y0496850D01*
X0331926Y0437083D02*
X0334288D01*
X0333107Y0435902D02*
X0333107Y0438265D01*
X0345177Y0447736D02*
X0347342D01*
X0346260Y0446654D02*
Y0448819D01*
X0345177Y0444291D02*
X0347342D01*
X0346260Y0443209D02*
X0346260Y0445374D01*
X0338619Y0444367D02*
X0338619Y0446532D01*
X0337537Y0445450D02*
X0339702Y0445450D01*
X0335174Y0444367D02*
Y0446532D01*
X0334092Y0445450D02*
X0336257Y0445450D01*
X0326119Y0431178D02*
X0328285D01*
X0327202Y0432261D02*
X0327202Y0430095D01*
X0341080Y0426257D02*
Y0428619D01*
X0339899Y0427438D02*
X0342261D01*
X0330351Y0445450D02*
X0332714Y0445450D01*
X0331533Y0446631D02*
X0331533Y0444269D01*
X0327300Y0434032D02*
X0327300Y0436395D01*
X0326119Y0435213D02*
X0328481Y0435213D01*
X0326218Y0439150D02*
X0328383Y0439150D01*
X0327300Y0438068D02*
X0327300Y0440233D01*
X0473720Y0454626D02*
X0473721Y0458563D01*
X0471752Y0456595D02*
X0475689Y0456595D01*
X0493799Y0447736D02*
X0497736D01*
X0495768Y0449705D02*
X0495768Y0445768D01*
X0475197Y0408366D02*
X0479134D01*
X0477165Y0406398D02*
X0477165Y0410335D01*
X0476181Y0492913D02*
X0476181Y0496850D01*
X0474213Y0494882D02*
X0478150Y0494882D01*
X0474213Y0485925D02*
X0478150Y0485925D01*
X0476181Y0487894D02*
X0476181Y0483957D01*
X0456843Y0454041D02*
X0460780Y0454041D01*
X0458812Y0452072D02*
X0458812Y0456009D01*
X0474705Y0449114D02*
X0478642D01*
X0476673Y0451083D02*
X0476673Y0447146D01*
X0443387Y0447713D02*
X0446931D01*
X0445159Y0449485D02*
X0445159Y0445941D01*
X0443387Y0442398D02*
X0446931D01*
X0445159Y0440626D02*
X0445159Y0444170D01*
X0454429Y0500591D02*
X0458366Y0500591D01*
X0456398Y0502559D02*
X0456398Y0498622D01*
X0443307Y0486221D02*
X0443307Y0489764D01*
X0441535Y0487992D02*
X0445079Y0487992D01*
X0441437Y0494095D02*
X0444980D01*
X0443209Y0492323D02*
Y0495866D01*
X0445284Y0505138D02*
X0445284Y0501201D01*
X0443315Y0503169D02*
X0447252Y0503169D01*
X0459055Y0501575D02*
X0462992D01*
X0461024Y0499606D02*
Y0503543D01*
X0476673Y0519980D02*
X0480610Y0519980D01*
X0478642Y0518012D02*
X0478642Y0521949D01*
X0445283Y0444508D02*
X0445283Y0440571D01*
X0443315Y0442539D02*
X0447252Y0442539D01*
X0476870Y0425689D02*
X0480807Y0425689D01*
X0478838Y0427658D02*
X0478838Y0423720D01*
X0493701Y0452854D02*
X0493701Y0456791D01*
X0491732Y0454823D02*
X0495669Y0454823D01*
X0404460Y0472835D02*
X0408397D01*
X0406428Y0470866D02*
Y0474803D01*
X0547835Y0482283D02*
X0547835Y0486221D01*
X0545866Y0484252D02*
X0549803Y0484252D01*
X0562402Y0486221D02*
X0562402Y0482283D01*
X0560433Y0484252D02*
X0564370Y0484252D01*
X0403543Y0480905D02*
X0403543Y0477362D01*
X0401772Y0479134D02*
X0405315Y0479134D01*
X0409252Y0477362D02*
X0409252Y0480905D01*
X0407480Y0479134D02*
X0411024Y0479134D01*
X0499176Y0398906D02*
Y0402450D01*
X0497405Y0400678D02*
X0500948Y0400678D01*
X0505082Y0398906D02*
Y0402450D01*
X0503310Y0400678D02*
X0506853Y0400678D01*
X0491437Y0433169D02*
Y0437106D01*
X0489468Y0435138D02*
X0493406Y0435138D01*
X0498979Y0435127D02*
X0502916Y0435127D01*
X0500948Y0433158D02*
X0500948Y0437095D01*
X0500197Y0498819D02*
X0500197Y0495276D01*
X0498425Y0497047D02*
X0501968Y0497047D01*
X0490650Y0510532D02*
X0494587Y0510532D01*
X0492618Y0508563D02*
Y0512500D01*
X0505709Y0495276D02*
X0505709Y0498819D01*
X0503937Y0497047D02*
X0507480D01*
X0507087Y0530905D02*
X0507087Y0526968D01*
X0505118Y0528937D02*
X0509055Y0528937D01*
X0495571Y0529036D02*
X0499508Y0529035D01*
X0497539Y0527067D02*
X0497539Y0531004D01*
X0489272Y0522244D02*
X0489272Y0526181D01*
X0487303Y0524213D02*
X0491240Y0524213D01*
X0393602Y0366634D02*
Y0370571D01*
X0391634Y0368602D02*
X0395571D01*
X0178078Y0432015D02*
X0180584Y0434520D01*
X0178078D02*
X0180584Y0432015D01*
X0175224Y0437527D02*
X0177729Y0440032D01*
X0175224D02*
X0177729Y0437527D01*
X0490748Y0480905D02*
X0494685D01*
X0492717Y0482874D02*
X0492717Y0478937D01*
X0092618Y0535728D02*
X0096555D01*
X0094587Y0533760D02*
Y0537697D01*
X0092618Y0535728D02*
X0096555D01*
X0094587Y0533760D02*
Y0537697D01*
X0138091Y0351083D02*
X0142028D01*
X0140059Y0349114D02*
Y0353051D01*
X0138091Y0351083D02*
X0142028D01*
X0140059Y0349114D02*
Y0353051D01*
X0430905Y0501968D02*
X0430905Y0496063D01*
X0418504Y0501968D02*
X0418504Y0496063D01*
X0418504Y0501968D02*
X0430905Y0501968D01*
X0418504Y0496063D02*
X0430905Y0496063D01*
X0422736Y0499016D02*
X0426673Y0499016D01*
X0424705Y0500984D02*
X0424705Y0497047D01*
X0103535Y0475652D02*
X0103535Y0470534D01*
X0091528D02*
Y0475652D01*
Y0470534D02*
X0103535D01*
X0091528Y0475652D02*
X0103535Y0475652D01*
X0095760Y0473093D02*
X0099303D01*
X0097531Y0471321D02*
Y0474865D01*
X0103634Y0462266D02*
Y0467384D01*
X0091626Y0462266D02*
Y0467384D01*
Y0462266D02*
X0103634D01*
X0091626Y0467384D02*
X0103634D01*
X0095858Y0464825D02*
X0099402Y0464825D01*
X0097630Y0463054D02*
X0097630Y0466597D01*
X0168701Y0518386D02*
Y0522323D01*
X0166732Y0520354D02*
X0170669D01*
X0152264Y0518386D02*
Y0522323D01*
X0150295Y0520354D02*
X0154232D01*
X0134941Y0522342D02*
X0134941Y0518405D01*
X0132972Y0520374D02*
X0136909Y0520374D01*
X0152264Y0535138D02*
Y0539075D01*
X0150295Y0537106D02*
X0154232D01*
X0476968Y0477658D02*
X0476968Y0473721D01*
X0475000Y0475689D02*
X0478937Y0475689D01*
X0503543Y0478248D02*
X0503543Y0482185D01*
X0501575Y0480217D02*
X0505512Y0480217D01*
D369*
X0423209Y0313189D02*
G03*
X0423209Y0313189I-0005394J0000000D01*
G01*
X0099980Y0535728D02*
G03*
X0099980Y0535728I-0005394J0000000D01*
G01*
X0145453Y0351083D02*
G03*
X0145453Y0351083I-0005394J0000000D01*
G01*
X0164665Y0347638D02*
Y0357874D01*
X0159153Y0347638D02*
Y0357874D01*
X0164665D01*
X0159153Y0347638D02*
X0164665D01*
X0364764Y0383366D02*
X0364764Y0424311D01*
X0330512Y0383366D02*
X0364764Y0383366D01*
X0330512Y0383366D02*
Y0424311D01*
X0364764Y0424311D01*
X0293448Y0505416D02*
X0297345Y0501519D01*
X0300686Y0512654D02*
X0304584Y0508757D01*
X0293448Y0505416D02*
X0300686Y0512654D01*
X0297345Y0501519D02*
X0304584Y0508757D01*
X0288035Y0510633D02*
X0291932Y0506735D01*
X0295273Y0517871D02*
X0299170Y0513974D01*
X0288035Y0510633D02*
X0295273Y0517871D01*
X0291932Y0506735D02*
X0299170Y0513974D01*
X0281102Y0399213D02*
X0286614D01*
X0281102Y0409449D02*
X0286614D01*
X0281102Y0399213D02*
Y0409449D01*
X0286614Y0399213D02*
Y0409449D01*
X0192464Y0445279D02*
X0196361Y0441381D01*
X0199702Y0452517D02*
X0203599Y0448619D01*
X0196361Y0441381D02*
X0203599Y0448619D01*
X0192464Y0445279D02*
X0199702Y0452517D01*
X0345276Y0524606D02*
X0355906D01*
X0345276Y0518701D02*
X0355906D01*
X0345276D02*
X0345276Y0524606D01*
X0355906D02*
X0355906Y0518701D01*
X0179528Y0305217D02*
Y0310728D01*
X0189764Y0305217D02*
Y0310728D01*
X0179528D02*
X0189764D01*
X0179528Y0305217D02*
X0189764D01*
X0164567Y0347638D02*
X0170079D01*
X0164567Y0357874D02*
X0170079D01*
X0164567Y0347638D02*
Y0357874D01*
X0170079Y0347638D02*
Y0357874D01*
X0179429Y0333465D02*
Y0338976D01*
X0189665Y0333465D02*
Y0338976D01*
X0179429D02*
X0189665D01*
X0179429Y0333465D02*
X0189665D01*
X0263839Y0501966D02*
X0268015Y0506141D01*
X0271355Y0494449D02*
X0275531Y0498625D01*
X0268015Y0506141D02*
X0275531Y0498625D01*
X0263839Y0501966D02*
X0271355Y0494449D01*
X0231890Y0369390D02*
X0237795Y0369390D01*
X0231890Y0380020D02*
X0237795Y0380020D01*
X0231890Y0369390D02*
Y0380020D01*
X0237795Y0369390D02*
Y0380020D01*
X0238090Y0369390D02*
X0243996Y0369390D01*
X0238090Y0380020D02*
X0243996Y0380020D01*
X0238090Y0369390D02*
Y0380020D01*
X0243996Y0369390D02*
Y0380020D01*
X0225886Y0369291D02*
X0231791Y0369291D01*
X0225886Y0379921D02*
X0231791Y0379921D01*
X0225886Y0369291D02*
Y0379921D01*
X0231791Y0369291D02*
Y0379921D01*
X0220276Y0369390D02*
X0226181Y0369390D01*
X0220276Y0380020D02*
X0226181Y0380020D01*
X0220276Y0369390D02*
Y0380020D01*
X0226181Y0369390D02*
Y0380020D01*
X0192358Y0436495D02*
X0196534Y0432319D01*
X0200710Y0444846D02*
X0204886Y0440671D01*
X0192358Y0436495D02*
X0200710Y0444846D01*
X0196534Y0432319D02*
X0204886Y0440671D01*
X0181616Y0427718D02*
X0187462Y0421872D01*
X0191081Y0437183D02*
X0196927Y0431337D01*
X0181616Y0427718D02*
X0191081Y0437183D01*
X0187462Y0421872D02*
X0196927Y0431337D01*
X0210241Y0496200D02*
X0214417Y0500376D01*
X0217758Y0488684D02*
X0221934Y0492860D01*
X0214417Y0500376D02*
X0221934Y0492860D01*
X0210241Y0496200D02*
X0217758Y0488684D01*
X0527461Y0537106D02*
X0538091D01*
X0527461Y0531201D02*
X0538091D01*
X0538091Y0537106D02*
X0538091Y0531201D01*
X0527461D02*
X0527461Y0537106D01*
X0419587Y0532185D02*
X0430217Y0532185D01*
X0419587Y0526279D02*
X0430217D01*
X0430217Y0532185D01*
X0419587Y0526279D02*
Y0532185D01*
X0519314Y0349052D02*
X0523251Y0349052D01*
X0519314Y0341572D02*
X0523251D01*
Y0349052D01*
X0519314Y0341572D02*
Y0349052D01*
X0472342Y0294488D02*
X0478248D01*
X0472342Y0305118D02*
X0478248D01*
X0472342Y0294488D02*
Y0305118D01*
X0478248Y0294488D02*
Y0305118D01*
X0472933Y0317421D02*
X0478839D01*
X0472933Y0328051D02*
X0478839D01*
X0472933Y0317421D02*
Y0328051D01*
X0478839Y0317421D02*
Y0328051D01*
X0292025Y0426814D02*
X0295922Y0430712D01*
X0284787Y0434052D02*
X0288684Y0437950D01*
X0284787Y0434052D02*
X0292025Y0426814D01*
X0288684Y0437950D02*
X0295922Y0430712D01*
X0228881Y0443999D02*
X0232779Y0440101D01*
X0236119Y0451237D02*
X0240017Y0447340D01*
X0232779Y0440101D02*
X0240017Y0447340D01*
X0228881Y0443999D02*
X0236119Y0451237D01*
X0233015Y0440062D02*
X0236912Y0436165D01*
X0240253Y0447300D02*
X0244150Y0443403D01*
X0236912Y0436165D02*
X0244150Y0443403D01*
X0233015Y0440062D02*
X0240253Y0447300D01*
X0240987Y0431991D02*
X0244885Y0428094D01*
X0248225Y0439229D02*
X0252123Y0435332D01*
X0244885Y0428094D02*
X0252123Y0435332D01*
X0240987Y0431991D02*
X0248225Y0439229D01*
X0236952Y0436026D02*
X0240849Y0432129D01*
X0244190Y0443265D02*
X0248088Y0439367D01*
X0240849Y0432129D02*
X0248088Y0439367D01*
X0236952Y0436026D02*
X0244190Y0443265D01*
X0552264Y0331988D02*
Y0337500D01*
X0562500Y0331988D02*
Y0337500D01*
X0552264D02*
X0562500D01*
X0552264Y0331988D02*
X0562500D01*
X0446161Y0324311D02*
X0451673D01*
X0446161Y0334547D02*
X0451673D01*
X0446161Y0324311D02*
Y0334547D01*
X0451673Y0324311D02*
Y0334547D01*
X0440650Y0324311D02*
X0446161D01*
X0440650Y0334547D02*
X0446161D01*
X0440650Y0324311D02*
Y0334547D01*
X0446161Y0324311D02*
Y0334547D01*
X0213284Y0430962D02*
X0217182Y0427064D01*
X0206046Y0423723D02*
X0209944Y0419826D01*
X0206046Y0423723D02*
X0213284Y0430962D01*
X0209944Y0419826D02*
X0217182Y0427064D01*
X0562500Y0337500D02*
Y0343012D01*
X0552264Y0337500D02*
Y0343012D01*
Y0337500D02*
X0562500D01*
X0552264Y0343012D02*
X0562500D01*
X0209151Y0435095D02*
X0213048Y0431198D01*
X0201912Y0427857D02*
X0205810Y0423960D01*
X0201912Y0427857D02*
X0209151Y0435095D01*
X0205810Y0423960D02*
X0213048Y0431198D01*
X0196794Y0413684D02*
X0200692Y0409787D01*
X0204032Y0420922D02*
X0207930Y0417025D01*
X0196794Y0413684D02*
X0204032Y0420922D01*
X0200692Y0409787D02*
X0207930Y0417025D01*
X0192956Y0417621D02*
X0196853Y0413724D01*
X0200194Y0424859D02*
X0204091Y0420962D01*
X0192956Y0417621D02*
X0200194Y0424859D01*
X0196853Y0413724D02*
X0204091Y0420962D01*
X0218701Y0403445D02*
X0224213D01*
X0218701Y0393209D02*
X0224213D01*
Y0403445D01*
X0218701Y0393209D02*
Y0403445D01*
X0179429Y0310630D02*
Y0316142D01*
X0189665Y0310630D02*
Y0316142D01*
X0179429D02*
X0189665D01*
X0179429Y0310630D02*
X0189665D01*
X0213090Y0403445D02*
X0218602D01*
X0213090Y0393209D02*
X0218602D01*
Y0403445D01*
X0213090Y0393209D02*
Y0403445D01*
X0269390Y0300590D02*
Y0306102D01*
X0259154Y0300590D02*
Y0306102D01*
X0269390D01*
X0259154Y0300590D02*
X0269390D01*
X0259252Y0302362D02*
X0264764D01*
X0259252Y0292126D02*
X0264764D01*
Y0302362D01*
X0259252Y0292126D02*
Y0302362D01*
X0254724Y0395571D02*
X0260236D01*
X0254724Y0385335D02*
X0260236D01*
Y0395571D01*
X0254724Y0385335D02*
Y0395571D01*
X0249213D02*
X0254724D01*
X0249213Y0385335D02*
X0254724D01*
Y0395571D01*
X0249213Y0385335D02*
Y0395571D01*
X0379921Y0332283D02*
Y0337795D01*
X0390158Y0332283D02*
Y0337795D01*
X0379921D02*
X0390158D01*
X0379921Y0332283D02*
X0390158D01*
X0113484Y0344094D02*
X0118996D01*
X0113484Y0333858D02*
X0118996D01*
Y0344094D01*
X0113484Y0333858D02*
Y0344094D01*
X0357776Y0307480D02*
Y0312992D01*
X0368012Y0307480D02*
Y0312992D01*
X0357776D02*
X0368012D01*
X0357776Y0307480D02*
X0368012D01*
X0100098Y0361417D02*
Y0366929D01*
X0089862Y0361417D02*
Y0366929D01*
Y0361417D02*
X0100098D01*
X0089862Y0366929D02*
X0100098D01*
X0105413Y0479429D02*
Y0484941D01*
X0115650Y0479429D02*
Y0484941D01*
X0105413D02*
X0115650D01*
X0105413Y0479429D02*
X0115650D01*
X0105405Y0470268D02*
Y0475779D01*
X0115642Y0470268D02*
Y0475779D01*
X0105405D02*
X0115642D01*
X0105405Y0470268D02*
X0115642D01*
X0105307Y0461902D02*
Y0467413D01*
X0115543Y0461902D02*
Y0467413D01*
X0105307D02*
X0115543D01*
X0105307Y0461902D02*
X0115543D01*
X0101083Y0322441D02*
Y0327953D01*
X0111319Y0322441D02*
Y0327953D01*
X0101083D02*
X0111319D01*
X0101083Y0322441D02*
X0111319D01*
X0396654Y0373721D02*
X0402165D01*
X0396654Y0363484D02*
X0402165D01*
Y0373721D01*
X0396654Y0363484D02*
Y0373721D01*
X0287792Y0422483D02*
X0291690Y0426381D01*
X0280554Y0429721D02*
X0284452Y0433619D01*
X0280554Y0429721D02*
X0287792Y0422483D01*
X0284452Y0433619D02*
X0291690Y0426381D01*
X0273157Y0518889D02*
X0277333Y0514713D01*
X0265641Y0511372D02*
X0269817Y0507197D01*
X0277333Y0514713D01*
X0265641Y0511372D02*
X0273157Y0518889D01*
X0476906Y0351749D02*
X0482812Y0351749D01*
X0476906Y0341119D02*
X0482812Y0341119D01*
Y0351749D01*
X0476906Y0341119D02*
Y0351749D01*
X0470768Y0351772D02*
X0476673Y0351772D01*
X0470768Y0341142D02*
X0476673Y0341142D01*
Y0351772D01*
X0470768Y0341142D02*
Y0351772D01*
X0516437Y0325984D02*
X0522342Y0325984D01*
X0516437Y0336614D02*
X0522342Y0336614D01*
X0516437Y0325984D02*
Y0336614D01*
X0522342Y0325984D02*
Y0336614D01*
X0515748Y0325689D02*
Y0336319D01*
X0509449Y0325689D02*
Y0336319D01*
X0515748D01*
X0509449Y0325689D02*
X0515748D01*
X0500886Y0354528D02*
Y0365158D01*
X0507185Y0354528D02*
Y0365158D01*
X0500886Y0354528D02*
X0507185D01*
X0500886Y0365158D02*
X0507185D01*
X0472835Y0322244D02*
Y0335630D01*
X0464961Y0322244D02*
Y0335630D01*
X0472835D01*
X0464961Y0322244D02*
X0472835D01*
X0400000Y0506004D02*
X0413386D01*
X0400000Y0513878D02*
X0413386D01*
X0400000Y0506004D02*
Y0513878D01*
X0413386Y0506004D02*
Y0513878D01*
X0546654Y0515256D02*
X0557283D01*
X0546654Y0521161D02*
X0557283D01*
X0546654D02*
X0546654Y0515256D01*
X0557283D02*
X0557283Y0521161D01*
X0097609Y0401757D02*
X0108239D01*
X0097609Y0395852D02*
X0108239D01*
X0097609D02*
X0097609Y0401757D01*
X0108239D02*
X0108239Y0395852D01*
X0093376Y0390537D02*
Y0401167D01*
X0087471Y0390537D02*
Y0401167D01*
X0093376Y0401167D01*
X0087471Y0390537D02*
X0093376Y0390537D01*
X0108928Y0395852D02*
X0119557D01*
X0108928Y0401757D02*
X0119557D01*
X0119557Y0395852D02*
X0119557Y0401757D01*
X0108928D02*
X0108928Y0395852D01*
X0312500Y0335335D02*
Y0345965D01*
X0306594Y0335335D02*
Y0345965D01*
X0312500Y0345965D01*
X0306594Y0335335D02*
X0312500Y0335335D01*
X0314961Y0503839D02*
Y0514468D01*
X0320866Y0503839D02*
Y0514468D01*
X0314961Y0503839D02*
X0320866Y0503839D01*
X0314961Y0514468D02*
X0320866Y0514468D01*
X0200495Y0510099D02*
X0208012Y0517615D01*
X0196319Y0514275D02*
X0203836Y0521791D01*
X0208012Y0517615D01*
X0196319Y0514275D02*
X0200495Y0510099D01*
X0141339Y0335433D02*
Y0346063D01*
X0135433Y0335433D02*
Y0346063D01*
Y0335433D02*
X0141339Y0335433D01*
X0135433Y0346063D02*
X0141339Y0346063D01*
X0483858Y0306496D02*
Y0317126D01*
X0489764Y0306496D02*
Y0317126D01*
X0483858Y0306496D02*
X0489764Y0306496D01*
X0483858Y0317126D02*
X0489764Y0317126D01*
X0306791Y0382677D02*
X0317421D01*
X0306791Y0376772D02*
X0317421D01*
X0306791D02*
X0306791Y0382677D01*
X0317421D02*
X0317421Y0376772D01*
X0471358Y0299410D02*
Y0310039D01*
X0465453Y0299410D02*
Y0310039D01*
X0471358Y0310039D01*
X0465453Y0299410D02*
X0471358Y0299410D01*
X0463681Y0323917D02*
Y0334547D01*
X0457776Y0323917D02*
Y0334547D01*
X0463681Y0334547D01*
X0457776Y0323917D02*
X0463681Y0323917D01*
X0205219Y0449862D02*
X0212736Y0457379D01*
X0201044Y0454038D02*
X0208560Y0461555D01*
X0201044Y0454038D02*
X0205219Y0449862D01*
X0208560Y0461555D02*
X0212736Y0457379D01*
X0204883Y0483046D02*
X0212399Y0475530D01*
X0209058Y0487222D02*
X0216575Y0479706D01*
X0212399Y0475530D02*
X0216575Y0479706D01*
X0204883Y0483046D02*
X0209058Y0487222D01*
X0209685Y0487709D02*
X0217201Y0480193D01*
X0213861Y0491885D02*
X0221377Y0484369D01*
X0217201Y0480193D02*
X0221377Y0484369D01*
X0209685Y0487709D02*
X0213861Y0491885D01*
X0214373Y0413248D02*
X0221889Y0420765D01*
X0210197Y0417424D02*
X0217714Y0424941D01*
X0221889Y0420765D01*
X0210197Y0417424D02*
X0214373Y0413248D01*
X0292579Y0466538D02*
X0300096Y0474055D01*
X0296755Y0462362D02*
X0304271Y0469879D01*
X0292579Y0466538D02*
X0296755Y0462362D01*
X0300096Y0474055D02*
X0304271Y0469879D01*
X0124971Y0390734D02*
Y0401364D01*
X0119065Y0390734D02*
Y0401364D01*
X0124971Y0401364D01*
X0119065Y0390734D02*
X0124971Y0390734D01*
X0170965Y0399311D02*
Y0409941D01*
X0165059Y0399311D02*
Y0409941D01*
X0170965Y0409941D01*
X0165059Y0399311D02*
X0170965Y0399311D01*
X0274010Y0425639D02*
X0281526Y0418122D01*
X0269834Y0421463D02*
X0277350Y0413946D01*
X0269834Y0421463D02*
X0274010Y0425639D01*
X0277350Y0413946D02*
X0281526Y0418122D01*
X0235928Y0398386D02*
X0243445Y0405903D01*
X0231752Y0402562D02*
X0239269Y0410078D01*
X0243445Y0405903D01*
X0231752Y0402562D02*
X0235928Y0398386D01*
X0276086Y0480157D02*
X0283602Y0472641D01*
X0271910Y0475981D02*
X0279426Y0468465D01*
X0271910Y0475981D02*
X0276086Y0480157D01*
X0279426Y0468465D02*
X0283602Y0472641D01*
X0508268Y0325295D02*
X0518898D01*
X0508268Y0319390D02*
X0518898D01*
X0508268D02*
X0508268Y0325295D01*
X0518898D02*
X0518898Y0319390D01*
X0295374Y0439370D02*
Y0450000D01*
X0289469Y0439370D02*
Y0450000D01*
X0295374Y0450000D01*
X0289469Y0439370D02*
X0295374Y0439370D01*
X0253504Y0496952D02*
X0261021Y0504468D01*
X0257680Y0492776D02*
X0265196Y0500292D01*
X0253504Y0496952D02*
X0257680Y0492776D01*
X0261021Y0504468D02*
X0265196Y0500292D01*
X0281851Y0495967D02*
X0289367Y0503484D01*
X0286027Y0491792D02*
X0293543Y0499308D01*
X0281851Y0495967D02*
X0286027Y0491792D01*
X0289367Y0503484D02*
X0293543Y0499308D01*
X0213445Y0472635D02*
X0220962Y0465118D01*
X0217621Y0476811D02*
X0225137Y0469294D01*
X0213445Y0472635D02*
X0217621Y0476811D01*
X0220962Y0465118D02*
X0225137Y0469294D01*
X0209311Y0468796D02*
X0216828Y0461280D01*
X0213487Y0472972D02*
X0221004Y0465456D01*
X0209311Y0468796D02*
X0213487Y0472972D01*
X0216828Y0461280D02*
X0221004Y0465456D01*
X0205473Y0464958D02*
X0212989Y0457441D01*
X0209649Y0469134D02*
X0217165Y0461617D01*
X0205473Y0464958D02*
X0209649Y0469134D01*
X0212989Y0457441D02*
X0217165Y0461617D01*
X0277422Y0500790D02*
X0284938Y0508307D01*
X0281597Y0496615D02*
X0289114Y0504131D01*
X0277422Y0500790D02*
X0281597Y0496615D01*
X0284938Y0508307D02*
X0289114Y0504131D01*
X0343209Y0320374D02*
X0353839D01*
X0343209Y0326279D02*
X0353839D01*
X0353839Y0320374D02*
X0353839Y0326279D01*
X0343209D02*
X0343209Y0320374D01*
X0107973Y0355512D02*
X0118602D01*
X0107972Y0349606D02*
X0118602D01*
X0107972D02*
X0107973Y0355512D01*
X0118602D02*
X0118602Y0349606D01*
X0356988Y0430217D02*
Y0440846D01*
X0351083Y0430217D02*
Y0440846D01*
X0356988Y0440846D01*
X0351083Y0430217D02*
X0356988Y0430217D01*
X0488878Y0341043D02*
Y0351673D01*
X0482972Y0341043D02*
Y0351673D01*
X0488878Y0351673D01*
X0482972Y0341043D02*
X0488878Y0341043D01*
X0223813Y0495922D02*
X0226597Y0498706D01*
X0229102Y0490632D02*
X0231886Y0493416D01*
X0226597Y0498706D02*
X0231886Y0493416D01*
X0223813Y0495922D02*
X0229102Y0490632D01*
X0237324Y0477524D02*
X0241500Y0473348D01*
X0228973Y0469172D02*
X0233148Y0464996D01*
X0228973Y0469172D02*
X0237324Y0477524D01*
X0233148Y0464996D02*
X0241500Y0473348D01*
X0195556Y0471215D02*
X0199732Y0475391D01*
X0203908Y0462863D02*
X0208084Y0467039D01*
X0199732Y0475391D02*
X0208084Y0467039D01*
X0195556Y0471215D02*
X0203908Y0462863D01*
X0256593Y0519167D02*
X0260769Y0523343D01*
X0264945Y0510815D02*
X0269121Y0514991D01*
X0260769Y0523343D02*
X0269121Y0514991D01*
X0256593Y0519167D02*
X0264945Y0510815D01*
X0190179Y0493173D02*
X0194354Y0488997D01*
X0181827Y0484822D02*
X0186003Y0480646D01*
X0194354Y0488997D01*
X0181827Y0484822D02*
X0190179Y0493173D01*
X0136811Y0305610D02*
Y0311516D01*
X0148622Y0305610D02*
Y0311516D01*
X0136811D02*
X0148622D01*
X0136811Y0305610D02*
X0148622D01*
X0219011Y0487988D02*
X0221795Y0490772D01*
X0224300Y0482698D02*
X0227084Y0485482D01*
X0221795Y0490772D02*
X0227084Y0485482D01*
X0219011Y0487988D02*
X0224300Y0482698D01*
X0362205Y0358366D02*
X0362205Y0354429D01*
X0354724D02*
Y0358366D01*
Y0354429D02*
X0362205D01*
X0354724Y0358366D02*
X0362205D01*
X0529331Y0326673D02*
Y0340453D01*
X0521457Y0326673D02*
Y0340453D01*
X0529331D01*
X0521457Y0326673D02*
X0529331D01*
X0172539Y0315846D02*
X0179626D01*
X0172539Y0312303D02*
X0179626D01*
X0172539D02*
X0172539Y0315846D01*
X0179626Y0312303D02*
Y0315846D01*
X0102657Y0463681D02*
Y0470768D01*
X0106201Y0463681D02*
Y0470768D01*
X0102657Y0470768D02*
X0106201Y0470768D01*
X0102657Y0463681D02*
X0106201D01*
X0092618Y0463583D02*
Y0470669D01*
X0096161Y0463583D02*
Y0470669D01*
X0092618Y0470669D02*
X0096161Y0470669D01*
X0092618Y0463583D02*
X0096161D01*
X0443405Y0466634D02*
Y0479232D01*
X0425295Y0466634D02*
Y0479232D01*
Y0466634D02*
X0443405D01*
X0425295Y0479232D02*
X0443405D01*
X0489882Y0319488D02*
X0532638D01*
Y0275138D02*
Y0319488D01*
X0489882Y0275138D02*
X0532638D01*
X0489882D02*
Y0319488D01*
X0511260Y0302579D02*
Y0306516D01*
X0509291Y0304547D02*
X0513228D01*
X0390354Y0492126D02*
X0416535D01*
X0390354D02*
Y0514173D01*
X0416535Y0492126D02*
Y0514173D01*
X0390354D02*
X0416535D01*
X0332087Y0348130D02*
Y0364469D01*
X0348425Y0348130D02*
X0348425Y0364469D01*
X0332087Y0364469D02*
X0348425Y0364469D01*
X0332087Y0348130D02*
X0348425D01*
X0330906Y0362795D02*
X0341142D01*
X0330906Y0368307D02*
X0341142D01*
Y0362795D02*
Y0368307D01*
X0330906Y0362795D02*
Y0368307D01*
X0341240Y0362795D02*
X0351476D01*
X0341240Y0368307D02*
X0351476D01*
Y0362795D02*
Y0368307D01*
X0341240Y0362795D02*
Y0368307D01*
X0340256Y0339862D02*
X0340256Y0347736D01*
X0326870Y0339862D02*
Y0347736D01*
Y0339862D02*
X0340256Y0339862D01*
X0326870Y0347736D02*
X0340256Y0347736D01*
X0340256D02*
X0340256Y0339862D01*
X0353642D02*
Y0347736D01*
X0340256D02*
X0353642D01*
X0340256Y0339862D02*
X0353642D01*
X0321063Y0358465D02*
Y0369094D01*
X0326969Y0358465D02*
Y0369094D01*
X0321063Y0358465D02*
X0326969Y0358465D01*
X0321063Y0369094D02*
X0326969D01*
X0321063Y0358366D02*
X0326969D01*
X0321063Y0347736D02*
X0326969Y0347736D01*
X0326969Y0358366D01*
X0321063D02*
X0321063Y0347736D01*
X0352461Y0354921D02*
X0374508Y0354921D01*
X0352461Y0339961D02*
X0374508D01*
X0352461D02*
X0352461Y0354921D01*
X0374508Y0339961D02*
Y0354921D01*
X0361713Y0352756D02*
X0374705D01*
X0361713Y0360630D02*
X0374705Y0360630D01*
X0374705Y0352756D01*
X0361713D02*
X0361713Y0360630D01*
X0578303Y0513484D02*
X0578303Y0350098D01*
X0409996Y0350098D02*
X0409996Y0513484D01*
X0578303Y0513484D01*
X0409996Y0350098D02*
X0578303Y0350098D01*
X0545965Y0533071D02*
X0553839Y0533071D01*
X0545965Y0520079D02*
X0553839Y0520079D01*
X0545965Y0520079D02*
Y0533071D01*
X0553839Y0520079D02*
Y0533071D01*
X0490768Y0321457D02*
Y0327559D01*
X0478721Y0321457D02*
X0490768D01*
X0478721D02*
Y0327559D01*
X0490768D01*
X0507382Y0304134D02*
Y0312008D01*
X0520768Y0304134D02*
Y0312008D01*
X0507382Y0304134D02*
X0520768D01*
X0507382Y0312008D02*
X0520768D01*
X0520276Y0304134D02*
Y0312008D01*
X0533661Y0304134D02*
Y0312008D01*
X0520276Y0304134D02*
X0533661D01*
X0520276Y0312008D02*
X0533661D01*
X0520306Y0297033D02*
Y0304907D01*
X0533692Y0297033D02*
Y0304907D01*
X0520306Y0297033D02*
X0533692D01*
X0520306Y0304907D02*
X0533692D01*
X0507382Y0297047D02*
Y0304921D01*
X0520768Y0297047D02*
Y0304921D01*
X0507382Y0297047D02*
X0520768D01*
X0507382Y0304921D02*
X0520768D01*
X0482874Y0297146D02*
X0496260D01*
X0482874Y0305020D02*
X0496260D01*
X0482874Y0297146D02*
Y0305020D01*
X0496260Y0297146D02*
Y0305020D01*
X0482839Y0304247D02*
X0496225D01*
X0482839Y0312121D02*
X0496225D01*
X0482839Y0304247D02*
Y0312121D01*
X0496225Y0304247D02*
Y0312121D01*
X0542520Y0340650D02*
Y0350886D01*
X0537008Y0340650D02*
Y0350886D01*
X0542520D01*
X0537008Y0340650D02*
X0542520D01*
X0490472Y0294193D02*
Y0300295D01*
X0478425Y0294193D02*
X0490472D01*
X0478425D02*
Y0300295D01*
X0490472D01*
X0477362Y0299803D02*
X0487598D01*
X0477362Y0305315D02*
X0487598D01*
Y0299803D02*
Y0305315D01*
X0477362Y0299803D02*
Y0305315D01*
X0102362Y0523721D02*
X0127953D01*
Y0549311D01*
X0102362Y0523721D02*
Y0549311D01*
X0127953D01*
X0320472Y0459941D02*
X0320472Y0485532D01*
X0359842Y0459941D02*
Y0485532D01*
X0320472Y0485532D02*
X0359842Y0485532D01*
X0320472Y0459941D02*
X0359842D01*
X0523425Y0482677D02*
Y0510630D01*
X0541142Y0482677D02*
Y0510630D01*
X0523425D02*
X0541142D01*
X0523425Y0482677D02*
X0541142D01*
X0457087Y0434941D02*
Y0448721D01*
X0464961Y0434941D02*
Y0448721D01*
X0457087Y0434941D02*
X0464961D01*
X0457087Y0448721D02*
X0464961D01*
X0199036Y0452145D02*
X0247198Y0500306D01*
Y0403984D02*
X0295359Y0452145D01*
X0199036Y0452145D02*
X0247198Y0403984D01*
Y0500306D02*
X0295359Y0452145D01*
X0400689Y0493209D02*
X0412500D01*
X0400689Y0483760D02*
X0412500D01*
Y0493209D01*
X0400689Y0483760D02*
Y0493209D01*
X0366240Y0524409D02*
Y0529921D01*
X0356004Y0524409D02*
Y0529921D01*
Y0524409D02*
X0366240D01*
X0356004Y0529921D02*
X0366240D01*
X0356102Y0518996D02*
Y0524508D01*
X0366339Y0518996D02*
Y0524508D01*
X0356102D02*
X0366339D01*
X0356102Y0518996D02*
X0366339D01*
X0568110Y0497835D02*
X0585827Y0497835D01*
X0568110Y0470669D02*
X0585827Y0470669D01*
X0585827Y0497835D01*
X0568110Y0470669D02*
X0568110Y0497835D01*
X0496752Y0311634D02*
X0505807D01*
X0496752Y0300964D02*
X0505807D01*
X0496752D02*
Y0311634D01*
X0505807D02*
X0505807Y0300964D01*
X0490650Y0313189D02*
Y0319094D01*
X0480020Y0313189D02*
Y0319094D01*
X0490650D01*
X0480020Y0313189D02*
X0490650D01*
X0195765Y0456650D02*
X0199662Y0452753D01*
X0188527Y0449412D02*
X0192424Y0445515D01*
X0188527Y0449412D02*
X0195765Y0456650D01*
X0192424Y0445515D02*
X0199662Y0452753D01*
X0215414Y0433467D02*
X0222930Y0440984D01*
X0219589Y0429292D02*
X0227106Y0436808D01*
X0222930Y0440984D02*
X0227106Y0436808D01*
X0215414Y0433467D02*
X0219589Y0429292D01*
X0125295Y0488386D02*
X0135531D01*
X0125295Y0493898D02*
X0135531D01*
Y0488386D02*
Y0493898D01*
X0125295Y0488386D02*
Y0493898D01*
X0152559Y0494783D02*
Y0509941D01*
X0138779Y0494783D02*
Y0509941D01*
X0152559D01*
X0138779Y0494783D02*
X0152559D01*
X0123622Y0494882D02*
X0137402D01*
X0123622Y0510039D02*
X0137402D01*
X0123622Y0494882D02*
Y0510039D01*
X0137402Y0494882D02*
Y0510039D01*
X0114567Y0492520D02*
X0122835Y0492520D01*
X0114567Y0512992D02*
X0122835Y0512992D01*
X0114567Y0512992D02*
X0114567Y0492520D01*
X0122835Y0492520D02*
Y0512992D01*
X0110925Y0527756D02*
X0119193D01*
X0110925Y0514370D02*
X0119193D01*
Y0527756D01*
X0110925Y0514370D02*
Y0527756D01*
X0170669Y0363583D02*
X0178937Y0363583D01*
X0170669Y0343110D02*
X0178937Y0343110D01*
X0178937Y0363583D02*
X0178937Y0343110D01*
X0170669Y0343110D02*
Y0363583D01*
X0565354Y0389272D02*
X0574409D01*
X0565354Y0384547D02*
X0574409D01*
X0565354Y0389272D02*
X0565354Y0384547D01*
X0574409D02*
Y0389272D01*
X0471949Y0316339D02*
X0484744Y0316339D01*
Y0306496D02*
Y0316339D01*
X0471949Y0306496D02*
X0484744Y0306496D01*
X0471949Y0306496D02*
Y0316339D01*
X0112205Y0331594D02*
X0124409D01*
X0112205Y0318996D02*
X0124409D01*
X0112205D02*
Y0331594D01*
X0124409Y0318996D02*
Y0331594D01*
X0177953Y0336614D02*
X0177953Y0332677D01*
X0170472D02*
Y0336614D01*
Y0332677D02*
X0177953D01*
X0170472Y0336614D02*
X0177953D01*
X0179528Y0321358D02*
X0189764D01*
X0179528Y0315846D02*
X0189764D01*
X0179528D02*
Y0321358D01*
X0189764Y0315846D02*
Y0321358D01*
X0179528Y0327658D02*
X0189764D01*
X0179528Y0322146D02*
X0189764D01*
X0179528D02*
Y0327658D01*
X0189764Y0322146D02*
Y0327658D01*
X0179331D02*
X0189567D01*
X0179331Y0333169D02*
X0189567D01*
Y0327658D02*
Y0333169D01*
X0179331Y0327658D02*
Y0333169D01*
X0184350Y0338484D02*
Y0348721D01*
X0178839Y0338484D02*
Y0348721D01*
X0184350D01*
X0178839Y0338484D02*
X0184350D01*
X0209747Y0417973D02*
X0217264Y0425489D01*
X0205571Y0422149D02*
X0213088Y0429665D01*
X0217264Y0425489D01*
X0205571Y0422149D02*
X0209747Y0417973D01*
X0135031Y0469087D02*
X0135031Y0481685D01*
X0122827Y0469087D02*
X0122827Y0481685D01*
X0122827Y0469087D02*
X0135031D01*
X0122827Y0481685D02*
X0135031D01*
X0387598Y0534547D02*
X0399410D01*
X0387598Y0518405D02*
X0399409Y0518405D01*
X0387598Y0518405D02*
X0387598Y0534547D01*
X0399409Y0518405D02*
X0399410Y0534547D01*
X0412500Y0513583D02*
X0412500Y0517520D01*
X0400689Y0513583D02*
X0400689Y0517520D01*
X0412500D01*
X0400689Y0513583D02*
X0412500Y0513583D01*
X0396555Y0503937D02*
X0396555Y0508661D01*
X0387894Y0508661D02*
X0387894Y0503937D01*
X0387894Y0508661D02*
X0396555Y0508661D01*
X0387894Y0503937D02*
X0396555Y0503937D01*
X0401279Y0492520D02*
X0401280Y0506693D01*
X0411909Y0492520D02*
Y0506693D01*
X0401280Y0506693D02*
X0411909Y0506693D01*
X0401279Y0492520D02*
X0411909Y0492520D01*
X0467323Y0394980D02*
X0467323Y0403248D01*
X0487795Y0394980D02*
X0487795Y0403248D01*
X0467323Y0394980D02*
X0487795Y0394980D01*
X0467323Y0403248D02*
X0487795D01*
X0465748Y0432972D02*
Y0444390D01*
X0487402Y0432972D02*
X0487402Y0444390D01*
X0465748Y0432972D02*
X0487402Y0432972D01*
X0465748Y0444390D02*
X0487402Y0444390D01*
X0487500Y0406398D02*
X0497342Y0406398D01*
X0487500Y0423327D02*
X0497342Y0423327D01*
X0497342Y0406398D01*
X0487500Y0406398D02*
X0487500Y0423327D01*
X0237087Y0342421D02*
X0237087Y0368209D01*
X0209291Y0368209D02*
X0237087Y0368209D01*
X0209291Y0342421D02*
Y0368209D01*
Y0342421D02*
X0237087D01*
X0129941Y0546791D02*
X0129941Y0527618D01*
X0139941Y0546791D02*
X0139941Y0527618D01*
X0129941Y0527618D02*
X0139941Y0527618D01*
X0129941Y0546791D02*
X0139941D01*
X0236477Y0479235D02*
X0243993Y0486752D01*
X0240652Y0475059D02*
X0248169Y0482576D01*
X0243993Y0486752D02*
X0248169Y0482576D01*
X0236477Y0479235D02*
X0240652Y0475059D01*
X0271921Y0490517D02*
X0276376Y0494971D01*
X0274149Y0488290D02*
X0278603Y0492744D01*
X0271921Y0490517D02*
X0274149Y0488290D01*
X0276376Y0494971D02*
X0278603Y0492744D01*
X0288190Y0483116D02*
X0294315Y0489240D01*
X0291531Y0479775D02*
X0297655Y0485900D01*
X0288190Y0483116D02*
X0291531Y0479775D01*
X0294315Y0489240D02*
X0297655Y0485900D01*
X0273940Y0487664D02*
X0279090Y0492814D01*
X0273940Y0487664D02*
X0280204Y0481400D01*
X0279090Y0492814D02*
X0285354Y0486550D01*
X0280204Y0481400D02*
X0285354Y0486550D01*
X0282205Y0477966D02*
X0292505Y0467665D01*
X0282205Y0477966D02*
X0287773Y0483533D01*
X0292505Y0467665D02*
X0298073Y0473233D01*
X0287773Y0483533D02*
X0298073Y0473233D01*
X0390945Y0435039D02*
X0417126D01*
X0390945D02*
Y0457087D01*
X0417126Y0435039D02*
Y0457087D01*
X0390945D02*
X0417126D01*
X0507677Y0501378D02*
X0507677Y0480315D01*
X0479921Y0480315D02*
X0507677Y0480315D01*
X0479921Y0480315D02*
X0479921Y0501378D01*
X0507677D01*
X0370256Y0297362D02*
Y0327185D01*
Y0297362D02*
X0401398D01*
Y0327185D01*
X0370256D02*
X0401398D01*
X0537031Y0327989D02*
X0542543D01*
X0537031Y0338226D02*
X0542543D01*
X0537031Y0327989D02*
Y0338226D01*
X0542543Y0327989D02*
Y0338226D01*
X0517936Y0336847D02*
Y0353580D01*
X0501204Y0353678D02*
X0517936D01*
X0501204Y0336847D02*
Y0353580D01*
Y0336847D02*
X0517936D01*
X0525909Y0364997D02*
Y0379367D01*
X0509964Y0364997D02*
Y0379367D01*
X0525909D01*
X0509964Y0364997D02*
X0525909D01*
X0494147Y0356434D02*
Y0397773D01*
X0445859Y0356434D02*
Y0397773D01*
Y0356434D02*
X0494147D01*
X0445859Y0397773D02*
X0494147D01*
X0493996Y0363583D02*
X0500295D01*
X0493996Y0352953D02*
X0500295D01*
Y0363583D01*
X0493996Y0352953D02*
Y0363583D01*
X0531988Y0368602D02*
Y0387106D01*
X0544587Y0368602D02*
Y0387106D01*
X0531988Y0368602D02*
X0544587D01*
X0531988Y0387106D02*
X0544587D01*
X0349311Y0383465D02*
X0367815Y0383465D01*
X0349311Y0374409D02*
X0367815Y0374409D01*
X0349311Y0383465D02*
X0349311Y0374409D01*
X0367815Y0374409D02*
X0367815Y0383465D01*
X0356988Y0425098D02*
X0366043Y0425098D01*
X0356988Y0443209D02*
X0366043Y0443209D01*
X0356988Y0425098D02*
Y0443209D01*
X0366043Y0425098D02*
X0366043Y0443209D01*
X0112077Y0408844D02*
X0125463Y0408844D01*
X0112077Y0417112D02*
X0125463Y0417112D01*
X0112077Y0408844D02*
Y0417112D01*
X0125463Y0408844D02*
Y0417112D01*
X0164144Y0400628D02*
X0164144Y0426415D01*
X0117687D02*
X0164144D01*
X0117687Y0400628D02*
Y0426415D01*
Y0400628D02*
X0164144D01*
X0163779Y0295571D02*
X0171653D01*
X0163779Y0308957D02*
X0171653D01*
X0163779Y0295571D02*
Y0308957D01*
X0171653Y0295571D02*
Y0308957D01*
X0243996Y0297362D02*
Y0327185D01*
Y0297362D02*
X0285138D01*
Y0327185D01*
X0243996D02*
X0285138D01*
X0339764Y0307579D02*
Y0320177D01*
X0357480Y0307579D02*
Y0320177D01*
X0339764D02*
X0357480D01*
X0339764Y0307579D02*
X0357480D01*
X0194584Y0488031D02*
X0198759Y0483855D01*
X0187067Y0480515D02*
X0191243Y0476339D01*
X0198759Y0483855D01*
X0187067Y0480515D02*
X0194584Y0488031D01*
X0189502Y0475878D02*
X0195348Y0470032D01*
X0198967Y0485343D02*
X0204813Y0479497D01*
X0189502Y0475878D02*
X0198967Y0485343D01*
X0195348Y0470032D02*
X0204813Y0479497D01*
X0099132Y0396049D02*
X0118030D01*
X0099132Y0377151D02*
X0118030D01*
Y0396049D01*
X0099132Y0377151D02*
Y0396049D01*
X0087058Y0384927D02*
Y0391029D01*
X0099105D01*
Y0384927D02*
Y0391029D01*
X0087058Y0384927D02*
X0099105D01*
X0269608Y0506848D02*
X0277959Y0515200D01*
X0276289Y0500167D02*
X0284641Y0508519D01*
X0269608Y0506848D02*
X0276289Y0500167D01*
X0277959Y0515200D02*
X0284641Y0508519D01*
X0148524Y0311220D02*
X0170768Y0311220D01*
X0148524Y0333465D02*
X0170768D01*
X0148524Y0311220D02*
X0148524Y0333465D01*
X0170768D02*
X0170768Y0311220D01*
X0084420Y0397230D02*
Y0428726D01*
X0100168D01*
X0100168Y0397230D02*
X0100168Y0428726D01*
X0084420Y0397230D02*
X0100168Y0397230D01*
X0144783Y0325492D02*
Y0340453D01*
X0132579Y0325492D02*
X0144783D01*
X0132579Y0340453D02*
X0144783D01*
X0132579Y0325492D02*
Y0340453D01*
X0156791Y0336713D02*
Y0343799D01*
X0160335Y0336713D02*
Y0343799D01*
X0156791Y0336713D02*
X0160335Y0336713D01*
X0156791Y0343799D02*
X0160335D01*
X0137303Y0312205D02*
X0145571D01*
X0137303Y0316535D02*
X0145571D01*
Y0312205D02*
Y0316535D01*
X0137303Y0312205D02*
Y0316535D01*
X0172343Y0320079D02*
X0179823D01*
X0172343Y0316142D02*
X0179823D01*
X0172343D02*
Y0320079D01*
X0179823D02*
X0179823Y0316142D01*
X0154134Y0296358D02*
Y0303839D01*
X0150197Y0296358D02*
Y0303839D01*
X0154134D01*
X0150197Y0296358D02*
X0154134D01*
X0391929Y0377559D02*
Y0395669D01*
X0404528Y0377559D02*
Y0395669D01*
X0391929Y0377559D02*
X0404528D01*
X0391929Y0395669D02*
X0404528D01*
X0123721Y0318898D02*
Y0331890D01*
X0131595D02*
X0131595Y0318898D01*
X0123721D02*
X0131595D01*
X0123721Y0331890D02*
X0131595D01*
X0163701Y0527421D02*
X0163701Y0546594D01*
X0173701Y0527421D02*
X0173701Y0546594D01*
X0163701Y0527421D02*
X0173701Y0527421D01*
X0163701Y0546594D02*
X0173701Y0546594D01*
X0435610Y0327185D02*
X0466752D01*
Y0297362D02*
Y0327185D01*
X0435610Y0297362D02*
X0466752D01*
X0435610D02*
Y0327185D01*
X0526083Y0382087D02*
X0530807D01*
X0526083Y0373031D02*
X0530807Y0373031D01*
Y0382087D01*
X0526083Y0373031D02*
Y0382087D01*
X0390453Y0337795D02*
X0396358Y0337795D01*
X0390453Y0327165D02*
X0396358Y0327165D01*
Y0337795D01*
X0390453Y0327165D02*
Y0337795D01*
X0411909Y0381890D02*
Y0394882D01*
X0404035D02*
X0404035Y0381890D01*
X0404035Y0394882D02*
X0411909D01*
X0404035Y0381890D02*
X0411909D01*
X0134843Y0468405D02*
X0142717D01*
X0134843Y0455413D02*
X0142717Y0455413D01*
X0142717Y0468405D01*
X0134843D02*
X0134843Y0455413D01*
X0135039Y0481693D02*
X0142913D01*
X0135039Y0468701D02*
X0142913D01*
X0142913Y0481693D01*
X0135039D02*
X0135039Y0468701D01*
X0122827Y0468299D02*
X0135031D01*
X0122827Y0455701D02*
X0135031D01*
X0122827D02*
Y0468299D01*
X0135031Y0455701D02*
Y0468299D01*
X0479528Y0316142D02*
X0489764D01*
X0479528Y0321654D02*
X0489764D01*
Y0316142D02*
Y0321654D01*
X0479528Y0316142D02*
Y0321654D01*
X0156496Y0301476D02*
X0160433D01*
X0156496Y0308957D02*
X0160433D01*
X0156496Y0301476D02*
Y0308957D01*
X0160433Y0301476D02*
Y0308957D01*
X0134153Y0340945D02*
Y0344882D01*
X0141634Y0340945D02*
Y0344882D01*
X0134153D02*
X0141634D01*
X0134153Y0340945D02*
X0141634D01*
X0145276Y0321358D02*
Y0325295D01*
X0137795Y0321358D02*
Y0325295D01*
Y0321358D02*
X0145276D01*
X0137795Y0325295D02*
X0145276D01*
X0137697Y0316339D02*
Y0320276D01*
X0145177Y0316339D02*
Y0320276D01*
X0137697D02*
X0145177D01*
X0137697Y0316339D02*
X0145177D01*
X0264875Y0483742D02*
X0270165Y0489032D01*
X0267659Y0480958D02*
X0272949Y0486248D01*
X0264875Y0483742D02*
X0267659Y0480958D01*
X0270165Y0489032D02*
X0272949Y0486248D01*
X0259377Y0489241D02*
X0264666Y0494530D01*
X0262161Y0486457D02*
X0267450Y0491746D01*
X0259377Y0489241D02*
X0262161Y0486457D01*
X0264666Y0494530D02*
X0267450Y0491746D01*
X0238498Y0509493D02*
X0247963Y0518958D01*
X0244344Y0503647D02*
X0253809Y0513112D01*
X0238498Y0509493D02*
X0244344Y0503647D01*
X0247963Y0518958D02*
X0253809Y0513112D01*
X0230633Y0502464D02*
X0235644Y0497453D01*
X0233139Y0504969D02*
X0238150Y0499958D01*
X0235644Y0497453D02*
X0238150Y0499958D01*
X0230633Y0502464D02*
X0233139Y0504969D01*
X0227641Y0499750D02*
X0230425Y0502533D01*
X0232930Y0494460D02*
X0235714Y0497244D01*
X0230425Y0502533D02*
X0235714Y0497244D01*
X0227641Y0499750D02*
X0232930Y0494460D01*
X0186199Y0470831D02*
X0194551Y0462479D01*
X0182024Y0466655D02*
X0190375Y0458303D01*
X0182024Y0466655D02*
X0186199Y0470831D01*
X0190375Y0458303D02*
X0194551Y0462479D01*
X0198132Y0451588D02*
X0206483Y0459940D01*
X0191450Y0458270D02*
X0199802Y0466621D01*
X0206483Y0459940D01*
X0191450Y0458270D02*
X0198132Y0451588D01*
X0176301Y0471812D02*
X0182147Y0465966D01*
X0185766Y0481278D02*
X0191612Y0475432D01*
X0176301Y0471812D02*
X0185766Y0481278D01*
X0182147Y0465966D02*
X0191612Y0475432D01*
X0181296Y0483897D02*
X0185472Y0479721D01*
X0173780Y0476381D02*
X0177956Y0472205D01*
X0185472Y0479721D01*
X0173780Y0476381D02*
X0181296Y0483897D01*
X0201339Y0426184D02*
X0205515Y0422008D01*
X0208855Y0433701D02*
X0213031Y0429525D01*
X0201339Y0426184D02*
X0208855Y0433701D01*
X0205515Y0422008D02*
X0213031Y0429525D01*
X0211477Y0437109D02*
X0218993Y0444626D01*
X0215652Y0432933D02*
X0223169Y0440450D01*
X0218993Y0444626D02*
X0223169Y0440450D01*
X0211477Y0437109D02*
X0215652Y0432933D01*
X0368209Y0318209D02*
X0374114Y0318209D01*
X0368209Y0307579D02*
X0374114Y0307579D01*
Y0318209D01*
X0368209Y0307579D02*
Y0318209D01*
X0104331Y0367913D02*
X0122047D01*
X0104331Y0355315D02*
X0122047Y0355315D01*
X0104331Y0355315D02*
Y0367913D01*
X0122047Y0355315D02*
Y0367913D01*
X0249508Y0395669D02*
Y0401575D01*
X0260138Y0395669D02*
Y0401575D01*
X0249508D02*
X0260138D01*
X0249508Y0395669D02*
X0260138D01*
X0107874Y0344094D02*
X0113779Y0344094D01*
X0107874Y0333465D02*
X0113779Y0333465D01*
Y0344094D01*
X0107874Y0333465D02*
Y0344094D01*
X0100295Y0361417D02*
X0100295Y0355512D01*
X0089665D02*
X0089665Y0361417D01*
X0089665Y0355512D02*
X0100295D01*
X0089665Y0361417D02*
X0100295D01*
X0523524Y0348819D02*
X0527067D01*
X0523524Y0341732D02*
X0527067D01*
Y0348819D01*
X0523524Y0341732D02*
Y0348819D01*
X0507382Y0328051D02*
Y0335138D01*
X0503839Y0328051D02*
Y0335138D01*
X0507382D01*
X0503839Y0328051D02*
X0507382D01*
X0519413Y0356926D02*
X0522956D01*
X0519413Y0349840D02*
X0522956D01*
Y0356926D01*
X0519413Y0349840D02*
Y0356926D01*
X0527264Y0349606D02*
Y0357087D01*
X0523327Y0349606D02*
Y0357087D01*
X0527264D01*
X0523327Y0349606D02*
X0527264D01*
X0531322Y0327989D02*
Y0338226D01*
X0536834Y0327989D02*
Y0338226D01*
X0531322Y0327989D02*
X0536834D01*
X0531322Y0338226D02*
X0536834D01*
X0495397Y0369722D02*
Y0385666D01*
X0509767Y0369722D02*
Y0385666D01*
X0495397D02*
X0509767D01*
X0495397Y0369722D02*
X0509767D01*
X0481791Y0341043D02*
X0492421D01*
X0481791Y0335138D02*
X0492421D01*
X0481791D02*
X0481791Y0341043D01*
X0492421D02*
X0492421Y0335138D01*
X0500000Y0335433D02*
X0503937D01*
X0500000Y0327953D02*
X0503937D01*
Y0335433D01*
X0500000Y0327953D02*
Y0335433D01*
X0496161Y0328150D02*
Y0335236D01*
X0499705Y0328150D02*
Y0335236D01*
X0496161Y0328150D02*
X0499705D01*
X0496161Y0335236D02*
X0499705D01*
X0492224Y0337402D02*
Y0341339D01*
X0499705Y0337402D02*
Y0341339D01*
X0492224D02*
X0499705D01*
X0492224Y0337402D02*
X0499705D01*
X0494216Y0341867D02*
Y0352103D01*
X0499727Y0341867D02*
Y0352103D01*
X0494216Y0341867D02*
X0499727D01*
X0494216Y0352103D02*
X0499727D01*
X0488802Y0341867D02*
Y0352103D01*
X0494314Y0341867D02*
Y0352103D01*
X0488802Y0341867D02*
X0494314D01*
X0488802Y0352103D02*
X0494314D01*
X0544980Y0368504D02*
Y0387008D01*
X0557579Y0368504D02*
Y0387008D01*
X0544980Y0368504D02*
X0557579D01*
X0544980Y0387008D02*
X0557579D01*
X0557579Y0382677D02*
X0562303D01*
X0557579Y0373622D02*
X0562303D01*
Y0382677D01*
X0557579Y0373622D02*
Y0382677D01*
X0431004Y0377362D02*
Y0395473D01*
X0443602Y0377362D02*
Y0395473D01*
X0431004Y0377362D02*
X0443602D01*
X0431004Y0395473D02*
X0443602D01*
X0417717Y0377362D02*
Y0395473D01*
X0430315Y0377362D02*
Y0395473D01*
X0417717Y0377362D02*
X0430315D01*
X0417717Y0395473D02*
X0430315D01*
X0144980Y0296063D02*
Y0303543D01*
X0141043Y0296063D02*
Y0303543D01*
X0144980D01*
X0141043Y0296063D02*
X0144980Y0296063D01*
X0112077Y0403332D02*
Y0411600D01*
X0125463Y0403332D02*
Y0411600D01*
X0112077Y0403332D02*
X0125463Y0403332D01*
X0112077Y0411600D02*
X0125463D01*
X0112077Y0414454D02*
X0125463Y0414454D01*
X0112077Y0422722D02*
X0125463D01*
X0112077Y0414454D02*
Y0422722D01*
X0125463Y0414454D02*
X0125463Y0422722D01*
X0261187Y0523204D02*
X0268703Y0515687D01*
X0265362Y0527380D02*
X0272879Y0519863D01*
X0268703Y0515687D02*
X0272879Y0519863D01*
X0261187Y0523204D02*
X0265362Y0527380D01*
X0249564Y0499123D02*
X0258751Y0508310D01*
X0243996Y0504691D02*
X0253183Y0513878D01*
X0258751Y0508310D01*
X0243996Y0504691D02*
X0249564Y0499123D01*
X0198291Y0497618D02*
X0207756Y0488153D01*
X0203858Y0503186D02*
X0213324Y0493721D01*
X0207756Y0488153D02*
X0213324Y0493721D01*
X0198291Y0497618D02*
X0203858Y0503186D01*
X0280691Y0481469D02*
X0282918Y0479242D01*
X0285145Y0485924D02*
X0287372Y0483697D01*
X0280691Y0481469D02*
X0285145Y0485924D01*
X0282918Y0479242D02*
X0287372Y0483697D01*
X0300439Y0482977D02*
X0303780Y0479636D01*
X0294315Y0476852D02*
X0297655Y0473512D01*
X0303780Y0479636D01*
X0294315Y0476852D02*
X0300439Y0482977D01*
X0248036Y0500553D02*
X0257223Y0509739D01*
X0253604Y0494985D02*
X0262791Y0504172D01*
X0248036Y0500553D02*
X0253604Y0494985D01*
X0257223Y0509739D02*
X0262791Y0504172D01*
X0109370Y0328228D02*
Y0359370D01*
X0079547Y0328228D02*
X0109370D01*
X0079547D02*
Y0359370D01*
X0109370D01*
X0587815Y0317106D02*
Y0348248D01*
X0557992Y0317106D02*
X0587815Y0317106D01*
X0557992Y0317106D02*
Y0348248D01*
X0587815Y0348248D01*
X0333858Y0503839D02*
Y0517224D01*
X0341732Y0503839D02*
Y0517224D01*
X0333858Y0503839D02*
X0341732Y0503839D01*
X0333858Y0517224D02*
X0341732Y0517224D01*
X0359941Y0503839D02*
Y0517224D01*
X0367815Y0503839D02*
X0367815Y0517224D01*
X0359941Y0503839D02*
X0367815Y0503839D01*
X0359941Y0517224D02*
X0367815Y0517224D01*
X0418504Y0519291D02*
X0431890Y0519291D01*
X0418504Y0527559D02*
X0431890Y0527559D01*
X0418504Y0527559D02*
X0418504Y0519291D01*
X0431890Y0519291D02*
X0431890Y0527559D01*
X0418898Y0517421D02*
Y0528051D01*
X0412992Y0517421D02*
X0412992Y0528051D01*
X0412992Y0517421D02*
X0418898Y0517421D01*
X0412992Y0528051D02*
X0418898Y0528051D01*
X0399606Y0517028D02*
X0399606Y0532185D01*
X0413386Y0517028D02*
Y0532185D01*
X0399606Y0532185D02*
X0413386Y0532185D01*
X0399606Y0517028D02*
X0413386Y0517028D01*
X0384646Y0489961D02*
X0399803Y0489961D01*
X0384646Y0503740D02*
X0399803Y0503740D01*
X0384646Y0503740D02*
X0384646Y0489961D01*
X0399803Y0503740D02*
X0399803Y0489961D01*
X0335076Y0440824D02*
X0335076Y0433343D01*
X0331139Y0440824D02*
X0331139Y0433343D01*
X0331139Y0440824D02*
X0335076D01*
X0331139Y0433343D02*
X0335076Y0433343D01*
X0349803Y0449508D02*
X0349803Y0445965D01*
X0342717Y0445965D02*
X0342717Y0449508D01*
X0342717Y0445965D02*
X0349803Y0445965D01*
X0342717Y0449508D02*
X0349803D01*
X0342717Y0442520D02*
X0342717Y0446063D01*
X0349803Y0442520D02*
X0349803Y0446063D01*
X0342717D02*
X0349803D01*
X0342717Y0442520D02*
X0349803D01*
X0336847Y0448993D02*
X0340391Y0448993D01*
X0336847Y0441906D02*
X0340391D01*
X0340391Y0448993D01*
X0336847Y0441906D02*
Y0448993D01*
X0333403Y0441906D02*
X0336946Y0441906D01*
X0333403Y0448993D02*
X0336946D01*
X0333403Y0441906D02*
Y0448993D01*
X0336946D02*
X0336946Y0441906D01*
X0330745Y0429406D02*
X0330745Y0432950D01*
X0323658Y0429406D02*
Y0432950D01*
Y0429406D02*
X0330745D01*
X0323658Y0432950D02*
X0330745D01*
X0337340Y0429406D02*
X0344820D01*
X0337340Y0425469D02*
X0344820D01*
X0337340Y0429406D02*
X0337340Y0425469D01*
X0344820D02*
X0344820Y0429406D01*
X0333501Y0441710D02*
Y0449190D01*
X0329564Y0449190D02*
X0329564Y0441710D01*
X0329564Y0449190D02*
X0333501Y0449190D01*
X0329564Y0441710D02*
X0333501Y0441710D01*
X0323560Y0437182D02*
X0331040Y0437182D01*
X0323560Y0433245D02*
X0331040Y0433245D01*
X0323560Y0433245D02*
Y0437182D01*
X0331040Y0433245D02*
Y0437182D01*
X0323757Y0440922D02*
X0323757Y0437379D01*
X0330844Y0440922D02*
X0330844Y0437379D01*
X0323757Y0440922D02*
X0330844D01*
X0323757Y0437379D02*
X0330844D01*
X0468405Y0459547D02*
X0479036Y0459547D01*
X0468405Y0453642D02*
X0479035Y0453642D01*
X0479036Y0459547D01*
X0468405Y0453642D02*
Y0459547D01*
X0490453Y0450689D02*
X0490453Y0444783D01*
X0501083D02*
X0501083Y0450689D01*
X0490453Y0444783D02*
X0501083D01*
X0490453Y0450689D02*
X0501083D01*
X0487992Y0402658D02*
Y0414075D01*
X0466339Y0402658D02*
Y0414075D01*
X0487992D01*
X0466339Y0402658D02*
X0487992D01*
X0465354Y0500591D02*
X0487008D01*
X0465354Y0489173D02*
X0487008Y0489173D01*
Y0500591D01*
X0465354Y0489173D02*
X0465354Y0500591D01*
X0465354Y0480217D02*
Y0491634D01*
X0487008Y0480217D02*
X0487008Y0491634D01*
X0465354Y0480217D02*
X0487008Y0480217D01*
X0465354Y0491634D02*
X0487008D01*
X0450347Y0458962D02*
X0450347Y0449120D01*
X0467276Y0458962D02*
X0467276Y0449120D01*
X0450347Y0449120D02*
X0467276Y0449120D01*
X0450347Y0458962D02*
X0467276D01*
X0465846Y0454823D02*
X0465846Y0443405D01*
X0487500Y0454823D02*
X0487500Y0443406D01*
X0465846Y0443405D02*
X0487500Y0443406D01*
X0465846Y0454823D02*
X0487500Y0454823D01*
X0438663Y0443776D02*
X0438663Y0451650D01*
X0451655Y0451650D02*
X0451655Y0443776D01*
X0438663D02*
X0451655D01*
X0438663Y0451650D02*
X0451655Y0451650D01*
X0438663Y0438461D02*
X0438663Y0446335D01*
X0451655Y0446335D02*
X0451655Y0438461D01*
X0438663D02*
X0451655D01*
X0438663Y0446335D02*
X0451655Y0446335D01*
X0447933Y0495669D02*
X0447933Y0505512D01*
X0464862Y0495669D02*
Y0505512D01*
X0447933Y0495669D02*
X0464862D01*
X0447933Y0505512D02*
X0464862Y0505512D01*
X0436811Y0491929D02*
X0449803D01*
X0436811Y0484055D02*
X0449803Y0484055D01*
X0449803Y0491929D02*
X0449803Y0484055D01*
X0436811Y0484055D02*
X0436811Y0491929D01*
X0436713Y0490158D02*
X0436713Y0498032D01*
X0449705Y0498032D02*
X0449705Y0490158D01*
X0436713Y0490158D02*
X0449705Y0490158D01*
X0436713Y0498032D02*
X0449705Y0498032D01*
X0456307Y0490079D02*
X0456307Y0516260D01*
X0434260Y0490079D02*
X0456307Y0490079D01*
X0434260Y0516260D02*
X0456307Y0516260D01*
X0434260Y0490079D02*
X0434260Y0516260D01*
X0464961Y0494685D02*
Y0508465D01*
X0457087Y0494685D02*
Y0508465D01*
X0464961D01*
X0457087Y0494685D02*
X0464961D01*
X0464764Y0509449D02*
X0492520Y0509449D01*
X0492520Y0530512D02*
X0492520Y0509449D01*
X0464764Y0530512D02*
X0492520Y0530512D01*
X0464764Y0509449D02*
X0464764Y0530512D01*
X0434260Y0429449D02*
X0434260Y0455630D01*
X0456307Y0455630D01*
X0434260Y0429449D02*
X0456307Y0429449D01*
X0456307Y0455630D01*
X0464960Y0415157D02*
X0492717Y0415157D01*
X0492717Y0436221D01*
X0464960Y0436221D02*
X0492717Y0436221D01*
X0464960Y0415157D02*
X0464960Y0436221D01*
X0507579Y0465354D02*
X0507579Y0444291D01*
X0479823Y0444291D02*
X0507579Y0444291D01*
X0479823Y0465354D02*
X0479823Y0444291D01*
X0479823Y0465354D02*
X0507579Y0465354D01*
X0397570Y0458858D02*
Y0486811D01*
X0415287Y0458858D02*
Y0486811D01*
X0397570D02*
X0415287D01*
X0397570Y0458858D02*
X0415287D01*
X0538976Y0497835D02*
X0556693Y0497835D01*
X0538976Y0470669D02*
X0556693Y0470669D01*
X0556693Y0497835D02*
X0556693Y0470669D01*
X0538976Y0497835D02*
X0538976Y0470669D01*
X0553544Y0497835D02*
X0571260Y0497834D01*
X0553543Y0470669D02*
X0571260Y0470669D01*
X0571260Y0497834D02*
X0571260Y0470669D01*
X0553543Y0470669D02*
X0553544Y0497835D01*
X0399606Y0472638D02*
X0407480Y0472638D01*
X0399606Y0485630D02*
X0407480Y0485630D01*
X0407480Y0472638D02*
X0407480Y0485630D01*
X0399606Y0485630D02*
X0399606Y0472638D01*
X0405315Y0472638D02*
X0413189Y0472638D01*
X0405315Y0485630D02*
X0413189Y0485630D01*
Y0472638D02*
Y0485630D01*
X0405315Y0472638D02*
Y0485630D01*
X0495239Y0394182D02*
X0503113Y0394182D01*
X0495239Y0407174D02*
X0503113Y0407174D01*
Y0394182D02*
Y0407174D01*
X0495239Y0407174D02*
X0495239Y0394182D01*
X0501145Y0394182D02*
X0509019Y0394182D01*
X0501145Y0407174D02*
X0509019Y0407174D01*
X0509019Y0394182D02*
X0509019Y0407174D01*
X0501145Y0394182D02*
X0501145Y0407174D01*
X0485728Y0424311D02*
X0497146D01*
X0485728Y0445965D02*
X0497146Y0445965D01*
X0497146Y0424311D01*
X0485728D02*
Y0445965D01*
X0495239Y0424300D02*
X0495239Y0445954D01*
X0506657Y0445954D02*
X0506657Y0424300D01*
X0495239Y0445954D02*
X0506657Y0445954D01*
X0495239Y0424300D02*
X0506657Y0424300D01*
X0496260Y0490551D02*
X0504134Y0490551D01*
X0496260Y0503543D02*
X0504134Y0503543D01*
Y0490551D02*
Y0503543D01*
X0496260Y0490551D02*
X0496260Y0503543D01*
X0487697Y0518996D02*
X0487697Y0502067D01*
X0497539Y0518996D02*
X0497539Y0502067D01*
X0487697Y0518996D02*
X0497539Y0518996D01*
X0487697Y0502067D02*
X0497539D01*
X0501772Y0490551D02*
X0509646Y0490551D01*
X0501772Y0503543D02*
X0509646Y0503543D01*
Y0490551D02*
Y0503543D01*
X0501772Y0490551D02*
X0501772Y0503543D01*
X0501378Y0518110D02*
X0512795D01*
X0501378Y0539764D02*
X0512795D01*
X0512795Y0518110D02*
X0512795Y0539764D01*
X0501378D02*
X0501378Y0518110D01*
X0491831Y0539862D02*
X0491831Y0518209D01*
X0503248D02*
Y0539862D01*
X0491831Y0539862D02*
X0503248Y0539862D01*
X0491831Y0518209D02*
X0503248D01*
X0486319Y0518898D02*
X0492224Y0518898D01*
X0486319Y0529528D02*
X0492224Y0529528D01*
X0492224Y0518898D02*
X0492224Y0529528D01*
X0486319Y0529528D02*
X0486319Y0518898D01*
X0390650Y0363287D02*
X0396555D01*
X0390650Y0373917D02*
X0396555Y0373917D01*
X0390650Y0363287D02*
Y0373917D01*
X0396555Y0363287D02*
Y0373917D01*
X0181140Y0440645D02*
X0186708Y0435077D01*
X0171953Y0431458D02*
X0177521Y0425890D01*
X0186708Y0435077D01*
X0171953Y0431458D02*
X0181140Y0440645D01*
X0178286Y0446157D02*
X0183854Y0440589D01*
X0169099Y0436970D02*
X0174667Y0431402D01*
X0183854Y0440589D01*
X0169099Y0436970D02*
X0178286Y0446157D01*
X0488583Y0470669D02*
Y0491142D01*
X0496850Y0470669D02*
Y0491142D01*
X0488583D02*
X0496850D01*
X0488583Y0470669D02*
X0496850D01*
X0164567Y0527047D02*
X0172835Y0527047D01*
X0164567Y0513661D02*
X0172835Y0513661D01*
X0172835Y0527047D02*
X0172835Y0513661D01*
X0164567Y0513661D02*
Y0527047D01*
X0148130Y0527047D02*
X0156398Y0527047D01*
X0148130Y0513661D02*
X0156398Y0513661D01*
X0156398Y0527047D02*
X0156398Y0513661D01*
X0148130Y0513661D02*
Y0527047D01*
X0130807Y0527067D02*
X0139075Y0527067D01*
X0130807Y0513681D02*
X0139075D01*
Y0527067D01*
X0130807Y0527067D02*
X0130807Y0513681D01*
X0147264Y0546693D02*
X0157264Y0546693D01*
X0147264Y0527520D02*
X0157264D01*
X0157264Y0546693D02*
X0157264Y0527520D01*
X0147264Y0546693D02*
X0147264Y0527520D01*
X0471654Y0478642D02*
X0482283Y0478642D01*
X0471654Y0472736D02*
X0482283Y0472736D01*
X0482283Y0478642D02*
X0482283Y0472736D01*
X0471654Y0478642D02*
X0471654Y0472736D01*
X0497835Y0491043D02*
X0509252D01*
X0497835Y0469390D02*
X0509252D01*
X0497835D02*
X0497835Y0491043D01*
X0509252Y0469390D02*
X0509252Y0491043D01*
D370*
X0518110Y0531004D02*
X0547244D01*
X0518110Y0510138D02*
X0547244D01*
Y0531004D01*
X0518110Y0510138D02*
Y0531004D01*
X0342689Y0505705D02*
X0358689D01*
X0358689Y0518705D02*
X0358689Y0505705D01*
X0342689Y0518705D02*
X0358689D01*
X0342689Y0505705D02*
X0342689Y0518705D01*
X0208276Y0499240D02*
X0219590Y0510554D01*
X0210397Y0519746D02*
X0219590Y0510554D01*
X0199084Y0508433D02*
X0210397Y0519746D01*
X0199084Y0508433D02*
X0208276Y0499240D01*
X0418598Y0520008D02*
X0431598D01*
X0418598Y0504008D02*
Y0520008D01*
Y0504008D02*
X0431598D01*
Y0520008D01*
X0450811Y0437797D02*
X0466812Y0437797D01*
X0450811Y0437797D02*
Y0450797D01*
X0466812Y0450797D01*
Y0437797D02*
Y0450797D01*
X0448723Y0483854D02*
X0464723Y0483854D01*
X0448723Y0483854D02*
X0448723Y0496854D01*
X0464723Y0496854D01*
X0464723Y0483854D01*
X0508531Y0422359D02*
X0508531Y0406359D01*
X0495531Y0406359D02*
X0508531Y0406359D01*
X0495531Y0406359D02*
Y0422359D01*
X0508531Y0422359D01*
X0496453Y0518728D02*
X0509453Y0518728D01*
X0496453Y0518728D02*
X0496453Y0502728D01*
X0509453D01*
X0509453Y0518728D02*
X0509453Y0502728D01*
D375*
X0379232Y0498917D02*
D03*
X0350689Y0512205D02*
D03*
X0209337Y0509493D02*
D03*
X0425098Y0512008D02*
D03*
X0458812Y0444297D02*
D03*
X0456723Y0490354D02*
D03*
X0502031Y0414359D02*
D03*
X0502953Y0510728D02*
D03*
D376*
X0532677Y0520571D02*
D03*
D377*
X0566339Y0378445D02*
D03*
X0205926Y0473372D02*
D03*
X0193110Y0468799D02*
D03*
M02*
